G04 (created by PCBNEW-RS274X (2012-01-19 BZR 3256)-stable) date 2013/3/11 15:33:10*
G01*
G70*
G90*
%MOIN*%
G04 Gerber Fmt 3.4, Leading zero omitted, Abs format*
%FSLAX34Y34*%
G04 APERTURE LIST*
%ADD10C,0.000100*%
%ADD11C,0.094000*%
%ADD12R,0.067200X0.067200*%
%ADD13R,0.067900X0.107900*%
%ADD14R,0.161700X0.106600*%
%ADD15R,0.067200X0.041600*%
%ADD16R,0.051000X0.055000*%
%ADD17O,0.240000X0.170000*%
%ADD18O,0.170000X0.240000*%
%ADD19R,0.082900X0.075100*%
%ADD20R,0.067200X0.075100*%
%ADD21R,0.082900X0.114400*%
%ADD22R,0.114400X0.082900*%
%ADD23C,0.146000*%
%ADD24R,0.067200X0.031800*%
%ADD25O,0.075100X0.037700*%
%ADD26O,0.037700X0.075100*%
%ADD27C,0.059300*%
%ADD28R,0.067200X0.059300*%
%ADD29R,0.153800X0.094800*%
%ADD30R,0.071100X0.079000*%
%ADD31R,0.079000X0.071100*%
%ADD32R,0.039600X0.053000*%
%ADD33R,0.039600X0.050000*%
%ADD34R,0.053000X0.039600*%
%ADD35R,0.050000X0.039600*%
%ADD36R,0.090800X0.075100*%
%ADD37R,0.075100X0.090800*%
%ADD38R,0.073000X0.036000*%
%ADD39R,0.101000X0.101000*%
%ADD40R,0.060000X0.080000*%
%ADD41R,0.080000X0.080000*%
%ADD42R,0.082900X0.073100*%
G04 APERTURE END LIST*
G54D10*
G54D11*
X53300Y-40500D03*
X54300Y-40500D03*
X53300Y-41500D03*
X54300Y-41500D03*
X53300Y-42500D03*
X54300Y-42500D03*
G54D12*
X30163Y-41250D03*
X29337Y-41250D03*
X30163Y-42750D03*
X29337Y-42750D03*
X30163Y-44250D03*
X29337Y-44250D03*
X30163Y-45750D03*
X29337Y-45750D03*
G54D13*
X37909Y-47280D03*
X37000Y-47280D03*
X36091Y-47280D03*
G54D14*
X37000Y-49720D03*
G54D15*
X38511Y-45124D03*
X38511Y-44750D03*
X38511Y-44376D03*
X37489Y-44376D03*
X37489Y-45124D03*
G54D16*
X35260Y-41650D03*
X34880Y-40850D03*
X35640Y-40850D03*
G54D17*
X31420Y-51200D03*
G54D18*
X32600Y-49230D03*
X30240Y-49230D03*
G54D19*
X32403Y-34135D03*
X29097Y-34135D03*
X32403Y-32365D03*
X29097Y-32365D03*
X32403Y-33250D03*
G54D20*
X31817Y-40000D03*
X32683Y-40000D03*
X31817Y-37000D03*
X32683Y-37000D03*
G54D21*
X36410Y-51250D03*
X37590Y-51250D03*
G54D22*
X39250Y-47660D03*
X39250Y-48840D03*
G54D23*
X34250Y-32500D03*
X54250Y-38500D03*
X33750Y-51500D03*
X54250Y-49500D03*
G54D24*
X34419Y-44366D03*
X34419Y-44622D03*
X34419Y-44877D03*
X34419Y-45133D03*
X36081Y-45133D03*
X36081Y-44877D03*
X36081Y-44622D03*
X36081Y-44366D03*
G54D25*
X48783Y-46824D03*
X48783Y-46509D03*
X48783Y-46194D03*
X48783Y-45879D03*
X48783Y-45564D03*
X48783Y-45250D03*
X48783Y-44936D03*
X48783Y-44621D03*
X48783Y-44306D03*
X48783Y-43991D03*
X48783Y-43676D03*
G54D26*
X48074Y-42967D03*
X47759Y-42967D03*
X47444Y-42967D03*
X47129Y-42967D03*
X46814Y-42967D03*
X46500Y-42967D03*
X46186Y-42967D03*
X45871Y-42967D03*
X45556Y-42967D03*
X45241Y-42967D03*
X44926Y-42967D03*
G54D25*
X44217Y-43676D03*
X44217Y-43991D03*
X44217Y-44306D03*
X44217Y-44621D03*
X44217Y-44936D03*
X44217Y-45250D03*
X44217Y-45564D03*
X44217Y-45879D03*
X44217Y-46194D03*
X44217Y-46509D03*
X44217Y-46824D03*
G54D26*
X44926Y-47533D03*
X45241Y-47533D03*
X45556Y-47533D03*
X45871Y-47533D03*
X46186Y-47533D03*
X46500Y-47533D03*
X46814Y-47533D03*
X47129Y-47533D03*
X47444Y-47533D03*
X47759Y-47533D03*
X48074Y-47533D03*
G54D27*
X46500Y-45250D03*
G54D28*
X51433Y-47000D03*
X50567Y-47000D03*
X29317Y-39750D03*
X30183Y-39750D03*
G54D22*
X35250Y-38660D03*
X35250Y-39840D03*
G54D29*
X35250Y-35983D03*
X35250Y-37517D03*
G54D11*
X37650Y-32500D03*
X38650Y-32500D03*
X43650Y-32500D03*
X42650Y-32500D03*
X41650Y-32500D03*
X40650Y-32500D03*
X39650Y-32500D03*
X36650Y-32500D03*
X35650Y-32500D03*
X44650Y-32500D03*
X52250Y-32500D03*
X51250Y-32500D03*
X50250Y-32500D03*
X49250Y-32500D03*
X48250Y-32500D03*
X47250Y-32500D03*
X46250Y-32500D03*
X53250Y-32500D03*
X48250Y-51500D03*
X49250Y-51500D03*
X50250Y-51500D03*
X51250Y-51500D03*
X52250Y-51500D03*
X53250Y-51500D03*
X40250Y-51500D03*
X41250Y-51500D03*
X42250Y-51500D03*
X43250Y-51500D03*
X44250Y-51500D03*
X45250Y-51500D03*
X46250Y-51500D03*
X39250Y-51500D03*
G54D30*
X31876Y-41000D03*
X32624Y-41000D03*
X53374Y-45000D03*
X52626Y-45000D03*
X37876Y-46000D03*
X38624Y-46000D03*
X36126Y-46000D03*
X36874Y-46000D03*
X50874Y-41250D03*
X50126Y-41250D03*
X31876Y-42000D03*
X32624Y-42000D03*
X31876Y-44000D03*
X32624Y-44000D03*
X50874Y-40250D03*
X50126Y-40250D03*
X51374Y-48000D03*
X50626Y-48000D03*
X52626Y-47000D03*
X53374Y-47000D03*
X32624Y-36000D03*
X31876Y-36000D03*
X31876Y-43000D03*
X32624Y-43000D03*
X53374Y-46000D03*
X52626Y-46000D03*
X53374Y-48000D03*
X52626Y-48000D03*
G54D31*
X47250Y-40376D03*
X47250Y-41124D03*
G54D30*
X31876Y-39000D03*
X32624Y-39000D03*
X31876Y-38000D03*
X32624Y-38000D03*
G54D32*
X34278Y-46515D03*
X34593Y-46515D03*
X34907Y-46515D03*
G54D33*
X35222Y-46515D03*
G54D32*
X35222Y-45985D03*
X34907Y-45985D03*
X34593Y-45985D03*
X34278Y-45985D03*
G54D34*
X31985Y-45028D03*
X31985Y-45343D03*
X31985Y-45657D03*
G54D35*
X31985Y-45972D03*
G54D34*
X32515Y-45972D03*
X32515Y-45657D03*
X32515Y-45343D03*
X32515Y-45028D03*
G54D36*
X34500Y-48919D03*
X34500Y-47581D03*
G54D37*
X34581Y-43000D03*
X35919Y-43000D03*
G54D38*
X29810Y-36980D03*
X29810Y-37240D03*
X29810Y-37500D03*
X29810Y-37760D03*
X29810Y-38020D03*
G54D39*
X28750Y-36120D03*
X28750Y-38880D03*
G54D40*
X29810Y-36520D03*
X29810Y-38480D03*
G54D41*
X28750Y-37100D03*
X28750Y-37900D03*
G54D42*
X49250Y-40350D03*
X48150Y-40350D03*
X48150Y-41150D03*
X49250Y-41150D03*
M02*
