G04 (created by PCBNEW-RS274X (2012-01-19 BZR 3256)-stable) date 2013/3/11 15:33:10*
G01*
G70*
G90*
%MOIN*%
G04 Gerber Fmt 3.4, Leading zero omitted, Abs format*
%FSLAX34Y34*%
G04 APERTURE LIST*
%ADD10C,0.000100*%
G04 APERTURE END LIST*
G54D10*
X38019Y-32500D02*
X38011Y-32571D01*
X37991Y-32640D01*
X37957Y-32704D01*
X37911Y-32760D01*
X37856Y-32805D01*
X37792Y-32840D01*
X37724Y-32861D01*
X37652Y-32868D01*
X37581Y-32862D01*
X37512Y-32842D01*
X37448Y-32808D01*
X37392Y-32763D01*
X37346Y-32708D01*
X37311Y-32645D01*
X37290Y-32576D01*
X37282Y-32505D01*
X37288Y-32434D01*
X37307Y-32365D01*
X37340Y-32301D01*
X37385Y-32244D01*
X37440Y-32197D01*
X37503Y-32162D01*
X37571Y-32140D01*
X37643Y-32132D01*
X37714Y-32137D01*
X37783Y-32156D01*
X37847Y-32189D01*
X37904Y-32233D01*
X37951Y-32288D01*
X37987Y-32350D01*
X38009Y-32419D01*
X38018Y-32490D01*
X38019Y-32500D01*
X39019Y-32500D02*
X39011Y-32571D01*
X38991Y-32640D01*
X38957Y-32704D01*
X38911Y-32760D01*
X38856Y-32805D01*
X38792Y-32840D01*
X38724Y-32861D01*
X38652Y-32868D01*
X38581Y-32862D01*
X38512Y-32842D01*
X38448Y-32808D01*
X38392Y-32763D01*
X38346Y-32708D01*
X38311Y-32645D01*
X38290Y-32576D01*
X38282Y-32505D01*
X38288Y-32434D01*
X38307Y-32365D01*
X38340Y-32301D01*
X38385Y-32244D01*
X38440Y-32197D01*
X38503Y-32162D01*
X38571Y-32140D01*
X38643Y-32132D01*
X38714Y-32137D01*
X38783Y-32156D01*
X38847Y-32189D01*
X38904Y-32233D01*
X38951Y-32288D01*
X38987Y-32350D01*
X39009Y-32419D01*
X39018Y-32490D01*
X39019Y-32500D01*
X44019Y-32500D02*
X44011Y-32571D01*
X43991Y-32640D01*
X43957Y-32704D01*
X43911Y-32760D01*
X43856Y-32805D01*
X43792Y-32840D01*
X43724Y-32861D01*
X43652Y-32868D01*
X43581Y-32862D01*
X43512Y-32842D01*
X43448Y-32808D01*
X43392Y-32763D01*
X43346Y-32708D01*
X43311Y-32645D01*
X43290Y-32576D01*
X43282Y-32505D01*
X43288Y-32434D01*
X43307Y-32365D01*
X43340Y-32301D01*
X43385Y-32244D01*
X43440Y-32197D01*
X43503Y-32162D01*
X43571Y-32140D01*
X43643Y-32132D01*
X43714Y-32137D01*
X43783Y-32156D01*
X43847Y-32189D01*
X43904Y-32233D01*
X43951Y-32288D01*
X43987Y-32350D01*
X44009Y-32419D01*
X44018Y-32490D01*
X44019Y-32500D01*
X43019Y-32500D02*
X43011Y-32571D01*
X42991Y-32640D01*
X42957Y-32704D01*
X42911Y-32760D01*
X42856Y-32805D01*
X42792Y-32840D01*
X42724Y-32861D01*
X42652Y-32868D01*
X42581Y-32862D01*
X42512Y-32842D01*
X42448Y-32808D01*
X42392Y-32763D01*
X42346Y-32708D01*
X42311Y-32645D01*
X42290Y-32576D01*
X42282Y-32505D01*
X42288Y-32434D01*
X42307Y-32365D01*
X42340Y-32301D01*
X42385Y-32244D01*
X42440Y-32197D01*
X42503Y-32162D01*
X42571Y-32140D01*
X42643Y-32132D01*
X42714Y-32137D01*
X42783Y-32156D01*
X42847Y-32189D01*
X42904Y-32233D01*
X42951Y-32288D01*
X42987Y-32350D01*
X43009Y-32419D01*
X43018Y-32490D01*
X43019Y-32500D01*
X42019Y-32500D02*
X42011Y-32571D01*
X41991Y-32640D01*
X41957Y-32704D01*
X41911Y-32760D01*
X41856Y-32805D01*
X41792Y-32840D01*
X41724Y-32861D01*
X41652Y-32868D01*
X41581Y-32862D01*
X41512Y-32842D01*
X41448Y-32808D01*
X41392Y-32763D01*
X41346Y-32708D01*
X41311Y-32645D01*
X41290Y-32576D01*
X41282Y-32505D01*
X41288Y-32434D01*
X41307Y-32365D01*
X41340Y-32301D01*
X41385Y-32244D01*
X41440Y-32197D01*
X41503Y-32162D01*
X41571Y-32140D01*
X41643Y-32132D01*
X41714Y-32137D01*
X41783Y-32156D01*
X41847Y-32189D01*
X41904Y-32233D01*
X41951Y-32288D01*
X41987Y-32350D01*
X42009Y-32419D01*
X42018Y-32490D01*
X42019Y-32500D01*
X41019Y-32500D02*
X41011Y-32571D01*
X40991Y-32640D01*
X40957Y-32704D01*
X40911Y-32760D01*
X40856Y-32805D01*
X40792Y-32840D01*
X40724Y-32861D01*
X40652Y-32868D01*
X40581Y-32862D01*
X40512Y-32842D01*
X40448Y-32808D01*
X40392Y-32763D01*
X40346Y-32708D01*
X40311Y-32645D01*
X40290Y-32576D01*
X40282Y-32505D01*
X40288Y-32434D01*
X40307Y-32365D01*
X40340Y-32301D01*
X40385Y-32244D01*
X40440Y-32197D01*
X40503Y-32162D01*
X40571Y-32140D01*
X40643Y-32132D01*
X40714Y-32137D01*
X40783Y-32156D01*
X40847Y-32189D01*
X40904Y-32233D01*
X40951Y-32288D01*
X40987Y-32350D01*
X41009Y-32419D01*
X41018Y-32490D01*
X41019Y-32500D01*
X40019Y-32500D02*
X40011Y-32571D01*
X39991Y-32640D01*
X39957Y-32704D01*
X39911Y-32760D01*
X39856Y-32805D01*
X39792Y-32840D01*
X39724Y-32861D01*
X39652Y-32868D01*
X39581Y-32862D01*
X39512Y-32842D01*
X39448Y-32808D01*
X39392Y-32763D01*
X39346Y-32708D01*
X39311Y-32645D01*
X39290Y-32576D01*
X39282Y-32505D01*
X39288Y-32434D01*
X39307Y-32365D01*
X39340Y-32301D01*
X39385Y-32244D01*
X39440Y-32197D01*
X39503Y-32162D01*
X39571Y-32140D01*
X39643Y-32132D01*
X39714Y-32137D01*
X39783Y-32156D01*
X39847Y-32189D01*
X39904Y-32233D01*
X39951Y-32288D01*
X39987Y-32350D01*
X40009Y-32419D01*
X40018Y-32490D01*
X40019Y-32500D01*
X37019Y-32500D02*
X37011Y-32571D01*
X36991Y-32640D01*
X36957Y-32704D01*
X36911Y-32760D01*
X36856Y-32805D01*
X36792Y-32840D01*
X36724Y-32861D01*
X36652Y-32868D01*
X36581Y-32862D01*
X36512Y-32842D01*
X36448Y-32808D01*
X36392Y-32763D01*
X36346Y-32708D01*
X36311Y-32645D01*
X36290Y-32576D01*
X36282Y-32505D01*
X36288Y-32434D01*
X36307Y-32365D01*
X36340Y-32301D01*
X36385Y-32244D01*
X36440Y-32197D01*
X36503Y-32162D01*
X36571Y-32140D01*
X36643Y-32132D01*
X36714Y-32137D01*
X36783Y-32156D01*
X36847Y-32189D01*
X36904Y-32233D01*
X36951Y-32288D01*
X36987Y-32350D01*
X37009Y-32419D01*
X37018Y-32490D01*
X37019Y-32500D01*
X36019Y-32500D02*
X36011Y-32571D01*
X35991Y-32640D01*
X35957Y-32704D01*
X35911Y-32760D01*
X35856Y-32805D01*
X35792Y-32840D01*
X35724Y-32861D01*
X35652Y-32868D01*
X35581Y-32862D01*
X35512Y-32842D01*
X35448Y-32808D01*
X35392Y-32763D01*
X35346Y-32708D01*
X35311Y-32645D01*
X35290Y-32576D01*
X35282Y-32505D01*
X35288Y-32434D01*
X35307Y-32365D01*
X35340Y-32301D01*
X35385Y-32244D01*
X35440Y-32197D01*
X35503Y-32162D01*
X35571Y-32140D01*
X35643Y-32132D01*
X35714Y-32137D01*
X35783Y-32156D01*
X35847Y-32189D01*
X35904Y-32233D01*
X35951Y-32288D01*
X35987Y-32350D01*
X36009Y-32419D01*
X36018Y-32490D01*
X36019Y-32500D01*
X45019Y-32500D02*
X45011Y-32571D01*
X44991Y-32640D01*
X44957Y-32704D01*
X44911Y-32760D01*
X44856Y-32805D01*
X44792Y-32840D01*
X44724Y-32861D01*
X44652Y-32868D01*
X44581Y-32862D01*
X44512Y-32842D01*
X44448Y-32808D01*
X44392Y-32763D01*
X44346Y-32708D01*
X44311Y-32645D01*
X44290Y-32576D01*
X44282Y-32505D01*
X44288Y-32434D01*
X44307Y-32365D01*
X44340Y-32301D01*
X44385Y-32244D01*
X44440Y-32197D01*
X44503Y-32162D01*
X44571Y-32140D01*
X44643Y-32132D01*
X44714Y-32137D01*
X44783Y-32156D01*
X44847Y-32189D01*
X44904Y-32233D01*
X44951Y-32288D01*
X44987Y-32350D01*
X45009Y-32419D01*
X45018Y-32490D01*
X45019Y-32500D01*
X52619Y-32500D02*
X52611Y-32571D01*
X52591Y-32640D01*
X52557Y-32704D01*
X52511Y-32760D01*
X52456Y-32805D01*
X52392Y-32840D01*
X52324Y-32861D01*
X52252Y-32868D01*
X52181Y-32862D01*
X52112Y-32842D01*
X52048Y-32808D01*
X51992Y-32763D01*
X51946Y-32708D01*
X51911Y-32645D01*
X51890Y-32576D01*
X51882Y-32505D01*
X51888Y-32434D01*
X51907Y-32365D01*
X51940Y-32301D01*
X51985Y-32244D01*
X52040Y-32197D01*
X52103Y-32162D01*
X52171Y-32140D01*
X52243Y-32132D01*
X52314Y-32137D01*
X52383Y-32156D01*
X52447Y-32189D01*
X52504Y-32233D01*
X52551Y-32288D01*
X52587Y-32350D01*
X52609Y-32419D01*
X52618Y-32490D01*
X52619Y-32500D01*
X51619Y-32500D02*
X51611Y-32571D01*
X51591Y-32640D01*
X51557Y-32704D01*
X51511Y-32760D01*
X51456Y-32805D01*
X51392Y-32840D01*
X51324Y-32861D01*
X51252Y-32868D01*
X51181Y-32862D01*
X51112Y-32842D01*
X51048Y-32808D01*
X50992Y-32763D01*
X50946Y-32708D01*
X50911Y-32645D01*
X50890Y-32576D01*
X50882Y-32505D01*
X50888Y-32434D01*
X50907Y-32365D01*
X50940Y-32301D01*
X50985Y-32244D01*
X51040Y-32197D01*
X51103Y-32162D01*
X51171Y-32140D01*
X51243Y-32132D01*
X51314Y-32137D01*
X51383Y-32156D01*
X51447Y-32189D01*
X51504Y-32233D01*
X51551Y-32288D01*
X51587Y-32350D01*
X51609Y-32419D01*
X51618Y-32490D01*
X51619Y-32500D01*
X50619Y-32500D02*
X50611Y-32571D01*
X50591Y-32640D01*
X50557Y-32704D01*
X50511Y-32760D01*
X50456Y-32805D01*
X50392Y-32840D01*
X50324Y-32861D01*
X50252Y-32868D01*
X50181Y-32862D01*
X50112Y-32842D01*
X50048Y-32808D01*
X49992Y-32763D01*
X49946Y-32708D01*
X49911Y-32645D01*
X49890Y-32576D01*
X49882Y-32505D01*
X49888Y-32434D01*
X49907Y-32365D01*
X49940Y-32301D01*
X49985Y-32244D01*
X50040Y-32197D01*
X50103Y-32162D01*
X50171Y-32140D01*
X50243Y-32132D01*
X50314Y-32137D01*
X50383Y-32156D01*
X50447Y-32189D01*
X50504Y-32233D01*
X50551Y-32288D01*
X50587Y-32350D01*
X50609Y-32419D01*
X50618Y-32490D01*
X50619Y-32500D01*
X49619Y-32500D02*
X49611Y-32571D01*
X49591Y-32640D01*
X49557Y-32704D01*
X49511Y-32760D01*
X49456Y-32805D01*
X49392Y-32840D01*
X49324Y-32861D01*
X49252Y-32868D01*
X49181Y-32862D01*
X49112Y-32842D01*
X49048Y-32808D01*
X48992Y-32763D01*
X48946Y-32708D01*
X48911Y-32645D01*
X48890Y-32576D01*
X48882Y-32505D01*
X48888Y-32434D01*
X48907Y-32365D01*
X48940Y-32301D01*
X48985Y-32244D01*
X49040Y-32197D01*
X49103Y-32162D01*
X49171Y-32140D01*
X49243Y-32132D01*
X49314Y-32137D01*
X49383Y-32156D01*
X49447Y-32189D01*
X49504Y-32233D01*
X49551Y-32288D01*
X49587Y-32350D01*
X49609Y-32419D01*
X49618Y-32490D01*
X49619Y-32500D01*
X48619Y-32500D02*
X48611Y-32571D01*
X48591Y-32640D01*
X48557Y-32704D01*
X48511Y-32760D01*
X48456Y-32805D01*
X48392Y-32840D01*
X48324Y-32861D01*
X48252Y-32868D01*
X48181Y-32862D01*
X48112Y-32842D01*
X48048Y-32808D01*
X47992Y-32763D01*
X47946Y-32708D01*
X47911Y-32645D01*
X47890Y-32576D01*
X47882Y-32505D01*
X47888Y-32434D01*
X47907Y-32365D01*
X47940Y-32301D01*
X47985Y-32244D01*
X48040Y-32197D01*
X48103Y-32162D01*
X48171Y-32140D01*
X48243Y-32132D01*
X48314Y-32137D01*
X48383Y-32156D01*
X48447Y-32189D01*
X48504Y-32233D01*
X48551Y-32288D01*
X48587Y-32350D01*
X48609Y-32419D01*
X48618Y-32490D01*
X48619Y-32500D01*
X47619Y-32500D02*
X47611Y-32571D01*
X47591Y-32640D01*
X47557Y-32704D01*
X47511Y-32760D01*
X47456Y-32805D01*
X47392Y-32840D01*
X47324Y-32861D01*
X47252Y-32868D01*
X47181Y-32862D01*
X47112Y-32842D01*
X47048Y-32808D01*
X46992Y-32763D01*
X46946Y-32708D01*
X46911Y-32645D01*
X46890Y-32576D01*
X46882Y-32505D01*
X46888Y-32434D01*
X46907Y-32365D01*
X46940Y-32301D01*
X46985Y-32244D01*
X47040Y-32197D01*
X47103Y-32162D01*
X47171Y-32140D01*
X47243Y-32132D01*
X47314Y-32137D01*
X47383Y-32156D01*
X47447Y-32189D01*
X47504Y-32233D01*
X47551Y-32288D01*
X47587Y-32350D01*
X47609Y-32419D01*
X47618Y-32490D01*
X47619Y-32500D01*
X46619Y-32500D02*
X46611Y-32571D01*
X46591Y-32640D01*
X46557Y-32704D01*
X46511Y-32760D01*
X46456Y-32805D01*
X46392Y-32840D01*
X46324Y-32861D01*
X46252Y-32868D01*
X46181Y-32862D01*
X46112Y-32842D01*
X46048Y-32808D01*
X45992Y-32763D01*
X45946Y-32708D01*
X45911Y-32645D01*
X45890Y-32576D01*
X45882Y-32505D01*
X45888Y-32434D01*
X45907Y-32365D01*
X45940Y-32301D01*
X45985Y-32244D01*
X46040Y-32197D01*
X46103Y-32162D01*
X46171Y-32140D01*
X46243Y-32132D01*
X46314Y-32137D01*
X46383Y-32156D01*
X46447Y-32189D01*
X46504Y-32233D01*
X46551Y-32288D01*
X46587Y-32350D01*
X46609Y-32419D01*
X46618Y-32490D01*
X46619Y-32500D01*
X53619Y-32500D02*
X53611Y-32571D01*
X53591Y-32640D01*
X53557Y-32704D01*
X53511Y-32760D01*
X53456Y-32805D01*
X53392Y-32840D01*
X53324Y-32861D01*
X53252Y-32868D01*
X53181Y-32862D01*
X53112Y-32842D01*
X53048Y-32808D01*
X52992Y-32763D01*
X52946Y-32708D01*
X52911Y-32645D01*
X52890Y-32576D01*
X52882Y-32505D01*
X52888Y-32434D01*
X52907Y-32365D01*
X52940Y-32301D01*
X52985Y-32244D01*
X53040Y-32197D01*
X53103Y-32162D01*
X53171Y-32140D01*
X53243Y-32132D01*
X53314Y-32137D01*
X53383Y-32156D01*
X53447Y-32189D01*
X53504Y-32233D01*
X53551Y-32288D01*
X53587Y-32350D01*
X53609Y-32419D01*
X53618Y-32490D01*
X53619Y-32500D01*
X48619Y-51500D02*
X48611Y-51571D01*
X48591Y-51640D01*
X48557Y-51704D01*
X48511Y-51760D01*
X48456Y-51805D01*
X48392Y-51840D01*
X48324Y-51861D01*
X48252Y-51868D01*
X48181Y-51862D01*
X48112Y-51842D01*
X48048Y-51808D01*
X47992Y-51763D01*
X47946Y-51708D01*
X47911Y-51645D01*
X47890Y-51576D01*
X47882Y-51505D01*
X47888Y-51434D01*
X47907Y-51365D01*
X47940Y-51301D01*
X47985Y-51244D01*
X48040Y-51197D01*
X48103Y-51162D01*
X48171Y-51140D01*
X48243Y-51132D01*
X48314Y-51137D01*
X48383Y-51156D01*
X48447Y-51189D01*
X48504Y-51233D01*
X48551Y-51288D01*
X48587Y-51350D01*
X48609Y-51419D01*
X48618Y-51490D01*
X48619Y-51500D01*
X49619Y-51500D02*
X49611Y-51571D01*
X49591Y-51640D01*
X49557Y-51704D01*
X49511Y-51760D01*
X49456Y-51805D01*
X49392Y-51840D01*
X49324Y-51861D01*
X49252Y-51868D01*
X49181Y-51862D01*
X49112Y-51842D01*
X49048Y-51808D01*
X48992Y-51763D01*
X48946Y-51708D01*
X48911Y-51645D01*
X48890Y-51576D01*
X48882Y-51505D01*
X48888Y-51434D01*
X48907Y-51365D01*
X48940Y-51301D01*
X48985Y-51244D01*
X49040Y-51197D01*
X49103Y-51162D01*
X49171Y-51140D01*
X49243Y-51132D01*
X49314Y-51137D01*
X49383Y-51156D01*
X49447Y-51189D01*
X49504Y-51233D01*
X49551Y-51288D01*
X49587Y-51350D01*
X49609Y-51419D01*
X49618Y-51490D01*
X49619Y-51500D01*
X50619Y-51500D02*
X50611Y-51571D01*
X50591Y-51640D01*
X50557Y-51704D01*
X50511Y-51760D01*
X50456Y-51805D01*
X50392Y-51840D01*
X50324Y-51861D01*
X50252Y-51868D01*
X50181Y-51862D01*
X50112Y-51842D01*
X50048Y-51808D01*
X49992Y-51763D01*
X49946Y-51708D01*
X49911Y-51645D01*
X49890Y-51576D01*
X49882Y-51505D01*
X49888Y-51434D01*
X49907Y-51365D01*
X49940Y-51301D01*
X49985Y-51244D01*
X50040Y-51197D01*
X50103Y-51162D01*
X50171Y-51140D01*
X50243Y-51132D01*
X50314Y-51137D01*
X50383Y-51156D01*
X50447Y-51189D01*
X50504Y-51233D01*
X50551Y-51288D01*
X50587Y-51350D01*
X50609Y-51419D01*
X50618Y-51490D01*
X50619Y-51500D01*
X51619Y-51500D02*
X51611Y-51571D01*
X51591Y-51640D01*
X51557Y-51704D01*
X51511Y-51760D01*
X51456Y-51805D01*
X51392Y-51840D01*
X51324Y-51861D01*
X51252Y-51868D01*
X51181Y-51862D01*
X51112Y-51842D01*
X51048Y-51808D01*
X50992Y-51763D01*
X50946Y-51708D01*
X50911Y-51645D01*
X50890Y-51576D01*
X50882Y-51505D01*
X50888Y-51434D01*
X50907Y-51365D01*
X50940Y-51301D01*
X50985Y-51244D01*
X51040Y-51197D01*
X51103Y-51162D01*
X51171Y-51140D01*
X51243Y-51132D01*
X51314Y-51137D01*
X51383Y-51156D01*
X51447Y-51189D01*
X51504Y-51233D01*
X51551Y-51288D01*
X51587Y-51350D01*
X51609Y-51419D01*
X51618Y-51490D01*
X51619Y-51500D01*
X52619Y-51500D02*
X52611Y-51571D01*
X52591Y-51640D01*
X52557Y-51704D01*
X52511Y-51760D01*
X52456Y-51805D01*
X52392Y-51840D01*
X52324Y-51861D01*
X52252Y-51868D01*
X52181Y-51862D01*
X52112Y-51842D01*
X52048Y-51808D01*
X51992Y-51763D01*
X51946Y-51708D01*
X51911Y-51645D01*
X51890Y-51576D01*
X51882Y-51505D01*
X51888Y-51434D01*
X51907Y-51365D01*
X51940Y-51301D01*
X51985Y-51244D01*
X52040Y-51197D01*
X52103Y-51162D01*
X52171Y-51140D01*
X52243Y-51132D01*
X52314Y-51137D01*
X52383Y-51156D01*
X52447Y-51189D01*
X52504Y-51233D01*
X52551Y-51288D01*
X52587Y-51350D01*
X52609Y-51419D01*
X52618Y-51490D01*
X52619Y-51500D01*
X53619Y-51500D02*
X53611Y-51571D01*
X53591Y-51640D01*
X53557Y-51704D01*
X53511Y-51760D01*
X53456Y-51805D01*
X53392Y-51840D01*
X53324Y-51861D01*
X53252Y-51868D01*
X53181Y-51862D01*
X53112Y-51842D01*
X53048Y-51808D01*
X52992Y-51763D01*
X52946Y-51708D01*
X52911Y-51645D01*
X52890Y-51576D01*
X52882Y-51505D01*
X52888Y-51434D01*
X52907Y-51365D01*
X52940Y-51301D01*
X52985Y-51244D01*
X53040Y-51197D01*
X53103Y-51162D01*
X53171Y-51140D01*
X53243Y-51132D01*
X53314Y-51137D01*
X53383Y-51156D01*
X53447Y-51189D01*
X53504Y-51233D01*
X53551Y-51288D01*
X53587Y-51350D01*
X53609Y-51419D01*
X53618Y-51490D01*
X53619Y-51500D01*
X40619Y-51500D02*
X40611Y-51571D01*
X40591Y-51640D01*
X40557Y-51704D01*
X40511Y-51760D01*
X40456Y-51805D01*
X40392Y-51840D01*
X40324Y-51861D01*
X40252Y-51868D01*
X40181Y-51862D01*
X40112Y-51842D01*
X40048Y-51808D01*
X39992Y-51763D01*
X39946Y-51708D01*
X39911Y-51645D01*
X39890Y-51576D01*
X39882Y-51505D01*
X39888Y-51434D01*
X39907Y-51365D01*
X39940Y-51301D01*
X39985Y-51244D01*
X40040Y-51197D01*
X40103Y-51162D01*
X40171Y-51140D01*
X40243Y-51132D01*
X40314Y-51137D01*
X40383Y-51156D01*
X40447Y-51189D01*
X40504Y-51233D01*
X40551Y-51288D01*
X40587Y-51350D01*
X40609Y-51419D01*
X40618Y-51490D01*
X40619Y-51500D01*
X41619Y-51500D02*
X41611Y-51571D01*
X41591Y-51640D01*
X41557Y-51704D01*
X41511Y-51760D01*
X41456Y-51805D01*
X41392Y-51840D01*
X41324Y-51861D01*
X41252Y-51868D01*
X41181Y-51862D01*
X41112Y-51842D01*
X41048Y-51808D01*
X40992Y-51763D01*
X40946Y-51708D01*
X40911Y-51645D01*
X40890Y-51576D01*
X40882Y-51505D01*
X40888Y-51434D01*
X40907Y-51365D01*
X40940Y-51301D01*
X40985Y-51244D01*
X41040Y-51197D01*
X41103Y-51162D01*
X41171Y-51140D01*
X41243Y-51132D01*
X41314Y-51137D01*
X41383Y-51156D01*
X41447Y-51189D01*
X41504Y-51233D01*
X41551Y-51288D01*
X41587Y-51350D01*
X41609Y-51419D01*
X41618Y-51490D01*
X41619Y-51500D01*
X42619Y-51500D02*
X42611Y-51571D01*
X42591Y-51640D01*
X42557Y-51704D01*
X42511Y-51760D01*
X42456Y-51805D01*
X42392Y-51840D01*
X42324Y-51861D01*
X42252Y-51868D01*
X42181Y-51862D01*
X42112Y-51842D01*
X42048Y-51808D01*
X41992Y-51763D01*
X41946Y-51708D01*
X41911Y-51645D01*
X41890Y-51576D01*
X41882Y-51505D01*
X41888Y-51434D01*
X41907Y-51365D01*
X41940Y-51301D01*
X41985Y-51244D01*
X42040Y-51197D01*
X42103Y-51162D01*
X42171Y-51140D01*
X42243Y-51132D01*
X42314Y-51137D01*
X42383Y-51156D01*
X42447Y-51189D01*
X42504Y-51233D01*
X42551Y-51288D01*
X42587Y-51350D01*
X42609Y-51419D01*
X42618Y-51490D01*
X42619Y-51500D01*
X43619Y-51500D02*
X43611Y-51571D01*
X43591Y-51640D01*
X43557Y-51704D01*
X43511Y-51760D01*
X43456Y-51805D01*
X43392Y-51840D01*
X43324Y-51861D01*
X43252Y-51868D01*
X43181Y-51862D01*
X43112Y-51842D01*
X43048Y-51808D01*
X42992Y-51763D01*
X42946Y-51708D01*
X42911Y-51645D01*
X42890Y-51576D01*
X42882Y-51505D01*
X42888Y-51434D01*
X42907Y-51365D01*
X42940Y-51301D01*
X42985Y-51244D01*
X43040Y-51197D01*
X43103Y-51162D01*
X43171Y-51140D01*
X43243Y-51132D01*
X43314Y-51137D01*
X43383Y-51156D01*
X43447Y-51189D01*
X43504Y-51233D01*
X43551Y-51288D01*
X43587Y-51350D01*
X43609Y-51419D01*
X43618Y-51490D01*
X43619Y-51500D01*
X44619Y-51500D02*
X44611Y-51571D01*
X44591Y-51640D01*
X44557Y-51704D01*
X44511Y-51760D01*
X44456Y-51805D01*
X44392Y-51840D01*
X44324Y-51861D01*
X44252Y-51868D01*
X44181Y-51862D01*
X44112Y-51842D01*
X44048Y-51808D01*
X43992Y-51763D01*
X43946Y-51708D01*
X43911Y-51645D01*
X43890Y-51576D01*
X43882Y-51505D01*
X43888Y-51434D01*
X43907Y-51365D01*
X43940Y-51301D01*
X43985Y-51244D01*
X44040Y-51197D01*
X44103Y-51162D01*
X44171Y-51140D01*
X44243Y-51132D01*
X44314Y-51137D01*
X44383Y-51156D01*
X44447Y-51189D01*
X44504Y-51233D01*
X44551Y-51288D01*
X44587Y-51350D01*
X44609Y-51419D01*
X44618Y-51490D01*
X44619Y-51500D01*
X45619Y-51500D02*
X45611Y-51571D01*
X45591Y-51640D01*
X45557Y-51704D01*
X45511Y-51760D01*
X45456Y-51805D01*
X45392Y-51840D01*
X45324Y-51861D01*
X45252Y-51868D01*
X45181Y-51862D01*
X45112Y-51842D01*
X45048Y-51808D01*
X44992Y-51763D01*
X44946Y-51708D01*
X44911Y-51645D01*
X44890Y-51576D01*
X44882Y-51505D01*
X44888Y-51434D01*
X44907Y-51365D01*
X44940Y-51301D01*
X44985Y-51244D01*
X45040Y-51197D01*
X45103Y-51162D01*
X45171Y-51140D01*
X45243Y-51132D01*
X45314Y-51137D01*
X45383Y-51156D01*
X45447Y-51189D01*
X45504Y-51233D01*
X45551Y-51288D01*
X45587Y-51350D01*
X45609Y-51419D01*
X45618Y-51490D01*
X45619Y-51500D01*
X46619Y-51500D02*
X46611Y-51571D01*
X46591Y-51640D01*
X46557Y-51704D01*
X46511Y-51760D01*
X46456Y-51805D01*
X46392Y-51840D01*
X46324Y-51861D01*
X46252Y-51868D01*
X46181Y-51862D01*
X46112Y-51842D01*
X46048Y-51808D01*
X45992Y-51763D01*
X45946Y-51708D01*
X45911Y-51645D01*
X45890Y-51576D01*
X45882Y-51505D01*
X45888Y-51434D01*
X45907Y-51365D01*
X45940Y-51301D01*
X45985Y-51244D01*
X46040Y-51197D01*
X46103Y-51162D01*
X46171Y-51140D01*
X46243Y-51132D01*
X46314Y-51137D01*
X46383Y-51156D01*
X46447Y-51189D01*
X46504Y-51233D01*
X46551Y-51288D01*
X46587Y-51350D01*
X46609Y-51419D01*
X46618Y-51490D01*
X46619Y-51500D01*
X39619Y-51500D02*
X39611Y-51571D01*
X39591Y-51640D01*
X39557Y-51704D01*
X39511Y-51760D01*
X39456Y-51805D01*
X39392Y-51840D01*
X39324Y-51861D01*
X39252Y-51868D01*
X39181Y-51862D01*
X39112Y-51842D01*
X39048Y-51808D01*
X38992Y-51763D01*
X38946Y-51708D01*
X38911Y-51645D01*
X38890Y-51576D01*
X38882Y-51505D01*
X38888Y-51434D01*
X38907Y-51365D01*
X38940Y-51301D01*
X38985Y-51244D01*
X39040Y-51197D01*
X39103Y-51162D01*
X39171Y-51140D01*
X39243Y-51132D01*
X39314Y-51137D01*
X39383Y-51156D01*
X39447Y-51189D01*
X39504Y-51233D01*
X39551Y-51288D01*
X39587Y-51350D01*
X39609Y-51419D01*
X39618Y-51490D01*
X39619Y-51500D01*
M02*
