M48
;DRILL file {Pcbnew (2012-01-19 BZR 3256)-stable} date 2013/3/11 15:33:15
;FORMAT={-:-/ absolute / metric / decimal}
FMAT,2
METRIC,TZ
T1C0.305
T2C0.508
T3C0.610
T4C1.016
T5C2.032
T6C3.200
%
G90
G05
M71
T1
X76.835Y-102.362
X77.978Y-103.505
X77.978Y-106.426
X84.455Y-96.520
X84.582Y-99.060
X85.344Y-88.138
X85.344Y-95.250
X85.725Y-86.360
X86.233Y-100.711
X86.233Y-115.824
X86.360Y-110.109
X86.995Y-119.444
X89.535Y-110.490
X91.567Y-87.630
X91.694Y-98.298
X93.345Y-113.988
X94.107Y-88.392
X98.425Y-108.077
X99.695Y-86.614
X100.838Y-109.601
X103.251Y-89.916
X105.791Y-89.916
X105.791Y-100.965
X105.794Y-113.337
X107.188Y-86.741
X107.569Y-89.916
X109.601Y-89.916
X110.617Y-89.916
X111.178Y-113.337
X111.760Y-89.916
X113.538Y-89.916
X113.792Y-101.854
X115.316Y-84.455
X116.205Y-111.760
X117.094Y-118.999
X118.364Y-85.852
X122.174Y-113.284
X123.698Y-108.458
X124.460Y-89.408
X125.603Y-115.733
X126.111Y-114.173
X126.175Y-118.936
X126.556Y-116.459
X127.508Y-116.586
X127.635Y-87.376
X127.635Y-92.837
X128.651Y-107.569
X129.413Y-124.714
X129.794Y-92.075
X130.175Y-88.392
X132.207Y-119.507
X132.715Y-89.916
X132.715Y-109.855
X132.715Y-112.522
X135.255Y-89.916
T2
X77.978Y-82.169
X79.629Y-91.440
X82.931Y-110.490
X83.693Y-114.427
X83.693Y-118.110
X84.455Y-94.234
X87.757Y-115.570
X89.535Y-124.206
X91.694Y-111.633
X92.964Y-103.124
X93.663Y-115.253
X93.853Y-111.506
X93.980Y-122.682
X97.155Y-130.302
X99.441Y-113.665
X99.695Y-125.603
X99.924Y-116.840
X101.092Y-126.873
X112.522Y-122.428
X114.173Y-123.190
X118.110Y-116.078
X120.523Y-111.760
X121.031Y-118.110
X131.318Y-102.235
X132.080Y-121.920
X136.906Y-116.840
T4
X90.551Y-82.550
X93.091Y-82.550
X95.631Y-82.550
X98.171Y-82.550
X99.695Y-130.810
X100.711Y-82.550
X102.235Y-130.810
X103.251Y-82.550
X104.775Y-130.810
X105.791Y-82.550
X107.315Y-130.810
X108.331Y-82.550
X109.855Y-130.810
X110.871Y-82.550
X112.395Y-130.810
X113.411Y-82.550
X114.935Y-130.810
X117.475Y-82.550
X117.475Y-130.810
X120.015Y-82.550
X122.555Y-82.550
X122.555Y-130.810
X125.095Y-82.550
X125.095Y-130.810
X127.635Y-82.550
X127.635Y-130.810
X130.175Y-82.550
X130.175Y-130.810
X132.715Y-82.550
X132.715Y-130.810
X135.255Y-82.550
X135.255Y-130.810
X135.382Y-102.870
X135.382Y-105.410
X135.382Y-107.950
X137.922Y-102.870
X137.922Y-105.410
X137.922Y-107.950
T6
X85.725Y-130.810
X86.995Y-82.550
X137.795Y-97.790
X137.795Y-125.730
T3
X73.279Y-91.745G85X72.771Y-91.745
G05
X73.279Y-98.755G85X72.771Y-98.755
G05
X75.717Y-92.634G85X75.717Y-92.888
G05
X75.717Y-97.612G85X75.717Y-97.866
G05
T5
X76.810Y-125.806G85X76.810Y-124.282
G05
X79.045Y-130.048G85X80.569Y-130.048
G05
X82.804Y-125.806G85X82.804Y-124.282
G05
T0
M30
