G04 (created by PCBNEW (2013-07-07 BZR 4022)-stable) date 2013/12/2 11:28:43*
%MOIN*%
G04 Gerber Fmt 3.4, Leading zero omitted, Abs format*
%FSLAX34Y34*%
G01*
G70*
G90*
G04 APERTURE LIST*
%ADD10C,0.00590551*%
%ADD11R,0.0866X0.0236*%
%ADD12O,0.12X0.06*%
%ADD13C,0.0433071*%
%ADD14R,0.0314961X0.030315*%
%ADD15R,0.0314961X0.015748*%
%ADD16R,0.0511X0.059*%
%ADD17R,0.059X0.0511*%
%ADD18O,0.15X0.22*%
%ADD19O,0.22X0.15*%
%ADD20R,0.0472X0.0393*%
%ADD21R,0.0551X0.0708*%
%ADD22R,0.0236X0.0866*%
%ADD23C,0.0472441*%
%ADD24C,0.066*%
%ADD25C,0.0593*%
%ADD26O,0.0787402X0.0984252*%
%ADD27C,0.126*%
%ADD28R,0.0629X0.0551*%
%ADD29C,0.063*%
%ADD30C,0.0590551*%
%ADD31C,0.06*%
%ADD32C,0.0511811*%
%ADD33O,0.0787402X0.0944882*%
%ADD34O,0.122047X0.0590551*%
%ADD35R,0.0629X0.0708*%
%ADD36R,0.0708X0.0629*%
%ADD37C,0.024*%
%ADD38C,0.032*%
%ADD39C,0.016*%
%ADD40C,0.05*%
%ADD41C,0.08*%
G04 APERTURE END LIST*
G54D10*
G54D11*
X43977Y-30250D03*
X43977Y-30750D03*
X43977Y-31250D03*
X43977Y-31750D03*
X46023Y-31750D03*
X46023Y-31250D03*
X46023Y-30750D03*
X46023Y-30250D03*
G54D12*
X40625Y-22047D03*
X40625Y-21047D03*
X40625Y-23047D03*
G54D13*
X53000Y-17750D03*
X54000Y-17750D03*
X55000Y-17750D03*
X56000Y-17750D03*
X57000Y-17750D03*
X58000Y-17750D03*
X59000Y-17750D03*
X60000Y-17750D03*
X61000Y-17750D03*
X62000Y-17750D03*
X62000Y-14750D03*
X61000Y-14750D03*
X60000Y-14750D03*
X59000Y-14750D03*
X58000Y-14750D03*
X57000Y-14750D03*
X56000Y-14750D03*
X55000Y-14750D03*
X54000Y-14750D03*
X53000Y-14750D03*
X66000Y-17750D03*
X67000Y-17750D03*
X68000Y-17750D03*
X69000Y-17750D03*
X70000Y-17750D03*
X71000Y-17750D03*
X72000Y-17750D03*
X73000Y-17750D03*
X74000Y-17750D03*
X75000Y-17750D03*
X75000Y-14750D03*
X74000Y-14750D03*
X73000Y-14750D03*
X72000Y-14750D03*
X71000Y-14750D03*
X70000Y-14750D03*
X69000Y-14750D03*
X68000Y-14750D03*
X67000Y-14750D03*
X66000Y-14750D03*
G54D14*
X68828Y-28232D03*
G54D15*
X68828Y-28917D03*
X69671Y-28917D03*
X69671Y-28161D03*
G54D16*
X52368Y-31679D03*
X51620Y-31679D03*
X67714Y-23842D03*
X66966Y-23842D03*
X67714Y-25092D03*
X66966Y-25092D03*
X40620Y-31679D03*
X41368Y-31679D03*
X40620Y-29929D03*
X41368Y-29929D03*
X40620Y-26429D03*
X41368Y-26429D03*
X66966Y-26342D03*
X67714Y-26342D03*
X49618Y-26429D03*
X48870Y-26429D03*
X52368Y-26429D03*
X51620Y-26429D03*
G54D17*
X65000Y-17076D03*
X65000Y-17824D03*
X51000Y-15376D03*
X51000Y-16124D03*
G54D16*
X55301Y-35250D03*
X56049Y-35250D03*
G54D17*
X52000Y-15376D03*
X52000Y-16124D03*
X63000Y-15326D03*
X63000Y-16074D03*
X65000Y-15326D03*
X65000Y-16074D03*
G54D16*
X44799Y-34000D03*
X44051Y-34000D03*
X40299Y-34000D03*
X39551Y-34000D03*
X41801Y-35250D03*
X42549Y-35250D03*
X42549Y-34000D03*
X41801Y-34000D03*
X47049Y-34000D03*
X46301Y-34000D03*
X49299Y-34000D03*
X48551Y-34000D03*
X51549Y-34000D03*
X50801Y-34000D03*
X71624Y-29000D03*
X70876Y-29000D03*
X67624Y-29000D03*
X66876Y-29000D03*
X39551Y-35250D03*
X40299Y-35250D03*
G54D18*
X36000Y-10570D03*
G54D19*
X37970Y-11750D03*
X37970Y-9390D03*
G54D20*
X43311Y-26429D03*
X44177Y-26429D03*
G54D21*
X40325Y-28179D03*
X41663Y-28179D03*
G54D16*
X53799Y-35250D03*
X53051Y-35250D03*
X70876Y-27750D03*
X71624Y-27750D03*
X46868Y-26429D03*
X46120Y-26429D03*
X38624Y-26450D03*
X37876Y-26450D03*
X44799Y-35250D03*
X44051Y-35250D03*
X47049Y-35250D03*
X46301Y-35250D03*
X49299Y-35250D03*
X48551Y-35250D03*
X51549Y-35250D03*
X50801Y-35250D03*
X48870Y-31679D03*
X49618Y-31679D03*
G54D17*
X51000Y-17076D03*
X51000Y-17824D03*
X73000Y-19376D03*
X73000Y-20124D03*
X71500Y-19376D03*
X71500Y-20124D03*
X58800Y-19326D03*
X58800Y-20074D03*
X52000Y-17076D03*
X52000Y-17824D03*
G54D16*
X51620Y-29929D03*
X52368Y-29929D03*
X55301Y-34000D03*
X56049Y-34000D03*
X53799Y-34000D03*
X53051Y-34000D03*
G54D22*
X70250Y-26023D03*
X70750Y-26023D03*
X71250Y-26023D03*
X71750Y-26023D03*
X71750Y-23977D03*
X71250Y-23977D03*
X70750Y-23977D03*
X70250Y-23977D03*
G54D23*
X42750Y-17750D03*
X43750Y-17750D03*
X44750Y-17750D03*
X45750Y-17750D03*
X46750Y-17750D03*
X47750Y-17750D03*
X48750Y-17750D03*
X49750Y-17750D03*
X49750Y-14726D03*
X48750Y-14726D03*
X47742Y-14722D03*
X46746Y-14722D03*
X45750Y-14726D03*
X44750Y-14726D03*
X43750Y-14726D03*
X42750Y-14726D03*
G54D24*
X44925Y-37750D03*
X43925Y-37750D03*
X47175Y-37750D03*
X46175Y-37750D03*
X49425Y-37750D03*
X48425Y-37750D03*
X51675Y-37750D03*
X50675Y-37750D03*
X53925Y-37750D03*
X52925Y-37750D03*
X55200Y-37750D03*
X56200Y-37750D03*
X42675Y-37750D03*
X41675Y-37750D03*
G54D25*
X46385Y-9000D03*
X44614Y-9000D03*
G54D26*
X46681Y-9984D03*
X44318Y-9984D03*
G54D27*
X35826Y-37795D03*
X36220Y-16141D03*
X77559Y-37795D03*
X77165Y-16141D03*
G54D28*
X38840Y-31700D03*
X37660Y-31700D03*
G54D17*
X64000Y-17076D03*
X64000Y-17824D03*
G54D16*
X67624Y-27750D03*
X66876Y-27750D03*
G54D17*
X63000Y-17076D03*
X63000Y-17824D03*
G54D29*
X37795Y-23728D03*
X37795Y-22728D03*
X37795Y-18791D03*
X37795Y-19791D03*
G54D30*
X37795Y-14074D03*
X37795Y-16633D03*
G54D17*
X70000Y-19376D03*
X70000Y-20124D03*
G54D31*
X76771Y-20078D03*
X77771Y-20078D03*
X76771Y-21078D03*
X77771Y-21078D03*
X76771Y-22078D03*
X77771Y-22078D03*
X76771Y-23078D03*
X77771Y-23078D03*
X76771Y-24078D03*
X77771Y-24078D03*
X76771Y-25078D03*
X77771Y-25078D03*
X76771Y-26078D03*
X77771Y-26078D03*
X76771Y-27078D03*
X77771Y-27078D03*
X76771Y-28078D03*
X77771Y-28078D03*
X76771Y-29078D03*
X77771Y-29078D03*
X76771Y-30078D03*
X77771Y-30078D03*
X76771Y-31078D03*
X77771Y-31078D03*
G54D25*
X76771Y-32078D03*
X77771Y-32078D03*
G54D31*
X61023Y-20078D03*
X62023Y-20078D03*
X61023Y-21078D03*
X62023Y-21078D03*
X61023Y-22078D03*
X62023Y-22078D03*
X61023Y-23078D03*
X62023Y-23078D03*
X61023Y-24078D03*
X62023Y-24078D03*
X61023Y-25078D03*
X62023Y-25078D03*
X61023Y-26078D03*
X62023Y-26078D03*
X61023Y-27078D03*
X62023Y-27078D03*
X61023Y-28078D03*
X62023Y-28078D03*
X61023Y-29078D03*
X62023Y-29078D03*
X61023Y-30078D03*
X62023Y-30078D03*
X61023Y-31078D03*
X62023Y-31078D03*
G54D25*
X61023Y-32078D03*
X62023Y-32078D03*
G54D24*
X40425Y-37750D03*
X39425Y-37750D03*
G54D32*
X41224Y-11507D03*
X40673Y-11507D03*
X41775Y-11507D03*
X42326Y-11507D03*
G54D33*
X40287Y-10720D03*
X42712Y-10720D03*
G54D34*
X41500Y-8515D03*
G54D25*
X51250Y-13069D03*
X50750Y-12069D03*
X49750Y-12069D03*
X49250Y-13069D03*
X50250Y-13069D03*
X52750Y-12069D03*
X52250Y-13069D03*
X51750Y-12069D03*
X72470Y-13085D03*
X72970Y-12085D03*
X73470Y-13085D03*
X73970Y-12085D03*
X74470Y-13085D03*
X74970Y-12085D03*
X75470Y-13085D03*
X75970Y-12085D03*
X55995Y-13080D03*
X56495Y-12080D03*
X56995Y-13080D03*
X57495Y-12080D03*
X57995Y-13080D03*
X58495Y-12080D03*
X58995Y-13080D03*
X59495Y-12080D03*
X61485Y-13085D03*
X61985Y-12085D03*
X62485Y-13085D03*
X62985Y-12085D03*
X63485Y-13085D03*
X63985Y-12085D03*
X64485Y-13085D03*
X64985Y-12085D03*
X66985Y-13085D03*
X67485Y-12085D03*
X67985Y-13085D03*
X68485Y-12085D03*
X68985Y-13085D03*
X69485Y-12085D03*
X69985Y-13085D03*
X70485Y-12085D03*
G54D35*
X51443Y-28179D03*
X52545Y-28179D03*
X48693Y-29929D03*
X49795Y-29929D03*
X37699Y-29950D03*
X38801Y-29950D03*
X48693Y-28179D03*
X49795Y-28179D03*
X38801Y-28200D03*
X37699Y-28200D03*
G54D36*
X68250Y-19199D03*
X68250Y-20301D03*
G54D29*
X54350Y-27650D03*
X55350Y-27650D03*
G54D37*
X39600Y-28200D03*
X41950Y-30750D03*
X42200Y-13050D03*
X72300Y-24800D03*
X71000Y-24800D03*
X74000Y-36250D03*
X74800Y-35450D03*
X75650Y-34850D03*
X76500Y-34150D03*
X77450Y-33550D03*
X50950Y-24100D03*
X59650Y-26500D03*
X66150Y-26550D03*
X73550Y-21550D03*
X64650Y-23750D03*
X55200Y-29100D03*
X65150Y-23750D03*
X55200Y-28550D03*
X70400Y-22550D03*
X71500Y-22000D03*
X73050Y-37000D03*
X73550Y-33000D03*
X70750Y-24479D03*
X66850Y-28300D03*
X68400Y-28200D03*
X71750Y-26950D03*
X67550Y-20300D03*
X43200Y-31750D03*
X52400Y-25900D03*
X50450Y-30200D03*
X52368Y-30850D03*
X53050Y-35850D03*
X50800Y-35850D03*
X48550Y-35850D03*
X46300Y-35850D03*
X44050Y-35850D03*
X41800Y-35800D03*
X37660Y-33600D03*
X37699Y-27250D03*
X50450Y-17800D03*
X47800Y-29950D03*
X41400Y-27250D03*
G54D38*
X56049Y-35250D02*
X56800Y-35250D01*
X57100Y-33250D02*
X57550Y-32800D01*
X57100Y-34950D02*
X57100Y-33250D01*
X56800Y-35250D02*
X57100Y-34950D01*
X75500Y-20650D02*
X75500Y-20500D01*
X75921Y-20078D02*
X76071Y-20078D01*
X75500Y-20500D02*
X75921Y-20078D01*
X75500Y-22050D02*
X75500Y-22750D01*
X75150Y-23100D02*
X74600Y-23100D01*
X75500Y-22750D02*
X75150Y-23100D01*
X76771Y-20078D02*
X77771Y-20078D01*
X69800Y-23100D02*
X74600Y-23100D01*
X76071Y-20078D02*
X76771Y-20078D01*
X75500Y-22050D02*
X75500Y-20650D01*
X65700Y-27800D02*
X65700Y-27550D01*
X70876Y-27426D02*
X70876Y-27750D01*
X70500Y-27050D02*
X70876Y-27426D01*
X66200Y-27050D02*
X70500Y-27050D01*
X65700Y-27550D02*
X66200Y-27050D01*
G54D39*
X69671Y-28161D02*
X70464Y-28161D01*
X70464Y-28161D02*
X70876Y-27750D01*
G54D38*
X70250Y-23977D02*
X70250Y-23500D01*
X65700Y-23550D02*
X65700Y-24350D01*
X66150Y-23100D02*
X65700Y-23550D01*
X69850Y-23100D02*
X69800Y-23100D01*
X69800Y-23100D02*
X66150Y-23100D01*
X70250Y-23500D02*
X69850Y-23100D01*
X66876Y-29000D02*
X66100Y-29000D01*
X66100Y-29000D02*
X65700Y-29400D01*
X66966Y-25092D02*
X66207Y-25092D01*
X66207Y-25092D02*
X65700Y-25600D01*
X53850Y-32800D02*
X57550Y-32800D01*
X57550Y-32800D02*
X64900Y-32800D01*
X66207Y-23842D02*
X66966Y-23842D01*
X65700Y-24350D02*
X66207Y-23842D01*
X65700Y-32000D02*
X65700Y-29400D01*
X65700Y-29400D02*
X65700Y-27800D01*
X65700Y-27800D02*
X65700Y-25600D01*
X65700Y-25600D02*
X65700Y-24350D01*
X64900Y-32800D02*
X65700Y-32000D01*
X50801Y-34000D02*
X50801Y-33248D01*
X50801Y-33248D02*
X51250Y-32800D01*
X48551Y-34000D02*
X48551Y-33248D01*
X48551Y-33248D02*
X49000Y-32800D01*
X46301Y-34000D02*
X46301Y-33148D01*
X46301Y-33148D02*
X46650Y-32800D01*
X44051Y-34000D02*
X44051Y-33248D01*
X44051Y-33248D02*
X44500Y-32800D01*
X41801Y-34000D02*
X41801Y-33248D01*
X41801Y-33248D02*
X42250Y-32800D01*
X54350Y-27650D02*
X54350Y-32300D01*
X39551Y-33298D02*
X39551Y-34000D01*
X40050Y-32800D02*
X39551Y-33298D01*
X53850Y-32800D02*
X51250Y-32800D01*
X51250Y-32800D02*
X49000Y-32800D01*
X49000Y-32800D02*
X46650Y-32800D01*
X46650Y-32800D02*
X44500Y-32800D01*
X44500Y-32800D02*
X42250Y-32800D01*
X42250Y-32800D02*
X40050Y-32800D01*
X54350Y-32300D02*
X53850Y-32800D01*
X51443Y-28179D02*
X51443Y-27606D01*
X54000Y-27300D02*
X54350Y-27650D01*
X51750Y-27300D02*
X54000Y-27300D01*
X51443Y-27606D02*
X51750Y-27300D01*
X48870Y-26429D02*
X48870Y-25779D01*
X48870Y-25779D02*
X49250Y-25400D01*
X46868Y-26429D02*
X46868Y-25781D01*
X46868Y-25781D02*
X47250Y-25400D01*
X44177Y-26429D02*
X44177Y-25822D01*
X54350Y-25850D02*
X54350Y-27650D01*
X53900Y-25400D02*
X54350Y-25850D01*
X44600Y-25400D02*
X47250Y-25400D01*
X47250Y-25400D02*
X49250Y-25400D01*
X49250Y-25400D02*
X53900Y-25400D01*
X44177Y-25822D02*
X44600Y-25400D01*
G54D40*
X39425Y-37750D02*
X37900Y-37750D01*
X37900Y-37750D02*
X36400Y-36250D01*
G54D39*
X43977Y-30750D02*
X41950Y-30750D01*
G54D40*
X38624Y-26450D02*
X38644Y-26429D01*
X38644Y-26429D02*
X40620Y-26429D01*
X40325Y-28179D02*
X40304Y-28200D01*
X40304Y-28200D02*
X39600Y-28200D01*
X39600Y-28200D02*
X38801Y-28200D01*
X40325Y-28179D02*
X40620Y-27884D01*
X40620Y-27884D02*
X40620Y-26429D01*
X40625Y-23047D02*
X40625Y-26423D01*
X40625Y-26423D02*
X40620Y-26429D01*
X37271Y-23728D02*
X37795Y-23728D01*
X36400Y-24600D02*
X37271Y-23728D01*
X36400Y-36250D02*
X36400Y-24600D01*
X40625Y-23047D02*
X39944Y-23728D01*
X39944Y-23728D02*
X37795Y-23728D01*
G54D39*
X41775Y-11507D02*
X41775Y-20375D01*
X61502Y-21600D02*
X62023Y-21078D01*
X43000Y-21600D02*
X61502Y-21600D01*
X41775Y-20375D02*
X43000Y-21600D01*
X61552Y-20550D02*
X60400Y-20550D01*
X60400Y-20550D02*
X59750Y-21200D01*
X59750Y-21200D02*
X43300Y-21200D01*
X43300Y-21200D02*
X42200Y-20100D01*
X42200Y-20100D02*
X42200Y-13050D01*
X61552Y-20550D02*
X62023Y-20078D01*
X75400Y-26550D02*
X75400Y-26750D01*
X75728Y-27078D02*
X75928Y-27078D01*
X75400Y-26750D02*
X75728Y-27078D01*
X74950Y-24800D02*
X75050Y-24800D01*
X75050Y-24800D02*
X75400Y-25150D01*
X75928Y-27078D02*
X76771Y-27078D01*
X75400Y-26550D02*
X75400Y-25150D01*
X74950Y-24800D02*
X72300Y-24800D01*
X71000Y-24800D02*
X68550Y-24800D01*
X71000Y-24800D02*
X71250Y-24550D01*
X71250Y-23977D02*
X71250Y-24550D01*
X68550Y-24800D02*
X68400Y-24650D01*
X67714Y-23964D02*
X68400Y-24650D01*
X68400Y-24650D02*
X68500Y-24750D01*
X67714Y-23964D02*
X67714Y-23842D01*
X75800Y-25950D02*
X75800Y-26250D01*
X76150Y-26600D02*
X76350Y-26600D01*
X75800Y-26250D02*
X76150Y-26600D01*
X75150Y-23977D02*
X75477Y-23977D01*
X75800Y-24300D02*
X75800Y-24550D01*
X75477Y-23977D02*
X75800Y-24300D01*
X67714Y-25092D02*
X67872Y-25250D01*
X71750Y-24950D02*
X71750Y-24750D01*
X71450Y-25250D02*
X71750Y-24950D01*
X67872Y-25250D02*
X71450Y-25250D01*
X71750Y-23977D02*
X75150Y-23977D01*
X77292Y-26600D02*
X77771Y-27078D01*
X75800Y-24550D02*
X75800Y-25950D01*
X76350Y-26600D02*
X77292Y-26600D01*
X67714Y-26342D02*
X67714Y-25092D01*
X71750Y-24750D02*
X71750Y-23977D01*
X74450Y-31050D02*
X74450Y-30900D01*
X74800Y-30550D02*
X74950Y-30550D01*
X74450Y-30900D02*
X74800Y-30550D01*
X74450Y-31050D02*
X74450Y-35800D01*
X74450Y-35800D02*
X74000Y-36250D01*
X75350Y-30550D02*
X74950Y-30550D01*
X77771Y-30078D02*
X77300Y-30550D01*
X77300Y-30550D02*
X75350Y-30550D01*
X77771Y-30078D02*
X77771Y-30078D01*
X53799Y-35250D02*
X53799Y-37624D01*
X53799Y-37624D02*
X53925Y-37750D01*
X75250Y-31600D02*
X75250Y-31450D01*
X75250Y-31800D02*
X75250Y-35000D01*
X75250Y-35000D02*
X74800Y-35450D01*
X76771Y-31078D02*
X75871Y-31078D01*
X75721Y-31078D02*
X75871Y-31078D01*
X75250Y-31800D02*
X75250Y-31600D01*
X75250Y-31450D02*
X75621Y-31078D01*
X75621Y-31078D02*
X75721Y-31078D01*
X51549Y-35250D02*
X51549Y-37624D01*
X51549Y-37624D02*
X51675Y-37750D01*
X77771Y-31078D02*
X77771Y-31078D01*
X76000Y-34500D02*
X75650Y-34850D01*
X76000Y-31900D02*
X76000Y-34500D01*
X76350Y-31550D02*
X76000Y-31900D01*
X77300Y-31550D02*
X76350Y-31550D01*
X77771Y-31078D02*
X77300Y-31550D01*
X49299Y-35250D02*
X49299Y-37624D01*
X49299Y-37624D02*
X49425Y-37750D01*
X76771Y-32078D02*
X76771Y-33878D01*
X76771Y-33878D02*
X76500Y-34150D01*
X47049Y-35250D02*
X47049Y-37624D01*
X47049Y-37624D02*
X47175Y-37750D01*
X77771Y-32078D02*
X77771Y-33228D01*
X77771Y-33228D02*
X77450Y-33550D01*
X44799Y-35250D02*
X44799Y-37624D01*
X44799Y-37624D02*
X44925Y-37750D01*
X51500Y-24650D02*
X50950Y-24100D01*
X54400Y-24650D02*
X51500Y-24650D01*
X56250Y-26500D02*
X54400Y-24650D01*
X59650Y-26500D02*
X56250Y-26500D01*
X66357Y-26342D02*
X66966Y-26342D01*
X66150Y-26550D02*
X66357Y-26342D01*
X71624Y-29000D02*
X72174Y-29550D01*
X77300Y-29550D02*
X77771Y-29078D01*
X72174Y-29550D02*
X77300Y-29550D01*
X61023Y-23078D02*
X61028Y-23078D01*
X64500Y-21550D02*
X73550Y-21550D01*
X62500Y-23550D02*
X64500Y-21550D01*
X61500Y-23550D02*
X62500Y-23550D01*
X61028Y-23078D02*
X61500Y-23550D01*
X61552Y-26550D02*
X61023Y-27078D01*
X64200Y-26550D02*
X61552Y-26550D01*
X64650Y-26100D02*
X64200Y-26550D01*
X64650Y-23750D02*
X64650Y-26100D01*
X55221Y-29078D02*
X61023Y-29078D01*
X55200Y-29100D02*
X55221Y-29078D01*
X75000Y-19900D02*
X75000Y-20750D01*
X74650Y-21100D02*
X73900Y-21100D01*
X75000Y-20750D02*
X74650Y-21100D01*
X75000Y-17750D02*
X75000Y-19900D01*
X64002Y-21100D02*
X62023Y-23078D01*
X73900Y-21100D02*
X64002Y-21100D01*
X65150Y-26400D02*
X65150Y-26600D01*
X64671Y-27078D02*
X64571Y-27078D01*
X65150Y-26600D02*
X64671Y-27078D01*
X64571Y-27078D02*
X62023Y-27078D01*
X65150Y-23750D02*
X65150Y-26400D01*
X62023Y-29078D02*
X61544Y-28600D01*
X55250Y-28600D02*
X55200Y-28550D01*
X61544Y-28600D02*
X55250Y-28600D01*
X61023Y-24078D02*
X61023Y-24123D01*
X65150Y-22550D02*
X70400Y-22550D01*
X63150Y-24550D02*
X65150Y-22550D01*
X61450Y-24550D02*
X63150Y-24550D01*
X61023Y-24123D02*
X61450Y-24550D01*
X62821Y-24078D02*
X62023Y-24078D01*
X64850Y-22050D02*
X62821Y-24078D01*
X71450Y-22050D02*
X64850Y-22050D01*
X71500Y-22000D02*
X71450Y-22050D01*
X73550Y-34700D02*
X73550Y-36500D01*
X73550Y-36500D02*
X73050Y-37000D01*
X73550Y-33000D02*
X73550Y-34700D01*
X53799Y-34000D02*
X54150Y-34000D01*
X54550Y-37100D02*
X55200Y-37750D01*
X54550Y-34400D02*
X54550Y-37100D01*
X54150Y-34000D02*
X54550Y-34400D01*
X53799Y-34000D02*
X55301Y-34000D01*
G54D38*
X58800Y-20074D02*
X61018Y-20074D01*
X61018Y-20074D02*
X61023Y-20078D01*
X70750Y-23977D02*
X70750Y-24479D01*
X66876Y-27750D02*
X66876Y-28274D01*
X66876Y-28274D02*
X66850Y-28300D01*
X68828Y-28232D02*
X68432Y-28232D01*
X68432Y-28232D02*
X68400Y-28200D01*
X71750Y-26023D02*
X71750Y-26950D01*
X71750Y-26950D02*
X71750Y-27624D01*
G54D39*
X71750Y-27624D02*
X71624Y-27750D01*
G54D38*
X71250Y-26023D02*
X71750Y-26023D01*
X70750Y-26023D02*
X71250Y-26023D01*
X70250Y-26023D02*
X70750Y-26023D01*
X68250Y-20301D02*
X67551Y-20301D01*
X67551Y-20301D02*
X67550Y-20300D01*
X70000Y-20124D02*
X68427Y-20124D01*
X68427Y-20124D02*
X68250Y-20301D01*
X71500Y-20124D02*
X70000Y-20124D01*
X73000Y-20124D02*
X71500Y-20124D01*
G54D39*
X43977Y-31750D02*
X43200Y-31750D01*
G54D38*
X52368Y-26429D02*
X52368Y-25931D01*
X52368Y-25931D02*
X52400Y-25900D01*
X49795Y-29929D02*
X50179Y-29929D01*
X50179Y-29929D02*
X50450Y-30200D01*
X52368Y-29929D02*
X52368Y-30850D01*
X52368Y-30850D02*
X52368Y-31679D01*
X52545Y-28179D02*
X52545Y-29100D01*
X52545Y-29100D02*
X52545Y-29752D01*
X52545Y-29752D02*
X52368Y-29929D01*
X49795Y-29929D02*
X49795Y-28179D01*
X53051Y-34000D02*
X53051Y-33698D01*
X53051Y-33698D02*
X53450Y-33300D01*
X56049Y-34000D02*
X56049Y-33699D01*
X56049Y-33699D02*
X55650Y-33300D01*
X55650Y-33300D02*
X53450Y-33300D01*
X53051Y-34000D02*
X53051Y-35250D01*
X53051Y-35250D02*
X53051Y-35848D01*
X53051Y-35848D02*
X53050Y-35850D01*
X50801Y-35250D02*
X50801Y-35848D01*
X50801Y-35848D02*
X50800Y-35850D01*
X48551Y-35250D02*
X48551Y-35848D01*
X48551Y-35848D02*
X48550Y-35850D01*
X46301Y-35250D02*
X46301Y-35848D01*
X46301Y-35848D02*
X46300Y-35850D01*
X44051Y-35250D02*
X44051Y-35848D01*
X44051Y-35848D02*
X44050Y-35850D01*
X41801Y-35250D02*
X41801Y-35798D01*
X41801Y-35798D02*
X41800Y-35800D01*
X37660Y-34650D02*
X37660Y-34760D01*
X37660Y-34760D02*
X38150Y-35250D01*
X37660Y-31700D02*
X37660Y-33600D01*
X37660Y-33600D02*
X37660Y-34650D01*
X38150Y-35250D02*
X39551Y-35250D01*
X37699Y-28200D02*
X37699Y-27250D01*
X37699Y-27250D02*
X37699Y-26627D01*
X37699Y-26627D02*
X37876Y-26450D01*
X51000Y-17824D02*
X50474Y-17824D01*
X50474Y-17824D02*
X50450Y-17800D01*
X52000Y-17824D02*
X51000Y-17824D01*
G54D39*
X48750Y-14726D02*
X49376Y-14100D01*
X51750Y-13650D02*
X51750Y-12069D01*
X51300Y-14100D02*
X51750Y-13650D01*
X49376Y-14100D02*
X51300Y-14100D01*
X46746Y-14722D02*
X46746Y-14203D01*
X50250Y-13450D02*
X50250Y-13069D01*
X49900Y-13800D02*
X50250Y-13450D01*
X47150Y-13800D02*
X49900Y-13800D01*
X46746Y-14203D02*
X47150Y-13800D01*
X44750Y-14726D02*
X44750Y-12000D01*
X52081Y-11400D02*
X52750Y-12069D01*
X45350Y-11400D02*
X52081Y-11400D01*
X44750Y-12000D02*
X45350Y-11400D01*
X42750Y-14726D02*
X43500Y-13976D01*
X43500Y-13976D02*
X43500Y-11900D01*
X53131Y-13069D02*
X53281Y-13069D01*
X53600Y-12750D02*
X53600Y-12600D01*
X53281Y-13069D02*
X53600Y-12750D01*
X52750Y-11050D02*
X53300Y-11050D01*
X53600Y-11350D02*
X53600Y-11900D01*
X53300Y-11050D02*
X53600Y-11350D01*
X53600Y-11900D02*
X53600Y-12600D01*
X44350Y-11050D02*
X52750Y-11050D01*
X43500Y-11900D02*
X44350Y-11050D01*
X53131Y-13069D02*
X52250Y-13069D01*
X75000Y-14750D02*
X74970Y-14720D01*
X74970Y-14720D02*
X74970Y-12085D01*
X75000Y-12115D02*
X74970Y-12085D01*
X75285Y-11400D02*
X75650Y-11400D01*
X71700Y-14450D02*
X71700Y-11700D01*
X71700Y-11700D02*
X72000Y-11400D01*
X72000Y-14750D02*
X71700Y-14450D01*
X75285Y-11400D02*
X72000Y-11400D01*
X75970Y-11720D02*
X75970Y-12085D01*
X75650Y-11400D02*
X75970Y-11720D01*
X74000Y-14750D02*
X73470Y-14220D01*
X73470Y-14220D02*
X73470Y-13085D01*
X68250Y-19199D02*
X64249Y-19199D01*
X64249Y-19199D02*
X64000Y-18950D01*
X64000Y-18950D02*
X64000Y-17824D01*
X70000Y-19376D02*
X68427Y-19376D01*
X68427Y-19376D02*
X68250Y-19199D01*
X63000Y-17824D02*
X64000Y-17824D01*
X65000Y-15326D02*
X67724Y-15326D01*
X68000Y-15050D02*
X68000Y-14750D01*
X67724Y-15326D02*
X68000Y-15050D01*
X64000Y-17076D02*
X64076Y-17076D01*
X64824Y-17824D02*
X65000Y-17824D01*
X64076Y-17076D02*
X64824Y-17824D01*
X63000Y-16074D02*
X63000Y-17076D01*
X63000Y-17076D02*
X64000Y-17076D01*
X52000Y-16124D02*
X62950Y-16124D01*
X62950Y-16124D02*
X63000Y-16074D01*
X51000Y-16124D02*
X52000Y-16124D01*
X63000Y-16074D02*
X65000Y-16074D01*
X51000Y-15376D02*
X46026Y-15376D01*
X45750Y-15100D02*
X45750Y-14726D01*
X46026Y-15376D02*
X45750Y-15100D01*
X73000Y-14750D02*
X73000Y-15450D01*
X66400Y-15750D02*
X65600Y-16550D01*
X72700Y-15750D02*
X66400Y-15750D01*
X73000Y-15450D02*
X72700Y-15750D01*
X65000Y-17076D02*
X65074Y-17076D01*
X65074Y-17076D02*
X65600Y-16550D01*
X73000Y-17750D02*
X73000Y-19376D01*
X55301Y-35250D02*
X55301Y-36851D01*
X55301Y-36851D02*
X56200Y-37750D01*
X52000Y-17076D02*
X54626Y-17076D01*
X55000Y-17450D02*
X55000Y-17750D01*
X54626Y-17076D02*
X55000Y-17450D01*
X58800Y-19326D02*
X59524Y-19326D01*
X60000Y-18850D02*
X60000Y-17750D01*
X59524Y-19326D02*
X60000Y-18850D01*
X68000Y-17750D02*
X68000Y-18000D01*
X71500Y-18700D02*
X71500Y-19376D01*
X71200Y-18400D02*
X71500Y-18700D01*
X68400Y-18400D02*
X71200Y-18400D01*
X68000Y-18000D02*
X68400Y-18400D01*
X51000Y-17076D02*
X46024Y-17076D01*
X45750Y-17350D02*
X45750Y-17750D01*
X46024Y-17076D02*
X45750Y-17350D01*
X51549Y-34000D02*
X51850Y-34000D01*
X52250Y-37074D02*
X52925Y-37750D01*
X52250Y-34400D02*
X52250Y-37074D01*
X51850Y-34000D02*
X52250Y-34400D01*
X49299Y-34000D02*
X49750Y-34000D01*
X50100Y-37174D02*
X50675Y-37750D01*
X50100Y-34350D02*
X50100Y-37174D01*
X49750Y-34000D02*
X50100Y-34350D01*
X47049Y-34000D02*
X47450Y-34000D01*
X47800Y-37124D02*
X48425Y-37750D01*
X47800Y-34350D02*
X47800Y-37124D01*
X47450Y-34000D02*
X47800Y-34350D01*
X44799Y-34000D02*
X45250Y-34000D01*
X45550Y-37124D02*
X46175Y-37750D01*
X45550Y-34300D02*
X45550Y-37124D01*
X45250Y-34000D02*
X45550Y-34300D01*
X67624Y-27750D02*
X67624Y-29000D01*
X68828Y-28917D02*
X67706Y-28917D01*
X67706Y-28917D02*
X67624Y-29000D01*
X69671Y-28917D02*
X70793Y-28917D01*
X70793Y-28917D02*
X70876Y-29000D01*
G54D41*
X37795Y-18791D02*
X39891Y-18791D01*
X40625Y-19525D02*
X40625Y-21047D01*
X39891Y-18791D02*
X40625Y-19525D01*
X37795Y-16633D02*
X37795Y-18791D01*
G54D39*
X40425Y-35376D02*
X40299Y-35250D01*
X40425Y-37750D02*
X40425Y-35376D01*
G54D41*
X37795Y-14074D02*
X37795Y-11924D01*
X37795Y-11924D02*
X37970Y-11750D01*
G54D39*
X48870Y-31679D02*
X48870Y-31179D01*
X51620Y-30429D02*
X51620Y-29929D01*
X51250Y-30800D02*
X51620Y-30429D01*
X49250Y-30800D02*
X51250Y-30800D01*
X48870Y-31179D02*
X49250Y-30800D01*
X46023Y-31250D02*
X48440Y-31250D01*
X48440Y-31250D02*
X48870Y-31679D01*
X40620Y-31679D02*
X38860Y-31679D01*
X38860Y-31679D02*
X38840Y-31700D01*
X51620Y-31679D02*
X49618Y-31679D01*
X41368Y-26429D02*
X41368Y-27218D01*
X48672Y-29950D02*
X48693Y-29929D01*
X47800Y-29950D02*
X48672Y-29950D01*
X41368Y-27218D02*
X41400Y-27250D01*
X46023Y-30750D02*
X48350Y-30750D01*
X48693Y-30406D02*
X48693Y-29929D01*
X48350Y-30750D02*
X48693Y-30406D01*
X43977Y-31250D02*
X44500Y-31250D01*
X43311Y-27161D02*
X43311Y-26429D01*
X44700Y-28550D02*
X43311Y-27161D01*
X44700Y-31050D02*
X44700Y-28550D01*
X44500Y-31250D02*
X44700Y-31050D01*
X43977Y-31250D02*
X41797Y-31250D01*
X41797Y-31250D02*
X41368Y-31679D01*
X37699Y-29950D02*
X37699Y-30499D01*
X41368Y-31118D02*
X41368Y-31679D01*
X41050Y-30800D02*
X41368Y-31118D01*
X38000Y-30800D02*
X41050Y-30800D01*
X37699Y-30499D02*
X38000Y-30800D01*
X43977Y-30250D02*
X41688Y-30250D01*
X41688Y-30250D02*
X41368Y-29929D01*
X43977Y-30250D02*
X43977Y-28427D01*
X43729Y-28179D02*
X41663Y-28179D01*
X43977Y-28427D02*
X43729Y-28179D01*
X40620Y-29929D02*
X38821Y-29929D01*
X38821Y-29929D02*
X38801Y-29950D01*
X45250Y-27700D02*
X45250Y-27550D01*
X49618Y-26831D02*
X49618Y-26429D01*
X49350Y-27100D02*
X49618Y-26831D01*
X45700Y-27100D02*
X49350Y-27100D01*
X45250Y-27550D02*
X45700Y-27100D01*
X46023Y-31750D02*
X45450Y-31750D01*
X45620Y-26429D02*
X46120Y-26429D01*
X45250Y-26800D02*
X45620Y-26429D01*
X45250Y-31550D02*
X45250Y-27700D01*
X45250Y-27700D02*
X45250Y-26800D01*
X45450Y-31750D02*
X45250Y-31550D01*
X51620Y-26429D02*
X49618Y-26429D01*
X42549Y-34000D02*
X43050Y-34000D01*
X43350Y-37174D02*
X43925Y-37750D01*
X43350Y-34300D02*
X43350Y-37174D01*
X43050Y-34000D02*
X43350Y-34300D01*
X46023Y-30250D02*
X46023Y-28477D01*
X46320Y-28179D02*
X48693Y-28179D01*
X46023Y-28477D02*
X46320Y-28179D01*
X61000Y-14750D02*
X62485Y-13265D01*
X62485Y-13265D02*
X62485Y-13085D01*
X59000Y-14750D02*
X60150Y-13600D01*
X64050Y-11150D02*
X64985Y-12085D01*
X61150Y-11150D02*
X64050Y-11150D01*
X60150Y-12150D02*
X61150Y-11150D01*
X60150Y-13600D02*
X60150Y-12150D01*
X62000Y-14750D02*
X63400Y-14750D01*
X63985Y-14165D02*
X63985Y-12085D01*
X63400Y-14750D02*
X63985Y-14165D01*
X57000Y-14750D02*
X57000Y-14200D01*
X58150Y-13850D02*
X58495Y-13505D01*
X57350Y-13850D02*
X58150Y-13850D01*
X57000Y-14200D02*
X57350Y-13850D01*
X58495Y-13505D02*
X58495Y-12080D01*
X56000Y-14750D02*
X56000Y-14600D01*
X56995Y-13605D02*
X56995Y-13080D01*
X56000Y-14600D02*
X56995Y-13605D01*
X54000Y-14750D02*
X54000Y-11800D01*
X59495Y-11645D02*
X59495Y-12080D01*
X59150Y-11300D02*
X59495Y-11645D01*
X54500Y-11300D02*
X59150Y-11300D01*
X54000Y-11800D02*
X54500Y-11300D01*
X63000Y-15326D02*
X60226Y-15326D01*
X60000Y-15100D02*
X60000Y-14750D01*
X60226Y-15326D02*
X60000Y-15100D01*
X42675Y-37750D02*
X42675Y-35376D01*
X42675Y-35376D02*
X42549Y-35250D01*
X52000Y-15376D02*
X54724Y-15376D01*
X55000Y-15100D02*
X55000Y-14750D01*
X54724Y-15376D02*
X55000Y-15100D01*
X70000Y-14750D02*
X70000Y-14650D01*
X69485Y-14135D02*
X69485Y-12085D01*
X70000Y-14650D02*
X69485Y-14135D01*
X69000Y-14750D02*
X69000Y-14100D01*
X69000Y-14100D02*
X67985Y-13085D01*
X67000Y-14750D02*
X66950Y-14750D01*
X69800Y-11400D02*
X70485Y-12085D01*
X66950Y-11400D02*
X69800Y-11400D01*
X66300Y-12050D02*
X66950Y-11400D01*
X66300Y-14100D02*
X66300Y-12050D01*
X66950Y-14750D02*
X66300Y-14100D01*
X40299Y-34000D02*
X40750Y-34000D01*
X41050Y-37124D02*
X41675Y-37750D01*
X41050Y-34300D02*
X41050Y-37124D01*
X40750Y-34000D02*
X41050Y-34300D01*
M02*
