M48
;DRILL file {Pcbnew (2013-07-07 BZR 4022)-stable} date 2013/12/2 11:28:45
;FORMAT={-:-/ absolute / inch / decimal}
FMAT,2
INCH,TZ
T1C0.012
T2C0.028
T3C0.031
T4C0.032
T5C0.032
T6C0.035
T7C0.039
T8C0.039
T9C0.040
T10C0.055
T11C0.080
T12C0.126
%
G90
G05
M72
T1
X3.766Y-3.36
X3.7699Y-2.725
X3.96Y-2.82
X4.14Y-2.725
X4.18Y-3.58
X4.195Y-3.075
X4.22Y-1.305
X4.32Y-3.175
X4.405Y-3.585
X4.63Y-3.585
X4.78Y-2.995
X4.855Y-3.585
X5.045Y-1.78
X5.045Y-3.02
X5.08Y-3.585
X5.095Y-2.41
X5.2368Y-3.085
X5.24Y-2.59
X5.305Y-3.585
X5.52Y-2.855
X5.52Y-2.91
X5.965Y-2.65
X6.465Y-2.375
X6.515Y-2.375
X6.615Y-2.655
X6.685Y-2.83
X6.755Y-2.03
X6.84Y-2.82
X7.04Y-2.255
X7.075Y-2.448
X7.1Y-2.48
X7.15Y-2.2
X7.175Y-2.695
X7.23Y-2.48
X7.305Y-3.7
X7.355Y-2.155
X7.355Y-3.3
X7.4Y-3.625
X7.48Y-3.545
X7.565Y-3.485
X7.65Y-3.415
X7.745Y-3.355
T2
X4.275Y-1.4726
X4.275Y-1.775
X4.375Y-1.4726
X4.375Y-1.775
X4.475Y-1.4726
X4.475Y-1.775
X4.575Y-1.4726
X4.575Y-1.775
X4.6746Y-1.4722
X4.675Y-1.775
X4.7742Y-1.4722
X4.775Y-1.775
X4.875Y-1.4726
X4.875Y-1.775
X4.975Y-1.4726
X4.975Y-1.775
X5.3Y-1.475
X5.3Y-1.775
X5.4Y-1.475
X5.4Y-1.775
X5.5Y-1.475
X5.5Y-1.775
X5.6Y-1.475
X5.6Y-1.775
X5.7Y-1.475
X5.7Y-1.775
X5.8Y-1.475
X5.8Y-1.775
X5.9Y-1.475
X5.9Y-1.775
X6.Y-1.475
X6.Y-1.775
X6.1Y-1.475
X6.1Y-1.775
X6.2Y-1.475
X6.2Y-1.775
X6.6Y-1.475
X6.6Y-1.775
X6.7Y-1.475
X6.7Y-1.775
X6.8Y-1.475
X6.8Y-1.775
X6.9Y-1.475
X6.9Y-1.775
X7.Y-1.475
X7.Y-1.775
X7.1Y-1.475
X7.1Y-1.775
X7.2Y-1.475
X7.2Y-1.775
X7.3Y-1.475
X7.3Y-1.775
X7.4Y-1.475
X7.4Y-1.775
X7.5Y-1.475
X7.5Y-1.775
T3
X4.0673Y-1.1508
X4.1224Y-1.1508
X4.1776Y-1.1508
X4.2327Y-1.1508
T4
X3.7795Y-1.8791
X3.7795Y-1.9791
X3.7795Y-2.2728
X3.7795Y-2.3728
X3.9425Y-3.775
X4.0425Y-3.775
X4.1675Y-3.775
X4.2675Y-3.775
X4.3925Y-3.775
X4.4925Y-3.775
X4.6175Y-3.775
X4.7175Y-3.775
X4.8425Y-3.775
X4.9425Y-3.775
X5.0675Y-3.775
X5.1675Y-3.775
X5.2925Y-3.775
X5.3925Y-3.775
X5.52Y-3.775
X5.62Y-3.775
X6.1024Y-2.0079
X6.1024Y-2.1079
X6.1024Y-2.2079
X6.1024Y-2.3079
X6.1024Y-2.4079
X6.1024Y-2.5079
X6.1024Y-2.6079
X6.1024Y-2.7079
X6.1024Y-2.8079
X6.1024Y-2.9079
X6.1024Y-3.0079
X6.1024Y-3.1079
X6.2024Y-2.0079
X6.2024Y-2.1079
X6.2024Y-2.2079
X6.2024Y-2.3079
X6.2024Y-2.4079
X6.2024Y-2.5079
X6.2024Y-2.6079
X6.2024Y-2.7079
X6.2024Y-2.8079
X6.2024Y-2.9079
X6.2024Y-3.0079
X6.2024Y-3.1079
X7.6772Y-2.0079
X7.6772Y-2.1079
X7.6772Y-2.2079
X7.6772Y-2.3079
X7.6772Y-2.4079
X7.6772Y-2.5079
X7.6772Y-2.6079
X7.6772Y-2.7079
X7.6772Y-2.8079
X7.6772Y-2.9079
X7.6772Y-3.0079
X7.6772Y-3.1079
X7.7772Y-2.0079
X7.7772Y-2.1079
X7.7772Y-2.2079
X7.7772Y-2.3079
X7.7772Y-2.4079
X7.7772Y-2.5079
X7.7772Y-2.6079
X7.7772Y-2.7079
X7.7772Y-2.8079
X7.7772Y-2.9079
X7.7772Y-3.0079
X7.7772Y-3.1079
T5
X5.435Y-2.765
X5.535Y-2.765
T6
X3.7795Y-1.4075
X3.7795Y-1.6634
T7
X4.4614Y-0.9
X4.6386Y-0.9
X4.925Y-1.3069
X4.975Y-1.2069
X5.025Y-1.3069
X5.075Y-1.2069
X5.125Y-1.3069
X5.175Y-1.2069
X5.225Y-1.3069
X5.275Y-1.2069
X5.5995Y-1.308
X5.6495Y-1.208
X5.6995Y-1.308
X5.7495Y-1.208
X5.7995Y-1.308
X5.8495Y-1.208
X5.8995Y-1.308
X5.9495Y-1.208
X6.1024Y-3.2079
X6.1485Y-1.3085
X6.1985Y-1.2085
X6.2024Y-3.2079
X6.2485Y-1.3085
X6.2985Y-1.2085
X6.3485Y-1.3085
X6.3985Y-1.2085
X6.4485Y-1.3085
X6.4985Y-1.2085
X6.6985Y-1.3085
X6.7485Y-1.2085
X6.7985Y-1.3085
X6.8485Y-1.2085
X6.8985Y-1.3085
X6.9485Y-1.2085
X6.9985Y-1.3085
X7.0485Y-1.2085
X7.247Y-1.3085
X7.297Y-1.2085
X7.347Y-1.3085
X7.397Y-1.2085
X7.447Y-1.3085
X7.497Y-1.2085
X7.547Y-1.3085
X7.597Y-1.2085
X7.6772Y-3.2079
X7.7772Y-3.2079
T9
X4.0626Y-2.1047
X4.0626Y-2.2047
X4.0626Y-2.3047
T12
X3.5827Y-3.7795
X3.622Y-1.6142
X7.7165Y-1.6142
X7.7559Y-3.7795
T6
X4.1835Y-0.8516G85X4.1165Y-0.8516
G05
T8
X4.4319Y-1.0083G85X4.4319Y-0.9886
G05
X4.6681Y-1.0083G85X4.6681Y-0.9886
G05
T10
X4.0287Y-1.0807G85X4.0287Y-1.0634
G05
X4.2713Y-1.0807G85X4.2713Y-1.0634
G05
T11
X3.6Y-1.027G85X3.6Y-1.087
G05
X3.767Y-0.939G85X3.827Y-0.939
G05
X3.767Y-1.175G85X3.827Y-1.175
G05
T0
M30
