G04 (created by PCBNEW (2013-07-07 BZR 4022)-stable) date 2013/12/2 11:28:43*
%MOIN*%
G04 Gerber Fmt 3.4, Leading zero omitted, Abs format*
%FSLAX34Y34*%
G01*
G70*
G90*
G04 APERTURE LIST*
%ADD10C,0.00590551*%
%ADD11R,0.0866X0.0236*%
%ADD12O,0.12X0.06*%
%ADD13C,0.0433071*%
%ADD14R,0.0314961X0.030315*%
%ADD15R,0.0314961X0.015748*%
%ADD16R,0.0511X0.059*%
%ADD17R,0.059X0.0511*%
%ADD18O,0.15X0.22*%
%ADD19O,0.22X0.15*%
%ADD20R,0.0472X0.0393*%
%ADD21R,0.0551X0.0708*%
%ADD22R,0.0236X0.0866*%
%ADD23C,0.0472441*%
%ADD24C,0.066*%
%ADD25C,0.0593*%
%ADD26O,0.0787402X0.0984252*%
%ADD27C,0.126*%
%ADD28R,0.0629X0.0551*%
%ADD29C,0.063*%
%ADD30C,0.0590551*%
%ADD31C,0.06*%
%ADD32C,0.0511811*%
%ADD33O,0.0787402X0.0944882*%
%ADD34O,0.122047X0.0590551*%
%ADD35C,0.125984*%
%ADD36R,0.0629X0.0708*%
%ADD37R,0.0708X0.0629*%
G04 APERTURE END LIST*
G54D10*
G54D11*
X43977Y-30250D03*
X43977Y-30750D03*
X43977Y-31250D03*
X43977Y-31750D03*
X46023Y-31750D03*
X46023Y-31250D03*
X46023Y-30750D03*
X46023Y-30250D03*
G54D12*
X40625Y-22047D03*
X40625Y-21047D03*
X40625Y-23047D03*
G54D13*
X53000Y-17750D03*
X54000Y-17750D03*
X55000Y-17750D03*
X56000Y-17750D03*
X57000Y-17750D03*
X58000Y-17750D03*
X59000Y-17750D03*
X60000Y-17750D03*
X61000Y-17750D03*
X62000Y-17750D03*
X62000Y-14750D03*
X61000Y-14750D03*
X60000Y-14750D03*
X59000Y-14750D03*
X58000Y-14750D03*
X57000Y-14750D03*
X56000Y-14750D03*
X55000Y-14750D03*
X54000Y-14750D03*
X53000Y-14750D03*
X66000Y-17750D03*
X67000Y-17750D03*
X68000Y-17750D03*
X69000Y-17750D03*
X70000Y-17750D03*
X71000Y-17750D03*
X72000Y-17750D03*
X73000Y-17750D03*
X74000Y-17750D03*
X75000Y-17750D03*
X75000Y-14750D03*
X74000Y-14750D03*
X73000Y-14750D03*
X72000Y-14750D03*
X71000Y-14750D03*
X70000Y-14750D03*
X69000Y-14750D03*
X68000Y-14750D03*
X67000Y-14750D03*
X66000Y-14750D03*
G54D14*
X68828Y-28232D03*
G54D15*
X68828Y-28917D03*
X69671Y-28917D03*
X69671Y-28161D03*
G54D16*
X52368Y-31679D03*
X51620Y-31679D03*
X67714Y-23842D03*
X66966Y-23842D03*
X67714Y-25092D03*
X66966Y-25092D03*
X40620Y-31679D03*
X41368Y-31679D03*
X40620Y-29929D03*
X41368Y-29929D03*
X40620Y-26429D03*
X41368Y-26429D03*
X66966Y-26342D03*
X67714Y-26342D03*
X49618Y-26429D03*
X48870Y-26429D03*
X52368Y-26429D03*
X51620Y-26429D03*
G54D17*
X65000Y-17076D03*
X65000Y-17824D03*
X51000Y-15376D03*
X51000Y-16124D03*
G54D16*
X55301Y-35250D03*
X56049Y-35250D03*
G54D17*
X52000Y-15376D03*
X52000Y-16124D03*
X63000Y-15326D03*
X63000Y-16074D03*
X65000Y-15326D03*
X65000Y-16074D03*
G54D16*
X44799Y-34000D03*
X44051Y-34000D03*
X40299Y-34000D03*
X39551Y-34000D03*
X41801Y-35250D03*
X42549Y-35250D03*
X42549Y-34000D03*
X41801Y-34000D03*
X47049Y-34000D03*
X46301Y-34000D03*
X49299Y-34000D03*
X48551Y-34000D03*
X51549Y-34000D03*
X50801Y-34000D03*
X71624Y-29000D03*
X70876Y-29000D03*
X67624Y-29000D03*
X66876Y-29000D03*
X39551Y-35250D03*
X40299Y-35250D03*
G54D18*
X36000Y-10570D03*
G54D19*
X37970Y-11750D03*
X37970Y-9390D03*
G54D20*
X43311Y-26429D03*
X44177Y-26429D03*
G54D21*
X40325Y-28179D03*
X41663Y-28179D03*
G54D16*
X53799Y-35250D03*
X53051Y-35250D03*
X70876Y-27750D03*
X71624Y-27750D03*
X46868Y-26429D03*
X46120Y-26429D03*
X38624Y-26450D03*
X37876Y-26450D03*
X44799Y-35250D03*
X44051Y-35250D03*
X47049Y-35250D03*
X46301Y-35250D03*
X49299Y-35250D03*
X48551Y-35250D03*
X51549Y-35250D03*
X50801Y-35250D03*
X48870Y-31679D03*
X49618Y-31679D03*
G54D17*
X51000Y-17076D03*
X51000Y-17824D03*
X73000Y-19376D03*
X73000Y-20124D03*
X71500Y-19376D03*
X71500Y-20124D03*
X58800Y-19326D03*
X58800Y-20074D03*
X52000Y-17076D03*
X52000Y-17824D03*
G54D16*
X51620Y-29929D03*
X52368Y-29929D03*
X55301Y-34000D03*
X56049Y-34000D03*
X53799Y-34000D03*
X53051Y-34000D03*
G54D22*
X70250Y-26023D03*
X70750Y-26023D03*
X71250Y-26023D03*
X71750Y-26023D03*
X71750Y-23977D03*
X71250Y-23977D03*
X70750Y-23977D03*
X70250Y-23977D03*
G54D23*
X42750Y-17750D03*
X43750Y-17750D03*
X44750Y-17750D03*
X45750Y-17750D03*
X46750Y-17750D03*
X47750Y-17750D03*
X48750Y-17750D03*
X49750Y-17750D03*
X49750Y-14726D03*
X48750Y-14726D03*
X47742Y-14722D03*
X46746Y-14722D03*
X45750Y-14726D03*
X44750Y-14726D03*
X43750Y-14726D03*
X42750Y-14726D03*
G54D24*
X44925Y-37750D03*
X43925Y-37750D03*
X47175Y-37750D03*
X46175Y-37750D03*
X49425Y-37750D03*
X48425Y-37750D03*
X51675Y-37750D03*
X50675Y-37750D03*
X53925Y-37750D03*
X52925Y-37750D03*
X55200Y-37750D03*
X56200Y-37750D03*
X42675Y-37750D03*
X41675Y-37750D03*
G54D25*
X46385Y-9000D03*
X44614Y-9000D03*
G54D26*
X46681Y-9984D03*
X44318Y-9984D03*
G54D27*
X35826Y-37795D03*
X36220Y-16141D03*
X77559Y-37795D03*
X77165Y-16141D03*
G54D28*
X38840Y-31700D03*
X37660Y-31700D03*
G54D17*
X64000Y-17076D03*
X64000Y-17824D03*
G54D16*
X67624Y-27750D03*
X66876Y-27750D03*
G54D17*
X63000Y-17076D03*
X63000Y-17824D03*
G54D29*
X37795Y-23728D03*
X37795Y-22728D03*
X37795Y-18791D03*
X37795Y-19791D03*
G54D30*
X37795Y-14074D03*
X37795Y-16633D03*
G54D17*
X70000Y-19376D03*
X70000Y-20124D03*
G54D31*
X76771Y-20078D03*
X77771Y-20078D03*
X76771Y-21078D03*
X77771Y-21078D03*
X76771Y-22078D03*
X77771Y-22078D03*
X76771Y-23078D03*
X77771Y-23078D03*
X76771Y-24078D03*
X77771Y-24078D03*
X76771Y-25078D03*
X77771Y-25078D03*
X76771Y-26078D03*
X77771Y-26078D03*
X76771Y-27078D03*
X77771Y-27078D03*
X76771Y-28078D03*
X77771Y-28078D03*
X76771Y-29078D03*
X77771Y-29078D03*
X76771Y-30078D03*
X77771Y-30078D03*
X76771Y-31078D03*
X77771Y-31078D03*
G54D25*
X76771Y-32078D03*
X77771Y-32078D03*
G54D31*
X61023Y-20078D03*
X62023Y-20078D03*
X61023Y-21078D03*
X62023Y-21078D03*
X61023Y-22078D03*
X62023Y-22078D03*
X61023Y-23078D03*
X62023Y-23078D03*
X61023Y-24078D03*
X62023Y-24078D03*
X61023Y-25078D03*
X62023Y-25078D03*
X61023Y-26078D03*
X62023Y-26078D03*
X61023Y-27078D03*
X62023Y-27078D03*
X61023Y-28078D03*
X62023Y-28078D03*
X61023Y-29078D03*
X62023Y-29078D03*
X61023Y-30078D03*
X62023Y-30078D03*
X61023Y-31078D03*
X62023Y-31078D03*
G54D25*
X61023Y-32078D03*
X62023Y-32078D03*
G54D24*
X40425Y-37750D03*
X39425Y-37750D03*
G54D32*
X41224Y-11507D03*
X40673Y-11507D03*
X41775Y-11507D03*
X42326Y-11507D03*
G54D33*
X40287Y-10720D03*
X42712Y-10720D03*
G54D34*
X41500Y-8515D03*
G54D25*
X51250Y-13069D03*
X50750Y-12069D03*
X49750Y-12069D03*
X49250Y-13069D03*
X50250Y-13069D03*
X52750Y-12069D03*
X52250Y-13069D03*
X51750Y-12069D03*
G54D35*
X53362Y-9500D03*
X48637Y-9460D03*
X76687Y-9500D03*
X55348Y-9500D03*
G54D25*
X72470Y-13085D03*
X72970Y-12085D03*
X73470Y-13085D03*
X73970Y-12085D03*
X74470Y-13085D03*
X74970Y-12085D03*
X75470Y-13085D03*
X75970Y-12085D03*
X55995Y-13080D03*
X56495Y-12080D03*
X56995Y-13080D03*
X57495Y-12080D03*
X57995Y-13080D03*
X58495Y-12080D03*
X58995Y-13080D03*
X59495Y-12080D03*
X61485Y-13085D03*
X61985Y-12085D03*
X62485Y-13085D03*
X62985Y-12085D03*
X63485Y-13085D03*
X63985Y-12085D03*
X64485Y-13085D03*
X64985Y-12085D03*
X66985Y-13085D03*
X67485Y-12085D03*
X67985Y-13085D03*
X68485Y-12085D03*
X68985Y-13085D03*
X69485Y-12085D03*
X69985Y-13085D03*
X70485Y-12085D03*
G54D36*
X51443Y-28179D03*
X52545Y-28179D03*
X48693Y-29929D03*
X49795Y-29929D03*
X37699Y-29950D03*
X38801Y-29950D03*
X48693Y-28179D03*
X49795Y-28179D03*
X38801Y-28200D03*
X37699Y-28200D03*
G54D37*
X68250Y-19199D03*
X68250Y-20301D03*
G54D29*
X54350Y-27650D03*
X55350Y-27650D03*
M02*
