G04 (created by PCBNEW (2013-03-19 BZR 4004)-stable) date 2014/12/29 14:44:26*
%MOIN*%
G04 Gerber Fmt 3.4, Leading zero omitted, Abs format*
%FSLAX34Y34*%
G01*
G70*
G90*
G04 APERTURE LIST*
%ADD10C,0*%
%ADD11R,0.00984252X0.0649606*%
%ADD12R,0.0649606X0.00984252*%
%ADD13R,0.275591X0.11811*%
%ADD14R,0.0511X0.059*%
%ADD15R,0.0629X0.0708*%
%ADD16R,0.015748X0.0393701*%
%ADD17R,0.016X0.0787402*%
%ADD18R,0.081X0.081*%
%ADD19C,0.126*%
%ADD20R,0.0629921X0.023622*%
%ADD21R,0.0905512X0.129921*%
%ADD22R,0.0255906X0.019685*%
%ADD23R,0.0629X0.0551*%
%ADD24R,0.0393X0.0452*%
%ADD25R,0.0433X0.0393*%
%ADD26R,0.0393X0.0433*%
%ADD27R,0.0472X0.0472*%
%ADD28R,0.0787402X0.0944882*%
%ADD29R,0.0944X0.1102*%
%ADD30R,0.0629X0.0944*%
%ADD31R,0.0669291X0.0669291*%
%ADD32C,0.0393701*%
%ADD33C,0.074*%
%ADD34C,0.0590551*%
%ADD35O,0.0669291X0.125984*%
%ADD36C,0.0240157*%
%ADD37C,0.032*%
%ADD38C,0.024*%
%ADD39C,0.008*%
%ADD40C,0.032*%
%ADD41C,0.016*%
%ADD42C,0.012*%
%ADD43C,0.01*%
%ADD44C,0.006*%
%ADD45C,0.03*%
%ADD46C,0.024*%
%ADD47C,0.001*%
G04 APERTURE END LIST*
G54D10*
G54D11*
X40917Y-39521D03*
X41114Y-39521D03*
X41311Y-39521D03*
X41507Y-39521D03*
X41704Y-39521D03*
X41901Y-39521D03*
X42098Y-39521D03*
X42295Y-39521D03*
X42492Y-39521D03*
X42688Y-39521D03*
X42885Y-39521D03*
X43082Y-39521D03*
G54D12*
X43771Y-38832D03*
X43771Y-38635D03*
X43771Y-38438D03*
X43771Y-38242D03*
X43771Y-38045D03*
X43771Y-37848D03*
X43771Y-37651D03*
X43771Y-37454D03*
X43771Y-37257D03*
X43771Y-37061D03*
X43771Y-36864D03*
X43771Y-36667D03*
G54D11*
X43082Y-35978D03*
X42885Y-35978D03*
X42688Y-35978D03*
X42492Y-35978D03*
X42295Y-35978D03*
X42098Y-35978D03*
X41901Y-35978D03*
X41704Y-35978D03*
X41507Y-35978D03*
X41311Y-35978D03*
X41114Y-35978D03*
X40917Y-35978D03*
G54D12*
X40228Y-36667D03*
X40228Y-36864D03*
X40228Y-37061D03*
X40228Y-37257D03*
X40228Y-37454D03*
X40228Y-37651D03*
X40228Y-37848D03*
X40228Y-38045D03*
X40228Y-38242D03*
X40228Y-38438D03*
X40228Y-38635D03*
X40228Y-38832D03*
G54D13*
X41393Y-46484D03*
X41393Y-44515D03*
G54D14*
X39624Y-52250D03*
X38876Y-52250D03*
G54D15*
X34699Y-44500D03*
X35801Y-44500D03*
X38551Y-44500D03*
X37449Y-44500D03*
X40449Y-48000D03*
X41551Y-48000D03*
G54D16*
X42450Y-34833D03*
X42843Y-34833D03*
X42843Y-33770D03*
X42450Y-33770D03*
X42056Y-33770D03*
X42056Y-34833D03*
G54D17*
X41980Y-51690D03*
X42240Y-51690D03*
X42500Y-51690D03*
X42760Y-51690D03*
X43020Y-51690D03*
G54D18*
X41318Y-52750D03*
X43681Y-52750D03*
G54D19*
X52755Y-52362D03*
X52755Y-31889D03*
G54D20*
X38400Y-48750D03*
X38400Y-48250D03*
X38400Y-47750D03*
X38400Y-47250D03*
X36100Y-47250D03*
X36100Y-47750D03*
X36100Y-48250D03*
X36100Y-48750D03*
G54D21*
X37250Y-48000D03*
G54D22*
X44324Y-34072D03*
X44324Y-34427D03*
X43575Y-34427D03*
X43575Y-34072D03*
G54D23*
X37153Y-52635D03*
X33847Y-52635D03*
X37153Y-50865D03*
X33847Y-50865D03*
X37153Y-51750D03*
G54D24*
X49734Y-40612D03*
X48750Y-40612D03*
X47766Y-40612D03*
X49734Y-38388D03*
X48750Y-38388D03*
X47766Y-38388D03*
G54D25*
X35000Y-45666D03*
X35000Y-46334D03*
G54D26*
X38216Y-39500D03*
X38884Y-39500D03*
G54D25*
X34000Y-45666D03*
X34000Y-46334D03*
G54D26*
X38216Y-38750D03*
X38884Y-38750D03*
G54D25*
X36000Y-46334D03*
X36000Y-45666D03*
G54D26*
X47666Y-43250D03*
X48334Y-43250D03*
X38884Y-36500D03*
X38216Y-36500D03*
X34584Y-48250D03*
X33916Y-48250D03*
X47666Y-44500D03*
X48334Y-44500D03*
X42540Y-40750D03*
X41872Y-40750D03*
X47666Y-45750D03*
X48334Y-45750D03*
G54D27*
X49762Y-43275D03*
X50588Y-43275D03*
X49762Y-44525D03*
X50588Y-44525D03*
X49762Y-45775D03*
X50588Y-45775D03*
G54D28*
X41169Y-41750D03*
X42744Y-41750D03*
G54D29*
X41510Y-49500D03*
X43990Y-49500D03*
G54D30*
X35910Y-39000D03*
X37090Y-39000D03*
X35910Y-42250D03*
X37090Y-42250D03*
X35910Y-37500D03*
X37090Y-37500D03*
X35910Y-34250D03*
X37090Y-34250D03*
G54D26*
X39956Y-42084D03*
X39956Y-41416D03*
X43956Y-42084D03*
X43956Y-41416D03*
G54D25*
X36166Y-36250D03*
X36834Y-36250D03*
X38916Y-51000D03*
X39584Y-51000D03*
X40366Y-40750D03*
X41034Y-40750D03*
X33916Y-47500D03*
X34584Y-47500D03*
X43372Y-40750D03*
X44040Y-40750D03*
X38216Y-40250D03*
X38884Y-40250D03*
X38216Y-35750D03*
X38884Y-35750D03*
X37666Y-49750D03*
X38334Y-49750D03*
X36166Y-41000D03*
X36834Y-41000D03*
X36166Y-40250D03*
X36834Y-40250D03*
X36166Y-35500D03*
X36834Y-35500D03*
X33916Y-49000D03*
X34584Y-49000D03*
G54D31*
X37291Y-45750D03*
X38944Y-45750D03*
G54D32*
X34816Y-33520D03*
X34816Y-34020D03*
X34816Y-34520D03*
X34816Y-35020D03*
X34816Y-35520D03*
X34816Y-36020D03*
X34816Y-36520D03*
X34816Y-37020D03*
X34816Y-37520D03*
X34816Y-38020D03*
X34816Y-38520D03*
X34816Y-39020D03*
X34816Y-39520D03*
X34816Y-40020D03*
X44566Y-42890D03*
X44066Y-42890D03*
X43566Y-42890D03*
X43066Y-42890D03*
X42566Y-42890D03*
X42066Y-42890D03*
X41566Y-42890D03*
X41066Y-42890D03*
X40566Y-42890D03*
X40066Y-42890D03*
X39566Y-42890D03*
X39066Y-42890D03*
X38566Y-42890D03*
X38066Y-42890D03*
X44916Y-33540D03*
X44916Y-34040D03*
X44916Y-34540D03*
X44916Y-35040D03*
X44916Y-35540D03*
X44916Y-36040D03*
X44916Y-36540D03*
X44916Y-37040D03*
X44916Y-37540D03*
X44916Y-38040D03*
X44916Y-38540D03*
X44916Y-39040D03*
X44916Y-39540D03*
X44916Y-40040D03*
X44916Y-40540D03*
X44916Y-41040D03*
X44916Y-41540D03*
X44916Y-42040D03*
X44916Y-42540D03*
G54D24*
X49734Y-37612D03*
X48750Y-37612D03*
X47766Y-37612D03*
X49734Y-35388D03*
X48750Y-35388D03*
X47766Y-35388D03*
G54D19*
X32283Y-31889D03*
X32283Y-52362D03*
G54D33*
X39000Y-31300D03*
X40000Y-31300D03*
X41000Y-31300D03*
X42000Y-31300D03*
X43000Y-31300D03*
X44000Y-31300D03*
X45000Y-31300D03*
X46000Y-31300D03*
X47000Y-31300D03*
X48000Y-31300D03*
X49000Y-31300D03*
X50000Y-31300D03*
G54D34*
X47244Y-49448D03*
X48031Y-49448D03*
X47244Y-48425D03*
X48031Y-48425D03*
X46259Y-48425D03*
X46259Y-49448D03*
X49015Y-48425D03*
X49015Y-49448D03*
G54D35*
X45118Y-48779D03*
X50157Y-48779D03*
G54D33*
X31600Y-42750D03*
X32600Y-42750D03*
X31600Y-43750D03*
X32600Y-43750D03*
X31600Y-44750D03*
X32600Y-44750D03*
X31600Y-45750D03*
X32600Y-45750D03*
X31600Y-46750D03*
X32600Y-46750D03*
X31600Y-47750D03*
X32600Y-47750D03*
X31600Y-48750D03*
X32600Y-48750D03*
X31600Y-49750D03*
X32600Y-49750D03*
X52400Y-42750D03*
X53400Y-42750D03*
X52400Y-43750D03*
X53400Y-43750D03*
X52400Y-44750D03*
X53400Y-44750D03*
X52400Y-45750D03*
X53400Y-45750D03*
X52400Y-46750D03*
X53400Y-46750D03*
X52400Y-47750D03*
X53400Y-47750D03*
X52400Y-48750D03*
X53400Y-48750D03*
X52400Y-49750D03*
X53400Y-49750D03*
X31600Y-34750D03*
X32600Y-34750D03*
X31600Y-35750D03*
X32600Y-35750D03*
X31600Y-36750D03*
X32600Y-36750D03*
X31600Y-37750D03*
X32600Y-37750D03*
X31600Y-38750D03*
X32600Y-38750D03*
X31600Y-39750D03*
X32600Y-39750D03*
X31600Y-40750D03*
X32600Y-40750D03*
X31600Y-41750D03*
X32600Y-41750D03*
X53400Y-41750D03*
X52400Y-41750D03*
X53400Y-40750D03*
X52400Y-40750D03*
X53400Y-39750D03*
X52400Y-39750D03*
X53400Y-38750D03*
X52400Y-38750D03*
X53400Y-37750D03*
X52400Y-37750D03*
X53400Y-36750D03*
X52400Y-36750D03*
X53400Y-35750D03*
X52400Y-35750D03*
X53400Y-34750D03*
X52400Y-34750D03*
X38000Y-31300D03*
X37000Y-31300D03*
X36000Y-31300D03*
X35000Y-31300D03*
G54D36*
X50950Y-48200D03*
X35834Y-51650D03*
G54D37*
X34070Y-44420D03*
X34070Y-44040D03*
G54D36*
X47530Y-42140D03*
X49250Y-45050D03*
X48350Y-45050D03*
G54D38*
X38220Y-36150D03*
G54D37*
X40050Y-39950D03*
X34070Y-43650D03*
G54D36*
X42505Y-37010D03*
G54D38*
X42500Y-37600D03*
X40150Y-39200D03*
X42500Y-38650D03*
G54D36*
X38216Y-40250D03*
X38190Y-39460D03*
X51000Y-39950D03*
X37450Y-33200D03*
X40950Y-45600D03*
G54D37*
X33950Y-48250D03*
X40550Y-50250D03*
X38950Y-50550D03*
G54D36*
X38850Y-42400D03*
X33050Y-41250D03*
X33850Y-41250D03*
X35350Y-42750D03*
X39650Y-33850D03*
X36550Y-32050D03*
G54D38*
X41814Y-43542D03*
X38958Y-43868D03*
X39258Y-44052D03*
X37894Y-45990D03*
X37872Y-46380D03*
X38232Y-46396D03*
X39032Y-46530D03*
X36900Y-46350D03*
X35100Y-49300D03*
X36500Y-44100D03*
X36800Y-49200D03*
X36600Y-49550D03*
X37200Y-49050D03*
X37850Y-48850D03*
X37640Y-49340D03*
X35264Y-48670D03*
X35352Y-48064D03*
G54D36*
X36900Y-46750D03*
X35500Y-45550D03*
X43350Y-48500D03*
G54D38*
X35070Y-47860D03*
X40010Y-50014D03*
X40456Y-49870D03*
G54D36*
X47240Y-43580D03*
X47260Y-38750D03*
X47250Y-43200D03*
X47250Y-40010D03*
X44450Y-48200D03*
G54D38*
X40918Y-48702D03*
G54D37*
X35900Y-35100D03*
G54D36*
X45982Y-42256D03*
X46248Y-42056D03*
X47700Y-43600D03*
G54D38*
X33550Y-51700D03*
X32100Y-44150D03*
X32100Y-41200D03*
X35500Y-52650D03*
X51050Y-43600D03*
X51150Y-44000D03*
G54D36*
X48755Y-37105D03*
X43440Y-36205D03*
X42490Y-35320D03*
X48570Y-33140D03*
X42605Y-36605D03*
X42160Y-35330D03*
X37140Y-32826D03*
G54D37*
X39806Y-40752D03*
X44250Y-45664D03*
G54D36*
X43550Y-34879D03*
G54D37*
X35100Y-40750D03*
X36400Y-39450D03*
X40878Y-33206D03*
X44916Y-45950D03*
G54D36*
X35730Y-38170D03*
X40270Y-45450D03*
X40250Y-40350D03*
X47350Y-45040D03*
X45584Y-44750D03*
X37090Y-42250D03*
X34800Y-42380D03*
X36050Y-45240D03*
X36050Y-45240D03*
X35570Y-49470D03*
X40950Y-36550D03*
X36850Y-35030D03*
X38370Y-35280D03*
X40540Y-35810D03*
X43090Y-37290D03*
X44500Y-37410D03*
X44530Y-38250D03*
X44160Y-39200D03*
X41416Y-47500D03*
X42440Y-45340D03*
X36840Y-40630D03*
X43560Y-35590D03*
X40940Y-37750D03*
X41720Y-38390D03*
X41450Y-40250D03*
X43500Y-41410D03*
X48550Y-43760D03*
X49270Y-42180D03*
X50560Y-43620D03*
X50500Y-45916D03*
G54D37*
X36540Y-51560D03*
X43970Y-50530D03*
X37280Y-46040D03*
X33910Y-45140D03*
X34280Y-45900D03*
X33916Y-49000D03*
X33370Y-50820D03*
X39520Y-51440D03*
X37250Y-47970D03*
X52900Y-33650D03*
X34550Y-32300D03*
G54D36*
X33464Y-33464D03*
X43204Y-33282D03*
X41770Y-41230D03*
G54D38*
X41000Y-37080D03*
G54D36*
X42750Y-38150D03*
X43350Y-40350D03*
G54D38*
X39670Y-38330D03*
X39650Y-39110D03*
X37350Y-39750D03*
X40580Y-39140D03*
X40830Y-38130D03*
X38150Y-38250D03*
X38650Y-38000D03*
X38650Y-37250D03*
X38900Y-35300D03*
X39680Y-36920D03*
X43100Y-38150D03*
G54D36*
X44510Y-37780D03*
X38600Y-49350D03*
X39450Y-47500D03*
G54D38*
X43500Y-39200D03*
X44320Y-35100D03*
X42860Y-34438D03*
G54D36*
X47110Y-33770D03*
X46010Y-45115D03*
X48110Y-33865D03*
X46895Y-45070D03*
G54D38*
X41300Y-35100D03*
X41350Y-33950D03*
X40750Y-35350D03*
X40950Y-35050D03*
G54D36*
X47765Y-33730D03*
X38318Y-32306D03*
X38394Y-33984D03*
X46510Y-45120D03*
X37950Y-32300D03*
X38478Y-34374D03*
X47485Y-33410D03*
X46260Y-44795D03*
G54D39*
X43771Y-37454D02*
X43365Y-37454D01*
X43220Y-37600D02*
X42500Y-37600D01*
X43365Y-37454D02*
X43220Y-37600D01*
G54D40*
X34699Y-44500D02*
X34150Y-44500D01*
X34150Y-44500D02*
X34070Y-44420D01*
X34070Y-44040D02*
X34070Y-44420D01*
X34070Y-44040D02*
X34070Y-43650D01*
X47666Y-45254D02*
X47666Y-45750D01*
X48350Y-45050D02*
X47870Y-45050D01*
X47870Y-45050D02*
X47666Y-45254D01*
G54D41*
X38216Y-36154D02*
X38220Y-36150D01*
X38216Y-36500D02*
X38216Y-36154D01*
G54D40*
X34699Y-44500D02*
X34350Y-44500D01*
G54D39*
X42098Y-35978D02*
X42098Y-36458D01*
X42505Y-36865D02*
X42505Y-37010D01*
X42098Y-36458D02*
X42505Y-36865D01*
G54D40*
X35000Y-45666D02*
X35000Y-44801D01*
X35000Y-44801D02*
X34699Y-44500D01*
G54D39*
X42492Y-39521D02*
X42492Y-38657D01*
X42492Y-38657D02*
X42500Y-38650D01*
X40228Y-38832D02*
X40228Y-39121D01*
X40228Y-39121D02*
X40150Y-39200D01*
X43771Y-38832D02*
X42682Y-38832D01*
X42682Y-38832D02*
X42500Y-38650D01*
G54D40*
X34699Y-44500D02*
X34699Y-43901D01*
X38551Y-43951D02*
X38551Y-44500D01*
X38300Y-43700D02*
X38551Y-43951D01*
X34900Y-43700D02*
X38300Y-43700D01*
X34699Y-43901D02*
X34900Y-43700D01*
X38551Y-44500D02*
X41377Y-44500D01*
X41377Y-44500D02*
X41393Y-44515D01*
G54D41*
X38216Y-39486D02*
X38216Y-39500D01*
X38190Y-39460D02*
X38216Y-39486D01*
X37650Y-32000D02*
X37750Y-31900D01*
X37450Y-33200D02*
X37550Y-33100D01*
X37550Y-33100D02*
X37550Y-32100D01*
X37550Y-32100D02*
X37650Y-32000D01*
X38550Y-31900D02*
X38700Y-32050D01*
X37750Y-31900D02*
X38550Y-31900D01*
X42450Y-33770D02*
X42450Y-33550D01*
X42450Y-33550D02*
X42250Y-33350D01*
X42250Y-33350D02*
X41250Y-33350D01*
X41250Y-33350D02*
X41050Y-33550D01*
X41050Y-33550D02*
X38850Y-33550D01*
X38850Y-33550D02*
X38700Y-33400D01*
X38700Y-33400D02*
X38700Y-32050D01*
G54D40*
X33950Y-48250D02*
X33916Y-48250D01*
G54D42*
X38950Y-50550D02*
X38916Y-50550D01*
G54D40*
X40449Y-48000D02*
X40449Y-49149D01*
X40449Y-49149D02*
X40800Y-49500D01*
X38400Y-48250D02*
X40199Y-48250D01*
X40199Y-48250D02*
X40449Y-48000D01*
X38916Y-51000D02*
X38916Y-50550D01*
X38916Y-50550D02*
X38916Y-50484D01*
X38916Y-50484D02*
X39900Y-49500D01*
X39900Y-49500D02*
X40800Y-49500D01*
X40800Y-49500D02*
X41510Y-49500D01*
X38876Y-52250D02*
X38876Y-51040D01*
X38876Y-51040D02*
X38916Y-51000D01*
G54D43*
X34890Y-42850D02*
X35250Y-42850D01*
X35250Y-42850D02*
X35350Y-42750D01*
G54D39*
X38850Y-42400D02*
X39600Y-42400D01*
X33850Y-42550D02*
X34150Y-42850D01*
X34150Y-42850D02*
X34890Y-42850D01*
X32850Y-42250D02*
X33000Y-42250D01*
X33150Y-41350D02*
X33050Y-41250D01*
X33150Y-42100D02*
X33150Y-41350D01*
X33000Y-42250D02*
X33150Y-42100D01*
X33850Y-41250D02*
X33850Y-42550D01*
X40066Y-42866D02*
X40066Y-42890D01*
X39600Y-42400D02*
X40066Y-42866D01*
X31600Y-41750D02*
X31600Y-41800D01*
X32050Y-42250D02*
X32850Y-42250D01*
X32850Y-42250D02*
X32900Y-42250D01*
X31600Y-41800D02*
X32050Y-42250D01*
G54D44*
X41812Y-43540D02*
X41812Y-43538D01*
X41814Y-43542D02*
X41812Y-43540D01*
X36370Y-49380D02*
X36310Y-49440D01*
X33550Y-49600D02*
X33550Y-49450D01*
X33690Y-49740D02*
X33550Y-49600D01*
X36230Y-49740D02*
X33690Y-49740D01*
X36310Y-49660D02*
X36230Y-49740D01*
X36310Y-49440D02*
X36310Y-49660D01*
X33550Y-49200D02*
X33550Y-49450D01*
X33330Y-43250D02*
X33160Y-43250D01*
X33550Y-43470D02*
X33330Y-43250D01*
X33550Y-49200D02*
X33550Y-43470D01*
X31600Y-43750D02*
X31610Y-43750D01*
X32110Y-43250D02*
X33160Y-43250D01*
X31610Y-43750D02*
X32110Y-43250D01*
X36370Y-49380D02*
X36540Y-49210D01*
X36540Y-49210D02*
X36790Y-49210D01*
X36790Y-49210D02*
X36800Y-49200D01*
X36600Y-49550D02*
X36600Y-49780D01*
X33400Y-49720D02*
X33400Y-49550D01*
X33570Y-49890D02*
X33400Y-49720D01*
X36490Y-49890D02*
X33570Y-49890D01*
X36600Y-49780D02*
X36490Y-49890D01*
X33400Y-49550D02*
X33400Y-49380D01*
X32600Y-43750D02*
X33269Y-43750D01*
X33400Y-43880D02*
X33400Y-49380D01*
X33269Y-43750D02*
X33400Y-43880D01*
X33240Y-49010D02*
X33240Y-49930D01*
X37050Y-49850D02*
X37050Y-49750D01*
X36860Y-50040D02*
X37050Y-49850D01*
X33350Y-50040D02*
X36860Y-50040D01*
X33240Y-49930D02*
X33350Y-50040D01*
X37050Y-49750D02*
X37050Y-49200D01*
X37050Y-49200D02*
X37200Y-49050D01*
X33030Y-45250D02*
X33000Y-45250D01*
X33240Y-45390D02*
X33100Y-45250D01*
X33100Y-45250D02*
X33030Y-45250D01*
X32100Y-45250D02*
X33000Y-45250D01*
X31600Y-44750D02*
X32100Y-45250D01*
X33240Y-45460D02*
X33240Y-45390D01*
X33240Y-45460D02*
X33240Y-45490D01*
X33240Y-45450D02*
X33240Y-49010D01*
X37650Y-49300D02*
X37650Y-49330D01*
X37850Y-48850D02*
X37650Y-49050D01*
X37650Y-49050D02*
X37650Y-49300D01*
X37650Y-49330D02*
X37640Y-49340D01*
X35352Y-48064D02*
X35356Y-48064D01*
G54D39*
X47666Y-44500D02*
X47666Y-44376D01*
X43800Y-44460D02*
X43800Y-44900D01*
X44110Y-44150D02*
X43800Y-44460D01*
X47440Y-44150D02*
X44110Y-44150D01*
X47666Y-44376D02*
X47440Y-44150D01*
X43800Y-44900D02*
X43800Y-48050D01*
X43350Y-48500D02*
X43800Y-48050D01*
G54D44*
X35070Y-47860D02*
X35068Y-47862D01*
G54D42*
X47240Y-43580D02*
X47240Y-43590D01*
X47260Y-38750D02*
X47260Y-38516D01*
X47260Y-38516D02*
X47388Y-38388D01*
X47766Y-38388D02*
X47388Y-38388D01*
X49734Y-35866D02*
X49734Y-35388D01*
X49600Y-36000D02*
X49734Y-35866D01*
X47500Y-36000D02*
X49600Y-36000D01*
X47150Y-36350D02*
X47500Y-36000D01*
X47150Y-38150D02*
X47150Y-36350D01*
X47388Y-38388D02*
X47150Y-38150D01*
X47250Y-43200D02*
X47230Y-43200D01*
X47475Y-40010D02*
X47650Y-40185D01*
X47250Y-40010D02*
X47475Y-40010D01*
X48250Y-37785D02*
X48250Y-37090D01*
X49050Y-36795D02*
X49305Y-37050D01*
X48545Y-36795D02*
X49050Y-36795D01*
X48250Y-37090D02*
X48545Y-36795D01*
X47766Y-40612D02*
X47650Y-40496D01*
X49734Y-37184D02*
X49734Y-37612D01*
X49600Y-37050D02*
X49734Y-37184D01*
X49305Y-37050D02*
X49600Y-37050D01*
X48250Y-38800D02*
X48250Y-37785D01*
X48100Y-38950D02*
X48250Y-38800D01*
X47850Y-38950D02*
X48100Y-38950D01*
X47650Y-39150D02*
X47850Y-38950D01*
X47650Y-40496D02*
X47650Y-40185D01*
X47650Y-40185D02*
X47650Y-39150D01*
G54D39*
X44900Y-47750D02*
X45050Y-47750D01*
X44450Y-48200D02*
X44900Y-47750D01*
X52400Y-47750D02*
X45050Y-47750D01*
G54D40*
X35910Y-35100D02*
X35910Y-35244D01*
X35900Y-35100D02*
X35910Y-35100D01*
X35910Y-34250D02*
X35910Y-35244D01*
X35910Y-35244D02*
X36166Y-35500D01*
G54D44*
X34816Y-36020D02*
X34546Y-35750D01*
X34546Y-35750D02*
X32600Y-35750D01*
X34816Y-35020D02*
X34546Y-34750D01*
X34546Y-34750D02*
X32600Y-34750D01*
X34816Y-34520D02*
X34496Y-34200D01*
X32150Y-34200D02*
X31600Y-34750D01*
X34496Y-34200D02*
X32150Y-34200D01*
X34050Y-43040D02*
X33940Y-43040D01*
X33550Y-38900D02*
X33400Y-38750D01*
X33550Y-42650D02*
X33550Y-38900D01*
X33940Y-43040D02*
X33550Y-42650D01*
X34300Y-43040D02*
X34050Y-43040D01*
X33400Y-38750D02*
X32600Y-38750D01*
X38181Y-42505D02*
X38566Y-42890D01*
X37905Y-42505D02*
X38181Y-42505D01*
X37370Y-43040D02*
X37905Y-42505D01*
X34300Y-43040D02*
X37370Y-43040D01*
X32750Y-39255D02*
X33155Y-39255D01*
X33350Y-42710D02*
X33865Y-43225D01*
X33350Y-39450D02*
X33350Y-42710D01*
X33155Y-39255D02*
X33350Y-39450D01*
X38066Y-42890D02*
X37731Y-43225D01*
X32105Y-39255D02*
X31600Y-38750D01*
X32750Y-39255D02*
X32105Y-39255D01*
X37731Y-43225D02*
X33865Y-43225D01*
X34816Y-38020D02*
X34546Y-37750D01*
X34546Y-37750D02*
X32600Y-37750D01*
X34816Y-35520D02*
X34546Y-35250D01*
X32100Y-35250D02*
X31600Y-35750D01*
X34546Y-35250D02*
X32100Y-35250D01*
X34816Y-36520D02*
X34546Y-36250D01*
X32100Y-36250D02*
X31600Y-36750D01*
X34546Y-36250D02*
X32100Y-36250D01*
X34816Y-37020D02*
X34546Y-36750D01*
X34546Y-36750D02*
X32600Y-36750D01*
X34816Y-37520D02*
X34546Y-37250D01*
X32100Y-37250D02*
X31600Y-37750D01*
X34546Y-37250D02*
X32100Y-37250D01*
G54D41*
X47700Y-43600D02*
X47700Y-43284D01*
X47700Y-43284D02*
X47666Y-43250D01*
G54D39*
X46200Y-32900D02*
X46200Y-32150D01*
X45000Y-31750D02*
X45000Y-31300D01*
X45150Y-31900D02*
X45000Y-31750D01*
X45950Y-31900D02*
X45150Y-31900D01*
X46200Y-32150D02*
X45950Y-31900D01*
X44916Y-37040D02*
X46010Y-37040D01*
X46200Y-36850D02*
X46200Y-32900D01*
X46010Y-37040D02*
X46200Y-36850D01*
X46000Y-31300D02*
X46400Y-31700D01*
X46400Y-32250D02*
X46400Y-37150D01*
X46400Y-37150D02*
X46010Y-37540D01*
X46010Y-37540D02*
X44916Y-37540D01*
X46400Y-31700D02*
X46400Y-32250D01*
X46850Y-32350D02*
X46850Y-32100D01*
X48000Y-31800D02*
X48000Y-31300D01*
X47900Y-31900D02*
X48000Y-31800D01*
X47050Y-31900D02*
X47900Y-31900D01*
X46850Y-32100D02*
X47050Y-31900D01*
X46410Y-38540D02*
X46850Y-38100D01*
X46850Y-38100D02*
X46850Y-32350D01*
X44916Y-38540D02*
X46410Y-38540D01*
X46600Y-37550D02*
X46600Y-32000D01*
X46110Y-38040D02*
X46600Y-37550D01*
X44916Y-38040D02*
X46110Y-38040D01*
X46600Y-31700D02*
X47000Y-31300D01*
X46600Y-32000D02*
X46600Y-31700D01*
X41000Y-31300D02*
X41000Y-32850D01*
X41000Y-32850D02*
X41150Y-33000D01*
X44916Y-35040D02*
X45400Y-34556D01*
X45250Y-33000D02*
X41150Y-33000D01*
X45400Y-33150D02*
X45250Y-33000D01*
X45400Y-34556D02*
X45400Y-33150D01*
X42000Y-31300D02*
X42000Y-32650D01*
X42000Y-32650D02*
X42150Y-32800D01*
X45600Y-34856D02*
X44916Y-35540D01*
X45600Y-32950D02*
X45600Y-34856D01*
X45450Y-32800D02*
X45600Y-32950D01*
X42150Y-32800D02*
X45450Y-32800D01*
X46000Y-32800D02*
X46000Y-32450D01*
X44250Y-32200D02*
X44000Y-31950D01*
X45750Y-32200D02*
X44250Y-32200D01*
X46000Y-32450D02*
X45750Y-32200D01*
X44000Y-31300D02*
X44000Y-31950D01*
X45660Y-36540D02*
X44916Y-36540D01*
X46000Y-36200D02*
X45660Y-36540D01*
X46000Y-32800D02*
X46000Y-36200D01*
X45800Y-33100D02*
X45800Y-32700D01*
X43250Y-32500D02*
X43000Y-32250D01*
X45600Y-32500D02*
X43250Y-32500D01*
X45800Y-32700D02*
X45600Y-32500D01*
X43000Y-31300D02*
X43000Y-32250D01*
X44916Y-36040D02*
X45460Y-36040D01*
X45800Y-35700D02*
X45800Y-33100D01*
X45460Y-36040D02*
X45800Y-35700D01*
X33847Y-51997D02*
X33550Y-51700D01*
X33847Y-52635D02*
X33847Y-51997D01*
G54D41*
X37138Y-52650D02*
X37153Y-52635D01*
X35500Y-52650D02*
X37138Y-52650D01*
X37153Y-52635D02*
X33847Y-52635D01*
G54D43*
X47650Y-41350D02*
X45900Y-41350D01*
X45900Y-41350D02*
X45625Y-41625D01*
X42500Y-48622D02*
X42500Y-47968D01*
X43694Y-43900D02*
X44500Y-43900D01*
X43502Y-44092D02*
X43694Y-43900D01*
X43502Y-47568D02*
X43502Y-44092D01*
X43266Y-47804D02*
X43502Y-47568D01*
X42664Y-47804D02*
X43266Y-47804D01*
X42500Y-47968D02*
X42664Y-47804D01*
X45625Y-42060D02*
X45625Y-41625D01*
X44500Y-43900D02*
X45080Y-43900D01*
X45430Y-43900D02*
X45625Y-43705D01*
X45625Y-43705D02*
X45625Y-42060D01*
X45080Y-43900D02*
X45430Y-43900D01*
X42500Y-51690D02*
X42500Y-48622D01*
X48750Y-39850D02*
X48750Y-38388D01*
X47650Y-41350D02*
X48900Y-41350D01*
X48900Y-41350D02*
X49150Y-41100D01*
X49150Y-41100D02*
X49150Y-40250D01*
X49150Y-40250D02*
X48750Y-39850D01*
X48750Y-40612D02*
X48750Y-40900D01*
X48550Y-41100D02*
X48450Y-41100D01*
X48750Y-40900D02*
X48550Y-41100D01*
X48000Y-41100D02*
X45750Y-41100D01*
X45750Y-41100D02*
X45425Y-41425D01*
X42240Y-48406D02*
X42240Y-47698D01*
X43488Y-43600D02*
X44300Y-43600D01*
X43228Y-43860D02*
X43488Y-43600D01*
X43228Y-47350D02*
X43228Y-43860D01*
X43018Y-47560D02*
X43228Y-47350D01*
X42378Y-47560D02*
X43018Y-47560D01*
X42240Y-47698D02*
X42378Y-47560D01*
X45425Y-41650D02*
X45425Y-41425D01*
X44300Y-43600D02*
X44950Y-43600D01*
X45330Y-43600D02*
X45425Y-43505D01*
X45425Y-43505D02*
X45425Y-41650D01*
X44950Y-43600D02*
X45330Y-43600D01*
X42240Y-51690D02*
X42240Y-48406D01*
X48000Y-41100D02*
X48450Y-41100D01*
G54D41*
X51050Y-43600D02*
X51340Y-43310D01*
X51340Y-43310D02*
X51340Y-40850D01*
X51340Y-40850D02*
X51102Y-40612D01*
X51102Y-40612D02*
X49734Y-40612D01*
X51150Y-44000D02*
X51620Y-43530D01*
X51620Y-43530D02*
X51620Y-38710D01*
X51620Y-38710D02*
X51298Y-38388D01*
X51298Y-38388D02*
X49734Y-38388D01*
G54D39*
X44916Y-34040D02*
X44356Y-34040D01*
X44356Y-34040D02*
X44324Y-34072D01*
X44916Y-34540D02*
X44436Y-34540D01*
X44436Y-34540D02*
X44324Y-34427D01*
X48750Y-37110D02*
X48750Y-37612D01*
X48755Y-37105D02*
X48750Y-37110D01*
X43082Y-35978D02*
X43213Y-35978D01*
X43213Y-35978D02*
X43440Y-36205D01*
X42492Y-35978D02*
X42492Y-35322D01*
X42492Y-35322D02*
X42490Y-35320D01*
X48750Y-35388D02*
X48750Y-33320D01*
X48750Y-33320D02*
X48570Y-33140D01*
X42885Y-36444D02*
X42725Y-36605D01*
X42725Y-36605D02*
X42605Y-36605D01*
X42885Y-35978D02*
X42885Y-36444D01*
X42295Y-35978D02*
X42295Y-35465D01*
X42295Y-35465D02*
X42160Y-35330D01*
X37000Y-31300D02*
X37000Y-32686D01*
X37000Y-32686D02*
X37140Y-32826D01*
G54D40*
X35910Y-41770D02*
X36194Y-41486D01*
X36194Y-41486D02*
X38866Y-41486D01*
X38866Y-41486D02*
X39600Y-40752D01*
X39600Y-40752D02*
X39806Y-40752D01*
X35910Y-42250D02*
X35910Y-41770D01*
G54D39*
X43550Y-34879D02*
X43550Y-34880D01*
G54D40*
X35350Y-41000D02*
X36166Y-41000D01*
X35100Y-40750D02*
X35350Y-41000D01*
X35910Y-42250D02*
X35910Y-41256D01*
X35910Y-41256D02*
X36166Y-41000D01*
X36400Y-39450D02*
X36360Y-39450D01*
X36360Y-39450D02*
X35910Y-39000D01*
X36166Y-40250D02*
X36166Y-39256D01*
X36166Y-39256D02*
X35910Y-39000D01*
X36166Y-39256D02*
X35910Y-39000D01*
X44916Y-45950D02*
X44914Y-45950D01*
X36166Y-40250D02*
X36166Y-39684D01*
X35950Y-39000D02*
X35910Y-39000D01*
X35730Y-38170D02*
X35910Y-37990D01*
X35910Y-37990D02*
X35910Y-37500D01*
X36166Y-36250D02*
X35650Y-36250D01*
X35300Y-35900D02*
X35300Y-35550D01*
X35650Y-36250D02*
X35300Y-35900D01*
X35300Y-32850D02*
X35300Y-31600D01*
X35300Y-31600D02*
X35000Y-31300D01*
X35910Y-37990D02*
X35910Y-37500D01*
X35300Y-32900D02*
X35300Y-32850D01*
X35300Y-35550D02*
X35300Y-32900D01*
X35910Y-37760D02*
X35910Y-37500D01*
X36166Y-36250D02*
X36166Y-37244D01*
X36166Y-37244D02*
X35910Y-37500D01*
G54D42*
X36840Y-40630D02*
X35880Y-40630D01*
X35076Y-40280D02*
X34816Y-40020D01*
X35530Y-40280D02*
X35076Y-40280D01*
X35880Y-40630D02*
X35530Y-40280D01*
X40366Y-40750D02*
X40366Y-40466D01*
X40366Y-40466D02*
X40250Y-40350D01*
G54D41*
X45584Y-44750D02*
X45584Y-44586D01*
X47210Y-44900D02*
X47350Y-45040D01*
X47210Y-44560D02*
X47210Y-44900D01*
X47100Y-44450D02*
X47210Y-44560D01*
X45720Y-44450D02*
X47100Y-44450D01*
X45584Y-44586D02*
X45720Y-44450D01*
G54D39*
X45584Y-44750D02*
X45590Y-44750D01*
X35570Y-49470D02*
X36010Y-49470D01*
X37250Y-48230D02*
X37250Y-48000D01*
X36010Y-49470D02*
X37250Y-48230D01*
G54D44*
X40917Y-36582D02*
X40917Y-36812D01*
X40950Y-36550D02*
X40917Y-36582D01*
G54D39*
X37100Y-35280D02*
X36850Y-35030D01*
X38370Y-35280D02*
X37100Y-35280D01*
X40917Y-35978D02*
X40917Y-35897D01*
X40830Y-35810D02*
X40540Y-35810D01*
X40917Y-35897D02*
X40830Y-35810D01*
X43771Y-36864D02*
X43255Y-36864D01*
X43090Y-37030D02*
X43090Y-37290D01*
X43255Y-36864D02*
X43090Y-37030D01*
X43771Y-38635D02*
X44155Y-38635D01*
X44270Y-38750D02*
X44270Y-39090D01*
X44155Y-38635D02*
X44270Y-38750D01*
X44160Y-39200D02*
X44270Y-39090D01*
G54D41*
X41551Y-47635D02*
X41416Y-47500D01*
X41551Y-48000D02*
X41551Y-47635D01*
X38884Y-40250D02*
X38884Y-40566D01*
X36940Y-40730D02*
X36840Y-40630D01*
X38720Y-40730D02*
X36940Y-40730D01*
X38884Y-40566D02*
X38720Y-40730D01*
G54D45*
X36840Y-40630D02*
X36834Y-40630D01*
G54D41*
X39956Y-41416D02*
X40264Y-41416D01*
X40366Y-41314D02*
X40366Y-40750D01*
X40264Y-41416D02*
X40366Y-41314D01*
X38884Y-40250D02*
X38964Y-40330D01*
X40366Y-40446D02*
X40366Y-40750D01*
X40250Y-40330D02*
X40366Y-40446D01*
X38964Y-40330D02*
X40250Y-40330D01*
G54D40*
X38216Y-38750D02*
X37340Y-38750D01*
X37340Y-38750D02*
X37090Y-39000D01*
G54D39*
X42840Y-35330D02*
X42688Y-35481D01*
X43300Y-35330D02*
X42840Y-35330D01*
X43560Y-35590D02*
X43300Y-35330D01*
X42450Y-34833D02*
X42450Y-34910D01*
X42450Y-34910D02*
X42740Y-35200D01*
X42740Y-35200D02*
X42740Y-35430D01*
X42740Y-35430D02*
X42688Y-35481D01*
X42688Y-35481D02*
X42688Y-35978D01*
X40228Y-37651D02*
X40841Y-37651D01*
X40841Y-37651D02*
X40940Y-37750D01*
X41720Y-38390D02*
X41720Y-37850D01*
X41720Y-37850D02*
X41620Y-37750D01*
X41620Y-37750D02*
X40940Y-37750D01*
X41901Y-39521D02*
X41901Y-38571D01*
X41901Y-38571D02*
X41720Y-38390D01*
X41450Y-40250D02*
X41640Y-40250D01*
X41640Y-40250D02*
X41704Y-40185D01*
X41704Y-40185D02*
X41704Y-39521D01*
X41311Y-39870D02*
X41311Y-40171D01*
X41311Y-39521D02*
X41311Y-39870D01*
X41311Y-40171D02*
X41390Y-40250D01*
X41390Y-40250D02*
X41450Y-40250D01*
X41507Y-39521D02*
X41507Y-40192D01*
X41507Y-40192D02*
X41450Y-40250D01*
X41704Y-39521D02*
X41901Y-39521D01*
X41507Y-39521D02*
X41704Y-39521D01*
X41311Y-39521D02*
X41507Y-39521D01*
X41114Y-39521D02*
X41311Y-39521D01*
G54D40*
X43956Y-41416D02*
X43506Y-41416D01*
X43506Y-41416D02*
X43500Y-41410D01*
X44040Y-40750D02*
X44040Y-41332D01*
X44040Y-41332D02*
X43956Y-41416D01*
G54D41*
X50588Y-43592D02*
X50588Y-43275D01*
X50560Y-43620D02*
X50588Y-43592D01*
G54D40*
X50588Y-44525D02*
X50588Y-45775D01*
X50588Y-43275D02*
X50588Y-44525D01*
G54D41*
X50500Y-45916D02*
X50588Y-45828D01*
X50588Y-45828D02*
X50588Y-45775D01*
X36765Y-50865D02*
X36540Y-51090D01*
X36540Y-51090D02*
X36540Y-51560D01*
X36765Y-50865D02*
X37153Y-50865D01*
X43990Y-49500D02*
X43990Y-50510D01*
X43990Y-50510D02*
X43970Y-50530D01*
X37291Y-46028D02*
X37291Y-45750D01*
X37280Y-46040D02*
X37291Y-46028D01*
G54D40*
X34000Y-45230D02*
X33910Y-45140D01*
X34000Y-45666D02*
X34000Y-45230D01*
G54D41*
X34046Y-45666D02*
X34000Y-45666D01*
X34280Y-45900D02*
X34046Y-45666D01*
G54D40*
X33415Y-50865D02*
X33370Y-50820D01*
X33415Y-50865D02*
X33847Y-50865D01*
X39584Y-51000D02*
X39584Y-51376D01*
X39584Y-51376D02*
X39520Y-51440D01*
X37250Y-47970D02*
X37250Y-48000D01*
X38216Y-35750D02*
X37160Y-35750D01*
X36834Y-36076D02*
X36834Y-36250D01*
X37160Y-35750D02*
X36834Y-36076D01*
G54D44*
X40228Y-37651D02*
X40638Y-37651D01*
X40917Y-36812D02*
X40917Y-35978D01*
X40730Y-37000D02*
X40917Y-36812D01*
X40730Y-37560D02*
X40730Y-37000D01*
X40638Y-37651D02*
X40730Y-37560D01*
G54D39*
X52900Y-42300D02*
X52900Y-33650D01*
X52900Y-48400D02*
X52900Y-42300D01*
X52900Y-42300D02*
X52900Y-42250D01*
X52900Y-42250D02*
X53400Y-41750D01*
X53400Y-49750D02*
X52900Y-49250D01*
X52900Y-48250D02*
X53400Y-47750D01*
X52900Y-49250D02*
X52900Y-48400D01*
X52900Y-48400D02*
X52900Y-48250D01*
G54D40*
X36834Y-41000D02*
X36834Y-40630D01*
X36834Y-40630D02*
X36834Y-40250D01*
X36834Y-40250D02*
X36834Y-39256D01*
X36834Y-39256D02*
X37090Y-39000D01*
X37090Y-37500D02*
X37090Y-39000D01*
X36834Y-36250D02*
X36834Y-37244D01*
X36834Y-37244D02*
X37090Y-37500D01*
X36834Y-35500D02*
X36834Y-36250D01*
X36834Y-35500D02*
X36834Y-35030D01*
X36834Y-35030D02*
X36834Y-34506D01*
X36834Y-34506D02*
X37090Y-34250D01*
G54D42*
X43020Y-51690D02*
X43020Y-49830D01*
X43350Y-49500D02*
X43990Y-49500D01*
X43020Y-49830D02*
X43350Y-49500D01*
G54D40*
X36000Y-45666D02*
X37207Y-45666D01*
X37207Y-45666D02*
X37291Y-45750D01*
X38400Y-47250D02*
X37600Y-47250D01*
X37600Y-47250D02*
X37250Y-47600D01*
X37250Y-47600D02*
X37250Y-48000D01*
X37291Y-45750D02*
X37291Y-47958D01*
X37291Y-47958D02*
X37250Y-48000D01*
X37449Y-44500D02*
X37449Y-45592D01*
X37449Y-45592D02*
X37291Y-45750D01*
X35801Y-44500D02*
X37449Y-44500D01*
G54D44*
X41872Y-40750D02*
X42020Y-40897D01*
X41940Y-42020D02*
X41720Y-42020D01*
X42020Y-41940D02*
X41940Y-42020D01*
X42020Y-40897D02*
X42020Y-41940D01*
X41439Y-42020D02*
X41169Y-41750D01*
X41720Y-42020D02*
X41439Y-42020D01*
G54D39*
X39956Y-42084D02*
X40835Y-42084D01*
X40835Y-42084D02*
X41169Y-41750D01*
X42688Y-39521D02*
X42688Y-39911D01*
X42200Y-41205D02*
X42744Y-41750D01*
X42200Y-40400D02*
X42200Y-41205D01*
X42688Y-39911D02*
X42200Y-40400D01*
X43956Y-42084D02*
X43078Y-42084D01*
X43078Y-42084D02*
X42744Y-41750D01*
X43771Y-36667D02*
X42932Y-36667D01*
X42810Y-37140D02*
X42685Y-37265D01*
X42810Y-36790D02*
X42810Y-37140D01*
X42932Y-36667D02*
X42810Y-36790D01*
G54D44*
X41034Y-41004D02*
X41150Y-41120D01*
X41150Y-41120D02*
X41660Y-41120D01*
X41660Y-41120D02*
X41770Y-41230D01*
X41034Y-40750D02*
X41034Y-41004D01*
X41507Y-36750D02*
X41507Y-36942D01*
X41370Y-37080D02*
X41000Y-37080D01*
X41507Y-36942D02*
X41370Y-37080D01*
X42065Y-37265D02*
X42150Y-37350D01*
X42150Y-37350D02*
X42150Y-38000D01*
X42150Y-38000D02*
X42300Y-38150D01*
X42750Y-38150D02*
X42300Y-38150D01*
X41700Y-37265D02*
X42065Y-37265D01*
X43372Y-40750D02*
X43350Y-40727D01*
X43350Y-40727D02*
X43350Y-40350D01*
G54D39*
X41507Y-37177D02*
X41507Y-36750D01*
X41507Y-36750D02*
X41507Y-35978D01*
X41700Y-37265D02*
X41595Y-37265D01*
X41595Y-37265D02*
X41507Y-37177D01*
X42685Y-37265D02*
X41700Y-37265D01*
X40917Y-39521D02*
X40917Y-40633D01*
X40917Y-40633D02*
X41034Y-40750D01*
X43082Y-39521D02*
X43082Y-40459D01*
X43082Y-40459D02*
X43372Y-40750D01*
X39754Y-38045D02*
X40228Y-38045D01*
X39670Y-38130D02*
X39754Y-38045D01*
X39670Y-38330D02*
X39670Y-38130D01*
X39650Y-39730D02*
X39650Y-39110D01*
X39490Y-39890D02*
X39650Y-39730D01*
X37490Y-39890D02*
X39490Y-39890D01*
X37350Y-39750D02*
X37490Y-39890D01*
X40708Y-38438D02*
X40770Y-38500D01*
X40770Y-38500D02*
X40770Y-38950D01*
X40770Y-38950D02*
X40580Y-39140D01*
X40228Y-38438D02*
X40708Y-38438D01*
X40717Y-38242D02*
X40830Y-38130D01*
X40228Y-38242D02*
X40717Y-38242D01*
X38600Y-38250D02*
X39050Y-38250D01*
X39451Y-37848D02*
X40228Y-37848D01*
X39050Y-38250D02*
X39451Y-37848D01*
X38600Y-38250D02*
X38150Y-38250D01*
X38650Y-38000D02*
X38800Y-38000D01*
X39345Y-37454D02*
X40228Y-37454D01*
X38800Y-38000D02*
X39345Y-37454D01*
X40228Y-37257D02*
X38657Y-37257D01*
X38657Y-37257D02*
X38650Y-37250D01*
X39470Y-35300D02*
X40030Y-35300D01*
X40610Y-36290D02*
X40700Y-36380D01*
X40260Y-36290D02*
X40610Y-36290D01*
X40160Y-36190D02*
X40260Y-36290D01*
X40160Y-35430D02*
X40160Y-36190D01*
X40030Y-35300D02*
X40160Y-35430D01*
X40228Y-36864D02*
X40635Y-36864D01*
X40635Y-36864D02*
X40700Y-36800D01*
X40700Y-36800D02*
X40700Y-36380D01*
X39470Y-35300D02*
X38900Y-35300D01*
X40228Y-37061D02*
X39821Y-37061D01*
X39821Y-37061D02*
X39680Y-36920D01*
X43771Y-37848D02*
X43201Y-37848D01*
X43100Y-37950D02*
X43100Y-38150D01*
X43201Y-37848D02*
X43100Y-37950D01*
X43771Y-38242D02*
X43192Y-38242D01*
X43192Y-38242D02*
X43100Y-38150D01*
X44360Y-37990D02*
X44510Y-37840D01*
X44510Y-37840D02*
X44510Y-37780D01*
X44190Y-37651D02*
X44381Y-37651D01*
X44381Y-37651D02*
X44510Y-37780D01*
X44380Y-37970D02*
X44360Y-37990D01*
X44360Y-37990D02*
X44304Y-38045D01*
X43771Y-37651D02*
X44190Y-37651D01*
X44190Y-37651D02*
X44281Y-37651D01*
X43771Y-38045D02*
X44304Y-38045D01*
G54D41*
X45118Y-48779D02*
X45248Y-48910D01*
X50027Y-48910D02*
X50157Y-48779D01*
X45248Y-48910D02*
X50027Y-48910D01*
X48334Y-44500D02*
X49737Y-44500D01*
X49737Y-44500D02*
X49762Y-44525D01*
G54D43*
X41980Y-51690D02*
X41980Y-51330D01*
X40250Y-52250D02*
X39624Y-52250D01*
X40400Y-52100D02*
X40250Y-52250D01*
X40400Y-51300D02*
X40400Y-52100D01*
X40500Y-51200D02*
X40400Y-51300D01*
X41850Y-51200D02*
X40500Y-51200D01*
X41980Y-51330D02*
X41850Y-51200D01*
G54D41*
X34584Y-49000D02*
X35850Y-49000D01*
X35850Y-49000D02*
X36100Y-48750D01*
G54D42*
X35850Y-49000D02*
X36100Y-48750D01*
G54D41*
X36100Y-47750D02*
X35780Y-47750D01*
X35530Y-47500D02*
X34584Y-47500D01*
X35780Y-47750D02*
X35530Y-47500D01*
X34000Y-46334D02*
X34000Y-47416D01*
X34000Y-47416D02*
X33916Y-47500D01*
X36000Y-46334D02*
X35000Y-46334D01*
X36100Y-47250D02*
X36100Y-46434D01*
X36100Y-46434D02*
X36000Y-46334D01*
X49762Y-45775D02*
X48359Y-45775D01*
X48359Y-45775D02*
X48334Y-45750D01*
G54D40*
X43681Y-52750D02*
X41318Y-52750D01*
G54D41*
X36100Y-48250D02*
X35990Y-48360D01*
X34694Y-48360D02*
X34584Y-48250D01*
X35990Y-48360D02*
X34694Y-48360D01*
G54D46*
X38334Y-49616D02*
X38600Y-49350D01*
X38334Y-49750D02*
X38334Y-49616D01*
G54D40*
X39450Y-46950D02*
X39450Y-46255D01*
X39450Y-46255D02*
X38944Y-45750D01*
X38400Y-47750D02*
X39200Y-47750D01*
X39665Y-46484D02*
X41393Y-46484D01*
X39450Y-46700D02*
X39665Y-46484D01*
X39450Y-47500D02*
X39450Y-46950D01*
X39450Y-46950D02*
X39450Y-46700D01*
X39200Y-47750D02*
X39450Y-47500D01*
G54D41*
X37666Y-49750D02*
X37666Y-49734D01*
X38400Y-49000D02*
X38400Y-48750D01*
X37666Y-49734D02*
X38400Y-49000D01*
X48334Y-43250D02*
X49737Y-43250D01*
X49737Y-43250D02*
X49762Y-43275D01*
G54D39*
X44170Y-38438D02*
X44308Y-38438D01*
X44308Y-38438D02*
X44440Y-38570D01*
X43500Y-39200D02*
X43680Y-39380D01*
X44440Y-39560D02*
X44440Y-38570D01*
X44260Y-39740D02*
X44440Y-39560D01*
X43800Y-39740D02*
X44260Y-39740D01*
X43680Y-39620D02*
X43800Y-39740D01*
X43680Y-39380D02*
X43680Y-39620D01*
X44170Y-38438D02*
X43771Y-38438D01*
X44450Y-35640D02*
X44450Y-35230D01*
X44450Y-35230D02*
X44320Y-35100D01*
X42843Y-34454D02*
X42860Y-34438D01*
X42843Y-34833D02*
X42843Y-34454D01*
X43771Y-37257D02*
X44292Y-37257D01*
X44450Y-37100D02*
X44450Y-36850D01*
X44292Y-37257D02*
X44450Y-37100D01*
X44450Y-36850D02*
X44450Y-35640D01*
X43575Y-34427D02*
X42972Y-34427D01*
X42843Y-34556D02*
X42843Y-34833D01*
X42972Y-34427D02*
X42843Y-34556D01*
X44050Y-34800D02*
X44050Y-35200D01*
X44050Y-35200D02*
X44250Y-35400D01*
X44250Y-36750D02*
X44250Y-35400D01*
X43771Y-37061D02*
X44188Y-37061D01*
X44250Y-37000D02*
X44250Y-36750D01*
X44188Y-37061D02*
X44250Y-37000D01*
X43822Y-34072D02*
X43575Y-34072D01*
X44050Y-34300D02*
X43822Y-34072D01*
X44050Y-34800D02*
X44050Y-34300D01*
X43575Y-34072D02*
X43022Y-34072D01*
X42843Y-33893D02*
X42843Y-33770D01*
X43022Y-34072D02*
X42843Y-33893D01*
X42885Y-39521D02*
X42885Y-40404D01*
X42885Y-40404D02*
X42540Y-40750D01*
X38884Y-35750D02*
X38884Y-36500D01*
X40228Y-36667D02*
X39051Y-36667D01*
X39051Y-36667D02*
X38884Y-36500D01*
X38884Y-39500D02*
X38650Y-39266D01*
X38650Y-38984D02*
X38884Y-38750D01*
X38650Y-39266D02*
X38650Y-38984D01*
X40228Y-38635D02*
X38998Y-38635D01*
X38998Y-38635D02*
X38884Y-38750D01*
G54D44*
X47110Y-33770D02*
X47110Y-33785D01*
G54D39*
X41704Y-35978D02*
X41704Y-35504D01*
X41704Y-35504D02*
X41300Y-35100D01*
X41650Y-35100D02*
X41350Y-34800D01*
X41350Y-34800D02*
X41350Y-33950D01*
X41901Y-35978D02*
X41901Y-35351D01*
X41901Y-35351D02*
X41650Y-35100D01*
X41114Y-35978D02*
X41114Y-35514D01*
X40950Y-35350D02*
X40750Y-35350D01*
X41114Y-35514D02*
X40950Y-35350D01*
X41311Y-35978D02*
X41311Y-35484D01*
X40950Y-35123D02*
X40950Y-35050D01*
X41311Y-35484D02*
X40950Y-35123D01*
G54D44*
X38230Y-32986D02*
X38230Y-33820D01*
X38230Y-32394D02*
X38318Y-32306D01*
X38230Y-32986D02*
X38230Y-32394D01*
X38230Y-33820D02*
X38394Y-33984D01*
X37975Y-32750D02*
X37975Y-32325D01*
X37975Y-33206D02*
X37975Y-32750D01*
X37975Y-32325D02*
X37950Y-32300D01*
X37975Y-33642D02*
X37975Y-34173D01*
X38176Y-34374D02*
X38478Y-34374D01*
X37975Y-34173D02*
X38176Y-34374D01*
X37975Y-33642D02*
X37975Y-33206D01*
X37975Y-33206D02*
X37975Y-32875D01*
X37975Y-32875D02*
X37975Y-32870D01*
G54D39*
X42098Y-39521D02*
X42295Y-39521D01*
G54D10*
G36*
X42095Y-52195D02*
X42066Y-52195D01*
X42066Y-52082D01*
X42066Y-51297D01*
X42065Y-51295D01*
X42065Y-51292D01*
X42063Y-51291D01*
X42061Y-51290D01*
X42021Y-51290D01*
X42020Y-51291D01*
X42020Y-51595D01*
X42064Y-51595D01*
X42066Y-51593D01*
X42066Y-51297D01*
X42066Y-52082D01*
X42066Y-51786D01*
X42064Y-51785D01*
X42020Y-51785D01*
X42020Y-52088D01*
X42021Y-52089D01*
X42061Y-52089D01*
X42063Y-52088D01*
X42065Y-52087D01*
X42065Y-52084D01*
X42066Y-52082D01*
X42066Y-52195D01*
X41836Y-52195D01*
X41860Y-52184D01*
X41934Y-52111D01*
X41974Y-52014D01*
X41974Y-51910D01*
X41940Y-51826D01*
X41940Y-51785D01*
X41940Y-51595D01*
X41940Y-51291D01*
X41938Y-51290D01*
X41898Y-51290D01*
X41896Y-51291D01*
X41894Y-51292D01*
X41894Y-51295D01*
X41893Y-51297D01*
X41894Y-51593D01*
X41895Y-51595D01*
X41940Y-51595D01*
X41940Y-51785D01*
X41905Y-51785D01*
X41861Y-51740D01*
X41764Y-51700D01*
X41660Y-51700D01*
X41564Y-51740D01*
X41490Y-51813D01*
X41450Y-51910D01*
X41450Y-52014D01*
X41490Y-52110D01*
X41563Y-52184D01*
X41588Y-52195D01*
X40695Y-52195D01*
X40695Y-53507D01*
X39885Y-53507D01*
X39885Y-52543D01*
X39885Y-51956D01*
X39885Y-51953D01*
X39884Y-51951D01*
X39882Y-51949D01*
X39880Y-51948D01*
X39720Y-51949D01*
X39719Y-51950D01*
X39719Y-52155D01*
X39884Y-52155D01*
X39885Y-52153D01*
X39885Y-51956D01*
X39885Y-52543D01*
X39885Y-52346D01*
X39884Y-52345D01*
X39719Y-52345D01*
X39719Y-52549D01*
X39720Y-52551D01*
X39880Y-52551D01*
X39882Y-52550D01*
X39884Y-52548D01*
X39885Y-52546D01*
X39885Y-52543D01*
X39885Y-53507D01*
X39529Y-53507D01*
X39529Y-52549D01*
X39529Y-52345D01*
X39529Y-52155D01*
X39529Y-51950D01*
X39527Y-51949D01*
X39367Y-51948D01*
X39365Y-51949D01*
X39363Y-51951D01*
X39362Y-51953D01*
X39362Y-51956D01*
X39362Y-52153D01*
X39364Y-52155D01*
X39529Y-52155D01*
X39529Y-52345D01*
X39364Y-52345D01*
X39362Y-52346D01*
X39362Y-52543D01*
X39362Y-52546D01*
X39363Y-52548D01*
X39365Y-52550D01*
X39367Y-52551D01*
X39527Y-52551D01*
X39529Y-52549D01*
X39529Y-53507D01*
X39355Y-53507D01*
X39355Y-51705D01*
X40005Y-51705D01*
X40005Y-50705D01*
X42095Y-50705D01*
X42095Y-51241D01*
X42087Y-51248D01*
X42075Y-51279D01*
X42074Y-51313D01*
X42074Y-52100D01*
X42087Y-52131D01*
X42095Y-52138D01*
X42095Y-52195D01*
X42095Y-52195D01*
G37*
G54D47*
X42095Y-52195D02*
X42066Y-52195D01*
X42066Y-52082D01*
X42066Y-51297D01*
X42065Y-51295D01*
X42065Y-51292D01*
X42063Y-51291D01*
X42061Y-51290D01*
X42021Y-51290D01*
X42020Y-51291D01*
X42020Y-51595D01*
X42064Y-51595D01*
X42066Y-51593D01*
X42066Y-51297D01*
X42066Y-52082D01*
X42066Y-51786D01*
X42064Y-51785D01*
X42020Y-51785D01*
X42020Y-52088D01*
X42021Y-52089D01*
X42061Y-52089D01*
X42063Y-52088D01*
X42065Y-52087D01*
X42065Y-52084D01*
X42066Y-52082D01*
X42066Y-52195D01*
X41836Y-52195D01*
X41860Y-52184D01*
X41934Y-52111D01*
X41974Y-52014D01*
X41974Y-51910D01*
X41940Y-51826D01*
X41940Y-51785D01*
X41940Y-51595D01*
X41940Y-51291D01*
X41938Y-51290D01*
X41898Y-51290D01*
X41896Y-51291D01*
X41894Y-51292D01*
X41894Y-51295D01*
X41893Y-51297D01*
X41894Y-51593D01*
X41895Y-51595D01*
X41940Y-51595D01*
X41940Y-51785D01*
X41905Y-51785D01*
X41861Y-51740D01*
X41764Y-51700D01*
X41660Y-51700D01*
X41564Y-51740D01*
X41490Y-51813D01*
X41450Y-51910D01*
X41450Y-52014D01*
X41490Y-52110D01*
X41563Y-52184D01*
X41588Y-52195D01*
X40695Y-52195D01*
X40695Y-53507D01*
X39885Y-53507D01*
X39885Y-52543D01*
X39885Y-51956D01*
X39885Y-51953D01*
X39884Y-51951D01*
X39882Y-51949D01*
X39880Y-51948D01*
X39720Y-51949D01*
X39719Y-51950D01*
X39719Y-52155D01*
X39884Y-52155D01*
X39885Y-52153D01*
X39885Y-51956D01*
X39885Y-52543D01*
X39885Y-52346D01*
X39884Y-52345D01*
X39719Y-52345D01*
X39719Y-52549D01*
X39720Y-52551D01*
X39880Y-52551D01*
X39882Y-52550D01*
X39884Y-52548D01*
X39885Y-52546D01*
X39885Y-52543D01*
X39885Y-53507D01*
X39529Y-53507D01*
X39529Y-52549D01*
X39529Y-52345D01*
X39529Y-52155D01*
X39529Y-51950D01*
X39527Y-51949D01*
X39367Y-51948D01*
X39365Y-51949D01*
X39363Y-51951D01*
X39362Y-51953D01*
X39362Y-51956D01*
X39362Y-52153D01*
X39364Y-52155D01*
X39529Y-52155D01*
X39529Y-52345D01*
X39364Y-52345D01*
X39362Y-52346D01*
X39362Y-52543D01*
X39362Y-52546D01*
X39363Y-52548D01*
X39365Y-52550D01*
X39367Y-52551D01*
X39527Y-52551D01*
X39529Y-52549D01*
X39529Y-53507D01*
X39355Y-53507D01*
X39355Y-51705D01*
X40005Y-51705D01*
X40005Y-50705D01*
X42095Y-50705D01*
X42095Y-51241D01*
X42087Y-51248D01*
X42075Y-51279D01*
X42074Y-51313D01*
X42074Y-52100D01*
X42087Y-52131D01*
X42095Y-52138D01*
X42095Y-52195D01*
G54D10*
G36*
X42045Y-50495D02*
X41988Y-50495D01*
X41988Y-50049D01*
X41988Y-48950D01*
X41987Y-48947D01*
X41987Y-48945D01*
X41985Y-48943D01*
X41983Y-48942D01*
X41606Y-48943D01*
X41605Y-48944D01*
X41605Y-49405D01*
X41986Y-49405D01*
X41988Y-49403D01*
X41988Y-48950D01*
X41988Y-50049D01*
X41988Y-49596D01*
X41986Y-49595D01*
X41605Y-49595D01*
X41605Y-50055D01*
X41606Y-50057D01*
X41983Y-50057D01*
X41985Y-50056D01*
X41987Y-50054D01*
X41987Y-50052D01*
X41988Y-50049D01*
X41988Y-50495D01*
X41415Y-50495D01*
X41415Y-50055D01*
X41415Y-49595D01*
X41415Y-49405D01*
X41415Y-48944D01*
X41413Y-48943D01*
X41036Y-48942D01*
X41034Y-48943D01*
X41032Y-48945D01*
X41032Y-48947D01*
X41031Y-48950D01*
X41032Y-49403D01*
X41033Y-49405D01*
X41415Y-49405D01*
X41415Y-49595D01*
X41033Y-49595D01*
X41032Y-49596D01*
X41031Y-50049D01*
X41032Y-50052D01*
X41032Y-50054D01*
X41034Y-50056D01*
X41036Y-50057D01*
X41413Y-50057D01*
X41415Y-50055D01*
X41415Y-50495D01*
X40661Y-50495D01*
X40661Y-49829D01*
X40629Y-49754D01*
X40572Y-49696D01*
X40496Y-49665D01*
X40415Y-49664D01*
X40354Y-49690D01*
X40354Y-48358D01*
X40354Y-48095D01*
X40354Y-47905D01*
X40354Y-47641D01*
X40352Y-47640D01*
X40133Y-47639D01*
X40131Y-47640D01*
X40129Y-47642D01*
X40128Y-47644D01*
X40128Y-47647D01*
X40128Y-47903D01*
X40130Y-47905D01*
X40354Y-47905D01*
X40354Y-48095D01*
X40130Y-48095D01*
X40128Y-48096D01*
X40128Y-48352D01*
X40128Y-48355D01*
X40129Y-48357D01*
X40131Y-48359D01*
X40133Y-48360D01*
X40352Y-48360D01*
X40354Y-48358D01*
X40354Y-49690D01*
X40340Y-49696D01*
X40282Y-49753D01*
X40251Y-49829D01*
X40250Y-49910D01*
X40282Y-49985D01*
X40339Y-50043D01*
X40415Y-50074D01*
X40496Y-50075D01*
X40571Y-50043D01*
X40629Y-49986D01*
X40660Y-49910D01*
X40661Y-49829D01*
X40661Y-50495D01*
X40215Y-50495D01*
X40215Y-49973D01*
X40183Y-49898D01*
X40126Y-49840D01*
X40050Y-49809D01*
X39969Y-49808D01*
X39894Y-49840D01*
X39836Y-49897D01*
X39805Y-49973D01*
X39804Y-50054D01*
X39836Y-50129D01*
X39893Y-50187D01*
X39969Y-50218D01*
X40050Y-50219D01*
X40125Y-50187D01*
X40183Y-50130D01*
X40214Y-50054D01*
X40215Y-49973D01*
X40215Y-50495D01*
X39297Y-50495D01*
X39145Y-50647D01*
X39145Y-53507D01*
X39138Y-53507D01*
X39138Y-51195D01*
X39138Y-50804D01*
X39138Y-50802D01*
X39137Y-50800D01*
X39135Y-50798D01*
X39133Y-50797D01*
X39012Y-50797D01*
X39011Y-50799D01*
X39011Y-50905D01*
X39137Y-50905D01*
X39138Y-50903D01*
X39138Y-50804D01*
X39138Y-51195D01*
X39138Y-51096D01*
X39137Y-51095D01*
X39011Y-51095D01*
X39011Y-51201D01*
X39012Y-51202D01*
X39133Y-51202D01*
X39135Y-51201D01*
X39137Y-51199D01*
X39138Y-51197D01*
X39138Y-51195D01*
X39138Y-53507D01*
X39137Y-53507D01*
X39137Y-52543D01*
X39137Y-51956D01*
X39137Y-51953D01*
X39136Y-51951D01*
X39134Y-51949D01*
X39132Y-51948D01*
X38972Y-51949D01*
X38971Y-51950D01*
X38971Y-52155D01*
X39136Y-52155D01*
X39137Y-52153D01*
X39137Y-51956D01*
X39137Y-52543D01*
X39137Y-52346D01*
X39136Y-52345D01*
X38971Y-52345D01*
X38971Y-52549D01*
X38972Y-52551D01*
X39132Y-52551D01*
X39134Y-52550D01*
X39136Y-52548D01*
X39137Y-52546D01*
X39137Y-52543D01*
X39137Y-53507D01*
X38821Y-53507D01*
X38821Y-51201D01*
X38821Y-51095D01*
X38821Y-50905D01*
X38821Y-50799D01*
X38819Y-50797D01*
X38698Y-50797D01*
X38696Y-50798D01*
X38694Y-50800D01*
X38693Y-50802D01*
X38693Y-50804D01*
X38693Y-50903D01*
X38695Y-50905D01*
X38821Y-50905D01*
X38821Y-51095D01*
X38695Y-51095D01*
X38693Y-51096D01*
X38693Y-51195D01*
X38693Y-51197D01*
X38694Y-51199D01*
X38696Y-51201D01*
X38698Y-51202D01*
X38819Y-51202D01*
X38821Y-51201D01*
X38821Y-53507D01*
X38781Y-53507D01*
X38781Y-52549D01*
X38781Y-52345D01*
X38781Y-52155D01*
X38781Y-51950D01*
X38779Y-51949D01*
X38619Y-51948D01*
X38617Y-51949D01*
X38615Y-51951D01*
X38614Y-51953D01*
X38614Y-51956D01*
X38614Y-52153D01*
X38616Y-52155D01*
X38781Y-52155D01*
X38781Y-52345D01*
X38616Y-52345D01*
X38614Y-52346D01*
X38614Y-52543D01*
X38614Y-52546D01*
X38615Y-52548D01*
X38617Y-52550D01*
X38619Y-52551D01*
X38779Y-52551D01*
X38781Y-52549D01*
X38781Y-53507D01*
X38055Y-53507D01*
X38055Y-50205D01*
X38802Y-50205D01*
X38905Y-50102D01*
X38905Y-48495D01*
X38720Y-48495D01*
X38720Y-48369D01*
X38720Y-48130D01*
X38720Y-48128D01*
X38718Y-48126D01*
X38716Y-48125D01*
X38713Y-48125D01*
X38496Y-48125D01*
X38495Y-48127D01*
X38495Y-48190D01*
X38719Y-48190D01*
X38720Y-48189D01*
X38720Y-48130D01*
X38720Y-48369D01*
X38720Y-48310D01*
X38719Y-48309D01*
X38495Y-48309D01*
X38495Y-48372D01*
X38496Y-48374D01*
X38713Y-48374D01*
X38716Y-48374D01*
X38718Y-48373D01*
X38720Y-48371D01*
X38720Y-48369D01*
X38720Y-48495D01*
X38305Y-48495D01*
X38305Y-48372D01*
X38305Y-48309D01*
X38305Y-48190D01*
X38305Y-48127D01*
X38303Y-48125D01*
X38086Y-48125D01*
X38083Y-48125D01*
X38081Y-48126D01*
X38079Y-48128D01*
X38079Y-48130D01*
X38079Y-48189D01*
X38080Y-48190D01*
X38305Y-48190D01*
X38305Y-48309D01*
X38080Y-48309D01*
X38079Y-48310D01*
X38079Y-48369D01*
X38079Y-48371D01*
X38081Y-48373D01*
X38083Y-48374D01*
X38086Y-48374D01*
X38303Y-48374D01*
X38305Y-48372D01*
X38305Y-48495D01*
X38055Y-48495D01*
X38055Y-48055D01*
X40005Y-48055D01*
X40005Y-47405D01*
X40845Y-47405D01*
X40845Y-48510D01*
X40802Y-48528D01*
X40769Y-48560D01*
X40769Y-48352D01*
X40769Y-47647D01*
X40769Y-47644D01*
X40768Y-47642D01*
X40766Y-47640D01*
X40764Y-47639D01*
X40545Y-47640D01*
X40544Y-47641D01*
X40544Y-47905D01*
X40768Y-47905D01*
X40769Y-47903D01*
X40769Y-47647D01*
X40769Y-48352D01*
X40769Y-48096D01*
X40768Y-48095D01*
X40544Y-48095D01*
X40544Y-48358D01*
X40545Y-48360D01*
X40764Y-48360D01*
X40766Y-48359D01*
X40768Y-48357D01*
X40769Y-48355D01*
X40769Y-48352D01*
X40769Y-48560D01*
X40744Y-48585D01*
X40713Y-48661D01*
X40712Y-48742D01*
X40744Y-48817D01*
X40801Y-48875D01*
X40877Y-48906D01*
X40958Y-48907D01*
X41033Y-48875D01*
X41091Y-48818D01*
X41122Y-48742D01*
X41123Y-48661D01*
X41120Y-48655D01*
X42045Y-48655D01*
X42045Y-50495D01*
X42045Y-50495D01*
G37*
G54D47*
X42045Y-50495D02*
X41988Y-50495D01*
X41988Y-50049D01*
X41988Y-48950D01*
X41987Y-48947D01*
X41987Y-48945D01*
X41985Y-48943D01*
X41983Y-48942D01*
X41606Y-48943D01*
X41605Y-48944D01*
X41605Y-49405D01*
X41986Y-49405D01*
X41988Y-49403D01*
X41988Y-48950D01*
X41988Y-50049D01*
X41988Y-49596D01*
X41986Y-49595D01*
X41605Y-49595D01*
X41605Y-50055D01*
X41606Y-50057D01*
X41983Y-50057D01*
X41985Y-50056D01*
X41987Y-50054D01*
X41987Y-50052D01*
X41988Y-50049D01*
X41988Y-50495D01*
X41415Y-50495D01*
X41415Y-50055D01*
X41415Y-49595D01*
X41415Y-49405D01*
X41415Y-48944D01*
X41413Y-48943D01*
X41036Y-48942D01*
X41034Y-48943D01*
X41032Y-48945D01*
X41032Y-48947D01*
X41031Y-48950D01*
X41032Y-49403D01*
X41033Y-49405D01*
X41415Y-49405D01*
X41415Y-49595D01*
X41033Y-49595D01*
X41032Y-49596D01*
X41031Y-50049D01*
X41032Y-50052D01*
X41032Y-50054D01*
X41034Y-50056D01*
X41036Y-50057D01*
X41413Y-50057D01*
X41415Y-50055D01*
X41415Y-50495D01*
X40661Y-50495D01*
X40661Y-49829D01*
X40629Y-49754D01*
X40572Y-49696D01*
X40496Y-49665D01*
X40415Y-49664D01*
X40354Y-49690D01*
X40354Y-48358D01*
X40354Y-48095D01*
X40354Y-47905D01*
X40354Y-47641D01*
X40352Y-47640D01*
X40133Y-47639D01*
X40131Y-47640D01*
X40129Y-47642D01*
X40128Y-47644D01*
X40128Y-47647D01*
X40128Y-47903D01*
X40130Y-47905D01*
X40354Y-47905D01*
X40354Y-48095D01*
X40130Y-48095D01*
X40128Y-48096D01*
X40128Y-48352D01*
X40128Y-48355D01*
X40129Y-48357D01*
X40131Y-48359D01*
X40133Y-48360D01*
X40352Y-48360D01*
X40354Y-48358D01*
X40354Y-49690D01*
X40340Y-49696D01*
X40282Y-49753D01*
X40251Y-49829D01*
X40250Y-49910D01*
X40282Y-49985D01*
X40339Y-50043D01*
X40415Y-50074D01*
X40496Y-50075D01*
X40571Y-50043D01*
X40629Y-49986D01*
X40660Y-49910D01*
X40661Y-49829D01*
X40661Y-50495D01*
X40215Y-50495D01*
X40215Y-49973D01*
X40183Y-49898D01*
X40126Y-49840D01*
X40050Y-49809D01*
X39969Y-49808D01*
X39894Y-49840D01*
X39836Y-49897D01*
X39805Y-49973D01*
X39804Y-50054D01*
X39836Y-50129D01*
X39893Y-50187D01*
X39969Y-50218D01*
X40050Y-50219D01*
X40125Y-50187D01*
X40183Y-50130D01*
X40214Y-50054D01*
X40215Y-49973D01*
X40215Y-50495D01*
X39297Y-50495D01*
X39145Y-50647D01*
X39145Y-53507D01*
X39138Y-53507D01*
X39138Y-51195D01*
X39138Y-50804D01*
X39138Y-50802D01*
X39137Y-50800D01*
X39135Y-50798D01*
X39133Y-50797D01*
X39012Y-50797D01*
X39011Y-50799D01*
X39011Y-50905D01*
X39137Y-50905D01*
X39138Y-50903D01*
X39138Y-50804D01*
X39138Y-51195D01*
X39138Y-51096D01*
X39137Y-51095D01*
X39011Y-51095D01*
X39011Y-51201D01*
X39012Y-51202D01*
X39133Y-51202D01*
X39135Y-51201D01*
X39137Y-51199D01*
X39138Y-51197D01*
X39138Y-51195D01*
X39138Y-53507D01*
X39137Y-53507D01*
X39137Y-52543D01*
X39137Y-51956D01*
X39137Y-51953D01*
X39136Y-51951D01*
X39134Y-51949D01*
X39132Y-51948D01*
X38972Y-51949D01*
X38971Y-51950D01*
X38971Y-52155D01*
X39136Y-52155D01*
X39137Y-52153D01*
X39137Y-51956D01*
X39137Y-52543D01*
X39137Y-52346D01*
X39136Y-52345D01*
X38971Y-52345D01*
X38971Y-52549D01*
X38972Y-52551D01*
X39132Y-52551D01*
X39134Y-52550D01*
X39136Y-52548D01*
X39137Y-52546D01*
X39137Y-52543D01*
X39137Y-53507D01*
X38821Y-53507D01*
X38821Y-51201D01*
X38821Y-51095D01*
X38821Y-50905D01*
X38821Y-50799D01*
X38819Y-50797D01*
X38698Y-50797D01*
X38696Y-50798D01*
X38694Y-50800D01*
X38693Y-50802D01*
X38693Y-50804D01*
X38693Y-50903D01*
X38695Y-50905D01*
X38821Y-50905D01*
X38821Y-51095D01*
X38695Y-51095D01*
X38693Y-51096D01*
X38693Y-51195D01*
X38693Y-51197D01*
X38694Y-51199D01*
X38696Y-51201D01*
X38698Y-51202D01*
X38819Y-51202D01*
X38821Y-51201D01*
X38821Y-53507D01*
X38781Y-53507D01*
X38781Y-52549D01*
X38781Y-52345D01*
X38781Y-52155D01*
X38781Y-51950D01*
X38779Y-51949D01*
X38619Y-51948D01*
X38617Y-51949D01*
X38615Y-51951D01*
X38614Y-51953D01*
X38614Y-51956D01*
X38614Y-52153D01*
X38616Y-52155D01*
X38781Y-52155D01*
X38781Y-52345D01*
X38616Y-52345D01*
X38614Y-52346D01*
X38614Y-52543D01*
X38614Y-52546D01*
X38615Y-52548D01*
X38617Y-52550D01*
X38619Y-52551D01*
X38779Y-52551D01*
X38781Y-52549D01*
X38781Y-53507D01*
X38055Y-53507D01*
X38055Y-50205D01*
X38802Y-50205D01*
X38905Y-50102D01*
X38905Y-48495D01*
X38720Y-48495D01*
X38720Y-48369D01*
X38720Y-48130D01*
X38720Y-48128D01*
X38718Y-48126D01*
X38716Y-48125D01*
X38713Y-48125D01*
X38496Y-48125D01*
X38495Y-48127D01*
X38495Y-48190D01*
X38719Y-48190D01*
X38720Y-48189D01*
X38720Y-48130D01*
X38720Y-48369D01*
X38720Y-48310D01*
X38719Y-48309D01*
X38495Y-48309D01*
X38495Y-48372D01*
X38496Y-48374D01*
X38713Y-48374D01*
X38716Y-48374D01*
X38718Y-48373D01*
X38720Y-48371D01*
X38720Y-48369D01*
X38720Y-48495D01*
X38305Y-48495D01*
X38305Y-48372D01*
X38305Y-48309D01*
X38305Y-48190D01*
X38305Y-48127D01*
X38303Y-48125D01*
X38086Y-48125D01*
X38083Y-48125D01*
X38081Y-48126D01*
X38079Y-48128D01*
X38079Y-48130D01*
X38079Y-48189D01*
X38080Y-48190D01*
X38305Y-48190D01*
X38305Y-48309D01*
X38080Y-48309D01*
X38079Y-48310D01*
X38079Y-48369D01*
X38079Y-48371D01*
X38081Y-48373D01*
X38083Y-48374D01*
X38086Y-48374D01*
X38303Y-48374D01*
X38305Y-48372D01*
X38305Y-48495D01*
X38055Y-48495D01*
X38055Y-48055D01*
X40005Y-48055D01*
X40005Y-47405D01*
X40845Y-47405D01*
X40845Y-48510D01*
X40802Y-48528D01*
X40769Y-48560D01*
X40769Y-48352D01*
X40769Y-47647D01*
X40769Y-47644D01*
X40768Y-47642D01*
X40766Y-47640D01*
X40764Y-47639D01*
X40545Y-47640D01*
X40544Y-47641D01*
X40544Y-47905D01*
X40768Y-47905D01*
X40769Y-47903D01*
X40769Y-47647D01*
X40769Y-48352D01*
X40769Y-48096D01*
X40768Y-48095D01*
X40544Y-48095D01*
X40544Y-48358D01*
X40545Y-48360D01*
X40764Y-48360D01*
X40766Y-48359D01*
X40768Y-48357D01*
X40769Y-48355D01*
X40769Y-48352D01*
X40769Y-48560D01*
X40744Y-48585D01*
X40713Y-48661D01*
X40712Y-48742D01*
X40744Y-48817D01*
X40801Y-48875D01*
X40877Y-48906D01*
X40958Y-48907D01*
X41033Y-48875D01*
X41091Y-48818D01*
X41122Y-48742D01*
X41123Y-48661D01*
X41120Y-48655D01*
X42045Y-48655D01*
X42045Y-50495D01*
G54D10*
G36*
X42845Y-47145D02*
X42777Y-47145D01*
X42777Y-47075D01*
X42777Y-45892D01*
X42776Y-45890D01*
X42775Y-45888D01*
X42772Y-45887D01*
X42770Y-45887D01*
X41490Y-45887D01*
X41488Y-45889D01*
X41488Y-46389D01*
X42776Y-46389D01*
X42777Y-46387D01*
X42777Y-45892D01*
X42777Y-47075D01*
X42777Y-46580D01*
X42776Y-46579D01*
X41488Y-46579D01*
X41488Y-47079D01*
X41490Y-47080D01*
X42770Y-47080D01*
X42772Y-47080D01*
X42775Y-47079D01*
X42776Y-47078D01*
X42777Y-47075D01*
X42777Y-47145D01*
X41298Y-47145D01*
X41298Y-47079D01*
X41298Y-46579D01*
X41298Y-46389D01*
X41298Y-45889D01*
X41297Y-45887D01*
X40016Y-45887D01*
X40014Y-45887D01*
X40012Y-45888D01*
X40010Y-45890D01*
X40009Y-45892D01*
X40009Y-46387D01*
X40011Y-46389D01*
X41298Y-46389D01*
X41298Y-46579D01*
X40011Y-46579D01*
X40009Y-46580D01*
X40009Y-47075D01*
X40010Y-47078D01*
X40012Y-47079D01*
X40014Y-47080D01*
X40016Y-47080D01*
X41297Y-47080D01*
X41298Y-47079D01*
X41298Y-47145D01*
X39745Y-47145D01*
X39745Y-47945D01*
X39285Y-47945D01*
X39285Y-46083D01*
X39285Y-45416D01*
X39285Y-45414D01*
X39284Y-45411D01*
X39282Y-45410D01*
X39280Y-45409D01*
X39041Y-45409D01*
X39039Y-45410D01*
X39039Y-45655D01*
X39284Y-45655D01*
X39285Y-45653D01*
X39285Y-45416D01*
X39285Y-46083D01*
X39285Y-45846D01*
X39284Y-45845D01*
X39039Y-45845D01*
X39039Y-46089D01*
X39041Y-46090D01*
X39280Y-46090D01*
X39282Y-46089D01*
X39284Y-46088D01*
X39285Y-46085D01*
X39285Y-46083D01*
X39285Y-47945D01*
X38720Y-47945D01*
X38720Y-47869D01*
X38720Y-47630D01*
X38720Y-47628D01*
X38718Y-47626D01*
X38716Y-47625D01*
X38713Y-47625D01*
X38496Y-47625D01*
X38495Y-47627D01*
X38495Y-47690D01*
X38719Y-47690D01*
X38720Y-47689D01*
X38720Y-47630D01*
X38720Y-47869D01*
X38720Y-47810D01*
X38719Y-47809D01*
X38495Y-47809D01*
X38495Y-47872D01*
X38496Y-47874D01*
X38713Y-47874D01*
X38716Y-47874D01*
X38718Y-47873D01*
X38720Y-47871D01*
X38720Y-47869D01*
X38720Y-47945D01*
X38305Y-47945D01*
X38305Y-47872D01*
X38305Y-47809D01*
X38305Y-47690D01*
X38305Y-47627D01*
X38303Y-47625D01*
X38086Y-47625D01*
X38083Y-47625D01*
X38081Y-47626D01*
X38079Y-47628D01*
X38079Y-47630D01*
X38079Y-47689D01*
X38080Y-47690D01*
X38305Y-47690D01*
X38305Y-47809D01*
X38080Y-47809D01*
X38079Y-47810D01*
X38079Y-47869D01*
X38079Y-47871D01*
X38081Y-47873D01*
X38083Y-47874D01*
X38086Y-47874D01*
X38303Y-47874D01*
X38305Y-47872D01*
X38305Y-47945D01*
X38055Y-47945D01*
X38055Y-47555D01*
X38905Y-47555D01*
X38905Y-46692D01*
X38915Y-46703D01*
X38991Y-46734D01*
X39072Y-46735D01*
X39147Y-46703D01*
X39205Y-46646D01*
X39236Y-46570D01*
X39237Y-46489D01*
X39205Y-46414D01*
X39148Y-46356D01*
X39072Y-46325D01*
X38991Y-46324D01*
X38916Y-46356D01*
X38858Y-46413D01*
X38849Y-46434D01*
X38849Y-46089D01*
X38849Y-45845D01*
X38849Y-45655D01*
X38849Y-45410D01*
X38848Y-45409D01*
X38609Y-45409D01*
X38606Y-45410D01*
X38605Y-45411D01*
X38604Y-45414D01*
X38604Y-45416D01*
X38604Y-45653D01*
X38605Y-45655D01*
X38849Y-45655D01*
X38849Y-45845D01*
X38605Y-45845D01*
X38604Y-45846D01*
X38604Y-46083D01*
X38604Y-46085D01*
X38605Y-46088D01*
X38606Y-46089D01*
X38609Y-46090D01*
X38848Y-46090D01*
X38849Y-46089D01*
X38849Y-46434D01*
X38827Y-46489D01*
X38827Y-46495D01*
X38412Y-46495D01*
X38436Y-46436D01*
X38437Y-46355D01*
X38405Y-46280D01*
X38348Y-46222D01*
X38305Y-46204D01*
X38305Y-45355D01*
X39497Y-45355D01*
X39747Y-45605D01*
X40134Y-45605D01*
X40153Y-45623D01*
X40229Y-45655D01*
X40310Y-45655D01*
X40386Y-45623D01*
X40405Y-45605D01*
X40744Y-45605D01*
X40744Y-45640D01*
X40776Y-45716D01*
X40833Y-45773D01*
X40909Y-45805D01*
X40990Y-45805D01*
X41066Y-45773D01*
X41123Y-45716D01*
X41155Y-45640D01*
X41155Y-45605D01*
X42845Y-45605D01*
X42845Y-47145D01*
X42845Y-47145D01*
G37*
G54D47*
X42845Y-47145D02*
X42777Y-47145D01*
X42777Y-47075D01*
X42777Y-45892D01*
X42776Y-45890D01*
X42775Y-45888D01*
X42772Y-45887D01*
X42770Y-45887D01*
X41490Y-45887D01*
X41488Y-45889D01*
X41488Y-46389D01*
X42776Y-46389D01*
X42777Y-46387D01*
X42777Y-45892D01*
X42777Y-47075D01*
X42777Y-46580D01*
X42776Y-46579D01*
X41488Y-46579D01*
X41488Y-47079D01*
X41490Y-47080D01*
X42770Y-47080D01*
X42772Y-47080D01*
X42775Y-47079D01*
X42776Y-47078D01*
X42777Y-47075D01*
X42777Y-47145D01*
X41298Y-47145D01*
X41298Y-47079D01*
X41298Y-46579D01*
X41298Y-46389D01*
X41298Y-45889D01*
X41297Y-45887D01*
X40016Y-45887D01*
X40014Y-45887D01*
X40012Y-45888D01*
X40010Y-45890D01*
X40009Y-45892D01*
X40009Y-46387D01*
X40011Y-46389D01*
X41298Y-46389D01*
X41298Y-46579D01*
X40011Y-46579D01*
X40009Y-46580D01*
X40009Y-47075D01*
X40010Y-47078D01*
X40012Y-47079D01*
X40014Y-47080D01*
X40016Y-47080D01*
X41297Y-47080D01*
X41298Y-47079D01*
X41298Y-47145D01*
X39745Y-47145D01*
X39745Y-47945D01*
X39285Y-47945D01*
X39285Y-46083D01*
X39285Y-45416D01*
X39285Y-45414D01*
X39284Y-45411D01*
X39282Y-45410D01*
X39280Y-45409D01*
X39041Y-45409D01*
X39039Y-45410D01*
X39039Y-45655D01*
X39284Y-45655D01*
X39285Y-45653D01*
X39285Y-45416D01*
X39285Y-46083D01*
X39285Y-45846D01*
X39284Y-45845D01*
X39039Y-45845D01*
X39039Y-46089D01*
X39041Y-46090D01*
X39280Y-46090D01*
X39282Y-46089D01*
X39284Y-46088D01*
X39285Y-46085D01*
X39285Y-46083D01*
X39285Y-47945D01*
X38720Y-47945D01*
X38720Y-47869D01*
X38720Y-47630D01*
X38720Y-47628D01*
X38718Y-47626D01*
X38716Y-47625D01*
X38713Y-47625D01*
X38496Y-47625D01*
X38495Y-47627D01*
X38495Y-47690D01*
X38719Y-47690D01*
X38720Y-47689D01*
X38720Y-47630D01*
X38720Y-47869D01*
X38720Y-47810D01*
X38719Y-47809D01*
X38495Y-47809D01*
X38495Y-47872D01*
X38496Y-47874D01*
X38713Y-47874D01*
X38716Y-47874D01*
X38718Y-47873D01*
X38720Y-47871D01*
X38720Y-47869D01*
X38720Y-47945D01*
X38305Y-47945D01*
X38305Y-47872D01*
X38305Y-47809D01*
X38305Y-47690D01*
X38305Y-47627D01*
X38303Y-47625D01*
X38086Y-47625D01*
X38083Y-47625D01*
X38081Y-47626D01*
X38079Y-47628D01*
X38079Y-47630D01*
X38079Y-47689D01*
X38080Y-47690D01*
X38305Y-47690D01*
X38305Y-47809D01*
X38080Y-47809D01*
X38079Y-47810D01*
X38079Y-47869D01*
X38079Y-47871D01*
X38081Y-47873D01*
X38083Y-47874D01*
X38086Y-47874D01*
X38303Y-47874D01*
X38305Y-47872D01*
X38305Y-47945D01*
X38055Y-47945D01*
X38055Y-47555D01*
X38905Y-47555D01*
X38905Y-46692D01*
X38915Y-46703D01*
X38991Y-46734D01*
X39072Y-46735D01*
X39147Y-46703D01*
X39205Y-46646D01*
X39236Y-46570D01*
X39237Y-46489D01*
X39205Y-46414D01*
X39148Y-46356D01*
X39072Y-46325D01*
X38991Y-46324D01*
X38916Y-46356D01*
X38858Y-46413D01*
X38849Y-46434D01*
X38849Y-46089D01*
X38849Y-45845D01*
X38849Y-45655D01*
X38849Y-45410D01*
X38848Y-45409D01*
X38609Y-45409D01*
X38606Y-45410D01*
X38605Y-45411D01*
X38604Y-45414D01*
X38604Y-45416D01*
X38604Y-45653D01*
X38605Y-45655D01*
X38849Y-45655D01*
X38849Y-45845D01*
X38605Y-45845D01*
X38604Y-45846D01*
X38604Y-46083D01*
X38604Y-46085D01*
X38605Y-46088D01*
X38606Y-46089D01*
X38609Y-46090D01*
X38848Y-46090D01*
X38849Y-46089D01*
X38849Y-46434D01*
X38827Y-46489D01*
X38827Y-46495D01*
X38412Y-46495D01*
X38436Y-46436D01*
X38437Y-46355D01*
X38405Y-46280D01*
X38348Y-46222D01*
X38305Y-46204D01*
X38305Y-45355D01*
X39497Y-45355D01*
X39747Y-45605D01*
X40134Y-45605D01*
X40153Y-45623D01*
X40229Y-45655D01*
X40310Y-45655D01*
X40386Y-45623D01*
X40405Y-45605D01*
X40744Y-45605D01*
X40744Y-45640D01*
X40776Y-45716D01*
X40833Y-45773D01*
X40909Y-45805D01*
X40990Y-45805D01*
X41066Y-45773D01*
X41123Y-45716D01*
X41155Y-45640D01*
X41155Y-45605D01*
X42845Y-45605D01*
X42845Y-47145D01*
G54D10*
G36*
X42845Y-45345D02*
X42777Y-45345D01*
X42777Y-45107D01*
X42777Y-43924D01*
X42776Y-43921D01*
X42775Y-43920D01*
X42772Y-43919D01*
X42770Y-43919D01*
X41490Y-43919D01*
X41488Y-43920D01*
X41488Y-44420D01*
X42776Y-44420D01*
X42777Y-44419D01*
X42777Y-43924D01*
X42777Y-45107D01*
X42777Y-44612D01*
X42776Y-44610D01*
X41488Y-44610D01*
X41488Y-45110D01*
X41490Y-45112D01*
X42770Y-45112D01*
X42772Y-45112D01*
X42775Y-45111D01*
X42776Y-45109D01*
X42777Y-45107D01*
X42777Y-45345D01*
X42645Y-45345D01*
X42645Y-45299D01*
X42613Y-45223D01*
X42556Y-45166D01*
X42480Y-45134D01*
X42399Y-45134D01*
X42323Y-45166D01*
X42266Y-45223D01*
X42234Y-45299D01*
X42234Y-45345D01*
X41298Y-45345D01*
X41298Y-45110D01*
X41298Y-44610D01*
X41298Y-44420D01*
X41298Y-43920D01*
X41297Y-43919D01*
X40016Y-43919D01*
X40014Y-43919D01*
X40012Y-43920D01*
X40010Y-43921D01*
X40009Y-43924D01*
X40009Y-44419D01*
X40011Y-44420D01*
X41298Y-44420D01*
X41298Y-44610D01*
X40011Y-44610D01*
X40009Y-44612D01*
X40009Y-45107D01*
X40010Y-45109D01*
X40012Y-45111D01*
X40014Y-45112D01*
X40016Y-45112D01*
X41297Y-45112D01*
X41298Y-45110D01*
X41298Y-45345D01*
X40448Y-45345D01*
X40443Y-45333D01*
X40386Y-45276D01*
X40310Y-45244D01*
X40229Y-45244D01*
X40153Y-45276D01*
X40096Y-45333D01*
X40091Y-45345D01*
X39952Y-45345D01*
X39702Y-45095D01*
X39463Y-45095D01*
X39463Y-44011D01*
X39431Y-43936D01*
X39374Y-43878D01*
X39298Y-43847D01*
X39217Y-43846D01*
X39162Y-43869D01*
X39163Y-43827D01*
X39131Y-43752D01*
X39074Y-43694D01*
X38998Y-43663D01*
X38917Y-43662D01*
X38842Y-43694D01*
X38784Y-43751D01*
X38753Y-43827D01*
X38752Y-43908D01*
X38784Y-43983D01*
X38841Y-44041D01*
X38917Y-44072D01*
X38998Y-44073D01*
X39053Y-44050D01*
X39052Y-44092D01*
X39084Y-44167D01*
X39141Y-44225D01*
X39217Y-44256D01*
X39298Y-44257D01*
X39373Y-44225D01*
X39431Y-44168D01*
X39462Y-44092D01*
X39463Y-44011D01*
X39463Y-45095D01*
X38871Y-45095D01*
X38871Y-44852D01*
X38871Y-44147D01*
X38871Y-44144D01*
X38870Y-44142D01*
X38868Y-44140D01*
X38866Y-44139D01*
X38647Y-44140D01*
X38646Y-44141D01*
X38646Y-44405D01*
X38870Y-44405D01*
X38871Y-44403D01*
X38871Y-44147D01*
X38871Y-44852D01*
X38871Y-44596D01*
X38870Y-44595D01*
X38646Y-44595D01*
X38646Y-44858D01*
X38647Y-44860D01*
X38866Y-44860D01*
X38868Y-44859D01*
X38870Y-44857D01*
X38871Y-44855D01*
X38871Y-44852D01*
X38871Y-45095D01*
X38456Y-45095D01*
X38456Y-44858D01*
X38456Y-44595D01*
X38456Y-44405D01*
X38456Y-44141D01*
X38454Y-44140D01*
X38235Y-44139D01*
X38233Y-44140D01*
X38231Y-44142D01*
X38230Y-44144D01*
X38230Y-44147D01*
X38230Y-44403D01*
X38232Y-44405D01*
X38456Y-44405D01*
X38456Y-44595D01*
X38232Y-44595D01*
X38230Y-44596D01*
X38230Y-44852D01*
X38230Y-44855D01*
X38231Y-44857D01*
X38233Y-44859D01*
X38235Y-44860D01*
X38454Y-44860D01*
X38456Y-44858D01*
X38456Y-45095D01*
X38105Y-45095D01*
X38105Y-43945D01*
X36634Y-43945D01*
X36616Y-43926D01*
X36540Y-43895D01*
X36459Y-43894D01*
X36384Y-43926D01*
X36365Y-43945D01*
X35245Y-43945D01*
X35245Y-45895D01*
X35222Y-45895D01*
X35222Y-45863D01*
X35222Y-45468D01*
X35221Y-45466D01*
X35219Y-45464D01*
X35217Y-45463D01*
X35215Y-45463D01*
X35096Y-45463D01*
X35095Y-45465D01*
X35095Y-45571D01*
X35221Y-45571D01*
X35222Y-45569D01*
X35222Y-45468D01*
X35222Y-45863D01*
X35222Y-45762D01*
X35221Y-45761D01*
X35095Y-45761D01*
X35095Y-45867D01*
X35096Y-45868D01*
X35215Y-45868D01*
X35217Y-45868D01*
X35219Y-45867D01*
X35221Y-45865D01*
X35222Y-45863D01*
X35222Y-45895D01*
X35019Y-45895D01*
X35019Y-44852D01*
X35019Y-44147D01*
X35019Y-44144D01*
X35018Y-44142D01*
X35016Y-44140D01*
X35014Y-44139D01*
X34795Y-44140D01*
X34794Y-44141D01*
X34794Y-44405D01*
X35018Y-44405D01*
X35019Y-44403D01*
X35019Y-44147D01*
X35019Y-44852D01*
X35019Y-44596D01*
X35018Y-44595D01*
X34794Y-44595D01*
X34794Y-44858D01*
X34795Y-44860D01*
X35014Y-44860D01*
X35016Y-44859D01*
X35018Y-44857D01*
X35019Y-44855D01*
X35019Y-44852D01*
X35019Y-45895D01*
X34905Y-45895D01*
X34905Y-45867D01*
X34905Y-45761D01*
X34905Y-45571D01*
X34905Y-45465D01*
X34903Y-45463D01*
X34784Y-45463D01*
X34782Y-45463D01*
X34780Y-45464D01*
X34778Y-45466D01*
X34777Y-45468D01*
X34777Y-45569D01*
X34779Y-45571D01*
X34905Y-45571D01*
X34905Y-45761D01*
X34779Y-45761D01*
X34777Y-45762D01*
X34777Y-45863D01*
X34778Y-45865D01*
X34780Y-45867D01*
X34782Y-45868D01*
X34784Y-45868D01*
X34903Y-45868D01*
X34905Y-45867D01*
X34905Y-45895D01*
X34604Y-45895D01*
X34604Y-44858D01*
X34604Y-44595D01*
X34604Y-44405D01*
X34604Y-44141D01*
X34602Y-44140D01*
X34383Y-44139D01*
X34381Y-44140D01*
X34379Y-44142D01*
X34378Y-44144D01*
X34378Y-44147D01*
X34378Y-44403D01*
X34380Y-44405D01*
X34604Y-44405D01*
X34604Y-44595D01*
X34380Y-44595D01*
X34378Y-44596D01*
X34378Y-44852D01*
X34378Y-44855D01*
X34379Y-44857D01*
X34381Y-44859D01*
X34383Y-44860D01*
X34602Y-44860D01*
X34604Y-44858D01*
X34604Y-45895D01*
X34555Y-45895D01*
X34555Y-45095D01*
X34198Y-45095D01*
X34173Y-45056D01*
X34173Y-45056D01*
X34083Y-44966D01*
X34083Y-44966D01*
X34048Y-44932D01*
X33958Y-44895D01*
X33910Y-44894D01*
X33910Y-44894D01*
X33909Y-44894D01*
X33861Y-44894D01*
X33771Y-44932D01*
X33736Y-44966D01*
X33736Y-44966D01*
X33736Y-44966D01*
X33705Y-44998D01*
X33705Y-43405D01*
X34000Y-43405D01*
X41661Y-43405D01*
X41640Y-43425D01*
X41609Y-43501D01*
X41608Y-43582D01*
X41640Y-43657D01*
X41697Y-43715D01*
X41773Y-43746D01*
X41854Y-43747D01*
X41929Y-43715D01*
X41987Y-43658D01*
X42018Y-43582D01*
X42019Y-43501D01*
X41987Y-43426D01*
X41966Y-43405D01*
X42845Y-43405D01*
X42845Y-45345D01*
X42845Y-45345D01*
G37*
G54D47*
X42845Y-45345D02*
X42777Y-45345D01*
X42777Y-45107D01*
X42777Y-43924D01*
X42776Y-43921D01*
X42775Y-43920D01*
X42772Y-43919D01*
X42770Y-43919D01*
X41490Y-43919D01*
X41488Y-43920D01*
X41488Y-44420D01*
X42776Y-44420D01*
X42777Y-44419D01*
X42777Y-43924D01*
X42777Y-45107D01*
X42777Y-44612D01*
X42776Y-44610D01*
X41488Y-44610D01*
X41488Y-45110D01*
X41490Y-45112D01*
X42770Y-45112D01*
X42772Y-45112D01*
X42775Y-45111D01*
X42776Y-45109D01*
X42777Y-45107D01*
X42777Y-45345D01*
X42645Y-45345D01*
X42645Y-45299D01*
X42613Y-45223D01*
X42556Y-45166D01*
X42480Y-45134D01*
X42399Y-45134D01*
X42323Y-45166D01*
X42266Y-45223D01*
X42234Y-45299D01*
X42234Y-45345D01*
X41298Y-45345D01*
X41298Y-45110D01*
X41298Y-44610D01*
X41298Y-44420D01*
X41298Y-43920D01*
X41297Y-43919D01*
X40016Y-43919D01*
X40014Y-43919D01*
X40012Y-43920D01*
X40010Y-43921D01*
X40009Y-43924D01*
X40009Y-44419D01*
X40011Y-44420D01*
X41298Y-44420D01*
X41298Y-44610D01*
X40011Y-44610D01*
X40009Y-44612D01*
X40009Y-45107D01*
X40010Y-45109D01*
X40012Y-45111D01*
X40014Y-45112D01*
X40016Y-45112D01*
X41297Y-45112D01*
X41298Y-45110D01*
X41298Y-45345D01*
X40448Y-45345D01*
X40443Y-45333D01*
X40386Y-45276D01*
X40310Y-45244D01*
X40229Y-45244D01*
X40153Y-45276D01*
X40096Y-45333D01*
X40091Y-45345D01*
X39952Y-45345D01*
X39702Y-45095D01*
X39463Y-45095D01*
X39463Y-44011D01*
X39431Y-43936D01*
X39374Y-43878D01*
X39298Y-43847D01*
X39217Y-43846D01*
X39162Y-43869D01*
X39163Y-43827D01*
X39131Y-43752D01*
X39074Y-43694D01*
X38998Y-43663D01*
X38917Y-43662D01*
X38842Y-43694D01*
X38784Y-43751D01*
X38753Y-43827D01*
X38752Y-43908D01*
X38784Y-43983D01*
X38841Y-44041D01*
X38917Y-44072D01*
X38998Y-44073D01*
X39053Y-44050D01*
X39052Y-44092D01*
X39084Y-44167D01*
X39141Y-44225D01*
X39217Y-44256D01*
X39298Y-44257D01*
X39373Y-44225D01*
X39431Y-44168D01*
X39462Y-44092D01*
X39463Y-44011D01*
X39463Y-45095D01*
X38871Y-45095D01*
X38871Y-44852D01*
X38871Y-44147D01*
X38871Y-44144D01*
X38870Y-44142D01*
X38868Y-44140D01*
X38866Y-44139D01*
X38647Y-44140D01*
X38646Y-44141D01*
X38646Y-44405D01*
X38870Y-44405D01*
X38871Y-44403D01*
X38871Y-44147D01*
X38871Y-44852D01*
X38871Y-44596D01*
X38870Y-44595D01*
X38646Y-44595D01*
X38646Y-44858D01*
X38647Y-44860D01*
X38866Y-44860D01*
X38868Y-44859D01*
X38870Y-44857D01*
X38871Y-44855D01*
X38871Y-44852D01*
X38871Y-45095D01*
X38456Y-45095D01*
X38456Y-44858D01*
X38456Y-44595D01*
X38456Y-44405D01*
X38456Y-44141D01*
X38454Y-44140D01*
X38235Y-44139D01*
X38233Y-44140D01*
X38231Y-44142D01*
X38230Y-44144D01*
X38230Y-44147D01*
X38230Y-44403D01*
X38232Y-44405D01*
X38456Y-44405D01*
X38456Y-44595D01*
X38232Y-44595D01*
X38230Y-44596D01*
X38230Y-44852D01*
X38230Y-44855D01*
X38231Y-44857D01*
X38233Y-44859D01*
X38235Y-44860D01*
X38454Y-44860D01*
X38456Y-44858D01*
X38456Y-45095D01*
X38105Y-45095D01*
X38105Y-43945D01*
X36634Y-43945D01*
X36616Y-43926D01*
X36540Y-43895D01*
X36459Y-43894D01*
X36384Y-43926D01*
X36365Y-43945D01*
X35245Y-43945D01*
X35245Y-45895D01*
X35222Y-45895D01*
X35222Y-45863D01*
X35222Y-45468D01*
X35221Y-45466D01*
X35219Y-45464D01*
X35217Y-45463D01*
X35215Y-45463D01*
X35096Y-45463D01*
X35095Y-45465D01*
X35095Y-45571D01*
X35221Y-45571D01*
X35222Y-45569D01*
X35222Y-45468D01*
X35222Y-45863D01*
X35222Y-45762D01*
X35221Y-45761D01*
X35095Y-45761D01*
X35095Y-45867D01*
X35096Y-45868D01*
X35215Y-45868D01*
X35217Y-45868D01*
X35219Y-45867D01*
X35221Y-45865D01*
X35222Y-45863D01*
X35222Y-45895D01*
X35019Y-45895D01*
X35019Y-44852D01*
X35019Y-44147D01*
X35019Y-44144D01*
X35018Y-44142D01*
X35016Y-44140D01*
X35014Y-44139D01*
X34795Y-44140D01*
X34794Y-44141D01*
X34794Y-44405D01*
X35018Y-44405D01*
X35019Y-44403D01*
X35019Y-44147D01*
X35019Y-44852D01*
X35019Y-44596D01*
X35018Y-44595D01*
X34794Y-44595D01*
X34794Y-44858D01*
X34795Y-44860D01*
X35014Y-44860D01*
X35016Y-44859D01*
X35018Y-44857D01*
X35019Y-44855D01*
X35019Y-44852D01*
X35019Y-45895D01*
X34905Y-45895D01*
X34905Y-45867D01*
X34905Y-45761D01*
X34905Y-45571D01*
X34905Y-45465D01*
X34903Y-45463D01*
X34784Y-45463D01*
X34782Y-45463D01*
X34780Y-45464D01*
X34778Y-45466D01*
X34777Y-45468D01*
X34777Y-45569D01*
X34779Y-45571D01*
X34905Y-45571D01*
X34905Y-45761D01*
X34779Y-45761D01*
X34777Y-45762D01*
X34777Y-45863D01*
X34778Y-45865D01*
X34780Y-45867D01*
X34782Y-45868D01*
X34784Y-45868D01*
X34903Y-45868D01*
X34905Y-45867D01*
X34905Y-45895D01*
X34604Y-45895D01*
X34604Y-44858D01*
X34604Y-44595D01*
X34604Y-44405D01*
X34604Y-44141D01*
X34602Y-44140D01*
X34383Y-44139D01*
X34381Y-44140D01*
X34379Y-44142D01*
X34378Y-44144D01*
X34378Y-44147D01*
X34378Y-44403D01*
X34380Y-44405D01*
X34604Y-44405D01*
X34604Y-44595D01*
X34380Y-44595D01*
X34378Y-44596D01*
X34378Y-44852D01*
X34378Y-44855D01*
X34379Y-44857D01*
X34381Y-44859D01*
X34383Y-44860D01*
X34602Y-44860D01*
X34604Y-44858D01*
X34604Y-45895D01*
X34555Y-45895D01*
X34555Y-45095D01*
X34198Y-45095D01*
X34173Y-45056D01*
X34173Y-45056D01*
X34083Y-44966D01*
X34083Y-44966D01*
X34048Y-44932D01*
X33958Y-44895D01*
X33910Y-44894D01*
X33910Y-44894D01*
X33909Y-44894D01*
X33861Y-44894D01*
X33771Y-44932D01*
X33736Y-44966D01*
X33736Y-44966D01*
X33736Y-44966D01*
X33705Y-44998D01*
X33705Y-43405D01*
X34000Y-43405D01*
X41661Y-43405D01*
X41640Y-43425D01*
X41609Y-43501D01*
X41608Y-43582D01*
X41640Y-43657D01*
X41697Y-43715D01*
X41773Y-43746D01*
X41854Y-43747D01*
X41929Y-43715D01*
X41987Y-43658D01*
X42018Y-43582D01*
X42019Y-43501D01*
X41987Y-43426D01*
X41966Y-43405D01*
X42845Y-43405D01*
X42845Y-45345D01*
G54D10*
G36*
X44495Y-52195D02*
X44468Y-52195D01*
X44468Y-50049D01*
X44468Y-48950D01*
X44467Y-48947D01*
X44467Y-48945D01*
X44465Y-48943D01*
X44463Y-48942D01*
X44086Y-48943D01*
X44085Y-48944D01*
X44085Y-49405D01*
X44466Y-49405D01*
X44468Y-49403D01*
X44468Y-48950D01*
X44468Y-50049D01*
X44468Y-49596D01*
X44466Y-49595D01*
X44085Y-49595D01*
X44085Y-50055D01*
X44086Y-50057D01*
X44463Y-50057D01*
X44465Y-50056D01*
X44467Y-50054D01*
X44467Y-50052D01*
X44468Y-50049D01*
X44468Y-52195D01*
X43895Y-52195D01*
X43895Y-50055D01*
X43895Y-49595D01*
X43895Y-49405D01*
X43895Y-48944D01*
X43893Y-48943D01*
X43516Y-48942D01*
X43514Y-48943D01*
X43512Y-48945D01*
X43512Y-48947D01*
X43511Y-48950D01*
X43512Y-49403D01*
X43513Y-49405D01*
X43895Y-49405D01*
X43895Y-49595D01*
X43513Y-49595D01*
X43512Y-49596D01*
X43511Y-50049D01*
X43512Y-50052D01*
X43512Y-50054D01*
X43514Y-50056D01*
X43516Y-50057D01*
X43893Y-50057D01*
X43895Y-50055D01*
X43895Y-52195D01*
X43411Y-52195D01*
X43435Y-52184D01*
X43509Y-52111D01*
X43549Y-52014D01*
X43549Y-51910D01*
X43509Y-51814D01*
X43436Y-51740D01*
X43339Y-51700D01*
X43235Y-51700D01*
X43139Y-51740D01*
X43106Y-51773D01*
X43106Y-51297D01*
X43105Y-51295D01*
X43105Y-51292D01*
X43103Y-51291D01*
X43101Y-51290D01*
X43061Y-51290D01*
X43060Y-51291D01*
X43060Y-51595D01*
X43104Y-51595D01*
X43106Y-51593D01*
X43106Y-51297D01*
X43106Y-51773D01*
X43094Y-51785D01*
X43060Y-51785D01*
X43060Y-51826D01*
X43025Y-51910D01*
X43025Y-52014D01*
X43065Y-52110D01*
X43138Y-52184D01*
X43163Y-52195D01*
X42980Y-52195D01*
X42980Y-52088D01*
X42980Y-51785D01*
X42980Y-51595D01*
X42980Y-51291D01*
X42978Y-51290D01*
X42938Y-51290D01*
X42936Y-51291D01*
X42934Y-51292D01*
X42934Y-51295D01*
X42933Y-51297D01*
X42934Y-51593D01*
X42935Y-51595D01*
X42980Y-51595D01*
X42980Y-51785D01*
X42935Y-51785D01*
X42934Y-51786D01*
X42933Y-52082D01*
X42934Y-52084D01*
X42934Y-52087D01*
X42936Y-52088D01*
X42938Y-52089D01*
X42978Y-52089D01*
X42980Y-52088D01*
X42980Y-52195D01*
X42905Y-52195D01*
X42905Y-52138D01*
X42912Y-52131D01*
X42924Y-52100D01*
X42925Y-52066D01*
X42925Y-51279D01*
X42912Y-51248D01*
X42905Y-51241D01*
X42905Y-48805D01*
X44495Y-48805D01*
X44495Y-52195D01*
X44495Y-52195D01*
G37*
G54D47*
X44495Y-52195D02*
X44468Y-52195D01*
X44468Y-50049D01*
X44468Y-48950D01*
X44467Y-48947D01*
X44467Y-48945D01*
X44465Y-48943D01*
X44463Y-48942D01*
X44086Y-48943D01*
X44085Y-48944D01*
X44085Y-49405D01*
X44466Y-49405D01*
X44468Y-49403D01*
X44468Y-48950D01*
X44468Y-50049D01*
X44468Y-49596D01*
X44466Y-49595D01*
X44085Y-49595D01*
X44085Y-50055D01*
X44086Y-50057D01*
X44463Y-50057D01*
X44465Y-50056D01*
X44467Y-50054D01*
X44467Y-50052D01*
X44468Y-50049D01*
X44468Y-52195D01*
X43895Y-52195D01*
X43895Y-50055D01*
X43895Y-49595D01*
X43895Y-49405D01*
X43895Y-48944D01*
X43893Y-48943D01*
X43516Y-48942D01*
X43514Y-48943D01*
X43512Y-48945D01*
X43512Y-48947D01*
X43511Y-48950D01*
X43512Y-49403D01*
X43513Y-49405D01*
X43895Y-49405D01*
X43895Y-49595D01*
X43513Y-49595D01*
X43512Y-49596D01*
X43511Y-50049D01*
X43512Y-50052D01*
X43512Y-50054D01*
X43514Y-50056D01*
X43516Y-50057D01*
X43893Y-50057D01*
X43895Y-50055D01*
X43895Y-52195D01*
X43411Y-52195D01*
X43435Y-52184D01*
X43509Y-52111D01*
X43549Y-52014D01*
X43549Y-51910D01*
X43509Y-51814D01*
X43436Y-51740D01*
X43339Y-51700D01*
X43235Y-51700D01*
X43139Y-51740D01*
X43106Y-51773D01*
X43106Y-51297D01*
X43105Y-51295D01*
X43105Y-51292D01*
X43103Y-51291D01*
X43101Y-51290D01*
X43061Y-51290D01*
X43060Y-51291D01*
X43060Y-51595D01*
X43104Y-51595D01*
X43106Y-51593D01*
X43106Y-51297D01*
X43106Y-51773D01*
X43094Y-51785D01*
X43060Y-51785D01*
X43060Y-51826D01*
X43025Y-51910D01*
X43025Y-52014D01*
X43065Y-52110D01*
X43138Y-52184D01*
X43163Y-52195D01*
X42980Y-52195D01*
X42980Y-52088D01*
X42980Y-51785D01*
X42980Y-51595D01*
X42980Y-51291D01*
X42978Y-51290D01*
X42938Y-51290D01*
X42936Y-51291D01*
X42934Y-51292D01*
X42934Y-51295D01*
X42933Y-51297D01*
X42934Y-51593D01*
X42935Y-51595D01*
X42980Y-51595D01*
X42980Y-51785D01*
X42935Y-51785D01*
X42934Y-51786D01*
X42933Y-52082D01*
X42934Y-52084D01*
X42934Y-52087D01*
X42936Y-52088D01*
X42938Y-52089D01*
X42978Y-52089D01*
X42980Y-52088D01*
X42980Y-52195D01*
X42905Y-52195D01*
X42905Y-52138D01*
X42912Y-52131D01*
X42924Y-52100D01*
X42925Y-52066D01*
X42925Y-51279D01*
X42912Y-51248D01*
X42905Y-51241D01*
X42905Y-48805D01*
X44495Y-48805D01*
X44495Y-52195D01*
G54D10*
G36*
X38745Y-47395D02*
X38720Y-47395D01*
X38720Y-47369D01*
X38720Y-47130D01*
X38720Y-47128D01*
X38718Y-47126D01*
X38716Y-47125D01*
X38713Y-47125D01*
X38496Y-47125D01*
X38495Y-47127D01*
X38495Y-47190D01*
X38719Y-47190D01*
X38720Y-47189D01*
X38720Y-47130D01*
X38720Y-47369D01*
X38720Y-47310D01*
X38719Y-47309D01*
X38495Y-47309D01*
X38495Y-47372D01*
X38496Y-47374D01*
X38713Y-47374D01*
X38716Y-47374D01*
X38718Y-47373D01*
X38720Y-47371D01*
X38720Y-47369D01*
X38720Y-47395D01*
X38305Y-47395D01*
X38305Y-47372D01*
X38305Y-47309D01*
X38305Y-47190D01*
X38305Y-47127D01*
X38303Y-47125D01*
X38086Y-47125D01*
X38083Y-47125D01*
X38081Y-47126D01*
X38079Y-47128D01*
X38079Y-47130D01*
X38079Y-47189D01*
X38080Y-47190D01*
X38305Y-47190D01*
X38305Y-47309D01*
X38080Y-47309D01*
X38079Y-47310D01*
X38079Y-47369D01*
X38079Y-47371D01*
X38081Y-47373D01*
X38083Y-47374D01*
X38086Y-47374D01*
X38303Y-47374D01*
X38305Y-47372D01*
X38305Y-47395D01*
X37750Y-47395D01*
X37708Y-47395D01*
X37708Y-47349D01*
X37707Y-47346D01*
X37706Y-47345D01*
X37703Y-47344D01*
X37701Y-47344D01*
X37631Y-47344D01*
X37631Y-46083D01*
X37631Y-45416D01*
X37631Y-45414D01*
X37631Y-45411D01*
X37629Y-45410D01*
X37627Y-45409D01*
X37387Y-45409D01*
X37386Y-45410D01*
X37386Y-45655D01*
X37630Y-45655D01*
X37631Y-45653D01*
X37631Y-45416D01*
X37631Y-46083D01*
X37631Y-45846D01*
X37630Y-45845D01*
X37386Y-45845D01*
X37386Y-46089D01*
X37387Y-46090D01*
X37627Y-46090D01*
X37629Y-46089D01*
X37631Y-46088D01*
X37631Y-46085D01*
X37631Y-46083D01*
X37631Y-47344D01*
X37354Y-47344D01*
X37354Y-44858D01*
X37354Y-44595D01*
X37354Y-44405D01*
X37354Y-44141D01*
X37352Y-44140D01*
X37133Y-44139D01*
X37131Y-44140D01*
X37129Y-44142D01*
X37128Y-44144D01*
X37128Y-44147D01*
X37128Y-44403D01*
X37130Y-44405D01*
X37354Y-44405D01*
X37354Y-44595D01*
X37130Y-44595D01*
X37128Y-44596D01*
X37128Y-44852D01*
X37128Y-44855D01*
X37129Y-44857D01*
X37131Y-44859D01*
X37133Y-44860D01*
X37352Y-44860D01*
X37354Y-44858D01*
X37354Y-47344D01*
X37346Y-47344D01*
X37345Y-47345D01*
X37345Y-47905D01*
X37352Y-47905D01*
X37352Y-48095D01*
X37345Y-48095D01*
X37345Y-48102D01*
X37196Y-48102D01*
X37196Y-46089D01*
X37196Y-45845D01*
X37196Y-45655D01*
X37196Y-45410D01*
X37194Y-45409D01*
X36955Y-45409D01*
X36953Y-45410D01*
X36951Y-45411D01*
X36950Y-45414D01*
X36950Y-45416D01*
X36950Y-45653D01*
X36952Y-45655D01*
X37196Y-45655D01*
X37196Y-45845D01*
X36952Y-45845D01*
X36950Y-45846D01*
X36950Y-46083D01*
X36950Y-46085D01*
X36951Y-46088D01*
X36953Y-46089D01*
X36955Y-46090D01*
X37194Y-46090D01*
X37196Y-46089D01*
X37196Y-48102D01*
X37155Y-48102D01*
X37155Y-48095D01*
X37155Y-47905D01*
X37155Y-47345D01*
X37153Y-47344D01*
X36798Y-47344D01*
X36796Y-47344D01*
X36793Y-47345D01*
X36792Y-47346D01*
X36791Y-47349D01*
X36791Y-47903D01*
X36792Y-47905D01*
X37155Y-47905D01*
X37155Y-48095D01*
X36792Y-48095D01*
X36791Y-48096D01*
X36791Y-48645D01*
X36705Y-48645D01*
X36705Y-46815D01*
X36726Y-46866D01*
X36783Y-46923D01*
X36859Y-46955D01*
X36940Y-46955D01*
X37016Y-46923D01*
X37073Y-46866D01*
X37105Y-46790D01*
X37105Y-46709D01*
X37073Y-46633D01*
X37016Y-46576D01*
X36952Y-46549D01*
X37015Y-46523D01*
X37073Y-46466D01*
X37104Y-46390D01*
X37105Y-46309D01*
X37073Y-46234D01*
X37016Y-46176D01*
X36940Y-46145D01*
X36859Y-46144D01*
X36784Y-46176D01*
X36726Y-46233D01*
X36705Y-46285D01*
X36705Y-45945D01*
X36222Y-45945D01*
X36222Y-45863D01*
X36222Y-45468D01*
X36221Y-45466D01*
X36219Y-45464D01*
X36217Y-45463D01*
X36215Y-45463D01*
X36121Y-45463D01*
X36121Y-44852D01*
X36121Y-44147D01*
X36121Y-44144D01*
X36120Y-44142D01*
X36118Y-44140D01*
X36116Y-44139D01*
X35897Y-44140D01*
X35896Y-44141D01*
X35896Y-44405D01*
X36120Y-44405D01*
X36121Y-44403D01*
X36121Y-44147D01*
X36121Y-44852D01*
X36121Y-44596D01*
X36120Y-44595D01*
X35896Y-44595D01*
X35896Y-44858D01*
X35897Y-44860D01*
X36116Y-44860D01*
X36118Y-44859D01*
X36120Y-44857D01*
X36121Y-44855D01*
X36121Y-44852D01*
X36121Y-45463D01*
X36096Y-45463D01*
X36095Y-45465D01*
X36095Y-45571D01*
X36221Y-45571D01*
X36222Y-45569D01*
X36222Y-45468D01*
X36222Y-45863D01*
X36222Y-45762D01*
X36221Y-45761D01*
X36095Y-45761D01*
X36095Y-45867D01*
X36096Y-45868D01*
X36215Y-45868D01*
X36217Y-45868D01*
X36219Y-45867D01*
X36221Y-45865D01*
X36222Y-45863D01*
X36222Y-45945D01*
X35905Y-45945D01*
X35905Y-45867D01*
X35905Y-45761D01*
X35905Y-45571D01*
X35905Y-45465D01*
X35903Y-45463D01*
X35784Y-45463D01*
X35782Y-45463D01*
X35780Y-45464D01*
X35778Y-45466D01*
X35777Y-45468D01*
X35777Y-45569D01*
X35779Y-45571D01*
X35905Y-45571D01*
X35905Y-45761D01*
X35779Y-45761D01*
X35777Y-45762D01*
X35777Y-45863D01*
X35778Y-45865D01*
X35780Y-45867D01*
X35782Y-45868D01*
X35784Y-45868D01*
X35903Y-45868D01*
X35905Y-45867D01*
X35905Y-45945D01*
X35706Y-45945D01*
X35706Y-44858D01*
X35706Y-44595D01*
X35706Y-44405D01*
X35706Y-44141D01*
X35704Y-44140D01*
X35485Y-44139D01*
X35483Y-44140D01*
X35481Y-44142D01*
X35480Y-44144D01*
X35480Y-44147D01*
X35480Y-44403D01*
X35482Y-44405D01*
X35706Y-44405D01*
X35706Y-44595D01*
X35482Y-44595D01*
X35480Y-44596D01*
X35480Y-44852D01*
X35480Y-44855D01*
X35481Y-44857D01*
X35483Y-44859D01*
X35485Y-44860D01*
X35704Y-44860D01*
X35706Y-44858D01*
X35706Y-45945D01*
X35455Y-45945D01*
X35455Y-45753D01*
X35459Y-45755D01*
X35540Y-45755D01*
X35616Y-45723D01*
X35673Y-45666D01*
X35705Y-45590D01*
X35705Y-45509D01*
X35673Y-45433D01*
X35616Y-45376D01*
X35540Y-45344D01*
X35459Y-45344D01*
X35455Y-45346D01*
X35455Y-44150D01*
X35455Y-44105D01*
X36294Y-44105D01*
X36294Y-44140D01*
X36326Y-44215D01*
X36383Y-44273D01*
X36459Y-44304D01*
X36540Y-44305D01*
X36615Y-44273D01*
X36673Y-44216D01*
X36704Y-44140D01*
X36704Y-44105D01*
X37895Y-44105D01*
X37895Y-45785D01*
X37853Y-45784D01*
X37778Y-45816D01*
X37769Y-45824D01*
X37769Y-44852D01*
X37769Y-44147D01*
X37769Y-44144D01*
X37768Y-44142D01*
X37766Y-44140D01*
X37764Y-44139D01*
X37545Y-44140D01*
X37544Y-44141D01*
X37544Y-44405D01*
X37768Y-44405D01*
X37769Y-44403D01*
X37769Y-44147D01*
X37769Y-44852D01*
X37769Y-44596D01*
X37768Y-44595D01*
X37544Y-44595D01*
X37544Y-44858D01*
X37545Y-44860D01*
X37764Y-44860D01*
X37766Y-44859D01*
X37768Y-44857D01*
X37769Y-44855D01*
X37769Y-44852D01*
X37769Y-45824D01*
X37720Y-45873D01*
X37689Y-45949D01*
X37688Y-46030D01*
X37720Y-46105D01*
X37777Y-46163D01*
X37818Y-46180D01*
X37756Y-46206D01*
X37698Y-46263D01*
X37667Y-46339D01*
X37666Y-46420D01*
X37698Y-46495D01*
X37755Y-46553D01*
X37831Y-46584D01*
X37895Y-46585D01*
X37895Y-46905D01*
X38745Y-46905D01*
X38745Y-47395D01*
X38745Y-47395D01*
G37*
G54D47*
X38745Y-47395D02*
X38720Y-47395D01*
X38720Y-47369D01*
X38720Y-47130D01*
X38720Y-47128D01*
X38718Y-47126D01*
X38716Y-47125D01*
X38713Y-47125D01*
X38496Y-47125D01*
X38495Y-47127D01*
X38495Y-47190D01*
X38719Y-47190D01*
X38720Y-47189D01*
X38720Y-47130D01*
X38720Y-47369D01*
X38720Y-47310D01*
X38719Y-47309D01*
X38495Y-47309D01*
X38495Y-47372D01*
X38496Y-47374D01*
X38713Y-47374D01*
X38716Y-47374D01*
X38718Y-47373D01*
X38720Y-47371D01*
X38720Y-47369D01*
X38720Y-47395D01*
X38305Y-47395D01*
X38305Y-47372D01*
X38305Y-47309D01*
X38305Y-47190D01*
X38305Y-47127D01*
X38303Y-47125D01*
X38086Y-47125D01*
X38083Y-47125D01*
X38081Y-47126D01*
X38079Y-47128D01*
X38079Y-47130D01*
X38079Y-47189D01*
X38080Y-47190D01*
X38305Y-47190D01*
X38305Y-47309D01*
X38080Y-47309D01*
X38079Y-47310D01*
X38079Y-47369D01*
X38079Y-47371D01*
X38081Y-47373D01*
X38083Y-47374D01*
X38086Y-47374D01*
X38303Y-47374D01*
X38305Y-47372D01*
X38305Y-47395D01*
X37750Y-47395D01*
X37708Y-47395D01*
X37708Y-47349D01*
X37707Y-47346D01*
X37706Y-47345D01*
X37703Y-47344D01*
X37701Y-47344D01*
X37631Y-47344D01*
X37631Y-46083D01*
X37631Y-45416D01*
X37631Y-45414D01*
X37631Y-45411D01*
X37629Y-45410D01*
X37627Y-45409D01*
X37387Y-45409D01*
X37386Y-45410D01*
X37386Y-45655D01*
X37630Y-45655D01*
X37631Y-45653D01*
X37631Y-45416D01*
X37631Y-46083D01*
X37631Y-45846D01*
X37630Y-45845D01*
X37386Y-45845D01*
X37386Y-46089D01*
X37387Y-46090D01*
X37627Y-46090D01*
X37629Y-46089D01*
X37631Y-46088D01*
X37631Y-46085D01*
X37631Y-46083D01*
X37631Y-47344D01*
X37354Y-47344D01*
X37354Y-44858D01*
X37354Y-44595D01*
X37354Y-44405D01*
X37354Y-44141D01*
X37352Y-44140D01*
X37133Y-44139D01*
X37131Y-44140D01*
X37129Y-44142D01*
X37128Y-44144D01*
X37128Y-44147D01*
X37128Y-44403D01*
X37130Y-44405D01*
X37354Y-44405D01*
X37354Y-44595D01*
X37130Y-44595D01*
X37128Y-44596D01*
X37128Y-44852D01*
X37128Y-44855D01*
X37129Y-44857D01*
X37131Y-44859D01*
X37133Y-44860D01*
X37352Y-44860D01*
X37354Y-44858D01*
X37354Y-47344D01*
X37346Y-47344D01*
X37345Y-47345D01*
X37345Y-47905D01*
X37352Y-47905D01*
X37352Y-48095D01*
X37345Y-48095D01*
X37345Y-48102D01*
X37196Y-48102D01*
X37196Y-46089D01*
X37196Y-45845D01*
X37196Y-45655D01*
X37196Y-45410D01*
X37194Y-45409D01*
X36955Y-45409D01*
X36953Y-45410D01*
X36951Y-45411D01*
X36950Y-45414D01*
X36950Y-45416D01*
X36950Y-45653D01*
X36952Y-45655D01*
X37196Y-45655D01*
X37196Y-45845D01*
X36952Y-45845D01*
X36950Y-45846D01*
X36950Y-46083D01*
X36950Y-46085D01*
X36951Y-46088D01*
X36953Y-46089D01*
X36955Y-46090D01*
X37194Y-46090D01*
X37196Y-46089D01*
X37196Y-48102D01*
X37155Y-48102D01*
X37155Y-48095D01*
X37155Y-47905D01*
X37155Y-47345D01*
X37153Y-47344D01*
X36798Y-47344D01*
X36796Y-47344D01*
X36793Y-47345D01*
X36792Y-47346D01*
X36791Y-47349D01*
X36791Y-47903D01*
X36792Y-47905D01*
X37155Y-47905D01*
X37155Y-48095D01*
X36792Y-48095D01*
X36791Y-48096D01*
X36791Y-48645D01*
X36705Y-48645D01*
X36705Y-46815D01*
X36726Y-46866D01*
X36783Y-46923D01*
X36859Y-46955D01*
X36940Y-46955D01*
X37016Y-46923D01*
X37073Y-46866D01*
X37105Y-46790D01*
X37105Y-46709D01*
X37073Y-46633D01*
X37016Y-46576D01*
X36952Y-46549D01*
X37015Y-46523D01*
X37073Y-46466D01*
X37104Y-46390D01*
X37105Y-46309D01*
X37073Y-46234D01*
X37016Y-46176D01*
X36940Y-46145D01*
X36859Y-46144D01*
X36784Y-46176D01*
X36726Y-46233D01*
X36705Y-46285D01*
X36705Y-45945D01*
X36222Y-45945D01*
X36222Y-45863D01*
X36222Y-45468D01*
X36221Y-45466D01*
X36219Y-45464D01*
X36217Y-45463D01*
X36215Y-45463D01*
X36121Y-45463D01*
X36121Y-44852D01*
X36121Y-44147D01*
X36121Y-44144D01*
X36120Y-44142D01*
X36118Y-44140D01*
X36116Y-44139D01*
X35897Y-44140D01*
X35896Y-44141D01*
X35896Y-44405D01*
X36120Y-44405D01*
X36121Y-44403D01*
X36121Y-44147D01*
X36121Y-44852D01*
X36121Y-44596D01*
X36120Y-44595D01*
X35896Y-44595D01*
X35896Y-44858D01*
X35897Y-44860D01*
X36116Y-44860D01*
X36118Y-44859D01*
X36120Y-44857D01*
X36121Y-44855D01*
X36121Y-44852D01*
X36121Y-45463D01*
X36096Y-45463D01*
X36095Y-45465D01*
X36095Y-45571D01*
X36221Y-45571D01*
X36222Y-45569D01*
X36222Y-45468D01*
X36222Y-45863D01*
X36222Y-45762D01*
X36221Y-45761D01*
X36095Y-45761D01*
X36095Y-45867D01*
X36096Y-45868D01*
X36215Y-45868D01*
X36217Y-45868D01*
X36219Y-45867D01*
X36221Y-45865D01*
X36222Y-45863D01*
X36222Y-45945D01*
X35905Y-45945D01*
X35905Y-45867D01*
X35905Y-45761D01*
X35905Y-45571D01*
X35905Y-45465D01*
X35903Y-45463D01*
X35784Y-45463D01*
X35782Y-45463D01*
X35780Y-45464D01*
X35778Y-45466D01*
X35777Y-45468D01*
X35777Y-45569D01*
X35779Y-45571D01*
X35905Y-45571D01*
X35905Y-45761D01*
X35779Y-45761D01*
X35777Y-45762D01*
X35777Y-45863D01*
X35778Y-45865D01*
X35780Y-45867D01*
X35782Y-45868D01*
X35784Y-45868D01*
X35903Y-45868D01*
X35905Y-45867D01*
X35905Y-45945D01*
X35706Y-45945D01*
X35706Y-44858D01*
X35706Y-44595D01*
X35706Y-44405D01*
X35706Y-44141D01*
X35704Y-44140D01*
X35485Y-44139D01*
X35483Y-44140D01*
X35481Y-44142D01*
X35480Y-44144D01*
X35480Y-44147D01*
X35480Y-44403D01*
X35482Y-44405D01*
X35706Y-44405D01*
X35706Y-44595D01*
X35482Y-44595D01*
X35480Y-44596D01*
X35480Y-44852D01*
X35480Y-44855D01*
X35481Y-44857D01*
X35483Y-44859D01*
X35485Y-44860D01*
X35704Y-44860D01*
X35706Y-44858D01*
X35706Y-45945D01*
X35455Y-45945D01*
X35455Y-45753D01*
X35459Y-45755D01*
X35540Y-45755D01*
X35616Y-45723D01*
X35673Y-45666D01*
X35705Y-45590D01*
X35705Y-45509D01*
X35673Y-45433D01*
X35616Y-45376D01*
X35540Y-45344D01*
X35459Y-45344D01*
X35455Y-45346D01*
X35455Y-44150D01*
X35455Y-44105D01*
X36294Y-44105D01*
X36294Y-44140D01*
X36326Y-44215D01*
X36383Y-44273D01*
X36459Y-44304D01*
X36540Y-44305D01*
X36615Y-44273D01*
X36673Y-44216D01*
X36704Y-44140D01*
X36704Y-44105D01*
X37895Y-44105D01*
X37895Y-45785D01*
X37853Y-45784D01*
X37778Y-45816D01*
X37769Y-45824D01*
X37769Y-44852D01*
X37769Y-44147D01*
X37769Y-44144D01*
X37768Y-44142D01*
X37766Y-44140D01*
X37764Y-44139D01*
X37545Y-44140D01*
X37544Y-44141D01*
X37544Y-44405D01*
X37768Y-44405D01*
X37769Y-44403D01*
X37769Y-44147D01*
X37769Y-44852D01*
X37769Y-44596D01*
X37768Y-44595D01*
X37544Y-44595D01*
X37544Y-44858D01*
X37545Y-44860D01*
X37764Y-44860D01*
X37766Y-44859D01*
X37768Y-44857D01*
X37769Y-44855D01*
X37769Y-44852D01*
X37769Y-45824D01*
X37720Y-45873D01*
X37689Y-45949D01*
X37688Y-46030D01*
X37720Y-46105D01*
X37777Y-46163D01*
X37818Y-46180D01*
X37756Y-46206D01*
X37698Y-46263D01*
X37667Y-46339D01*
X37666Y-46420D01*
X37698Y-46495D01*
X37755Y-46553D01*
X37831Y-46584D01*
X37895Y-46585D01*
X37895Y-46905D01*
X38745Y-46905D01*
X38745Y-47395D01*
M02*
