G04 (created by PCBNEW (2013-07-07 BZR 4022)-stable) date 2015/3/10 10:19:11*
%MOIN*%
G04 Gerber Fmt 3.4, Leading zero omitted, Abs format*
%FSLAX34Y34*%
G01*
G70*
G90*
G04 APERTURE LIST*
%ADD10C,0.00590551*%
%ADD11R,0.081X0.081*%
%ADD12C,0.126*%
%ADD13C,0.0393701*%
%ADD14C,0.074*%
%ADD15C,0.0590551*%
%ADD16O,0.0669291X0.125984*%
%ADD17C,0.0240157*%
%ADD18C,0.024*%
%ADD19C,0.032*%
%ADD20C,0.016*%
%ADD21C,0.032*%
%ADD22C,0.01*%
%ADD23C,0.006*%
%ADD24C,0.012*%
%ADD25C,0.001*%
G04 APERTURE END LIST*
G54D10*
G54D11*
X37818Y-52150D03*
X40181Y-52150D03*
G54D12*
X49606Y-51574D03*
X49606Y-31889D03*
G54D13*
X34346Y-33260D03*
X34346Y-33760D03*
X34346Y-34260D03*
X34346Y-34760D03*
X34346Y-35260D03*
X34346Y-35760D03*
X34346Y-36260D03*
X34346Y-36760D03*
X34346Y-37260D03*
X34346Y-37760D03*
X34346Y-38260D03*
X34346Y-38760D03*
X34346Y-39260D03*
X34346Y-39760D03*
X43372Y-42640D03*
X42872Y-42640D03*
X42372Y-42640D03*
X41872Y-42640D03*
X41372Y-42640D03*
X40872Y-42640D03*
X40372Y-42640D03*
X39872Y-42640D03*
X39372Y-42640D03*
X38872Y-42640D03*
X38372Y-42640D03*
X37872Y-42640D03*
X37372Y-42640D03*
X36872Y-42640D03*
G54D12*
X32283Y-31889D03*
X32283Y-51574D03*
G54D14*
X37000Y-31250D03*
X38000Y-31250D03*
X39000Y-31250D03*
X40000Y-31250D03*
X41000Y-31250D03*
X42000Y-31250D03*
X43000Y-31250D03*
X44000Y-31250D03*
X45000Y-31250D03*
X46000Y-31250D03*
X47000Y-31250D03*
X48000Y-31250D03*
G54D15*
X44291Y-48661D03*
X45078Y-48661D03*
X44291Y-47637D03*
X45078Y-47637D03*
X43307Y-47637D03*
X43307Y-48661D03*
X46062Y-47637D03*
X46062Y-48661D03*
G54D16*
X42165Y-47992D03*
X47204Y-47992D03*
G54D14*
X49300Y-41200D03*
X50300Y-41200D03*
X49300Y-42200D03*
X50300Y-42200D03*
X49300Y-43200D03*
X50300Y-43200D03*
X49300Y-44200D03*
X50300Y-44200D03*
X49300Y-45200D03*
X50300Y-45200D03*
X49300Y-46200D03*
X50300Y-46200D03*
X49300Y-47200D03*
X50300Y-47200D03*
X49300Y-48200D03*
X50300Y-48200D03*
X31600Y-35200D03*
X32600Y-35200D03*
X31600Y-36200D03*
X32600Y-36200D03*
X31600Y-37200D03*
X32600Y-37200D03*
X31600Y-38200D03*
X32600Y-38200D03*
X31600Y-39200D03*
X32600Y-39200D03*
X31600Y-40200D03*
X32600Y-40200D03*
X31600Y-41200D03*
X32600Y-41200D03*
X32600Y-48200D03*
X31600Y-48200D03*
X32600Y-47200D03*
X31600Y-47200D03*
X32600Y-46200D03*
X31600Y-46200D03*
X32600Y-45200D03*
X31600Y-45200D03*
X32600Y-44200D03*
X31600Y-44200D03*
X32600Y-43200D03*
X31600Y-43200D03*
X32600Y-42200D03*
X31600Y-42200D03*
X49300Y-35200D03*
X50300Y-35200D03*
X49300Y-36200D03*
X50300Y-36200D03*
X49300Y-37200D03*
X50300Y-37200D03*
X49300Y-38200D03*
X50300Y-38200D03*
X49300Y-39200D03*
X50300Y-39200D03*
X49300Y-40200D03*
X50300Y-40200D03*
X34000Y-31250D03*
X35000Y-31250D03*
X36000Y-31250D03*
G54D13*
X43725Y-33290D03*
X43725Y-33790D03*
X43725Y-34290D03*
X43725Y-34790D03*
X43725Y-35290D03*
X43725Y-35790D03*
X43725Y-36290D03*
X43725Y-36790D03*
X43725Y-37290D03*
X43725Y-37790D03*
X43725Y-38290D03*
X43725Y-38790D03*
X43725Y-39290D03*
X43725Y-39790D03*
X43725Y-40290D03*
X43725Y-40790D03*
X43725Y-41290D03*
X43725Y-41790D03*
G54D17*
X35325Y-43025D03*
G54D18*
X46300Y-34325D03*
X39525Y-32450D03*
X35725Y-50000D03*
X48200Y-47700D03*
X46675Y-41950D03*
X47100Y-39550D03*
G54D17*
X35100Y-45016D03*
X38790Y-35875D03*
X36850Y-36150D03*
X45375Y-38525D03*
X38050Y-41400D03*
X43150Y-37250D03*
X41300Y-37825D03*
X39800Y-36500D03*
G54D18*
X39050Y-38750D03*
G54D17*
X40475Y-50175D03*
X36375Y-32575D03*
X34950Y-42700D03*
G54D18*
X41100Y-32925D03*
G54D17*
X36350Y-45350D03*
X36350Y-43700D03*
X40732Y-45130D03*
X39666Y-49000D03*
X47000Y-37100D03*
X36600Y-40000D03*
X39275Y-40975D03*
X35725Y-43025D03*
X36100Y-43100D03*
X37475Y-45675D03*
X37500Y-45250D03*
X37850Y-45275D03*
X37850Y-45650D03*
X37650Y-43050D03*
X42600Y-46600D03*
X36725Y-46075D03*
X37575Y-44225D03*
X36375Y-48700D03*
X36175Y-49850D03*
X37050Y-48650D03*
X37425Y-48575D03*
X35467Y-46056D03*
X34700Y-45325D03*
X34700Y-46025D03*
X38250Y-46000D03*
X38425Y-48700D03*
X35467Y-47629D03*
X44975Y-38450D03*
X36950Y-43100D03*
X40350Y-48575D03*
X39125Y-45875D03*
X48325Y-46325D03*
X39200Y-46600D03*
X48350Y-45875D03*
X39175Y-46225D03*
X41100Y-49150D03*
X38875Y-46575D03*
X39175Y-47200D03*
G54D19*
X35350Y-35275D03*
G54D17*
X44225Y-42875D03*
X45825Y-42950D03*
X45350Y-42300D03*
X44925Y-36550D03*
G54D18*
X32325Y-49700D03*
X32100Y-40550D03*
G54D17*
X47700Y-45225D03*
X48075Y-45300D03*
X41975Y-35100D03*
X46450Y-41525D03*
X41550Y-35100D03*
X46700Y-41300D03*
X42425Y-35000D03*
X42750Y-45225D03*
G54D19*
X34875Y-40750D03*
G54D17*
X43725Y-45150D03*
X37550Y-33000D03*
G54D19*
X35316Y-38750D03*
G54D17*
X35700Y-32425D03*
G54D19*
X35156Y-37500D03*
G54D17*
X48150Y-41760D03*
X35850Y-45000D03*
X47625Y-32225D03*
X45580Y-45540D03*
X45280Y-38200D03*
X45375Y-40425D03*
X34550Y-44950D03*
X36625Y-41375D03*
X40850Y-41200D03*
X42762Y-41166D03*
X39400Y-35900D03*
X42700Y-36100D03*
X42800Y-35125D03*
X41275Y-36500D03*
X40846Y-38500D03*
X39650Y-37400D03*
X36750Y-45250D03*
X35250Y-43700D03*
X36496Y-38000D03*
X37500Y-35075D03*
X36496Y-34794D03*
X42350Y-33050D03*
X40800Y-33675D03*
X47838Y-38375D03*
X34025Y-47800D03*
X36075Y-51800D03*
X39375Y-51775D03*
X39525Y-50375D03*
X40334Y-49000D03*
X43100Y-38375D03*
X37250Y-47500D03*
X37250Y-47125D03*
X36900Y-47500D03*
X36900Y-47125D03*
X36900Y-46750D03*
X37275Y-46750D03*
G54D18*
X38050Y-38200D03*
G54D17*
X37050Y-38700D03*
X38300Y-39050D03*
X39700Y-37800D03*
G54D18*
X38350Y-39700D03*
X38350Y-35800D03*
X38100Y-37000D03*
X38100Y-37750D03*
X38350Y-36500D03*
X41750Y-38000D03*
X42000Y-37050D03*
G54D17*
X40075Y-40050D03*
X42000Y-40075D03*
G54D18*
X40075Y-34900D03*
X42225Y-36000D03*
G54D17*
X40775Y-47375D03*
X38375Y-48150D03*
G54D18*
X34700Y-51025D03*
X42200Y-38925D03*
G54D17*
X42525Y-34225D03*
G54D18*
X40100Y-34550D03*
X40800Y-34975D03*
G54D17*
X37350Y-34575D03*
G54D18*
X39425Y-34775D03*
X39725Y-34625D03*
G54D17*
X37375Y-33975D03*
X42637Y-33912D03*
G54D20*
X43722Y-42290D02*
X43565Y-42290D01*
X43565Y-42290D02*
X43225Y-41950D01*
X43225Y-41950D02*
X43225Y-41850D01*
G54D21*
X35325Y-43025D02*
X35312Y-43012D01*
X35312Y-43012D02*
X35312Y-42737D01*
X35312Y-42737D02*
X35525Y-42525D01*
X35525Y-42525D02*
X36175Y-42525D01*
X36175Y-42525D02*
X37300Y-41400D01*
X37300Y-41400D02*
X38050Y-41400D01*
G54D22*
X47100Y-39550D02*
X48650Y-41100D01*
X48650Y-41100D02*
X48650Y-47250D01*
X48650Y-47250D02*
X48200Y-47700D01*
G54D20*
X39666Y-49000D02*
X40475Y-49809D01*
X40475Y-49809D02*
X40475Y-50175D01*
G54D21*
X36375Y-32250D02*
X36375Y-32575D01*
G54D23*
X39666Y-48650D02*
X39666Y-49000D01*
G54D20*
X41100Y-32525D02*
X41100Y-32400D01*
X41100Y-32400D02*
X41500Y-32000D01*
X41500Y-32000D02*
X41525Y-32000D01*
X41100Y-32925D02*
X41100Y-32525D01*
G54D24*
X40475Y-45446D02*
X40475Y-45387D01*
X40475Y-45387D02*
X40732Y-45130D01*
X39666Y-49000D02*
X39666Y-48650D01*
X39666Y-48650D02*
X39666Y-48534D01*
X39666Y-48534D02*
X40475Y-47725D01*
X40475Y-47725D02*
X40475Y-45446D01*
G54D21*
X36375Y-32250D02*
X36625Y-32000D01*
X36625Y-32000D02*
X41225Y-32000D01*
X41225Y-32000D02*
X41525Y-32000D01*
X41525Y-32000D02*
X41575Y-32000D01*
X41575Y-32000D02*
X46275Y-32000D01*
X46275Y-32000D02*
X47000Y-32725D01*
X47000Y-32725D02*
X47000Y-37100D01*
G54D22*
X42600Y-46600D02*
X43100Y-46600D01*
X43100Y-46600D02*
X44075Y-45625D01*
X44075Y-45625D02*
X44075Y-43575D01*
X44075Y-43575D02*
X43675Y-43175D01*
X43675Y-43175D02*
X37775Y-43175D01*
X37775Y-43175D02*
X37650Y-43050D01*
G54D24*
X39175Y-47200D02*
X38290Y-47200D01*
X38290Y-47200D02*
X37440Y-46350D01*
X37440Y-46350D02*
X33875Y-46350D01*
G54D22*
X33875Y-46350D02*
X33325Y-45800D01*
G54D24*
X33875Y-46350D02*
X33325Y-45800D01*
X33325Y-45800D02*
X33325Y-32925D01*
X33325Y-32925D02*
X33475Y-32775D01*
X33475Y-32775D02*
X34800Y-32775D01*
X34800Y-32775D02*
X34900Y-32875D01*
X34900Y-32875D02*
X34900Y-34825D01*
X34900Y-34825D02*
X35350Y-35275D01*
G54D21*
X34575Y-43575D02*
X34575Y-41050D01*
X36050Y-44075D02*
X35075Y-44075D01*
X35075Y-44075D02*
X34575Y-43575D01*
X34575Y-41050D02*
X34875Y-40750D01*
X37062Y-43987D02*
X36975Y-44075D01*
X36975Y-44075D02*
X36050Y-44075D01*
X42750Y-45225D02*
X42100Y-45225D01*
X42100Y-45225D02*
X41174Y-44299D01*
X41174Y-44299D02*
X38349Y-44299D01*
X38349Y-44299D02*
X37900Y-43850D01*
X37900Y-43850D02*
X37200Y-43850D01*
X37200Y-43850D02*
X37062Y-43987D01*
X34800Y-40225D02*
X34125Y-40900D01*
X34900Y-39166D02*
X35316Y-38750D01*
X34900Y-40125D02*
X34900Y-39166D01*
X34800Y-40225D02*
X34900Y-40125D01*
X40900Y-44700D02*
X37450Y-44700D01*
X41850Y-45650D02*
X40900Y-44700D01*
X43225Y-45650D02*
X41850Y-45650D01*
X43725Y-45150D02*
X43225Y-45650D01*
X37250Y-44500D02*
X37450Y-44700D01*
X34650Y-44500D02*
X37250Y-44500D01*
X34125Y-43975D02*
X34650Y-44500D01*
X34125Y-40900D02*
X34125Y-43975D01*
G54D20*
X40334Y-49000D02*
X40900Y-49566D01*
X40900Y-49566D02*
X40900Y-50650D01*
X40900Y-50650D02*
X40050Y-50650D01*
X40050Y-50650D02*
X39800Y-50650D01*
X39800Y-50650D02*
X39525Y-50375D01*
G54D23*
X45375Y-40425D02*
X44675Y-39725D01*
X44675Y-39725D02*
X44675Y-38175D01*
X44675Y-38175D02*
X44825Y-38025D01*
X44825Y-38025D02*
X45105Y-38025D01*
X45105Y-38025D02*
X45280Y-38200D01*
G54D24*
X36750Y-45250D02*
X36750Y-45550D01*
X36750Y-45550D02*
X37270Y-46070D01*
X37270Y-46070D02*
X37650Y-46070D01*
X37650Y-46070D02*
X38470Y-46890D01*
X38470Y-46890D02*
X39430Y-46890D01*
X39430Y-46890D02*
X39650Y-46670D01*
G54D22*
X46575Y-47550D02*
X46575Y-46075D01*
X46575Y-46075D02*
X47275Y-45375D01*
X47275Y-45375D02*
X47275Y-40200D01*
X47275Y-40200D02*
X45875Y-38800D01*
X45078Y-48661D02*
X45313Y-48661D01*
X45313Y-48661D02*
X45825Y-48150D01*
X45825Y-48150D02*
X46350Y-48150D01*
X46350Y-48150D02*
X46575Y-47925D01*
X46575Y-47925D02*
X46575Y-47550D01*
X43350Y-32290D02*
X45165Y-32290D01*
X45165Y-32290D02*
X45875Y-33000D01*
X45875Y-33000D02*
X45875Y-38800D01*
X42475Y-33650D02*
X42650Y-33475D01*
X42650Y-33475D02*
X42650Y-32500D01*
X42650Y-32500D02*
X42859Y-32290D01*
X42859Y-32290D02*
X43350Y-32290D01*
X42525Y-34225D02*
X42375Y-34075D01*
X42375Y-34075D02*
X42375Y-33750D01*
X42375Y-33750D02*
X42475Y-33650D01*
X43325Y-35200D02*
X43325Y-35350D01*
X43325Y-35350D02*
X43050Y-35625D01*
X43050Y-35625D02*
X39050Y-35625D01*
X39050Y-35625D02*
X38150Y-34725D01*
X44291Y-44150D02*
X44291Y-43333D01*
X44291Y-43333D02*
X44500Y-43125D01*
X44500Y-43125D02*
X44500Y-42725D01*
X44500Y-42725D02*
X44275Y-42500D01*
X44275Y-42500D02*
X44275Y-33025D01*
X44275Y-33025D02*
X44125Y-32875D01*
X44291Y-47637D02*
X44291Y-44150D01*
X44125Y-32875D02*
X43500Y-32875D01*
X43500Y-32875D02*
X43325Y-33050D01*
X43325Y-33050D02*
X43325Y-35200D01*
X43325Y-35200D02*
X43325Y-35350D01*
X38150Y-34725D02*
X37500Y-34725D01*
X37500Y-34725D02*
X37350Y-34575D01*
X38912Y-35162D02*
X39175Y-35425D01*
X39175Y-35425D02*
X42944Y-35425D01*
X42944Y-35425D02*
X43125Y-35244D01*
X37387Y-34112D02*
X37375Y-34100D01*
X37375Y-34100D02*
X37375Y-33975D01*
X45078Y-47637D02*
X44500Y-47059D01*
X44500Y-47059D02*
X44500Y-43475D01*
X44500Y-43475D02*
X44725Y-43250D01*
X44725Y-43250D02*
X44725Y-42575D01*
X44725Y-42575D02*
X44475Y-42325D01*
X44475Y-42325D02*
X44475Y-32925D01*
X44475Y-32925D02*
X44225Y-32675D01*
X44225Y-32675D02*
X43325Y-32675D01*
X43325Y-32675D02*
X43125Y-32875D01*
X43125Y-32875D02*
X43125Y-35244D01*
X38912Y-35162D02*
X38250Y-34500D01*
X38250Y-34500D02*
X37775Y-34500D01*
X37775Y-34500D02*
X37387Y-34112D01*
X37387Y-34112D02*
X37375Y-34100D01*
X45675Y-38950D02*
X45725Y-38950D01*
X45725Y-38950D02*
X47075Y-40300D01*
X47075Y-40300D02*
X47075Y-45250D01*
X47075Y-45250D02*
X45550Y-46775D01*
X45550Y-46775D02*
X45550Y-47400D01*
X42637Y-33912D02*
X42850Y-33700D01*
X42850Y-33700D02*
X42850Y-32725D01*
X42850Y-32725D02*
X43100Y-32475D01*
X44291Y-48661D02*
X44802Y-48150D01*
X44802Y-48150D02*
X45375Y-48150D01*
X45375Y-48150D02*
X45550Y-47975D01*
X45550Y-47975D02*
X45550Y-47400D01*
X45675Y-38950D02*
X45675Y-33125D01*
X45675Y-33125D02*
X45025Y-32475D01*
X45025Y-32475D02*
X43100Y-32475D01*
X42637Y-33912D02*
X42625Y-33925D01*
G54D10*
G36*
X32435Y-41700D02*
X32369Y-41727D01*
X31830Y-41727D01*
X31777Y-41705D01*
X31832Y-41682D01*
X31877Y-41611D01*
X31600Y-41334D01*
X31594Y-41339D01*
X31460Y-41205D01*
X31465Y-41200D01*
X31460Y-41194D01*
X31594Y-41060D01*
X31600Y-41065D01*
X31877Y-40788D01*
X31832Y-40717D01*
X31764Y-40700D01*
X31849Y-40664D01*
X31866Y-40705D01*
X31944Y-40782D01*
X32045Y-40824D01*
X32154Y-40825D01*
X32255Y-40783D01*
X32332Y-40705D01*
X32350Y-40664D01*
X32435Y-40700D01*
X32303Y-40754D01*
X32155Y-40902D01*
X32105Y-41022D01*
X32082Y-40967D01*
X32011Y-40922D01*
X31734Y-41200D01*
X32011Y-41477D01*
X32082Y-41432D01*
X32099Y-41364D01*
X32154Y-41497D01*
X32302Y-41644D01*
X32435Y-41700D01*
X32435Y-41700D01*
G37*
G54D25*
X32435Y-41700D02*
X32369Y-41727D01*
X31830Y-41727D01*
X31777Y-41705D01*
X31832Y-41682D01*
X31877Y-41611D01*
X31600Y-41334D01*
X31594Y-41339D01*
X31460Y-41205D01*
X31465Y-41200D01*
X31460Y-41194D01*
X31594Y-41060D01*
X31600Y-41065D01*
X31877Y-40788D01*
X31832Y-40717D01*
X31764Y-40700D01*
X31849Y-40664D01*
X31866Y-40705D01*
X31944Y-40782D01*
X32045Y-40824D01*
X32154Y-40825D01*
X32255Y-40783D01*
X32332Y-40705D01*
X32350Y-40664D01*
X32435Y-40700D01*
X32303Y-40754D01*
X32155Y-40902D01*
X32105Y-41022D01*
X32082Y-40967D01*
X32011Y-40922D01*
X31734Y-41200D01*
X32011Y-41477D01*
X32082Y-41432D01*
X32099Y-41364D01*
X32154Y-41497D01*
X32302Y-41644D01*
X32435Y-41700D01*
G54D10*
G36*
X43477Y-41540D02*
X43426Y-41590D01*
X43388Y-41682D01*
X43314Y-41632D01*
X43225Y-41615D01*
X43135Y-41632D01*
X43058Y-41683D01*
X43007Y-41760D01*
X42990Y-41850D01*
X42990Y-41950D01*
X43007Y-42039D01*
X43058Y-42116D01*
X43251Y-42309D01*
X43173Y-42341D01*
X43122Y-42392D01*
X43072Y-42341D01*
X42943Y-42288D01*
X42803Y-42288D01*
X42673Y-42341D01*
X42622Y-42392D01*
X42572Y-42341D01*
X42475Y-42301D01*
X42475Y-38870D01*
X42433Y-38769D01*
X42355Y-38692D01*
X42275Y-38658D01*
X42275Y-36995D01*
X42233Y-36894D01*
X42155Y-36817D01*
X42054Y-36775D01*
X41945Y-36774D01*
X41844Y-36816D01*
X41767Y-36894D01*
X41725Y-36995D01*
X41724Y-37104D01*
X41766Y-37205D01*
X41844Y-37282D01*
X41945Y-37324D01*
X42054Y-37325D01*
X42155Y-37283D01*
X42232Y-37205D01*
X42274Y-37104D01*
X42275Y-36995D01*
X42275Y-38658D01*
X42254Y-38650D01*
X42145Y-38649D01*
X42044Y-38691D01*
X42025Y-38711D01*
X42025Y-37945D01*
X41983Y-37844D01*
X41905Y-37767D01*
X41804Y-37725D01*
X41695Y-37724D01*
X41594Y-37766D01*
X41575Y-37786D01*
X41575Y-37770D01*
X41533Y-37669D01*
X41456Y-37591D01*
X41354Y-37549D01*
X41245Y-37549D01*
X41144Y-37591D01*
X41066Y-37668D01*
X41024Y-37770D01*
X41024Y-37879D01*
X41066Y-37980D01*
X41143Y-38058D01*
X41245Y-38100D01*
X41354Y-38100D01*
X41455Y-38058D01*
X41474Y-38039D01*
X41474Y-38054D01*
X41516Y-38155D01*
X41594Y-38232D01*
X41695Y-38274D01*
X41804Y-38275D01*
X41905Y-38233D01*
X41982Y-38155D01*
X42024Y-38054D01*
X42025Y-37945D01*
X42025Y-38711D01*
X41967Y-38769D01*
X41925Y-38870D01*
X41924Y-38979D01*
X41966Y-39080D01*
X42044Y-39157D01*
X42145Y-39199D01*
X42254Y-39200D01*
X42355Y-39158D01*
X42432Y-39080D01*
X42474Y-38979D01*
X42475Y-38870D01*
X42475Y-42301D01*
X42443Y-42288D01*
X42303Y-42288D01*
X42275Y-42299D01*
X42275Y-40020D01*
X42233Y-39919D01*
X42156Y-39841D01*
X42054Y-39799D01*
X41945Y-39799D01*
X41844Y-39841D01*
X41766Y-39918D01*
X41724Y-40020D01*
X41724Y-40129D01*
X41766Y-40230D01*
X41843Y-40308D01*
X41945Y-40350D01*
X42054Y-40350D01*
X42155Y-40308D01*
X42233Y-40231D01*
X42275Y-40129D01*
X42275Y-40020D01*
X42275Y-42299D01*
X42173Y-42341D01*
X42122Y-42392D01*
X42072Y-42341D01*
X41943Y-42288D01*
X41803Y-42288D01*
X41673Y-42341D01*
X41622Y-42392D01*
X41572Y-42341D01*
X41443Y-42288D01*
X41303Y-42288D01*
X41173Y-42341D01*
X41122Y-42392D01*
X41072Y-42341D01*
X40943Y-42288D01*
X40803Y-42288D01*
X40673Y-42341D01*
X40622Y-42392D01*
X40572Y-42341D01*
X40443Y-42288D01*
X40350Y-42288D01*
X40350Y-39995D01*
X40308Y-39894D01*
X40231Y-39816D01*
X40129Y-39774D01*
X40075Y-39774D01*
X40075Y-36445D01*
X40033Y-36344D01*
X39956Y-36266D01*
X39854Y-36224D01*
X39745Y-36224D01*
X39644Y-36266D01*
X39566Y-36343D01*
X39524Y-36445D01*
X39524Y-36554D01*
X39566Y-36655D01*
X39643Y-36733D01*
X39745Y-36775D01*
X39854Y-36775D01*
X39955Y-36733D01*
X40033Y-36656D01*
X40075Y-36554D01*
X40075Y-36445D01*
X40075Y-39774D01*
X40020Y-39774D01*
X39975Y-39793D01*
X39975Y-37745D01*
X39933Y-37644D01*
X39856Y-37566D01*
X39754Y-37524D01*
X39645Y-37524D01*
X39544Y-37566D01*
X39466Y-37643D01*
X39424Y-37745D01*
X39424Y-37854D01*
X39466Y-37955D01*
X39543Y-38033D01*
X39645Y-38075D01*
X39754Y-38075D01*
X39855Y-38033D01*
X39933Y-37956D01*
X39975Y-37854D01*
X39975Y-37745D01*
X39975Y-39793D01*
X39919Y-39816D01*
X39841Y-39893D01*
X39799Y-39995D01*
X39799Y-40104D01*
X39841Y-40205D01*
X39918Y-40283D01*
X40020Y-40325D01*
X40129Y-40325D01*
X40230Y-40283D01*
X40308Y-40206D01*
X40350Y-40104D01*
X40350Y-39995D01*
X40350Y-42288D01*
X40303Y-42288D01*
X40173Y-42341D01*
X40122Y-42392D01*
X40072Y-42341D01*
X39943Y-42288D01*
X39803Y-42288D01*
X39673Y-42341D01*
X39622Y-42392D01*
X39572Y-42341D01*
X39550Y-42332D01*
X39550Y-40920D01*
X39508Y-40819D01*
X39431Y-40741D01*
X39329Y-40699D01*
X39325Y-40699D01*
X39325Y-38695D01*
X39283Y-38594D01*
X39205Y-38517D01*
X39104Y-38475D01*
X38995Y-38474D01*
X38894Y-38516D01*
X38817Y-38594D01*
X38775Y-38695D01*
X38774Y-38804D01*
X38816Y-38905D01*
X38894Y-38982D01*
X38995Y-39024D01*
X39104Y-39025D01*
X39205Y-38983D01*
X39282Y-38905D01*
X39324Y-38804D01*
X39325Y-38695D01*
X39325Y-40699D01*
X39220Y-40699D01*
X39119Y-40741D01*
X39041Y-40818D01*
X38999Y-40920D01*
X38999Y-41029D01*
X39041Y-41130D01*
X39118Y-41208D01*
X39220Y-41250D01*
X39329Y-41250D01*
X39430Y-41208D01*
X39508Y-41131D01*
X39550Y-41029D01*
X39550Y-40920D01*
X39550Y-42332D01*
X39443Y-42288D01*
X39303Y-42288D01*
X39173Y-42341D01*
X39122Y-42392D01*
X39072Y-42341D01*
X38943Y-42288D01*
X38803Y-42288D01*
X38673Y-42341D01*
X38625Y-42390D01*
X38625Y-39645D01*
X38625Y-36445D01*
X38583Y-36344D01*
X38505Y-36267D01*
X38404Y-36225D01*
X38295Y-36224D01*
X38194Y-36266D01*
X38117Y-36344D01*
X38075Y-36445D01*
X38074Y-36554D01*
X38116Y-36655D01*
X38194Y-36732D01*
X38295Y-36774D01*
X38404Y-36775D01*
X38505Y-36733D01*
X38582Y-36655D01*
X38624Y-36554D01*
X38625Y-36445D01*
X38625Y-39645D01*
X38583Y-39544D01*
X38575Y-39536D01*
X38575Y-38995D01*
X38533Y-38894D01*
X38456Y-38816D01*
X38375Y-38783D01*
X38375Y-37695D01*
X38375Y-36945D01*
X38333Y-36844D01*
X38255Y-36767D01*
X38154Y-36725D01*
X38045Y-36724D01*
X37944Y-36766D01*
X37867Y-36844D01*
X37825Y-36945D01*
X37824Y-37054D01*
X37866Y-37155D01*
X37944Y-37232D01*
X38045Y-37274D01*
X38154Y-37275D01*
X38255Y-37233D01*
X38332Y-37155D01*
X38374Y-37054D01*
X38375Y-36945D01*
X38375Y-37695D01*
X38333Y-37594D01*
X38255Y-37517D01*
X38154Y-37475D01*
X38045Y-37474D01*
X37944Y-37516D01*
X37867Y-37594D01*
X37825Y-37695D01*
X37824Y-37804D01*
X37866Y-37905D01*
X37918Y-37956D01*
X37894Y-37966D01*
X37817Y-38044D01*
X37775Y-38145D01*
X37774Y-38254D01*
X37816Y-38355D01*
X37894Y-38432D01*
X37995Y-38474D01*
X38104Y-38475D01*
X38205Y-38433D01*
X38282Y-38355D01*
X38324Y-38254D01*
X38325Y-38145D01*
X38283Y-38044D01*
X38231Y-37993D01*
X38255Y-37983D01*
X38332Y-37905D01*
X38374Y-37804D01*
X38375Y-37695D01*
X38375Y-38783D01*
X38354Y-38774D01*
X38245Y-38774D01*
X38144Y-38816D01*
X38066Y-38893D01*
X38024Y-38995D01*
X38024Y-39104D01*
X38066Y-39205D01*
X38143Y-39283D01*
X38245Y-39325D01*
X38354Y-39325D01*
X38455Y-39283D01*
X38533Y-39206D01*
X38575Y-39104D01*
X38575Y-38995D01*
X38575Y-39536D01*
X38505Y-39467D01*
X38404Y-39425D01*
X38295Y-39424D01*
X38194Y-39466D01*
X38117Y-39544D01*
X38075Y-39645D01*
X38074Y-39754D01*
X38116Y-39855D01*
X38194Y-39932D01*
X38295Y-39974D01*
X38404Y-39975D01*
X38505Y-39933D01*
X38582Y-39855D01*
X38624Y-39754D01*
X38625Y-39645D01*
X38625Y-42390D01*
X38622Y-42392D01*
X38572Y-42341D01*
X38443Y-42288D01*
X38303Y-42288D01*
X38173Y-42341D01*
X38122Y-42392D01*
X38072Y-42341D01*
X37943Y-42288D01*
X37803Y-42288D01*
X37673Y-42341D01*
X37622Y-42392D01*
X37572Y-42341D01*
X37443Y-42288D01*
X37303Y-42288D01*
X37173Y-42341D01*
X37122Y-42392D01*
X37072Y-42341D01*
X37012Y-42317D01*
X37012Y-42132D01*
X37430Y-41715D01*
X38050Y-41715D01*
X38170Y-41691D01*
X38272Y-41622D01*
X38341Y-41520D01*
X38365Y-41400D01*
X38341Y-41279D01*
X38272Y-41177D01*
X38170Y-41108D01*
X38050Y-41085D01*
X37325Y-41085D01*
X37325Y-38645D01*
X37283Y-38544D01*
X37206Y-38466D01*
X37125Y-38433D01*
X37125Y-36095D01*
X37083Y-35994D01*
X37006Y-35916D01*
X36904Y-35874D01*
X36795Y-35874D01*
X36694Y-35916D01*
X36616Y-35993D01*
X36574Y-36095D01*
X36574Y-36204D01*
X36616Y-36305D01*
X36693Y-36383D01*
X36795Y-36425D01*
X36904Y-36425D01*
X37005Y-36383D01*
X37083Y-36306D01*
X37125Y-36204D01*
X37125Y-36095D01*
X37125Y-38433D01*
X37104Y-38424D01*
X36995Y-38424D01*
X36894Y-38466D01*
X36816Y-38543D01*
X36774Y-38645D01*
X36774Y-38754D01*
X36816Y-38855D01*
X36893Y-38933D01*
X36995Y-38975D01*
X37104Y-38975D01*
X37205Y-38933D01*
X37283Y-38856D01*
X37325Y-38754D01*
X37325Y-38645D01*
X37325Y-41085D01*
X37300Y-41085D01*
X37179Y-41108D01*
X37077Y-41177D01*
X37012Y-41241D01*
X37012Y-39755D01*
X36833Y-39845D01*
X36833Y-39844D01*
X36756Y-39766D01*
X36654Y-39724D01*
X36545Y-39724D01*
X36444Y-39766D01*
X36366Y-39843D01*
X36324Y-39945D01*
X36324Y-40054D01*
X36340Y-40091D01*
X36219Y-40152D01*
X35975Y-40152D01*
X35975Y-32370D01*
X35933Y-32269D01*
X35856Y-32191D01*
X35754Y-32149D01*
X35645Y-32149D01*
X35544Y-32191D01*
X35466Y-32268D01*
X35424Y-32370D01*
X35424Y-32479D01*
X35466Y-32580D01*
X35543Y-32658D01*
X35645Y-32700D01*
X35754Y-32700D01*
X35855Y-32658D01*
X35933Y-32581D01*
X35975Y-32479D01*
X35975Y-32370D01*
X35975Y-40152D01*
X35209Y-40152D01*
X35215Y-40125D01*
X35215Y-39296D01*
X35538Y-38972D01*
X35539Y-38972D01*
X35583Y-38928D01*
X35607Y-38870D01*
X35631Y-38812D01*
X35631Y-38750D01*
X35631Y-38687D01*
X35607Y-38629D01*
X35583Y-38571D01*
X35539Y-38527D01*
X35494Y-38483D01*
X35471Y-38473D01*
X35471Y-37437D01*
X35423Y-37321D01*
X35334Y-37233D01*
X35219Y-37185D01*
X35093Y-37184D01*
X34978Y-37232D01*
X34889Y-37321D01*
X34841Y-37437D01*
X34841Y-37562D01*
X34889Y-37678D01*
X34977Y-37766D01*
X35093Y-37814D01*
X35218Y-37815D01*
X35334Y-37767D01*
X35423Y-37678D01*
X35471Y-37562D01*
X35471Y-37437D01*
X35471Y-38473D01*
X35436Y-38458D01*
X35379Y-38435D01*
X35253Y-38434D01*
X35138Y-38482D01*
X35049Y-38571D01*
X35049Y-38571D01*
X34704Y-38915D01*
X34704Y-38248D01*
X34682Y-38133D01*
X34629Y-38111D01*
X34480Y-38260D01*
X34629Y-38408D01*
X34682Y-38386D01*
X34704Y-38248D01*
X34704Y-38915D01*
X34677Y-38943D01*
X34617Y-39033D01*
X34593Y-39009D01*
X34644Y-38959D01*
X34698Y-38830D01*
X34698Y-38690D01*
X34644Y-38560D01*
X34545Y-38461D01*
X34416Y-38408D01*
X34360Y-38408D01*
X34346Y-38394D01*
X34332Y-38408D01*
X34276Y-38408D01*
X34211Y-38434D01*
X34211Y-38260D01*
X34063Y-38111D01*
X34010Y-38133D01*
X33987Y-38271D01*
X34010Y-38386D01*
X34063Y-38408D01*
X34211Y-38260D01*
X34211Y-38434D01*
X34147Y-38461D01*
X34048Y-38560D01*
X33994Y-38689D01*
X33994Y-38829D01*
X34047Y-38959D01*
X34098Y-39010D01*
X34048Y-39060D01*
X33994Y-39189D01*
X33994Y-39329D01*
X34047Y-39459D01*
X34146Y-39558D01*
X34276Y-39611D01*
X34332Y-39611D01*
X34346Y-39625D01*
X34351Y-39620D01*
X34486Y-39754D01*
X34480Y-39760D01*
X34486Y-39765D01*
X34351Y-39899D01*
X34346Y-39894D01*
X34211Y-40028D01*
X34211Y-39760D01*
X34063Y-39611D01*
X34010Y-39633D01*
X33987Y-39771D01*
X34010Y-39886D01*
X34063Y-39908D01*
X34211Y-39760D01*
X34211Y-40028D01*
X34197Y-40043D01*
X34219Y-40095D01*
X34357Y-40118D01*
X34472Y-40095D01*
X34495Y-40043D01*
X34495Y-40043D01*
X34515Y-40063D01*
X34495Y-40084D01*
X34427Y-40152D01*
X33540Y-40152D01*
X33540Y-33014D01*
X33564Y-32990D01*
X34210Y-32990D01*
X34346Y-33125D01*
X34481Y-32990D01*
X34685Y-32990D01*
X34685Y-33148D01*
X34682Y-33133D01*
X34629Y-33111D01*
X34480Y-33260D01*
X34629Y-33408D01*
X34682Y-33386D01*
X34685Y-33368D01*
X34685Y-33658D01*
X34644Y-33560D01*
X34545Y-33461D01*
X34416Y-33408D01*
X34360Y-33408D01*
X34346Y-33394D01*
X34332Y-33408D01*
X34276Y-33408D01*
X34211Y-33434D01*
X34211Y-33260D01*
X34063Y-33111D01*
X34010Y-33133D01*
X33987Y-33271D01*
X34010Y-33386D01*
X34063Y-33408D01*
X34211Y-33260D01*
X34211Y-33434D01*
X34147Y-33461D01*
X34048Y-33560D01*
X33994Y-33689D01*
X33994Y-33829D01*
X34047Y-33959D01*
X34098Y-34010D01*
X34048Y-34060D01*
X33994Y-34189D01*
X33994Y-34329D01*
X34047Y-34459D01*
X34098Y-34510D01*
X34048Y-34560D01*
X33994Y-34689D01*
X33994Y-34829D01*
X34047Y-34959D01*
X34098Y-35010D01*
X34048Y-35060D01*
X33994Y-35189D01*
X33994Y-35329D01*
X34047Y-35459D01*
X34098Y-35510D01*
X34048Y-35560D01*
X33994Y-35689D01*
X33994Y-35829D01*
X34047Y-35959D01*
X34098Y-36010D01*
X34048Y-36060D01*
X33994Y-36189D01*
X33994Y-36329D01*
X34047Y-36459D01*
X34098Y-36510D01*
X34048Y-36560D01*
X33994Y-36689D01*
X33994Y-36829D01*
X34047Y-36959D01*
X34098Y-37010D01*
X34048Y-37060D01*
X33994Y-37189D01*
X33994Y-37329D01*
X34047Y-37459D01*
X34098Y-37510D01*
X34048Y-37560D01*
X33994Y-37689D01*
X33994Y-37829D01*
X34047Y-37959D01*
X34146Y-38058D01*
X34276Y-38111D01*
X34332Y-38111D01*
X34346Y-38125D01*
X34360Y-38111D01*
X34415Y-38111D01*
X34545Y-38058D01*
X34644Y-37959D01*
X34698Y-37830D01*
X34698Y-37690D01*
X34644Y-37560D01*
X34593Y-37509D01*
X34644Y-37459D01*
X34698Y-37330D01*
X34698Y-37190D01*
X34644Y-37060D01*
X34593Y-37009D01*
X34644Y-36959D01*
X34698Y-36830D01*
X34698Y-36690D01*
X34644Y-36560D01*
X34593Y-36509D01*
X34644Y-36459D01*
X34698Y-36330D01*
X34698Y-36190D01*
X34644Y-36060D01*
X34593Y-36009D01*
X34644Y-35959D01*
X34698Y-35830D01*
X34698Y-35690D01*
X34644Y-35560D01*
X34593Y-35509D01*
X34644Y-35459D01*
X34698Y-35330D01*
X34698Y-35190D01*
X34644Y-35060D01*
X34593Y-35009D01*
X34644Y-34959D01*
X34689Y-34849D01*
X34701Y-34907D01*
X34747Y-34977D01*
X35035Y-35264D01*
X35034Y-35337D01*
X35082Y-35453D01*
X35171Y-35541D01*
X35287Y-35589D01*
X35412Y-35590D01*
X35528Y-35542D01*
X35616Y-35453D01*
X35664Y-35337D01*
X35665Y-35212D01*
X35617Y-35096D01*
X35528Y-35008D01*
X35412Y-34960D01*
X35339Y-34959D01*
X35115Y-34735D01*
X35115Y-32875D01*
X35098Y-32792D01*
X35098Y-32792D01*
X35052Y-32722D01*
X34952Y-32622D01*
X34882Y-32576D01*
X34800Y-32560D01*
X33475Y-32560D01*
X33392Y-32576D01*
X33322Y-32622D01*
X33172Y-32772D01*
X33126Y-32842D01*
X33110Y-32925D01*
X33110Y-35059D01*
X33068Y-34959D01*
X33068Y-31734D01*
X32949Y-31445D01*
X32728Y-31224D01*
X32440Y-31104D01*
X32128Y-31104D01*
X31839Y-31223D01*
X31618Y-31444D01*
X31498Y-31732D01*
X31498Y-32045D01*
X31617Y-32333D01*
X31838Y-32554D01*
X32126Y-32674D01*
X32438Y-32674D01*
X32727Y-32555D01*
X32948Y-32335D01*
X33068Y-32046D01*
X33068Y-31734D01*
X33068Y-34959D01*
X33045Y-34903D01*
X32897Y-34755D01*
X32704Y-34675D01*
X32496Y-34674D01*
X32303Y-34754D01*
X32155Y-34902D01*
X32099Y-35035D01*
X32045Y-34903D01*
X31897Y-34755D01*
X31704Y-34675D01*
X31496Y-34674D01*
X31303Y-34754D01*
X31286Y-34770D01*
X31286Y-31514D01*
X31336Y-31266D01*
X31465Y-31072D01*
X31661Y-30942D01*
X31906Y-30893D01*
X33614Y-30893D01*
X33555Y-30952D01*
X33475Y-31145D01*
X33474Y-31353D01*
X33554Y-31547D01*
X33702Y-31694D01*
X33895Y-31774D01*
X34103Y-31775D01*
X34297Y-31695D01*
X34444Y-31547D01*
X34500Y-31414D01*
X34554Y-31547D01*
X34702Y-31694D01*
X34895Y-31774D01*
X35103Y-31775D01*
X35297Y-31695D01*
X35444Y-31547D01*
X35500Y-31414D01*
X35554Y-31547D01*
X35702Y-31694D01*
X35895Y-31774D01*
X36103Y-31775D01*
X36297Y-31695D01*
X36444Y-31547D01*
X36494Y-31427D01*
X36517Y-31482D01*
X36588Y-31527D01*
X36865Y-31250D01*
X36860Y-31244D01*
X36994Y-31110D01*
X37000Y-31115D01*
X37005Y-31110D01*
X37139Y-31244D01*
X37134Y-31250D01*
X37411Y-31527D01*
X37482Y-31482D01*
X37499Y-31414D01*
X37554Y-31547D01*
X37692Y-31685D01*
X37262Y-31685D01*
X37277Y-31661D01*
X37000Y-31384D01*
X36722Y-31661D01*
X36737Y-31685D01*
X36625Y-31685D01*
X36504Y-31708D01*
X36402Y-31777D01*
X36152Y-32027D01*
X36083Y-32129D01*
X36060Y-32250D01*
X36060Y-32575D01*
X36083Y-32695D01*
X36152Y-32797D01*
X36254Y-32866D01*
X36375Y-32890D01*
X36495Y-32866D01*
X36597Y-32797D01*
X36666Y-32695D01*
X36690Y-32575D01*
X36690Y-32380D01*
X36755Y-32315D01*
X39283Y-32315D01*
X39250Y-32395D01*
X39249Y-32504D01*
X39291Y-32605D01*
X39369Y-32682D01*
X39470Y-32724D01*
X39579Y-32725D01*
X39680Y-32683D01*
X39757Y-32605D01*
X39799Y-32504D01*
X39800Y-32395D01*
X39766Y-32315D01*
X40881Y-32315D01*
X40865Y-32400D01*
X40865Y-32525D01*
X40865Y-32773D01*
X40825Y-32870D01*
X40824Y-32979D01*
X40866Y-33080D01*
X40944Y-33157D01*
X41045Y-33199D01*
X41154Y-33200D01*
X41255Y-33158D01*
X41332Y-33080D01*
X41374Y-32979D01*
X41375Y-32870D01*
X41335Y-32773D01*
X41335Y-32525D01*
X41335Y-32497D01*
X41517Y-32315D01*
X41525Y-32315D01*
X41575Y-32315D01*
X42545Y-32315D01*
X42505Y-32355D01*
X42460Y-32421D01*
X42444Y-32500D01*
X42445Y-32500D01*
X42445Y-33390D01*
X42330Y-33505D01*
X42330Y-33505D01*
X42230Y-33605D01*
X42185Y-33671D01*
X42169Y-33750D01*
X42170Y-33750D01*
X42170Y-34074D01*
X42169Y-34075D01*
X42185Y-34153D01*
X42230Y-34219D01*
X42249Y-34239D01*
X42249Y-34279D01*
X42291Y-34380D01*
X42368Y-34458D01*
X42470Y-34500D01*
X42579Y-34500D01*
X42680Y-34458D01*
X42758Y-34381D01*
X42800Y-34279D01*
X42800Y-34170D01*
X42790Y-34146D01*
X42793Y-34145D01*
X42870Y-34068D01*
X42912Y-33967D01*
X42912Y-33927D01*
X42920Y-33919D01*
X42920Y-35160D01*
X42860Y-35220D01*
X42593Y-35220D01*
X42658Y-35156D01*
X42700Y-35054D01*
X42700Y-34945D01*
X42658Y-34844D01*
X42581Y-34766D01*
X42479Y-34724D01*
X42370Y-34724D01*
X42269Y-34766D01*
X42191Y-34843D01*
X42167Y-34903D01*
X42131Y-34866D01*
X42029Y-34824D01*
X41920Y-34824D01*
X41819Y-34866D01*
X41762Y-34923D01*
X41706Y-34866D01*
X41604Y-34824D01*
X41495Y-34824D01*
X41394Y-34866D01*
X41316Y-34943D01*
X41274Y-35045D01*
X41274Y-35154D01*
X41301Y-35220D01*
X40927Y-35220D01*
X40955Y-35208D01*
X41032Y-35130D01*
X41074Y-35029D01*
X41075Y-34920D01*
X41033Y-34819D01*
X40955Y-34742D01*
X40854Y-34700D01*
X40745Y-34699D01*
X40644Y-34741D01*
X40567Y-34819D01*
X40525Y-34920D01*
X40524Y-35029D01*
X40566Y-35130D01*
X40644Y-35207D01*
X40672Y-35220D01*
X40375Y-35220D01*
X40375Y-34495D01*
X40333Y-34394D01*
X40255Y-34317D01*
X40154Y-34275D01*
X40045Y-34274D01*
X39944Y-34316D01*
X39872Y-34388D01*
X39779Y-34350D01*
X39670Y-34349D01*
X39569Y-34391D01*
X39492Y-34469D01*
X39479Y-34500D01*
X39370Y-34499D01*
X39269Y-34541D01*
X39192Y-34619D01*
X39150Y-34720D01*
X39149Y-34829D01*
X39191Y-34930D01*
X39269Y-35007D01*
X39370Y-35049D01*
X39479Y-35050D01*
X39580Y-35008D01*
X39657Y-34930D01*
X39670Y-34899D01*
X39779Y-34900D01*
X39800Y-34891D01*
X39799Y-34954D01*
X39841Y-35055D01*
X39919Y-35132D01*
X40020Y-35174D01*
X40129Y-35175D01*
X40230Y-35133D01*
X40307Y-35055D01*
X40349Y-34954D01*
X40350Y-34845D01*
X40308Y-34744D01*
X40301Y-34737D01*
X40332Y-34705D01*
X40374Y-34604D01*
X40375Y-34495D01*
X40375Y-35220D01*
X39259Y-35220D01*
X39057Y-35017D01*
X39057Y-35017D01*
X38394Y-34355D01*
X38328Y-34310D01*
X38250Y-34294D01*
X38249Y-34295D01*
X37859Y-34295D01*
X37825Y-34260D01*
X37825Y-32945D01*
X37783Y-32844D01*
X37706Y-32766D01*
X37604Y-32724D01*
X37495Y-32724D01*
X37394Y-32766D01*
X37316Y-32843D01*
X37274Y-32945D01*
X37274Y-33054D01*
X37316Y-33155D01*
X37393Y-33233D01*
X37495Y-33275D01*
X37604Y-33275D01*
X37705Y-33233D01*
X37783Y-33156D01*
X37825Y-33054D01*
X37825Y-32945D01*
X37825Y-34260D01*
X37633Y-34068D01*
X37650Y-34029D01*
X37650Y-33920D01*
X37608Y-33819D01*
X37531Y-33741D01*
X37429Y-33699D01*
X37320Y-33699D01*
X37219Y-33741D01*
X37141Y-33818D01*
X37099Y-33920D01*
X37099Y-34029D01*
X37141Y-34130D01*
X37184Y-34173D01*
X37185Y-34178D01*
X37230Y-34244D01*
X37242Y-34257D01*
X37242Y-34257D01*
X37288Y-34302D01*
X37194Y-34341D01*
X37116Y-34418D01*
X37074Y-34520D01*
X37074Y-34629D01*
X37116Y-34730D01*
X37193Y-34808D01*
X37295Y-34850D01*
X37335Y-34850D01*
X37355Y-34869D01*
X37355Y-34869D01*
X37394Y-34896D01*
X37421Y-34914D01*
X37421Y-34914D01*
X37500Y-34930D01*
X38065Y-34930D01*
X38735Y-35600D01*
X38634Y-35641D01*
X38597Y-35678D01*
X38583Y-35644D01*
X38505Y-35567D01*
X38404Y-35525D01*
X38295Y-35524D01*
X38194Y-35566D01*
X38117Y-35644D01*
X38075Y-35745D01*
X38074Y-35854D01*
X38116Y-35955D01*
X38194Y-36032D01*
X38295Y-36074D01*
X38404Y-36075D01*
X38505Y-36033D01*
X38542Y-35996D01*
X38556Y-36030D01*
X38634Y-36108D01*
X38735Y-36150D01*
X38844Y-36150D01*
X38945Y-36108D01*
X39023Y-36031D01*
X39065Y-35929D01*
X39065Y-35830D01*
X42006Y-35830D01*
X41992Y-35844D01*
X41950Y-35945D01*
X41949Y-36054D01*
X41991Y-36155D01*
X42069Y-36232D01*
X42170Y-36274D01*
X42279Y-36275D01*
X42380Y-36233D01*
X42457Y-36155D01*
X42499Y-36054D01*
X42500Y-35945D01*
X42458Y-35844D01*
X42443Y-35830D01*
X43049Y-35830D01*
X43050Y-35830D01*
X43050Y-35830D01*
X43128Y-35814D01*
X43194Y-35769D01*
X43451Y-35513D01*
X43477Y-35540D01*
X43426Y-35590D01*
X43373Y-35719D01*
X43373Y-35859D01*
X43426Y-35989D01*
X43477Y-36040D01*
X43426Y-36090D01*
X43373Y-36219D01*
X43373Y-36359D01*
X43426Y-36489D01*
X43477Y-36540D01*
X43426Y-36590D01*
X43373Y-36719D01*
X43373Y-36859D01*
X43426Y-36989D01*
X43477Y-37040D01*
X43426Y-37090D01*
X43404Y-37144D01*
X43383Y-37094D01*
X43306Y-37016D01*
X43204Y-36974D01*
X43095Y-36974D01*
X42994Y-37016D01*
X42916Y-37093D01*
X42874Y-37195D01*
X42874Y-37304D01*
X42916Y-37405D01*
X42993Y-37483D01*
X43095Y-37525D01*
X43204Y-37525D01*
X43305Y-37483D01*
X43383Y-37406D01*
X43387Y-37394D01*
X43426Y-37489D01*
X43477Y-37540D01*
X43426Y-37590D01*
X43373Y-37719D01*
X43373Y-37859D01*
X43426Y-37989D01*
X43477Y-38040D01*
X43426Y-38090D01*
X43373Y-38219D01*
X43373Y-38359D01*
X43426Y-38489D01*
X43477Y-38540D01*
X43426Y-38590D01*
X43373Y-38719D01*
X43373Y-38859D01*
X43426Y-38989D01*
X43477Y-39040D01*
X43426Y-39090D01*
X43373Y-39219D01*
X43373Y-39359D01*
X43426Y-39489D01*
X43477Y-39540D01*
X43426Y-39590D01*
X43373Y-39719D01*
X43373Y-39859D01*
X43426Y-39989D01*
X43477Y-40040D01*
X43426Y-40090D01*
X43373Y-40219D01*
X43373Y-40359D01*
X43426Y-40489D01*
X43477Y-40540D01*
X43426Y-40590D01*
X43373Y-40719D01*
X43373Y-40859D01*
X43426Y-40989D01*
X43477Y-41040D01*
X43426Y-41090D01*
X43373Y-41219D01*
X43373Y-41359D01*
X43426Y-41489D01*
X43477Y-41540D01*
X43477Y-41540D01*
G37*
G54D25*
X43477Y-41540D02*
X43426Y-41590D01*
X43388Y-41682D01*
X43314Y-41632D01*
X43225Y-41615D01*
X43135Y-41632D01*
X43058Y-41683D01*
X43007Y-41760D01*
X42990Y-41850D01*
X42990Y-41950D01*
X43007Y-42039D01*
X43058Y-42116D01*
X43251Y-42309D01*
X43173Y-42341D01*
X43122Y-42392D01*
X43072Y-42341D01*
X42943Y-42288D01*
X42803Y-42288D01*
X42673Y-42341D01*
X42622Y-42392D01*
X42572Y-42341D01*
X42475Y-42301D01*
X42475Y-38870D01*
X42433Y-38769D01*
X42355Y-38692D01*
X42275Y-38658D01*
X42275Y-36995D01*
X42233Y-36894D01*
X42155Y-36817D01*
X42054Y-36775D01*
X41945Y-36774D01*
X41844Y-36816D01*
X41767Y-36894D01*
X41725Y-36995D01*
X41724Y-37104D01*
X41766Y-37205D01*
X41844Y-37282D01*
X41945Y-37324D01*
X42054Y-37325D01*
X42155Y-37283D01*
X42232Y-37205D01*
X42274Y-37104D01*
X42275Y-36995D01*
X42275Y-38658D01*
X42254Y-38650D01*
X42145Y-38649D01*
X42044Y-38691D01*
X42025Y-38711D01*
X42025Y-37945D01*
X41983Y-37844D01*
X41905Y-37767D01*
X41804Y-37725D01*
X41695Y-37724D01*
X41594Y-37766D01*
X41575Y-37786D01*
X41575Y-37770D01*
X41533Y-37669D01*
X41456Y-37591D01*
X41354Y-37549D01*
X41245Y-37549D01*
X41144Y-37591D01*
X41066Y-37668D01*
X41024Y-37770D01*
X41024Y-37879D01*
X41066Y-37980D01*
X41143Y-38058D01*
X41245Y-38100D01*
X41354Y-38100D01*
X41455Y-38058D01*
X41474Y-38039D01*
X41474Y-38054D01*
X41516Y-38155D01*
X41594Y-38232D01*
X41695Y-38274D01*
X41804Y-38275D01*
X41905Y-38233D01*
X41982Y-38155D01*
X42024Y-38054D01*
X42025Y-37945D01*
X42025Y-38711D01*
X41967Y-38769D01*
X41925Y-38870D01*
X41924Y-38979D01*
X41966Y-39080D01*
X42044Y-39157D01*
X42145Y-39199D01*
X42254Y-39200D01*
X42355Y-39158D01*
X42432Y-39080D01*
X42474Y-38979D01*
X42475Y-38870D01*
X42475Y-42301D01*
X42443Y-42288D01*
X42303Y-42288D01*
X42275Y-42299D01*
X42275Y-40020D01*
X42233Y-39919D01*
X42156Y-39841D01*
X42054Y-39799D01*
X41945Y-39799D01*
X41844Y-39841D01*
X41766Y-39918D01*
X41724Y-40020D01*
X41724Y-40129D01*
X41766Y-40230D01*
X41843Y-40308D01*
X41945Y-40350D01*
X42054Y-40350D01*
X42155Y-40308D01*
X42233Y-40231D01*
X42275Y-40129D01*
X42275Y-40020D01*
X42275Y-42299D01*
X42173Y-42341D01*
X42122Y-42392D01*
X42072Y-42341D01*
X41943Y-42288D01*
X41803Y-42288D01*
X41673Y-42341D01*
X41622Y-42392D01*
X41572Y-42341D01*
X41443Y-42288D01*
X41303Y-42288D01*
X41173Y-42341D01*
X41122Y-42392D01*
X41072Y-42341D01*
X40943Y-42288D01*
X40803Y-42288D01*
X40673Y-42341D01*
X40622Y-42392D01*
X40572Y-42341D01*
X40443Y-42288D01*
X40350Y-42288D01*
X40350Y-39995D01*
X40308Y-39894D01*
X40231Y-39816D01*
X40129Y-39774D01*
X40075Y-39774D01*
X40075Y-36445D01*
X40033Y-36344D01*
X39956Y-36266D01*
X39854Y-36224D01*
X39745Y-36224D01*
X39644Y-36266D01*
X39566Y-36343D01*
X39524Y-36445D01*
X39524Y-36554D01*
X39566Y-36655D01*
X39643Y-36733D01*
X39745Y-36775D01*
X39854Y-36775D01*
X39955Y-36733D01*
X40033Y-36656D01*
X40075Y-36554D01*
X40075Y-36445D01*
X40075Y-39774D01*
X40020Y-39774D01*
X39975Y-39793D01*
X39975Y-37745D01*
X39933Y-37644D01*
X39856Y-37566D01*
X39754Y-37524D01*
X39645Y-37524D01*
X39544Y-37566D01*
X39466Y-37643D01*
X39424Y-37745D01*
X39424Y-37854D01*
X39466Y-37955D01*
X39543Y-38033D01*
X39645Y-38075D01*
X39754Y-38075D01*
X39855Y-38033D01*
X39933Y-37956D01*
X39975Y-37854D01*
X39975Y-37745D01*
X39975Y-39793D01*
X39919Y-39816D01*
X39841Y-39893D01*
X39799Y-39995D01*
X39799Y-40104D01*
X39841Y-40205D01*
X39918Y-40283D01*
X40020Y-40325D01*
X40129Y-40325D01*
X40230Y-40283D01*
X40308Y-40206D01*
X40350Y-40104D01*
X40350Y-39995D01*
X40350Y-42288D01*
X40303Y-42288D01*
X40173Y-42341D01*
X40122Y-42392D01*
X40072Y-42341D01*
X39943Y-42288D01*
X39803Y-42288D01*
X39673Y-42341D01*
X39622Y-42392D01*
X39572Y-42341D01*
X39550Y-42332D01*
X39550Y-40920D01*
X39508Y-40819D01*
X39431Y-40741D01*
X39329Y-40699D01*
X39325Y-40699D01*
X39325Y-38695D01*
X39283Y-38594D01*
X39205Y-38517D01*
X39104Y-38475D01*
X38995Y-38474D01*
X38894Y-38516D01*
X38817Y-38594D01*
X38775Y-38695D01*
X38774Y-38804D01*
X38816Y-38905D01*
X38894Y-38982D01*
X38995Y-39024D01*
X39104Y-39025D01*
X39205Y-38983D01*
X39282Y-38905D01*
X39324Y-38804D01*
X39325Y-38695D01*
X39325Y-40699D01*
X39220Y-40699D01*
X39119Y-40741D01*
X39041Y-40818D01*
X38999Y-40920D01*
X38999Y-41029D01*
X39041Y-41130D01*
X39118Y-41208D01*
X39220Y-41250D01*
X39329Y-41250D01*
X39430Y-41208D01*
X39508Y-41131D01*
X39550Y-41029D01*
X39550Y-40920D01*
X39550Y-42332D01*
X39443Y-42288D01*
X39303Y-42288D01*
X39173Y-42341D01*
X39122Y-42392D01*
X39072Y-42341D01*
X38943Y-42288D01*
X38803Y-42288D01*
X38673Y-42341D01*
X38625Y-42390D01*
X38625Y-39645D01*
X38625Y-36445D01*
X38583Y-36344D01*
X38505Y-36267D01*
X38404Y-36225D01*
X38295Y-36224D01*
X38194Y-36266D01*
X38117Y-36344D01*
X38075Y-36445D01*
X38074Y-36554D01*
X38116Y-36655D01*
X38194Y-36732D01*
X38295Y-36774D01*
X38404Y-36775D01*
X38505Y-36733D01*
X38582Y-36655D01*
X38624Y-36554D01*
X38625Y-36445D01*
X38625Y-39645D01*
X38583Y-39544D01*
X38575Y-39536D01*
X38575Y-38995D01*
X38533Y-38894D01*
X38456Y-38816D01*
X38375Y-38783D01*
X38375Y-37695D01*
X38375Y-36945D01*
X38333Y-36844D01*
X38255Y-36767D01*
X38154Y-36725D01*
X38045Y-36724D01*
X37944Y-36766D01*
X37867Y-36844D01*
X37825Y-36945D01*
X37824Y-37054D01*
X37866Y-37155D01*
X37944Y-37232D01*
X38045Y-37274D01*
X38154Y-37275D01*
X38255Y-37233D01*
X38332Y-37155D01*
X38374Y-37054D01*
X38375Y-36945D01*
X38375Y-37695D01*
X38333Y-37594D01*
X38255Y-37517D01*
X38154Y-37475D01*
X38045Y-37474D01*
X37944Y-37516D01*
X37867Y-37594D01*
X37825Y-37695D01*
X37824Y-37804D01*
X37866Y-37905D01*
X37918Y-37956D01*
X37894Y-37966D01*
X37817Y-38044D01*
X37775Y-38145D01*
X37774Y-38254D01*
X37816Y-38355D01*
X37894Y-38432D01*
X37995Y-38474D01*
X38104Y-38475D01*
X38205Y-38433D01*
X38282Y-38355D01*
X38324Y-38254D01*
X38325Y-38145D01*
X38283Y-38044D01*
X38231Y-37993D01*
X38255Y-37983D01*
X38332Y-37905D01*
X38374Y-37804D01*
X38375Y-37695D01*
X38375Y-38783D01*
X38354Y-38774D01*
X38245Y-38774D01*
X38144Y-38816D01*
X38066Y-38893D01*
X38024Y-38995D01*
X38024Y-39104D01*
X38066Y-39205D01*
X38143Y-39283D01*
X38245Y-39325D01*
X38354Y-39325D01*
X38455Y-39283D01*
X38533Y-39206D01*
X38575Y-39104D01*
X38575Y-38995D01*
X38575Y-39536D01*
X38505Y-39467D01*
X38404Y-39425D01*
X38295Y-39424D01*
X38194Y-39466D01*
X38117Y-39544D01*
X38075Y-39645D01*
X38074Y-39754D01*
X38116Y-39855D01*
X38194Y-39932D01*
X38295Y-39974D01*
X38404Y-39975D01*
X38505Y-39933D01*
X38582Y-39855D01*
X38624Y-39754D01*
X38625Y-39645D01*
X38625Y-42390D01*
X38622Y-42392D01*
X38572Y-42341D01*
X38443Y-42288D01*
X38303Y-42288D01*
X38173Y-42341D01*
X38122Y-42392D01*
X38072Y-42341D01*
X37943Y-42288D01*
X37803Y-42288D01*
X37673Y-42341D01*
X37622Y-42392D01*
X37572Y-42341D01*
X37443Y-42288D01*
X37303Y-42288D01*
X37173Y-42341D01*
X37122Y-42392D01*
X37072Y-42341D01*
X37012Y-42317D01*
X37012Y-42132D01*
X37430Y-41715D01*
X38050Y-41715D01*
X38170Y-41691D01*
X38272Y-41622D01*
X38341Y-41520D01*
X38365Y-41400D01*
X38341Y-41279D01*
X38272Y-41177D01*
X38170Y-41108D01*
X38050Y-41085D01*
X37325Y-41085D01*
X37325Y-38645D01*
X37283Y-38544D01*
X37206Y-38466D01*
X37125Y-38433D01*
X37125Y-36095D01*
X37083Y-35994D01*
X37006Y-35916D01*
X36904Y-35874D01*
X36795Y-35874D01*
X36694Y-35916D01*
X36616Y-35993D01*
X36574Y-36095D01*
X36574Y-36204D01*
X36616Y-36305D01*
X36693Y-36383D01*
X36795Y-36425D01*
X36904Y-36425D01*
X37005Y-36383D01*
X37083Y-36306D01*
X37125Y-36204D01*
X37125Y-36095D01*
X37125Y-38433D01*
X37104Y-38424D01*
X36995Y-38424D01*
X36894Y-38466D01*
X36816Y-38543D01*
X36774Y-38645D01*
X36774Y-38754D01*
X36816Y-38855D01*
X36893Y-38933D01*
X36995Y-38975D01*
X37104Y-38975D01*
X37205Y-38933D01*
X37283Y-38856D01*
X37325Y-38754D01*
X37325Y-38645D01*
X37325Y-41085D01*
X37300Y-41085D01*
X37179Y-41108D01*
X37077Y-41177D01*
X37012Y-41241D01*
X37012Y-39755D01*
X36833Y-39845D01*
X36833Y-39844D01*
X36756Y-39766D01*
X36654Y-39724D01*
X36545Y-39724D01*
X36444Y-39766D01*
X36366Y-39843D01*
X36324Y-39945D01*
X36324Y-40054D01*
X36340Y-40091D01*
X36219Y-40152D01*
X35975Y-40152D01*
X35975Y-32370D01*
X35933Y-32269D01*
X35856Y-32191D01*
X35754Y-32149D01*
X35645Y-32149D01*
X35544Y-32191D01*
X35466Y-32268D01*
X35424Y-32370D01*
X35424Y-32479D01*
X35466Y-32580D01*
X35543Y-32658D01*
X35645Y-32700D01*
X35754Y-32700D01*
X35855Y-32658D01*
X35933Y-32581D01*
X35975Y-32479D01*
X35975Y-32370D01*
X35975Y-40152D01*
X35209Y-40152D01*
X35215Y-40125D01*
X35215Y-39296D01*
X35538Y-38972D01*
X35539Y-38972D01*
X35583Y-38928D01*
X35607Y-38870D01*
X35631Y-38812D01*
X35631Y-38750D01*
X35631Y-38687D01*
X35607Y-38629D01*
X35583Y-38571D01*
X35539Y-38527D01*
X35494Y-38483D01*
X35471Y-38473D01*
X35471Y-37437D01*
X35423Y-37321D01*
X35334Y-37233D01*
X35219Y-37185D01*
X35093Y-37184D01*
X34978Y-37232D01*
X34889Y-37321D01*
X34841Y-37437D01*
X34841Y-37562D01*
X34889Y-37678D01*
X34977Y-37766D01*
X35093Y-37814D01*
X35218Y-37815D01*
X35334Y-37767D01*
X35423Y-37678D01*
X35471Y-37562D01*
X35471Y-37437D01*
X35471Y-38473D01*
X35436Y-38458D01*
X35379Y-38435D01*
X35253Y-38434D01*
X35138Y-38482D01*
X35049Y-38571D01*
X35049Y-38571D01*
X34704Y-38915D01*
X34704Y-38248D01*
X34682Y-38133D01*
X34629Y-38111D01*
X34480Y-38260D01*
X34629Y-38408D01*
X34682Y-38386D01*
X34704Y-38248D01*
X34704Y-38915D01*
X34677Y-38943D01*
X34617Y-39033D01*
X34593Y-39009D01*
X34644Y-38959D01*
X34698Y-38830D01*
X34698Y-38690D01*
X34644Y-38560D01*
X34545Y-38461D01*
X34416Y-38408D01*
X34360Y-38408D01*
X34346Y-38394D01*
X34332Y-38408D01*
X34276Y-38408D01*
X34211Y-38434D01*
X34211Y-38260D01*
X34063Y-38111D01*
X34010Y-38133D01*
X33987Y-38271D01*
X34010Y-38386D01*
X34063Y-38408D01*
X34211Y-38260D01*
X34211Y-38434D01*
X34147Y-38461D01*
X34048Y-38560D01*
X33994Y-38689D01*
X33994Y-38829D01*
X34047Y-38959D01*
X34098Y-39010D01*
X34048Y-39060D01*
X33994Y-39189D01*
X33994Y-39329D01*
X34047Y-39459D01*
X34146Y-39558D01*
X34276Y-39611D01*
X34332Y-39611D01*
X34346Y-39625D01*
X34351Y-39620D01*
X34486Y-39754D01*
X34480Y-39760D01*
X34486Y-39765D01*
X34351Y-39899D01*
X34346Y-39894D01*
X34211Y-40028D01*
X34211Y-39760D01*
X34063Y-39611D01*
X34010Y-39633D01*
X33987Y-39771D01*
X34010Y-39886D01*
X34063Y-39908D01*
X34211Y-39760D01*
X34211Y-40028D01*
X34197Y-40043D01*
X34219Y-40095D01*
X34357Y-40118D01*
X34472Y-40095D01*
X34495Y-40043D01*
X34495Y-40043D01*
X34515Y-40063D01*
X34495Y-40084D01*
X34427Y-40152D01*
X33540Y-40152D01*
X33540Y-33014D01*
X33564Y-32990D01*
X34210Y-32990D01*
X34346Y-33125D01*
X34481Y-32990D01*
X34685Y-32990D01*
X34685Y-33148D01*
X34682Y-33133D01*
X34629Y-33111D01*
X34480Y-33260D01*
X34629Y-33408D01*
X34682Y-33386D01*
X34685Y-33368D01*
X34685Y-33658D01*
X34644Y-33560D01*
X34545Y-33461D01*
X34416Y-33408D01*
X34360Y-33408D01*
X34346Y-33394D01*
X34332Y-33408D01*
X34276Y-33408D01*
X34211Y-33434D01*
X34211Y-33260D01*
X34063Y-33111D01*
X34010Y-33133D01*
X33987Y-33271D01*
X34010Y-33386D01*
X34063Y-33408D01*
X34211Y-33260D01*
X34211Y-33434D01*
X34147Y-33461D01*
X34048Y-33560D01*
X33994Y-33689D01*
X33994Y-33829D01*
X34047Y-33959D01*
X34098Y-34010D01*
X34048Y-34060D01*
X33994Y-34189D01*
X33994Y-34329D01*
X34047Y-34459D01*
X34098Y-34510D01*
X34048Y-34560D01*
X33994Y-34689D01*
X33994Y-34829D01*
X34047Y-34959D01*
X34098Y-35010D01*
X34048Y-35060D01*
X33994Y-35189D01*
X33994Y-35329D01*
X34047Y-35459D01*
X34098Y-35510D01*
X34048Y-35560D01*
X33994Y-35689D01*
X33994Y-35829D01*
X34047Y-35959D01*
X34098Y-36010D01*
X34048Y-36060D01*
X33994Y-36189D01*
X33994Y-36329D01*
X34047Y-36459D01*
X34098Y-36510D01*
X34048Y-36560D01*
X33994Y-36689D01*
X33994Y-36829D01*
X34047Y-36959D01*
X34098Y-37010D01*
X34048Y-37060D01*
X33994Y-37189D01*
X33994Y-37329D01*
X34047Y-37459D01*
X34098Y-37510D01*
X34048Y-37560D01*
X33994Y-37689D01*
X33994Y-37829D01*
X34047Y-37959D01*
X34146Y-38058D01*
X34276Y-38111D01*
X34332Y-38111D01*
X34346Y-38125D01*
X34360Y-38111D01*
X34415Y-38111D01*
X34545Y-38058D01*
X34644Y-37959D01*
X34698Y-37830D01*
X34698Y-37690D01*
X34644Y-37560D01*
X34593Y-37509D01*
X34644Y-37459D01*
X34698Y-37330D01*
X34698Y-37190D01*
X34644Y-37060D01*
X34593Y-37009D01*
X34644Y-36959D01*
X34698Y-36830D01*
X34698Y-36690D01*
X34644Y-36560D01*
X34593Y-36509D01*
X34644Y-36459D01*
X34698Y-36330D01*
X34698Y-36190D01*
X34644Y-36060D01*
X34593Y-36009D01*
X34644Y-35959D01*
X34698Y-35830D01*
X34698Y-35690D01*
X34644Y-35560D01*
X34593Y-35509D01*
X34644Y-35459D01*
X34698Y-35330D01*
X34698Y-35190D01*
X34644Y-35060D01*
X34593Y-35009D01*
X34644Y-34959D01*
X34689Y-34849D01*
X34701Y-34907D01*
X34747Y-34977D01*
X35035Y-35264D01*
X35034Y-35337D01*
X35082Y-35453D01*
X35171Y-35541D01*
X35287Y-35589D01*
X35412Y-35590D01*
X35528Y-35542D01*
X35616Y-35453D01*
X35664Y-35337D01*
X35665Y-35212D01*
X35617Y-35096D01*
X35528Y-35008D01*
X35412Y-34960D01*
X35339Y-34959D01*
X35115Y-34735D01*
X35115Y-32875D01*
X35098Y-32792D01*
X35098Y-32792D01*
X35052Y-32722D01*
X34952Y-32622D01*
X34882Y-32576D01*
X34800Y-32560D01*
X33475Y-32560D01*
X33392Y-32576D01*
X33322Y-32622D01*
X33172Y-32772D01*
X33126Y-32842D01*
X33110Y-32925D01*
X33110Y-35059D01*
X33068Y-34959D01*
X33068Y-31734D01*
X32949Y-31445D01*
X32728Y-31224D01*
X32440Y-31104D01*
X32128Y-31104D01*
X31839Y-31223D01*
X31618Y-31444D01*
X31498Y-31732D01*
X31498Y-32045D01*
X31617Y-32333D01*
X31838Y-32554D01*
X32126Y-32674D01*
X32438Y-32674D01*
X32727Y-32555D01*
X32948Y-32335D01*
X33068Y-32046D01*
X33068Y-31734D01*
X33068Y-34959D01*
X33045Y-34903D01*
X32897Y-34755D01*
X32704Y-34675D01*
X32496Y-34674D01*
X32303Y-34754D01*
X32155Y-34902D01*
X32099Y-35035D01*
X32045Y-34903D01*
X31897Y-34755D01*
X31704Y-34675D01*
X31496Y-34674D01*
X31303Y-34754D01*
X31286Y-34770D01*
X31286Y-31514D01*
X31336Y-31266D01*
X31465Y-31072D01*
X31661Y-30942D01*
X31906Y-30893D01*
X33614Y-30893D01*
X33555Y-30952D01*
X33475Y-31145D01*
X33474Y-31353D01*
X33554Y-31547D01*
X33702Y-31694D01*
X33895Y-31774D01*
X34103Y-31775D01*
X34297Y-31695D01*
X34444Y-31547D01*
X34500Y-31414D01*
X34554Y-31547D01*
X34702Y-31694D01*
X34895Y-31774D01*
X35103Y-31775D01*
X35297Y-31695D01*
X35444Y-31547D01*
X35500Y-31414D01*
X35554Y-31547D01*
X35702Y-31694D01*
X35895Y-31774D01*
X36103Y-31775D01*
X36297Y-31695D01*
X36444Y-31547D01*
X36494Y-31427D01*
X36517Y-31482D01*
X36588Y-31527D01*
X36865Y-31250D01*
X36860Y-31244D01*
X36994Y-31110D01*
X37000Y-31115D01*
X37005Y-31110D01*
X37139Y-31244D01*
X37134Y-31250D01*
X37411Y-31527D01*
X37482Y-31482D01*
X37499Y-31414D01*
X37554Y-31547D01*
X37692Y-31685D01*
X37262Y-31685D01*
X37277Y-31661D01*
X37000Y-31384D01*
X36722Y-31661D01*
X36737Y-31685D01*
X36625Y-31685D01*
X36504Y-31708D01*
X36402Y-31777D01*
X36152Y-32027D01*
X36083Y-32129D01*
X36060Y-32250D01*
X36060Y-32575D01*
X36083Y-32695D01*
X36152Y-32797D01*
X36254Y-32866D01*
X36375Y-32890D01*
X36495Y-32866D01*
X36597Y-32797D01*
X36666Y-32695D01*
X36690Y-32575D01*
X36690Y-32380D01*
X36755Y-32315D01*
X39283Y-32315D01*
X39250Y-32395D01*
X39249Y-32504D01*
X39291Y-32605D01*
X39369Y-32682D01*
X39470Y-32724D01*
X39579Y-32725D01*
X39680Y-32683D01*
X39757Y-32605D01*
X39799Y-32504D01*
X39800Y-32395D01*
X39766Y-32315D01*
X40881Y-32315D01*
X40865Y-32400D01*
X40865Y-32525D01*
X40865Y-32773D01*
X40825Y-32870D01*
X40824Y-32979D01*
X40866Y-33080D01*
X40944Y-33157D01*
X41045Y-33199D01*
X41154Y-33200D01*
X41255Y-33158D01*
X41332Y-33080D01*
X41374Y-32979D01*
X41375Y-32870D01*
X41335Y-32773D01*
X41335Y-32525D01*
X41335Y-32497D01*
X41517Y-32315D01*
X41525Y-32315D01*
X41575Y-32315D01*
X42545Y-32315D01*
X42505Y-32355D01*
X42460Y-32421D01*
X42444Y-32500D01*
X42445Y-32500D01*
X42445Y-33390D01*
X42330Y-33505D01*
X42330Y-33505D01*
X42230Y-33605D01*
X42185Y-33671D01*
X42169Y-33750D01*
X42170Y-33750D01*
X42170Y-34074D01*
X42169Y-34075D01*
X42185Y-34153D01*
X42230Y-34219D01*
X42249Y-34239D01*
X42249Y-34279D01*
X42291Y-34380D01*
X42368Y-34458D01*
X42470Y-34500D01*
X42579Y-34500D01*
X42680Y-34458D01*
X42758Y-34381D01*
X42800Y-34279D01*
X42800Y-34170D01*
X42790Y-34146D01*
X42793Y-34145D01*
X42870Y-34068D01*
X42912Y-33967D01*
X42912Y-33927D01*
X42920Y-33919D01*
X42920Y-35160D01*
X42860Y-35220D01*
X42593Y-35220D01*
X42658Y-35156D01*
X42700Y-35054D01*
X42700Y-34945D01*
X42658Y-34844D01*
X42581Y-34766D01*
X42479Y-34724D01*
X42370Y-34724D01*
X42269Y-34766D01*
X42191Y-34843D01*
X42167Y-34903D01*
X42131Y-34866D01*
X42029Y-34824D01*
X41920Y-34824D01*
X41819Y-34866D01*
X41762Y-34923D01*
X41706Y-34866D01*
X41604Y-34824D01*
X41495Y-34824D01*
X41394Y-34866D01*
X41316Y-34943D01*
X41274Y-35045D01*
X41274Y-35154D01*
X41301Y-35220D01*
X40927Y-35220D01*
X40955Y-35208D01*
X41032Y-35130D01*
X41074Y-35029D01*
X41075Y-34920D01*
X41033Y-34819D01*
X40955Y-34742D01*
X40854Y-34700D01*
X40745Y-34699D01*
X40644Y-34741D01*
X40567Y-34819D01*
X40525Y-34920D01*
X40524Y-35029D01*
X40566Y-35130D01*
X40644Y-35207D01*
X40672Y-35220D01*
X40375Y-35220D01*
X40375Y-34495D01*
X40333Y-34394D01*
X40255Y-34317D01*
X40154Y-34275D01*
X40045Y-34274D01*
X39944Y-34316D01*
X39872Y-34388D01*
X39779Y-34350D01*
X39670Y-34349D01*
X39569Y-34391D01*
X39492Y-34469D01*
X39479Y-34500D01*
X39370Y-34499D01*
X39269Y-34541D01*
X39192Y-34619D01*
X39150Y-34720D01*
X39149Y-34829D01*
X39191Y-34930D01*
X39269Y-35007D01*
X39370Y-35049D01*
X39479Y-35050D01*
X39580Y-35008D01*
X39657Y-34930D01*
X39670Y-34899D01*
X39779Y-34900D01*
X39800Y-34891D01*
X39799Y-34954D01*
X39841Y-35055D01*
X39919Y-35132D01*
X40020Y-35174D01*
X40129Y-35175D01*
X40230Y-35133D01*
X40307Y-35055D01*
X40349Y-34954D01*
X40350Y-34845D01*
X40308Y-34744D01*
X40301Y-34737D01*
X40332Y-34705D01*
X40374Y-34604D01*
X40375Y-34495D01*
X40375Y-35220D01*
X39259Y-35220D01*
X39057Y-35017D01*
X39057Y-35017D01*
X38394Y-34355D01*
X38328Y-34310D01*
X38250Y-34294D01*
X38249Y-34295D01*
X37859Y-34295D01*
X37825Y-34260D01*
X37825Y-32945D01*
X37783Y-32844D01*
X37706Y-32766D01*
X37604Y-32724D01*
X37495Y-32724D01*
X37394Y-32766D01*
X37316Y-32843D01*
X37274Y-32945D01*
X37274Y-33054D01*
X37316Y-33155D01*
X37393Y-33233D01*
X37495Y-33275D01*
X37604Y-33275D01*
X37705Y-33233D01*
X37783Y-33156D01*
X37825Y-33054D01*
X37825Y-32945D01*
X37825Y-34260D01*
X37633Y-34068D01*
X37650Y-34029D01*
X37650Y-33920D01*
X37608Y-33819D01*
X37531Y-33741D01*
X37429Y-33699D01*
X37320Y-33699D01*
X37219Y-33741D01*
X37141Y-33818D01*
X37099Y-33920D01*
X37099Y-34029D01*
X37141Y-34130D01*
X37184Y-34173D01*
X37185Y-34178D01*
X37230Y-34244D01*
X37242Y-34257D01*
X37242Y-34257D01*
X37288Y-34302D01*
X37194Y-34341D01*
X37116Y-34418D01*
X37074Y-34520D01*
X37074Y-34629D01*
X37116Y-34730D01*
X37193Y-34808D01*
X37295Y-34850D01*
X37335Y-34850D01*
X37355Y-34869D01*
X37355Y-34869D01*
X37394Y-34896D01*
X37421Y-34914D01*
X37421Y-34914D01*
X37500Y-34930D01*
X38065Y-34930D01*
X38735Y-35600D01*
X38634Y-35641D01*
X38597Y-35678D01*
X38583Y-35644D01*
X38505Y-35567D01*
X38404Y-35525D01*
X38295Y-35524D01*
X38194Y-35566D01*
X38117Y-35644D01*
X38075Y-35745D01*
X38074Y-35854D01*
X38116Y-35955D01*
X38194Y-36032D01*
X38295Y-36074D01*
X38404Y-36075D01*
X38505Y-36033D01*
X38542Y-35996D01*
X38556Y-36030D01*
X38634Y-36108D01*
X38735Y-36150D01*
X38844Y-36150D01*
X38945Y-36108D01*
X39023Y-36031D01*
X39065Y-35929D01*
X39065Y-35830D01*
X42006Y-35830D01*
X41992Y-35844D01*
X41950Y-35945D01*
X41949Y-36054D01*
X41991Y-36155D01*
X42069Y-36232D01*
X42170Y-36274D01*
X42279Y-36275D01*
X42380Y-36233D01*
X42457Y-36155D01*
X42499Y-36054D01*
X42500Y-35945D01*
X42458Y-35844D01*
X42443Y-35830D01*
X43049Y-35830D01*
X43050Y-35830D01*
X43050Y-35830D01*
X43128Y-35814D01*
X43194Y-35769D01*
X43451Y-35513D01*
X43477Y-35540D01*
X43426Y-35590D01*
X43373Y-35719D01*
X43373Y-35859D01*
X43426Y-35989D01*
X43477Y-36040D01*
X43426Y-36090D01*
X43373Y-36219D01*
X43373Y-36359D01*
X43426Y-36489D01*
X43477Y-36540D01*
X43426Y-36590D01*
X43373Y-36719D01*
X43373Y-36859D01*
X43426Y-36989D01*
X43477Y-37040D01*
X43426Y-37090D01*
X43404Y-37144D01*
X43383Y-37094D01*
X43306Y-37016D01*
X43204Y-36974D01*
X43095Y-36974D01*
X42994Y-37016D01*
X42916Y-37093D01*
X42874Y-37195D01*
X42874Y-37304D01*
X42916Y-37405D01*
X42993Y-37483D01*
X43095Y-37525D01*
X43204Y-37525D01*
X43305Y-37483D01*
X43383Y-37406D01*
X43387Y-37394D01*
X43426Y-37489D01*
X43477Y-37540D01*
X43426Y-37590D01*
X43373Y-37719D01*
X43373Y-37859D01*
X43426Y-37989D01*
X43477Y-38040D01*
X43426Y-38090D01*
X43373Y-38219D01*
X43373Y-38359D01*
X43426Y-38489D01*
X43477Y-38540D01*
X43426Y-38590D01*
X43373Y-38719D01*
X43373Y-38859D01*
X43426Y-38989D01*
X43477Y-39040D01*
X43426Y-39090D01*
X43373Y-39219D01*
X43373Y-39359D01*
X43426Y-39489D01*
X43477Y-39540D01*
X43426Y-39590D01*
X43373Y-39719D01*
X43373Y-39859D01*
X43426Y-39989D01*
X43477Y-40040D01*
X43426Y-40090D01*
X43373Y-40219D01*
X43373Y-40359D01*
X43426Y-40489D01*
X43477Y-40540D01*
X43426Y-40590D01*
X43373Y-40719D01*
X43373Y-40859D01*
X43426Y-40989D01*
X43477Y-41040D01*
X43426Y-41090D01*
X43373Y-41219D01*
X43373Y-41359D01*
X43426Y-41489D01*
X43477Y-41540D01*
G54D10*
G36*
X43870Y-44875D02*
X43845Y-44858D01*
X43725Y-44835D01*
X43604Y-44858D01*
X43502Y-44927D01*
X43094Y-45335D01*
X43043Y-45335D01*
X43065Y-45225D01*
X43041Y-45104D01*
X42972Y-45002D01*
X42870Y-44933D01*
X42750Y-44910D01*
X42230Y-44910D01*
X41397Y-44077D01*
X41295Y-44008D01*
X41174Y-43984D01*
X38480Y-43984D01*
X38122Y-43627D01*
X38020Y-43558D01*
X37900Y-43535D01*
X37200Y-43535D01*
X37079Y-43558D01*
X36977Y-43627D01*
X36844Y-43760D01*
X36622Y-43760D01*
X36625Y-43754D01*
X36625Y-43645D01*
X36583Y-43544D01*
X36506Y-43466D01*
X36404Y-43424D01*
X36295Y-43424D01*
X36194Y-43466D01*
X36116Y-43543D01*
X36074Y-43645D01*
X36074Y-43754D01*
X36077Y-43760D01*
X36050Y-43760D01*
X35205Y-43760D01*
X34890Y-43444D01*
X34890Y-43312D01*
X35198Y-43312D01*
X35204Y-43316D01*
X35325Y-43340D01*
X35445Y-43316D01*
X35451Y-43312D01*
X35923Y-43312D01*
X35943Y-43333D01*
X36045Y-43375D01*
X36154Y-43375D01*
X36255Y-43333D01*
X36276Y-43312D01*
X36773Y-43312D01*
X36793Y-43333D01*
X36895Y-43375D01*
X37004Y-43375D01*
X37105Y-43333D01*
X37183Y-43256D01*
X37225Y-43154D01*
X37225Y-43045D01*
X37183Y-42944D01*
X37179Y-42940D01*
X37302Y-42991D01*
X37376Y-42991D01*
X37374Y-42995D01*
X37374Y-43104D01*
X37416Y-43205D01*
X37493Y-43283D01*
X37595Y-43325D01*
X37637Y-43325D01*
X37696Y-43364D01*
X37696Y-43364D01*
X37759Y-43376D01*
X37774Y-43380D01*
X37774Y-43379D01*
X37775Y-43380D01*
X43590Y-43380D01*
X43870Y-43659D01*
X43870Y-44875D01*
X43870Y-44875D01*
G37*
G54D25*
X43870Y-44875D02*
X43845Y-44858D01*
X43725Y-44835D01*
X43604Y-44858D01*
X43502Y-44927D01*
X43094Y-45335D01*
X43043Y-45335D01*
X43065Y-45225D01*
X43041Y-45104D01*
X42972Y-45002D01*
X42870Y-44933D01*
X42750Y-44910D01*
X42230Y-44910D01*
X41397Y-44077D01*
X41295Y-44008D01*
X41174Y-43984D01*
X38480Y-43984D01*
X38122Y-43627D01*
X38020Y-43558D01*
X37900Y-43535D01*
X37200Y-43535D01*
X37079Y-43558D01*
X36977Y-43627D01*
X36844Y-43760D01*
X36622Y-43760D01*
X36625Y-43754D01*
X36625Y-43645D01*
X36583Y-43544D01*
X36506Y-43466D01*
X36404Y-43424D01*
X36295Y-43424D01*
X36194Y-43466D01*
X36116Y-43543D01*
X36074Y-43645D01*
X36074Y-43754D01*
X36077Y-43760D01*
X36050Y-43760D01*
X35205Y-43760D01*
X34890Y-43444D01*
X34890Y-43312D01*
X35198Y-43312D01*
X35204Y-43316D01*
X35325Y-43340D01*
X35445Y-43316D01*
X35451Y-43312D01*
X35923Y-43312D01*
X35943Y-43333D01*
X36045Y-43375D01*
X36154Y-43375D01*
X36255Y-43333D01*
X36276Y-43312D01*
X36773Y-43312D01*
X36793Y-43333D01*
X36895Y-43375D01*
X37004Y-43375D01*
X37105Y-43333D01*
X37183Y-43256D01*
X37225Y-43154D01*
X37225Y-43045D01*
X37183Y-42944D01*
X37179Y-42940D01*
X37302Y-42991D01*
X37376Y-42991D01*
X37374Y-42995D01*
X37374Y-43104D01*
X37416Y-43205D01*
X37493Y-43283D01*
X37595Y-43325D01*
X37637Y-43325D01*
X37696Y-43364D01*
X37696Y-43364D01*
X37759Y-43376D01*
X37774Y-43380D01*
X37774Y-43379D01*
X37775Y-43380D01*
X43590Y-43380D01*
X43870Y-43659D01*
X43870Y-44875D01*
G54D10*
G36*
X44758Y-47953D02*
X44724Y-47960D01*
X44697Y-47978D01*
X44657Y-48005D01*
X44657Y-48005D01*
X44430Y-48231D01*
X44381Y-48211D01*
X44202Y-48211D01*
X44036Y-48279D01*
X43909Y-48406D01*
X43841Y-48571D01*
X43840Y-48750D01*
X43909Y-48916D01*
X44021Y-49028D01*
X43577Y-49028D01*
X43688Y-48916D01*
X43757Y-48751D01*
X43757Y-48572D01*
X43757Y-47548D01*
X43689Y-47383D01*
X43562Y-47256D01*
X43397Y-47187D01*
X43217Y-47187D01*
X43052Y-47255D01*
X42925Y-47382D01*
X42856Y-47547D01*
X42856Y-47726D01*
X42925Y-47892D01*
X43051Y-48019D01*
X43217Y-48087D01*
X43396Y-48088D01*
X43561Y-48019D01*
X43688Y-47893D01*
X43757Y-47727D01*
X43757Y-47548D01*
X43757Y-48572D01*
X43689Y-48406D01*
X43562Y-48279D01*
X43397Y-48211D01*
X43217Y-48211D01*
X43052Y-48279D01*
X42925Y-48406D01*
X42856Y-48571D01*
X42856Y-48750D01*
X42925Y-48916D01*
X43036Y-49028D01*
X42655Y-49028D01*
X42655Y-48302D01*
X42655Y-47681D01*
X42617Y-47494D01*
X42511Y-47335D01*
X42352Y-47229D01*
X42165Y-47191D01*
X41977Y-47229D01*
X41819Y-47335D01*
X41712Y-47494D01*
X41675Y-47681D01*
X41675Y-48302D01*
X41712Y-48490D01*
X41819Y-48649D01*
X41977Y-48755D01*
X42165Y-48792D01*
X42352Y-48755D01*
X42511Y-48649D01*
X42617Y-48490D01*
X42655Y-48302D01*
X42655Y-49028D01*
X41929Y-49028D01*
X41858Y-49042D01*
X41798Y-49082D01*
X41758Y-49141D01*
X41744Y-49212D01*
X41744Y-52343D01*
X41725Y-52440D01*
X41680Y-52507D01*
X41613Y-52552D01*
X41517Y-52571D01*
X41375Y-52571D01*
X41375Y-49095D01*
X41333Y-48994D01*
X41256Y-48916D01*
X41154Y-48874D01*
X41045Y-48874D01*
X40944Y-48916D01*
X40866Y-48993D01*
X40824Y-49095D01*
X40824Y-49204D01*
X40866Y-49305D01*
X40943Y-49383D01*
X41045Y-49425D01*
X41154Y-49425D01*
X41255Y-49383D01*
X41333Y-49306D01*
X41375Y-49204D01*
X41375Y-49095D01*
X41375Y-52571D01*
X40741Y-52571D01*
X40741Y-52524D01*
X40741Y-51714D01*
X40717Y-51657D01*
X40674Y-51613D01*
X40617Y-51590D01*
X40555Y-51589D01*
X40029Y-51589D01*
X40068Y-51551D01*
X40119Y-51428D01*
X40119Y-51296D01*
X40069Y-51174D01*
X39975Y-51081D01*
X39853Y-51030D01*
X39721Y-51030D01*
X39599Y-51080D01*
X39505Y-51174D01*
X39455Y-51296D01*
X39455Y-51428D01*
X39505Y-51550D01*
X39598Y-51644D01*
X39642Y-51662D01*
X39621Y-51714D01*
X39621Y-51775D01*
X39621Y-52571D01*
X38700Y-52571D01*
X38700Y-48645D01*
X38658Y-48544D01*
X38581Y-48466D01*
X38479Y-48424D01*
X38429Y-48424D01*
X38530Y-48383D01*
X38608Y-48306D01*
X38650Y-48204D01*
X38650Y-48095D01*
X38608Y-47994D01*
X38531Y-47916D01*
X38429Y-47874D01*
X38320Y-47874D01*
X38219Y-47916D01*
X38141Y-47993D01*
X38099Y-48095D01*
X38099Y-48204D01*
X38141Y-48305D01*
X38218Y-48383D01*
X38320Y-48425D01*
X38370Y-48425D01*
X38269Y-48466D01*
X38191Y-48543D01*
X38149Y-48645D01*
X38149Y-48754D01*
X38191Y-48855D01*
X38268Y-48933D01*
X38370Y-48975D01*
X38479Y-48975D01*
X38580Y-48933D01*
X38658Y-48856D01*
X38700Y-48754D01*
X38700Y-48645D01*
X38700Y-52571D01*
X38378Y-52571D01*
X38378Y-52524D01*
X38378Y-51714D01*
X38357Y-51662D01*
X38400Y-51644D01*
X38494Y-51551D01*
X38544Y-51428D01*
X38544Y-51296D01*
X38494Y-51174D01*
X38401Y-51081D01*
X38278Y-51030D01*
X38146Y-51030D01*
X38024Y-51080D01*
X37931Y-51174D01*
X37880Y-51296D01*
X37880Y-51428D01*
X37930Y-51550D01*
X37970Y-51589D01*
X37700Y-51589D01*
X37700Y-48520D01*
X37658Y-48419D01*
X37581Y-48341D01*
X37479Y-48299D01*
X37370Y-48299D01*
X37269Y-48341D01*
X37197Y-48413D01*
X37104Y-48374D01*
X36995Y-48374D01*
X36894Y-48416D01*
X36816Y-48493D01*
X36774Y-48595D01*
X36774Y-48704D01*
X36816Y-48805D01*
X36893Y-48883D01*
X36995Y-48925D01*
X37104Y-48925D01*
X37205Y-48883D01*
X37277Y-48811D01*
X37370Y-48850D01*
X37479Y-48850D01*
X37580Y-48808D01*
X37658Y-48731D01*
X37700Y-48629D01*
X37700Y-48520D01*
X37700Y-51589D01*
X37383Y-51589D01*
X37326Y-51613D01*
X37282Y-51657D01*
X37258Y-51714D01*
X37258Y-51775D01*
X37258Y-52571D01*
X36650Y-52571D01*
X36650Y-48645D01*
X36608Y-48544D01*
X36531Y-48466D01*
X36429Y-48424D01*
X36320Y-48424D01*
X36219Y-48466D01*
X36141Y-48543D01*
X36099Y-48645D01*
X36099Y-48754D01*
X36141Y-48855D01*
X36218Y-48933D01*
X36320Y-48975D01*
X36429Y-48975D01*
X36530Y-48933D01*
X36608Y-48856D01*
X36650Y-48754D01*
X36650Y-48645D01*
X36650Y-52571D01*
X36450Y-52571D01*
X36450Y-49795D01*
X36408Y-49694D01*
X36331Y-49616D01*
X36229Y-49574D01*
X36120Y-49574D01*
X36019Y-49616D01*
X35941Y-49693D01*
X35902Y-49788D01*
X35880Y-49767D01*
X35779Y-49725D01*
X35742Y-49725D01*
X35742Y-47574D01*
X35700Y-47473D01*
X35623Y-47395D01*
X35521Y-47353D01*
X35412Y-47353D01*
X35311Y-47395D01*
X35233Y-47472D01*
X35191Y-47574D01*
X35191Y-47683D01*
X35233Y-47784D01*
X35310Y-47862D01*
X35412Y-47904D01*
X35521Y-47904D01*
X35622Y-47862D01*
X35700Y-47785D01*
X35742Y-47683D01*
X35742Y-47574D01*
X35742Y-49725D01*
X35670Y-49724D01*
X35569Y-49766D01*
X35492Y-49844D01*
X35450Y-49945D01*
X35449Y-50054D01*
X35491Y-50155D01*
X35569Y-50232D01*
X35670Y-50274D01*
X35779Y-50275D01*
X35880Y-50233D01*
X35957Y-50155D01*
X35997Y-50061D01*
X36018Y-50083D01*
X36120Y-50125D01*
X36229Y-50125D01*
X36330Y-50083D01*
X36408Y-50006D01*
X36450Y-49904D01*
X36450Y-49795D01*
X36450Y-52571D01*
X34975Y-52571D01*
X34975Y-50970D01*
X34933Y-50869D01*
X34855Y-50792D01*
X34754Y-50750D01*
X34645Y-50749D01*
X34544Y-50791D01*
X34467Y-50869D01*
X34425Y-50970D01*
X34424Y-51079D01*
X34466Y-51180D01*
X34544Y-51257D01*
X34645Y-51299D01*
X34754Y-51300D01*
X34855Y-51258D01*
X34932Y-51180D01*
X34974Y-51079D01*
X34975Y-50970D01*
X34975Y-52571D01*
X33068Y-52571D01*
X33068Y-51419D01*
X32949Y-51130D01*
X32728Y-50909D01*
X32600Y-50856D01*
X32600Y-49645D01*
X32558Y-49544D01*
X32480Y-49467D01*
X32379Y-49425D01*
X32270Y-49424D01*
X32169Y-49466D01*
X32092Y-49544D01*
X32050Y-49645D01*
X32049Y-49754D01*
X32091Y-49855D01*
X32169Y-49932D01*
X32270Y-49974D01*
X32379Y-49975D01*
X32480Y-49933D01*
X32557Y-49855D01*
X32599Y-49754D01*
X32600Y-49645D01*
X32600Y-50856D01*
X32440Y-50789D01*
X32128Y-50789D01*
X31839Y-50908D01*
X31618Y-51129D01*
X31498Y-51417D01*
X31498Y-51730D01*
X31617Y-52018D01*
X31838Y-52239D01*
X32126Y-52359D01*
X32438Y-52359D01*
X32727Y-52240D01*
X32948Y-52020D01*
X33068Y-51731D01*
X33068Y-51419D01*
X33068Y-52571D01*
X31906Y-52571D01*
X31661Y-52522D01*
X31465Y-52391D01*
X31336Y-52198D01*
X31286Y-51950D01*
X31286Y-48629D01*
X31302Y-48644D01*
X31495Y-48724D01*
X31703Y-48725D01*
X31897Y-48645D01*
X32044Y-48497D01*
X32100Y-48364D01*
X32154Y-48497D01*
X32302Y-48644D01*
X32495Y-48724D01*
X32703Y-48725D01*
X32897Y-48645D01*
X33044Y-48497D01*
X33124Y-48304D01*
X33125Y-48096D01*
X33045Y-47903D01*
X32897Y-47755D01*
X32764Y-47699D01*
X32897Y-47645D01*
X33044Y-47497D01*
X33124Y-47304D01*
X33125Y-47096D01*
X33045Y-46903D01*
X32897Y-46755D01*
X32764Y-46699D01*
X32897Y-46645D01*
X33044Y-46497D01*
X33124Y-46304D01*
X33125Y-46096D01*
X33045Y-45903D01*
X32897Y-45755D01*
X32764Y-45699D01*
X32897Y-45645D01*
X33044Y-45497D01*
X33110Y-45340D01*
X33110Y-45800D01*
X33126Y-45882D01*
X33172Y-45952D01*
X33722Y-46502D01*
X33792Y-46548D01*
X33792Y-46548D01*
X33875Y-46565D01*
X37350Y-46565D01*
X38137Y-47352D01*
X38207Y-47398D01*
X38207Y-47398D01*
X38290Y-47415D01*
X39000Y-47415D01*
X39018Y-47433D01*
X39120Y-47475D01*
X39229Y-47475D01*
X39330Y-47433D01*
X39408Y-47356D01*
X39450Y-47254D01*
X39450Y-47145D01*
X39408Y-47044D01*
X39331Y-46966D01*
X39229Y-46924D01*
X39120Y-46924D01*
X39019Y-46966D01*
X39001Y-46985D01*
X38379Y-46985D01*
X37592Y-46197D01*
X37522Y-46151D01*
X37440Y-46135D01*
X36997Y-46135D01*
X37000Y-46129D01*
X37000Y-46020D01*
X36958Y-45919D01*
X36881Y-45841D01*
X36779Y-45799D01*
X36670Y-45799D01*
X36625Y-45818D01*
X36625Y-45295D01*
X36583Y-45194D01*
X36506Y-45116D01*
X36404Y-45074D01*
X36295Y-45074D01*
X36194Y-45116D01*
X36116Y-45193D01*
X36074Y-45295D01*
X36074Y-45404D01*
X36116Y-45505D01*
X36193Y-45583D01*
X36295Y-45625D01*
X36404Y-45625D01*
X36505Y-45583D01*
X36583Y-45506D01*
X36625Y-45404D01*
X36625Y-45295D01*
X36625Y-45818D01*
X36569Y-45841D01*
X36491Y-45918D01*
X36449Y-46020D01*
X36449Y-46129D01*
X36452Y-46135D01*
X35732Y-46135D01*
X35742Y-46110D01*
X35742Y-46001D01*
X35700Y-45900D01*
X35623Y-45822D01*
X35521Y-45780D01*
X35412Y-45780D01*
X35311Y-45822D01*
X35233Y-45899D01*
X35191Y-46001D01*
X35191Y-46110D01*
X35202Y-46135D01*
X34952Y-46135D01*
X34975Y-46079D01*
X34975Y-45970D01*
X34933Y-45869D01*
X34856Y-45791D01*
X34754Y-45749D01*
X34645Y-45749D01*
X34544Y-45791D01*
X34466Y-45868D01*
X34424Y-45970D01*
X34424Y-46079D01*
X34447Y-46135D01*
X33964Y-46135D01*
X33540Y-45710D01*
X33540Y-43312D01*
X33810Y-43312D01*
X33810Y-43975D01*
X33833Y-44095D01*
X33902Y-44197D01*
X34427Y-44722D01*
X34427Y-44722D01*
X34495Y-44768D01*
X34529Y-44791D01*
X34529Y-44791D01*
X34649Y-44814D01*
X34650Y-44815D01*
X34911Y-44815D01*
X34866Y-44859D01*
X34824Y-44961D01*
X34824Y-45070D01*
X34829Y-45080D01*
X34754Y-45049D01*
X34645Y-45049D01*
X34544Y-45091D01*
X34466Y-45168D01*
X34424Y-45270D01*
X34424Y-45379D01*
X34466Y-45480D01*
X34543Y-45558D01*
X34645Y-45600D01*
X34754Y-45600D01*
X34855Y-45558D01*
X34933Y-45481D01*
X34975Y-45379D01*
X34975Y-45270D01*
X34970Y-45260D01*
X35045Y-45291D01*
X35154Y-45291D01*
X35255Y-45249D01*
X35333Y-45172D01*
X35375Y-45070D01*
X35375Y-44961D01*
X35333Y-44860D01*
X35288Y-44815D01*
X37119Y-44815D01*
X37227Y-44922D01*
X37329Y-44991D01*
X37381Y-45001D01*
X37344Y-45016D01*
X37266Y-45093D01*
X37224Y-45195D01*
X37224Y-45304D01*
X37266Y-45405D01*
X37311Y-45450D01*
X37241Y-45518D01*
X37199Y-45620D01*
X37199Y-45729D01*
X37241Y-45830D01*
X37318Y-45908D01*
X37420Y-45950D01*
X37529Y-45950D01*
X37630Y-45908D01*
X37674Y-45864D01*
X37693Y-45883D01*
X37795Y-45925D01*
X37904Y-45925D01*
X37999Y-45885D01*
X37974Y-45945D01*
X37974Y-46054D01*
X38016Y-46155D01*
X38093Y-46233D01*
X38195Y-46275D01*
X38304Y-46275D01*
X38405Y-46233D01*
X38483Y-46156D01*
X38525Y-46054D01*
X38525Y-45945D01*
X38483Y-45844D01*
X38406Y-45766D01*
X38304Y-45724D01*
X38195Y-45724D01*
X38100Y-45764D01*
X38125Y-45704D01*
X38125Y-45595D01*
X38083Y-45494D01*
X38051Y-45462D01*
X38083Y-45431D01*
X38125Y-45329D01*
X38125Y-45220D01*
X38083Y-45119D01*
X38006Y-45041D01*
X37941Y-45015D01*
X40481Y-45015D01*
X40456Y-45075D01*
X40456Y-45100D01*
X40322Y-45234D01*
X40276Y-45304D01*
X40260Y-45387D01*
X40260Y-45446D01*
X40260Y-47635D01*
X39513Y-48381D01*
X39475Y-48440D01*
X39475Y-46545D01*
X39433Y-46444D01*
X39389Y-46400D01*
X39408Y-46381D01*
X39450Y-46279D01*
X39450Y-46170D01*
X39408Y-46069D01*
X39361Y-46022D01*
X39400Y-45929D01*
X39400Y-45820D01*
X39358Y-45719D01*
X39281Y-45641D01*
X39179Y-45599D01*
X39070Y-45599D01*
X38969Y-45641D01*
X38891Y-45718D01*
X38849Y-45820D01*
X38849Y-45929D01*
X38891Y-46030D01*
X38938Y-46077D01*
X38899Y-46170D01*
X38899Y-46279D01*
X38908Y-46299D01*
X38820Y-46299D01*
X38719Y-46341D01*
X38641Y-46418D01*
X38599Y-46520D01*
X38599Y-46629D01*
X38641Y-46730D01*
X38718Y-46808D01*
X38820Y-46850D01*
X38929Y-46850D01*
X39022Y-46811D01*
X39043Y-46833D01*
X39145Y-46875D01*
X39254Y-46875D01*
X39355Y-46833D01*
X39433Y-46756D01*
X39475Y-46654D01*
X39475Y-46545D01*
X39475Y-48440D01*
X39467Y-48451D01*
X39451Y-48534D01*
X39451Y-48650D01*
X39451Y-48825D01*
X39432Y-48843D01*
X39390Y-48945D01*
X39390Y-49054D01*
X39432Y-49155D01*
X39509Y-49233D01*
X39607Y-49273D01*
X40240Y-49906D01*
X40240Y-50023D01*
X40199Y-50120D01*
X40199Y-50229D01*
X40241Y-50330D01*
X40318Y-50408D01*
X40420Y-50450D01*
X40529Y-50450D01*
X40630Y-50408D01*
X40708Y-50331D01*
X40750Y-50229D01*
X40750Y-50120D01*
X40710Y-50023D01*
X40710Y-49809D01*
X40709Y-49808D01*
X40692Y-49719D01*
X40641Y-49642D01*
X40641Y-49642D01*
X40625Y-49626D01*
X40625Y-48520D01*
X40583Y-48419D01*
X40506Y-48341D01*
X40404Y-48299D01*
X40295Y-48299D01*
X40194Y-48341D01*
X40116Y-48418D01*
X40074Y-48520D01*
X40074Y-48629D01*
X40116Y-48730D01*
X40193Y-48808D01*
X40295Y-48850D01*
X40404Y-48850D01*
X40505Y-48808D01*
X40583Y-48731D01*
X40625Y-48629D01*
X40625Y-48520D01*
X40625Y-49626D01*
X39939Y-48940D01*
X39899Y-48844D01*
X39881Y-48826D01*
X39881Y-48650D01*
X39881Y-48623D01*
X40627Y-47877D01*
X40627Y-47877D01*
X40627Y-47877D01*
X40650Y-47842D01*
X40673Y-47807D01*
X40673Y-47807D01*
X40673Y-47807D01*
X40689Y-47725D01*
X40690Y-47725D01*
X40690Y-47637D01*
X40720Y-47650D01*
X40829Y-47650D01*
X40930Y-47608D01*
X41008Y-47531D01*
X41050Y-47429D01*
X41050Y-47320D01*
X41008Y-47219D01*
X40931Y-47141D01*
X40829Y-47099D01*
X40720Y-47099D01*
X40690Y-47112D01*
X40690Y-45476D01*
X40760Y-45405D01*
X40786Y-45405D01*
X40887Y-45363D01*
X40965Y-45286D01*
X40987Y-45232D01*
X41627Y-45872D01*
X41729Y-45941D01*
X41850Y-45965D01*
X43225Y-45965D01*
X43345Y-45941D01*
X43447Y-45872D01*
X43870Y-45450D01*
X43870Y-45540D01*
X43015Y-46395D01*
X42784Y-46395D01*
X42756Y-46366D01*
X42654Y-46324D01*
X42545Y-46324D01*
X42444Y-46366D01*
X42366Y-46443D01*
X42324Y-46545D01*
X42324Y-46654D01*
X42366Y-46755D01*
X42443Y-46833D01*
X42545Y-46875D01*
X42654Y-46875D01*
X42755Y-46833D01*
X42784Y-46805D01*
X43099Y-46805D01*
X43100Y-46805D01*
X43100Y-46805D01*
X43178Y-46789D01*
X43244Y-46744D01*
X44086Y-45903D01*
X44086Y-47235D01*
X44036Y-47255D01*
X43909Y-47382D01*
X43841Y-47547D01*
X43840Y-47726D01*
X43909Y-47892D01*
X44035Y-48019D01*
X44201Y-48087D01*
X44380Y-48088D01*
X44546Y-48019D01*
X44672Y-47893D01*
X44684Y-47863D01*
X44696Y-47892D01*
X44758Y-47953D01*
X44758Y-47953D01*
G37*
G54D25*
X44758Y-47953D02*
X44724Y-47960D01*
X44697Y-47978D01*
X44657Y-48005D01*
X44657Y-48005D01*
X44430Y-48231D01*
X44381Y-48211D01*
X44202Y-48211D01*
X44036Y-48279D01*
X43909Y-48406D01*
X43841Y-48571D01*
X43840Y-48750D01*
X43909Y-48916D01*
X44021Y-49028D01*
X43577Y-49028D01*
X43688Y-48916D01*
X43757Y-48751D01*
X43757Y-48572D01*
X43757Y-47548D01*
X43689Y-47383D01*
X43562Y-47256D01*
X43397Y-47187D01*
X43217Y-47187D01*
X43052Y-47255D01*
X42925Y-47382D01*
X42856Y-47547D01*
X42856Y-47726D01*
X42925Y-47892D01*
X43051Y-48019D01*
X43217Y-48087D01*
X43396Y-48088D01*
X43561Y-48019D01*
X43688Y-47893D01*
X43757Y-47727D01*
X43757Y-47548D01*
X43757Y-48572D01*
X43689Y-48406D01*
X43562Y-48279D01*
X43397Y-48211D01*
X43217Y-48211D01*
X43052Y-48279D01*
X42925Y-48406D01*
X42856Y-48571D01*
X42856Y-48750D01*
X42925Y-48916D01*
X43036Y-49028D01*
X42655Y-49028D01*
X42655Y-48302D01*
X42655Y-47681D01*
X42617Y-47494D01*
X42511Y-47335D01*
X42352Y-47229D01*
X42165Y-47191D01*
X41977Y-47229D01*
X41819Y-47335D01*
X41712Y-47494D01*
X41675Y-47681D01*
X41675Y-48302D01*
X41712Y-48490D01*
X41819Y-48649D01*
X41977Y-48755D01*
X42165Y-48792D01*
X42352Y-48755D01*
X42511Y-48649D01*
X42617Y-48490D01*
X42655Y-48302D01*
X42655Y-49028D01*
X41929Y-49028D01*
X41858Y-49042D01*
X41798Y-49082D01*
X41758Y-49141D01*
X41744Y-49212D01*
X41744Y-52343D01*
X41725Y-52440D01*
X41680Y-52507D01*
X41613Y-52552D01*
X41517Y-52571D01*
X41375Y-52571D01*
X41375Y-49095D01*
X41333Y-48994D01*
X41256Y-48916D01*
X41154Y-48874D01*
X41045Y-48874D01*
X40944Y-48916D01*
X40866Y-48993D01*
X40824Y-49095D01*
X40824Y-49204D01*
X40866Y-49305D01*
X40943Y-49383D01*
X41045Y-49425D01*
X41154Y-49425D01*
X41255Y-49383D01*
X41333Y-49306D01*
X41375Y-49204D01*
X41375Y-49095D01*
X41375Y-52571D01*
X40741Y-52571D01*
X40741Y-52524D01*
X40741Y-51714D01*
X40717Y-51657D01*
X40674Y-51613D01*
X40617Y-51590D01*
X40555Y-51589D01*
X40029Y-51589D01*
X40068Y-51551D01*
X40119Y-51428D01*
X40119Y-51296D01*
X40069Y-51174D01*
X39975Y-51081D01*
X39853Y-51030D01*
X39721Y-51030D01*
X39599Y-51080D01*
X39505Y-51174D01*
X39455Y-51296D01*
X39455Y-51428D01*
X39505Y-51550D01*
X39598Y-51644D01*
X39642Y-51662D01*
X39621Y-51714D01*
X39621Y-51775D01*
X39621Y-52571D01*
X38700Y-52571D01*
X38700Y-48645D01*
X38658Y-48544D01*
X38581Y-48466D01*
X38479Y-48424D01*
X38429Y-48424D01*
X38530Y-48383D01*
X38608Y-48306D01*
X38650Y-48204D01*
X38650Y-48095D01*
X38608Y-47994D01*
X38531Y-47916D01*
X38429Y-47874D01*
X38320Y-47874D01*
X38219Y-47916D01*
X38141Y-47993D01*
X38099Y-48095D01*
X38099Y-48204D01*
X38141Y-48305D01*
X38218Y-48383D01*
X38320Y-48425D01*
X38370Y-48425D01*
X38269Y-48466D01*
X38191Y-48543D01*
X38149Y-48645D01*
X38149Y-48754D01*
X38191Y-48855D01*
X38268Y-48933D01*
X38370Y-48975D01*
X38479Y-48975D01*
X38580Y-48933D01*
X38658Y-48856D01*
X38700Y-48754D01*
X38700Y-48645D01*
X38700Y-52571D01*
X38378Y-52571D01*
X38378Y-52524D01*
X38378Y-51714D01*
X38357Y-51662D01*
X38400Y-51644D01*
X38494Y-51551D01*
X38544Y-51428D01*
X38544Y-51296D01*
X38494Y-51174D01*
X38401Y-51081D01*
X38278Y-51030D01*
X38146Y-51030D01*
X38024Y-51080D01*
X37931Y-51174D01*
X37880Y-51296D01*
X37880Y-51428D01*
X37930Y-51550D01*
X37970Y-51589D01*
X37700Y-51589D01*
X37700Y-48520D01*
X37658Y-48419D01*
X37581Y-48341D01*
X37479Y-48299D01*
X37370Y-48299D01*
X37269Y-48341D01*
X37197Y-48413D01*
X37104Y-48374D01*
X36995Y-48374D01*
X36894Y-48416D01*
X36816Y-48493D01*
X36774Y-48595D01*
X36774Y-48704D01*
X36816Y-48805D01*
X36893Y-48883D01*
X36995Y-48925D01*
X37104Y-48925D01*
X37205Y-48883D01*
X37277Y-48811D01*
X37370Y-48850D01*
X37479Y-48850D01*
X37580Y-48808D01*
X37658Y-48731D01*
X37700Y-48629D01*
X37700Y-48520D01*
X37700Y-51589D01*
X37383Y-51589D01*
X37326Y-51613D01*
X37282Y-51657D01*
X37258Y-51714D01*
X37258Y-51775D01*
X37258Y-52571D01*
X36650Y-52571D01*
X36650Y-48645D01*
X36608Y-48544D01*
X36531Y-48466D01*
X36429Y-48424D01*
X36320Y-48424D01*
X36219Y-48466D01*
X36141Y-48543D01*
X36099Y-48645D01*
X36099Y-48754D01*
X36141Y-48855D01*
X36218Y-48933D01*
X36320Y-48975D01*
X36429Y-48975D01*
X36530Y-48933D01*
X36608Y-48856D01*
X36650Y-48754D01*
X36650Y-48645D01*
X36650Y-52571D01*
X36450Y-52571D01*
X36450Y-49795D01*
X36408Y-49694D01*
X36331Y-49616D01*
X36229Y-49574D01*
X36120Y-49574D01*
X36019Y-49616D01*
X35941Y-49693D01*
X35902Y-49788D01*
X35880Y-49767D01*
X35779Y-49725D01*
X35742Y-49725D01*
X35742Y-47574D01*
X35700Y-47473D01*
X35623Y-47395D01*
X35521Y-47353D01*
X35412Y-47353D01*
X35311Y-47395D01*
X35233Y-47472D01*
X35191Y-47574D01*
X35191Y-47683D01*
X35233Y-47784D01*
X35310Y-47862D01*
X35412Y-47904D01*
X35521Y-47904D01*
X35622Y-47862D01*
X35700Y-47785D01*
X35742Y-47683D01*
X35742Y-47574D01*
X35742Y-49725D01*
X35670Y-49724D01*
X35569Y-49766D01*
X35492Y-49844D01*
X35450Y-49945D01*
X35449Y-50054D01*
X35491Y-50155D01*
X35569Y-50232D01*
X35670Y-50274D01*
X35779Y-50275D01*
X35880Y-50233D01*
X35957Y-50155D01*
X35997Y-50061D01*
X36018Y-50083D01*
X36120Y-50125D01*
X36229Y-50125D01*
X36330Y-50083D01*
X36408Y-50006D01*
X36450Y-49904D01*
X36450Y-49795D01*
X36450Y-52571D01*
X34975Y-52571D01*
X34975Y-50970D01*
X34933Y-50869D01*
X34855Y-50792D01*
X34754Y-50750D01*
X34645Y-50749D01*
X34544Y-50791D01*
X34467Y-50869D01*
X34425Y-50970D01*
X34424Y-51079D01*
X34466Y-51180D01*
X34544Y-51257D01*
X34645Y-51299D01*
X34754Y-51300D01*
X34855Y-51258D01*
X34932Y-51180D01*
X34974Y-51079D01*
X34975Y-50970D01*
X34975Y-52571D01*
X33068Y-52571D01*
X33068Y-51419D01*
X32949Y-51130D01*
X32728Y-50909D01*
X32600Y-50856D01*
X32600Y-49645D01*
X32558Y-49544D01*
X32480Y-49467D01*
X32379Y-49425D01*
X32270Y-49424D01*
X32169Y-49466D01*
X32092Y-49544D01*
X32050Y-49645D01*
X32049Y-49754D01*
X32091Y-49855D01*
X32169Y-49932D01*
X32270Y-49974D01*
X32379Y-49975D01*
X32480Y-49933D01*
X32557Y-49855D01*
X32599Y-49754D01*
X32600Y-49645D01*
X32600Y-50856D01*
X32440Y-50789D01*
X32128Y-50789D01*
X31839Y-50908D01*
X31618Y-51129D01*
X31498Y-51417D01*
X31498Y-51730D01*
X31617Y-52018D01*
X31838Y-52239D01*
X32126Y-52359D01*
X32438Y-52359D01*
X32727Y-52240D01*
X32948Y-52020D01*
X33068Y-51731D01*
X33068Y-51419D01*
X33068Y-52571D01*
X31906Y-52571D01*
X31661Y-52522D01*
X31465Y-52391D01*
X31336Y-52198D01*
X31286Y-51950D01*
X31286Y-48629D01*
X31302Y-48644D01*
X31495Y-48724D01*
X31703Y-48725D01*
X31897Y-48645D01*
X32044Y-48497D01*
X32100Y-48364D01*
X32154Y-48497D01*
X32302Y-48644D01*
X32495Y-48724D01*
X32703Y-48725D01*
X32897Y-48645D01*
X33044Y-48497D01*
X33124Y-48304D01*
X33125Y-48096D01*
X33045Y-47903D01*
X32897Y-47755D01*
X32764Y-47699D01*
X32897Y-47645D01*
X33044Y-47497D01*
X33124Y-47304D01*
X33125Y-47096D01*
X33045Y-46903D01*
X32897Y-46755D01*
X32764Y-46699D01*
X32897Y-46645D01*
X33044Y-46497D01*
X33124Y-46304D01*
X33125Y-46096D01*
X33045Y-45903D01*
X32897Y-45755D01*
X32764Y-45699D01*
X32897Y-45645D01*
X33044Y-45497D01*
X33110Y-45340D01*
X33110Y-45800D01*
X33126Y-45882D01*
X33172Y-45952D01*
X33722Y-46502D01*
X33792Y-46548D01*
X33792Y-46548D01*
X33875Y-46565D01*
X37350Y-46565D01*
X38137Y-47352D01*
X38207Y-47398D01*
X38207Y-47398D01*
X38290Y-47415D01*
X39000Y-47415D01*
X39018Y-47433D01*
X39120Y-47475D01*
X39229Y-47475D01*
X39330Y-47433D01*
X39408Y-47356D01*
X39450Y-47254D01*
X39450Y-47145D01*
X39408Y-47044D01*
X39331Y-46966D01*
X39229Y-46924D01*
X39120Y-46924D01*
X39019Y-46966D01*
X39001Y-46985D01*
X38379Y-46985D01*
X37592Y-46197D01*
X37522Y-46151D01*
X37440Y-46135D01*
X36997Y-46135D01*
X37000Y-46129D01*
X37000Y-46020D01*
X36958Y-45919D01*
X36881Y-45841D01*
X36779Y-45799D01*
X36670Y-45799D01*
X36625Y-45818D01*
X36625Y-45295D01*
X36583Y-45194D01*
X36506Y-45116D01*
X36404Y-45074D01*
X36295Y-45074D01*
X36194Y-45116D01*
X36116Y-45193D01*
X36074Y-45295D01*
X36074Y-45404D01*
X36116Y-45505D01*
X36193Y-45583D01*
X36295Y-45625D01*
X36404Y-45625D01*
X36505Y-45583D01*
X36583Y-45506D01*
X36625Y-45404D01*
X36625Y-45295D01*
X36625Y-45818D01*
X36569Y-45841D01*
X36491Y-45918D01*
X36449Y-46020D01*
X36449Y-46129D01*
X36452Y-46135D01*
X35732Y-46135D01*
X35742Y-46110D01*
X35742Y-46001D01*
X35700Y-45900D01*
X35623Y-45822D01*
X35521Y-45780D01*
X35412Y-45780D01*
X35311Y-45822D01*
X35233Y-45899D01*
X35191Y-46001D01*
X35191Y-46110D01*
X35202Y-46135D01*
X34952Y-46135D01*
X34975Y-46079D01*
X34975Y-45970D01*
X34933Y-45869D01*
X34856Y-45791D01*
X34754Y-45749D01*
X34645Y-45749D01*
X34544Y-45791D01*
X34466Y-45868D01*
X34424Y-45970D01*
X34424Y-46079D01*
X34447Y-46135D01*
X33964Y-46135D01*
X33540Y-45710D01*
X33540Y-43312D01*
X33810Y-43312D01*
X33810Y-43975D01*
X33833Y-44095D01*
X33902Y-44197D01*
X34427Y-44722D01*
X34427Y-44722D01*
X34495Y-44768D01*
X34529Y-44791D01*
X34529Y-44791D01*
X34649Y-44814D01*
X34650Y-44815D01*
X34911Y-44815D01*
X34866Y-44859D01*
X34824Y-44961D01*
X34824Y-45070D01*
X34829Y-45080D01*
X34754Y-45049D01*
X34645Y-45049D01*
X34544Y-45091D01*
X34466Y-45168D01*
X34424Y-45270D01*
X34424Y-45379D01*
X34466Y-45480D01*
X34543Y-45558D01*
X34645Y-45600D01*
X34754Y-45600D01*
X34855Y-45558D01*
X34933Y-45481D01*
X34975Y-45379D01*
X34975Y-45270D01*
X34970Y-45260D01*
X35045Y-45291D01*
X35154Y-45291D01*
X35255Y-45249D01*
X35333Y-45172D01*
X35375Y-45070D01*
X35375Y-44961D01*
X35333Y-44860D01*
X35288Y-44815D01*
X37119Y-44815D01*
X37227Y-44922D01*
X37329Y-44991D01*
X37381Y-45001D01*
X37344Y-45016D01*
X37266Y-45093D01*
X37224Y-45195D01*
X37224Y-45304D01*
X37266Y-45405D01*
X37311Y-45450D01*
X37241Y-45518D01*
X37199Y-45620D01*
X37199Y-45729D01*
X37241Y-45830D01*
X37318Y-45908D01*
X37420Y-45950D01*
X37529Y-45950D01*
X37630Y-45908D01*
X37674Y-45864D01*
X37693Y-45883D01*
X37795Y-45925D01*
X37904Y-45925D01*
X37999Y-45885D01*
X37974Y-45945D01*
X37974Y-46054D01*
X38016Y-46155D01*
X38093Y-46233D01*
X38195Y-46275D01*
X38304Y-46275D01*
X38405Y-46233D01*
X38483Y-46156D01*
X38525Y-46054D01*
X38525Y-45945D01*
X38483Y-45844D01*
X38406Y-45766D01*
X38304Y-45724D01*
X38195Y-45724D01*
X38100Y-45764D01*
X38125Y-45704D01*
X38125Y-45595D01*
X38083Y-45494D01*
X38051Y-45462D01*
X38083Y-45431D01*
X38125Y-45329D01*
X38125Y-45220D01*
X38083Y-45119D01*
X38006Y-45041D01*
X37941Y-45015D01*
X40481Y-45015D01*
X40456Y-45075D01*
X40456Y-45100D01*
X40322Y-45234D01*
X40276Y-45304D01*
X40260Y-45387D01*
X40260Y-45446D01*
X40260Y-47635D01*
X39513Y-48381D01*
X39475Y-48440D01*
X39475Y-46545D01*
X39433Y-46444D01*
X39389Y-46400D01*
X39408Y-46381D01*
X39450Y-46279D01*
X39450Y-46170D01*
X39408Y-46069D01*
X39361Y-46022D01*
X39400Y-45929D01*
X39400Y-45820D01*
X39358Y-45719D01*
X39281Y-45641D01*
X39179Y-45599D01*
X39070Y-45599D01*
X38969Y-45641D01*
X38891Y-45718D01*
X38849Y-45820D01*
X38849Y-45929D01*
X38891Y-46030D01*
X38938Y-46077D01*
X38899Y-46170D01*
X38899Y-46279D01*
X38908Y-46299D01*
X38820Y-46299D01*
X38719Y-46341D01*
X38641Y-46418D01*
X38599Y-46520D01*
X38599Y-46629D01*
X38641Y-46730D01*
X38718Y-46808D01*
X38820Y-46850D01*
X38929Y-46850D01*
X39022Y-46811D01*
X39043Y-46833D01*
X39145Y-46875D01*
X39254Y-46875D01*
X39355Y-46833D01*
X39433Y-46756D01*
X39475Y-46654D01*
X39475Y-46545D01*
X39475Y-48440D01*
X39467Y-48451D01*
X39451Y-48534D01*
X39451Y-48650D01*
X39451Y-48825D01*
X39432Y-48843D01*
X39390Y-48945D01*
X39390Y-49054D01*
X39432Y-49155D01*
X39509Y-49233D01*
X39607Y-49273D01*
X40240Y-49906D01*
X40240Y-50023D01*
X40199Y-50120D01*
X40199Y-50229D01*
X40241Y-50330D01*
X40318Y-50408D01*
X40420Y-50450D01*
X40529Y-50450D01*
X40630Y-50408D01*
X40708Y-50331D01*
X40750Y-50229D01*
X40750Y-50120D01*
X40710Y-50023D01*
X40710Y-49809D01*
X40709Y-49808D01*
X40692Y-49719D01*
X40641Y-49642D01*
X40641Y-49642D01*
X40625Y-49626D01*
X40625Y-48520D01*
X40583Y-48419D01*
X40506Y-48341D01*
X40404Y-48299D01*
X40295Y-48299D01*
X40194Y-48341D01*
X40116Y-48418D01*
X40074Y-48520D01*
X40074Y-48629D01*
X40116Y-48730D01*
X40193Y-48808D01*
X40295Y-48850D01*
X40404Y-48850D01*
X40505Y-48808D01*
X40583Y-48731D01*
X40625Y-48629D01*
X40625Y-48520D01*
X40625Y-49626D01*
X39939Y-48940D01*
X39899Y-48844D01*
X39881Y-48826D01*
X39881Y-48650D01*
X39881Y-48623D01*
X40627Y-47877D01*
X40627Y-47877D01*
X40627Y-47877D01*
X40650Y-47842D01*
X40673Y-47807D01*
X40673Y-47807D01*
X40673Y-47807D01*
X40689Y-47725D01*
X40690Y-47725D01*
X40690Y-47637D01*
X40720Y-47650D01*
X40829Y-47650D01*
X40930Y-47608D01*
X41008Y-47531D01*
X41050Y-47429D01*
X41050Y-47320D01*
X41008Y-47219D01*
X40931Y-47141D01*
X40829Y-47099D01*
X40720Y-47099D01*
X40690Y-47112D01*
X40690Y-45476D01*
X40760Y-45405D01*
X40786Y-45405D01*
X40887Y-45363D01*
X40965Y-45286D01*
X40987Y-45232D01*
X41627Y-45872D01*
X41729Y-45941D01*
X41850Y-45965D01*
X43225Y-45965D01*
X43345Y-45941D01*
X43447Y-45872D01*
X43870Y-45450D01*
X43870Y-45540D01*
X43015Y-46395D01*
X42784Y-46395D01*
X42756Y-46366D01*
X42654Y-46324D01*
X42545Y-46324D01*
X42444Y-46366D01*
X42366Y-46443D01*
X42324Y-46545D01*
X42324Y-46654D01*
X42366Y-46755D01*
X42443Y-46833D01*
X42545Y-46875D01*
X42654Y-46875D01*
X42755Y-46833D01*
X42784Y-46805D01*
X43099Y-46805D01*
X43100Y-46805D01*
X43100Y-46805D01*
X43178Y-46789D01*
X43244Y-46744D01*
X44086Y-45903D01*
X44086Y-47235D01*
X44036Y-47255D01*
X43909Y-47382D01*
X43841Y-47547D01*
X43840Y-47726D01*
X43909Y-47892D01*
X44035Y-48019D01*
X44201Y-48087D01*
X44380Y-48088D01*
X44546Y-48019D01*
X44672Y-47893D01*
X44684Y-47863D01*
X44696Y-47892D01*
X44758Y-47953D01*
G54D10*
G36*
X46870Y-45165D02*
X46365Y-45669D01*
X46417Y-45543D01*
X46418Y-45402D01*
X46418Y-44220D01*
X46418Y-42252D01*
X46364Y-42122D01*
X46264Y-42022D01*
X46133Y-41968D01*
X45992Y-41968D01*
X45862Y-42022D01*
X45762Y-42121D01*
X45708Y-42252D01*
X45707Y-42393D01*
X45761Y-42524D01*
X45861Y-42624D01*
X45992Y-42678D01*
X46133Y-42678D01*
X46263Y-42624D01*
X46363Y-42524D01*
X46417Y-42394D01*
X46418Y-42252D01*
X46418Y-44220D01*
X46364Y-44090D01*
X46264Y-43990D01*
X46133Y-43935D01*
X46100Y-43935D01*
X46100Y-42895D01*
X46058Y-42794D01*
X45981Y-42716D01*
X45879Y-42674D01*
X45770Y-42674D01*
X45669Y-42716D01*
X45625Y-42760D01*
X45625Y-42245D01*
X45583Y-42144D01*
X45506Y-42066D01*
X45404Y-42024D01*
X45295Y-42024D01*
X45194Y-42066D01*
X45116Y-42143D01*
X45074Y-42245D01*
X45074Y-42354D01*
X45116Y-42455D01*
X45193Y-42533D01*
X45295Y-42575D01*
X45404Y-42575D01*
X45505Y-42533D01*
X45583Y-42456D01*
X45625Y-42354D01*
X45625Y-42245D01*
X45625Y-42760D01*
X45591Y-42793D01*
X45549Y-42895D01*
X45549Y-43004D01*
X45591Y-43105D01*
X45668Y-43183D01*
X45770Y-43225D01*
X45879Y-43225D01*
X45980Y-43183D01*
X46058Y-43106D01*
X46100Y-43004D01*
X46100Y-42895D01*
X46100Y-43935D01*
X45992Y-43935D01*
X45862Y-43989D01*
X45762Y-44089D01*
X45708Y-44219D01*
X45707Y-44361D01*
X45761Y-44491D01*
X45861Y-44591D01*
X45992Y-44645D01*
X46133Y-44645D01*
X46263Y-44592D01*
X46363Y-44492D01*
X46417Y-44361D01*
X46418Y-44220D01*
X46418Y-45402D01*
X46364Y-45272D01*
X46264Y-45172D01*
X46133Y-45117D01*
X45992Y-45117D01*
X45862Y-45171D01*
X45762Y-45271D01*
X45708Y-45401D01*
X45707Y-45543D01*
X45761Y-45673D01*
X45861Y-45773D01*
X45992Y-45827D01*
X46133Y-45827D01*
X46259Y-45775D01*
X45405Y-46630D01*
X45360Y-46696D01*
X45344Y-46775D01*
X45345Y-46775D01*
X45345Y-47267D01*
X45334Y-47256D01*
X45168Y-47187D01*
X44989Y-47187D01*
X44939Y-47208D01*
X44705Y-46974D01*
X44705Y-43559D01*
X44869Y-43394D01*
X44869Y-43394D01*
X44869Y-43394D01*
X44914Y-43328D01*
X44930Y-43250D01*
X44930Y-43250D01*
X44930Y-43249D01*
X44930Y-42575D01*
X44914Y-42496D01*
X44914Y-42496D01*
X44869Y-42430D01*
X44869Y-42430D01*
X44680Y-42240D01*
X44680Y-36677D01*
X44691Y-36705D01*
X44768Y-36783D01*
X44870Y-36825D01*
X44979Y-36825D01*
X45080Y-36783D01*
X45158Y-36706D01*
X45200Y-36604D01*
X45200Y-36495D01*
X45158Y-36394D01*
X45081Y-36316D01*
X44979Y-36274D01*
X44870Y-36274D01*
X44769Y-36316D01*
X44691Y-36393D01*
X44680Y-36422D01*
X44680Y-32925D01*
X44664Y-32846D01*
X44664Y-32846D01*
X44619Y-32780D01*
X44619Y-32780D01*
X44519Y-32680D01*
X44940Y-32680D01*
X45470Y-33209D01*
X45470Y-38266D01*
X45429Y-38249D01*
X45320Y-38249D01*
X45219Y-38291D01*
X45210Y-38300D01*
X45208Y-38294D01*
X45131Y-38216D01*
X45029Y-38174D01*
X44920Y-38174D01*
X44819Y-38216D01*
X44741Y-38293D01*
X44699Y-38395D01*
X44699Y-38504D01*
X44741Y-38605D01*
X44818Y-38683D01*
X44920Y-38725D01*
X45029Y-38725D01*
X45130Y-38683D01*
X45139Y-38674D01*
X45141Y-38680D01*
X45218Y-38758D01*
X45320Y-38800D01*
X45429Y-38800D01*
X45470Y-38783D01*
X45470Y-38950D01*
X45485Y-39028D01*
X45530Y-39094D01*
X45596Y-39139D01*
X45631Y-39146D01*
X46870Y-40384D01*
X46870Y-41080D01*
X46856Y-41066D01*
X46754Y-41024D01*
X46645Y-41024D01*
X46544Y-41066D01*
X46466Y-41143D01*
X46424Y-41245D01*
X46424Y-41249D01*
X46402Y-41249D01*
X46417Y-41212D01*
X46418Y-41070D01*
X46364Y-40940D01*
X46264Y-40840D01*
X46133Y-40786D01*
X45992Y-40786D01*
X45862Y-40840D01*
X45762Y-40939D01*
X45708Y-41070D01*
X45707Y-41211D01*
X45761Y-41342D01*
X45861Y-41442D01*
X45992Y-41496D01*
X46133Y-41496D01*
X46174Y-41479D01*
X46174Y-41579D01*
X46216Y-41680D01*
X46293Y-41758D01*
X46395Y-41800D01*
X46439Y-41800D01*
X46400Y-41895D01*
X46399Y-42004D01*
X46441Y-42105D01*
X46519Y-42182D01*
X46620Y-42224D01*
X46729Y-42225D01*
X46830Y-42183D01*
X46870Y-42143D01*
X46870Y-45165D01*
X46870Y-45165D01*
G37*
G54D25*
X46870Y-45165D02*
X46365Y-45669D01*
X46417Y-45543D01*
X46418Y-45402D01*
X46418Y-44220D01*
X46418Y-42252D01*
X46364Y-42122D01*
X46264Y-42022D01*
X46133Y-41968D01*
X45992Y-41968D01*
X45862Y-42022D01*
X45762Y-42121D01*
X45708Y-42252D01*
X45707Y-42393D01*
X45761Y-42524D01*
X45861Y-42624D01*
X45992Y-42678D01*
X46133Y-42678D01*
X46263Y-42624D01*
X46363Y-42524D01*
X46417Y-42394D01*
X46418Y-42252D01*
X46418Y-44220D01*
X46364Y-44090D01*
X46264Y-43990D01*
X46133Y-43935D01*
X46100Y-43935D01*
X46100Y-42895D01*
X46058Y-42794D01*
X45981Y-42716D01*
X45879Y-42674D01*
X45770Y-42674D01*
X45669Y-42716D01*
X45625Y-42760D01*
X45625Y-42245D01*
X45583Y-42144D01*
X45506Y-42066D01*
X45404Y-42024D01*
X45295Y-42024D01*
X45194Y-42066D01*
X45116Y-42143D01*
X45074Y-42245D01*
X45074Y-42354D01*
X45116Y-42455D01*
X45193Y-42533D01*
X45295Y-42575D01*
X45404Y-42575D01*
X45505Y-42533D01*
X45583Y-42456D01*
X45625Y-42354D01*
X45625Y-42245D01*
X45625Y-42760D01*
X45591Y-42793D01*
X45549Y-42895D01*
X45549Y-43004D01*
X45591Y-43105D01*
X45668Y-43183D01*
X45770Y-43225D01*
X45879Y-43225D01*
X45980Y-43183D01*
X46058Y-43106D01*
X46100Y-43004D01*
X46100Y-42895D01*
X46100Y-43935D01*
X45992Y-43935D01*
X45862Y-43989D01*
X45762Y-44089D01*
X45708Y-44219D01*
X45707Y-44361D01*
X45761Y-44491D01*
X45861Y-44591D01*
X45992Y-44645D01*
X46133Y-44645D01*
X46263Y-44592D01*
X46363Y-44492D01*
X46417Y-44361D01*
X46418Y-44220D01*
X46418Y-45402D01*
X46364Y-45272D01*
X46264Y-45172D01*
X46133Y-45117D01*
X45992Y-45117D01*
X45862Y-45171D01*
X45762Y-45271D01*
X45708Y-45401D01*
X45707Y-45543D01*
X45761Y-45673D01*
X45861Y-45773D01*
X45992Y-45827D01*
X46133Y-45827D01*
X46259Y-45775D01*
X45405Y-46630D01*
X45360Y-46696D01*
X45344Y-46775D01*
X45345Y-46775D01*
X45345Y-47267D01*
X45334Y-47256D01*
X45168Y-47187D01*
X44989Y-47187D01*
X44939Y-47208D01*
X44705Y-46974D01*
X44705Y-43559D01*
X44869Y-43394D01*
X44869Y-43394D01*
X44869Y-43394D01*
X44914Y-43328D01*
X44930Y-43250D01*
X44930Y-43250D01*
X44930Y-43249D01*
X44930Y-42575D01*
X44914Y-42496D01*
X44914Y-42496D01*
X44869Y-42430D01*
X44869Y-42430D01*
X44680Y-42240D01*
X44680Y-36677D01*
X44691Y-36705D01*
X44768Y-36783D01*
X44870Y-36825D01*
X44979Y-36825D01*
X45080Y-36783D01*
X45158Y-36706D01*
X45200Y-36604D01*
X45200Y-36495D01*
X45158Y-36394D01*
X45081Y-36316D01*
X44979Y-36274D01*
X44870Y-36274D01*
X44769Y-36316D01*
X44691Y-36393D01*
X44680Y-36422D01*
X44680Y-32925D01*
X44664Y-32846D01*
X44664Y-32846D01*
X44619Y-32780D01*
X44619Y-32780D01*
X44519Y-32680D01*
X44940Y-32680D01*
X45470Y-33209D01*
X45470Y-38266D01*
X45429Y-38249D01*
X45320Y-38249D01*
X45219Y-38291D01*
X45210Y-38300D01*
X45208Y-38294D01*
X45131Y-38216D01*
X45029Y-38174D01*
X44920Y-38174D01*
X44819Y-38216D01*
X44741Y-38293D01*
X44699Y-38395D01*
X44699Y-38504D01*
X44741Y-38605D01*
X44818Y-38683D01*
X44920Y-38725D01*
X45029Y-38725D01*
X45130Y-38683D01*
X45139Y-38674D01*
X45141Y-38680D01*
X45218Y-38758D01*
X45320Y-38800D01*
X45429Y-38800D01*
X45470Y-38783D01*
X45470Y-38950D01*
X45485Y-39028D01*
X45530Y-39094D01*
X45596Y-39139D01*
X45631Y-39146D01*
X46870Y-40384D01*
X46870Y-41080D01*
X46856Y-41066D01*
X46754Y-41024D01*
X46645Y-41024D01*
X46544Y-41066D01*
X46466Y-41143D01*
X46424Y-41245D01*
X46424Y-41249D01*
X46402Y-41249D01*
X46417Y-41212D01*
X46418Y-41070D01*
X46364Y-40940D01*
X46264Y-40840D01*
X46133Y-40786D01*
X45992Y-40786D01*
X45862Y-40840D01*
X45762Y-40939D01*
X45708Y-41070D01*
X45707Y-41211D01*
X45761Y-41342D01*
X45861Y-41442D01*
X45992Y-41496D01*
X46133Y-41496D01*
X46174Y-41479D01*
X46174Y-41579D01*
X46216Y-41680D01*
X46293Y-41758D01*
X46395Y-41800D01*
X46439Y-41800D01*
X46400Y-41895D01*
X46399Y-42004D01*
X46441Y-42105D01*
X46519Y-42182D01*
X46620Y-42224D01*
X46729Y-42225D01*
X46830Y-42183D01*
X46870Y-42143D01*
X46870Y-45165D01*
G54D10*
G36*
X50439Y-46205D02*
X50305Y-46339D01*
X50300Y-46334D01*
X50022Y-46611D01*
X50067Y-46682D01*
X50135Y-46699D01*
X50003Y-46754D01*
X49855Y-46902D01*
X49799Y-47035D01*
X49745Y-46903D01*
X49597Y-46755D01*
X49464Y-46699D01*
X49597Y-46645D01*
X49744Y-46497D01*
X49794Y-46377D01*
X49817Y-46432D01*
X49888Y-46477D01*
X50165Y-46200D01*
X49888Y-45922D01*
X49817Y-45967D01*
X49800Y-46035D01*
X49745Y-45903D01*
X49597Y-45755D01*
X49464Y-45699D01*
X49597Y-45645D01*
X49744Y-45497D01*
X49800Y-45364D01*
X49854Y-45497D01*
X50002Y-45644D01*
X50122Y-45694D01*
X50067Y-45717D01*
X50022Y-45788D01*
X50300Y-46065D01*
X50305Y-46060D01*
X50439Y-46194D01*
X50434Y-46200D01*
X50439Y-46205D01*
X50439Y-46205D01*
G37*
G54D25*
X50439Y-46205D02*
X50305Y-46339D01*
X50300Y-46334D01*
X50022Y-46611D01*
X50067Y-46682D01*
X50135Y-46699D01*
X50003Y-46754D01*
X49855Y-46902D01*
X49799Y-47035D01*
X49745Y-46903D01*
X49597Y-46755D01*
X49464Y-46699D01*
X49597Y-46645D01*
X49744Y-46497D01*
X49794Y-46377D01*
X49817Y-46432D01*
X49888Y-46477D01*
X50165Y-46200D01*
X49888Y-45922D01*
X49817Y-45967D01*
X49800Y-46035D01*
X49745Y-45903D01*
X49597Y-45755D01*
X49464Y-45699D01*
X49597Y-45645D01*
X49744Y-45497D01*
X49800Y-45364D01*
X49854Y-45497D01*
X50002Y-45644D01*
X50122Y-45694D01*
X50067Y-45717D01*
X50022Y-45788D01*
X50300Y-46065D01*
X50305Y-46060D01*
X50439Y-46194D01*
X50434Y-46200D01*
X50439Y-46205D01*
G54D10*
G36*
X50602Y-34760D02*
X50597Y-34755D01*
X50404Y-34675D01*
X50391Y-34675D01*
X50391Y-31734D01*
X50272Y-31445D01*
X50051Y-31224D01*
X49763Y-31104D01*
X49450Y-31104D01*
X49162Y-31223D01*
X48941Y-31444D01*
X48821Y-31732D01*
X48821Y-32045D01*
X48940Y-32333D01*
X49161Y-32554D01*
X49449Y-32674D01*
X49761Y-32674D01*
X50050Y-32555D01*
X50271Y-32335D01*
X50391Y-32046D01*
X50391Y-31734D01*
X50391Y-34675D01*
X50196Y-34674D01*
X50003Y-34754D01*
X49855Y-34902D01*
X49799Y-35035D01*
X49745Y-34903D01*
X49597Y-34755D01*
X49404Y-34675D01*
X49196Y-34674D01*
X49003Y-34754D01*
X48855Y-34902D01*
X48775Y-35095D01*
X48774Y-35303D01*
X48854Y-35497D01*
X49002Y-35644D01*
X49135Y-35700D01*
X49003Y-35754D01*
X48855Y-35902D01*
X48775Y-36095D01*
X48774Y-36303D01*
X48854Y-36497D01*
X49002Y-36644D01*
X49135Y-36700D01*
X49003Y-36754D01*
X48855Y-36902D01*
X48775Y-37095D01*
X48774Y-37303D01*
X48854Y-37497D01*
X49002Y-37644D01*
X49135Y-37700D01*
X49003Y-37754D01*
X48855Y-37902D01*
X48775Y-38095D01*
X48774Y-38303D01*
X48854Y-38497D01*
X49002Y-38644D01*
X49135Y-38700D01*
X49003Y-38754D01*
X48855Y-38902D01*
X48775Y-39095D01*
X48774Y-39303D01*
X48854Y-39497D01*
X49002Y-39644D01*
X49135Y-39700D01*
X49003Y-39754D01*
X48855Y-39902D01*
X48775Y-40095D01*
X48774Y-40303D01*
X48854Y-40497D01*
X49002Y-40644D01*
X49135Y-40700D01*
X49003Y-40754D01*
X48855Y-40902D01*
X48818Y-40990D01*
X48794Y-40955D01*
X48794Y-40955D01*
X48534Y-40694D01*
X48277Y-40437D01*
X48277Y-31661D01*
X48000Y-31384D01*
X47722Y-31661D01*
X47767Y-31732D01*
X47969Y-31784D01*
X48176Y-31755D01*
X48232Y-31732D01*
X48277Y-31661D01*
X48277Y-40437D01*
X47375Y-39535D01*
X47375Y-39495D01*
X47333Y-39394D01*
X47255Y-39317D01*
X47154Y-39275D01*
X47045Y-39274D01*
X46944Y-39316D01*
X46867Y-39394D01*
X46835Y-39470D01*
X46080Y-38715D01*
X46080Y-34493D01*
X46144Y-34557D01*
X46245Y-34599D01*
X46354Y-34600D01*
X46455Y-34558D01*
X46532Y-34480D01*
X46574Y-34379D01*
X46575Y-34270D01*
X46533Y-34169D01*
X46455Y-34092D01*
X46354Y-34050D01*
X46245Y-34049D01*
X46144Y-34091D01*
X46080Y-34156D01*
X46080Y-33000D01*
X46079Y-32999D01*
X46080Y-32999D01*
X46076Y-32984D01*
X46064Y-32921D01*
X46064Y-32921D01*
X46019Y-32855D01*
X46019Y-32855D01*
X45479Y-32315D01*
X46144Y-32315D01*
X46685Y-32855D01*
X46685Y-37100D01*
X46708Y-37220D01*
X46777Y-37322D01*
X46879Y-37391D01*
X47000Y-37415D01*
X47120Y-37391D01*
X47222Y-37322D01*
X47291Y-37220D01*
X47315Y-37100D01*
X47315Y-32725D01*
X47291Y-32604D01*
X47222Y-32502D01*
X46497Y-31777D01*
X46395Y-31708D01*
X46301Y-31690D01*
X46444Y-31547D01*
X46500Y-31414D01*
X46554Y-31547D01*
X46702Y-31694D01*
X46895Y-31774D01*
X47103Y-31775D01*
X47297Y-31695D01*
X47444Y-31547D01*
X47494Y-31427D01*
X47517Y-31482D01*
X47588Y-31527D01*
X47865Y-31250D01*
X47860Y-31244D01*
X47994Y-31110D01*
X48000Y-31115D01*
X48005Y-31110D01*
X48139Y-31244D01*
X48134Y-31250D01*
X48411Y-31527D01*
X48482Y-31482D01*
X48534Y-31280D01*
X48505Y-31073D01*
X48482Y-31017D01*
X48411Y-30972D01*
X48445Y-30938D01*
X48400Y-30893D01*
X49981Y-30893D01*
X50229Y-30942D01*
X50423Y-31071D01*
X50553Y-31267D01*
X50602Y-31512D01*
X50602Y-34760D01*
X50602Y-34760D01*
G37*
G54D25*
X50602Y-34760D02*
X50597Y-34755D01*
X50404Y-34675D01*
X50391Y-34675D01*
X50391Y-31734D01*
X50272Y-31445D01*
X50051Y-31224D01*
X49763Y-31104D01*
X49450Y-31104D01*
X49162Y-31223D01*
X48941Y-31444D01*
X48821Y-31732D01*
X48821Y-32045D01*
X48940Y-32333D01*
X49161Y-32554D01*
X49449Y-32674D01*
X49761Y-32674D01*
X50050Y-32555D01*
X50271Y-32335D01*
X50391Y-32046D01*
X50391Y-31734D01*
X50391Y-34675D01*
X50196Y-34674D01*
X50003Y-34754D01*
X49855Y-34902D01*
X49799Y-35035D01*
X49745Y-34903D01*
X49597Y-34755D01*
X49404Y-34675D01*
X49196Y-34674D01*
X49003Y-34754D01*
X48855Y-34902D01*
X48775Y-35095D01*
X48774Y-35303D01*
X48854Y-35497D01*
X49002Y-35644D01*
X49135Y-35700D01*
X49003Y-35754D01*
X48855Y-35902D01*
X48775Y-36095D01*
X48774Y-36303D01*
X48854Y-36497D01*
X49002Y-36644D01*
X49135Y-36700D01*
X49003Y-36754D01*
X48855Y-36902D01*
X48775Y-37095D01*
X48774Y-37303D01*
X48854Y-37497D01*
X49002Y-37644D01*
X49135Y-37700D01*
X49003Y-37754D01*
X48855Y-37902D01*
X48775Y-38095D01*
X48774Y-38303D01*
X48854Y-38497D01*
X49002Y-38644D01*
X49135Y-38700D01*
X49003Y-38754D01*
X48855Y-38902D01*
X48775Y-39095D01*
X48774Y-39303D01*
X48854Y-39497D01*
X49002Y-39644D01*
X49135Y-39700D01*
X49003Y-39754D01*
X48855Y-39902D01*
X48775Y-40095D01*
X48774Y-40303D01*
X48854Y-40497D01*
X49002Y-40644D01*
X49135Y-40700D01*
X49003Y-40754D01*
X48855Y-40902D01*
X48818Y-40990D01*
X48794Y-40955D01*
X48794Y-40955D01*
X48534Y-40694D01*
X48277Y-40437D01*
X48277Y-31661D01*
X48000Y-31384D01*
X47722Y-31661D01*
X47767Y-31732D01*
X47969Y-31784D01*
X48176Y-31755D01*
X48232Y-31732D01*
X48277Y-31661D01*
X48277Y-40437D01*
X47375Y-39535D01*
X47375Y-39495D01*
X47333Y-39394D01*
X47255Y-39317D01*
X47154Y-39275D01*
X47045Y-39274D01*
X46944Y-39316D01*
X46867Y-39394D01*
X46835Y-39470D01*
X46080Y-38715D01*
X46080Y-34493D01*
X46144Y-34557D01*
X46245Y-34599D01*
X46354Y-34600D01*
X46455Y-34558D01*
X46532Y-34480D01*
X46574Y-34379D01*
X46575Y-34270D01*
X46533Y-34169D01*
X46455Y-34092D01*
X46354Y-34050D01*
X46245Y-34049D01*
X46144Y-34091D01*
X46080Y-34156D01*
X46080Y-33000D01*
X46079Y-32999D01*
X46080Y-32999D01*
X46076Y-32984D01*
X46064Y-32921D01*
X46064Y-32921D01*
X46019Y-32855D01*
X46019Y-32855D01*
X45479Y-32315D01*
X46144Y-32315D01*
X46685Y-32855D01*
X46685Y-37100D01*
X46708Y-37220D01*
X46777Y-37322D01*
X46879Y-37391D01*
X47000Y-37415D01*
X47120Y-37391D01*
X47222Y-37322D01*
X47291Y-37220D01*
X47315Y-37100D01*
X47315Y-32725D01*
X47291Y-32604D01*
X47222Y-32502D01*
X46497Y-31777D01*
X46395Y-31708D01*
X46301Y-31690D01*
X46444Y-31547D01*
X46500Y-31414D01*
X46554Y-31547D01*
X46702Y-31694D01*
X46895Y-31774D01*
X47103Y-31775D01*
X47297Y-31695D01*
X47444Y-31547D01*
X47494Y-31427D01*
X47517Y-31482D01*
X47588Y-31527D01*
X47865Y-31250D01*
X47860Y-31244D01*
X47994Y-31110D01*
X48000Y-31115D01*
X48005Y-31110D01*
X48139Y-31244D01*
X48134Y-31250D01*
X48411Y-31527D01*
X48482Y-31482D01*
X48534Y-31280D01*
X48505Y-31073D01*
X48482Y-31017D01*
X48411Y-30972D01*
X48445Y-30938D01*
X48400Y-30893D01*
X49981Y-30893D01*
X50229Y-30942D01*
X50423Y-31071D01*
X50553Y-31267D01*
X50602Y-31512D01*
X50602Y-34760D01*
G54D10*
G36*
X50602Y-51951D02*
X50577Y-52078D01*
X50553Y-52197D01*
X50423Y-52392D01*
X50391Y-52414D01*
X50391Y-51419D01*
X50272Y-51130D01*
X50051Y-50909D01*
X49763Y-50789D01*
X49577Y-50789D01*
X49577Y-48611D01*
X49300Y-48334D01*
X49165Y-48468D01*
X49165Y-48200D01*
X48888Y-47922D01*
X48817Y-47967D01*
X48765Y-48169D01*
X48794Y-48376D01*
X48817Y-48432D01*
X48888Y-48477D01*
X49165Y-48200D01*
X49165Y-48468D01*
X49022Y-48611D01*
X49067Y-48682D01*
X49269Y-48734D01*
X49476Y-48705D01*
X49532Y-48682D01*
X49577Y-48611D01*
X49577Y-50789D01*
X49450Y-50789D01*
X49162Y-50908D01*
X48941Y-51129D01*
X48821Y-51417D01*
X48821Y-51730D01*
X48940Y-52018D01*
X49161Y-52239D01*
X49449Y-52359D01*
X49761Y-52359D01*
X50050Y-52240D01*
X50271Y-52020D01*
X50391Y-51731D01*
X50391Y-51419D01*
X50391Y-52414D01*
X50229Y-52521D01*
X49981Y-52571D01*
X47853Y-52571D01*
X47756Y-52552D01*
X47689Y-52507D01*
X47644Y-52440D01*
X47625Y-52344D01*
X47625Y-49212D01*
X47611Y-49141D01*
X47571Y-49082D01*
X47511Y-49042D01*
X47440Y-49028D01*
X46333Y-49028D01*
X46444Y-48916D01*
X46513Y-48751D01*
X46513Y-48572D01*
X46444Y-48406D01*
X46386Y-48347D01*
X46428Y-48339D01*
X46494Y-48294D01*
X46715Y-48074D01*
X46715Y-48302D01*
X46752Y-48490D01*
X46858Y-48649D01*
X47017Y-48755D01*
X47204Y-48792D01*
X47392Y-48755D01*
X47550Y-48649D01*
X47657Y-48490D01*
X47694Y-48302D01*
X47694Y-47681D01*
X47657Y-47494D01*
X47550Y-47335D01*
X47392Y-47229D01*
X47204Y-47191D01*
X47017Y-47229D01*
X46858Y-47335D01*
X46780Y-47452D01*
X46780Y-46159D01*
X47419Y-45519D01*
X47419Y-45519D01*
X47419Y-45519D01*
X47464Y-45453D01*
X47464Y-45453D01*
X47476Y-45390D01*
X47543Y-45458D01*
X47645Y-45500D01*
X47754Y-45500D01*
X47847Y-45461D01*
X47918Y-45533D01*
X48020Y-45575D01*
X48129Y-45575D01*
X48230Y-45533D01*
X48308Y-45456D01*
X48350Y-45354D01*
X48350Y-45245D01*
X48308Y-45144D01*
X48231Y-45066D01*
X48129Y-45024D01*
X48020Y-45024D01*
X47927Y-45063D01*
X47856Y-44991D01*
X47754Y-44949D01*
X47645Y-44949D01*
X47544Y-44991D01*
X47480Y-45055D01*
X47480Y-40219D01*
X48445Y-41184D01*
X48445Y-45616D01*
X48404Y-45599D01*
X48295Y-45599D01*
X48194Y-45641D01*
X48116Y-45718D01*
X48074Y-45820D01*
X48074Y-45929D01*
X48116Y-46030D01*
X48175Y-46089D01*
X48169Y-46091D01*
X48091Y-46168D01*
X48049Y-46270D01*
X48049Y-46379D01*
X48091Y-46480D01*
X48168Y-46558D01*
X48270Y-46600D01*
X48379Y-46600D01*
X48445Y-46573D01*
X48445Y-47165D01*
X48185Y-47424D01*
X48145Y-47424D01*
X48044Y-47466D01*
X47967Y-47544D01*
X47925Y-47645D01*
X47924Y-47754D01*
X47966Y-47855D01*
X48044Y-47932D01*
X48145Y-47974D01*
X48254Y-47975D01*
X48355Y-47933D01*
X48432Y-47855D01*
X48474Y-47754D01*
X48474Y-47714D01*
X48794Y-47394D01*
X48794Y-47394D01*
X48794Y-47394D01*
X48805Y-47378D01*
X48854Y-47497D01*
X49002Y-47644D01*
X49122Y-47694D01*
X49067Y-47717D01*
X49022Y-47788D01*
X49300Y-48065D01*
X49577Y-47788D01*
X49532Y-47717D01*
X49464Y-47700D01*
X49597Y-47645D01*
X49744Y-47497D01*
X49800Y-47364D01*
X49854Y-47497D01*
X50002Y-47644D01*
X50122Y-47694D01*
X50067Y-47717D01*
X50022Y-47788D01*
X50300Y-48065D01*
X50305Y-48060D01*
X50439Y-48194D01*
X50434Y-48200D01*
X50439Y-48205D01*
X50305Y-48339D01*
X50300Y-48334D01*
X50165Y-48468D01*
X50165Y-48200D01*
X49888Y-47922D01*
X49817Y-47967D01*
X49804Y-48020D01*
X49782Y-47967D01*
X49711Y-47922D01*
X49434Y-48200D01*
X49711Y-48477D01*
X49782Y-48432D01*
X49795Y-48379D01*
X49817Y-48432D01*
X49888Y-48477D01*
X50165Y-48200D01*
X50165Y-48468D01*
X50022Y-48611D01*
X50067Y-48682D01*
X50269Y-48734D01*
X50476Y-48705D01*
X50532Y-48682D01*
X50577Y-48611D01*
X50577Y-48611D01*
X50602Y-48637D01*
X50602Y-51951D01*
X50602Y-51951D01*
G37*
G54D25*
X50602Y-51951D02*
X50577Y-52078D01*
X50553Y-52197D01*
X50423Y-52392D01*
X50391Y-52414D01*
X50391Y-51419D01*
X50272Y-51130D01*
X50051Y-50909D01*
X49763Y-50789D01*
X49577Y-50789D01*
X49577Y-48611D01*
X49300Y-48334D01*
X49165Y-48468D01*
X49165Y-48200D01*
X48888Y-47922D01*
X48817Y-47967D01*
X48765Y-48169D01*
X48794Y-48376D01*
X48817Y-48432D01*
X48888Y-48477D01*
X49165Y-48200D01*
X49165Y-48468D01*
X49022Y-48611D01*
X49067Y-48682D01*
X49269Y-48734D01*
X49476Y-48705D01*
X49532Y-48682D01*
X49577Y-48611D01*
X49577Y-50789D01*
X49450Y-50789D01*
X49162Y-50908D01*
X48941Y-51129D01*
X48821Y-51417D01*
X48821Y-51730D01*
X48940Y-52018D01*
X49161Y-52239D01*
X49449Y-52359D01*
X49761Y-52359D01*
X50050Y-52240D01*
X50271Y-52020D01*
X50391Y-51731D01*
X50391Y-51419D01*
X50391Y-52414D01*
X50229Y-52521D01*
X49981Y-52571D01*
X47853Y-52571D01*
X47756Y-52552D01*
X47689Y-52507D01*
X47644Y-52440D01*
X47625Y-52344D01*
X47625Y-49212D01*
X47611Y-49141D01*
X47571Y-49082D01*
X47511Y-49042D01*
X47440Y-49028D01*
X46333Y-49028D01*
X46444Y-48916D01*
X46513Y-48751D01*
X46513Y-48572D01*
X46444Y-48406D01*
X46386Y-48347D01*
X46428Y-48339D01*
X46494Y-48294D01*
X46715Y-48074D01*
X46715Y-48302D01*
X46752Y-48490D01*
X46858Y-48649D01*
X47017Y-48755D01*
X47204Y-48792D01*
X47392Y-48755D01*
X47550Y-48649D01*
X47657Y-48490D01*
X47694Y-48302D01*
X47694Y-47681D01*
X47657Y-47494D01*
X47550Y-47335D01*
X47392Y-47229D01*
X47204Y-47191D01*
X47017Y-47229D01*
X46858Y-47335D01*
X46780Y-47452D01*
X46780Y-46159D01*
X47419Y-45519D01*
X47419Y-45519D01*
X47419Y-45519D01*
X47464Y-45453D01*
X47464Y-45453D01*
X47476Y-45390D01*
X47543Y-45458D01*
X47645Y-45500D01*
X47754Y-45500D01*
X47847Y-45461D01*
X47918Y-45533D01*
X48020Y-45575D01*
X48129Y-45575D01*
X48230Y-45533D01*
X48308Y-45456D01*
X48350Y-45354D01*
X48350Y-45245D01*
X48308Y-45144D01*
X48231Y-45066D01*
X48129Y-45024D01*
X48020Y-45024D01*
X47927Y-45063D01*
X47856Y-44991D01*
X47754Y-44949D01*
X47645Y-44949D01*
X47544Y-44991D01*
X47480Y-45055D01*
X47480Y-40219D01*
X48445Y-41184D01*
X48445Y-45616D01*
X48404Y-45599D01*
X48295Y-45599D01*
X48194Y-45641D01*
X48116Y-45718D01*
X48074Y-45820D01*
X48074Y-45929D01*
X48116Y-46030D01*
X48175Y-46089D01*
X48169Y-46091D01*
X48091Y-46168D01*
X48049Y-46270D01*
X48049Y-46379D01*
X48091Y-46480D01*
X48168Y-46558D01*
X48270Y-46600D01*
X48379Y-46600D01*
X48445Y-46573D01*
X48445Y-47165D01*
X48185Y-47424D01*
X48145Y-47424D01*
X48044Y-47466D01*
X47967Y-47544D01*
X47925Y-47645D01*
X47924Y-47754D01*
X47966Y-47855D01*
X48044Y-47932D01*
X48145Y-47974D01*
X48254Y-47975D01*
X48355Y-47933D01*
X48432Y-47855D01*
X48474Y-47754D01*
X48474Y-47714D01*
X48794Y-47394D01*
X48794Y-47394D01*
X48794Y-47394D01*
X48805Y-47378D01*
X48854Y-47497D01*
X49002Y-47644D01*
X49122Y-47694D01*
X49067Y-47717D01*
X49022Y-47788D01*
X49300Y-48065D01*
X49577Y-47788D01*
X49532Y-47717D01*
X49464Y-47700D01*
X49597Y-47645D01*
X49744Y-47497D01*
X49800Y-47364D01*
X49854Y-47497D01*
X50002Y-47644D01*
X50122Y-47694D01*
X50067Y-47717D01*
X50022Y-47788D01*
X50300Y-48065D01*
X50305Y-48060D01*
X50439Y-48194D01*
X50434Y-48200D01*
X50439Y-48205D01*
X50305Y-48339D01*
X50300Y-48334D01*
X50165Y-48468D01*
X50165Y-48200D01*
X49888Y-47922D01*
X49817Y-47967D01*
X49804Y-48020D01*
X49782Y-47967D01*
X49711Y-47922D01*
X49434Y-48200D01*
X49711Y-48477D01*
X49782Y-48432D01*
X49795Y-48379D01*
X49817Y-48432D01*
X49888Y-48477D01*
X50165Y-48200D01*
X50165Y-48468D01*
X50022Y-48611D01*
X50067Y-48682D01*
X50269Y-48734D01*
X50476Y-48705D01*
X50532Y-48682D01*
X50577Y-48611D01*
X50577Y-48611D01*
X50602Y-48637D01*
X50602Y-51951D01*
M02*
