G04 (created by PCBNEW (2013-03-19 BZR 4004)-stable) date 2014/12/29 14:44:26*
%MOIN*%
G04 Gerber Fmt 3.4, Leading zero omitted, Abs format*
%FSLAX34Y34*%
G01*
G70*
G90*
G04 APERTURE LIST*
%ADD10C,0*%
%ADD11C,0.005*%
%ADD12C,0.008*%
%ADD13C,0.00590551*%
%ADD14C,0.0026*%
%ADD15C,0.006*%
%ADD16C,0.002*%
%ADD17C,0.004*%
%ADD18C,0.01*%
%ADD19C,0.0019685*%
%ADD20C,0.0025*%
%ADD21C,0.0079*%
%ADD22C,0.00787402*%
%ADD23C,0.0001*%
G04 APERTURE END LIST*
G54D10*
G54D11*
X38950Y-53121D02*
X38807Y-53121D01*
X38807Y-52821D01*
X39021Y-52821D02*
X39207Y-52821D01*
X39107Y-52935D01*
X39150Y-52935D01*
X39178Y-52950D01*
X39192Y-52964D01*
X39207Y-52992D01*
X39207Y-53064D01*
X39192Y-53092D01*
X39178Y-53107D01*
X39150Y-53121D01*
X39064Y-53121D01*
X39035Y-53107D01*
X39021Y-53092D01*
G54D12*
X49773Y-43730D02*
X49735Y-43711D01*
X49678Y-43711D01*
X49621Y-43730D01*
X49583Y-43769D01*
X49564Y-43807D01*
X49545Y-43883D01*
X49545Y-43940D01*
X49564Y-44016D01*
X49583Y-44054D01*
X49621Y-44092D01*
X49678Y-44111D01*
X49716Y-44111D01*
X49773Y-44092D01*
X49792Y-44073D01*
X49792Y-43940D01*
X49716Y-43940D01*
X49945Y-43845D02*
X50230Y-43845D01*
X50059Y-43673D02*
X49945Y-44188D01*
X50192Y-44016D02*
X49907Y-44016D01*
X50078Y-44188D02*
X50192Y-43673D01*
X50345Y-43750D02*
X50364Y-43730D01*
X50402Y-43711D01*
X50497Y-43711D01*
X50535Y-43730D01*
X50554Y-43750D01*
X50573Y-43788D01*
X50573Y-43826D01*
X50554Y-43883D01*
X50326Y-44111D01*
X50573Y-44111D01*
X50726Y-43750D02*
X50745Y-43730D01*
X50783Y-43711D01*
X50878Y-43711D01*
X50916Y-43730D01*
X50935Y-43750D01*
X50954Y-43788D01*
X50954Y-43826D01*
X50935Y-43883D01*
X50707Y-44111D01*
X50954Y-44111D01*
X49764Y-45361D02*
X49764Y-44961D01*
X49859Y-44961D01*
X49916Y-44980D01*
X49954Y-45019D01*
X49973Y-45057D01*
X49992Y-45133D01*
X49992Y-45190D01*
X49973Y-45266D01*
X49954Y-45304D01*
X49916Y-45342D01*
X49859Y-45361D01*
X49764Y-45361D01*
X50373Y-45361D02*
X50145Y-45361D01*
X50259Y-45361D02*
X50259Y-44961D01*
X50221Y-45019D01*
X50183Y-45057D01*
X50145Y-45076D01*
X50507Y-44961D02*
X50754Y-44961D01*
X50621Y-45114D01*
X50678Y-45114D01*
X50716Y-45133D01*
X50735Y-45152D01*
X50754Y-45190D01*
X50754Y-45285D01*
X50735Y-45323D01*
X50716Y-45342D01*
X50678Y-45361D01*
X50564Y-45361D01*
X50526Y-45342D01*
X50507Y-45323D01*
X49326Y-46661D02*
X49326Y-46261D01*
X49478Y-46261D01*
X49516Y-46280D01*
X49535Y-46300D01*
X49554Y-46338D01*
X49554Y-46395D01*
X49535Y-46433D01*
X49516Y-46452D01*
X49478Y-46471D01*
X49326Y-46471D01*
X49802Y-46261D02*
X49878Y-46261D01*
X49916Y-46280D01*
X49954Y-46319D01*
X49973Y-46395D01*
X49973Y-46528D01*
X49954Y-46604D01*
X49916Y-46642D01*
X49878Y-46661D01*
X49802Y-46661D01*
X49764Y-46642D01*
X49726Y-46604D01*
X49707Y-46528D01*
X49707Y-46395D01*
X49726Y-46319D01*
X49764Y-46280D01*
X49802Y-46261D01*
X50107Y-46261D02*
X50202Y-46661D01*
X50278Y-46376D01*
X50354Y-46661D01*
X50450Y-46261D01*
X50602Y-46452D02*
X50735Y-46452D01*
X50792Y-46661D02*
X50602Y-46661D01*
X50602Y-46261D01*
X50792Y-46261D01*
X51192Y-46661D02*
X51059Y-46471D01*
X50964Y-46661D02*
X50964Y-46261D01*
X51116Y-46261D01*
X51154Y-46280D01*
X51173Y-46300D01*
X51192Y-46338D01*
X51192Y-46395D01*
X51173Y-46433D01*
X51154Y-46452D01*
X51116Y-46471D01*
X50964Y-46471D01*
X34395Y-49811D02*
X34528Y-50211D01*
X34661Y-49811D01*
X34700Y-50250D02*
X35004Y-50250D01*
X35328Y-50211D02*
X35195Y-50021D01*
X35100Y-50211D02*
X35100Y-49811D01*
X35252Y-49811D01*
X35290Y-49830D01*
X35309Y-49850D01*
X35328Y-49888D01*
X35328Y-49945D01*
X35309Y-49983D01*
X35290Y-50002D01*
X35252Y-50021D01*
X35100Y-50021D01*
X35652Y-50192D02*
X35614Y-50211D01*
X35538Y-50211D01*
X35500Y-50192D01*
X35480Y-50154D01*
X35480Y-50002D01*
X35500Y-49964D01*
X35538Y-49945D01*
X35614Y-49945D01*
X35652Y-49964D01*
X35671Y-50002D01*
X35671Y-50040D01*
X35480Y-50078D01*
X35823Y-50192D02*
X35861Y-50211D01*
X35938Y-50211D01*
X35976Y-50192D01*
X35995Y-50154D01*
X35995Y-50135D01*
X35976Y-50097D01*
X35938Y-50078D01*
X35880Y-50078D01*
X35842Y-50059D01*
X35823Y-50021D01*
X35823Y-50002D01*
X35842Y-49964D01*
X35880Y-49945D01*
X35938Y-49945D01*
X35976Y-49964D01*
X36319Y-50192D02*
X36280Y-50211D01*
X36204Y-50211D01*
X36166Y-50192D01*
X36147Y-50154D01*
X36147Y-50002D01*
X36166Y-49964D01*
X36204Y-49945D01*
X36280Y-49945D01*
X36319Y-49964D01*
X36338Y-50002D01*
X36338Y-50040D01*
X36147Y-50078D01*
X36452Y-49945D02*
X36604Y-49945D01*
X36509Y-49811D02*
X36509Y-50154D01*
X36528Y-50192D01*
X36566Y-50211D01*
X36604Y-50211D01*
X49426Y-41261D02*
X49559Y-41661D01*
X49692Y-41261D01*
X49807Y-41642D02*
X49864Y-41661D01*
X49959Y-41661D01*
X49997Y-41642D01*
X50016Y-41623D01*
X50035Y-41585D01*
X50035Y-41547D01*
X50016Y-41509D01*
X49997Y-41490D01*
X49959Y-41471D01*
X49883Y-41452D01*
X49845Y-41433D01*
X49826Y-41414D01*
X49807Y-41376D01*
X49807Y-41338D01*
X49826Y-41300D01*
X49845Y-41280D01*
X49883Y-41261D01*
X49978Y-41261D01*
X50035Y-41280D01*
X47445Y-41597D02*
X47635Y-41597D01*
X47407Y-41711D02*
X47540Y-41311D01*
X47673Y-41711D01*
X47807Y-41311D02*
X47807Y-41635D01*
X47826Y-41673D01*
X47845Y-41692D01*
X47883Y-41711D01*
X47959Y-41711D01*
X47997Y-41692D01*
X48016Y-41673D01*
X48035Y-41635D01*
X48035Y-41311D01*
G54D13*
X41154Y-38734D02*
G75*
G03X41154Y-38734I-139J0D01*
G74*
G01*
X42000Y-36372D02*
X43181Y-36372D01*
X43181Y-36372D02*
X43377Y-36568D01*
X43377Y-36568D02*
X43377Y-38931D01*
X43377Y-38931D02*
X43181Y-39127D01*
X43181Y-39127D02*
X40818Y-39127D01*
X40818Y-39127D02*
X40622Y-38931D01*
X40622Y-38931D02*
X40622Y-36765D01*
X40622Y-36765D02*
X40622Y-36568D01*
X40622Y-36568D02*
X40818Y-36372D01*
X40818Y-36372D02*
X42000Y-36372D01*
X40015Y-45500D02*
X40015Y-44122D01*
X40015Y-44122D02*
X42771Y-44122D01*
X42771Y-44122D02*
X42771Y-46877D01*
X42771Y-46877D02*
X40015Y-46877D01*
X40015Y-46877D02*
X40015Y-45500D01*
G54D14*
X39090Y-51975D02*
X38835Y-51975D01*
X38835Y-51975D02*
X38835Y-52526D01*
X39090Y-52526D02*
X38835Y-52526D01*
X39090Y-51975D02*
X39090Y-52526D01*
X39670Y-51975D02*
X39414Y-51975D01*
X39414Y-51975D02*
X39414Y-52526D01*
X39670Y-52526D02*
X39414Y-52526D01*
X39670Y-51975D02*
X39670Y-52526D01*
G54D15*
X39411Y-52500D02*
X39089Y-52500D01*
X39411Y-52000D02*
X39089Y-52000D01*
G54D14*
X34580Y-44835D02*
X34876Y-44835D01*
X34876Y-44835D02*
X34876Y-44166D01*
X34580Y-44166D02*
X34876Y-44166D01*
X34580Y-44835D02*
X34580Y-44166D01*
X35624Y-44834D02*
X35920Y-44834D01*
X35920Y-44834D02*
X35920Y-44165D01*
X35624Y-44165D02*
X35920Y-44165D01*
X35624Y-44834D02*
X35624Y-44165D01*
X35172Y-44657D02*
X35328Y-44657D01*
X35328Y-44657D02*
X35328Y-44343D01*
X35172Y-44343D02*
X35328Y-44343D01*
X35172Y-44657D02*
X35172Y-44343D01*
G54D16*
X34277Y-44113D02*
X36223Y-44113D01*
X36223Y-44887D02*
X34277Y-44887D01*
X34277Y-44887D02*
X34277Y-44113D01*
X36223Y-44113D02*
X36223Y-44887D01*
G54D17*
X34871Y-44191D02*
X35629Y-44191D01*
X34871Y-44809D02*
X35629Y-44809D01*
G54D14*
X38670Y-44165D02*
X38374Y-44165D01*
X38374Y-44165D02*
X38374Y-44834D01*
X38670Y-44834D02*
X38374Y-44834D01*
X38670Y-44165D02*
X38670Y-44834D01*
X37626Y-44166D02*
X37330Y-44166D01*
X37330Y-44166D02*
X37330Y-44835D01*
X37626Y-44835D02*
X37330Y-44835D01*
X37626Y-44166D02*
X37626Y-44835D01*
X38078Y-44343D02*
X37922Y-44343D01*
X37922Y-44343D02*
X37922Y-44657D01*
X38078Y-44657D02*
X37922Y-44657D01*
X38078Y-44343D02*
X38078Y-44657D01*
G54D16*
X38973Y-44887D02*
X37027Y-44887D01*
X37027Y-44113D02*
X38973Y-44113D01*
X38973Y-44113D02*
X38973Y-44887D01*
X37027Y-44887D02*
X37027Y-44113D01*
G54D17*
X38379Y-44809D02*
X37621Y-44809D01*
X38379Y-44191D02*
X37621Y-44191D01*
G54D14*
X40330Y-48335D02*
X40626Y-48335D01*
X40626Y-48335D02*
X40626Y-47666D01*
X40330Y-47666D02*
X40626Y-47666D01*
X40330Y-48335D02*
X40330Y-47666D01*
X41374Y-48334D02*
X41670Y-48334D01*
X41670Y-48334D02*
X41670Y-47665D01*
X41374Y-47665D02*
X41670Y-47665D01*
X41374Y-48334D02*
X41374Y-47665D01*
X40922Y-48157D02*
X41078Y-48157D01*
X41078Y-48157D02*
X41078Y-47843D01*
X40922Y-47843D02*
X41078Y-47843D01*
X40922Y-48157D02*
X40922Y-47843D01*
G54D16*
X40027Y-47613D02*
X41973Y-47613D01*
X41973Y-48387D02*
X40027Y-48387D01*
X40027Y-48387D02*
X40027Y-47613D01*
X41973Y-47613D02*
X41973Y-48387D01*
G54D17*
X40621Y-47691D02*
X41379Y-47691D01*
X40621Y-48309D02*
X41379Y-48309D01*
G54D13*
X42005Y-34478D02*
G75*
G03X42005Y-34478I-27J0D01*
G74*
G01*
X41859Y-34596D02*
X43040Y-34596D01*
X43040Y-34596D02*
X43040Y-34006D01*
X43040Y-34006D02*
X41859Y-34006D01*
X41859Y-34596D02*
X41859Y-34006D01*
G54D16*
X41150Y-53320D02*
X43860Y-53320D01*
G54D18*
X41100Y-51650D02*
X43900Y-51650D01*
X43900Y-51650D02*
X43900Y-52350D01*
X43900Y-52350D02*
X44200Y-52350D01*
X44200Y-52350D02*
X44200Y-53150D01*
X44200Y-53150D02*
X43900Y-53150D01*
X43900Y-53150D02*
X43900Y-53650D01*
X43900Y-53650D02*
X41100Y-53650D01*
X41100Y-53650D02*
X41100Y-53150D01*
X41100Y-53150D02*
X40800Y-53150D01*
X40800Y-53150D02*
X40800Y-52350D01*
X40800Y-52350D02*
X41100Y-52350D01*
X41100Y-52350D02*
X41100Y-51650D01*
G54D13*
X37840Y-48590D02*
G75*
G03X37840Y-48590I-196J0D01*
G74*
G01*
X36462Y-47015D02*
X38037Y-47015D01*
X38037Y-47015D02*
X38037Y-48984D01*
X38037Y-48984D02*
X36462Y-48984D01*
X36462Y-48984D02*
X36462Y-48000D01*
X36462Y-48000D02*
X36462Y-47015D01*
G54D19*
X44068Y-34013D02*
X43831Y-34013D01*
X44068Y-34013D02*
X44146Y-33935D01*
X44146Y-33935D02*
X44422Y-33935D01*
X44422Y-34525D02*
X44422Y-34564D01*
X44422Y-34564D02*
X44146Y-34564D01*
X44146Y-34564D02*
X44068Y-34486D01*
X44068Y-34486D02*
X43831Y-34486D01*
X43831Y-34486D02*
X43753Y-34564D01*
X43753Y-34564D02*
X43477Y-34564D01*
X43477Y-34564D02*
X43477Y-34368D01*
X43477Y-34368D02*
X43477Y-33935D01*
X43477Y-33935D02*
X43753Y-33935D01*
X43753Y-33935D02*
X43831Y-34013D01*
X44422Y-33935D02*
X44422Y-34525D01*
G54D14*
X37350Y-51600D02*
X37000Y-51600D01*
X37000Y-51600D02*
X37000Y-51900D01*
X37350Y-51900D02*
X37000Y-51900D01*
X37350Y-51600D02*
X37350Y-51900D01*
G54D11*
X34328Y-50613D02*
X34328Y-52887D01*
X36672Y-52887D02*
X36672Y-51946D01*
X36672Y-51554D02*
X36672Y-50613D01*
X36672Y-51946D02*
X36770Y-51946D01*
X36770Y-51946D02*
X36770Y-51554D01*
X36770Y-51554D02*
X36672Y-51554D01*
X35893Y-52808D02*
X35107Y-52808D01*
X35107Y-52808D02*
X35107Y-52887D01*
X35107Y-52887D02*
X35107Y-52966D01*
X35107Y-52966D02*
X35893Y-52966D01*
X35893Y-52966D02*
X35893Y-52887D01*
X35893Y-52887D02*
X35893Y-52808D01*
X35893Y-50534D02*
X35107Y-50534D01*
X35107Y-50534D02*
X35107Y-50613D01*
X35107Y-50613D02*
X35107Y-50692D01*
X35107Y-50692D02*
X35893Y-50692D01*
X35893Y-50692D02*
X35893Y-50613D01*
X35893Y-50613D02*
X35893Y-50534D01*
X36672Y-52887D02*
X35893Y-52887D01*
X35107Y-52887D02*
X34328Y-52887D01*
X35107Y-50613D02*
X34328Y-50613D01*
X35893Y-50613D02*
X36672Y-50613D01*
G54D20*
X35917Y-51750D02*
G75*
G03X35917Y-51750I-417J0D01*
G74*
G01*
X35833Y-51750D02*
G75*
G03X35833Y-51750I-333J0D01*
G74*
G01*
G54D12*
X50167Y-40188D02*
X50167Y-38812D01*
X50167Y-38812D02*
X47333Y-38812D01*
X47333Y-38812D02*
X47333Y-40188D01*
X47333Y-40188D02*
X50167Y-40188D01*
G54D11*
X48277Y-39500D02*
G75*
G03X48277Y-39500I-117J0D01*
G74*
G01*
X48327Y-39500D02*
X47993Y-39500D01*
X48160Y-39333D02*
X48160Y-39667D01*
X49457Y-39500D02*
G75*
G03X49457Y-39500I-117J0D01*
G74*
G01*
X49507Y-39500D02*
X49173Y-39500D01*
X49340Y-39333D02*
X49340Y-39667D01*
G54D14*
X34830Y-46170D02*
X34830Y-46330D01*
X34830Y-46330D02*
X35170Y-46330D01*
X35170Y-46170D02*
X35170Y-46330D01*
X34830Y-46170D02*
X35170Y-46170D01*
X34830Y-45670D02*
X34830Y-45830D01*
X34830Y-45830D02*
X35170Y-45830D01*
X35170Y-45670D02*
X35170Y-45830D01*
X34830Y-45670D02*
X35170Y-45670D01*
X34843Y-45922D02*
X34843Y-46078D01*
X34843Y-46078D02*
X35157Y-46078D01*
X35157Y-45922D02*
X35157Y-46078D01*
X34843Y-45922D02*
X35157Y-45922D01*
G54D15*
X34860Y-45830D02*
X34860Y-46170D01*
X35140Y-46170D02*
X35140Y-45830D01*
G54D14*
X38720Y-39670D02*
X38880Y-39670D01*
X38880Y-39670D02*
X38880Y-39330D01*
X38720Y-39330D02*
X38880Y-39330D01*
X38720Y-39670D02*
X38720Y-39330D01*
X38220Y-39670D02*
X38380Y-39670D01*
X38380Y-39670D02*
X38380Y-39330D01*
X38220Y-39330D02*
X38380Y-39330D01*
X38220Y-39670D02*
X38220Y-39330D01*
X38472Y-39657D02*
X38628Y-39657D01*
X38628Y-39657D02*
X38628Y-39343D01*
X38472Y-39343D02*
X38628Y-39343D01*
X38472Y-39657D02*
X38472Y-39343D01*
G54D15*
X38380Y-39640D02*
X38720Y-39640D01*
X38720Y-39360D02*
X38380Y-39360D01*
G54D14*
X33830Y-46170D02*
X33830Y-46330D01*
X33830Y-46330D02*
X34170Y-46330D01*
X34170Y-46170D02*
X34170Y-46330D01*
X33830Y-46170D02*
X34170Y-46170D01*
X33830Y-45670D02*
X33830Y-45830D01*
X33830Y-45830D02*
X34170Y-45830D01*
X34170Y-45670D02*
X34170Y-45830D01*
X33830Y-45670D02*
X34170Y-45670D01*
X33843Y-45922D02*
X33843Y-46078D01*
X33843Y-46078D02*
X34157Y-46078D01*
X34157Y-45922D02*
X34157Y-46078D01*
X33843Y-45922D02*
X34157Y-45922D01*
G54D15*
X33860Y-45830D02*
X33860Y-46170D01*
X34140Y-46170D02*
X34140Y-45830D01*
G54D14*
X38720Y-38920D02*
X38880Y-38920D01*
X38880Y-38920D02*
X38880Y-38580D01*
X38720Y-38580D02*
X38880Y-38580D01*
X38720Y-38920D02*
X38720Y-38580D01*
X38220Y-38920D02*
X38380Y-38920D01*
X38380Y-38920D02*
X38380Y-38580D01*
X38220Y-38580D02*
X38380Y-38580D01*
X38220Y-38920D02*
X38220Y-38580D01*
X38472Y-38907D02*
X38628Y-38907D01*
X38628Y-38907D02*
X38628Y-38593D01*
X38472Y-38593D02*
X38628Y-38593D01*
X38472Y-38907D02*
X38472Y-38593D01*
G54D15*
X38380Y-38890D02*
X38720Y-38890D01*
X38720Y-38610D02*
X38380Y-38610D01*
G54D14*
X36170Y-45830D02*
X36170Y-45670D01*
X36170Y-45670D02*
X35830Y-45670D01*
X35830Y-45830D02*
X35830Y-45670D01*
X36170Y-45830D02*
X35830Y-45830D01*
X36170Y-46330D02*
X36170Y-46170D01*
X36170Y-46170D02*
X35830Y-46170D01*
X35830Y-46330D02*
X35830Y-46170D01*
X36170Y-46330D02*
X35830Y-46330D01*
X36157Y-46078D02*
X36157Y-45922D01*
X36157Y-45922D02*
X35843Y-45922D01*
X35843Y-46078D02*
X35843Y-45922D01*
X36157Y-46078D02*
X35843Y-46078D01*
G54D15*
X36140Y-46170D02*
X36140Y-45830D01*
X35860Y-45830D02*
X35860Y-46170D01*
G54D14*
X48170Y-43420D02*
X48330Y-43420D01*
X48330Y-43420D02*
X48330Y-43080D01*
X48170Y-43080D02*
X48330Y-43080D01*
X48170Y-43420D02*
X48170Y-43080D01*
X47670Y-43420D02*
X47830Y-43420D01*
X47830Y-43420D02*
X47830Y-43080D01*
X47670Y-43080D02*
X47830Y-43080D01*
X47670Y-43420D02*
X47670Y-43080D01*
X47922Y-43407D02*
X48078Y-43407D01*
X48078Y-43407D02*
X48078Y-43093D01*
X47922Y-43093D02*
X48078Y-43093D01*
X47922Y-43407D02*
X47922Y-43093D01*
G54D15*
X47830Y-43390D02*
X48170Y-43390D01*
X48170Y-43110D02*
X47830Y-43110D01*
G54D14*
X38380Y-36330D02*
X38220Y-36330D01*
X38220Y-36330D02*
X38220Y-36670D01*
X38380Y-36670D02*
X38220Y-36670D01*
X38380Y-36330D02*
X38380Y-36670D01*
X38880Y-36330D02*
X38720Y-36330D01*
X38720Y-36330D02*
X38720Y-36670D01*
X38880Y-36670D02*
X38720Y-36670D01*
X38880Y-36330D02*
X38880Y-36670D01*
X38628Y-36343D02*
X38472Y-36343D01*
X38472Y-36343D02*
X38472Y-36657D01*
X38628Y-36657D02*
X38472Y-36657D01*
X38628Y-36343D02*
X38628Y-36657D01*
G54D15*
X38720Y-36360D02*
X38380Y-36360D01*
X38380Y-36640D02*
X38720Y-36640D01*
G54D14*
X34080Y-48080D02*
X33920Y-48080D01*
X33920Y-48080D02*
X33920Y-48420D01*
X34080Y-48420D02*
X33920Y-48420D01*
X34080Y-48080D02*
X34080Y-48420D01*
X34580Y-48080D02*
X34420Y-48080D01*
X34420Y-48080D02*
X34420Y-48420D01*
X34580Y-48420D02*
X34420Y-48420D01*
X34580Y-48080D02*
X34580Y-48420D01*
X34328Y-48093D02*
X34172Y-48093D01*
X34172Y-48093D02*
X34172Y-48407D01*
X34328Y-48407D02*
X34172Y-48407D01*
X34328Y-48093D02*
X34328Y-48407D01*
G54D15*
X34420Y-48110D02*
X34080Y-48110D01*
X34080Y-48390D02*
X34420Y-48390D01*
G54D14*
X48170Y-44670D02*
X48330Y-44670D01*
X48330Y-44670D02*
X48330Y-44330D01*
X48170Y-44330D02*
X48330Y-44330D01*
X48170Y-44670D02*
X48170Y-44330D01*
X47670Y-44670D02*
X47830Y-44670D01*
X47830Y-44670D02*
X47830Y-44330D01*
X47670Y-44330D02*
X47830Y-44330D01*
X47670Y-44670D02*
X47670Y-44330D01*
X47922Y-44657D02*
X48078Y-44657D01*
X48078Y-44657D02*
X48078Y-44343D01*
X47922Y-44343D02*
X48078Y-44343D01*
X47922Y-44657D02*
X47922Y-44343D01*
G54D15*
X47830Y-44640D02*
X48170Y-44640D01*
X48170Y-44360D02*
X47830Y-44360D01*
G54D14*
X42036Y-40580D02*
X41876Y-40580D01*
X41876Y-40580D02*
X41876Y-40920D01*
X42036Y-40920D02*
X41876Y-40920D01*
X42036Y-40580D02*
X42036Y-40920D01*
X42536Y-40580D02*
X42376Y-40580D01*
X42376Y-40580D02*
X42376Y-40920D01*
X42536Y-40920D02*
X42376Y-40920D01*
X42536Y-40580D02*
X42536Y-40920D01*
X42284Y-40593D02*
X42128Y-40593D01*
X42128Y-40593D02*
X42128Y-40907D01*
X42284Y-40907D02*
X42128Y-40907D01*
X42284Y-40593D02*
X42284Y-40907D01*
G54D15*
X42376Y-40610D02*
X42036Y-40610D01*
X42036Y-40890D02*
X42376Y-40890D01*
G54D14*
X48170Y-45920D02*
X48330Y-45920D01*
X48330Y-45920D02*
X48330Y-45580D01*
X48170Y-45580D02*
X48330Y-45580D01*
X48170Y-45920D02*
X48170Y-45580D01*
X47670Y-45920D02*
X47830Y-45920D01*
X47830Y-45920D02*
X47830Y-45580D01*
X47670Y-45580D02*
X47830Y-45580D01*
X47670Y-45920D02*
X47670Y-45580D01*
X47922Y-45907D02*
X48078Y-45907D01*
X48078Y-45907D02*
X48078Y-45593D01*
X47922Y-45593D02*
X48078Y-45593D01*
X47922Y-45907D02*
X47922Y-45593D01*
G54D15*
X47830Y-45890D02*
X48170Y-45890D01*
X48170Y-45610D02*
X47830Y-45610D01*
G54D14*
X50175Y-43010D02*
X50175Y-43069D01*
X50175Y-43069D02*
X50293Y-43069D01*
X50293Y-43010D02*
X50293Y-43069D01*
X50175Y-43010D02*
X50293Y-43010D01*
X50175Y-43481D02*
X50175Y-43540D01*
X50175Y-43540D02*
X50293Y-43540D01*
X50293Y-43481D02*
X50293Y-43540D01*
X50175Y-43481D02*
X50293Y-43481D01*
X50175Y-43216D02*
X50175Y-43334D01*
X50175Y-43334D02*
X50293Y-43334D01*
X50293Y-43216D02*
X50293Y-43334D01*
X50175Y-43216D02*
X50293Y-43216D01*
X50352Y-43010D02*
X50352Y-43540D01*
X50352Y-43540D02*
X50588Y-43540D01*
X50588Y-43010D02*
X50588Y-43540D01*
X50352Y-43010D02*
X50588Y-43010D01*
X49762Y-43010D02*
X49762Y-43540D01*
X49762Y-43540D02*
X49998Y-43540D01*
X49998Y-43010D02*
X49998Y-43540D01*
X49762Y-43010D02*
X49998Y-43010D01*
G54D17*
X50352Y-43029D02*
X49998Y-43029D01*
X50352Y-43521D02*
X49988Y-43521D01*
G54D14*
X50175Y-44260D02*
X50175Y-44319D01*
X50175Y-44319D02*
X50293Y-44319D01*
X50293Y-44260D02*
X50293Y-44319D01*
X50175Y-44260D02*
X50293Y-44260D01*
X50175Y-44731D02*
X50175Y-44790D01*
X50175Y-44790D02*
X50293Y-44790D01*
X50293Y-44731D02*
X50293Y-44790D01*
X50175Y-44731D02*
X50293Y-44731D01*
X50175Y-44466D02*
X50175Y-44584D01*
X50175Y-44584D02*
X50293Y-44584D01*
X50293Y-44466D02*
X50293Y-44584D01*
X50175Y-44466D02*
X50293Y-44466D01*
X50352Y-44260D02*
X50352Y-44790D01*
X50352Y-44790D02*
X50588Y-44790D01*
X50588Y-44260D02*
X50588Y-44790D01*
X50352Y-44260D02*
X50588Y-44260D01*
X49762Y-44260D02*
X49762Y-44790D01*
X49762Y-44790D02*
X49998Y-44790D01*
X49998Y-44260D02*
X49998Y-44790D01*
X49762Y-44260D02*
X49998Y-44260D01*
G54D17*
X50352Y-44279D02*
X49998Y-44279D01*
X50352Y-44771D02*
X49988Y-44771D01*
G54D14*
X50175Y-45510D02*
X50175Y-45569D01*
X50175Y-45569D02*
X50293Y-45569D01*
X50293Y-45510D02*
X50293Y-45569D01*
X50175Y-45510D02*
X50293Y-45510D01*
X50175Y-45981D02*
X50175Y-46040D01*
X50175Y-46040D02*
X50293Y-46040D01*
X50293Y-45981D02*
X50293Y-46040D01*
X50175Y-45981D02*
X50293Y-45981D01*
X50175Y-45716D02*
X50175Y-45834D01*
X50175Y-45834D02*
X50293Y-45834D01*
X50293Y-45716D02*
X50293Y-45834D01*
X50175Y-45716D02*
X50293Y-45716D01*
X50352Y-45510D02*
X50352Y-46040D01*
X50352Y-46040D02*
X50588Y-46040D01*
X50588Y-45510D02*
X50588Y-46040D01*
X50352Y-45510D02*
X50588Y-45510D01*
X49762Y-45510D02*
X49762Y-46040D01*
X49762Y-46040D02*
X49998Y-46040D01*
X49998Y-45510D02*
X49998Y-46040D01*
X49762Y-45510D02*
X49998Y-45510D01*
G54D17*
X50352Y-45529D02*
X49998Y-45529D01*
X50352Y-46021D02*
X49988Y-46021D01*
G54D13*
X40933Y-41277D02*
X42940Y-41277D01*
X42940Y-41277D02*
X42980Y-41277D01*
X42980Y-41277D02*
X43137Y-41435D01*
X43137Y-41435D02*
X43137Y-42064D01*
X43137Y-42064D02*
X42980Y-42222D01*
X42980Y-42222D02*
X40933Y-42222D01*
X40933Y-42222D02*
X40775Y-42064D01*
X40775Y-42064D02*
X40775Y-41435D01*
X40775Y-41435D02*
X40933Y-41277D01*
X40933Y-41435D02*
X42940Y-41435D01*
X42940Y-41435D02*
X42980Y-41435D01*
X42980Y-41435D02*
X42980Y-42064D01*
X42980Y-42064D02*
X40933Y-42064D01*
X40933Y-42064D02*
X40933Y-41435D01*
G54D14*
X41313Y-49972D02*
X41392Y-49972D01*
X41392Y-49972D02*
X41392Y-49028D01*
X41313Y-49028D02*
X41392Y-49028D01*
X41313Y-49972D02*
X41313Y-49028D01*
X44108Y-49972D02*
X44187Y-49972D01*
X44187Y-49972D02*
X44187Y-49028D01*
X44108Y-49028D02*
X44187Y-49028D01*
X44108Y-49972D02*
X44108Y-49028D01*
X41373Y-50326D02*
X41806Y-50326D01*
X41806Y-50326D02*
X41806Y-48674D01*
X41373Y-48674D02*
X41806Y-48674D01*
X41373Y-50326D02*
X41373Y-48674D01*
G54D17*
X41373Y-48674D02*
X44127Y-48674D01*
X44127Y-48674D02*
X44127Y-50326D01*
X44127Y-50326D02*
X41373Y-50326D01*
X41373Y-50326D02*
X41373Y-48674D01*
G54D21*
X36450Y-39450D02*
X36450Y-39500D01*
X36450Y-38500D02*
X36450Y-39450D01*
X36350Y-38500D02*
X36350Y-39500D01*
X36240Y-38505D02*
X36240Y-39485D01*
G54D14*
X35812Y-39433D02*
X35890Y-39433D01*
X35890Y-39433D02*
X35890Y-38567D01*
X35812Y-38567D02*
X35890Y-38567D01*
X35812Y-39433D02*
X35812Y-38567D01*
X37110Y-39433D02*
X37188Y-39433D01*
X37188Y-39433D02*
X37188Y-38567D01*
X37110Y-38567D02*
X37188Y-38567D01*
X37110Y-39433D02*
X37110Y-38567D01*
X35871Y-39531D02*
X36126Y-39531D01*
X36126Y-39531D02*
X36126Y-38469D01*
X35871Y-38469D02*
X36126Y-38469D01*
X35871Y-39531D02*
X35871Y-38469D01*
G54D17*
X35871Y-38469D02*
X37129Y-38469D01*
X37129Y-38469D02*
X37129Y-39531D01*
X37129Y-39531D02*
X35871Y-39531D01*
X35871Y-39531D02*
X35871Y-38469D01*
G54D21*
X36450Y-42700D02*
X36450Y-42750D01*
X36450Y-41750D02*
X36450Y-42700D01*
X36350Y-41750D02*
X36350Y-42750D01*
X36240Y-41755D02*
X36240Y-42735D01*
G54D14*
X35812Y-42683D02*
X35890Y-42683D01*
X35890Y-42683D02*
X35890Y-41817D01*
X35812Y-41817D02*
X35890Y-41817D01*
X35812Y-42683D02*
X35812Y-41817D01*
X37110Y-42683D02*
X37188Y-42683D01*
X37188Y-42683D02*
X37188Y-41817D01*
X37110Y-41817D02*
X37188Y-41817D01*
X37110Y-42683D02*
X37110Y-41817D01*
X35871Y-42781D02*
X36126Y-42781D01*
X36126Y-42781D02*
X36126Y-41719D01*
X35871Y-41719D02*
X36126Y-41719D01*
X35871Y-42781D02*
X35871Y-41719D01*
G54D17*
X35871Y-41719D02*
X37129Y-41719D01*
X37129Y-41719D02*
X37129Y-42781D01*
X37129Y-42781D02*
X35871Y-42781D01*
X35871Y-42781D02*
X35871Y-41719D01*
G54D21*
X36450Y-37950D02*
X36450Y-38000D01*
X36450Y-37000D02*
X36450Y-37950D01*
X36350Y-37000D02*
X36350Y-38000D01*
X36240Y-37005D02*
X36240Y-37985D01*
G54D14*
X35812Y-37933D02*
X35890Y-37933D01*
X35890Y-37933D02*
X35890Y-37067D01*
X35812Y-37067D02*
X35890Y-37067D01*
X35812Y-37933D02*
X35812Y-37067D01*
X37110Y-37933D02*
X37188Y-37933D01*
X37188Y-37933D02*
X37188Y-37067D01*
X37110Y-37067D02*
X37188Y-37067D01*
X37110Y-37933D02*
X37110Y-37067D01*
X35871Y-38031D02*
X36126Y-38031D01*
X36126Y-38031D02*
X36126Y-36969D01*
X35871Y-36969D02*
X36126Y-36969D01*
X35871Y-38031D02*
X35871Y-36969D01*
G54D17*
X35871Y-36969D02*
X37129Y-36969D01*
X37129Y-36969D02*
X37129Y-38031D01*
X37129Y-38031D02*
X35871Y-38031D01*
X35871Y-38031D02*
X35871Y-36969D01*
G54D21*
X36450Y-34700D02*
X36450Y-34750D01*
X36450Y-33750D02*
X36450Y-34700D01*
X36350Y-33750D02*
X36350Y-34750D01*
X36240Y-33755D02*
X36240Y-34735D01*
G54D14*
X35812Y-34683D02*
X35890Y-34683D01*
X35890Y-34683D02*
X35890Y-33817D01*
X35812Y-33817D02*
X35890Y-33817D01*
X35812Y-34683D02*
X35812Y-33817D01*
X37110Y-34683D02*
X37188Y-34683D01*
X37188Y-34683D02*
X37188Y-33817D01*
X37110Y-33817D02*
X37188Y-33817D01*
X37110Y-34683D02*
X37110Y-33817D01*
X35871Y-34781D02*
X36126Y-34781D01*
X36126Y-34781D02*
X36126Y-33719D01*
X35871Y-33719D02*
X36126Y-33719D01*
X35871Y-34781D02*
X35871Y-33719D01*
G54D17*
X35871Y-33719D02*
X37129Y-33719D01*
X37129Y-33719D02*
X37129Y-34781D01*
X37129Y-34781D02*
X35871Y-34781D01*
X35871Y-34781D02*
X35871Y-33719D01*
G54D14*
X40141Y-42080D02*
X40141Y-41883D01*
X40141Y-41883D02*
X39767Y-41883D01*
X39767Y-42080D02*
X39767Y-41883D01*
X40141Y-42080D02*
X39767Y-42080D01*
X40141Y-41620D02*
X40141Y-41424D01*
X40141Y-41424D02*
X39767Y-41424D01*
X39767Y-41620D02*
X39767Y-41424D01*
X40141Y-41620D02*
X39767Y-41620D01*
X40074Y-41828D02*
X40074Y-41672D01*
X40074Y-41672D02*
X39838Y-41672D01*
X39838Y-41828D02*
X39838Y-41672D01*
X40074Y-41828D02*
X39838Y-41828D01*
G54D17*
X39786Y-41890D02*
X39786Y-41610D01*
X40120Y-41890D02*
X40120Y-41610D01*
G54D14*
X44141Y-42080D02*
X44141Y-41883D01*
X44141Y-41883D02*
X43767Y-41883D01*
X43767Y-42080D02*
X43767Y-41883D01*
X44141Y-42080D02*
X43767Y-42080D01*
X44141Y-41620D02*
X44141Y-41424D01*
X44141Y-41424D02*
X43767Y-41424D01*
X43767Y-41620D02*
X43767Y-41424D01*
X44141Y-41620D02*
X43767Y-41620D01*
X44074Y-41828D02*
X44074Y-41672D01*
X44074Y-41672D02*
X43838Y-41672D01*
X43838Y-41828D02*
X43838Y-41672D01*
X44074Y-41828D02*
X43838Y-41828D01*
G54D17*
X43786Y-41890D02*
X43786Y-41610D01*
X44120Y-41890D02*
X44120Y-41610D01*
G54D14*
X36170Y-36435D02*
X36367Y-36435D01*
X36367Y-36435D02*
X36367Y-36061D01*
X36170Y-36061D02*
X36367Y-36061D01*
X36170Y-36435D02*
X36170Y-36061D01*
X36630Y-36435D02*
X36826Y-36435D01*
X36826Y-36435D02*
X36826Y-36061D01*
X36630Y-36061D02*
X36826Y-36061D01*
X36630Y-36435D02*
X36630Y-36061D01*
X36422Y-36368D02*
X36578Y-36368D01*
X36578Y-36368D02*
X36578Y-36132D01*
X36422Y-36132D02*
X36578Y-36132D01*
X36422Y-36368D02*
X36422Y-36132D01*
G54D17*
X36360Y-36080D02*
X36640Y-36080D01*
X36360Y-36414D02*
X36640Y-36414D01*
G54D14*
X38920Y-51185D02*
X39117Y-51185D01*
X39117Y-51185D02*
X39117Y-50811D01*
X38920Y-50811D02*
X39117Y-50811D01*
X38920Y-51185D02*
X38920Y-50811D01*
X39380Y-51185D02*
X39576Y-51185D01*
X39576Y-51185D02*
X39576Y-50811D01*
X39380Y-50811D02*
X39576Y-50811D01*
X39380Y-51185D02*
X39380Y-50811D01*
X39172Y-51118D02*
X39328Y-51118D01*
X39328Y-51118D02*
X39328Y-50882D01*
X39172Y-50882D02*
X39328Y-50882D01*
X39172Y-51118D02*
X39172Y-50882D01*
G54D17*
X39110Y-50830D02*
X39390Y-50830D01*
X39110Y-51164D02*
X39390Y-51164D01*
G54D14*
X40370Y-40935D02*
X40567Y-40935D01*
X40567Y-40935D02*
X40567Y-40561D01*
X40370Y-40561D02*
X40567Y-40561D01*
X40370Y-40935D02*
X40370Y-40561D01*
X40830Y-40935D02*
X41026Y-40935D01*
X41026Y-40935D02*
X41026Y-40561D01*
X40830Y-40561D02*
X41026Y-40561D01*
X40830Y-40935D02*
X40830Y-40561D01*
X40622Y-40868D02*
X40778Y-40868D01*
X40778Y-40868D02*
X40778Y-40632D01*
X40622Y-40632D02*
X40778Y-40632D01*
X40622Y-40868D02*
X40622Y-40632D01*
G54D17*
X40560Y-40580D02*
X40840Y-40580D01*
X40560Y-40914D02*
X40840Y-40914D01*
G54D14*
X33920Y-47685D02*
X34117Y-47685D01*
X34117Y-47685D02*
X34117Y-47311D01*
X33920Y-47311D02*
X34117Y-47311D01*
X33920Y-47685D02*
X33920Y-47311D01*
X34380Y-47685D02*
X34576Y-47685D01*
X34576Y-47685D02*
X34576Y-47311D01*
X34380Y-47311D02*
X34576Y-47311D01*
X34380Y-47685D02*
X34380Y-47311D01*
X34172Y-47618D02*
X34328Y-47618D01*
X34328Y-47618D02*
X34328Y-47382D01*
X34172Y-47382D02*
X34328Y-47382D01*
X34172Y-47618D02*
X34172Y-47382D01*
G54D17*
X34110Y-47330D02*
X34390Y-47330D01*
X34110Y-47664D02*
X34390Y-47664D01*
G54D14*
X43376Y-40935D02*
X43573Y-40935D01*
X43573Y-40935D02*
X43573Y-40561D01*
X43376Y-40561D02*
X43573Y-40561D01*
X43376Y-40935D02*
X43376Y-40561D01*
X43836Y-40935D02*
X44032Y-40935D01*
X44032Y-40935D02*
X44032Y-40561D01*
X43836Y-40561D02*
X44032Y-40561D01*
X43836Y-40935D02*
X43836Y-40561D01*
X43628Y-40868D02*
X43784Y-40868D01*
X43784Y-40868D02*
X43784Y-40632D01*
X43628Y-40632D02*
X43784Y-40632D01*
X43628Y-40868D02*
X43628Y-40632D01*
G54D17*
X43566Y-40580D02*
X43846Y-40580D01*
X43566Y-40914D02*
X43846Y-40914D01*
G54D14*
X38220Y-40435D02*
X38417Y-40435D01*
X38417Y-40435D02*
X38417Y-40061D01*
X38220Y-40061D02*
X38417Y-40061D01*
X38220Y-40435D02*
X38220Y-40061D01*
X38680Y-40435D02*
X38876Y-40435D01*
X38876Y-40435D02*
X38876Y-40061D01*
X38680Y-40061D02*
X38876Y-40061D01*
X38680Y-40435D02*
X38680Y-40061D01*
X38472Y-40368D02*
X38628Y-40368D01*
X38628Y-40368D02*
X38628Y-40132D01*
X38472Y-40132D02*
X38628Y-40132D01*
X38472Y-40368D02*
X38472Y-40132D01*
G54D17*
X38410Y-40080D02*
X38690Y-40080D01*
X38410Y-40414D02*
X38690Y-40414D01*
G54D14*
X38220Y-35935D02*
X38417Y-35935D01*
X38417Y-35935D02*
X38417Y-35561D01*
X38220Y-35561D02*
X38417Y-35561D01*
X38220Y-35935D02*
X38220Y-35561D01*
X38680Y-35935D02*
X38876Y-35935D01*
X38876Y-35935D02*
X38876Y-35561D01*
X38680Y-35561D02*
X38876Y-35561D01*
X38680Y-35935D02*
X38680Y-35561D01*
X38472Y-35868D02*
X38628Y-35868D01*
X38628Y-35868D02*
X38628Y-35632D01*
X38472Y-35632D02*
X38628Y-35632D01*
X38472Y-35868D02*
X38472Y-35632D01*
G54D17*
X38410Y-35580D02*
X38690Y-35580D01*
X38410Y-35914D02*
X38690Y-35914D01*
G54D14*
X37670Y-49935D02*
X37867Y-49935D01*
X37867Y-49935D02*
X37867Y-49561D01*
X37670Y-49561D02*
X37867Y-49561D01*
X37670Y-49935D02*
X37670Y-49561D01*
X38130Y-49935D02*
X38326Y-49935D01*
X38326Y-49935D02*
X38326Y-49561D01*
X38130Y-49561D02*
X38326Y-49561D01*
X38130Y-49935D02*
X38130Y-49561D01*
X37922Y-49868D02*
X38078Y-49868D01*
X38078Y-49868D02*
X38078Y-49632D01*
X37922Y-49632D02*
X38078Y-49632D01*
X37922Y-49868D02*
X37922Y-49632D01*
G54D17*
X37860Y-49580D02*
X38140Y-49580D01*
X37860Y-49914D02*
X38140Y-49914D01*
G54D14*
X36170Y-41185D02*
X36367Y-41185D01*
X36367Y-41185D02*
X36367Y-40811D01*
X36170Y-40811D02*
X36367Y-40811D01*
X36170Y-41185D02*
X36170Y-40811D01*
X36630Y-41185D02*
X36826Y-41185D01*
X36826Y-41185D02*
X36826Y-40811D01*
X36630Y-40811D02*
X36826Y-40811D01*
X36630Y-41185D02*
X36630Y-40811D01*
X36422Y-41118D02*
X36578Y-41118D01*
X36578Y-41118D02*
X36578Y-40882D01*
X36422Y-40882D02*
X36578Y-40882D01*
X36422Y-41118D02*
X36422Y-40882D01*
G54D17*
X36360Y-40830D02*
X36640Y-40830D01*
X36360Y-41164D02*
X36640Y-41164D01*
G54D14*
X36170Y-40435D02*
X36367Y-40435D01*
X36367Y-40435D02*
X36367Y-40061D01*
X36170Y-40061D02*
X36367Y-40061D01*
X36170Y-40435D02*
X36170Y-40061D01*
X36630Y-40435D02*
X36826Y-40435D01*
X36826Y-40435D02*
X36826Y-40061D01*
X36630Y-40061D02*
X36826Y-40061D01*
X36630Y-40435D02*
X36630Y-40061D01*
X36422Y-40368D02*
X36578Y-40368D01*
X36578Y-40368D02*
X36578Y-40132D01*
X36422Y-40132D02*
X36578Y-40132D01*
X36422Y-40368D02*
X36422Y-40132D01*
G54D17*
X36360Y-40080D02*
X36640Y-40080D01*
X36360Y-40414D02*
X36640Y-40414D01*
G54D14*
X36170Y-35685D02*
X36367Y-35685D01*
X36367Y-35685D02*
X36367Y-35311D01*
X36170Y-35311D02*
X36367Y-35311D01*
X36170Y-35685D02*
X36170Y-35311D01*
X36630Y-35685D02*
X36826Y-35685D01*
X36826Y-35685D02*
X36826Y-35311D01*
X36630Y-35311D02*
X36826Y-35311D01*
X36630Y-35685D02*
X36630Y-35311D01*
X36422Y-35618D02*
X36578Y-35618D01*
X36578Y-35618D02*
X36578Y-35382D01*
X36422Y-35382D02*
X36578Y-35382D01*
X36422Y-35618D02*
X36422Y-35382D01*
G54D17*
X36360Y-35330D02*
X36640Y-35330D01*
X36360Y-35664D02*
X36640Y-35664D01*
G54D14*
X33920Y-49185D02*
X34117Y-49185D01*
X34117Y-49185D02*
X34117Y-48811D01*
X33920Y-48811D02*
X34117Y-48811D01*
X33920Y-49185D02*
X33920Y-48811D01*
X34380Y-49185D02*
X34576Y-49185D01*
X34576Y-49185D02*
X34576Y-48811D01*
X34380Y-48811D02*
X34576Y-48811D01*
X34380Y-49185D02*
X34380Y-48811D01*
X34172Y-49118D02*
X34328Y-49118D01*
X34328Y-49118D02*
X34328Y-48882D01*
X34172Y-48882D02*
X34328Y-48882D01*
X34172Y-49118D02*
X34172Y-48882D01*
G54D17*
X34110Y-48830D02*
X34390Y-48830D01*
X34110Y-49164D02*
X34390Y-49164D01*
G54D22*
X38452Y-45316D02*
X38452Y-46183D01*
G54D19*
X38275Y-45297D02*
X38275Y-46202D01*
X38157Y-45297D02*
X38157Y-46222D01*
X37901Y-45513D02*
X38157Y-45750D01*
X38157Y-45750D02*
X37901Y-45986D01*
X37901Y-45277D02*
X37901Y-46222D01*
G54D13*
X39023Y-45750D02*
X39023Y-46222D01*
X39003Y-46222D02*
X37822Y-46222D01*
X37862Y-46222D02*
X37468Y-46222D01*
X37448Y-46222D02*
X37212Y-46222D01*
X37212Y-46222D02*
X37212Y-45277D01*
X37212Y-45277D02*
X39023Y-45277D01*
X39023Y-45750D02*
X39023Y-45277D01*
G54D22*
X35116Y-33420D02*
X35116Y-33370D01*
X35116Y-33370D02*
X34966Y-33220D01*
X34966Y-33220D02*
X34666Y-33220D01*
X34666Y-33220D02*
X34516Y-33370D01*
X34516Y-33370D02*
X34516Y-33620D01*
X34516Y-38620D02*
X34516Y-38420D01*
X34516Y-38420D02*
X34666Y-38270D01*
X34666Y-38270D02*
X34516Y-38120D01*
X34516Y-38120D02*
X34516Y-37920D01*
X34516Y-37920D02*
X34666Y-37770D01*
X34666Y-37770D02*
X34516Y-37620D01*
X34516Y-37620D02*
X34516Y-37420D01*
X34516Y-37420D02*
X34666Y-37270D01*
X34666Y-37270D02*
X34516Y-37120D01*
X34516Y-37120D02*
X34516Y-36920D01*
X34516Y-36920D02*
X34666Y-36770D01*
X34666Y-36770D02*
X34516Y-36620D01*
X34516Y-36620D02*
X34516Y-36420D01*
X34516Y-36420D02*
X34666Y-36270D01*
X34666Y-36270D02*
X34516Y-36120D01*
X34516Y-36120D02*
X34516Y-35920D01*
X34516Y-35920D02*
X34666Y-35770D01*
X34666Y-35770D02*
X34516Y-35620D01*
X34516Y-35620D02*
X34516Y-35420D01*
X34516Y-35420D02*
X34666Y-35270D01*
X34666Y-35270D02*
X34516Y-35120D01*
X34516Y-35120D02*
X34516Y-34920D01*
X34516Y-34920D02*
X34666Y-34770D01*
X34666Y-34770D02*
X34516Y-34620D01*
X34516Y-34620D02*
X34516Y-34420D01*
X34516Y-34420D02*
X34666Y-34270D01*
X34666Y-34270D02*
X34516Y-34120D01*
X34516Y-34120D02*
X34516Y-33920D01*
X34516Y-33920D02*
X34666Y-33770D01*
X34666Y-33770D02*
X34516Y-33620D01*
X35116Y-34620D02*
X34966Y-34770D01*
X34966Y-34770D02*
X35116Y-34920D01*
X35116Y-34920D02*
X35116Y-35120D01*
X35116Y-35120D02*
X34966Y-35270D01*
X34966Y-35270D02*
X35116Y-35420D01*
X35116Y-35420D02*
X35116Y-35620D01*
X35116Y-35620D02*
X34966Y-35770D01*
X34966Y-35770D02*
X35116Y-35920D01*
X35116Y-35920D02*
X35116Y-36120D01*
X35116Y-36120D02*
X34966Y-36270D01*
X34966Y-36270D02*
X35116Y-36420D01*
X35116Y-36420D02*
X35116Y-36620D01*
X35116Y-36620D02*
X34966Y-36770D01*
X34966Y-36770D02*
X35116Y-36920D01*
X35116Y-36920D02*
X35116Y-37120D01*
X35116Y-37120D02*
X34966Y-37270D01*
X34966Y-37270D02*
X35116Y-37420D01*
X35116Y-37420D02*
X35116Y-37620D01*
X35116Y-37620D02*
X34966Y-37770D01*
X34966Y-37770D02*
X35116Y-37920D01*
X35116Y-37920D02*
X35116Y-38120D01*
X35116Y-38120D02*
X34966Y-38270D01*
X34966Y-38270D02*
X35116Y-38420D01*
X35116Y-38420D02*
X35116Y-38620D01*
X35116Y-38620D02*
X34966Y-38770D01*
X34966Y-38770D02*
X35116Y-38920D01*
X35116Y-38920D02*
X35116Y-39120D01*
X35116Y-39120D02*
X34966Y-39270D01*
X34966Y-39270D02*
X35116Y-39420D01*
X35116Y-39420D02*
X35116Y-39620D01*
X35116Y-39620D02*
X34966Y-39770D01*
X34966Y-39770D02*
X35116Y-39920D01*
X35116Y-39920D02*
X35116Y-40120D01*
X35116Y-40120D02*
X35116Y-40170D01*
X35116Y-40170D02*
X34966Y-40320D01*
X34966Y-40320D02*
X34666Y-40320D01*
X34666Y-40320D02*
X34516Y-40170D01*
X34516Y-40170D02*
X34516Y-39920D01*
X34516Y-39920D02*
X34666Y-39770D01*
X34666Y-39770D02*
X34516Y-39620D01*
X34516Y-39620D02*
X34516Y-39420D01*
X34516Y-39420D02*
X34666Y-39270D01*
X34666Y-39270D02*
X34516Y-39120D01*
X34516Y-39120D02*
X34516Y-38920D01*
X34516Y-38920D02*
X34666Y-38770D01*
X34666Y-38770D02*
X34516Y-38620D01*
X35116Y-33620D02*
X34966Y-33770D01*
X34966Y-33770D02*
X35116Y-33920D01*
X35116Y-33920D02*
X35116Y-34120D01*
X35116Y-34120D02*
X34966Y-34270D01*
X34966Y-34270D02*
X35116Y-34420D01*
X35116Y-34420D02*
X35116Y-34620D01*
X35116Y-33420D02*
X35116Y-33620D01*
X44666Y-43190D02*
X44716Y-43190D01*
X44716Y-43190D02*
X44866Y-43040D01*
X44866Y-43040D02*
X44866Y-42740D01*
X44866Y-42740D02*
X44716Y-42590D01*
X44716Y-42590D02*
X44466Y-42590D01*
X39466Y-42590D02*
X39666Y-42590D01*
X39666Y-42590D02*
X39816Y-42740D01*
X39816Y-42740D02*
X39966Y-42590D01*
X39966Y-42590D02*
X40166Y-42590D01*
X40166Y-42590D02*
X40316Y-42740D01*
X40316Y-42740D02*
X40466Y-42590D01*
X40466Y-42590D02*
X40666Y-42590D01*
X40666Y-42590D02*
X40816Y-42740D01*
X40816Y-42740D02*
X40966Y-42590D01*
X40966Y-42590D02*
X41166Y-42590D01*
X41166Y-42590D02*
X41316Y-42740D01*
X41316Y-42740D02*
X41466Y-42590D01*
X41466Y-42590D02*
X41666Y-42590D01*
X41666Y-42590D02*
X41816Y-42740D01*
X41816Y-42740D02*
X41966Y-42590D01*
X41966Y-42590D02*
X42166Y-42590D01*
X42166Y-42590D02*
X42316Y-42740D01*
X42316Y-42740D02*
X42466Y-42590D01*
X42466Y-42590D02*
X42666Y-42590D01*
X42666Y-42590D02*
X42816Y-42740D01*
X42816Y-42740D02*
X42966Y-42590D01*
X42966Y-42590D02*
X43166Y-42590D01*
X43166Y-42590D02*
X43316Y-42740D01*
X43316Y-42740D02*
X43466Y-42590D01*
X43466Y-42590D02*
X43666Y-42590D01*
X43666Y-42590D02*
X43816Y-42740D01*
X43816Y-42740D02*
X43966Y-42590D01*
X43966Y-42590D02*
X44166Y-42590D01*
X44166Y-42590D02*
X44316Y-42740D01*
X44316Y-42740D02*
X44466Y-42590D01*
X43466Y-43190D02*
X43316Y-43040D01*
X43316Y-43040D02*
X43166Y-43190D01*
X43166Y-43190D02*
X42966Y-43190D01*
X42966Y-43190D02*
X42816Y-43040D01*
X42816Y-43040D02*
X42666Y-43190D01*
X42666Y-43190D02*
X42466Y-43190D01*
X42466Y-43190D02*
X42316Y-43040D01*
X42316Y-43040D02*
X42166Y-43190D01*
X42166Y-43190D02*
X41966Y-43190D01*
X41966Y-43190D02*
X41816Y-43040D01*
X41816Y-43040D02*
X41666Y-43190D01*
X41666Y-43190D02*
X41466Y-43190D01*
X41466Y-43190D02*
X41316Y-43040D01*
X41316Y-43040D02*
X41166Y-43190D01*
X41166Y-43190D02*
X40966Y-43190D01*
X40966Y-43190D02*
X40816Y-43040D01*
X40816Y-43040D02*
X40666Y-43190D01*
X40666Y-43190D02*
X40466Y-43190D01*
X40466Y-43190D02*
X40316Y-43040D01*
X40316Y-43040D02*
X40166Y-43190D01*
X40166Y-43190D02*
X39966Y-43190D01*
X39966Y-43190D02*
X39816Y-43040D01*
X39816Y-43040D02*
X39666Y-43190D01*
X39666Y-43190D02*
X39466Y-43190D01*
X39466Y-43190D02*
X39316Y-43040D01*
X39316Y-43040D02*
X39166Y-43190D01*
X39166Y-43190D02*
X38966Y-43190D01*
X38966Y-43190D02*
X38816Y-43040D01*
X38816Y-43040D02*
X38666Y-43190D01*
X38666Y-43190D02*
X38466Y-43190D01*
X38466Y-43190D02*
X38316Y-43040D01*
X38316Y-43040D02*
X38166Y-43190D01*
X38166Y-43190D02*
X37966Y-43190D01*
X37966Y-43190D02*
X37916Y-43190D01*
X37916Y-43190D02*
X37766Y-43040D01*
X37766Y-43040D02*
X37766Y-42740D01*
X37766Y-42740D02*
X37916Y-42590D01*
X37916Y-42590D02*
X38166Y-42590D01*
X38166Y-42590D02*
X38316Y-42740D01*
X38316Y-42740D02*
X38466Y-42590D01*
X38466Y-42590D02*
X38666Y-42590D01*
X38666Y-42590D02*
X38816Y-42740D01*
X38816Y-42740D02*
X38966Y-42590D01*
X38966Y-42590D02*
X39166Y-42590D01*
X39166Y-42590D02*
X39316Y-42740D01*
X39316Y-42740D02*
X39466Y-42590D01*
X44466Y-43190D02*
X44316Y-43040D01*
X44316Y-43040D02*
X44166Y-43190D01*
X44166Y-43190D02*
X43966Y-43190D01*
X43966Y-43190D02*
X43816Y-43040D01*
X43816Y-43040D02*
X43666Y-43190D01*
X43666Y-43190D02*
X43466Y-43190D01*
X44666Y-43190D02*
X44466Y-43190D01*
X45216Y-42140D02*
X45066Y-42290D01*
X45066Y-42290D02*
X45216Y-42440D01*
X45216Y-42440D02*
X45216Y-42690D01*
X45216Y-42690D02*
X45066Y-42840D01*
X45066Y-42840D02*
X44766Y-42840D01*
X44766Y-42840D02*
X44616Y-42690D01*
X44616Y-42690D02*
X44616Y-42440D01*
X44616Y-42440D02*
X44766Y-42290D01*
X44766Y-42290D02*
X44616Y-42140D01*
X44616Y-42140D02*
X44616Y-41940D01*
X44766Y-40290D02*
X44616Y-40140D01*
X44616Y-40140D02*
X44616Y-39940D01*
X44616Y-39940D02*
X44766Y-39790D01*
X44766Y-39790D02*
X44616Y-39640D01*
X44616Y-39640D02*
X44616Y-39440D01*
X44616Y-39440D02*
X44766Y-39290D01*
X44766Y-39290D02*
X44616Y-39140D01*
X44616Y-39140D02*
X44616Y-38940D01*
X44616Y-38940D02*
X44766Y-38790D01*
X44766Y-38790D02*
X44616Y-38640D01*
X44616Y-38640D02*
X44616Y-38440D01*
X44616Y-38440D02*
X44766Y-38290D01*
X44766Y-38290D02*
X44616Y-38140D01*
X44616Y-38140D02*
X44616Y-37940D01*
X44616Y-37940D02*
X44766Y-37790D01*
X44766Y-37790D02*
X44616Y-37640D01*
X44616Y-37640D02*
X44616Y-37440D01*
X44616Y-37440D02*
X44766Y-37290D01*
X44766Y-37290D02*
X44616Y-37140D01*
X44616Y-37140D02*
X44616Y-36940D01*
X44616Y-36940D02*
X44766Y-36790D01*
X44766Y-36790D02*
X44616Y-36640D01*
X44616Y-36640D02*
X44616Y-36440D01*
X44616Y-36440D02*
X44766Y-36290D01*
X44766Y-36290D02*
X44616Y-36140D01*
X44616Y-36140D02*
X44616Y-35940D01*
X44616Y-35940D02*
X44766Y-35790D01*
X44766Y-35790D02*
X44616Y-35640D01*
X44616Y-35640D02*
X44616Y-35440D01*
X44616Y-35440D02*
X44766Y-35290D01*
X44766Y-35290D02*
X44616Y-35140D01*
X44616Y-35140D02*
X44616Y-34940D01*
X44616Y-34940D02*
X44766Y-34790D01*
X44766Y-34790D02*
X44616Y-34640D01*
X44616Y-34640D02*
X44616Y-34440D01*
X44616Y-34440D02*
X44766Y-34290D01*
X44766Y-34290D02*
X44616Y-34140D01*
X44616Y-34140D02*
X44616Y-33940D01*
X44616Y-33940D02*
X44766Y-33790D01*
X44766Y-33790D02*
X44616Y-33640D01*
X44616Y-33640D02*
X44616Y-33390D01*
X44616Y-33390D02*
X44766Y-33240D01*
X44766Y-33240D02*
X45066Y-33240D01*
X45066Y-33240D02*
X45216Y-33390D01*
X45216Y-33390D02*
X45216Y-33640D01*
X44616Y-40640D02*
X44616Y-40440D01*
X44616Y-40440D02*
X44766Y-40290D01*
X44766Y-41790D02*
X44616Y-41640D01*
X44616Y-41640D02*
X44616Y-41440D01*
X44616Y-41440D02*
X44766Y-41290D01*
X44766Y-41290D02*
X44616Y-41140D01*
X44616Y-41140D02*
X44616Y-40940D01*
X44616Y-40940D02*
X44766Y-40790D01*
X44766Y-40790D02*
X44616Y-40640D01*
X45066Y-37290D02*
X45216Y-37440D01*
X45216Y-37440D02*
X45216Y-37640D01*
X45216Y-37640D02*
X45066Y-37790D01*
X45066Y-37790D02*
X45216Y-37940D01*
X45216Y-37940D02*
X45216Y-38140D01*
X45216Y-38140D02*
X45066Y-38290D01*
X45066Y-38290D02*
X45216Y-38440D01*
X45216Y-38440D02*
X45216Y-38640D01*
X45216Y-38640D02*
X45066Y-38790D01*
X45066Y-38790D02*
X45216Y-38940D01*
X45216Y-38940D02*
X45216Y-39140D01*
X45216Y-39140D02*
X45066Y-39290D01*
X45066Y-39290D02*
X45216Y-39440D01*
X45216Y-39440D02*
X45216Y-39640D01*
X45216Y-39640D02*
X45066Y-39790D01*
X45066Y-39790D02*
X45216Y-39940D01*
X45216Y-39940D02*
X45216Y-40140D01*
X45216Y-40140D02*
X45066Y-40290D01*
X45066Y-40290D02*
X45216Y-40440D01*
X45216Y-40440D02*
X45216Y-40640D01*
X45216Y-40640D02*
X45066Y-40790D01*
X45066Y-40790D02*
X45216Y-40940D01*
X45216Y-40940D02*
X45216Y-41140D01*
X45216Y-41140D02*
X45066Y-41290D01*
X45066Y-41290D02*
X45216Y-41440D01*
X45216Y-41440D02*
X45216Y-41640D01*
X45216Y-41640D02*
X45066Y-41790D01*
X45066Y-41790D02*
X45216Y-41940D01*
X45216Y-41940D02*
X45216Y-42140D01*
X44616Y-41940D02*
X44766Y-41790D01*
X45216Y-33640D02*
X45066Y-33790D01*
X45066Y-33790D02*
X45216Y-33940D01*
X45216Y-33940D02*
X45216Y-34140D01*
X45216Y-34140D02*
X45066Y-34290D01*
X45066Y-34290D02*
X45216Y-34440D01*
X45216Y-34440D02*
X45216Y-34640D01*
X45216Y-34640D02*
X45066Y-34790D01*
X45066Y-34790D02*
X45216Y-34940D01*
X45216Y-34940D02*
X45216Y-35140D01*
X45216Y-35140D02*
X45066Y-35290D01*
X45066Y-35290D02*
X45216Y-35440D01*
X45216Y-35440D02*
X45216Y-35640D01*
X45216Y-35640D02*
X45066Y-35790D01*
X45066Y-35790D02*
X45216Y-35940D01*
X45216Y-35940D02*
X45216Y-36140D01*
X45216Y-36140D02*
X45066Y-36290D01*
X45066Y-36290D02*
X45216Y-36440D01*
X45216Y-36440D02*
X45216Y-36640D01*
X45216Y-36640D02*
X45066Y-36790D01*
X45066Y-36790D02*
X45216Y-36940D01*
X45216Y-36940D02*
X45216Y-37140D01*
X45216Y-37140D02*
X45066Y-37290D01*
G54D12*
X50167Y-37188D02*
X50167Y-35812D01*
X50167Y-35812D02*
X47333Y-35812D01*
X47333Y-35812D02*
X47333Y-37188D01*
X47333Y-37188D02*
X50167Y-37188D01*
G54D11*
X48277Y-36500D02*
G75*
G03X48277Y-36500I-117J0D01*
G74*
G01*
X48327Y-36500D02*
X47993Y-36500D01*
X48160Y-36333D02*
X48160Y-36667D01*
X49457Y-36500D02*
G75*
G03X49457Y-36500I-117J0D01*
G74*
G01*
X49507Y-36500D02*
X49173Y-36500D01*
X49340Y-36333D02*
X49340Y-36667D01*
G54D12*
X48750Y-30800D02*
X48500Y-31050D01*
X49250Y-30800D02*
X48750Y-30800D01*
X49500Y-31050D02*
X49250Y-30800D01*
X49250Y-31800D02*
X49500Y-31550D01*
X48750Y-31800D02*
X49250Y-31800D01*
X48500Y-31550D02*
X48750Y-31800D01*
G54D14*
X48900Y-31200D02*
X48900Y-31400D01*
X48900Y-31400D02*
X49100Y-31400D01*
X49100Y-31200D02*
X49100Y-31400D01*
X48900Y-31200D02*
X49100Y-31200D01*
G54D12*
X48750Y-30800D02*
X49250Y-30800D01*
X50500Y-31050D02*
X50250Y-30800D01*
X50250Y-31800D02*
X50500Y-31550D01*
G54D18*
X50496Y-31556D02*
X50496Y-31064D01*
G54D12*
X39750Y-30800D02*
X40250Y-30800D01*
X38750Y-30800D02*
X39250Y-30800D01*
X40750Y-30800D02*
X41250Y-30800D01*
X42750Y-30800D02*
X43250Y-30800D01*
X41750Y-30800D02*
X42250Y-30800D01*
X43750Y-30800D02*
X44250Y-30800D01*
X46750Y-30800D02*
X47250Y-30800D01*
X45750Y-30800D02*
X46250Y-30800D01*
X44750Y-30800D02*
X45250Y-30800D01*
X47750Y-30800D02*
X48250Y-30800D01*
X49750Y-30800D02*
X50250Y-30800D01*
X46750Y-30800D02*
X47250Y-30800D01*
X47250Y-30800D02*
X46750Y-30800D01*
X46750Y-31800D02*
X47250Y-31800D01*
G54D14*
X46900Y-31400D02*
X47100Y-31400D01*
X47100Y-31200D02*
X47100Y-31400D01*
X46900Y-31200D02*
X47100Y-31200D01*
X49900Y-31200D02*
X50100Y-31200D01*
X50100Y-31200D02*
X50100Y-31400D01*
X49900Y-31400D02*
X50100Y-31400D01*
X49900Y-31200D02*
X49900Y-31400D01*
X47900Y-31200D02*
X48100Y-31200D01*
X48100Y-31200D02*
X48100Y-31400D01*
X47900Y-31400D02*
X48100Y-31400D01*
X47900Y-31200D02*
X47900Y-31400D01*
G54D12*
X49500Y-31550D02*
X49750Y-31800D01*
X49750Y-31800D02*
X50250Y-31800D01*
X50250Y-30800D02*
X49750Y-30800D01*
X49750Y-30800D02*
X49500Y-31050D01*
X47250Y-31800D02*
X47500Y-31550D01*
X47500Y-31050D02*
X47250Y-30800D01*
X47500Y-31550D02*
X47750Y-31800D01*
X47750Y-31800D02*
X48250Y-31800D01*
X48250Y-31800D02*
X48500Y-31550D01*
X48500Y-31050D02*
X48250Y-30800D01*
X48250Y-30800D02*
X47750Y-30800D01*
X47750Y-30800D02*
X47500Y-31050D01*
X44750Y-30800D02*
X44500Y-31050D01*
X45250Y-30800D02*
X44750Y-30800D01*
X45500Y-31050D02*
X45250Y-30800D01*
X45250Y-31800D02*
X45500Y-31550D01*
X44750Y-31800D02*
X45250Y-31800D01*
X44500Y-31550D02*
X44750Y-31800D01*
X44500Y-31050D02*
X44250Y-30800D01*
X44250Y-31800D02*
X44500Y-31550D01*
X45750Y-30800D02*
X45500Y-31050D01*
X46250Y-30800D02*
X45750Y-30800D01*
X45750Y-31800D02*
X46250Y-31800D01*
X45500Y-31550D02*
X45750Y-31800D01*
G54D14*
X44900Y-31200D02*
X44900Y-31400D01*
X44900Y-31400D02*
X45100Y-31400D01*
X45100Y-31200D02*
X45100Y-31400D01*
X44900Y-31200D02*
X45100Y-31200D01*
X45900Y-31200D02*
X45900Y-31400D01*
X45900Y-31400D02*
X46100Y-31400D01*
X46100Y-31200D02*
X46100Y-31400D01*
X45900Y-31200D02*
X46100Y-31200D01*
X46900Y-31200D02*
X47100Y-31200D01*
X46900Y-31400D02*
X47100Y-31400D01*
X46900Y-31200D02*
X46900Y-31400D01*
X43900Y-31200D02*
X44100Y-31200D01*
X44100Y-31200D02*
X44100Y-31400D01*
X43900Y-31400D02*
X44100Y-31400D01*
X43900Y-31200D02*
X43900Y-31400D01*
X42900Y-31200D02*
X43100Y-31200D01*
X43100Y-31200D02*
X43100Y-31400D01*
X42900Y-31400D02*
X43100Y-31400D01*
X42900Y-31200D02*
X42900Y-31400D01*
X41900Y-31200D02*
X42100Y-31200D01*
X42100Y-31200D02*
X42100Y-31400D01*
X41900Y-31400D02*
X42100Y-31400D01*
X41900Y-31200D02*
X41900Y-31400D01*
X40900Y-31200D02*
X41100Y-31200D01*
X41100Y-31200D02*
X41100Y-31400D01*
X40900Y-31400D02*
X41100Y-31400D01*
X40900Y-31200D02*
X40900Y-31400D01*
X39900Y-31200D02*
X40100Y-31200D01*
X40100Y-31200D02*
X40100Y-31400D01*
X39900Y-31400D02*
X40100Y-31400D01*
X39900Y-31200D02*
X39900Y-31400D01*
G54D12*
X46750Y-31800D02*
X47250Y-31800D01*
X43500Y-31550D02*
X43750Y-31800D01*
X43750Y-31800D02*
X44250Y-31800D01*
X46250Y-31800D02*
X46500Y-31550D01*
X46500Y-31050D02*
X46250Y-30800D01*
X44250Y-30800D02*
X43750Y-30800D01*
X43750Y-30800D02*
X43500Y-31050D01*
X46750Y-31800D02*
X46500Y-31550D01*
X46500Y-31050D02*
X46750Y-30800D01*
X47250Y-30800D02*
X46750Y-30800D01*
X41750Y-31800D02*
X42250Y-31800D01*
X42250Y-31800D02*
X42500Y-31550D01*
X42500Y-31050D02*
X42250Y-30800D01*
X42500Y-31550D02*
X42750Y-31800D01*
X42750Y-31800D02*
X43250Y-31800D01*
X43250Y-31800D02*
X43500Y-31550D01*
X43500Y-31050D02*
X43250Y-30800D01*
X43250Y-30800D02*
X42750Y-30800D01*
X42750Y-30800D02*
X42500Y-31050D01*
X40500Y-31550D02*
X40750Y-31800D01*
X40750Y-31800D02*
X41250Y-31800D01*
X41250Y-31800D02*
X41500Y-31550D01*
X41500Y-31050D02*
X41250Y-30800D01*
X41250Y-30800D02*
X40750Y-30800D01*
X40750Y-30800D02*
X40500Y-31050D01*
X41750Y-31800D02*
X41500Y-31550D01*
X41500Y-31050D02*
X41750Y-30800D01*
X42250Y-30800D02*
X41750Y-30800D01*
X38750Y-31800D02*
X39250Y-31800D01*
X39250Y-31800D02*
X39500Y-31550D01*
X39500Y-31050D02*
X39250Y-30800D01*
X39500Y-31550D02*
X39750Y-31800D01*
X39750Y-31800D02*
X40250Y-31800D01*
X40250Y-31800D02*
X40500Y-31550D01*
X40500Y-31050D02*
X40250Y-30800D01*
X40250Y-30800D02*
X39750Y-30800D01*
X39750Y-30800D02*
X39500Y-31050D01*
X38500Y-31550D02*
X38500Y-31050D01*
X38750Y-31800D02*
X38500Y-31550D01*
X38500Y-31050D02*
X38750Y-30800D01*
X39250Y-30800D02*
X38750Y-30800D01*
G54D22*
X48228Y-51968D02*
X48425Y-51968D01*
X48425Y-51968D02*
X48425Y-52362D01*
X48425Y-52362D02*
X48622Y-53149D01*
X48622Y-53149D02*
X49015Y-53149D01*
X49015Y-53149D02*
X49212Y-52362D01*
X49212Y-52362D02*
X49212Y-51968D01*
X49212Y-51968D02*
X49606Y-51968D01*
X48228Y-51968D02*
X48031Y-51968D01*
X45669Y-51968D02*
X45866Y-51968D01*
X45866Y-51968D02*
X46062Y-51968D01*
X46062Y-51968D02*
X46062Y-52362D01*
X46062Y-52362D02*
X46259Y-53149D01*
X46259Y-53149D02*
X46653Y-53149D01*
X46653Y-53149D02*
X46850Y-52362D01*
X46850Y-52362D02*
X46850Y-51968D01*
X46850Y-51968D02*
X47244Y-51968D01*
X49606Y-51968D02*
X49606Y-52362D01*
X48031Y-51968D02*
X48031Y-52362D01*
X47244Y-51968D02*
X47244Y-52362D01*
X45669Y-51968D02*
X45669Y-52362D01*
X48031Y-52362D02*
X48425Y-53543D01*
X48425Y-53543D02*
X49212Y-53543D01*
X49212Y-53543D02*
X49606Y-52362D01*
X45669Y-52362D02*
X46062Y-53543D01*
X46062Y-53543D02*
X46850Y-53543D01*
X46850Y-53543D02*
X47244Y-52362D01*
X45118Y-48779D02*
X45118Y-47716D01*
X45118Y-47716D02*
X50039Y-47716D01*
X50039Y-47716D02*
X50157Y-47716D01*
X50157Y-47716D02*
X50157Y-48779D01*
X45118Y-50236D02*
X50157Y-50236D01*
X45118Y-54251D02*
X50157Y-54251D01*
X50157Y-54251D02*
X50157Y-48779D01*
X45118Y-48779D02*
X45118Y-54251D01*
G54D18*
X32348Y-50256D02*
X32840Y-50256D01*
X31344Y-50256D02*
X31836Y-50256D01*
G54D12*
X33100Y-43000D02*
X33100Y-42500D01*
X32850Y-42250D02*
X33100Y-42500D01*
X32100Y-42500D02*
X32350Y-42250D01*
X32350Y-42250D02*
X32850Y-42250D01*
X33100Y-43500D02*
X32850Y-43250D01*
X33100Y-44000D02*
X33100Y-43500D01*
X32850Y-44250D02*
X33100Y-44000D01*
X32100Y-44000D02*
X32350Y-44250D01*
X32100Y-43500D02*
X32100Y-44000D01*
X32350Y-43250D02*
X32100Y-43500D01*
X32850Y-43250D02*
X33100Y-43000D01*
X32100Y-43000D02*
X32350Y-43250D01*
X32100Y-42500D02*
X32100Y-43000D01*
X33100Y-46000D02*
X33100Y-45500D01*
X32850Y-45250D02*
X33100Y-45500D01*
X32100Y-45500D02*
X32350Y-45250D01*
X33100Y-44500D02*
X32850Y-44250D01*
X33100Y-45000D02*
X33100Y-44500D01*
X32850Y-45250D02*
X33100Y-45000D01*
X32100Y-45000D02*
X32350Y-45250D01*
X32100Y-44500D02*
X32100Y-45000D01*
X32350Y-44250D02*
X32100Y-44500D01*
X33100Y-46500D02*
X32850Y-46250D01*
X33100Y-47000D02*
X33100Y-46500D01*
X32850Y-47250D02*
X33100Y-47000D01*
X32100Y-47000D02*
X32350Y-47250D01*
X32100Y-46500D02*
X32100Y-47000D01*
X32350Y-46250D02*
X32100Y-46500D01*
X32850Y-46250D02*
X33100Y-46000D01*
X32100Y-46000D02*
X32350Y-46250D01*
X32100Y-45500D02*
X32100Y-46000D01*
X33100Y-47500D02*
X32850Y-47250D01*
X33100Y-48000D02*
X33100Y-47500D01*
X32850Y-50250D02*
X33100Y-50000D01*
X32100Y-50000D02*
X32350Y-50250D01*
X32100Y-47500D02*
X32100Y-48000D01*
X32350Y-47250D02*
X32100Y-47500D01*
G54D14*
X32700Y-43650D02*
X32500Y-43650D01*
X32500Y-43650D02*
X32500Y-43850D01*
X32700Y-43850D02*
X32500Y-43850D01*
X32700Y-43650D02*
X32700Y-43850D01*
X32700Y-44650D02*
X32500Y-44650D01*
X32500Y-44650D02*
X32500Y-44850D01*
X32700Y-44850D02*
X32500Y-44850D01*
X32700Y-44650D02*
X32700Y-44850D01*
X32700Y-45650D02*
X32500Y-45650D01*
X32500Y-45650D02*
X32500Y-45850D01*
X32700Y-45850D02*
X32500Y-45850D01*
X32700Y-45650D02*
X32700Y-45850D01*
X32700Y-46650D02*
X32500Y-46650D01*
X32500Y-46650D02*
X32500Y-46850D01*
X32700Y-46850D02*
X32500Y-46850D01*
X32700Y-46650D02*
X32700Y-46850D01*
X32700Y-47650D02*
X32500Y-47650D01*
X32500Y-47650D02*
X32500Y-47850D01*
X32700Y-47850D02*
X32500Y-47850D01*
X32700Y-47650D02*
X32700Y-47850D01*
X32700Y-49650D02*
X32700Y-49850D01*
X32700Y-49850D02*
X32500Y-49850D01*
X32500Y-49650D02*
X32500Y-49850D01*
X32700Y-49650D02*
X32500Y-49650D01*
X32700Y-48650D02*
X32700Y-48850D01*
X32700Y-48850D02*
X32500Y-48850D01*
X32500Y-48650D02*
X32500Y-48850D01*
X32700Y-48650D02*
X32500Y-48650D01*
G54D12*
X32350Y-49250D02*
X32100Y-49500D01*
X32100Y-49500D02*
X32100Y-50000D01*
X33100Y-50000D02*
X33100Y-49500D01*
X33100Y-49500D02*
X32850Y-49250D01*
X32100Y-48000D02*
X32350Y-48250D01*
X32850Y-48250D02*
X33100Y-48000D01*
X32350Y-48250D02*
X32100Y-48500D01*
X32100Y-48500D02*
X32100Y-49000D01*
X32100Y-49000D02*
X32350Y-49250D01*
X32850Y-49250D02*
X33100Y-49000D01*
X33100Y-49000D02*
X33100Y-48500D01*
X33100Y-48500D02*
X32850Y-48250D01*
X32100Y-48500D02*
X31850Y-48250D01*
X32100Y-49000D02*
X32100Y-48500D01*
X31850Y-49250D02*
X32100Y-49000D01*
X31100Y-49000D02*
X31350Y-49250D01*
X31100Y-48500D02*
X31100Y-49000D01*
X31350Y-48250D02*
X31100Y-48500D01*
X31850Y-48250D02*
X32100Y-48000D01*
X31100Y-48000D02*
X31350Y-48250D01*
X32100Y-49500D02*
X31850Y-49250D01*
X32100Y-50000D02*
X32100Y-49500D01*
X31100Y-49500D02*
X31100Y-50000D01*
X31350Y-49250D02*
X31100Y-49500D01*
G54D14*
X31700Y-48650D02*
X31500Y-48650D01*
X31500Y-48650D02*
X31500Y-48850D01*
X31700Y-48850D02*
X31500Y-48850D01*
X31700Y-48650D02*
X31700Y-48850D01*
X31700Y-49650D02*
X31500Y-49650D01*
X31500Y-49650D02*
X31500Y-49850D01*
X31700Y-49850D02*
X31500Y-49850D01*
X31700Y-49650D02*
X31700Y-49850D01*
X31700Y-47650D02*
X31700Y-47850D01*
X31700Y-47850D02*
X31500Y-47850D01*
X31500Y-47650D02*
X31500Y-47850D01*
X31700Y-47650D02*
X31500Y-47650D01*
X31700Y-46650D02*
X31700Y-46850D01*
X31700Y-46850D02*
X31500Y-46850D01*
X31500Y-46650D02*
X31500Y-46850D01*
X31700Y-46650D02*
X31500Y-46650D01*
X31700Y-45650D02*
X31700Y-45850D01*
X31700Y-45850D02*
X31500Y-45850D01*
X31500Y-45650D02*
X31500Y-45850D01*
X31700Y-45650D02*
X31500Y-45650D01*
X31700Y-44650D02*
X31700Y-44850D01*
X31700Y-44850D02*
X31500Y-44850D01*
X31500Y-44650D02*
X31500Y-44850D01*
X31700Y-44650D02*
X31500Y-44650D01*
X31700Y-43650D02*
X31700Y-43850D01*
X31700Y-43850D02*
X31500Y-43850D01*
X31500Y-43650D02*
X31500Y-43850D01*
X31700Y-43650D02*
X31500Y-43650D01*
G54D12*
X31350Y-47250D02*
X31100Y-47500D01*
X31100Y-47500D02*
X31100Y-48000D01*
X31100Y-50000D02*
X31350Y-50250D01*
X31850Y-50250D02*
X32100Y-50000D01*
X32100Y-48000D02*
X32100Y-47500D01*
X32100Y-47500D02*
X31850Y-47250D01*
X31100Y-45500D02*
X31100Y-46000D01*
X31100Y-46000D02*
X31350Y-46250D01*
X31850Y-46250D02*
X32100Y-46000D01*
X31350Y-46250D02*
X31100Y-46500D01*
X31100Y-46500D02*
X31100Y-47000D01*
X31100Y-47000D02*
X31350Y-47250D01*
X31850Y-47250D02*
X32100Y-47000D01*
X32100Y-47000D02*
X32100Y-46500D01*
X32100Y-46500D02*
X31850Y-46250D01*
X31350Y-44250D02*
X31100Y-44500D01*
X31100Y-44500D02*
X31100Y-45000D01*
X31100Y-45000D02*
X31350Y-45250D01*
X31850Y-45250D02*
X32100Y-45000D01*
X32100Y-45000D02*
X32100Y-44500D01*
X32100Y-44500D02*
X31850Y-44250D01*
X31100Y-45500D02*
X31350Y-45250D01*
X31850Y-45250D02*
X32100Y-45500D01*
X32100Y-46000D02*
X32100Y-45500D01*
X31100Y-42500D02*
X31100Y-43000D01*
X31100Y-43000D02*
X31350Y-43250D01*
X31850Y-43250D02*
X32100Y-43000D01*
X31350Y-43250D02*
X31100Y-43500D01*
X31100Y-43500D02*
X31100Y-44000D01*
X31100Y-44000D02*
X31350Y-44250D01*
X31850Y-44250D02*
X32100Y-44000D01*
X32100Y-44000D02*
X32100Y-43500D01*
X32100Y-43500D02*
X31850Y-43250D01*
X31350Y-42250D02*
X31850Y-42250D01*
X31100Y-42500D02*
X31350Y-42250D01*
X31850Y-42250D02*
X32100Y-42500D01*
X32100Y-43000D02*
X32100Y-42500D01*
G54D18*
X53148Y-50256D02*
X53640Y-50256D01*
X52144Y-50256D02*
X52636Y-50256D01*
G54D12*
X53900Y-43000D02*
X53900Y-42500D01*
X53650Y-42250D02*
X53900Y-42500D01*
X52900Y-42500D02*
X53150Y-42250D01*
X53150Y-42250D02*
X53650Y-42250D01*
X53900Y-43500D02*
X53650Y-43250D01*
X53900Y-44000D02*
X53900Y-43500D01*
X53650Y-44250D02*
X53900Y-44000D01*
X52900Y-44000D02*
X53150Y-44250D01*
X52900Y-43500D02*
X52900Y-44000D01*
X53150Y-43250D02*
X52900Y-43500D01*
X53650Y-43250D02*
X53900Y-43000D01*
X52900Y-43000D02*
X53150Y-43250D01*
X52900Y-42500D02*
X52900Y-43000D01*
X53900Y-46000D02*
X53900Y-45500D01*
X53650Y-45250D02*
X53900Y-45500D01*
X52900Y-45500D02*
X53150Y-45250D01*
X53900Y-44500D02*
X53650Y-44250D01*
X53900Y-45000D02*
X53900Y-44500D01*
X53650Y-45250D02*
X53900Y-45000D01*
X52900Y-45000D02*
X53150Y-45250D01*
X52900Y-44500D02*
X52900Y-45000D01*
X53150Y-44250D02*
X52900Y-44500D01*
X53900Y-46500D02*
X53650Y-46250D01*
X53900Y-47000D02*
X53900Y-46500D01*
X53650Y-47250D02*
X53900Y-47000D01*
X52900Y-47000D02*
X53150Y-47250D01*
X52900Y-46500D02*
X52900Y-47000D01*
X53150Y-46250D02*
X52900Y-46500D01*
X53650Y-46250D02*
X53900Y-46000D01*
X52900Y-46000D02*
X53150Y-46250D01*
X52900Y-45500D02*
X52900Y-46000D01*
X53900Y-47500D02*
X53650Y-47250D01*
X53900Y-48000D02*
X53900Y-47500D01*
X53650Y-50250D02*
X53900Y-50000D01*
X52900Y-50000D02*
X53150Y-50250D01*
X52900Y-47500D02*
X52900Y-48000D01*
X53150Y-47250D02*
X52900Y-47500D01*
G54D14*
X53500Y-43650D02*
X53300Y-43650D01*
X53300Y-43650D02*
X53300Y-43850D01*
X53500Y-43850D02*
X53300Y-43850D01*
X53500Y-43650D02*
X53500Y-43850D01*
X53500Y-44650D02*
X53300Y-44650D01*
X53300Y-44650D02*
X53300Y-44850D01*
X53500Y-44850D02*
X53300Y-44850D01*
X53500Y-44650D02*
X53500Y-44850D01*
X53500Y-45650D02*
X53300Y-45650D01*
X53300Y-45650D02*
X53300Y-45850D01*
X53500Y-45850D02*
X53300Y-45850D01*
X53500Y-45650D02*
X53500Y-45850D01*
X53500Y-46650D02*
X53300Y-46650D01*
X53300Y-46650D02*
X53300Y-46850D01*
X53500Y-46850D02*
X53300Y-46850D01*
X53500Y-46650D02*
X53500Y-46850D01*
X53500Y-47650D02*
X53300Y-47650D01*
X53300Y-47650D02*
X53300Y-47850D01*
X53500Y-47850D02*
X53300Y-47850D01*
X53500Y-47650D02*
X53500Y-47850D01*
X53500Y-49650D02*
X53500Y-49850D01*
X53500Y-49850D02*
X53300Y-49850D01*
X53300Y-49650D02*
X53300Y-49850D01*
X53500Y-49650D02*
X53300Y-49650D01*
X53500Y-48650D02*
X53500Y-48850D01*
X53500Y-48850D02*
X53300Y-48850D01*
X53300Y-48650D02*
X53300Y-48850D01*
X53500Y-48650D02*
X53300Y-48650D01*
G54D12*
X53150Y-49250D02*
X52900Y-49500D01*
X52900Y-49500D02*
X52900Y-50000D01*
X53900Y-50000D02*
X53900Y-49500D01*
X53900Y-49500D02*
X53650Y-49250D01*
X52900Y-48000D02*
X53150Y-48250D01*
X53650Y-48250D02*
X53900Y-48000D01*
X53150Y-48250D02*
X52900Y-48500D01*
X52900Y-48500D02*
X52900Y-49000D01*
X52900Y-49000D02*
X53150Y-49250D01*
X53650Y-49250D02*
X53900Y-49000D01*
X53900Y-49000D02*
X53900Y-48500D01*
X53900Y-48500D02*
X53650Y-48250D01*
X52900Y-48500D02*
X52650Y-48250D01*
X52900Y-49000D02*
X52900Y-48500D01*
X52650Y-49250D02*
X52900Y-49000D01*
X51900Y-49000D02*
X52150Y-49250D01*
X51900Y-48500D02*
X51900Y-49000D01*
X52150Y-48250D02*
X51900Y-48500D01*
X52650Y-48250D02*
X52900Y-48000D01*
X51900Y-48000D02*
X52150Y-48250D01*
X52900Y-49500D02*
X52650Y-49250D01*
X52900Y-50000D02*
X52900Y-49500D01*
X51900Y-49500D02*
X51900Y-50000D01*
X52150Y-49250D02*
X51900Y-49500D01*
G54D14*
X52500Y-48650D02*
X52300Y-48650D01*
X52300Y-48650D02*
X52300Y-48850D01*
X52500Y-48850D02*
X52300Y-48850D01*
X52500Y-48650D02*
X52500Y-48850D01*
X52500Y-49650D02*
X52300Y-49650D01*
X52300Y-49650D02*
X52300Y-49850D01*
X52500Y-49850D02*
X52300Y-49850D01*
X52500Y-49650D02*
X52500Y-49850D01*
X52500Y-47650D02*
X52500Y-47850D01*
X52500Y-47850D02*
X52300Y-47850D01*
X52300Y-47650D02*
X52300Y-47850D01*
X52500Y-47650D02*
X52300Y-47650D01*
X52500Y-46650D02*
X52500Y-46850D01*
X52500Y-46850D02*
X52300Y-46850D01*
X52300Y-46650D02*
X52300Y-46850D01*
X52500Y-46650D02*
X52300Y-46650D01*
X52500Y-45650D02*
X52500Y-45850D01*
X52500Y-45850D02*
X52300Y-45850D01*
X52300Y-45650D02*
X52300Y-45850D01*
X52500Y-45650D02*
X52300Y-45650D01*
X52500Y-44650D02*
X52500Y-44850D01*
X52500Y-44850D02*
X52300Y-44850D01*
X52300Y-44650D02*
X52300Y-44850D01*
X52500Y-44650D02*
X52300Y-44650D01*
X52500Y-43650D02*
X52500Y-43850D01*
X52500Y-43850D02*
X52300Y-43850D01*
X52300Y-43650D02*
X52300Y-43850D01*
X52500Y-43650D02*
X52300Y-43650D01*
G54D12*
X52150Y-47250D02*
X51900Y-47500D01*
X51900Y-47500D02*
X51900Y-48000D01*
X51900Y-50000D02*
X52150Y-50250D01*
X52650Y-50250D02*
X52900Y-50000D01*
X52900Y-48000D02*
X52900Y-47500D01*
X52900Y-47500D02*
X52650Y-47250D01*
X51900Y-45500D02*
X51900Y-46000D01*
X51900Y-46000D02*
X52150Y-46250D01*
X52650Y-46250D02*
X52900Y-46000D01*
X52150Y-46250D02*
X51900Y-46500D01*
X51900Y-46500D02*
X51900Y-47000D01*
X51900Y-47000D02*
X52150Y-47250D01*
X52650Y-47250D02*
X52900Y-47000D01*
X52900Y-47000D02*
X52900Y-46500D01*
X52900Y-46500D02*
X52650Y-46250D01*
X52150Y-44250D02*
X51900Y-44500D01*
X51900Y-44500D02*
X51900Y-45000D01*
X51900Y-45000D02*
X52150Y-45250D01*
X52650Y-45250D02*
X52900Y-45000D01*
X52900Y-45000D02*
X52900Y-44500D01*
X52900Y-44500D02*
X52650Y-44250D01*
X51900Y-45500D02*
X52150Y-45250D01*
X52650Y-45250D02*
X52900Y-45500D01*
X52900Y-46000D02*
X52900Y-45500D01*
X51900Y-42500D02*
X51900Y-43000D01*
X51900Y-43000D02*
X52150Y-43250D01*
X52650Y-43250D02*
X52900Y-43000D01*
X52150Y-43250D02*
X51900Y-43500D01*
X51900Y-43500D02*
X51900Y-44000D01*
X51900Y-44000D02*
X52150Y-44250D01*
X52650Y-44250D02*
X52900Y-44000D01*
X52900Y-44000D02*
X52900Y-43500D01*
X52900Y-43500D02*
X52650Y-43250D01*
X52150Y-42250D02*
X52650Y-42250D01*
X51900Y-42500D02*
X52150Y-42250D01*
X52650Y-42250D02*
X52900Y-42500D01*
X52900Y-43000D02*
X52900Y-42500D01*
G54D18*
X32348Y-42256D02*
X32840Y-42256D01*
X31344Y-42256D02*
X31836Y-42256D01*
G54D12*
X33100Y-35000D02*
X33100Y-34500D01*
X32850Y-34250D02*
X33100Y-34500D01*
X32100Y-34500D02*
X32350Y-34250D01*
X32350Y-34250D02*
X32850Y-34250D01*
X33100Y-35500D02*
X32850Y-35250D01*
X33100Y-36000D02*
X33100Y-35500D01*
X32850Y-36250D02*
X33100Y-36000D01*
X32100Y-36000D02*
X32350Y-36250D01*
X32100Y-35500D02*
X32100Y-36000D01*
X32350Y-35250D02*
X32100Y-35500D01*
X32850Y-35250D02*
X33100Y-35000D01*
X32100Y-35000D02*
X32350Y-35250D01*
X32100Y-34500D02*
X32100Y-35000D01*
X33100Y-38000D02*
X33100Y-37500D01*
X32850Y-37250D02*
X33100Y-37500D01*
X32100Y-37500D02*
X32350Y-37250D01*
X33100Y-36500D02*
X32850Y-36250D01*
X33100Y-37000D02*
X33100Y-36500D01*
X32850Y-37250D02*
X33100Y-37000D01*
X32100Y-37000D02*
X32350Y-37250D01*
X32100Y-36500D02*
X32100Y-37000D01*
X32350Y-36250D02*
X32100Y-36500D01*
X33100Y-38500D02*
X32850Y-38250D01*
X33100Y-39000D02*
X33100Y-38500D01*
X32850Y-39250D02*
X33100Y-39000D01*
X32100Y-39000D02*
X32350Y-39250D01*
X32100Y-38500D02*
X32100Y-39000D01*
X32350Y-38250D02*
X32100Y-38500D01*
X32850Y-38250D02*
X33100Y-38000D01*
X32100Y-38000D02*
X32350Y-38250D01*
X32100Y-37500D02*
X32100Y-38000D01*
X33100Y-39500D02*
X32850Y-39250D01*
X33100Y-40000D02*
X33100Y-39500D01*
X32850Y-42250D02*
X33100Y-42000D01*
X32100Y-42000D02*
X32350Y-42250D01*
X32100Y-39500D02*
X32100Y-40000D01*
X32350Y-39250D02*
X32100Y-39500D01*
G54D14*
X32700Y-35650D02*
X32500Y-35650D01*
X32500Y-35650D02*
X32500Y-35850D01*
X32700Y-35850D02*
X32500Y-35850D01*
X32700Y-35650D02*
X32700Y-35850D01*
X32700Y-36650D02*
X32500Y-36650D01*
X32500Y-36650D02*
X32500Y-36850D01*
X32700Y-36850D02*
X32500Y-36850D01*
X32700Y-36650D02*
X32700Y-36850D01*
X32700Y-37650D02*
X32500Y-37650D01*
X32500Y-37650D02*
X32500Y-37850D01*
X32700Y-37850D02*
X32500Y-37850D01*
X32700Y-37650D02*
X32700Y-37850D01*
X32700Y-38650D02*
X32500Y-38650D01*
X32500Y-38650D02*
X32500Y-38850D01*
X32700Y-38850D02*
X32500Y-38850D01*
X32700Y-38650D02*
X32700Y-38850D01*
X32700Y-39650D02*
X32500Y-39650D01*
X32500Y-39650D02*
X32500Y-39850D01*
X32700Y-39850D02*
X32500Y-39850D01*
X32700Y-39650D02*
X32700Y-39850D01*
X32700Y-41650D02*
X32700Y-41850D01*
X32700Y-41850D02*
X32500Y-41850D01*
X32500Y-41650D02*
X32500Y-41850D01*
X32700Y-41650D02*
X32500Y-41650D01*
X32700Y-40650D02*
X32700Y-40850D01*
X32700Y-40850D02*
X32500Y-40850D01*
X32500Y-40650D02*
X32500Y-40850D01*
X32700Y-40650D02*
X32500Y-40650D01*
G54D12*
X32350Y-41250D02*
X32100Y-41500D01*
X32100Y-41500D02*
X32100Y-42000D01*
X33100Y-42000D02*
X33100Y-41500D01*
X33100Y-41500D02*
X32850Y-41250D01*
X32100Y-40000D02*
X32350Y-40250D01*
X32850Y-40250D02*
X33100Y-40000D01*
X32350Y-40250D02*
X32100Y-40500D01*
X32100Y-40500D02*
X32100Y-41000D01*
X32100Y-41000D02*
X32350Y-41250D01*
X32850Y-41250D02*
X33100Y-41000D01*
X33100Y-41000D02*
X33100Y-40500D01*
X33100Y-40500D02*
X32850Y-40250D01*
X32100Y-40500D02*
X31850Y-40250D01*
X32100Y-41000D02*
X32100Y-40500D01*
X31850Y-41250D02*
X32100Y-41000D01*
X31100Y-41000D02*
X31350Y-41250D01*
X31100Y-40500D02*
X31100Y-41000D01*
X31350Y-40250D02*
X31100Y-40500D01*
X31850Y-40250D02*
X32100Y-40000D01*
X31100Y-40000D02*
X31350Y-40250D01*
X32100Y-41500D02*
X31850Y-41250D01*
X32100Y-42000D02*
X32100Y-41500D01*
X31100Y-41500D02*
X31100Y-42000D01*
X31350Y-41250D02*
X31100Y-41500D01*
G54D14*
X31700Y-40650D02*
X31500Y-40650D01*
X31500Y-40650D02*
X31500Y-40850D01*
X31700Y-40850D02*
X31500Y-40850D01*
X31700Y-40650D02*
X31700Y-40850D01*
X31700Y-41650D02*
X31500Y-41650D01*
X31500Y-41650D02*
X31500Y-41850D01*
X31700Y-41850D02*
X31500Y-41850D01*
X31700Y-41650D02*
X31700Y-41850D01*
X31700Y-39650D02*
X31700Y-39850D01*
X31700Y-39850D02*
X31500Y-39850D01*
X31500Y-39650D02*
X31500Y-39850D01*
X31700Y-39650D02*
X31500Y-39650D01*
X31700Y-38650D02*
X31700Y-38850D01*
X31700Y-38850D02*
X31500Y-38850D01*
X31500Y-38650D02*
X31500Y-38850D01*
X31700Y-38650D02*
X31500Y-38650D01*
X31700Y-37650D02*
X31700Y-37850D01*
X31700Y-37850D02*
X31500Y-37850D01*
X31500Y-37650D02*
X31500Y-37850D01*
X31700Y-37650D02*
X31500Y-37650D01*
X31700Y-36650D02*
X31700Y-36850D01*
X31700Y-36850D02*
X31500Y-36850D01*
X31500Y-36650D02*
X31500Y-36850D01*
X31700Y-36650D02*
X31500Y-36650D01*
X31700Y-35650D02*
X31700Y-35850D01*
X31700Y-35850D02*
X31500Y-35850D01*
X31500Y-35650D02*
X31500Y-35850D01*
X31700Y-35650D02*
X31500Y-35650D01*
G54D12*
X31350Y-39250D02*
X31100Y-39500D01*
X31100Y-39500D02*
X31100Y-40000D01*
X31100Y-42000D02*
X31350Y-42250D01*
X31850Y-42250D02*
X32100Y-42000D01*
X32100Y-40000D02*
X32100Y-39500D01*
X32100Y-39500D02*
X31850Y-39250D01*
X31100Y-37500D02*
X31100Y-38000D01*
X31100Y-38000D02*
X31350Y-38250D01*
X31850Y-38250D02*
X32100Y-38000D01*
X31350Y-38250D02*
X31100Y-38500D01*
X31100Y-38500D02*
X31100Y-39000D01*
X31100Y-39000D02*
X31350Y-39250D01*
X31850Y-39250D02*
X32100Y-39000D01*
X32100Y-39000D02*
X32100Y-38500D01*
X32100Y-38500D02*
X31850Y-38250D01*
X31350Y-36250D02*
X31100Y-36500D01*
X31100Y-36500D02*
X31100Y-37000D01*
X31100Y-37000D02*
X31350Y-37250D01*
X31850Y-37250D02*
X32100Y-37000D01*
X32100Y-37000D02*
X32100Y-36500D01*
X32100Y-36500D02*
X31850Y-36250D01*
X31100Y-37500D02*
X31350Y-37250D01*
X31850Y-37250D02*
X32100Y-37500D01*
X32100Y-38000D02*
X32100Y-37500D01*
X31100Y-34500D02*
X31100Y-35000D01*
X31100Y-35000D02*
X31350Y-35250D01*
X31850Y-35250D02*
X32100Y-35000D01*
X31350Y-35250D02*
X31100Y-35500D01*
X31100Y-35500D02*
X31100Y-36000D01*
X31100Y-36000D02*
X31350Y-36250D01*
X31850Y-36250D02*
X32100Y-36000D01*
X32100Y-36000D02*
X32100Y-35500D01*
X32100Y-35500D02*
X31850Y-35250D01*
X31350Y-34250D02*
X31850Y-34250D01*
X31100Y-34500D02*
X31350Y-34250D01*
X31850Y-34250D02*
X32100Y-34500D01*
X32100Y-35000D02*
X32100Y-34500D01*
G54D18*
X52652Y-34244D02*
X52160Y-34244D01*
X53656Y-34244D02*
X53164Y-34244D01*
G54D12*
X51900Y-41500D02*
X51900Y-42000D01*
X52150Y-42250D02*
X51900Y-42000D01*
X52900Y-42000D02*
X52650Y-42250D01*
X52650Y-42250D02*
X52150Y-42250D01*
X51900Y-41000D02*
X52150Y-41250D01*
X51900Y-40500D02*
X51900Y-41000D01*
X52150Y-40250D02*
X51900Y-40500D01*
X52900Y-40500D02*
X52650Y-40250D01*
X52900Y-41000D02*
X52900Y-40500D01*
X52650Y-41250D02*
X52900Y-41000D01*
X52150Y-41250D02*
X51900Y-41500D01*
X52900Y-41500D02*
X52650Y-41250D01*
X52900Y-42000D02*
X52900Y-41500D01*
X51900Y-38500D02*
X51900Y-39000D01*
X52150Y-39250D02*
X51900Y-39000D01*
X52900Y-39000D02*
X52650Y-39250D01*
X51900Y-40000D02*
X52150Y-40250D01*
X51900Y-39500D02*
X51900Y-40000D01*
X52150Y-39250D02*
X51900Y-39500D01*
X52900Y-39500D02*
X52650Y-39250D01*
X52900Y-40000D02*
X52900Y-39500D01*
X52650Y-40250D02*
X52900Y-40000D01*
X51900Y-38000D02*
X52150Y-38250D01*
X51900Y-37500D02*
X51900Y-38000D01*
X52150Y-37250D02*
X51900Y-37500D01*
X52900Y-37500D02*
X52650Y-37250D01*
X52900Y-38000D02*
X52900Y-37500D01*
X52650Y-38250D02*
X52900Y-38000D01*
X52150Y-38250D02*
X51900Y-38500D01*
X52900Y-38500D02*
X52650Y-38250D01*
X52900Y-39000D02*
X52900Y-38500D01*
X51900Y-37000D02*
X52150Y-37250D01*
X51900Y-36500D02*
X51900Y-37000D01*
X52150Y-34250D02*
X51900Y-34500D01*
X52900Y-34500D02*
X52650Y-34250D01*
X52900Y-37000D02*
X52900Y-36500D01*
X52650Y-37250D02*
X52900Y-37000D01*
G54D14*
X52300Y-40850D02*
X52500Y-40850D01*
X52500Y-40850D02*
X52500Y-40650D01*
X52300Y-40650D02*
X52500Y-40650D01*
X52300Y-40850D02*
X52300Y-40650D01*
X52300Y-39850D02*
X52500Y-39850D01*
X52500Y-39850D02*
X52500Y-39650D01*
X52300Y-39650D02*
X52500Y-39650D01*
X52300Y-39850D02*
X52300Y-39650D01*
X52300Y-38850D02*
X52500Y-38850D01*
X52500Y-38850D02*
X52500Y-38650D01*
X52300Y-38650D02*
X52500Y-38650D01*
X52300Y-38850D02*
X52300Y-38650D01*
X52300Y-37850D02*
X52500Y-37850D01*
X52500Y-37850D02*
X52500Y-37650D01*
X52300Y-37650D02*
X52500Y-37650D01*
X52300Y-37850D02*
X52300Y-37650D01*
X52300Y-36850D02*
X52500Y-36850D01*
X52500Y-36850D02*
X52500Y-36650D01*
X52300Y-36650D02*
X52500Y-36650D01*
X52300Y-36850D02*
X52300Y-36650D01*
X52300Y-34850D02*
X52300Y-34650D01*
X52300Y-34650D02*
X52500Y-34650D01*
X52500Y-34850D02*
X52500Y-34650D01*
X52300Y-34850D02*
X52500Y-34850D01*
X52300Y-35850D02*
X52300Y-35650D01*
X52300Y-35650D02*
X52500Y-35650D01*
X52500Y-35850D02*
X52500Y-35650D01*
X52300Y-35850D02*
X52500Y-35850D01*
G54D12*
X52650Y-35250D02*
X52900Y-35000D01*
X52900Y-35000D02*
X52900Y-34500D01*
X51900Y-34500D02*
X51900Y-35000D01*
X51900Y-35000D02*
X52150Y-35250D01*
X52900Y-36500D02*
X52650Y-36250D01*
X52150Y-36250D02*
X51900Y-36500D01*
X52650Y-36250D02*
X52900Y-36000D01*
X52900Y-36000D02*
X52900Y-35500D01*
X52900Y-35500D02*
X52650Y-35250D01*
X52150Y-35250D02*
X51900Y-35500D01*
X51900Y-35500D02*
X51900Y-36000D01*
X51900Y-36000D02*
X52150Y-36250D01*
X52900Y-36000D02*
X53150Y-36250D01*
X52900Y-35500D02*
X52900Y-36000D01*
X53150Y-35250D02*
X52900Y-35500D01*
X53900Y-35500D02*
X53650Y-35250D01*
X53900Y-36000D02*
X53900Y-35500D01*
X53650Y-36250D02*
X53900Y-36000D01*
X53150Y-36250D02*
X52900Y-36500D01*
X53900Y-36500D02*
X53650Y-36250D01*
X52900Y-35000D02*
X53150Y-35250D01*
X52900Y-34500D02*
X52900Y-35000D01*
X53900Y-35000D02*
X53900Y-34500D01*
X53650Y-35250D02*
X53900Y-35000D01*
G54D14*
X53300Y-35850D02*
X53500Y-35850D01*
X53500Y-35850D02*
X53500Y-35650D01*
X53300Y-35650D02*
X53500Y-35650D01*
X53300Y-35850D02*
X53300Y-35650D01*
X53300Y-34850D02*
X53500Y-34850D01*
X53500Y-34850D02*
X53500Y-34650D01*
X53300Y-34650D02*
X53500Y-34650D01*
X53300Y-34850D02*
X53300Y-34650D01*
X53300Y-36850D02*
X53300Y-36650D01*
X53300Y-36650D02*
X53500Y-36650D01*
X53500Y-36850D02*
X53500Y-36650D01*
X53300Y-36850D02*
X53500Y-36850D01*
X53300Y-37850D02*
X53300Y-37650D01*
X53300Y-37650D02*
X53500Y-37650D01*
X53500Y-37850D02*
X53500Y-37650D01*
X53300Y-37850D02*
X53500Y-37850D01*
X53300Y-38850D02*
X53300Y-38650D01*
X53300Y-38650D02*
X53500Y-38650D01*
X53500Y-38850D02*
X53500Y-38650D01*
X53300Y-38850D02*
X53500Y-38850D01*
X53300Y-39850D02*
X53300Y-39650D01*
X53300Y-39650D02*
X53500Y-39650D01*
X53500Y-39850D02*
X53500Y-39650D01*
X53300Y-39850D02*
X53500Y-39850D01*
X53300Y-40850D02*
X53300Y-40650D01*
X53300Y-40650D02*
X53500Y-40650D01*
X53500Y-40850D02*
X53500Y-40650D01*
X53300Y-40850D02*
X53500Y-40850D01*
G54D12*
X53650Y-37250D02*
X53900Y-37000D01*
X53900Y-37000D02*
X53900Y-36500D01*
X53900Y-34500D02*
X53650Y-34250D01*
X53150Y-34250D02*
X52900Y-34500D01*
X52900Y-36500D02*
X52900Y-37000D01*
X52900Y-37000D02*
X53150Y-37250D01*
X53900Y-39000D02*
X53900Y-38500D01*
X53900Y-38500D02*
X53650Y-38250D01*
X53150Y-38250D02*
X52900Y-38500D01*
X53650Y-38250D02*
X53900Y-38000D01*
X53900Y-38000D02*
X53900Y-37500D01*
X53900Y-37500D02*
X53650Y-37250D01*
X53150Y-37250D02*
X52900Y-37500D01*
X52900Y-37500D02*
X52900Y-38000D01*
X52900Y-38000D02*
X53150Y-38250D01*
X53650Y-40250D02*
X53900Y-40000D01*
X53900Y-40000D02*
X53900Y-39500D01*
X53900Y-39500D02*
X53650Y-39250D01*
X53150Y-39250D02*
X52900Y-39500D01*
X52900Y-39500D02*
X52900Y-40000D01*
X52900Y-40000D02*
X53150Y-40250D01*
X53900Y-39000D02*
X53650Y-39250D01*
X53150Y-39250D02*
X52900Y-39000D01*
X52900Y-38500D02*
X52900Y-39000D01*
X53900Y-42000D02*
X53900Y-41500D01*
X53900Y-41500D02*
X53650Y-41250D01*
X53150Y-41250D02*
X52900Y-41500D01*
X53650Y-41250D02*
X53900Y-41000D01*
X53900Y-41000D02*
X53900Y-40500D01*
X53900Y-40500D02*
X53650Y-40250D01*
X53150Y-40250D02*
X52900Y-40500D01*
X52900Y-40500D02*
X52900Y-41000D01*
X52900Y-41000D02*
X53150Y-41250D01*
X53650Y-42250D02*
X53150Y-42250D01*
X53900Y-42000D02*
X53650Y-42250D01*
X53150Y-42250D02*
X52900Y-42000D01*
X52900Y-41500D02*
X52900Y-42000D01*
G54D18*
X34504Y-31044D02*
X34504Y-31536D01*
G54D12*
X37250Y-31800D02*
X36750Y-31800D01*
X38250Y-31800D02*
X37750Y-31800D01*
X36250Y-31800D02*
X35750Y-31800D01*
X35250Y-31800D02*
X34750Y-31800D01*
G54D14*
X35100Y-31400D02*
X34900Y-31400D01*
X34900Y-31400D02*
X34900Y-31200D01*
X35100Y-31200D02*
X34900Y-31200D01*
X35100Y-31400D02*
X35100Y-31200D01*
X36100Y-31400D02*
X35900Y-31400D01*
X35900Y-31400D02*
X35900Y-31200D01*
X36100Y-31200D02*
X35900Y-31200D01*
X36100Y-31400D02*
X36100Y-31200D01*
X37100Y-31400D02*
X36900Y-31400D01*
X36900Y-31400D02*
X36900Y-31200D01*
X37100Y-31200D02*
X36900Y-31200D01*
X37100Y-31400D02*
X37100Y-31200D01*
G54D12*
X35250Y-30800D02*
X34750Y-30800D01*
X34750Y-30800D02*
X34500Y-31050D01*
X34500Y-31550D02*
X34750Y-31800D01*
X36500Y-31050D02*
X36250Y-30800D01*
X36250Y-30800D02*
X35750Y-30800D01*
X35750Y-30800D02*
X35500Y-31050D01*
X35500Y-31550D02*
X35750Y-31800D01*
X35750Y-31800D02*
X36250Y-31800D01*
X36250Y-31800D02*
X36500Y-31550D01*
X35250Y-30800D02*
X35500Y-31050D01*
X35500Y-31550D02*
X35250Y-31800D01*
X34750Y-31800D02*
X35250Y-31800D01*
X38250Y-30800D02*
X37750Y-30800D01*
X37750Y-30800D02*
X37500Y-31050D01*
X37500Y-31550D02*
X37750Y-31800D01*
X37500Y-31050D02*
X37250Y-30800D01*
X37250Y-30800D02*
X36750Y-30800D01*
X36750Y-30800D02*
X36500Y-31050D01*
X36500Y-31550D02*
X36750Y-31800D01*
X36750Y-31800D02*
X37250Y-31800D01*
X37250Y-31800D02*
X37500Y-31550D01*
X38500Y-31050D02*
X38500Y-31550D01*
X38250Y-30800D02*
X38500Y-31050D01*
X38500Y-31550D02*
X38250Y-31800D01*
X37750Y-31800D02*
X38250Y-31800D01*
G54D23*
G36*
X46507Y-34706D02*
X46507Y-34721D01*
X46507Y-34733D01*
X46507Y-34742D01*
X46507Y-34750D01*
X46507Y-34756D01*
X46506Y-34761D01*
X46505Y-34765D01*
X46504Y-34769D01*
X46503Y-34772D01*
X46503Y-34775D01*
X46496Y-34797D01*
X46484Y-34817D01*
X46471Y-34835D01*
X46455Y-34850D01*
X46436Y-34863D01*
X46426Y-34867D01*
X46426Y-34690D01*
X46426Y-34669D01*
X46426Y-34648D01*
X46426Y-34630D01*
X46426Y-34613D01*
X46426Y-34598D01*
X46425Y-34586D01*
X46425Y-34576D01*
X46424Y-34570D01*
X46424Y-34567D01*
X46420Y-34550D01*
X46413Y-34535D01*
X46403Y-34523D01*
X46391Y-34512D01*
X46376Y-34506D01*
X46368Y-34503D01*
X46355Y-34501D01*
X46340Y-34500D01*
X46325Y-34501D01*
X46310Y-34504D01*
X46298Y-34507D01*
X46290Y-34510D01*
X46281Y-34516D01*
X46272Y-34524D01*
X46264Y-34533D01*
X46260Y-34539D01*
X46258Y-34544D01*
X46256Y-34548D01*
X46254Y-34551D01*
X46254Y-34556D01*
X46252Y-34562D01*
X46251Y-34569D01*
X46251Y-34578D01*
X46250Y-34588D01*
X46250Y-34600D01*
X46250Y-34615D01*
X46250Y-34634D01*
X46250Y-34655D01*
X46250Y-34666D01*
X46250Y-34687D01*
X46250Y-34706D01*
X46250Y-34724D01*
X46250Y-34738D01*
X46250Y-34751D01*
X46251Y-34761D01*
X46251Y-34768D01*
X46252Y-34770D01*
X46257Y-34786D01*
X46264Y-34801D01*
X46275Y-34813D01*
X46288Y-34822D01*
X46304Y-34829D01*
X46307Y-34829D01*
X46318Y-34832D01*
X46331Y-34833D01*
X46345Y-34833D01*
X46357Y-34832D01*
X46368Y-34830D01*
X46384Y-34825D01*
X46397Y-34816D01*
X46408Y-34805D01*
X46416Y-34793D01*
X46418Y-34788D01*
X46420Y-34784D01*
X46422Y-34779D01*
X46423Y-34773D01*
X46424Y-34767D01*
X46424Y-34760D01*
X46425Y-34750D01*
X46426Y-34739D01*
X46426Y-34726D01*
X46426Y-34710D01*
X46426Y-34690D01*
X46426Y-34867D01*
X46415Y-34872D01*
X46400Y-34876D01*
X46377Y-34882D01*
X46350Y-34884D01*
X46323Y-34884D01*
X46300Y-34882D01*
X46286Y-34880D01*
X46271Y-34876D01*
X46257Y-34871D01*
X46244Y-34865D01*
X46236Y-34860D01*
X46218Y-34849D01*
X46203Y-34833D01*
X46191Y-34817D01*
X46181Y-34799D01*
X46178Y-34793D01*
X46175Y-34786D01*
X46174Y-34781D01*
X46172Y-34774D01*
X46171Y-34767D01*
X46170Y-34758D01*
X46169Y-34749D01*
X46168Y-34737D01*
X46168Y-34723D01*
X46168Y-34706D01*
X46168Y-34686D01*
X46168Y-34665D01*
X46168Y-34643D01*
X46168Y-34624D01*
X46168Y-34609D01*
X46168Y-34595D01*
X46169Y-34584D01*
X46170Y-34575D01*
X46171Y-34567D01*
X46172Y-34561D01*
X46173Y-34555D01*
X46175Y-34549D01*
X46178Y-34543D01*
X46179Y-34538D01*
X46190Y-34518D01*
X46202Y-34500D01*
X46218Y-34485D01*
X46237Y-34472D01*
X46258Y-34462D01*
X46282Y-34455D01*
X46287Y-34453D01*
X46300Y-34452D01*
X46314Y-34450D01*
X46330Y-34449D01*
X46346Y-34449D01*
X46362Y-34450D01*
X46376Y-34451D01*
X46385Y-34452D01*
X46409Y-34459D01*
X46430Y-34468D01*
X46449Y-34480D01*
X46466Y-34494D01*
X46468Y-34495D01*
X46476Y-34503D01*
X46481Y-34511D01*
X46486Y-34519D01*
X46491Y-34528D01*
X46495Y-34535D01*
X46497Y-34541D01*
X46500Y-34547D01*
X46502Y-34552D01*
X46503Y-34559D01*
X46504Y-34566D01*
X46506Y-34575D01*
X46506Y-34584D01*
X46507Y-34595D01*
X46507Y-34610D01*
X46507Y-34627D01*
X46507Y-34646D01*
X46507Y-34667D01*
X46507Y-34689D01*
X46507Y-34706D01*
X46507Y-34706D01*
X46507Y-34706D01*
G37*
G36*
X46855Y-34764D02*
X46854Y-34777D01*
X46850Y-34797D01*
X46843Y-34815D01*
X46832Y-34832D01*
X46818Y-34847D01*
X46802Y-34860D01*
X46784Y-34870D01*
X46762Y-34877D01*
X46755Y-34880D01*
X46745Y-34882D01*
X46731Y-34883D01*
X46716Y-34884D01*
X46700Y-34884D01*
X46686Y-34884D01*
X46674Y-34884D01*
X46656Y-34881D01*
X46636Y-34877D01*
X46614Y-34872D01*
X46591Y-34867D01*
X46569Y-34860D01*
X46566Y-34860D01*
X46559Y-34857D01*
X46554Y-34856D01*
X46552Y-34854D01*
X46551Y-34852D01*
X46551Y-34850D01*
X46552Y-34846D01*
X46553Y-34840D01*
X46555Y-34832D01*
X46555Y-34823D01*
X46557Y-34814D01*
X46559Y-34806D01*
X46559Y-34801D01*
X46561Y-34798D01*
X46563Y-34797D01*
X46568Y-34795D01*
X46568Y-34795D01*
X46573Y-34794D01*
X46576Y-34796D01*
X46582Y-34799D01*
X46583Y-34801D01*
X46602Y-34812D01*
X46622Y-34821D01*
X46646Y-34827D01*
X46671Y-34831D01*
X46698Y-34832D01*
X46713Y-34832D01*
X46726Y-34831D01*
X46736Y-34829D01*
X46745Y-34827D01*
X46752Y-34823D01*
X46758Y-34818D01*
X46765Y-34810D01*
X46769Y-34801D01*
X46772Y-34791D01*
X46773Y-34781D01*
X46771Y-34765D01*
X46766Y-34750D01*
X46760Y-34737D01*
X46751Y-34726D01*
X46741Y-34717D01*
X46738Y-34715D01*
X46734Y-34714D01*
X46728Y-34710D01*
X46718Y-34707D01*
X46707Y-34702D01*
X46695Y-34698D01*
X46682Y-34694D01*
X46680Y-34693D01*
X46662Y-34686D01*
X46646Y-34680D01*
X46634Y-34675D01*
X46623Y-34670D01*
X46614Y-34666D01*
X46606Y-34662D01*
X46599Y-34658D01*
X46593Y-34654D01*
X46592Y-34654D01*
X46579Y-34642D01*
X46567Y-34627D01*
X46557Y-34612D01*
X46550Y-34595D01*
X46547Y-34583D01*
X46546Y-34564D01*
X46547Y-34545D01*
X46551Y-34526D01*
X46559Y-34508D01*
X46567Y-34495D01*
X46579Y-34482D01*
X46594Y-34472D01*
X46611Y-34464D01*
X46631Y-34456D01*
X46653Y-34452D01*
X46677Y-34449D01*
X46702Y-34449D01*
X46729Y-34451D01*
X46758Y-34454D01*
X46770Y-34456D01*
X46779Y-34459D01*
X46789Y-34461D01*
X46800Y-34464D01*
X46812Y-34468D01*
X46822Y-34471D01*
X46832Y-34474D01*
X46840Y-34477D01*
X46845Y-34479D01*
X46846Y-34480D01*
X46848Y-34481D01*
X46848Y-34484D01*
X46847Y-34488D01*
X46846Y-34496D01*
X46844Y-34504D01*
X46843Y-34513D01*
X46842Y-34520D01*
X46842Y-34520D01*
X46841Y-34528D01*
X46840Y-34533D01*
X46838Y-34536D01*
X46836Y-34538D01*
X46832Y-34540D01*
X46828Y-34542D01*
X46825Y-34542D01*
X46822Y-34540D01*
X46820Y-34540D01*
X46813Y-34535D01*
X46804Y-34530D01*
X46793Y-34525D01*
X46781Y-34520D01*
X46773Y-34517D01*
X46762Y-34514D01*
X46749Y-34511D01*
X46735Y-34508D01*
X46721Y-34504D01*
X46709Y-34502D01*
X46701Y-34501D01*
X46688Y-34501D01*
X46674Y-34503D01*
X46661Y-34508D01*
X46648Y-34513D01*
X46638Y-34520D01*
X46630Y-34529D01*
X46627Y-34535D01*
X46624Y-34545D01*
X46624Y-34555D01*
X46628Y-34566D01*
X46635Y-34576D01*
X46643Y-34583D01*
X46649Y-34588D01*
X46654Y-34592D01*
X46661Y-34596D01*
X46669Y-34601D01*
X46678Y-34606D01*
X46690Y-34611D01*
X46704Y-34617D01*
X46720Y-34624D01*
X46732Y-34630D01*
X46746Y-34635D01*
X46760Y-34642D01*
X46773Y-34647D01*
X46783Y-34652D01*
X46792Y-34656D01*
X46798Y-34659D01*
X46800Y-34660D01*
X46816Y-34673D01*
X46830Y-34688D01*
X46840Y-34706D01*
X46848Y-34724D01*
X46854Y-34744D01*
X46855Y-34764D01*
X46855Y-34764D01*
X46855Y-34764D01*
G37*
G36*
X46975Y-34847D02*
X46972Y-34858D01*
X46967Y-34868D01*
X46960Y-34876D01*
X46951Y-34882D01*
X46947Y-34883D01*
X46935Y-34884D01*
X46923Y-34884D01*
X46919Y-34883D01*
X46909Y-34879D01*
X46902Y-34872D01*
X46896Y-34862D01*
X46892Y-34852D01*
X46892Y-34841D01*
X46892Y-34835D01*
X46897Y-34823D01*
X46903Y-34813D01*
X46912Y-34807D01*
X46924Y-34803D01*
X46929Y-34802D01*
X46942Y-34802D01*
X46953Y-34805D01*
X46962Y-34813D01*
X46969Y-34822D01*
X46971Y-34825D01*
X46974Y-34836D01*
X46975Y-34847D01*
X46975Y-34847D01*
X46975Y-34847D01*
G37*
G36*
X47302Y-34753D02*
X47301Y-34775D01*
X47298Y-34793D01*
X47292Y-34809D01*
X47284Y-34825D01*
X47274Y-34839D01*
X47268Y-34845D01*
X47254Y-34857D01*
X47239Y-34867D01*
X47223Y-34874D01*
X47223Y-34757D01*
X47222Y-34742D01*
X47220Y-34731D01*
X47216Y-34722D01*
X47211Y-34713D01*
X47210Y-34711D01*
X47210Y-34567D01*
X47209Y-34554D01*
X47208Y-34542D01*
X47204Y-34532D01*
X47204Y-34530D01*
X47198Y-34522D01*
X47189Y-34515D01*
X47179Y-34510D01*
X47165Y-34506D01*
X47162Y-34505D01*
X47153Y-34504D01*
X47144Y-34503D01*
X47133Y-34502D01*
X47123Y-34502D01*
X47114Y-34503D01*
X47108Y-34504D01*
X47106Y-34504D01*
X47104Y-34505D01*
X47102Y-34507D01*
X47101Y-34510D01*
X47099Y-34515D01*
X47098Y-34521D01*
X47098Y-34530D01*
X47098Y-34541D01*
X47098Y-34555D01*
X47097Y-34573D01*
X47097Y-34577D01*
X47097Y-34633D01*
X47121Y-34631D01*
X47131Y-34631D01*
X47142Y-34630D01*
X47151Y-34629D01*
X47158Y-34627D01*
X47174Y-34623D01*
X47187Y-34616D01*
X47197Y-34607D01*
X47204Y-34596D01*
X47206Y-34591D01*
X47209Y-34580D01*
X47210Y-34567D01*
X47210Y-34711D01*
X47205Y-34706D01*
X47197Y-34699D01*
X47186Y-34693D01*
X47174Y-34688D01*
X47159Y-34685D01*
X47141Y-34682D01*
X47123Y-34682D01*
X47097Y-34680D01*
X47097Y-34745D01*
X47098Y-34763D01*
X47098Y-34778D01*
X47098Y-34790D01*
X47098Y-34800D01*
X47098Y-34807D01*
X47099Y-34813D01*
X47100Y-34817D01*
X47100Y-34819D01*
X47105Y-34829D01*
X47111Y-34836D01*
X47117Y-34839D01*
X47123Y-34840D01*
X47132Y-34840D01*
X47141Y-34840D01*
X47153Y-34838D01*
X47162Y-34837D01*
X47171Y-34835D01*
X47171Y-34835D01*
X47181Y-34832D01*
X47189Y-34829D01*
X47194Y-34825D01*
X47200Y-34821D01*
X47202Y-34819D01*
X47211Y-34809D01*
X47217Y-34795D01*
X47221Y-34779D01*
X47223Y-34760D01*
X47223Y-34757D01*
X47223Y-34874D01*
X47221Y-34875D01*
X47205Y-34880D01*
X47201Y-34880D01*
X47197Y-34881D01*
X47193Y-34882D01*
X47189Y-34883D01*
X47182Y-34883D01*
X47175Y-34884D01*
X47165Y-34884D01*
X47153Y-34884D01*
X47139Y-34884D01*
X47122Y-34884D01*
X47107Y-34884D01*
X47024Y-34885D01*
X47020Y-34881D01*
X47016Y-34876D01*
X47016Y-34666D01*
X47016Y-34456D01*
X47020Y-34452D01*
X47022Y-34451D01*
X47022Y-34450D01*
X47025Y-34449D01*
X47027Y-34449D01*
X47031Y-34449D01*
X47037Y-34449D01*
X47045Y-34449D01*
X47055Y-34449D01*
X47068Y-34449D01*
X47085Y-34449D01*
X47092Y-34449D01*
X47113Y-34449D01*
X47129Y-34449D01*
X47144Y-34449D01*
X47156Y-34449D01*
X47165Y-34450D01*
X47174Y-34451D01*
X47181Y-34452D01*
X47189Y-34453D01*
X47196Y-34455D01*
X47202Y-34456D01*
X47222Y-34464D01*
X47239Y-34472D01*
X47254Y-34484D01*
X47257Y-34488D01*
X47270Y-34502D01*
X47279Y-34517D01*
X47284Y-34535D01*
X47287Y-34554D01*
X47288Y-34561D01*
X47286Y-34579D01*
X47282Y-34597D01*
X47275Y-34612D01*
X47264Y-34627D01*
X47256Y-34637D01*
X47249Y-34643D01*
X47244Y-34647D01*
X47242Y-34650D01*
X47240Y-34652D01*
X47242Y-34653D01*
X47243Y-34653D01*
X47246Y-34654D01*
X47251Y-34657D01*
X47258Y-34661D01*
X47264Y-34666D01*
X47271Y-34671D01*
X47276Y-34676D01*
X47278Y-34678D01*
X47288Y-34690D01*
X47294Y-34704D01*
X47299Y-34719D01*
X47301Y-34737D01*
X47302Y-34753D01*
X47302Y-34753D01*
X47302Y-34753D01*
G37*
G36*
X47631Y-34742D02*
X47631Y-34747D01*
X47630Y-34751D01*
X47629Y-34753D01*
X47627Y-34756D01*
X47626Y-34757D01*
X47621Y-34762D01*
X47551Y-34762D01*
X47551Y-34710D01*
X47548Y-34698D01*
X47543Y-34682D01*
X47537Y-34669D01*
X47528Y-34658D01*
X47517Y-34651D01*
X47514Y-34650D01*
X47509Y-34647D01*
X47503Y-34646D01*
X47498Y-34645D01*
X47490Y-34644D01*
X47487Y-34644D01*
X47476Y-34645D01*
X47468Y-34647D01*
X47461Y-34650D01*
X47454Y-34654D01*
X47450Y-34658D01*
X47442Y-34667D01*
X47435Y-34678D01*
X47430Y-34690D01*
X47429Y-34695D01*
X47427Y-34702D01*
X47426Y-34706D01*
X47426Y-34707D01*
X47426Y-34708D01*
X47426Y-34709D01*
X47428Y-34710D01*
X47430Y-34710D01*
X47435Y-34710D01*
X47442Y-34710D01*
X47452Y-34710D01*
X47464Y-34710D01*
X47479Y-34710D01*
X47488Y-34710D01*
X47551Y-34710D01*
X47551Y-34762D01*
X47523Y-34762D01*
X47425Y-34762D01*
X47426Y-34769D01*
X47428Y-34778D01*
X47431Y-34788D01*
X47435Y-34797D01*
X47438Y-34803D01*
X47446Y-34812D01*
X47454Y-34820D01*
X47464Y-34827D01*
X47470Y-34831D01*
X47482Y-34834D01*
X47497Y-34837D01*
X47513Y-34837D01*
X47531Y-34834D01*
X47533Y-34833D01*
X47541Y-34832D01*
X47549Y-34830D01*
X47553Y-34829D01*
X47555Y-34829D01*
X47558Y-34829D01*
X47563Y-34831D01*
X47564Y-34831D01*
X47567Y-34834D01*
X47569Y-34838D01*
X47571Y-34844D01*
X47572Y-34845D01*
X47573Y-34852D01*
X47574Y-34856D01*
X47575Y-34858D01*
X47573Y-34860D01*
X47569Y-34862D01*
X47563Y-34865D01*
X47555Y-34869D01*
X47547Y-34873D01*
X47537Y-34876D01*
X47529Y-34880D01*
X47523Y-34881D01*
X47509Y-34884D01*
X47494Y-34885D01*
X47478Y-34884D01*
X47467Y-34883D01*
X47456Y-34880D01*
X47443Y-34877D01*
X47430Y-34872D01*
X47419Y-34867D01*
X47414Y-34864D01*
X47398Y-34852D01*
X47382Y-34837D01*
X47369Y-34819D01*
X47358Y-34800D01*
X47350Y-34780D01*
X47349Y-34777D01*
X47347Y-34765D01*
X47346Y-34751D01*
X47345Y-34736D01*
X47346Y-34722D01*
X47347Y-34710D01*
X47347Y-34709D01*
X47354Y-34686D01*
X47363Y-34666D01*
X47375Y-34647D01*
X47391Y-34631D01*
X47408Y-34618D01*
X47428Y-34606D01*
X47450Y-34598D01*
X47465Y-34594D01*
X47477Y-34592D01*
X47489Y-34591D01*
X47501Y-34592D01*
X47513Y-34594D01*
X47536Y-34600D01*
X47557Y-34609D01*
X47576Y-34621D01*
X47593Y-34635D01*
X47593Y-34636D01*
X47607Y-34653D01*
X47617Y-34670D01*
X47624Y-34690D01*
X47629Y-34710D01*
X47631Y-34733D01*
X47631Y-34742D01*
X47631Y-34742D01*
X47631Y-34742D01*
G37*
G36*
X47977Y-34797D02*
X47977Y-34817D01*
X47977Y-34833D01*
X47977Y-34845D01*
X47977Y-34856D01*
X47977Y-34864D01*
X47977Y-34869D01*
X47976Y-34873D01*
X47976Y-34876D01*
X47975Y-34878D01*
X47974Y-34880D01*
X47973Y-34880D01*
X47973Y-34881D01*
X47971Y-34882D01*
X47969Y-34884D01*
X47967Y-34884D01*
X47963Y-34884D01*
X47957Y-34885D01*
X47949Y-34885D01*
X47937Y-34885D01*
X47936Y-34885D01*
X47924Y-34885D01*
X47916Y-34885D01*
X47909Y-34884D01*
X47905Y-34884D01*
X47903Y-34884D01*
X47901Y-34882D01*
X47899Y-34881D01*
X47899Y-34880D01*
X47897Y-34878D01*
X47896Y-34874D01*
X47895Y-34868D01*
X47895Y-34864D01*
X47895Y-34851D01*
X47894Y-34851D01*
X47894Y-34716D01*
X47893Y-34697D01*
X47889Y-34681D01*
X47883Y-34667D01*
X47876Y-34657D01*
X47866Y-34649D01*
X47859Y-34645D01*
X47854Y-34643D01*
X47846Y-34642D01*
X47838Y-34641D01*
X47830Y-34640D01*
X47813Y-34640D01*
X47799Y-34643D01*
X47788Y-34647D01*
X47779Y-34653D01*
X47772Y-34662D01*
X47769Y-34666D01*
X47766Y-34674D01*
X47763Y-34681D01*
X47761Y-34687D01*
X47760Y-34695D01*
X47759Y-34705D01*
X47759Y-34717D01*
X47759Y-34732D01*
X47759Y-34737D01*
X47759Y-34752D01*
X47759Y-34765D01*
X47759Y-34775D01*
X47761Y-34783D01*
X47763Y-34790D01*
X47765Y-34797D01*
X47768Y-34804D01*
X47769Y-34805D01*
X47776Y-34817D01*
X47786Y-34824D01*
X47797Y-34829D01*
X47810Y-34833D01*
X47823Y-34833D01*
X47834Y-34833D01*
X47843Y-34831D01*
X47850Y-34829D01*
X47858Y-34825D01*
X47866Y-34817D01*
X47869Y-34816D01*
X47878Y-34805D01*
X47884Y-34793D01*
X47889Y-34779D01*
X47893Y-34763D01*
X47894Y-34744D01*
X47894Y-34738D01*
X47894Y-34716D01*
X47894Y-34851D01*
X47884Y-34861D01*
X47878Y-34867D01*
X47871Y-34872D01*
X47866Y-34876D01*
X47866Y-34876D01*
X47853Y-34880D01*
X47838Y-34884D01*
X47821Y-34884D01*
X47802Y-34884D01*
X47794Y-34883D01*
X47773Y-34880D01*
X47755Y-34873D01*
X47739Y-34865D01*
X47723Y-34854D01*
X47715Y-34847D01*
X47703Y-34833D01*
X47693Y-34817D01*
X47686Y-34800D01*
X47680Y-34781D01*
X47677Y-34759D01*
X47676Y-34744D01*
X47677Y-34718D01*
X47680Y-34694D01*
X47686Y-34673D01*
X47695Y-34653D01*
X47707Y-34635D01*
X47720Y-34621D01*
X47737Y-34609D01*
X47756Y-34599D01*
X47767Y-34595D01*
X47785Y-34591D01*
X47805Y-34589D01*
X47826Y-34588D01*
X47847Y-34589D01*
X47867Y-34591D01*
X47877Y-34594D01*
X47898Y-34601D01*
X47917Y-34611D01*
X47934Y-34623D01*
X47948Y-34638D01*
X47959Y-34655D01*
X47967Y-34675D01*
X47973Y-34698D01*
X47974Y-34703D01*
X47975Y-34708D01*
X47976Y-34714D01*
X47976Y-34722D01*
X47977Y-34730D01*
X47977Y-34742D01*
X47977Y-34756D01*
X47977Y-34773D01*
X47977Y-34793D01*
X47977Y-34797D01*
X47977Y-34797D01*
X47977Y-34797D01*
G37*
G36*
X48317Y-34797D02*
X48317Y-34816D01*
X48317Y-34832D01*
X48317Y-34845D01*
X48317Y-34855D01*
X48317Y-34863D01*
X48317Y-34868D01*
X48316Y-34873D01*
X48316Y-34876D01*
X48315Y-34878D01*
X48314Y-34880D01*
X48313Y-34880D01*
X48313Y-34881D01*
X48312Y-34882D01*
X48309Y-34884D01*
X48307Y-34884D01*
X48303Y-34884D01*
X48297Y-34885D01*
X48288Y-34885D01*
X48278Y-34885D01*
X48246Y-34885D01*
X48240Y-34880D01*
X48235Y-34875D01*
X48235Y-34790D01*
X48235Y-34770D01*
X48235Y-34752D01*
X48235Y-34735D01*
X48234Y-34722D01*
X48234Y-34710D01*
X48234Y-34701D01*
X48234Y-34695D01*
X48234Y-34694D01*
X48230Y-34678D01*
X48225Y-34666D01*
X48218Y-34656D01*
X48210Y-34650D01*
X48207Y-34648D01*
X48202Y-34646D01*
X48196Y-34644D01*
X48190Y-34643D01*
X48182Y-34642D01*
X48180Y-34642D01*
X48163Y-34642D01*
X48149Y-34644D01*
X48137Y-34648D01*
X48127Y-34654D01*
X48120Y-34664D01*
X48117Y-34670D01*
X48114Y-34674D01*
X48112Y-34680D01*
X48111Y-34685D01*
X48109Y-34690D01*
X48107Y-34697D01*
X48107Y-34705D01*
X48106Y-34714D01*
X48106Y-34726D01*
X48106Y-34739D01*
X48105Y-34755D01*
X48105Y-34775D01*
X48105Y-34791D01*
X48105Y-34875D01*
X48100Y-34880D01*
X48095Y-34885D01*
X48063Y-34885D01*
X48052Y-34885D01*
X48043Y-34885D01*
X48037Y-34884D01*
X48033Y-34884D01*
X48031Y-34884D01*
X48029Y-34882D01*
X48028Y-34880D01*
X48023Y-34876D01*
X48024Y-34792D01*
X48024Y-34772D01*
X48024Y-34755D01*
X48024Y-34742D01*
X48024Y-34730D01*
X48025Y-34721D01*
X48025Y-34714D01*
X48026Y-34708D01*
X48026Y-34704D01*
X48027Y-34700D01*
X48028Y-34697D01*
X48028Y-34694D01*
X48035Y-34675D01*
X48042Y-34659D01*
X48051Y-34645D01*
X48062Y-34632D01*
X48070Y-34624D01*
X48086Y-34612D01*
X48103Y-34603D01*
X48124Y-34595D01*
X48147Y-34591D01*
X48170Y-34590D01*
X48195Y-34591D01*
X48198Y-34591D01*
X48221Y-34595D01*
X48242Y-34603D01*
X48261Y-34612D01*
X48276Y-34624D01*
X48290Y-34639D01*
X48300Y-34657D01*
X48308Y-34677D01*
X48313Y-34697D01*
X48314Y-34702D01*
X48315Y-34706D01*
X48316Y-34712D01*
X48317Y-34718D01*
X48317Y-34724D01*
X48317Y-34732D01*
X48317Y-34742D01*
X48317Y-34754D01*
X48317Y-34769D01*
X48317Y-34788D01*
X48317Y-34797D01*
X48317Y-34797D01*
X48317Y-34797D01*
G37*
G36*
X48365Y-32570D02*
X48365Y-32589D01*
X48364Y-32607D01*
X48364Y-32621D01*
X48362Y-32635D01*
X48361Y-32647D01*
X48359Y-32659D01*
X48356Y-32673D01*
X48353Y-32687D01*
X48351Y-32694D01*
X48338Y-32736D01*
X48323Y-32775D01*
X48305Y-32813D01*
X48283Y-32849D01*
X48258Y-32882D01*
X48231Y-32913D01*
X48202Y-32943D01*
X48170Y-32970D01*
X48136Y-32994D01*
X48100Y-33015D01*
X48063Y-33034D01*
X48023Y-33049D01*
X47986Y-33059D01*
X47968Y-33064D01*
X47949Y-33067D01*
X47930Y-33070D01*
X47913Y-33072D01*
X47901Y-33073D01*
X47883Y-33074D01*
X47874Y-33042D01*
X47862Y-33003D01*
X47847Y-32963D01*
X47831Y-32924D01*
X47814Y-32886D01*
X47795Y-32852D01*
X47793Y-32849D01*
X47789Y-32841D01*
X47787Y-32836D01*
X47786Y-32833D01*
X47787Y-32833D01*
X47796Y-32836D01*
X47809Y-32837D01*
X47822Y-32839D01*
X47838Y-32840D01*
X47851Y-32841D01*
X47874Y-32840D01*
X47894Y-32838D01*
X47912Y-32834D01*
X47931Y-32829D01*
X47938Y-32827D01*
X47963Y-32817D01*
X47985Y-32807D01*
X48006Y-32794D01*
X48026Y-32779D01*
X48045Y-32761D01*
X48046Y-32760D01*
X48064Y-32740D01*
X48080Y-32721D01*
X48092Y-32700D01*
X48103Y-32678D01*
X48112Y-32653D01*
X48113Y-32652D01*
X48119Y-32632D01*
X48123Y-32612D01*
X48125Y-32592D01*
X48126Y-32570D01*
X48126Y-32567D01*
X48125Y-32544D01*
X48123Y-32524D01*
X48119Y-32504D01*
X48114Y-32484D01*
X48113Y-32481D01*
X48103Y-32456D01*
X48092Y-32434D01*
X48080Y-32413D01*
X48064Y-32393D01*
X48046Y-32373D01*
X48046Y-32373D01*
X48026Y-32355D01*
X48006Y-32339D01*
X47985Y-32326D01*
X47963Y-32316D01*
X47938Y-32306D01*
X47938Y-32306D01*
X47917Y-32301D01*
X47898Y-32296D01*
X47878Y-32294D01*
X47855Y-32293D01*
X47852Y-32293D01*
X47830Y-32294D01*
X47810Y-32296D01*
X47790Y-32300D01*
X47770Y-32306D01*
X47767Y-32306D01*
X47742Y-32316D01*
X47719Y-32326D01*
X47699Y-32339D01*
X47679Y-32354D01*
X47659Y-32373D01*
X47659Y-32373D01*
X47640Y-32393D01*
X47625Y-32413D01*
X47612Y-32433D01*
X47601Y-32456D01*
X47593Y-32480D01*
X47592Y-32481D01*
X47586Y-32501D01*
X47582Y-32521D01*
X47580Y-32541D01*
X47579Y-32563D01*
X47579Y-32567D01*
X47580Y-32589D01*
X47581Y-32610D01*
X47585Y-32630D01*
X47591Y-32650D01*
X47592Y-32652D01*
X47603Y-32681D01*
X47617Y-32708D01*
X47633Y-32733D01*
X47642Y-32743D01*
X47648Y-32750D01*
X47652Y-32756D01*
X47656Y-32760D01*
X47658Y-32765D01*
X47663Y-32771D01*
X47668Y-32778D01*
X47675Y-32786D01*
X47675Y-32786D01*
X47705Y-32829D01*
X47733Y-32875D01*
X47758Y-32922D01*
X47780Y-32971D01*
X47799Y-33023D01*
X47814Y-33074D01*
X47827Y-33127D01*
X47828Y-33131D01*
X47831Y-33149D01*
X47834Y-33165D01*
X47837Y-33180D01*
X47838Y-33194D01*
X47840Y-33209D01*
X47841Y-33224D01*
X47842Y-33241D01*
X47842Y-33259D01*
X47842Y-33280D01*
X47842Y-33295D01*
X47842Y-33318D01*
X47842Y-33338D01*
X47842Y-33355D01*
X47841Y-33371D01*
X47839Y-33386D01*
X47838Y-33400D01*
X47836Y-33415D01*
X47834Y-33430D01*
X47830Y-33447D01*
X47828Y-33458D01*
X47815Y-33513D01*
X47799Y-33566D01*
X47779Y-33619D01*
X47757Y-33669D01*
X47730Y-33719D01*
X47700Y-33767D01*
X47668Y-33812D01*
X47646Y-33839D01*
X47638Y-33848D01*
X47628Y-33859D01*
X47616Y-33871D01*
X47604Y-33884D01*
X47591Y-33898D01*
X47578Y-33910D01*
X47565Y-33922D01*
X47554Y-33933D01*
X47545Y-33941D01*
X47543Y-33942D01*
X47498Y-33977D01*
X47451Y-34009D01*
X47402Y-34037D01*
X47353Y-34063D01*
X47302Y-34084D01*
X47249Y-34103D01*
X47196Y-34117D01*
X47157Y-34125D01*
X47139Y-34129D01*
X47123Y-34132D01*
X47109Y-34134D01*
X47094Y-34136D01*
X47080Y-34136D01*
X47065Y-34137D01*
X47047Y-34138D01*
X47027Y-34139D01*
X47008Y-34139D01*
X46993Y-34139D01*
X46978Y-34139D01*
X46964Y-34139D01*
X46952Y-34139D01*
X46943Y-34139D01*
X46936Y-34139D01*
X46933Y-34139D01*
X46928Y-34138D01*
X46920Y-34137D01*
X46910Y-34136D01*
X46900Y-34135D01*
X46893Y-34134D01*
X46837Y-34125D01*
X46783Y-34113D01*
X46730Y-34097D01*
X46678Y-34078D01*
X46627Y-34055D01*
X46578Y-34029D01*
X46530Y-34000D01*
X46484Y-33966D01*
X46453Y-33942D01*
X46444Y-33934D01*
X46433Y-33925D01*
X46421Y-33913D01*
X46408Y-33901D01*
X46395Y-33887D01*
X46382Y-33874D01*
X46371Y-33862D01*
X46361Y-33850D01*
X46352Y-33841D01*
X46350Y-33839D01*
X46315Y-33794D01*
X46283Y-33748D01*
X46255Y-33699D01*
X46230Y-33649D01*
X46208Y-33598D01*
X46190Y-33546D01*
X46175Y-33491D01*
X46168Y-33458D01*
X46165Y-33440D01*
X46162Y-33424D01*
X46159Y-33409D01*
X46158Y-33395D01*
X46156Y-33380D01*
X46155Y-33365D01*
X46155Y-33349D01*
X46155Y-33331D01*
X46154Y-33309D01*
X46154Y-33295D01*
X46154Y-33272D01*
X46155Y-33252D01*
X46155Y-33234D01*
X46155Y-33218D01*
X46157Y-33203D01*
X46159Y-33189D01*
X46160Y-33174D01*
X46163Y-33159D01*
X46166Y-33142D01*
X46168Y-33131D01*
X46181Y-33076D01*
X46197Y-33023D01*
X46217Y-32971D01*
X46239Y-32920D01*
X46266Y-32871D01*
X46296Y-32823D01*
X46329Y-32777D01*
X46350Y-32750D01*
X46358Y-32741D01*
X46368Y-32730D01*
X46380Y-32718D01*
X46393Y-32705D01*
X46405Y-32692D01*
X46418Y-32679D01*
X46431Y-32667D01*
X46442Y-32657D01*
X46452Y-32648D01*
X46453Y-32647D01*
X46499Y-32611D01*
X46545Y-32579D01*
X46594Y-32551D01*
X46643Y-32527D01*
X46695Y-32504D01*
X46748Y-32487D01*
X46801Y-32472D01*
X46835Y-32464D01*
X46852Y-32461D01*
X46868Y-32458D01*
X46884Y-32456D01*
X46898Y-32454D01*
X46912Y-32452D01*
X46927Y-32452D01*
X46943Y-32451D01*
X46962Y-32451D01*
X46983Y-32451D01*
X46998Y-32451D01*
X47017Y-32451D01*
X47033Y-32451D01*
X47046Y-32451D01*
X47057Y-32451D01*
X47066Y-32452D01*
X47075Y-32452D01*
X47082Y-32452D01*
X47090Y-32453D01*
X47098Y-32454D01*
X47102Y-32455D01*
X47136Y-32460D01*
X47170Y-32466D01*
X47202Y-32473D01*
X47215Y-32476D01*
X47224Y-32480D01*
X47236Y-32483D01*
X47248Y-32486D01*
X47260Y-32490D01*
X47272Y-32494D01*
X47282Y-32497D01*
X47290Y-32500D01*
X47296Y-32503D01*
X47300Y-32504D01*
X47300Y-32504D01*
X47300Y-32505D01*
X47301Y-32508D01*
X47301Y-32512D01*
X47301Y-32519D01*
X47301Y-32528D01*
X47300Y-32538D01*
X47300Y-32583D01*
X47302Y-32627D01*
X47307Y-32670D01*
X47316Y-32711D01*
X47326Y-32748D01*
X47335Y-32775D01*
X47330Y-32772D01*
X47317Y-32764D01*
X47301Y-32755D01*
X47284Y-32746D01*
X47266Y-32737D01*
X47248Y-32728D01*
X47232Y-32721D01*
X47226Y-32718D01*
X47180Y-32702D01*
X47133Y-32690D01*
X47086Y-32681D01*
X47039Y-32676D01*
X46992Y-32674D01*
X46945Y-32676D01*
X46898Y-32681D01*
X46852Y-32690D01*
X46805Y-32702D01*
X46761Y-32718D01*
X46717Y-32738D01*
X46674Y-32761D01*
X46663Y-32766D01*
X46624Y-32793D01*
X46587Y-32821D01*
X46552Y-32852D01*
X46520Y-32887D01*
X46491Y-32923D01*
X46464Y-32961D01*
X46440Y-33001D01*
X46419Y-33043D01*
X46400Y-33085D01*
X46386Y-33130D01*
X46374Y-33174D01*
X46366Y-33221D01*
X46362Y-33267D01*
X46361Y-33275D01*
X46361Y-33324D01*
X46365Y-33373D01*
X46372Y-33421D01*
X46382Y-33468D01*
X46396Y-33514D01*
X46413Y-33558D01*
X46434Y-33601D01*
X46458Y-33643D01*
X46486Y-33683D01*
X46516Y-33720D01*
X46548Y-33755D01*
X46583Y-33786D01*
X46619Y-33815D01*
X46658Y-33841D01*
X46698Y-33865D01*
X46741Y-33885D01*
X46784Y-33902D01*
X46828Y-33916D01*
X46874Y-33926D01*
X46920Y-33934D01*
X46962Y-33937D01*
X47011Y-33937D01*
X47060Y-33934D01*
X47108Y-33927D01*
X47155Y-33916D01*
X47200Y-33902D01*
X47244Y-33885D01*
X47288Y-33864D01*
X47329Y-33840D01*
X47370Y-33812D01*
X47407Y-33782D01*
X47442Y-33751D01*
X47473Y-33716D01*
X47501Y-33680D01*
X47528Y-33641D01*
X47551Y-33600D01*
X47572Y-33557D01*
X47589Y-33514D01*
X47603Y-33470D01*
X47613Y-33424D01*
X47620Y-33378D01*
X47624Y-33336D01*
X47624Y-33287D01*
X47620Y-33238D01*
X47613Y-33190D01*
X47603Y-33143D01*
X47589Y-33098D01*
X47572Y-33054D01*
X47551Y-33010D01*
X47526Y-32968D01*
X47498Y-32928D01*
X47478Y-32902D01*
X47452Y-32868D01*
X47430Y-32833D01*
X47410Y-32799D01*
X47394Y-32764D01*
X47380Y-32727D01*
X47369Y-32688D01*
X47361Y-32649D01*
X47360Y-32642D01*
X47359Y-32635D01*
X47359Y-32628D01*
X47358Y-32620D01*
X47357Y-32611D01*
X47357Y-32600D01*
X47357Y-32587D01*
X47357Y-32571D01*
X47357Y-32570D01*
X47357Y-32550D01*
X47358Y-32532D01*
X47358Y-32518D01*
X47359Y-32504D01*
X47361Y-32492D01*
X47363Y-32480D01*
X47366Y-32466D01*
X47369Y-32452D01*
X47371Y-32444D01*
X47383Y-32403D01*
X47399Y-32364D01*
X47417Y-32326D01*
X47438Y-32290D01*
X47463Y-32257D01*
X47490Y-32226D01*
X47520Y-32196D01*
X47552Y-32169D01*
X47585Y-32145D01*
X47621Y-32124D01*
X47659Y-32105D01*
X47699Y-32090D01*
X47735Y-32080D01*
X47751Y-32076D01*
X47765Y-32072D01*
X47778Y-32070D01*
X47790Y-32068D01*
X47802Y-32067D01*
X47817Y-32066D01*
X47833Y-32066D01*
X47851Y-32066D01*
X47861Y-32066D01*
X47881Y-32066D01*
X47898Y-32066D01*
X47913Y-32067D01*
X47925Y-32068D01*
X47938Y-32069D01*
X47951Y-32072D01*
X47964Y-32074D01*
X47979Y-32077D01*
X47986Y-32080D01*
X48027Y-32092D01*
X48066Y-32107D01*
X48103Y-32126D01*
X48139Y-32148D01*
X48173Y-32171D01*
X48205Y-32199D01*
X48234Y-32228D01*
X48261Y-32260D01*
X48285Y-32294D01*
X48306Y-32330D01*
X48325Y-32368D01*
X48340Y-32407D01*
X48351Y-32444D01*
X48354Y-32460D01*
X48357Y-32473D01*
X48360Y-32486D01*
X48361Y-32499D01*
X48363Y-32512D01*
X48364Y-32525D01*
X48365Y-32541D01*
X48365Y-32559D01*
X48365Y-32570D01*
X48365Y-32570D01*
X48365Y-32570D01*
G37*
G36*
X50846Y-34384D02*
X50836Y-34378D01*
X50813Y-34364D01*
X50780Y-34342D01*
X50741Y-34316D01*
X50702Y-34290D01*
X50670Y-34269D01*
X50648Y-34254D01*
X50638Y-34249D01*
X50633Y-34251D01*
X50615Y-34260D01*
X50588Y-34274D01*
X50572Y-34282D01*
X50548Y-34292D01*
X50535Y-34295D01*
X50533Y-34291D01*
X50524Y-34272D01*
X50510Y-34240D01*
X50492Y-34197D01*
X50470Y-34147D01*
X50448Y-34094D01*
X50425Y-34039D01*
X50403Y-33986D01*
X50384Y-33939D01*
X50368Y-33901D01*
X50358Y-33874D01*
X50354Y-33863D01*
X50355Y-33860D01*
X50368Y-33848D01*
X50389Y-33832D01*
X50436Y-33794D01*
X50482Y-33737D01*
X50510Y-33672D01*
X50519Y-33599D01*
X50511Y-33532D01*
X50485Y-33468D01*
X50440Y-33410D01*
X50385Y-33367D01*
X50321Y-33340D01*
X50250Y-33331D01*
X50182Y-33339D01*
X50116Y-33365D01*
X50058Y-33409D01*
X50033Y-33437D01*
X49999Y-33496D01*
X49980Y-33558D01*
X49978Y-33574D01*
X49981Y-33643D01*
X50001Y-33710D01*
X50038Y-33769D01*
X50089Y-33818D01*
X50095Y-33822D01*
X50118Y-33840D01*
X50134Y-33852D01*
X50146Y-33862D01*
X50058Y-34074D01*
X50044Y-34107D01*
X50020Y-34165D01*
X49999Y-34215D01*
X49982Y-34255D01*
X49970Y-34281D01*
X49965Y-34292D01*
X49965Y-34293D01*
X49957Y-34294D01*
X49941Y-34288D01*
X49911Y-34274D01*
X49892Y-34264D01*
X49869Y-34253D01*
X49859Y-34249D01*
X49850Y-34254D01*
X49829Y-34268D01*
X49797Y-34289D01*
X49759Y-34314D01*
X49723Y-34339D01*
X49690Y-34361D01*
X49666Y-34376D01*
X49654Y-34383D01*
X49652Y-34383D01*
X49642Y-34377D01*
X49623Y-34361D01*
X49594Y-34334D01*
X49553Y-34293D01*
X49547Y-34287D01*
X49513Y-34253D01*
X49486Y-34224D01*
X49468Y-34204D01*
X49461Y-34195D01*
X49461Y-34195D01*
X49467Y-34183D01*
X49482Y-34159D01*
X49504Y-34125D01*
X49531Y-34086D01*
X49601Y-33984D01*
X49563Y-33888D01*
X49551Y-33858D01*
X49536Y-33823D01*
X49525Y-33797D01*
X49519Y-33786D01*
X49509Y-33782D01*
X49482Y-33776D01*
X49444Y-33768D01*
X49399Y-33760D01*
X49355Y-33752D01*
X49316Y-33744D01*
X49288Y-33739D01*
X49275Y-33736D01*
X49272Y-33734D01*
X49269Y-33728D01*
X49268Y-33715D01*
X49267Y-33691D01*
X49266Y-33654D01*
X49266Y-33599D01*
X49266Y-33593D01*
X49267Y-33542D01*
X49268Y-33500D01*
X49269Y-33474D01*
X49271Y-33463D01*
X49271Y-33463D01*
X49283Y-33460D01*
X49311Y-33454D01*
X49350Y-33447D01*
X49397Y-33438D01*
X49400Y-33437D01*
X49446Y-33428D01*
X49485Y-33420D01*
X49513Y-33414D01*
X49524Y-33410D01*
X49527Y-33407D01*
X49536Y-33389D01*
X49549Y-33360D01*
X49565Y-33325D01*
X49580Y-33288D01*
X49593Y-33255D01*
X49602Y-33231D01*
X49605Y-33220D01*
X49604Y-33219D01*
X49597Y-33208D01*
X49581Y-33184D01*
X49559Y-33151D01*
X49532Y-33111D01*
X49530Y-33108D01*
X49503Y-33069D01*
X49481Y-33035D01*
X49467Y-33012D01*
X49461Y-33001D01*
X49461Y-33000D01*
X49470Y-32988D01*
X49490Y-32966D01*
X49519Y-32936D01*
X49553Y-32901D01*
X49564Y-32891D01*
X49603Y-32853D01*
X49629Y-32829D01*
X49646Y-32816D01*
X49654Y-32813D01*
X49654Y-32813D01*
X49666Y-32820D01*
X49691Y-32836D01*
X49724Y-32859D01*
X49764Y-32886D01*
X49767Y-32888D01*
X49806Y-32915D01*
X49839Y-32937D01*
X49862Y-32953D01*
X49873Y-32959D01*
X49874Y-32959D01*
X49890Y-32954D01*
X49918Y-32944D01*
X49953Y-32931D01*
X49989Y-32916D01*
X50022Y-32902D01*
X50047Y-32891D01*
X50059Y-32884D01*
X50059Y-32884D01*
X50063Y-32870D01*
X50070Y-32840D01*
X50078Y-32800D01*
X50088Y-32752D01*
X50089Y-32744D01*
X50098Y-32697D01*
X50105Y-32658D01*
X50111Y-32631D01*
X50114Y-32620D01*
X50120Y-32619D01*
X50143Y-32617D01*
X50178Y-32616D01*
X50221Y-32616D01*
X50265Y-32616D01*
X50308Y-32617D01*
X50345Y-32618D01*
X50372Y-32620D01*
X50383Y-32622D01*
X50383Y-32623D01*
X50387Y-32638D01*
X50394Y-32667D01*
X50402Y-32708D01*
X50411Y-32756D01*
X50413Y-32765D01*
X50422Y-32811D01*
X50430Y-32850D01*
X50435Y-32876D01*
X50438Y-32887D01*
X50443Y-32889D01*
X50462Y-32897D01*
X50493Y-32910D01*
X50532Y-32926D01*
X50622Y-32962D01*
X50733Y-32887D01*
X50743Y-32880D01*
X50783Y-32853D01*
X50815Y-32831D01*
X50838Y-32816D01*
X50847Y-32811D01*
X50848Y-32811D01*
X50859Y-32821D01*
X50881Y-32842D01*
X50911Y-32871D01*
X50946Y-32905D01*
X50971Y-32931D01*
X51002Y-32962D01*
X51021Y-32983D01*
X51032Y-32996D01*
X51035Y-33004D01*
X51034Y-33010D01*
X51027Y-33021D01*
X51011Y-33045D01*
X50988Y-33079D01*
X50961Y-33118D01*
X50939Y-33151D01*
X50915Y-33188D01*
X50900Y-33214D01*
X50894Y-33227D01*
X50896Y-33232D01*
X50903Y-33254D01*
X50917Y-33287D01*
X50933Y-33326D01*
X50972Y-33413D01*
X51029Y-33424D01*
X51064Y-33431D01*
X51112Y-33440D01*
X51159Y-33449D01*
X51231Y-33463D01*
X51234Y-33729D01*
X51223Y-33734D01*
X51212Y-33737D01*
X51185Y-33743D01*
X51147Y-33751D01*
X51101Y-33759D01*
X51063Y-33766D01*
X51024Y-33774D01*
X50996Y-33779D01*
X50984Y-33782D01*
X50980Y-33786D01*
X50971Y-33805D01*
X50957Y-33835D01*
X50941Y-33871D01*
X50926Y-33908D01*
X50912Y-33943D01*
X50903Y-33969D01*
X50899Y-33982D01*
X50904Y-33993D01*
X50919Y-34016D01*
X50940Y-34048D01*
X50967Y-34087D01*
X50993Y-34125D01*
X51016Y-34158D01*
X51031Y-34182D01*
X51038Y-34193D01*
X51034Y-34200D01*
X51019Y-34219D01*
X50990Y-34249D01*
X50946Y-34292D01*
X50939Y-34299D01*
X50905Y-34332D01*
X50876Y-34359D01*
X50855Y-34377D01*
X50846Y-34384D01*
X50846Y-34384D01*
G37*
G54D11*
X41771Y-37571D02*
X41771Y-37814D01*
X41785Y-37842D01*
X41800Y-37857D01*
X41828Y-37871D01*
X41885Y-37871D01*
X41914Y-37857D01*
X41928Y-37842D01*
X41942Y-37814D01*
X41942Y-37571D01*
X42214Y-37671D02*
X42214Y-37871D01*
X42142Y-37557D02*
X42071Y-37771D01*
X42257Y-37771D01*
X41450Y-45671D02*
X41307Y-45671D01*
X41307Y-45371D01*
X41707Y-45671D02*
X41535Y-45671D01*
X41621Y-45671D02*
X41621Y-45371D01*
X41592Y-45414D01*
X41564Y-45442D01*
X41535Y-45457D01*
X35057Y-43842D02*
X35042Y-43857D01*
X35000Y-43871D01*
X34971Y-43871D01*
X34928Y-43857D01*
X34900Y-43828D01*
X34885Y-43800D01*
X34871Y-43742D01*
X34871Y-43700D01*
X34885Y-43642D01*
X34900Y-43614D01*
X34928Y-43585D01*
X34971Y-43571D01*
X35000Y-43571D01*
X35042Y-43585D01*
X35057Y-43600D01*
X35157Y-43571D02*
X35342Y-43571D01*
X35242Y-43685D01*
X35285Y-43685D01*
X35314Y-43700D01*
X35328Y-43714D01*
X35342Y-43742D01*
X35342Y-43814D01*
X35328Y-43842D01*
X35314Y-43857D01*
X35285Y-43871D01*
X35200Y-43871D01*
X35171Y-43857D01*
X35157Y-43842D01*
X35600Y-43571D02*
X35542Y-43571D01*
X35514Y-43585D01*
X35500Y-43600D01*
X35471Y-43642D01*
X35457Y-43700D01*
X35457Y-43814D01*
X35471Y-43842D01*
X35485Y-43857D01*
X35514Y-43871D01*
X35571Y-43871D01*
X35600Y-43857D01*
X35614Y-43842D01*
X35628Y-43814D01*
X35628Y-43742D01*
X35614Y-43714D01*
X35600Y-43700D01*
X35571Y-43685D01*
X35514Y-43685D01*
X35485Y-43700D01*
X35471Y-43714D01*
X35457Y-43742D01*
X37807Y-43842D02*
X37792Y-43857D01*
X37750Y-43871D01*
X37721Y-43871D01*
X37678Y-43857D01*
X37650Y-43828D01*
X37635Y-43800D01*
X37621Y-43742D01*
X37621Y-43700D01*
X37635Y-43642D01*
X37650Y-43614D01*
X37678Y-43585D01*
X37721Y-43571D01*
X37750Y-43571D01*
X37792Y-43585D01*
X37807Y-43600D01*
X38092Y-43871D02*
X37921Y-43871D01*
X38007Y-43871D02*
X38007Y-43571D01*
X37978Y-43614D01*
X37950Y-43642D01*
X37921Y-43657D01*
X38278Y-43571D02*
X38307Y-43571D01*
X38335Y-43585D01*
X38350Y-43600D01*
X38364Y-43628D01*
X38378Y-43685D01*
X38378Y-43757D01*
X38364Y-43814D01*
X38350Y-43842D01*
X38335Y-43857D01*
X38307Y-43871D01*
X38278Y-43871D01*
X38250Y-43857D01*
X38235Y-43842D01*
X38221Y-43814D01*
X38207Y-43757D01*
X38207Y-43685D01*
X38221Y-43628D01*
X38235Y-43600D01*
X38250Y-43585D01*
X38278Y-43571D01*
X42450Y-48092D02*
X42435Y-48107D01*
X42392Y-48121D01*
X42364Y-48121D01*
X42321Y-48107D01*
X42292Y-48078D01*
X42278Y-48050D01*
X42264Y-47992D01*
X42264Y-47950D01*
X42278Y-47892D01*
X42292Y-47864D01*
X42321Y-47835D01*
X42364Y-47821D01*
X42392Y-47821D01*
X42435Y-47835D01*
X42450Y-47850D01*
X42564Y-47850D02*
X42578Y-47835D01*
X42607Y-47821D01*
X42678Y-47821D01*
X42707Y-47835D01*
X42721Y-47850D01*
X42735Y-47878D01*
X42735Y-47907D01*
X42721Y-47950D01*
X42550Y-48121D01*
X42735Y-48121D01*
X42221Y-34171D02*
X42221Y-34414D01*
X42235Y-34442D01*
X42250Y-34457D01*
X42278Y-34471D01*
X42335Y-34471D01*
X42364Y-34457D01*
X42378Y-34442D01*
X42392Y-34414D01*
X42392Y-34171D01*
X42507Y-34171D02*
X42692Y-34171D01*
X42592Y-34285D01*
X42635Y-34285D01*
X42664Y-34300D01*
X42678Y-34314D01*
X42692Y-34342D01*
X42692Y-34414D01*
X42678Y-34442D01*
X42664Y-34457D01*
X42635Y-34471D01*
X42550Y-34471D01*
X42521Y-34457D01*
X42507Y-34442D01*
X42400Y-52571D02*
X42400Y-52785D01*
X42385Y-52828D01*
X42357Y-52857D01*
X42314Y-52871D01*
X42285Y-52871D01*
X42700Y-52871D02*
X42528Y-52871D01*
X42614Y-52871D02*
X42614Y-52571D01*
X42585Y-52614D01*
X42557Y-52642D01*
X42528Y-52657D01*
X37021Y-46571D02*
X37021Y-46814D01*
X37035Y-46842D01*
X37050Y-46857D01*
X37078Y-46871D01*
X37135Y-46871D01*
X37164Y-46857D01*
X37178Y-46842D01*
X37192Y-46814D01*
X37192Y-46571D01*
X37492Y-46871D02*
X37321Y-46871D01*
X37407Y-46871D02*
X37407Y-46571D01*
X37378Y-46614D01*
X37350Y-46642D01*
X37321Y-46657D01*
X43721Y-34721D02*
X43721Y-34964D01*
X43735Y-34992D01*
X43750Y-35007D01*
X43778Y-35021D01*
X43835Y-35021D01*
X43864Y-35007D01*
X43878Y-34992D01*
X43892Y-34964D01*
X43892Y-34721D01*
X44021Y-34750D02*
X44035Y-34735D01*
X44064Y-34721D01*
X44135Y-34721D01*
X44164Y-34735D01*
X44178Y-34750D01*
X44192Y-34778D01*
X44192Y-34807D01*
X44178Y-34850D01*
X44007Y-35021D01*
X44192Y-35021D01*
X35271Y-52607D02*
X35314Y-52621D01*
X35385Y-52621D01*
X35414Y-52607D01*
X35428Y-52592D01*
X35442Y-52564D01*
X35442Y-52535D01*
X35428Y-52507D01*
X35414Y-52492D01*
X35385Y-52478D01*
X35328Y-52464D01*
X35300Y-52450D01*
X35285Y-52435D01*
X35271Y-52407D01*
X35271Y-52378D01*
X35285Y-52350D01*
X35300Y-52335D01*
X35328Y-52321D01*
X35400Y-52321D01*
X35442Y-52335D01*
X35728Y-52621D02*
X35557Y-52621D01*
X35642Y-52621D02*
X35642Y-52321D01*
X35614Y-52364D01*
X35585Y-52392D01*
X35557Y-52407D01*
X48378Y-39071D02*
X48378Y-39314D01*
X48392Y-39342D01*
X48407Y-39357D01*
X48435Y-39371D01*
X48492Y-39371D01*
X48521Y-39357D01*
X48535Y-39342D01*
X48550Y-39314D01*
X48550Y-39071D01*
X48850Y-39371D02*
X48678Y-39371D01*
X48764Y-39371D02*
X48764Y-39071D01*
X48735Y-39114D01*
X48707Y-39142D01*
X48678Y-39157D01*
X49135Y-39371D02*
X48964Y-39371D01*
X49050Y-39371D02*
X49050Y-39071D01*
X49021Y-39114D01*
X48992Y-39142D01*
X48964Y-39157D01*
X34950Y-46871D02*
X34850Y-46728D01*
X34778Y-46871D02*
X34778Y-46571D01*
X34892Y-46571D01*
X34921Y-46585D01*
X34935Y-46600D01*
X34950Y-46628D01*
X34950Y-46671D01*
X34935Y-46700D01*
X34921Y-46714D01*
X34892Y-46728D01*
X34778Y-46728D01*
X35050Y-46571D02*
X35250Y-46571D01*
X35121Y-46871D01*
X39450Y-39621D02*
X39350Y-39478D01*
X39278Y-39621D02*
X39278Y-39321D01*
X39392Y-39321D01*
X39421Y-39335D01*
X39435Y-39350D01*
X39450Y-39378D01*
X39450Y-39421D01*
X39435Y-39450D01*
X39421Y-39464D01*
X39392Y-39478D01*
X39278Y-39478D01*
X39592Y-39621D02*
X39650Y-39621D01*
X39678Y-39607D01*
X39692Y-39592D01*
X39721Y-39550D01*
X39735Y-39492D01*
X39735Y-39378D01*
X39721Y-39350D01*
X39707Y-39335D01*
X39678Y-39321D01*
X39621Y-39321D01*
X39592Y-39335D01*
X39578Y-39350D01*
X39564Y-39378D01*
X39564Y-39450D01*
X39578Y-39478D01*
X39592Y-39492D01*
X39621Y-39507D01*
X39678Y-39507D01*
X39707Y-39492D01*
X39721Y-39478D01*
X39735Y-39450D01*
X33950Y-46871D02*
X33850Y-46728D01*
X33778Y-46871D02*
X33778Y-46571D01*
X33892Y-46571D01*
X33921Y-46585D01*
X33935Y-46600D01*
X33950Y-46628D01*
X33950Y-46671D01*
X33935Y-46700D01*
X33921Y-46714D01*
X33892Y-46728D01*
X33778Y-46728D01*
X34221Y-46571D02*
X34078Y-46571D01*
X34064Y-46714D01*
X34078Y-46700D01*
X34107Y-46685D01*
X34178Y-46685D01*
X34207Y-46700D01*
X34221Y-46714D01*
X34235Y-46742D01*
X34235Y-46814D01*
X34221Y-46842D01*
X34207Y-46857D01*
X34178Y-46871D01*
X34107Y-46871D01*
X34078Y-46857D01*
X34064Y-46842D01*
X39307Y-38871D02*
X39207Y-38728D01*
X39135Y-38871D02*
X39135Y-38571D01*
X39250Y-38571D01*
X39278Y-38585D01*
X39292Y-38600D01*
X39307Y-38628D01*
X39307Y-38671D01*
X39292Y-38700D01*
X39278Y-38714D01*
X39250Y-38728D01*
X39135Y-38728D01*
X39592Y-38871D02*
X39421Y-38871D01*
X39507Y-38871D02*
X39507Y-38571D01*
X39478Y-38614D01*
X39450Y-38642D01*
X39421Y-38657D01*
X39778Y-38571D02*
X39807Y-38571D01*
X39835Y-38585D01*
X39850Y-38600D01*
X39864Y-38628D01*
X39878Y-38685D01*
X39878Y-38757D01*
X39864Y-38814D01*
X39850Y-38842D01*
X39835Y-38857D01*
X39807Y-38871D01*
X39778Y-38871D01*
X39750Y-38857D01*
X39735Y-38842D01*
X39721Y-38814D01*
X39707Y-38757D01*
X39707Y-38685D01*
X39721Y-38628D01*
X39735Y-38600D01*
X39750Y-38585D01*
X39778Y-38571D01*
X35950Y-46871D02*
X35850Y-46728D01*
X35778Y-46871D02*
X35778Y-46571D01*
X35892Y-46571D01*
X35921Y-46585D01*
X35935Y-46600D01*
X35950Y-46628D01*
X35950Y-46671D01*
X35935Y-46700D01*
X35921Y-46714D01*
X35892Y-46728D01*
X35778Y-46728D01*
X36207Y-46571D02*
X36150Y-46571D01*
X36121Y-46585D01*
X36107Y-46600D01*
X36078Y-46642D01*
X36064Y-46700D01*
X36064Y-46814D01*
X36078Y-46842D01*
X36092Y-46857D01*
X36121Y-46871D01*
X36178Y-46871D01*
X36207Y-46857D01*
X36221Y-46842D01*
X36235Y-46814D01*
X36235Y-46742D01*
X36221Y-46714D01*
X36207Y-46700D01*
X36178Y-46685D01*
X36121Y-46685D01*
X36092Y-46700D01*
X36078Y-46714D01*
X36064Y-46742D01*
X47807Y-43871D02*
X47707Y-43728D01*
X47635Y-43871D02*
X47635Y-43571D01*
X47750Y-43571D01*
X47778Y-43585D01*
X47792Y-43600D01*
X47807Y-43628D01*
X47807Y-43671D01*
X47792Y-43700D01*
X47778Y-43714D01*
X47750Y-43728D01*
X47635Y-43728D01*
X47921Y-43600D02*
X47935Y-43585D01*
X47964Y-43571D01*
X48035Y-43571D01*
X48064Y-43585D01*
X48078Y-43600D01*
X48092Y-43628D01*
X48092Y-43657D01*
X48078Y-43700D01*
X47907Y-43871D01*
X48092Y-43871D01*
X48364Y-43571D02*
X48221Y-43571D01*
X48207Y-43714D01*
X48221Y-43700D01*
X48250Y-43685D01*
X48321Y-43685D01*
X48350Y-43700D01*
X48364Y-43714D01*
X48378Y-43742D01*
X48378Y-43814D01*
X48364Y-43842D01*
X48350Y-43857D01*
X48321Y-43871D01*
X48250Y-43871D01*
X48221Y-43857D01*
X48207Y-43842D01*
X38500Y-37121D02*
X38400Y-36978D01*
X38328Y-37121D02*
X38328Y-36821D01*
X38442Y-36821D01*
X38471Y-36835D01*
X38485Y-36850D01*
X38500Y-36878D01*
X38500Y-36921D01*
X38485Y-36950D01*
X38471Y-36964D01*
X38442Y-36978D01*
X38328Y-36978D01*
X38671Y-36950D02*
X38642Y-36935D01*
X38628Y-36921D01*
X38614Y-36892D01*
X38614Y-36878D01*
X38628Y-36850D01*
X38642Y-36835D01*
X38671Y-36821D01*
X38728Y-36821D01*
X38757Y-36835D01*
X38771Y-36850D01*
X38785Y-36878D01*
X38785Y-36892D01*
X38771Y-36921D01*
X38757Y-36935D01*
X38728Y-36950D01*
X38671Y-36950D01*
X38642Y-36964D01*
X38628Y-36978D01*
X38614Y-37007D01*
X38614Y-37064D01*
X38628Y-37092D01*
X38642Y-37107D01*
X38671Y-37121D01*
X38728Y-37121D01*
X38757Y-37107D01*
X38771Y-37092D01*
X38785Y-37064D01*
X38785Y-37007D01*
X38771Y-36978D01*
X38757Y-36964D01*
X38728Y-36950D01*
X33350Y-48371D02*
X33250Y-48228D01*
X33178Y-48371D02*
X33178Y-48071D01*
X33292Y-48071D01*
X33321Y-48085D01*
X33335Y-48100D01*
X33350Y-48128D01*
X33350Y-48171D01*
X33335Y-48200D01*
X33321Y-48214D01*
X33292Y-48228D01*
X33178Y-48228D01*
X33464Y-48100D02*
X33478Y-48085D01*
X33507Y-48071D01*
X33578Y-48071D01*
X33607Y-48085D01*
X33621Y-48100D01*
X33635Y-48128D01*
X33635Y-48157D01*
X33621Y-48200D01*
X33450Y-48371D01*
X33635Y-48371D01*
X47807Y-45121D02*
X47707Y-44978D01*
X47635Y-45121D02*
X47635Y-44821D01*
X47750Y-44821D01*
X47778Y-44835D01*
X47792Y-44850D01*
X47807Y-44878D01*
X47807Y-44921D01*
X47792Y-44950D01*
X47778Y-44964D01*
X47750Y-44978D01*
X47635Y-44978D01*
X47921Y-44850D02*
X47935Y-44835D01*
X47964Y-44821D01*
X48035Y-44821D01*
X48064Y-44835D01*
X48078Y-44850D01*
X48092Y-44878D01*
X48092Y-44907D01*
X48078Y-44950D01*
X47907Y-45121D01*
X48092Y-45121D01*
X48192Y-44821D02*
X48392Y-44821D01*
X48264Y-45121D01*
X42007Y-40371D02*
X41907Y-40228D01*
X41835Y-40371D02*
X41835Y-40071D01*
X41950Y-40071D01*
X41978Y-40085D01*
X41992Y-40100D01*
X42007Y-40128D01*
X42007Y-40171D01*
X41992Y-40200D01*
X41978Y-40214D01*
X41950Y-40228D01*
X41835Y-40228D01*
X42292Y-40371D02*
X42121Y-40371D01*
X42207Y-40371D02*
X42207Y-40071D01*
X42178Y-40114D01*
X42150Y-40142D01*
X42121Y-40157D01*
X42407Y-40100D02*
X42421Y-40085D01*
X42450Y-40071D01*
X42521Y-40071D01*
X42550Y-40085D01*
X42564Y-40100D01*
X42578Y-40128D01*
X42578Y-40157D01*
X42564Y-40200D01*
X42392Y-40371D01*
X42578Y-40371D01*
X47807Y-46371D02*
X47707Y-46228D01*
X47635Y-46371D02*
X47635Y-46071D01*
X47750Y-46071D01*
X47778Y-46085D01*
X47792Y-46100D01*
X47807Y-46128D01*
X47807Y-46171D01*
X47792Y-46200D01*
X47778Y-46214D01*
X47750Y-46228D01*
X47635Y-46228D01*
X47921Y-46100D02*
X47935Y-46085D01*
X47964Y-46071D01*
X48035Y-46071D01*
X48064Y-46085D01*
X48078Y-46100D01*
X48092Y-46128D01*
X48092Y-46157D01*
X48078Y-46200D01*
X47907Y-46371D01*
X48092Y-46371D01*
X48192Y-46071D02*
X48378Y-46071D01*
X48278Y-46185D01*
X48321Y-46185D01*
X48350Y-46200D01*
X48364Y-46214D01*
X48378Y-46242D01*
X48378Y-46314D01*
X48364Y-46342D01*
X48350Y-46357D01*
X48321Y-46371D01*
X48235Y-46371D01*
X48207Y-46357D01*
X48192Y-46342D01*
X51080Y-43473D02*
X51080Y-43569D01*
X50880Y-43569D01*
X50976Y-43407D02*
X50976Y-43340D01*
X51080Y-43311D02*
X51080Y-43407D01*
X50880Y-43407D01*
X50880Y-43311D01*
X51080Y-43226D02*
X50880Y-43226D01*
X50880Y-43178D01*
X50890Y-43150D01*
X50909Y-43130D01*
X50928Y-43121D01*
X50966Y-43111D01*
X50995Y-43111D01*
X51033Y-43121D01*
X51052Y-43130D01*
X51071Y-43150D01*
X51080Y-43178D01*
X51080Y-43226D01*
X50900Y-43035D02*
X50890Y-43026D01*
X50880Y-43007D01*
X50880Y-42959D01*
X50890Y-42940D01*
X50900Y-42930D01*
X50919Y-42921D01*
X50938Y-42921D01*
X50966Y-42930D01*
X51080Y-43045D01*
X51080Y-42921D01*
X51080Y-44723D02*
X51080Y-44819D01*
X50880Y-44819D01*
X50976Y-44657D02*
X50976Y-44590D01*
X51080Y-44561D02*
X51080Y-44657D01*
X50880Y-44657D01*
X50880Y-44561D01*
X51080Y-44476D02*
X50880Y-44476D01*
X50880Y-44428D01*
X50890Y-44400D01*
X50909Y-44380D01*
X50928Y-44371D01*
X50966Y-44361D01*
X50995Y-44361D01*
X51033Y-44371D01*
X51052Y-44380D01*
X51071Y-44400D01*
X51080Y-44428D01*
X51080Y-44476D01*
X50880Y-44295D02*
X50880Y-44171D01*
X50957Y-44238D01*
X50957Y-44209D01*
X50966Y-44190D01*
X50976Y-44180D01*
X50995Y-44171D01*
X51042Y-44171D01*
X51061Y-44180D01*
X51071Y-44190D01*
X51080Y-44209D01*
X51080Y-44266D01*
X51071Y-44285D01*
X51061Y-44295D01*
X51080Y-45973D02*
X51080Y-46069D01*
X50880Y-46069D01*
X50976Y-45907D02*
X50976Y-45840D01*
X51080Y-45811D02*
X51080Y-45907D01*
X50880Y-45907D01*
X50880Y-45811D01*
X51080Y-45726D02*
X50880Y-45726D01*
X50880Y-45678D01*
X50890Y-45650D01*
X50909Y-45630D01*
X50928Y-45621D01*
X50966Y-45611D01*
X50995Y-45611D01*
X51033Y-45621D01*
X51052Y-45630D01*
X51071Y-45650D01*
X51080Y-45678D01*
X51080Y-45726D01*
X51080Y-45421D02*
X51080Y-45535D01*
X51080Y-45478D02*
X50880Y-45478D01*
X50909Y-45497D01*
X50928Y-45516D01*
X50938Y-45535D01*
X41707Y-41571D02*
X41907Y-41871D01*
X41907Y-41571D02*
X41707Y-41871D01*
X42178Y-41871D02*
X42007Y-41871D01*
X42092Y-41871D02*
X42092Y-41571D01*
X42064Y-41614D01*
X42035Y-41642D01*
X42007Y-41657D01*
X42690Y-49562D02*
X42675Y-49577D01*
X42632Y-49591D01*
X42604Y-49591D01*
X42561Y-49577D01*
X42532Y-49548D01*
X42518Y-49520D01*
X42504Y-49462D01*
X42504Y-49420D01*
X42518Y-49362D01*
X42532Y-49334D01*
X42561Y-49305D01*
X42604Y-49291D01*
X42632Y-49291D01*
X42675Y-49305D01*
X42690Y-49320D01*
X42975Y-49591D02*
X42804Y-49591D01*
X42890Y-49591D02*
X42890Y-49291D01*
X42861Y-49334D01*
X42832Y-49362D01*
X42804Y-49377D01*
X37792Y-39192D02*
X37807Y-39207D01*
X37821Y-39250D01*
X37821Y-39278D01*
X37807Y-39321D01*
X37778Y-39350D01*
X37750Y-39364D01*
X37692Y-39378D01*
X37650Y-39378D01*
X37592Y-39364D01*
X37564Y-39350D01*
X37535Y-39321D01*
X37521Y-39278D01*
X37521Y-39250D01*
X37535Y-39207D01*
X37550Y-39192D01*
X37521Y-39092D02*
X37521Y-38907D01*
X37635Y-39007D01*
X37635Y-38964D01*
X37650Y-38935D01*
X37664Y-38921D01*
X37692Y-38907D01*
X37764Y-38907D01*
X37792Y-38921D01*
X37807Y-38935D01*
X37821Y-38964D01*
X37821Y-39050D01*
X37807Y-39078D01*
X37792Y-39092D01*
X37521Y-38807D02*
X37521Y-38621D01*
X37635Y-38721D01*
X37635Y-38678D01*
X37650Y-38650D01*
X37664Y-38635D01*
X37692Y-38621D01*
X37764Y-38621D01*
X37792Y-38635D01*
X37807Y-38650D01*
X37821Y-38678D01*
X37821Y-38764D01*
X37807Y-38792D01*
X37792Y-38807D01*
X36307Y-43142D02*
X36292Y-43157D01*
X36250Y-43171D01*
X36221Y-43171D01*
X36178Y-43157D01*
X36150Y-43128D01*
X36135Y-43100D01*
X36121Y-43042D01*
X36121Y-43000D01*
X36135Y-42942D01*
X36150Y-42914D01*
X36178Y-42885D01*
X36221Y-42871D01*
X36250Y-42871D01*
X36292Y-42885D01*
X36307Y-42900D01*
X36407Y-42871D02*
X36592Y-42871D01*
X36492Y-42985D01*
X36535Y-42985D01*
X36564Y-43000D01*
X36578Y-43014D01*
X36592Y-43042D01*
X36592Y-43114D01*
X36578Y-43142D01*
X36564Y-43157D01*
X36535Y-43171D01*
X36450Y-43171D01*
X36421Y-43157D01*
X36407Y-43142D01*
X36878Y-43171D02*
X36707Y-43171D01*
X36792Y-43171D02*
X36792Y-42871D01*
X36764Y-42914D01*
X36735Y-42942D01*
X36707Y-42957D01*
X37842Y-37742D02*
X37857Y-37757D01*
X37871Y-37800D01*
X37871Y-37828D01*
X37857Y-37871D01*
X37828Y-37900D01*
X37800Y-37914D01*
X37742Y-37928D01*
X37700Y-37928D01*
X37642Y-37914D01*
X37614Y-37900D01*
X37585Y-37871D01*
X37571Y-37828D01*
X37571Y-37800D01*
X37585Y-37757D01*
X37600Y-37742D01*
X37571Y-37642D02*
X37571Y-37457D01*
X37685Y-37557D01*
X37685Y-37514D01*
X37700Y-37485D01*
X37714Y-37471D01*
X37742Y-37457D01*
X37814Y-37457D01*
X37842Y-37471D01*
X37857Y-37485D01*
X37871Y-37514D01*
X37871Y-37600D01*
X37857Y-37628D01*
X37842Y-37642D01*
X37600Y-37342D02*
X37585Y-37328D01*
X37571Y-37300D01*
X37571Y-37228D01*
X37585Y-37200D01*
X37600Y-37185D01*
X37628Y-37171D01*
X37657Y-37171D01*
X37700Y-37185D01*
X37871Y-37357D01*
X37871Y-37171D01*
X37842Y-34442D02*
X37857Y-34457D01*
X37871Y-34500D01*
X37871Y-34528D01*
X37857Y-34571D01*
X37828Y-34600D01*
X37800Y-34614D01*
X37742Y-34628D01*
X37700Y-34628D01*
X37642Y-34614D01*
X37614Y-34600D01*
X37585Y-34571D01*
X37571Y-34528D01*
X37571Y-34500D01*
X37585Y-34457D01*
X37600Y-34442D01*
X37571Y-34342D02*
X37571Y-34157D01*
X37685Y-34257D01*
X37685Y-34214D01*
X37700Y-34185D01*
X37714Y-34171D01*
X37742Y-34157D01*
X37814Y-34157D01*
X37842Y-34171D01*
X37857Y-34185D01*
X37871Y-34214D01*
X37871Y-34300D01*
X37857Y-34328D01*
X37842Y-34342D01*
X37671Y-33900D02*
X37871Y-33900D01*
X37557Y-33971D02*
X37771Y-34042D01*
X37771Y-33857D01*
X39592Y-41892D02*
X39607Y-41907D01*
X39621Y-41950D01*
X39621Y-41978D01*
X39607Y-42021D01*
X39578Y-42050D01*
X39550Y-42064D01*
X39492Y-42078D01*
X39450Y-42078D01*
X39392Y-42064D01*
X39364Y-42050D01*
X39335Y-42021D01*
X39321Y-41978D01*
X39321Y-41950D01*
X39335Y-41907D01*
X39350Y-41892D01*
X39350Y-41778D02*
X39335Y-41764D01*
X39321Y-41735D01*
X39321Y-41664D01*
X39335Y-41635D01*
X39350Y-41621D01*
X39378Y-41607D01*
X39407Y-41607D01*
X39450Y-41621D01*
X39621Y-41792D01*
X39621Y-41607D01*
X39321Y-41507D02*
X39321Y-41321D01*
X39435Y-41421D01*
X39435Y-41378D01*
X39450Y-41350D01*
X39464Y-41335D01*
X39492Y-41321D01*
X39564Y-41321D01*
X39592Y-41335D01*
X39607Y-41350D01*
X39621Y-41378D01*
X39621Y-41464D01*
X39607Y-41492D01*
X39592Y-41507D01*
X44492Y-41942D02*
X44507Y-41957D01*
X44521Y-42000D01*
X44521Y-42028D01*
X44507Y-42071D01*
X44478Y-42100D01*
X44450Y-42114D01*
X44392Y-42128D01*
X44350Y-42128D01*
X44292Y-42114D01*
X44264Y-42100D01*
X44235Y-42071D01*
X44221Y-42028D01*
X44221Y-42000D01*
X44235Y-41957D01*
X44250Y-41942D01*
X44250Y-41828D02*
X44235Y-41814D01*
X44221Y-41785D01*
X44221Y-41714D01*
X44235Y-41685D01*
X44250Y-41671D01*
X44278Y-41657D01*
X44307Y-41657D01*
X44350Y-41671D01*
X44521Y-41842D01*
X44521Y-41657D01*
X44321Y-41400D02*
X44521Y-41400D01*
X44207Y-41471D02*
X44421Y-41542D01*
X44421Y-41357D01*
X36307Y-36842D02*
X36292Y-36857D01*
X36250Y-36871D01*
X36221Y-36871D01*
X36178Y-36857D01*
X36150Y-36828D01*
X36135Y-36800D01*
X36121Y-36742D01*
X36121Y-36700D01*
X36135Y-36642D01*
X36150Y-36614D01*
X36178Y-36585D01*
X36221Y-36571D01*
X36250Y-36571D01*
X36292Y-36585D01*
X36307Y-36600D01*
X36564Y-36671D02*
X36564Y-36871D01*
X36492Y-36557D02*
X36421Y-36771D01*
X36607Y-36771D01*
X36778Y-36571D02*
X36807Y-36571D01*
X36835Y-36585D01*
X36850Y-36600D01*
X36864Y-36628D01*
X36878Y-36685D01*
X36878Y-36757D01*
X36864Y-36814D01*
X36850Y-36842D01*
X36835Y-36857D01*
X36807Y-36871D01*
X36778Y-36871D01*
X36750Y-36857D01*
X36735Y-36842D01*
X36721Y-36814D01*
X36707Y-36757D01*
X36707Y-36685D01*
X36721Y-36628D01*
X36735Y-36600D01*
X36750Y-36585D01*
X36778Y-36571D01*
X38950Y-51642D02*
X38935Y-51657D01*
X38892Y-51671D01*
X38864Y-51671D01*
X38821Y-51657D01*
X38792Y-51628D01*
X38778Y-51600D01*
X38764Y-51542D01*
X38764Y-51500D01*
X38778Y-51442D01*
X38792Y-51414D01*
X38821Y-51385D01*
X38864Y-51371D01*
X38892Y-51371D01*
X38935Y-51385D01*
X38950Y-51400D01*
X39050Y-51371D02*
X39235Y-51371D01*
X39135Y-51485D01*
X39178Y-51485D01*
X39207Y-51500D01*
X39221Y-51514D01*
X39235Y-51542D01*
X39235Y-51614D01*
X39221Y-51642D01*
X39207Y-51657D01*
X39178Y-51671D01*
X39092Y-51671D01*
X39064Y-51657D01*
X39050Y-51642D01*
X40650Y-40342D02*
X40635Y-40357D01*
X40592Y-40371D01*
X40564Y-40371D01*
X40521Y-40357D01*
X40492Y-40328D01*
X40478Y-40300D01*
X40464Y-40242D01*
X40464Y-40200D01*
X40478Y-40142D01*
X40492Y-40114D01*
X40521Y-40085D01*
X40564Y-40071D01*
X40592Y-40071D01*
X40635Y-40085D01*
X40650Y-40100D01*
X40907Y-40071D02*
X40850Y-40071D01*
X40821Y-40085D01*
X40807Y-40100D01*
X40778Y-40142D01*
X40764Y-40200D01*
X40764Y-40314D01*
X40778Y-40342D01*
X40792Y-40357D01*
X40821Y-40371D01*
X40878Y-40371D01*
X40907Y-40357D01*
X40921Y-40342D01*
X40935Y-40314D01*
X40935Y-40242D01*
X40921Y-40214D01*
X40907Y-40200D01*
X40878Y-40185D01*
X40821Y-40185D01*
X40792Y-40200D01*
X40778Y-40214D01*
X40764Y-40242D01*
X33350Y-47592D02*
X33335Y-47607D01*
X33292Y-47621D01*
X33264Y-47621D01*
X33221Y-47607D01*
X33192Y-47578D01*
X33178Y-47550D01*
X33164Y-47492D01*
X33164Y-47450D01*
X33178Y-47392D01*
X33192Y-47364D01*
X33221Y-47335D01*
X33264Y-47321D01*
X33292Y-47321D01*
X33335Y-47335D01*
X33350Y-47350D01*
X33450Y-47321D02*
X33650Y-47321D01*
X33521Y-47621D01*
X43507Y-40342D02*
X43492Y-40357D01*
X43450Y-40371D01*
X43421Y-40371D01*
X43378Y-40357D01*
X43350Y-40328D01*
X43335Y-40300D01*
X43321Y-40242D01*
X43321Y-40200D01*
X43335Y-40142D01*
X43350Y-40114D01*
X43378Y-40085D01*
X43421Y-40071D01*
X43450Y-40071D01*
X43492Y-40085D01*
X43507Y-40100D01*
X43792Y-40371D02*
X43621Y-40371D01*
X43707Y-40371D02*
X43707Y-40071D01*
X43678Y-40114D01*
X43650Y-40142D01*
X43621Y-40157D01*
X43892Y-40071D02*
X44092Y-40071D01*
X43964Y-40371D01*
X39357Y-40342D02*
X39342Y-40357D01*
X39300Y-40371D01*
X39271Y-40371D01*
X39228Y-40357D01*
X39200Y-40328D01*
X39185Y-40300D01*
X39171Y-40242D01*
X39171Y-40200D01*
X39185Y-40142D01*
X39200Y-40114D01*
X39228Y-40085D01*
X39271Y-40071D01*
X39300Y-40071D01*
X39342Y-40085D01*
X39357Y-40100D01*
X39642Y-40371D02*
X39471Y-40371D01*
X39557Y-40371D02*
X39557Y-40071D01*
X39528Y-40114D01*
X39500Y-40142D01*
X39471Y-40157D01*
X39757Y-40100D02*
X39771Y-40085D01*
X39800Y-40071D01*
X39871Y-40071D01*
X39900Y-40085D01*
X39914Y-40100D01*
X39928Y-40128D01*
X39928Y-40157D01*
X39914Y-40200D01*
X39742Y-40371D01*
X39928Y-40371D01*
X38357Y-35092D02*
X38342Y-35107D01*
X38300Y-35121D01*
X38271Y-35121D01*
X38228Y-35107D01*
X38200Y-35078D01*
X38185Y-35050D01*
X38171Y-34992D01*
X38171Y-34950D01*
X38185Y-34892D01*
X38200Y-34864D01*
X38228Y-34835D01*
X38271Y-34821D01*
X38300Y-34821D01*
X38342Y-34835D01*
X38357Y-34850D01*
X38642Y-35121D02*
X38471Y-35121D01*
X38557Y-35121D02*
X38557Y-34821D01*
X38528Y-34864D01*
X38500Y-34892D01*
X38471Y-34907D01*
X38742Y-34821D02*
X38928Y-34821D01*
X38828Y-34935D01*
X38871Y-34935D01*
X38900Y-34950D01*
X38914Y-34964D01*
X38928Y-34992D01*
X38928Y-35064D01*
X38914Y-35092D01*
X38900Y-35107D01*
X38871Y-35121D01*
X38785Y-35121D01*
X38757Y-35107D01*
X38742Y-35092D01*
X38950Y-49842D02*
X38935Y-49857D01*
X38892Y-49871D01*
X38864Y-49871D01*
X38821Y-49857D01*
X38792Y-49828D01*
X38778Y-49800D01*
X38764Y-49742D01*
X38764Y-49700D01*
X38778Y-49642D01*
X38792Y-49614D01*
X38821Y-49585D01*
X38864Y-49571D01*
X38892Y-49571D01*
X38935Y-49585D01*
X38950Y-49600D01*
X39092Y-49871D02*
X39150Y-49871D01*
X39178Y-49857D01*
X39192Y-49842D01*
X39221Y-49800D01*
X39235Y-49742D01*
X39235Y-49628D01*
X39221Y-49600D01*
X39207Y-49585D01*
X39178Y-49571D01*
X39121Y-49571D01*
X39092Y-49585D01*
X39078Y-49600D01*
X39064Y-49628D01*
X39064Y-49700D01*
X39078Y-49728D01*
X39092Y-49742D01*
X39121Y-49757D01*
X39178Y-49757D01*
X39207Y-49742D01*
X39221Y-49728D01*
X39235Y-49700D01*
X36307Y-41592D02*
X36292Y-41607D01*
X36250Y-41621D01*
X36221Y-41621D01*
X36178Y-41607D01*
X36150Y-41578D01*
X36135Y-41550D01*
X36121Y-41492D01*
X36121Y-41450D01*
X36135Y-41392D01*
X36150Y-41364D01*
X36178Y-41335D01*
X36221Y-41321D01*
X36250Y-41321D01*
X36292Y-41335D01*
X36307Y-41350D01*
X36407Y-41321D02*
X36592Y-41321D01*
X36492Y-41435D01*
X36535Y-41435D01*
X36564Y-41450D01*
X36578Y-41464D01*
X36592Y-41492D01*
X36592Y-41564D01*
X36578Y-41592D01*
X36564Y-41607D01*
X36535Y-41621D01*
X36450Y-41621D01*
X36421Y-41607D01*
X36407Y-41592D01*
X36735Y-41621D02*
X36792Y-41621D01*
X36821Y-41607D01*
X36835Y-41592D01*
X36864Y-41550D01*
X36878Y-41492D01*
X36878Y-41378D01*
X36864Y-41350D01*
X36850Y-41335D01*
X36821Y-41321D01*
X36764Y-41321D01*
X36735Y-41335D01*
X36721Y-41350D01*
X36707Y-41378D01*
X36707Y-41450D01*
X36721Y-41478D01*
X36735Y-41492D01*
X36764Y-41507D01*
X36821Y-41507D01*
X36850Y-41492D01*
X36864Y-41478D01*
X36878Y-41450D01*
X36257Y-39942D02*
X36242Y-39957D01*
X36200Y-39971D01*
X36171Y-39971D01*
X36128Y-39957D01*
X36100Y-39928D01*
X36085Y-39900D01*
X36071Y-39842D01*
X36071Y-39800D01*
X36085Y-39742D01*
X36100Y-39714D01*
X36128Y-39685D01*
X36171Y-39671D01*
X36200Y-39671D01*
X36242Y-39685D01*
X36257Y-39700D01*
X36514Y-39771D02*
X36514Y-39971D01*
X36442Y-39657D02*
X36371Y-39871D01*
X36557Y-39871D01*
X36828Y-39971D02*
X36657Y-39971D01*
X36742Y-39971D02*
X36742Y-39671D01*
X36714Y-39714D01*
X36685Y-39742D01*
X36657Y-39757D01*
X36257Y-35142D02*
X36242Y-35157D01*
X36200Y-35171D01*
X36171Y-35171D01*
X36128Y-35157D01*
X36100Y-35128D01*
X36085Y-35100D01*
X36071Y-35042D01*
X36071Y-35000D01*
X36085Y-34942D01*
X36100Y-34914D01*
X36128Y-34885D01*
X36171Y-34871D01*
X36200Y-34871D01*
X36242Y-34885D01*
X36257Y-34900D01*
X36514Y-34971D02*
X36514Y-35171D01*
X36442Y-34857D02*
X36371Y-35071D01*
X36557Y-35071D01*
X36657Y-34900D02*
X36671Y-34885D01*
X36700Y-34871D01*
X36771Y-34871D01*
X36800Y-34885D01*
X36814Y-34900D01*
X36828Y-34928D01*
X36828Y-34957D01*
X36814Y-35000D01*
X36642Y-35171D01*
X36828Y-35171D01*
X33350Y-49092D02*
X33335Y-49107D01*
X33292Y-49121D01*
X33264Y-49121D01*
X33221Y-49107D01*
X33192Y-49078D01*
X33178Y-49050D01*
X33164Y-48992D01*
X33164Y-48950D01*
X33178Y-48892D01*
X33192Y-48864D01*
X33221Y-48835D01*
X33264Y-48821D01*
X33292Y-48821D01*
X33335Y-48835D01*
X33350Y-48850D01*
X33607Y-48921D02*
X33607Y-49121D01*
X33535Y-48807D02*
X33464Y-49021D01*
X33650Y-49021D01*
X37778Y-46871D02*
X37778Y-46571D01*
X37850Y-46571D01*
X37892Y-46585D01*
X37921Y-46614D01*
X37935Y-46642D01*
X37950Y-46700D01*
X37950Y-46742D01*
X37935Y-46800D01*
X37921Y-46828D01*
X37892Y-46857D01*
X37850Y-46871D01*
X37778Y-46871D01*
X38064Y-46600D02*
X38078Y-46585D01*
X38107Y-46571D01*
X38178Y-46571D01*
X38207Y-46585D01*
X38221Y-46600D01*
X38235Y-46628D01*
X38235Y-46657D01*
X38221Y-46700D01*
X38050Y-46871D01*
X38235Y-46871D01*
X48378Y-36071D02*
X48378Y-36314D01*
X48392Y-36342D01*
X48407Y-36357D01*
X48435Y-36371D01*
X48492Y-36371D01*
X48521Y-36357D01*
X48535Y-36342D01*
X48550Y-36314D01*
X48550Y-36071D01*
X48850Y-36371D02*
X48678Y-36371D01*
X48764Y-36371D02*
X48764Y-36071D01*
X48735Y-36114D01*
X48707Y-36142D01*
X48678Y-36157D01*
X48950Y-36071D02*
X49150Y-36071D01*
X49021Y-36371D01*
X49021Y-48821D02*
X49021Y-49064D01*
X49035Y-49092D01*
X49050Y-49107D01*
X49078Y-49121D01*
X49135Y-49121D01*
X49164Y-49107D01*
X49178Y-49092D01*
X49192Y-49064D01*
X49192Y-48821D01*
X49478Y-48821D02*
X49335Y-48821D01*
X49321Y-48964D01*
X49335Y-48950D01*
X49364Y-48935D01*
X49435Y-48935D01*
X49464Y-48950D01*
X49478Y-48964D01*
X49492Y-48992D01*
X49492Y-49064D01*
X49478Y-49092D01*
X49464Y-49107D01*
X49435Y-49121D01*
X49364Y-49121D01*
X49335Y-49107D01*
X49321Y-49092D01*
M02*
