M48
;DRILL file {Pcbnew (2013-03-19 BZR 4004)-stable} date 2015/1/14 18:16:17
;FORMAT={-:-/ absolute / inch / decimal}
FMAT,2
INCH,TZ
T1C0.012
T2C0.013
T3C0.020
T4C0.024
T5C0.026
T6C0.039
T7C0.040
T8C0.126
%
G90
G05
M72
T1
X3.21Y-4.055
X3.2325Y-4.97
X3.47Y-5.1025
X3.5725Y-5.
X3.805Y-3.82
X3.81Y-3.7
X3.81Y-3.775
X3.835Y-3.58
X3.835Y-3.65
X3.835Y-3.97
X3.905Y-3.875
X3.9425Y-3.4775
X3.9525Y-3.245
X3.9725Y-3.4625
X4.0075Y-3.49
X4.01Y-3.455
X4.08Y-3.4975
X4.11Y-3.2925
X4.175Y-3.8
X4.2Y-3.705
X4.22Y-3.8925
X4.2225Y-3.6
X4.63Y-3.4325
X4.6675Y-4.195
X4.71Y-3.955
X4.82Y-4.77
T2
X3.4025Y-4.78
X3.455Y-4.495
X3.47Y-4.5325
X3.47Y-4.6025
X3.495Y-4.27
X3.51Y-4.5016
X3.525Y-4.37
X3.5325Y-4.3025
X3.5467Y-4.6056
X3.5467Y-4.7629
X3.57Y-3.2425
X3.5725Y-4.3025
X3.585Y-4.5
X3.6075Y-5.18
X3.61Y-4.31
X3.6175Y-4.985
X3.635Y-4.37
X3.635Y-4.535
X3.6375Y-3.2575
X3.6375Y-4.87
X3.6496Y-3.4794
X3.6496Y-3.8
X3.66Y-4.
X3.6625Y-4.1375
X3.6725Y-4.6075
X3.675Y-4.525
X3.685Y-3.615
X3.69Y-4.675
X3.69Y-4.7125
X3.69Y-4.75
X3.695Y-4.31
X3.705Y-3.87
X3.705Y-4.865
X3.725Y-4.7125
X3.725Y-4.75
X3.7275Y-4.675
X3.735Y-3.4575
X3.7375Y-3.3975
X3.7425Y-4.8575
X3.7475Y-4.5675
X3.75Y-3.5075
X3.75Y-4.525
X3.755Y-3.3
X3.7575Y-4.4225
X3.765Y-4.305
X3.785Y-4.5275
X3.785Y-4.565
X3.805Y-4.14
X3.825Y-4.6
X3.83Y-3.905
X3.8375Y-4.815
X3.8425Y-4.87
X3.879Y-3.5875
X3.8875Y-4.6575
X3.9125Y-4.5875
X3.9175Y-4.6225
X3.9175Y-4.72
X3.92Y-4.66
X3.9275Y-4.0975
X3.9375Y-5.1775
X3.94Y-3.59
X3.9525Y-5.0375
X3.965Y-3.74
X3.9666Y-4.9
X3.97Y-3.78
X3.98Y-3.65
X4.0075Y-4.005
X4.0334Y-4.9
X4.035Y-4.8575
X4.0475Y-5.0175
X4.0732Y-4.513
X4.0775Y-4.7375
X4.08Y-3.3675
X4.0847Y-3.85
X4.085Y-4.12
X4.11Y-4.915
X4.1275Y-3.65
X4.13Y-3.7825
X4.155Y-3.51
X4.1975Y-3.51
X4.2Y-4.0075
X4.235Y-3.305
X4.2425Y-3.5
X4.2525Y-3.4225
X4.26Y-4.66
X4.2637Y-3.3912
X4.27Y-3.61
X4.275Y-4.5225
X4.2763Y-4.1166
X4.28Y-3.5125
X4.31Y-3.8375
X4.315Y-3.725
X4.3686Y-3.825
X4.3725Y-4.515
X4.4225Y-4.2875
X4.4925Y-3.655
X4.4975Y-3.845
X4.528Y-3.82
X4.535Y-4.23
X4.5375Y-3.8525
X4.5375Y-4.0425
X4.558Y-4.554
X4.5825Y-4.295
X4.645Y-4.1525
X4.67Y-4.13
X4.7Y-3.71
X4.7625Y-3.2225
X4.77Y-4.5225
X4.7838Y-3.8375
X4.8075Y-4.53
X4.815Y-4.176
X4.8325Y-4.6325
X4.835Y-4.5875
T3
X3.4875Y-4.075
X3.5156Y-3.75
X3.5316Y-3.875
X3.535Y-3.5275
T5
X3.4346Y-3.326
X3.4346Y-3.376
X3.4346Y-3.426
X3.4346Y-3.476
X3.4346Y-3.526
X3.4346Y-3.576
X3.4346Y-3.626
X3.4346Y-3.676
X3.4346Y-3.726
X3.4346Y-3.776
X3.4346Y-3.826
X3.4346Y-3.876
X3.4346Y-3.926
X3.4346Y-3.976
X3.6873Y-4.264
X3.7373Y-4.264
X3.7873Y-4.264
X3.8373Y-4.264
X3.8873Y-4.264
X3.9373Y-4.264
X3.9873Y-4.264
X4.0373Y-4.264
X4.0873Y-4.264
X4.1373Y-4.264
X4.1873Y-4.264
X4.2373Y-4.264
X4.2873Y-4.264
X4.3373Y-4.264
X4.3723Y-3.329
X4.3723Y-3.379
X4.3723Y-3.429
X4.3723Y-3.479
X4.3723Y-3.529
X4.3723Y-3.579
X4.3723Y-3.629
X4.3723Y-3.679
X4.3723Y-3.729
X4.3723Y-3.779
X4.3723Y-3.829
X4.3723Y-3.879
X4.3723Y-3.929
X4.3723Y-3.979
X4.3723Y-4.029
X4.3723Y-4.079
X4.3723Y-4.129
X4.3723Y-4.179
X4.3723Y-4.229
T6
X4.3307Y-4.7638
X4.3307Y-4.8661
X4.4291Y-4.7638
X4.4291Y-4.8661
X4.5079Y-4.7638
X4.5079Y-4.8661
X4.6063Y-4.7638
X4.6063Y-4.8661
T7
X3.16Y-3.52
X3.16Y-3.62
X3.16Y-3.72
X3.16Y-3.82
X3.16Y-3.92
X3.16Y-4.02
X3.16Y-4.12
X3.16Y-4.22
X3.16Y-4.32
X3.16Y-4.42
X3.16Y-4.52
X3.16Y-4.62
X3.16Y-4.72
X3.16Y-4.82
X3.26Y-3.52
X3.26Y-3.62
X3.26Y-3.72
X3.26Y-3.82
X3.26Y-3.92
X3.26Y-4.02
X3.26Y-4.12
X3.26Y-4.22
X3.26Y-4.32
X3.26Y-4.42
X3.26Y-4.52
X3.26Y-4.62
X3.26Y-4.72
X3.26Y-4.82
X3.4Y-3.125
X3.5Y-3.125
X3.6Y-3.125
X3.7Y-3.125
X3.8Y-3.125
X3.9Y-3.125
X4.Y-3.125
X4.1Y-3.125
X4.2Y-3.125
X4.3Y-3.125
X4.4Y-3.125
X4.5Y-3.125
X4.6Y-3.125
X4.7Y-3.125
X4.8Y-3.125
X4.93Y-3.52
X4.93Y-3.62
X4.93Y-3.72
X4.93Y-3.82
X4.93Y-3.92
X4.93Y-4.02
X4.93Y-4.12
X4.93Y-4.22
X4.93Y-4.32
X4.93Y-4.42
X4.93Y-4.52
X4.93Y-4.62
X4.93Y-4.72
X4.93Y-4.82
X5.03Y-3.52
X5.03Y-3.62
X5.03Y-3.72
X5.03Y-3.82
X5.03Y-3.92
X5.03Y-4.02
X5.03Y-4.12
X5.03Y-4.22
X5.03Y-4.32
X5.03Y-4.42
X5.03Y-4.52
X5.03Y-4.62
X5.03Y-4.72
X5.03Y-4.82
T8
X3.2283Y-3.189
X3.2283Y-5.1575
X4.9606Y-3.189
X4.9606Y-5.1575
T4
X3.7819Y-5.2014G85X3.7819Y-5.2286
G05
X4.0181Y-5.2014G85X4.0181Y-5.2286
G05
T6
X4.2165Y-4.7697G85X4.2165Y-4.8287
G05
X4.7205Y-4.7697G85X4.7205Y-4.8287
G05
T0
M30
