G04 (created by PCBNEW (2013-07-07 BZR 4022)-stable) date 2015/3/10 10:19:11*
%MOIN*%
G04 Gerber Fmt 3.4, Leading zero omitted, Abs format*
%FSLAX34Y34*%
G01*
G70*
G90*
G04 APERTURE LIST*
%ADD10C,0.00590551*%
%ADD11C,0.004*%
%ADD12C,0.0026*%
%ADD13C,0.006*%
%ADD14C,0.008*%
%ADD15C,0.005*%
%ADD16C,0.0019685*%
%ADD17C,0.0079*%
%ADD18C,0.0001*%
G04 APERTURE END LIST*
G54D10*
G54D11*
X48798Y-37414D02*
X48807Y-37431D01*
X48807Y-37457D01*
X48798Y-37482D01*
X48781Y-37500D01*
X48764Y-37508D01*
X48730Y-37517D01*
X48704Y-37517D01*
X48670Y-37508D01*
X48652Y-37500D01*
X48635Y-37482D01*
X48627Y-37457D01*
X48627Y-37440D01*
X48635Y-37414D01*
X48644Y-37405D01*
X48704Y-37405D01*
X48704Y-37440D01*
X48747Y-37337D02*
X48747Y-37208D01*
X48824Y-37285D02*
X48592Y-37337D01*
X48670Y-37225D02*
X48670Y-37354D01*
X48592Y-37277D02*
X48824Y-37225D01*
X48627Y-37054D02*
X48627Y-37157D01*
X48627Y-37105D02*
X48807Y-37105D01*
X48781Y-37122D01*
X48764Y-37140D01*
X48755Y-37157D01*
X48807Y-36900D02*
X48807Y-36934D01*
X48798Y-36951D01*
X48790Y-36960D01*
X48764Y-36977D01*
X48730Y-36985D01*
X48661Y-36985D01*
X48644Y-36977D01*
X48635Y-36968D01*
X48627Y-36951D01*
X48627Y-36917D01*
X48635Y-36900D01*
X48644Y-36891D01*
X48661Y-36882D01*
X48704Y-36882D01*
X48721Y-36891D01*
X48730Y-36900D01*
X48738Y-36917D01*
X48738Y-36951D01*
X48730Y-36968D01*
X48721Y-36977D01*
X48704Y-36985D01*
X48798Y-38414D02*
X48807Y-38431D01*
X48807Y-38457D01*
X48798Y-38482D01*
X48781Y-38500D01*
X48764Y-38508D01*
X48730Y-38517D01*
X48704Y-38517D01*
X48670Y-38508D01*
X48652Y-38500D01*
X48635Y-38482D01*
X48627Y-38457D01*
X48627Y-38440D01*
X48635Y-38414D01*
X48644Y-38405D01*
X48704Y-38405D01*
X48704Y-38440D01*
X48747Y-38337D02*
X48747Y-38208D01*
X48824Y-38285D02*
X48592Y-38337D01*
X48670Y-38225D02*
X48670Y-38354D01*
X48592Y-38277D02*
X48824Y-38225D01*
X48627Y-38054D02*
X48627Y-38157D01*
X48627Y-38105D02*
X48807Y-38105D01*
X48781Y-38122D01*
X48764Y-38140D01*
X48755Y-38157D01*
X48807Y-37891D02*
X48807Y-37977D01*
X48721Y-37985D01*
X48730Y-37977D01*
X48738Y-37960D01*
X48738Y-37917D01*
X48730Y-37900D01*
X48721Y-37891D01*
X48704Y-37882D01*
X48661Y-37882D01*
X48644Y-37891D01*
X48635Y-37900D01*
X48627Y-37917D01*
X48627Y-37960D01*
X48635Y-37977D01*
X48644Y-37985D01*
X48498Y-38414D02*
X48507Y-38431D01*
X48507Y-38457D01*
X48498Y-38482D01*
X48481Y-38500D01*
X48464Y-38508D01*
X48430Y-38517D01*
X48404Y-38517D01*
X48370Y-38508D01*
X48352Y-38500D01*
X48335Y-38482D01*
X48327Y-38457D01*
X48327Y-38440D01*
X48335Y-38414D01*
X48344Y-38405D01*
X48404Y-38405D01*
X48404Y-38440D01*
X48447Y-38337D02*
X48447Y-38208D01*
X48524Y-38285D02*
X48292Y-38337D01*
X48370Y-38225D02*
X48370Y-38354D01*
X48292Y-38277D02*
X48524Y-38225D01*
X48507Y-38114D02*
X48507Y-38097D01*
X48498Y-38080D01*
X48490Y-38071D01*
X48472Y-38062D01*
X48438Y-38054D01*
X48395Y-38054D01*
X48361Y-38062D01*
X48344Y-38071D01*
X48335Y-38080D01*
X48327Y-38097D01*
X48327Y-38114D01*
X48335Y-38131D01*
X48344Y-38140D01*
X48361Y-38148D01*
X48395Y-38157D01*
X48438Y-38157D01*
X48472Y-38148D01*
X48490Y-38140D01*
X48498Y-38131D01*
X48507Y-38114D01*
X48507Y-37994D02*
X48507Y-37874D01*
X48327Y-37951D01*
X48498Y-37414D02*
X48507Y-37431D01*
X48507Y-37457D01*
X48498Y-37482D01*
X48481Y-37500D01*
X48464Y-37508D01*
X48430Y-37517D01*
X48404Y-37517D01*
X48370Y-37508D01*
X48352Y-37500D01*
X48335Y-37482D01*
X48327Y-37457D01*
X48327Y-37440D01*
X48335Y-37414D01*
X48344Y-37405D01*
X48404Y-37405D01*
X48404Y-37440D01*
X48447Y-37337D02*
X48447Y-37208D01*
X48524Y-37285D02*
X48292Y-37337D01*
X48370Y-37225D02*
X48370Y-37354D01*
X48292Y-37277D02*
X48524Y-37225D01*
X48507Y-37114D02*
X48507Y-37097D01*
X48498Y-37080D01*
X48490Y-37071D01*
X48472Y-37062D01*
X48438Y-37054D01*
X48395Y-37054D01*
X48361Y-37062D01*
X48344Y-37071D01*
X48335Y-37080D01*
X48327Y-37097D01*
X48327Y-37114D01*
X48335Y-37131D01*
X48344Y-37140D01*
X48361Y-37148D01*
X48395Y-37157D01*
X48438Y-37157D01*
X48472Y-37148D01*
X48490Y-37140D01*
X48498Y-37131D01*
X48507Y-37114D01*
X48430Y-36951D02*
X48438Y-36968D01*
X48447Y-36977D01*
X48464Y-36985D01*
X48472Y-36985D01*
X48490Y-36977D01*
X48498Y-36968D01*
X48507Y-36951D01*
X48507Y-36917D01*
X48498Y-36900D01*
X48490Y-36891D01*
X48472Y-36882D01*
X48464Y-36882D01*
X48447Y-36891D01*
X48438Y-36900D01*
X48430Y-36917D01*
X48430Y-36951D01*
X48421Y-36968D01*
X48412Y-36977D01*
X48395Y-36985D01*
X48361Y-36985D01*
X48344Y-36977D01*
X48335Y-36968D01*
X48327Y-36951D01*
X48327Y-36917D01*
X48335Y-36900D01*
X48344Y-36891D01*
X48361Y-36882D01*
X48395Y-36882D01*
X48412Y-36891D01*
X48421Y-36900D01*
X48430Y-36917D01*
X48798Y-36414D02*
X48807Y-36431D01*
X48807Y-36457D01*
X48798Y-36482D01*
X48781Y-36500D01*
X48764Y-36508D01*
X48730Y-36517D01*
X48704Y-36517D01*
X48670Y-36508D01*
X48652Y-36500D01*
X48635Y-36482D01*
X48627Y-36457D01*
X48627Y-36440D01*
X48635Y-36414D01*
X48644Y-36405D01*
X48704Y-36405D01*
X48704Y-36440D01*
X48747Y-36337D02*
X48747Y-36208D01*
X48824Y-36285D02*
X48592Y-36337D01*
X48670Y-36225D02*
X48670Y-36354D01*
X48592Y-36277D02*
X48824Y-36225D01*
X48807Y-36114D02*
X48807Y-36097D01*
X48798Y-36080D01*
X48790Y-36071D01*
X48772Y-36062D01*
X48738Y-36054D01*
X48695Y-36054D01*
X48661Y-36062D01*
X48644Y-36071D01*
X48635Y-36080D01*
X48627Y-36097D01*
X48627Y-36114D01*
X48635Y-36131D01*
X48644Y-36140D01*
X48661Y-36148D01*
X48695Y-36157D01*
X48738Y-36157D01*
X48772Y-36148D01*
X48790Y-36140D01*
X48798Y-36131D01*
X48807Y-36114D01*
X48807Y-35900D02*
X48807Y-35934D01*
X48798Y-35951D01*
X48790Y-35960D01*
X48764Y-35977D01*
X48730Y-35985D01*
X48661Y-35985D01*
X48644Y-35977D01*
X48635Y-35968D01*
X48627Y-35951D01*
X48627Y-35917D01*
X48635Y-35900D01*
X48644Y-35891D01*
X48661Y-35882D01*
X48704Y-35882D01*
X48721Y-35891D01*
X48730Y-35900D01*
X48738Y-35917D01*
X48738Y-35951D01*
X48730Y-35968D01*
X48721Y-35977D01*
X48704Y-35985D01*
X48498Y-36414D02*
X48507Y-36431D01*
X48507Y-36457D01*
X48498Y-36482D01*
X48481Y-36500D01*
X48464Y-36508D01*
X48430Y-36517D01*
X48404Y-36517D01*
X48370Y-36508D01*
X48352Y-36500D01*
X48335Y-36482D01*
X48327Y-36457D01*
X48327Y-36440D01*
X48335Y-36414D01*
X48344Y-36405D01*
X48404Y-36405D01*
X48404Y-36440D01*
X48447Y-36337D02*
X48447Y-36208D01*
X48524Y-36285D02*
X48292Y-36337D01*
X48370Y-36225D02*
X48370Y-36354D01*
X48292Y-36277D02*
X48524Y-36225D01*
X48327Y-36054D02*
X48327Y-36157D01*
X48327Y-36105D02*
X48507Y-36105D01*
X48481Y-36122D01*
X48464Y-36140D01*
X48455Y-36157D01*
X48507Y-35942D02*
X48507Y-35925D01*
X48498Y-35908D01*
X48490Y-35900D01*
X48472Y-35891D01*
X48438Y-35882D01*
X48395Y-35882D01*
X48361Y-35891D01*
X48344Y-35900D01*
X48335Y-35908D01*
X48327Y-35925D01*
X48327Y-35942D01*
X48335Y-35960D01*
X48344Y-35968D01*
X48361Y-35977D01*
X48395Y-35985D01*
X48438Y-35985D01*
X48472Y-35977D01*
X48490Y-35968D01*
X48498Y-35960D01*
X48507Y-35942D01*
X48798Y-35414D02*
X48807Y-35431D01*
X48807Y-35457D01*
X48798Y-35482D01*
X48781Y-35500D01*
X48764Y-35508D01*
X48730Y-35517D01*
X48704Y-35517D01*
X48670Y-35508D01*
X48652Y-35500D01*
X48635Y-35482D01*
X48627Y-35457D01*
X48627Y-35440D01*
X48635Y-35414D01*
X48644Y-35405D01*
X48704Y-35405D01*
X48704Y-35440D01*
X48747Y-35337D02*
X48747Y-35208D01*
X48824Y-35285D02*
X48592Y-35337D01*
X48670Y-35225D02*
X48670Y-35354D01*
X48592Y-35277D02*
X48824Y-35225D01*
X48627Y-35054D02*
X48627Y-35157D01*
X48627Y-35105D02*
X48807Y-35105D01*
X48781Y-35122D01*
X48764Y-35140D01*
X48755Y-35157D01*
X48627Y-34882D02*
X48627Y-34985D01*
X48627Y-34934D02*
X48807Y-34934D01*
X48781Y-34951D01*
X48764Y-34968D01*
X48755Y-34985D01*
X48498Y-35414D02*
X48507Y-35431D01*
X48507Y-35457D01*
X48498Y-35482D01*
X48481Y-35500D01*
X48464Y-35508D01*
X48430Y-35517D01*
X48404Y-35517D01*
X48370Y-35508D01*
X48352Y-35500D01*
X48335Y-35482D01*
X48327Y-35457D01*
X48327Y-35440D01*
X48335Y-35414D01*
X48344Y-35405D01*
X48404Y-35405D01*
X48404Y-35440D01*
X48447Y-35337D02*
X48447Y-35208D01*
X48524Y-35285D02*
X48292Y-35337D01*
X48370Y-35225D02*
X48370Y-35354D01*
X48292Y-35277D02*
X48524Y-35225D01*
X48507Y-35114D02*
X48507Y-35097D01*
X48498Y-35080D01*
X48490Y-35071D01*
X48472Y-35062D01*
X48438Y-35054D01*
X48395Y-35054D01*
X48361Y-35062D01*
X48344Y-35071D01*
X48335Y-35080D01*
X48327Y-35097D01*
X48327Y-35114D01*
X48335Y-35131D01*
X48344Y-35140D01*
X48361Y-35148D01*
X48395Y-35157D01*
X48438Y-35157D01*
X48472Y-35148D01*
X48490Y-35140D01*
X48498Y-35131D01*
X48507Y-35114D01*
X48507Y-34994D02*
X48507Y-34882D01*
X48438Y-34942D01*
X48438Y-34917D01*
X48430Y-34900D01*
X48421Y-34891D01*
X48404Y-34882D01*
X48361Y-34882D01*
X48344Y-34891D01*
X48335Y-34900D01*
X48327Y-34917D01*
X48327Y-34968D01*
X48335Y-34985D01*
X48344Y-34994D01*
X48798Y-39414D02*
X48807Y-39431D01*
X48807Y-39457D01*
X48798Y-39482D01*
X48781Y-39500D01*
X48764Y-39508D01*
X48730Y-39517D01*
X48704Y-39517D01*
X48670Y-39508D01*
X48652Y-39500D01*
X48635Y-39482D01*
X48627Y-39457D01*
X48627Y-39440D01*
X48635Y-39414D01*
X48644Y-39405D01*
X48704Y-39405D01*
X48704Y-39440D01*
X48747Y-39337D02*
X48747Y-39208D01*
X48824Y-39285D02*
X48592Y-39337D01*
X48670Y-39225D02*
X48670Y-39354D01*
X48592Y-39277D02*
X48824Y-39225D01*
X48627Y-39054D02*
X48627Y-39157D01*
X48627Y-39105D02*
X48807Y-39105D01*
X48781Y-39122D01*
X48764Y-39140D01*
X48755Y-39157D01*
X48807Y-38994D02*
X48807Y-38882D01*
X48738Y-38942D01*
X48738Y-38917D01*
X48730Y-38900D01*
X48721Y-38891D01*
X48704Y-38882D01*
X48661Y-38882D01*
X48644Y-38891D01*
X48635Y-38900D01*
X48627Y-38917D01*
X48627Y-38968D01*
X48635Y-38985D01*
X48644Y-38994D01*
X48498Y-39414D02*
X48507Y-39431D01*
X48507Y-39457D01*
X48498Y-39482D01*
X48481Y-39500D01*
X48464Y-39508D01*
X48430Y-39517D01*
X48404Y-39517D01*
X48370Y-39508D01*
X48352Y-39500D01*
X48335Y-39482D01*
X48327Y-39457D01*
X48327Y-39440D01*
X48335Y-39414D01*
X48344Y-39405D01*
X48404Y-39405D01*
X48404Y-39440D01*
X48447Y-39337D02*
X48447Y-39208D01*
X48524Y-39285D02*
X48292Y-39337D01*
X48370Y-39225D02*
X48370Y-39354D01*
X48292Y-39277D02*
X48524Y-39225D01*
X48327Y-39054D02*
X48327Y-39157D01*
X48327Y-39105D02*
X48507Y-39105D01*
X48481Y-39122D01*
X48464Y-39140D01*
X48455Y-39157D01*
X48447Y-38900D02*
X48327Y-38900D01*
X48515Y-38942D02*
X48387Y-38985D01*
X48387Y-38874D01*
X48695Y-40431D02*
X48695Y-40294D01*
X48627Y-40362D02*
X48764Y-40362D01*
X48807Y-40122D02*
X48807Y-40208D01*
X48721Y-40217D01*
X48730Y-40208D01*
X48738Y-40191D01*
X48738Y-40148D01*
X48730Y-40131D01*
X48721Y-40122D01*
X48704Y-40114D01*
X48661Y-40114D01*
X48644Y-40122D01*
X48635Y-40131D01*
X48627Y-40148D01*
X48627Y-40191D01*
X48635Y-40208D01*
X48644Y-40217D01*
X48807Y-40062D02*
X48627Y-40002D01*
X48807Y-39942D01*
X48498Y-48337D02*
X48507Y-48354D01*
X48507Y-48379D01*
X48498Y-48405D01*
X48481Y-48422D01*
X48464Y-48431D01*
X48430Y-48439D01*
X48404Y-48439D01*
X48370Y-48431D01*
X48352Y-48422D01*
X48335Y-48405D01*
X48327Y-48379D01*
X48327Y-48362D01*
X48335Y-48337D01*
X48344Y-48328D01*
X48404Y-48328D01*
X48404Y-48362D01*
X48327Y-48251D02*
X48507Y-48251D01*
X48327Y-48148D01*
X48507Y-48148D01*
X48327Y-48062D02*
X48507Y-48062D01*
X48507Y-48020D01*
X48498Y-47994D01*
X48481Y-47977D01*
X48464Y-47968D01*
X48430Y-47960D01*
X48404Y-47960D01*
X48370Y-47968D01*
X48352Y-47977D01*
X48335Y-47994D01*
X48327Y-48020D01*
X48327Y-48062D01*
X48395Y-40431D02*
X48395Y-40294D01*
X48327Y-40362D02*
X48464Y-40362D01*
X48507Y-40122D02*
X48507Y-40208D01*
X48421Y-40217D01*
X48430Y-40208D01*
X48438Y-40191D01*
X48438Y-40148D01*
X48430Y-40131D01*
X48421Y-40122D01*
X48404Y-40114D01*
X48361Y-40114D01*
X48344Y-40122D01*
X48335Y-40131D01*
X48327Y-40148D01*
X48327Y-40191D01*
X48335Y-40208D01*
X48344Y-40217D01*
X48507Y-40062D02*
X48327Y-40002D01*
X48507Y-39942D01*
X48798Y-48337D02*
X48807Y-48354D01*
X48807Y-48379D01*
X48798Y-48405D01*
X48781Y-48422D01*
X48764Y-48431D01*
X48730Y-48439D01*
X48704Y-48439D01*
X48670Y-48431D01*
X48652Y-48422D01*
X48635Y-48405D01*
X48627Y-48379D01*
X48627Y-48362D01*
X48635Y-48337D01*
X48644Y-48328D01*
X48704Y-48328D01*
X48704Y-48362D01*
X48627Y-48251D02*
X48807Y-48251D01*
X48627Y-48148D01*
X48807Y-48148D01*
X48627Y-48062D02*
X48807Y-48062D01*
X48807Y-48020D01*
X48798Y-47994D01*
X48781Y-47977D01*
X48764Y-47968D01*
X48730Y-47960D01*
X48704Y-47960D01*
X48670Y-47968D01*
X48652Y-47977D01*
X48635Y-47994D01*
X48627Y-48020D01*
X48627Y-48062D01*
X48695Y-47560D02*
X48695Y-47422D01*
X48627Y-47491D02*
X48764Y-47491D01*
X48807Y-47354D02*
X48807Y-47242D01*
X48738Y-47302D01*
X48738Y-47277D01*
X48730Y-47260D01*
X48721Y-47251D01*
X48704Y-47242D01*
X48661Y-47242D01*
X48644Y-47251D01*
X48635Y-47260D01*
X48627Y-47277D01*
X48627Y-47328D01*
X48635Y-47345D01*
X48644Y-47354D01*
X48644Y-47165D02*
X48635Y-47157D01*
X48627Y-47165D01*
X48635Y-47174D01*
X48644Y-47165D01*
X48627Y-47165D01*
X48807Y-47097D02*
X48807Y-46985D01*
X48738Y-47045D01*
X48738Y-47020D01*
X48730Y-47002D01*
X48721Y-46994D01*
X48704Y-46985D01*
X48661Y-46985D01*
X48644Y-46994D01*
X48635Y-47002D01*
X48627Y-47020D01*
X48627Y-47071D01*
X48635Y-47088D01*
X48644Y-47097D01*
X48807Y-46934D02*
X48627Y-46874D01*
X48807Y-46814D01*
X48378Y-47491D02*
X48378Y-47405D01*
X48327Y-47508D02*
X48507Y-47448D01*
X48327Y-47388D01*
X48327Y-47225D02*
X48412Y-47285D01*
X48327Y-47328D02*
X48507Y-47328D01*
X48507Y-47259D01*
X48498Y-47242D01*
X48490Y-47234D01*
X48472Y-47225D01*
X48447Y-47225D01*
X48430Y-47234D01*
X48421Y-47242D01*
X48412Y-47259D01*
X48412Y-47328D01*
X48421Y-47148D02*
X48421Y-47088D01*
X48327Y-47062D02*
X48327Y-47148D01*
X48507Y-47148D01*
X48507Y-47062D01*
X48421Y-46925D02*
X48421Y-46985D01*
X48327Y-46985D02*
X48507Y-46985D01*
X48507Y-46900D01*
X48798Y-46337D02*
X48807Y-46354D01*
X48807Y-46379D01*
X48798Y-46405D01*
X48781Y-46422D01*
X48764Y-46431D01*
X48730Y-46439D01*
X48704Y-46439D01*
X48670Y-46431D01*
X48652Y-46422D01*
X48635Y-46405D01*
X48627Y-46379D01*
X48627Y-46362D01*
X48635Y-46337D01*
X48644Y-46328D01*
X48704Y-46328D01*
X48704Y-46362D01*
X48627Y-46251D02*
X48807Y-46251D01*
X48627Y-46148D01*
X48807Y-46148D01*
X48627Y-46062D02*
X48807Y-46062D01*
X48807Y-46020D01*
X48798Y-45994D01*
X48781Y-45977D01*
X48764Y-45968D01*
X48730Y-45960D01*
X48704Y-45960D01*
X48670Y-45968D01*
X48652Y-45977D01*
X48635Y-45994D01*
X48627Y-46020D01*
X48627Y-46062D01*
X48327Y-46461D02*
X48412Y-46521D01*
X48327Y-46564D02*
X48507Y-46564D01*
X48507Y-46495D01*
X48498Y-46478D01*
X48490Y-46470D01*
X48472Y-46461D01*
X48447Y-46461D01*
X48430Y-46470D01*
X48421Y-46478D01*
X48412Y-46495D01*
X48412Y-46564D01*
X48421Y-46384D02*
X48421Y-46324D01*
X48327Y-46298D02*
X48327Y-46384D01*
X48507Y-46384D01*
X48507Y-46298D01*
X48335Y-46230D02*
X48327Y-46204D01*
X48327Y-46161D01*
X48335Y-46144D01*
X48344Y-46135D01*
X48361Y-46127D01*
X48378Y-46127D01*
X48395Y-46135D01*
X48404Y-46144D01*
X48412Y-46161D01*
X48421Y-46195D01*
X48430Y-46212D01*
X48438Y-46221D01*
X48455Y-46230D01*
X48472Y-46230D01*
X48490Y-46221D01*
X48498Y-46212D01*
X48507Y-46195D01*
X48507Y-46152D01*
X48498Y-46127D01*
X48421Y-46050D02*
X48421Y-45990D01*
X48327Y-45964D02*
X48327Y-46050D01*
X48507Y-46050D01*
X48507Y-45964D01*
X48507Y-45912D02*
X48507Y-45810D01*
X48327Y-45861D02*
X48507Y-45861D01*
X48627Y-45482D02*
X48807Y-45482D01*
X48678Y-45422D01*
X48807Y-45362D01*
X48627Y-45362D01*
X48807Y-45242D02*
X48807Y-45208D01*
X48798Y-45191D01*
X48781Y-45174D01*
X48747Y-45165D01*
X48687Y-45165D01*
X48652Y-45174D01*
X48635Y-45191D01*
X48627Y-45208D01*
X48627Y-45242D01*
X48635Y-45260D01*
X48652Y-45277D01*
X48687Y-45285D01*
X48747Y-45285D01*
X48781Y-45277D01*
X48798Y-45260D01*
X48807Y-45242D01*
X48635Y-45097D02*
X48627Y-45071D01*
X48627Y-45028D01*
X48635Y-45011D01*
X48644Y-45002D01*
X48661Y-44994D01*
X48678Y-44994D01*
X48695Y-45002D01*
X48704Y-45011D01*
X48712Y-45028D01*
X48721Y-45062D01*
X48730Y-45080D01*
X48738Y-45088D01*
X48755Y-45097D01*
X48772Y-45097D01*
X48790Y-45088D01*
X48798Y-45080D01*
X48807Y-45062D01*
X48807Y-45020D01*
X48798Y-44994D01*
X48627Y-44917D02*
X48807Y-44917D01*
X48335Y-45431D02*
X48327Y-45405D01*
X48327Y-45362D01*
X48335Y-45345D01*
X48344Y-45337D01*
X48361Y-45328D01*
X48378Y-45328D01*
X48395Y-45337D01*
X48404Y-45345D01*
X48412Y-45362D01*
X48421Y-45397D01*
X48430Y-45414D01*
X48438Y-45422D01*
X48455Y-45431D01*
X48472Y-45431D01*
X48490Y-45422D01*
X48498Y-45414D01*
X48507Y-45397D01*
X48507Y-45354D01*
X48498Y-45328D01*
X48344Y-45148D02*
X48335Y-45157D01*
X48327Y-45182D01*
X48327Y-45199D01*
X48335Y-45225D01*
X48352Y-45242D01*
X48370Y-45251D01*
X48404Y-45259D01*
X48430Y-45259D01*
X48464Y-45251D01*
X48481Y-45242D01*
X48498Y-45225D01*
X48507Y-45199D01*
X48507Y-45182D01*
X48498Y-45157D01*
X48490Y-45148D01*
X48327Y-45071D02*
X48507Y-45071D01*
X48327Y-44968D02*
X48430Y-45045D01*
X48507Y-44968D02*
X48404Y-45071D01*
X48327Y-44482D02*
X48507Y-44482D01*
X48378Y-44422D01*
X48507Y-44362D01*
X48327Y-44362D01*
X48327Y-44277D02*
X48507Y-44277D01*
X48335Y-44200D02*
X48327Y-44174D01*
X48327Y-44131D01*
X48335Y-44114D01*
X48344Y-44105D01*
X48361Y-44097D01*
X48378Y-44097D01*
X48395Y-44105D01*
X48404Y-44114D01*
X48412Y-44131D01*
X48421Y-44165D01*
X48430Y-44182D01*
X48438Y-44191D01*
X48455Y-44200D01*
X48472Y-44200D01*
X48490Y-44191D01*
X48498Y-44182D01*
X48507Y-44165D01*
X48507Y-44122D01*
X48498Y-44097D01*
X48507Y-43985D02*
X48507Y-43951D01*
X48498Y-43934D01*
X48481Y-43917D01*
X48447Y-43908D01*
X48387Y-43908D01*
X48352Y-43917D01*
X48335Y-43934D01*
X48327Y-43951D01*
X48327Y-43985D01*
X48335Y-44002D01*
X48352Y-44020D01*
X48387Y-44028D01*
X48447Y-44028D01*
X48481Y-44020D01*
X48498Y-44002D01*
X48507Y-43985D01*
X48695Y-44431D02*
X48695Y-44294D01*
X48627Y-44362D02*
X48764Y-44362D01*
X48807Y-44122D02*
X48807Y-44208D01*
X48721Y-44217D01*
X48730Y-44208D01*
X48738Y-44191D01*
X48738Y-44148D01*
X48730Y-44131D01*
X48721Y-44122D01*
X48704Y-44114D01*
X48661Y-44114D01*
X48644Y-44122D01*
X48635Y-44131D01*
X48627Y-44148D01*
X48627Y-44191D01*
X48635Y-44208D01*
X48644Y-44217D01*
X48807Y-44062D02*
X48627Y-44002D01*
X48807Y-43942D01*
X48378Y-43328D02*
X48378Y-43242D01*
X48327Y-43345D02*
X48507Y-43285D01*
X48327Y-43225D01*
X48447Y-43088D02*
X48327Y-43088D01*
X48515Y-43131D02*
X48387Y-43174D01*
X48387Y-43062D01*
X48678Y-43328D02*
X48678Y-43242D01*
X48627Y-43345D02*
X48807Y-43285D01*
X48627Y-43225D01*
X48807Y-43080D02*
X48807Y-43165D01*
X48721Y-43174D01*
X48730Y-43165D01*
X48738Y-43148D01*
X48738Y-43105D01*
X48730Y-43088D01*
X48721Y-43080D01*
X48704Y-43071D01*
X48661Y-43071D01*
X48644Y-43080D01*
X48635Y-43088D01*
X48627Y-43105D01*
X48627Y-43148D01*
X48635Y-43165D01*
X48644Y-43174D01*
X48378Y-42328D02*
X48378Y-42242D01*
X48327Y-42345D02*
X48507Y-42285D01*
X48327Y-42225D01*
X48490Y-42174D02*
X48498Y-42165D01*
X48507Y-42148D01*
X48507Y-42105D01*
X48498Y-42088D01*
X48490Y-42080D01*
X48472Y-42071D01*
X48455Y-42071D01*
X48430Y-42080D01*
X48327Y-42182D01*
X48327Y-42071D01*
X48678Y-42328D02*
X48678Y-42242D01*
X48627Y-42345D02*
X48807Y-42285D01*
X48627Y-42225D01*
X48807Y-42182D02*
X48807Y-42071D01*
X48738Y-42131D01*
X48738Y-42105D01*
X48730Y-42088D01*
X48721Y-42080D01*
X48704Y-42071D01*
X48661Y-42071D01*
X48644Y-42080D01*
X48635Y-42088D01*
X48627Y-42105D01*
X48627Y-42157D01*
X48635Y-42174D01*
X48644Y-42182D01*
X48678Y-41328D02*
X48678Y-41242D01*
X48627Y-41345D02*
X48807Y-41285D01*
X48627Y-41225D01*
X48627Y-41071D02*
X48627Y-41174D01*
X48627Y-41122D02*
X48807Y-41122D01*
X48781Y-41140D01*
X48764Y-41157D01*
X48755Y-41174D01*
X48378Y-41328D02*
X48378Y-41242D01*
X48327Y-41345D02*
X48507Y-41285D01*
X48327Y-41225D01*
X48507Y-41131D02*
X48507Y-41114D01*
X48498Y-41097D01*
X48490Y-41088D01*
X48472Y-41080D01*
X48438Y-41071D01*
X48395Y-41071D01*
X48361Y-41080D01*
X48344Y-41088D01*
X48335Y-41097D01*
X48327Y-41114D01*
X48327Y-41131D01*
X48335Y-41148D01*
X48344Y-41157D01*
X48361Y-41165D01*
X48395Y-41174D01*
X48438Y-41174D01*
X48472Y-41165D01*
X48490Y-41157D01*
X48498Y-41148D01*
X48507Y-41131D01*
X48152Y-31890D02*
X48171Y-31880D01*
X48200Y-31880D01*
X48228Y-31890D01*
X48247Y-31909D01*
X48257Y-31928D01*
X48266Y-31966D01*
X48266Y-31995D01*
X48257Y-32033D01*
X48247Y-32052D01*
X48228Y-32071D01*
X48200Y-32080D01*
X48180Y-32080D01*
X48152Y-32071D01*
X48142Y-32061D01*
X48142Y-31995D01*
X48180Y-31995D01*
X48057Y-32080D02*
X48057Y-31880D01*
X47942Y-32080D01*
X47942Y-31880D01*
X47847Y-32080D02*
X47847Y-31880D01*
X47800Y-31880D01*
X47771Y-31890D01*
X47752Y-31909D01*
X47742Y-31928D01*
X47733Y-31966D01*
X47733Y-31995D01*
X47742Y-32033D01*
X47752Y-32052D01*
X47771Y-32071D01*
X47800Y-32080D01*
X47847Y-32080D01*
X47400Y-32004D02*
X47247Y-32004D01*
X47323Y-32080D02*
X47323Y-31928D01*
X47047Y-32080D02*
X47161Y-32080D01*
X47104Y-32080D02*
X47104Y-31880D01*
X47123Y-31909D01*
X47142Y-31928D01*
X47161Y-31938D01*
X46961Y-32061D02*
X46952Y-32071D01*
X46961Y-32080D01*
X46971Y-32071D01*
X46961Y-32061D01*
X46961Y-32080D01*
X46838Y-31966D02*
X46857Y-31957D01*
X46866Y-31947D01*
X46876Y-31928D01*
X46876Y-31919D01*
X46866Y-31900D01*
X46857Y-31890D01*
X46838Y-31880D01*
X46800Y-31880D01*
X46780Y-31890D01*
X46771Y-31900D01*
X46761Y-31919D01*
X46761Y-31928D01*
X46771Y-31947D01*
X46780Y-31957D01*
X46800Y-31966D01*
X46838Y-31966D01*
X46857Y-31976D01*
X46866Y-31985D01*
X46876Y-32004D01*
X46876Y-32042D01*
X46866Y-32061D01*
X46857Y-32071D01*
X46838Y-32080D01*
X46800Y-32080D01*
X46780Y-32071D01*
X46771Y-32061D01*
X46761Y-32042D01*
X46761Y-32004D01*
X46771Y-31985D01*
X46780Y-31976D01*
X46800Y-31966D01*
X46704Y-31880D02*
X46638Y-32080D01*
X46571Y-31880D01*
X46338Y-32080D02*
X46338Y-31880D01*
X46261Y-31880D01*
X46242Y-31890D01*
X46233Y-31900D01*
X46223Y-31919D01*
X46223Y-31947D01*
X46233Y-31966D01*
X46242Y-31976D01*
X46261Y-31985D01*
X46338Y-31985D01*
X46100Y-31880D02*
X46061Y-31880D01*
X46042Y-31890D01*
X46023Y-31909D01*
X46014Y-31947D01*
X46014Y-32014D01*
X46023Y-32052D01*
X46042Y-32071D01*
X46061Y-32080D01*
X46100Y-32080D01*
X46119Y-32071D01*
X46138Y-32052D01*
X46147Y-32014D01*
X46147Y-31947D01*
X46138Y-31909D01*
X46119Y-31890D01*
X46100Y-31880D01*
X45957Y-31880D02*
X45842Y-31880D01*
X45900Y-32080D02*
X45900Y-31880D01*
X45776Y-32080D02*
X45776Y-31880D01*
X45661Y-32080D01*
X45661Y-31880D01*
X45323Y-32080D02*
X45323Y-31880D01*
X45247Y-31880D01*
X45228Y-31890D01*
X45219Y-31900D01*
X45209Y-31919D01*
X45209Y-31947D01*
X45219Y-31966D01*
X45228Y-31976D01*
X45247Y-31985D01*
X45323Y-31985D01*
X45085Y-31880D02*
X45066Y-31880D01*
X45047Y-31890D01*
X45038Y-31900D01*
X45028Y-31919D01*
X45019Y-31957D01*
X45019Y-32004D01*
X45028Y-32042D01*
X45038Y-32061D01*
X45047Y-32071D01*
X45066Y-32080D01*
X45085Y-32080D01*
X45104Y-32071D01*
X45114Y-32061D01*
X45123Y-32042D01*
X45133Y-32004D01*
X45133Y-31957D01*
X45123Y-31919D01*
X45114Y-31900D01*
X45104Y-31890D01*
X45085Y-31880D01*
X44961Y-31880D02*
X44847Y-31880D01*
X44904Y-32080D02*
X44904Y-31880D01*
X44780Y-32080D02*
X44780Y-31880D01*
X44704Y-31880D01*
X44685Y-31890D01*
X44676Y-31900D01*
X44666Y-31919D01*
X44666Y-31947D01*
X44676Y-31966D01*
X44685Y-31976D01*
X44704Y-31985D01*
X44780Y-31985D01*
X44347Y-32080D02*
X44347Y-31880D01*
X44271Y-31880D01*
X44252Y-31890D01*
X44242Y-31900D01*
X44233Y-31919D01*
X44233Y-31947D01*
X44242Y-31966D01*
X44252Y-31976D01*
X44271Y-31985D01*
X44347Y-31985D01*
X44109Y-31880D02*
X44090Y-31880D01*
X44071Y-31890D01*
X44061Y-31900D01*
X44052Y-31919D01*
X44042Y-31957D01*
X44042Y-32004D01*
X44052Y-32042D01*
X44061Y-32061D01*
X44071Y-32071D01*
X44090Y-32080D01*
X44109Y-32080D01*
X44128Y-32071D01*
X44138Y-32061D01*
X44147Y-32042D01*
X44157Y-32004D01*
X44157Y-31957D01*
X44147Y-31919D01*
X44138Y-31900D01*
X44128Y-31890D01*
X44109Y-31880D01*
X43842Y-32080D02*
X43909Y-31985D01*
X43957Y-32080D02*
X43957Y-31880D01*
X43880Y-31880D01*
X43861Y-31890D01*
X43852Y-31900D01*
X43842Y-31919D01*
X43842Y-31947D01*
X43852Y-31966D01*
X43861Y-31976D01*
X43880Y-31985D01*
X43957Y-31985D01*
X43757Y-32080D02*
X43757Y-31880D01*
X43680Y-31880D01*
X43661Y-31890D01*
X43652Y-31900D01*
X43642Y-31919D01*
X43642Y-31947D01*
X43652Y-31966D01*
X43661Y-31976D01*
X43680Y-31985D01*
X43757Y-31985D01*
X43352Y-32080D02*
X43352Y-31880D01*
X43276Y-31880D01*
X43257Y-31890D01*
X43247Y-31900D01*
X43238Y-31919D01*
X43238Y-31947D01*
X43247Y-31966D01*
X43257Y-31976D01*
X43276Y-31985D01*
X43352Y-31985D01*
X43114Y-31880D02*
X43095Y-31880D01*
X43076Y-31890D01*
X43066Y-31900D01*
X43057Y-31919D01*
X43047Y-31957D01*
X43047Y-32004D01*
X43057Y-32042D01*
X43066Y-32061D01*
X43076Y-32071D01*
X43095Y-32080D01*
X43114Y-32080D01*
X43133Y-32071D01*
X43142Y-32061D01*
X43152Y-32042D01*
X43161Y-32004D01*
X43161Y-31957D01*
X43152Y-31919D01*
X43142Y-31900D01*
X43133Y-31890D01*
X43114Y-31880D01*
X42847Y-32080D02*
X42914Y-31985D01*
X42961Y-32080D02*
X42961Y-31880D01*
X42885Y-31880D01*
X42866Y-31890D01*
X42857Y-31900D01*
X42847Y-31919D01*
X42847Y-31947D01*
X42857Y-31966D01*
X42866Y-31976D01*
X42885Y-31985D01*
X42961Y-31985D01*
X42761Y-32080D02*
X42761Y-31880D01*
X42647Y-32080D01*
X42647Y-31880D01*
X42328Y-32080D02*
X42328Y-31880D01*
X42252Y-31880D01*
X42233Y-31890D01*
X42223Y-31900D01*
X42214Y-31919D01*
X42214Y-31947D01*
X42223Y-31966D01*
X42233Y-31976D01*
X42252Y-31985D01*
X42328Y-31985D01*
X42042Y-31947D02*
X42042Y-32080D01*
X42090Y-31871D02*
X42138Y-32014D01*
X42014Y-32014D01*
X41966Y-31880D02*
X41852Y-31880D01*
X41909Y-32080D02*
X41909Y-31880D01*
X41785Y-32080D02*
X41785Y-31880D01*
X41671Y-32080D01*
X41671Y-31880D01*
X41298Y-32080D02*
X41298Y-31880D01*
X41222Y-31880D01*
X41203Y-31890D01*
X41194Y-31900D01*
X41184Y-31919D01*
X41184Y-31947D01*
X41194Y-31966D01*
X41203Y-31976D01*
X41222Y-31985D01*
X41298Y-31985D01*
X41013Y-31947D02*
X41013Y-32080D01*
X41060Y-31871D02*
X41108Y-32014D01*
X40984Y-32014D01*
X40936Y-31880D02*
X40822Y-31880D01*
X40879Y-32080D02*
X40879Y-31880D01*
X40755Y-32080D02*
X40755Y-31880D01*
X40679Y-31880D01*
X40660Y-31890D01*
X40651Y-31900D01*
X40641Y-31919D01*
X40641Y-31947D01*
X40651Y-31966D01*
X40660Y-31976D01*
X40679Y-31985D01*
X40755Y-31985D01*
X40347Y-32080D02*
X40347Y-31880D01*
X40271Y-31880D01*
X40252Y-31890D01*
X40242Y-31900D01*
X40233Y-31919D01*
X40233Y-31947D01*
X40242Y-31966D01*
X40252Y-31976D01*
X40271Y-31985D01*
X40347Y-31985D01*
X40061Y-31947D02*
X40061Y-32080D01*
X40109Y-31871D02*
X40157Y-32014D01*
X40033Y-32014D01*
X39842Y-32080D02*
X39909Y-31985D01*
X39957Y-32080D02*
X39957Y-31880D01*
X39880Y-31880D01*
X39861Y-31890D01*
X39852Y-31900D01*
X39842Y-31919D01*
X39842Y-31947D01*
X39852Y-31966D01*
X39861Y-31976D01*
X39880Y-31985D01*
X39957Y-31985D01*
X39757Y-32080D02*
X39757Y-31880D01*
X39680Y-31880D01*
X39661Y-31890D01*
X39652Y-31900D01*
X39642Y-31919D01*
X39642Y-31947D01*
X39652Y-31966D01*
X39661Y-31976D01*
X39680Y-31985D01*
X39757Y-31985D01*
X39352Y-32080D02*
X39352Y-31880D01*
X39276Y-31880D01*
X39257Y-31890D01*
X39247Y-31900D01*
X39238Y-31919D01*
X39238Y-31947D01*
X39247Y-31966D01*
X39257Y-31976D01*
X39276Y-31985D01*
X39352Y-31985D01*
X39066Y-31947D02*
X39066Y-32080D01*
X39114Y-31871D02*
X39161Y-32014D01*
X39038Y-32014D01*
X38847Y-32080D02*
X38914Y-31985D01*
X38961Y-32080D02*
X38961Y-31880D01*
X38885Y-31880D01*
X38866Y-31890D01*
X38857Y-31900D01*
X38847Y-31919D01*
X38847Y-31947D01*
X38857Y-31966D01*
X38866Y-31976D01*
X38885Y-31985D01*
X38961Y-31985D01*
X38761Y-32080D02*
X38761Y-31880D01*
X38647Y-32080D01*
X38647Y-31880D01*
X38400Y-32004D02*
X38247Y-32004D01*
X38323Y-32080D02*
X38323Y-31928D01*
X38047Y-32080D02*
X38161Y-32080D01*
X38104Y-32080D02*
X38104Y-31880D01*
X38123Y-31909D01*
X38142Y-31928D01*
X38161Y-31938D01*
X37961Y-32061D02*
X37952Y-32071D01*
X37961Y-32080D01*
X37971Y-32071D01*
X37961Y-32061D01*
X37961Y-32080D01*
X37838Y-31966D02*
X37857Y-31957D01*
X37866Y-31947D01*
X37876Y-31928D01*
X37876Y-31919D01*
X37866Y-31900D01*
X37857Y-31890D01*
X37838Y-31880D01*
X37800Y-31880D01*
X37780Y-31890D01*
X37771Y-31900D01*
X37761Y-31919D01*
X37761Y-31928D01*
X37771Y-31947D01*
X37780Y-31957D01*
X37800Y-31966D01*
X37838Y-31966D01*
X37857Y-31976D01*
X37866Y-31985D01*
X37876Y-32004D01*
X37876Y-32042D01*
X37866Y-32061D01*
X37857Y-32071D01*
X37838Y-32080D01*
X37800Y-32080D01*
X37780Y-32071D01*
X37771Y-32061D01*
X37761Y-32042D01*
X37761Y-32004D01*
X37771Y-31985D01*
X37780Y-31976D01*
X37800Y-31966D01*
X37704Y-31880D02*
X37638Y-32080D01*
X37571Y-31880D01*
X37152Y-31890D02*
X37171Y-31880D01*
X37200Y-31880D01*
X37228Y-31890D01*
X37247Y-31909D01*
X37257Y-31928D01*
X37266Y-31966D01*
X37266Y-31995D01*
X37257Y-32033D01*
X37247Y-32052D01*
X37228Y-32071D01*
X37200Y-32080D01*
X37180Y-32080D01*
X37152Y-32071D01*
X37142Y-32061D01*
X37142Y-31995D01*
X37180Y-31995D01*
X37057Y-32080D02*
X37057Y-31880D01*
X36942Y-32080D01*
X36942Y-31880D01*
X36847Y-32080D02*
X36847Y-31880D01*
X36800Y-31880D01*
X36771Y-31890D01*
X36752Y-31909D01*
X36742Y-31928D01*
X36733Y-31966D01*
X36733Y-31995D01*
X36742Y-32033D01*
X36752Y-32052D01*
X36771Y-32071D01*
X36800Y-32080D01*
X36847Y-32080D01*
X34247Y-32080D02*
X34247Y-31880D01*
X34200Y-31880D01*
X34171Y-31890D01*
X34152Y-31909D01*
X34142Y-31928D01*
X34133Y-31966D01*
X34133Y-31995D01*
X34142Y-32033D01*
X34152Y-32052D01*
X34171Y-32071D01*
X34200Y-32080D01*
X34247Y-32080D01*
X34047Y-32080D02*
X34047Y-31880D01*
X33971Y-31880D01*
X33952Y-31890D01*
X33942Y-31900D01*
X33933Y-31919D01*
X33933Y-31947D01*
X33942Y-31966D01*
X33952Y-31976D01*
X33971Y-31985D01*
X34047Y-31985D01*
X33857Y-31900D02*
X33847Y-31890D01*
X33828Y-31880D01*
X33780Y-31880D01*
X33761Y-31890D01*
X33752Y-31900D01*
X33742Y-31919D01*
X33742Y-31938D01*
X33752Y-31966D01*
X33866Y-32080D01*
X33742Y-32080D01*
X35261Y-32080D02*
X35261Y-31880D01*
X35214Y-31880D01*
X35185Y-31890D01*
X35166Y-31909D01*
X35157Y-31928D01*
X35147Y-31966D01*
X35147Y-31995D01*
X35157Y-32033D01*
X35166Y-32052D01*
X35185Y-32071D01*
X35214Y-32080D01*
X35261Y-32080D01*
X35061Y-32080D02*
X35061Y-31880D01*
X34995Y-32023D01*
X34928Y-31880D01*
X34928Y-32080D01*
X34842Y-31900D02*
X34833Y-31890D01*
X34814Y-31880D01*
X34766Y-31880D01*
X34747Y-31890D01*
X34738Y-31900D01*
X34728Y-31919D01*
X34728Y-31938D01*
X34738Y-31966D01*
X34852Y-32080D01*
X34728Y-32080D01*
X36366Y-31855D02*
X36300Y-32055D01*
X36233Y-31855D01*
X36099Y-31951D02*
X36071Y-31960D01*
X36061Y-31970D01*
X36052Y-31989D01*
X36052Y-32017D01*
X36061Y-32036D01*
X36071Y-32046D01*
X36090Y-32055D01*
X36166Y-32055D01*
X36166Y-31855D01*
X36099Y-31855D01*
X36080Y-31865D01*
X36071Y-31875D01*
X36061Y-31894D01*
X36061Y-31913D01*
X36071Y-31932D01*
X36080Y-31941D01*
X36099Y-31951D01*
X36166Y-31951D01*
X35966Y-31855D02*
X35966Y-32017D01*
X35957Y-32036D01*
X35947Y-32046D01*
X35928Y-32055D01*
X35890Y-32055D01*
X35871Y-32046D01*
X35861Y-32036D01*
X35852Y-32017D01*
X35852Y-31855D01*
X35766Y-32046D02*
X35738Y-32055D01*
X35690Y-32055D01*
X35671Y-32046D01*
X35661Y-32036D01*
X35652Y-32017D01*
X35652Y-31998D01*
X35661Y-31979D01*
X35671Y-31970D01*
X35690Y-31960D01*
X35728Y-31951D01*
X35747Y-31941D01*
X35757Y-31932D01*
X35766Y-31913D01*
X35766Y-31894D01*
X35757Y-31875D01*
X35747Y-31865D01*
X35728Y-31855D01*
X35680Y-31855D01*
X35652Y-31865D01*
X33152Y-41972D02*
X33152Y-42101D01*
X33075Y-42024D02*
X33307Y-41972D01*
X33230Y-42084D02*
X33230Y-41955D01*
X33307Y-42032D02*
X33075Y-42084D01*
X33272Y-42255D02*
X33272Y-42152D01*
X33272Y-42204D02*
X33092Y-42204D01*
X33118Y-42187D01*
X33135Y-42170D01*
X33144Y-42152D01*
X33092Y-42315D02*
X33092Y-42427D01*
X33161Y-42367D01*
X33161Y-42392D01*
X33170Y-42410D01*
X33178Y-42418D01*
X33195Y-42427D01*
X33238Y-42427D01*
X33255Y-42418D01*
X33264Y-42410D01*
X33272Y-42392D01*
X33272Y-42341D01*
X33264Y-42324D01*
X33255Y-42315D01*
X33572Y-42165D02*
X33572Y-42062D01*
X33572Y-42114D02*
X33392Y-42114D01*
X33418Y-42097D01*
X33435Y-42080D01*
X33444Y-42062D01*
X33410Y-42234D02*
X33401Y-42242D01*
X33392Y-42260D01*
X33392Y-42302D01*
X33401Y-42320D01*
X33410Y-42328D01*
X33427Y-42337D01*
X33444Y-42337D01*
X33470Y-42328D01*
X33572Y-42225D01*
X33572Y-42337D01*
X33152Y-42972D02*
X33152Y-43101D01*
X33075Y-43024D02*
X33307Y-42972D01*
X33230Y-43084D02*
X33230Y-42955D01*
X33307Y-43032D02*
X33075Y-43084D01*
X33272Y-43255D02*
X33272Y-43152D01*
X33272Y-43204D02*
X33092Y-43204D01*
X33118Y-43187D01*
X33135Y-43170D01*
X33144Y-43152D01*
X33272Y-43427D02*
X33272Y-43324D01*
X33272Y-43375D02*
X33092Y-43375D01*
X33118Y-43358D01*
X33135Y-43341D01*
X33144Y-43324D01*
X33452Y-42972D02*
X33452Y-43101D01*
X33375Y-43024D02*
X33607Y-42972D01*
X33530Y-43084D02*
X33530Y-42955D01*
X33607Y-43032D02*
X33375Y-43084D01*
X33572Y-43255D02*
X33572Y-43152D01*
X33572Y-43204D02*
X33392Y-43204D01*
X33418Y-43187D01*
X33435Y-43170D01*
X33444Y-43152D01*
X33392Y-43367D02*
X33392Y-43384D01*
X33401Y-43401D01*
X33410Y-43410D01*
X33427Y-43418D01*
X33461Y-43427D01*
X33504Y-43427D01*
X33538Y-43418D01*
X33555Y-43410D01*
X33564Y-43401D01*
X33572Y-43384D01*
X33572Y-43367D01*
X33564Y-43350D01*
X33555Y-43341D01*
X33538Y-43332D01*
X33504Y-43324D01*
X33461Y-43324D01*
X33427Y-43332D01*
X33410Y-43341D01*
X33401Y-43350D01*
X33392Y-43367D01*
X33152Y-44058D02*
X33152Y-44187D01*
X33075Y-44110D02*
X33307Y-44058D01*
X33230Y-44170D02*
X33230Y-44041D01*
X33307Y-44118D02*
X33075Y-44170D01*
X33272Y-44255D02*
X33272Y-44290D01*
X33264Y-44307D01*
X33255Y-44315D01*
X33230Y-44332D01*
X33195Y-44341D01*
X33127Y-44341D01*
X33110Y-44332D01*
X33101Y-44324D01*
X33092Y-44307D01*
X33092Y-44272D01*
X33101Y-44255D01*
X33110Y-44247D01*
X33127Y-44238D01*
X33170Y-44238D01*
X33187Y-44247D01*
X33195Y-44255D01*
X33204Y-44272D01*
X33204Y-44307D01*
X33195Y-44324D01*
X33187Y-44332D01*
X33170Y-44341D01*
X33470Y-44182D02*
X33461Y-44165D01*
X33452Y-44157D01*
X33435Y-44148D01*
X33427Y-44148D01*
X33410Y-44157D01*
X33401Y-44165D01*
X33392Y-44182D01*
X33392Y-44217D01*
X33401Y-44234D01*
X33410Y-44242D01*
X33427Y-44251D01*
X33435Y-44251D01*
X33452Y-44242D01*
X33461Y-44234D01*
X33470Y-44217D01*
X33470Y-44182D01*
X33478Y-44165D01*
X33487Y-44157D01*
X33504Y-44148D01*
X33538Y-44148D01*
X33555Y-44157D01*
X33564Y-44165D01*
X33572Y-44182D01*
X33572Y-44217D01*
X33564Y-44234D01*
X33555Y-44242D01*
X33538Y-44251D01*
X33504Y-44251D01*
X33487Y-44242D01*
X33478Y-44234D01*
X33470Y-44217D01*
X33092Y-45140D02*
X33092Y-45260D01*
X33272Y-45182D01*
X33452Y-45058D02*
X33452Y-45187D01*
X33375Y-45110D02*
X33607Y-45058D01*
X33530Y-45170D02*
X33530Y-45041D01*
X33607Y-45118D02*
X33375Y-45170D01*
X33392Y-45324D02*
X33392Y-45290D01*
X33401Y-45272D01*
X33410Y-45264D01*
X33435Y-45247D01*
X33470Y-45238D01*
X33538Y-45238D01*
X33555Y-45247D01*
X33564Y-45255D01*
X33572Y-45272D01*
X33572Y-45307D01*
X33564Y-45324D01*
X33555Y-45332D01*
X33538Y-45341D01*
X33495Y-45341D01*
X33478Y-45332D01*
X33470Y-45324D01*
X33461Y-45307D01*
X33461Y-45272D01*
X33470Y-45255D01*
X33478Y-45247D01*
X33495Y-45238D01*
X33152Y-46058D02*
X33152Y-46187D01*
X33075Y-46110D02*
X33307Y-46058D01*
X33230Y-46170D02*
X33230Y-46041D01*
X33307Y-46118D02*
X33075Y-46170D01*
X33092Y-46332D02*
X33092Y-46247D01*
X33178Y-46238D01*
X33170Y-46247D01*
X33161Y-46264D01*
X33161Y-46307D01*
X33170Y-46324D01*
X33178Y-46332D01*
X33195Y-46341D01*
X33238Y-46341D01*
X33255Y-46332D01*
X33264Y-46324D01*
X33272Y-46307D01*
X33272Y-46264D01*
X33264Y-46247D01*
X33255Y-46238D01*
X33452Y-46234D02*
X33572Y-46234D01*
X33384Y-46191D02*
X33512Y-46148D01*
X33512Y-46260D01*
X33264Y-46985D02*
X33272Y-47011D01*
X33272Y-47054D01*
X33264Y-47071D01*
X33255Y-47080D01*
X33238Y-47088D01*
X33221Y-47088D01*
X33204Y-47080D01*
X33195Y-47071D01*
X33187Y-47054D01*
X33178Y-47020D01*
X33170Y-47002D01*
X33161Y-46994D01*
X33144Y-46985D01*
X33127Y-46985D01*
X33110Y-46994D01*
X33101Y-47002D01*
X33092Y-47020D01*
X33092Y-47062D01*
X33101Y-47088D01*
X33255Y-47268D02*
X33264Y-47260D01*
X33272Y-47234D01*
X33272Y-47217D01*
X33264Y-47191D01*
X33247Y-47174D01*
X33230Y-47165D01*
X33195Y-47157D01*
X33170Y-47157D01*
X33135Y-47165D01*
X33118Y-47174D01*
X33101Y-47191D01*
X33092Y-47217D01*
X33092Y-47234D01*
X33101Y-47260D01*
X33110Y-47268D01*
X33272Y-47431D02*
X33272Y-47345D01*
X33092Y-47345D01*
X33564Y-46981D02*
X33572Y-47007D01*
X33572Y-47050D01*
X33564Y-47067D01*
X33555Y-47075D01*
X33538Y-47084D01*
X33521Y-47084D01*
X33504Y-47075D01*
X33495Y-47067D01*
X33487Y-47050D01*
X33478Y-47015D01*
X33470Y-46998D01*
X33461Y-46990D01*
X33444Y-46981D01*
X33427Y-46981D01*
X33410Y-46990D01*
X33401Y-46998D01*
X33392Y-47015D01*
X33392Y-47058D01*
X33401Y-47084D01*
X33572Y-47161D02*
X33392Y-47161D01*
X33392Y-47204D01*
X33401Y-47230D01*
X33418Y-47247D01*
X33435Y-47255D01*
X33470Y-47264D01*
X33495Y-47264D01*
X33530Y-47255D01*
X33547Y-47247D01*
X33564Y-47230D01*
X33572Y-47204D01*
X33572Y-47161D01*
X33521Y-47332D02*
X33521Y-47418D01*
X33572Y-47315D02*
X33392Y-47375D01*
X33572Y-47435D01*
X33092Y-48062D02*
X33092Y-48165D01*
X33272Y-48114D02*
X33092Y-48114D01*
X33092Y-48208D02*
X33272Y-48328D01*
X33092Y-48328D02*
X33272Y-48208D01*
X33572Y-48170D02*
X33487Y-48110D01*
X33572Y-48067D02*
X33392Y-48067D01*
X33392Y-48135D01*
X33401Y-48152D01*
X33410Y-48161D01*
X33427Y-48170D01*
X33452Y-48170D01*
X33470Y-48161D01*
X33478Y-48152D01*
X33487Y-48135D01*
X33487Y-48067D01*
X33392Y-48230D02*
X33572Y-48350D01*
X33392Y-48350D02*
X33572Y-48230D01*
X33076Y-38985D02*
X33067Y-38968D01*
X33067Y-38942D01*
X33076Y-38917D01*
X33093Y-38900D01*
X33110Y-38891D01*
X33145Y-38882D01*
X33170Y-38882D01*
X33205Y-38891D01*
X33222Y-38900D01*
X33239Y-38917D01*
X33247Y-38942D01*
X33247Y-38960D01*
X33239Y-38985D01*
X33230Y-38994D01*
X33170Y-38994D01*
X33170Y-38960D01*
X33127Y-39062D02*
X33127Y-39191D01*
X33050Y-39114D02*
X33282Y-39062D01*
X33205Y-39174D02*
X33205Y-39045D01*
X33282Y-39122D02*
X33050Y-39174D01*
X33085Y-39242D02*
X33076Y-39251D01*
X33067Y-39268D01*
X33067Y-39311D01*
X33076Y-39328D01*
X33085Y-39337D01*
X33102Y-39345D01*
X33119Y-39345D01*
X33145Y-39337D01*
X33247Y-39234D01*
X33247Y-39345D01*
X33067Y-39405D02*
X33067Y-39525D01*
X33247Y-39448D01*
X33101Y-41062D02*
X33092Y-41045D01*
X33092Y-41020D01*
X33101Y-40994D01*
X33118Y-40977D01*
X33135Y-40968D01*
X33170Y-40960D01*
X33195Y-40960D01*
X33230Y-40968D01*
X33247Y-40977D01*
X33264Y-40994D01*
X33272Y-41020D01*
X33272Y-41037D01*
X33264Y-41062D01*
X33255Y-41071D01*
X33195Y-41071D01*
X33195Y-41037D01*
X33272Y-41148D02*
X33092Y-41148D01*
X33272Y-41251D01*
X33092Y-41251D01*
X33272Y-41337D02*
X33092Y-41337D01*
X33092Y-41380D01*
X33101Y-41405D01*
X33118Y-41422D01*
X33135Y-41431D01*
X33170Y-41440D01*
X33195Y-41440D01*
X33230Y-41431D01*
X33247Y-41422D01*
X33264Y-41405D01*
X33272Y-41380D01*
X33272Y-41337D01*
X33076Y-39985D02*
X33067Y-39968D01*
X33067Y-39942D01*
X33076Y-39917D01*
X33093Y-39900D01*
X33110Y-39891D01*
X33145Y-39882D01*
X33170Y-39882D01*
X33205Y-39891D01*
X33222Y-39900D01*
X33239Y-39917D01*
X33247Y-39942D01*
X33247Y-39960D01*
X33239Y-39985D01*
X33230Y-39994D01*
X33170Y-39994D01*
X33170Y-39960D01*
X33127Y-40062D02*
X33127Y-40191D01*
X33050Y-40114D02*
X33282Y-40062D01*
X33205Y-40174D02*
X33205Y-40045D01*
X33282Y-40122D02*
X33050Y-40174D01*
X33067Y-40285D02*
X33067Y-40302D01*
X33076Y-40320D01*
X33085Y-40328D01*
X33102Y-40337D01*
X33136Y-40345D01*
X33179Y-40345D01*
X33213Y-40337D01*
X33230Y-40328D01*
X33239Y-40320D01*
X33247Y-40302D01*
X33247Y-40285D01*
X33239Y-40268D01*
X33230Y-40260D01*
X33213Y-40251D01*
X33179Y-40242D01*
X33136Y-40242D01*
X33102Y-40251D01*
X33085Y-40260D01*
X33076Y-40268D01*
X33067Y-40285D01*
X33127Y-40500D02*
X33247Y-40500D01*
X33059Y-40457D02*
X33187Y-40414D01*
X33187Y-40525D01*
X33401Y-38985D02*
X33392Y-38968D01*
X33392Y-38942D01*
X33401Y-38917D01*
X33418Y-38900D01*
X33435Y-38891D01*
X33470Y-38882D01*
X33495Y-38882D01*
X33530Y-38891D01*
X33547Y-38900D01*
X33564Y-38917D01*
X33572Y-38942D01*
X33572Y-38960D01*
X33564Y-38985D01*
X33555Y-38994D01*
X33495Y-38994D01*
X33495Y-38960D01*
X33452Y-39062D02*
X33452Y-39191D01*
X33375Y-39114D02*
X33607Y-39062D01*
X33530Y-39174D02*
X33530Y-39045D01*
X33607Y-39122D02*
X33375Y-39174D01*
X33392Y-39285D02*
X33392Y-39302D01*
X33401Y-39320D01*
X33410Y-39328D01*
X33427Y-39337D01*
X33461Y-39345D01*
X33504Y-39345D01*
X33538Y-39337D01*
X33555Y-39328D01*
X33564Y-39320D01*
X33572Y-39302D01*
X33572Y-39285D01*
X33564Y-39268D01*
X33555Y-39260D01*
X33538Y-39251D01*
X33504Y-39242D01*
X33461Y-39242D01*
X33427Y-39251D01*
X33410Y-39260D01*
X33401Y-39268D01*
X33392Y-39285D01*
X33392Y-39508D02*
X33392Y-39422D01*
X33478Y-39414D01*
X33470Y-39422D01*
X33461Y-39440D01*
X33461Y-39482D01*
X33470Y-39500D01*
X33478Y-39508D01*
X33495Y-39517D01*
X33538Y-39517D01*
X33555Y-39508D01*
X33564Y-39500D01*
X33572Y-39482D01*
X33572Y-39440D01*
X33564Y-39422D01*
X33555Y-39414D01*
X33401Y-39985D02*
X33392Y-39968D01*
X33392Y-39942D01*
X33401Y-39917D01*
X33418Y-39900D01*
X33435Y-39891D01*
X33470Y-39882D01*
X33495Y-39882D01*
X33530Y-39891D01*
X33547Y-39900D01*
X33564Y-39917D01*
X33572Y-39942D01*
X33572Y-39960D01*
X33564Y-39985D01*
X33555Y-39994D01*
X33495Y-39994D01*
X33495Y-39960D01*
X33452Y-40062D02*
X33452Y-40191D01*
X33375Y-40114D02*
X33607Y-40062D01*
X33530Y-40174D02*
X33530Y-40045D01*
X33607Y-40122D02*
X33375Y-40174D01*
X33392Y-40285D02*
X33392Y-40302D01*
X33401Y-40320D01*
X33410Y-40328D01*
X33427Y-40337D01*
X33461Y-40345D01*
X33504Y-40345D01*
X33538Y-40337D01*
X33555Y-40328D01*
X33564Y-40320D01*
X33572Y-40302D01*
X33572Y-40285D01*
X33564Y-40268D01*
X33555Y-40260D01*
X33538Y-40251D01*
X33504Y-40242D01*
X33461Y-40242D01*
X33427Y-40251D01*
X33410Y-40260D01*
X33401Y-40268D01*
X33392Y-40285D01*
X33572Y-40431D02*
X33572Y-40465D01*
X33564Y-40482D01*
X33555Y-40491D01*
X33530Y-40508D01*
X33495Y-40517D01*
X33427Y-40517D01*
X33410Y-40508D01*
X33401Y-40500D01*
X33392Y-40482D01*
X33392Y-40448D01*
X33401Y-40431D01*
X33410Y-40422D01*
X33427Y-40414D01*
X33470Y-40414D01*
X33487Y-40422D01*
X33495Y-40431D01*
X33504Y-40448D01*
X33504Y-40482D01*
X33495Y-40500D01*
X33487Y-40508D01*
X33470Y-40517D01*
X33401Y-40985D02*
X33392Y-40968D01*
X33392Y-40942D01*
X33401Y-40917D01*
X33418Y-40900D01*
X33435Y-40891D01*
X33470Y-40882D01*
X33495Y-40882D01*
X33530Y-40891D01*
X33547Y-40900D01*
X33564Y-40917D01*
X33572Y-40942D01*
X33572Y-40960D01*
X33564Y-40985D01*
X33555Y-40994D01*
X33495Y-40994D01*
X33495Y-40960D01*
X33452Y-41062D02*
X33452Y-41191D01*
X33375Y-41114D02*
X33607Y-41062D01*
X33530Y-41174D02*
X33530Y-41045D01*
X33607Y-41122D02*
X33375Y-41174D01*
X33572Y-41345D02*
X33572Y-41242D01*
X33572Y-41294D02*
X33392Y-41294D01*
X33418Y-41277D01*
X33435Y-41260D01*
X33444Y-41242D01*
X33410Y-41414D02*
X33401Y-41422D01*
X33392Y-41440D01*
X33392Y-41482D01*
X33401Y-41500D01*
X33410Y-41508D01*
X33427Y-41517D01*
X33444Y-41517D01*
X33470Y-41508D01*
X33572Y-41405D01*
X33572Y-41517D01*
X33401Y-37985D02*
X33392Y-37968D01*
X33392Y-37942D01*
X33401Y-37917D01*
X33418Y-37900D01*
X33435Y-37891D01*
X33470Y-37882D01*
X33495Y-37882D01*
X33530Y-37891D01*
X33547Y-37900D01*
X33564Y-37917D01*
X33572Y-37942D01*
X33572Y-37960D01*
X33564Y-37985D01*
X33555Y-37994D01*
X33495Y-37994D01*
X33495Y-37960D01*
X33452Y-38062D02*
X33452Y-38191D01*
X33375Y-38114D02*
X33607Y-38062D01*
X33530Y-38174D02*
X33530Y-38045D01*
X33607Y-38122D02*
X33375Y-38174D01*
X33572Y-38345D02*
X33572Y-38242D01*
X33572Y-38294D02*
X33392Y-38294D01*
X33418Y-38277D01*
X33435Y-38260D01*
X33444Y-38242D01*
X33392Y-38405D02*
X33392Y-38525D01*
X33572Y-38448D01*
X33101Y-37985D02*
X33092Y-37968D01*
X33092Y-37942D01*
X33101Y-37917D01*
X33118Y-37900D01*
X33135Y-37891D01*
X33170Y-37882D01*
X33195Y-37882D01*
X33230Y-37891D01*
X33247Y-37900D01*
X33264Y-37917D01*
X33272Y-37942D01*
X33272Y-37960D01*
X33264Y-37985D01*
X33255Y-37994D01*
X33195Y-37994D01*
X33195Y-37960D01*
X33152Y-38062D02*
X33152Y-38191D01*
X33075Y-38114D02*
X33307Y-38062D01*
X33230Y-38174D02*
X33230Y-38045D01*
X33307Y-38122D02*
X33075Y-38174D01*
X33110Y-38242D02*
X33101Y-38251D01*
X33092Y-38268D01*
X33092Y-38311D01*
X33101Y-38328D01*
X33110Y-38337D01*
X33127Y-38345D01*
X33144Y-38345D01*
X33170Y-38337D01*
X33272Y-38234D01*
X33272Y-38345D01*
X33272Y-38517D02*
X33272Y-38414D01*
X33272Y-38465D02*
X33092Y-38465D01*
X33118Y-38448D01*
X33135Y-38431D01*
X33144Y-38414D01*
X33401Y-36985D02*
X33392Y-36968D01*
X33392Y-36942D01*
X33401Y-36917D01*
X33418Y-36900D01*
X33435Y-36891D01*
X33470Y-36882D01*
X33495Y-36882D01*
X33530Y-36891D01*
X33547Y-36900D01*
X33564Y-36917D01*
X33572Y-36942D01*
X33572Y-36960D01*
X33564Y-36985D01*
X33555Y-36994D01*
X33495Y-36994D01*
X33495Y-36960D01*
X33452Y-37062D02*
X33452Y-37191D01*
X33375Y-37114D02*
X33607Y-37062D01*
X33530Y-37174D02*
X33530Y-37045D01*
X33607Y-37122D02*
X33375Y-37174D01*
X33410Y-37242D02*
X33401Y-37251D01*
X33392Y-37268D01*
X33392Y-37311D01*
X33401Y-37328D01*
X33410Y-37337D01*
X33427Y-37345D01*
X33444Y-37345D01*
X33470Y-37337D01*
X33572Y-37234D01*
X33572Y-37345D01*
X33392Y-37457D02*
X33392Y-37474D01*
X33401Y-37491D01*
X33410Y-37500D01*
X33427Y-37508D01*
X33461Y-37517D01*
X33504Y-37517D01*
X33538Y-37508D01*
X33555Y-37500D01*
X33564Y-37491D01*
X33572Y-37474D01*
X33572Y-37457D01*
X33564Y-37440D01*
X33555Y-37431D01*
X33538Y-37422D01*
X33504Y-37414D01*
X33461Y-37414D01*
X33427Y-37422D01*
X33410Y-37431D01*
X33401Y-37440D01*
X33392Y-37457D01*
X33101Y-36985D02*
X33092Y-36968D01*
X33092Y-36942D01*
X33101Y-36917D01*
X33118Y-36900D01*
X33135Y-36891D01*
X33170Y-36882D01*
X33195Y-36882D01*
X33230Y-36891D01*
X33247Y-36900D01*
X33264Y-36917D01*
X33272Y-36942D01*
X33272Y-36960D01*
X33264Y-36985D01*
X33255Y-36994D01*
X33195Y-36994D01*
X33195Y-36960D01*
X33152Y-37062D02*
X33152Y-37191D01*
X33075Y-37114D02*
X33307Y-37062D01*
X33230Y-37174D02*
X33230Y-37045D01*
X33307Y-37122D02*
X33075Y-37174D01*
X33272Y-37345D02*
X33272Y-37242D01*
X33272Y-37294D02*
X33092Y-37294D01*
X33118Y-37277D01*
X33135Y-37260D01*
X33144Y-37242D01*
X33272Y-37431D02*
X33272Y-37465D01*
X33264Y-37482D01*
X33255Y-37491D01*
X33230Y-37508D01*
X33195Y-37517D01*
X33127Y-37517D01*
X33110Y-37508D01*
X33101Y-37500D01*
X33092Y-37482D01*
X33092Y-37448D01*
X33101Y-37431D01*
X33110Y-37422D01*
X33127Y-37414D01*
X33170Y-37414D01*
X33187Y-37422D01*
X33195Y-37431D01*
X33204Y-37448D01*
X33204Y-37482D01*
X33195Y-37500D01*
X33187Y-37508D01*
X33170Y-37517D01*
X33401Y-36071D02*
X33392Y-36054D01*
X33392Y-36028D01*
X33401Y-36002D01*
X33418Y-35985D01*
X33435Y-35977D01*
X33470Y-35968D01*
X33495Y-35968D01*
X33530Y-35977D01*
X33547Y-35985D01*
X33564Y-36002D01*
X33572Y-36028D01*
X33572Y-36045D01*
X33564Y-36071D01*
X33555Y-36080D01*
X33495Y-36080D01*
X33495Y-36045D01*
X33452Y-36148D02*
X33452Y-36277D01*
X33375Y-36200D02*
X33607Y-36148D01*
X33530Y-36260D02*
X33530Y-36131D01*
X33607Y-36208D02*
X33375Y-36260D01*
X33392Y-36371D02*
X33392Y-36388D01*
X33401Y-36405D01*
X33410Y-36414D01*
X33427Y-36422D01*
X33461Y-36431D01*
X33504Y-36431D01*
X33538Y-36422D01*
X33555Y-36414D01*
X33564Y-36405D01*
X33572Y-36388D01*
X33572Y-36371D01*
X33564Y-36354D01*
X33555Y-36345D01*
X33538Y-36337D01*
X33504Y-36328D01*
X33461Y-36328D01*
X33427Y-36337D01*
X33410Y-36345D01*
X33401Y-36354D01*
X33392Y-36371D01*
X33101Y-35985D02*
X33092Y-35968D01*
X33092Y-35942D01*
X33101Y-35917D01*
X33118Y-35900D01*
X33135Y-35891D01*
X33170Y-35882D01*
X33195Y-35882D01*
X33230Y-35891D01*
X33247Y-35900D01*
X33264Y-35917D01*
X33272Y-35942D01*
X33272Y-35960D01*
X33264Y-35985D01*
X33255Y-35994D01*
X33195Y-35994D01*
X33195Y-35960D01*
X33152Y-36062D02*
X33152Y-36191D01*
X33075Y-36114D02*
X33307Y-36062D01*
X33230Y-36174D02*
X33230Y-36045D01*
X33307Y-36122D02*
X33075Y-36174D01*
X33272Y-36345D02*
X33272Y-36242D01*
X33272Y-36294D02*
X33092Y-36294D01*
X33118Y-36277D01*
X33135Y-36260D01*
X33144Y-36242D01*
X33170Y-36448D02*
X33161Y-36431D01*
X33152Y-36422D01*
X33135Y-36414D01*
X33127Y-36414D01*
X33110Y-36422D01*
X33101Y-36431D01*
X33092Y-36448D01*
X33092Y-36482D01*
X33101Y-36500D01*
X33110Y-36508D01*
X33127Y-36517D01*
X33135Y-36517D01*
X33152Y-36508D01*
X33161Y-36500D01*
X33170Y-36482D01*
X33170Y-36448D01*
X33178Y-36431D01*
X33187Y-36422D01*
X33204Y-36414D01*
X33238Y-36414D01*
X33255Y-36422D01*
X33264Y-36431D01*
X33272Y-36448D01*
X33272Y-36482D01*
X33264Y-36500D01*
X33255Y-36508D01*
X33238Y-36517D01*
X33204Y-36517D01*
X33187Y-36508D01*
X33178Y-36500D01*
X33170Y-36482D01*
X33401Y-34985D02*
X33392Y-34968D01*
X33392Y-34942D01*
X33401Y-34917D01*
X33418Y-34900D01*
X33435Y-34891D01*
X33470Y-34882D01*
X33495Y-34882D01*
X33530Y-34891D01*
X33547Y-34900D01*
X33564Y-34917D01*
X33572Y-34942D01*
X33572Y-34960D01*
X33564Y-34985D01*
X33555Y-34994D01*
X33495Y-34994D01*
X33495Y-34960D01*
X33452Y-35062D02*
X33452Y-35191D01*
X33375Y-35114D02*
X33607Y-35062D01*
X33530Y-35174D02*
X33530Y-35045D01*
X33607Y-35122D02*
X33375Y-35174D01*
X33392Y-35285D02*
X33392Y-35302D01*
X33401Y-35320D01*
X33410Y-35328D01*
X33427Y-35337D01*
X33461Y-35345D01*
X33504Y-35345D01*
X33538Y-35337D01*
X33555Y-35328D01*
X33564Y-35320D01*
X33572Y-35302D01*
X33572Y-35285D01*
X33564Y-35268D01*
X33555Y-35260D01*
X33538Y-35251D01*
X33504Y-35242D01*
X33461Y-35242D01*
X33427Y-35251D01*
X33410Y-35260D01*
X33401Y-35268D01*
X33392Y-35285D01*
X33572Y-35517D02*
X33572Y-35414D01*
X33572Y-35465D02*
X33392Y-35465D01*
X33418Y-35448D01*
X33435Y-35431D01*
X33444Y-35414D01*
X33101Y-34985D02*
X33092Y-34968D01*
X33092Y-34942D01*
X33101Y-34917D01*
X33118Y-34900D01*
X33135Y-34891D01*
X33170Y-34882D01*
X33195Y-34882D01*
X33230Y-34891D01*
X33247Y-34900D01*
X33264Y-34917D01*
X33272Y-34942D01*
X33272Y-34960D01*
X33264Y-34985D01*
X33255Y-34994D01*
X33195Y-34994D01*
X33195Y-34960D01*
X33152Y-35062D02*
X33152Y-35191D01*
X33075Y-35114D02*
X33307Y-35062D01*
X33230Y-35174D02*
X33230Y-35045D01*
X33307Y-35122D02*
X33075Y-35174D01*
X33092Y-35285D02*
X33092Y-35302D01*
X33101Y-35320D01*
X33110Y-35328D01*
X33127Y-35337D01*
X33161Y-35345D01*
X33204Y-35345D01*
X33238Y-35337D01*
X33255Y-35328D01*
X33264Y-35320D01*
X33272Y-35302D01*
X33272Y-35285D01*
X33264Y-35268D01*
X33255Y-35260D01*
X33238Y-35251D01*
X33204Y-35242D01*
X33161Y-35242D01*
X33127Y-35251D01*
X33110Y-35260D01*
X33101Y-35268D01*
X33092Y-35285D01*
X33110Y-35414D02*
X33101Y-35422D01*
X33092Y-35440D01*
X33092Y-35482D01*
X33101Y-35500D01*
X33110Y-35508D01*
X33127Y-35517D01*
X33144Y-35517D01*
X33170Y-35508D01*
X33272Y-35405D01*
X33272Y-35517D01*
G54D12*
X42102Y-36775D02*
X41847Y-36775D01*
X41847Y-36775D02*
X41847Y-36224D01*
X42102Y-36224D02*
X41847Y-36224D01*
X42102Y-36775D02*
X42102Y-36224D01*
X42682Y-36775D02*
X42426Y-36775D01*
X42426Y-36775D02*
X42426Y-36224D01*
X42682Y-36224D02*
X42426Y-36224D01*
X42682Y-36775D02*
X42682Y-36224D01*
G54D13*
X42423Y-36250D02*
X42101Y-36250D01*
X42423Y-36750D02*
X42101Y-36750D01*
G54D12*
X43575Y-46310D02*
X43575Y-46565D01*
X43575Y-46565D02*
X43024Y-46565D01*
X43024Y-46310D02*
X43024Y-46565D01*
X43575Y-46310D02*
X43024Y-46310D01*
X43575Y-45730D02*
X43575Y-45986D01*
X43575Y-45986D02*
X43024Y-45986D01*
X43024Y-45730D02*
X43024Y-45986D01*
X43575Y-45730D02*
X43024Y-45730D01*
G54D13*
X43050Y-45989D02*
X43050Y-46311D01*
X43550Y-45989D02*
X43550Y-46311D01*
G54D12*
X47125Y-46310D02*
X47125Y-46565D01*
X47125Y-46565D02*
X46574Y-46565D01*
X46574Y-46310D02*
X46574Y-46565D01*
X47125Y-46310D02*
X46574Y-46310D01*
X47125Y-45730D02*
X47125Y-45986D01*
X47125Y-45986D02*
X46574Y-45986D01*
X46574Y-45730D02*
X46574Y-45986D01*
X47125Y-45730D02*
X46574Y-45730D01*
G54D13*
X46600Y-45989D02*
X46600Y-46311D01*
X47100Y-45989D02*
X47100Y-46311D01*
G54D12*
X47525Y-45990D02*
X47525Y-45735D01*
X47525Y-45735D02*
X48076Y-45735D01*
X48076Y-45990D02*
X48076Y-45735D01*
X47525Y-45990D02*
X48076Y-45990D01*
X47525Y-46570D02*
X47525Y-46314D01*
X47525Y-46314D02*
X48076Y-46314D01*
X48076Y-46570D02*
X48076Y-46314D01*
X47525Y-46570D02*
X48076Y-46570D01*
G54D13*
X48050Y-46311D02*
X48050Y-45989D01*
X47550Y-46311D02*
X47550Y-45989D01*
G54D12*
X39160Y-51875D02*
X39415Y-51875D01*
X39415Y-51875D02*
X39415Y-52426D01*
X39160Y-52426D02*
X39415Y-52426D01*
X39160Y-51875D02*
X39160Y-52426D01*
X38580Y-51875D02*
X38836Y-51875D01*
X38836Y-51875D02*
X38836Y-52426D01*
X38580Y-52426D02*
X38836Y-52426D01*
X38580Y-51875D02*
X38580Y-52426D01*
G54D13*
X38839Y-52400D02*
X39161Y-52400D01*
X38839Y-51900D02*
X39161Y-51900D01*
G54D12*
X42422Y-39225D02*
X42677Y-39225D01*
X42677Y-39225D02*
X42677Y-39776D01*
X42422Y-39776D02*
X42677Y-39776D01*
X42422Y-39225D02*
X42422Y-39776D01*
X41842Y-39225D02*
X42098Y-39225D01*
X42098Y-39225D02*
X42098Y-39776D01*
X41842Y-39776D02*
X42098Y-39776D01*
X41842Y-39225D02*
X41842Y-39776D01*
G54D13*
X42101Y-39750D02*
X42423Y-39750D01*
X42101Y-39250D02*
X42423Y-39250D01*
G54D12*
X45525Y-46310D02*
X45525Y-46565D01*
X45525Y-46565D02*
X44974Y-46565D01*
X44974Y-46310D02*
X44974Y-46565D01*
X45525Y-46310D02*
X44974Y-46310D01*
X45525Y-45730D02*
X45525Y-45986D01*
X45525Y-45986D02*
X44974Y-45986D01*
X44974Y-45730D02*
X44974Y-45986D01*
X45525Y-45730D02*
X44974Y-45730D01*
G54D13*
X45000Y-45989D02*
X45000Y-46311D01*
X45500Y-45989D02*
X45500Y-46311D01*
G54D12*
X44525Y-46310D02*
X44525Y-46565D01*
X44525Y-46565D02*
X43974Y-46565D01*
X43974Y-46310D02*
X43974Y-46565D01*
X44525Y-46310D02*
X43974Y-46310D01*
X44525Y-45730D02*
X44525Y-45986D01*
X44525Y-45986D02*
X43974Y-45986D01*
X43974Y-45730D02*
X43974Y-45986D01*
X44525Y-45730D02*
X43974Y-45730D01*
G54D13*
X44000Y-45989D02*
X44000Y-46311D01*
X44500Y-45989D02*
X44500Y-46311D01*
G54D12*
X37170Y-43580D02*
X37330Y-43580D01*
X37330Y-43580D02*
X37330Y-43920D01*
X37170Y-43920D02*
X37330Y-43920D01*
X37170Y-43580D02*
X37170Y-43920D01*
X36670Y-43580D02*
X36830Y-43580D01*
X36830Y-43580D02*
X36830Y-43920D01*
X36670Y-43920D02*
X36830Y-43920D01*
X36670Y-43580D02*
X36670Y-43920D01*
G54D13*
X36830Y-43610D02*
X37170Y-43610D01*
X37170Y-43890D02*
X36830Y-43890D01*
G54D10*
X41911Y-33921D02*
G75*
G03X41911Y-33921I-27J0D01*
G74*
G01*
X41765Y-33803D02*
X42946Y-33803D01*
X42946Y-33803D02*
X42946Y-34393D01*
X42946Y-34393D02*
X41765Y-34393D01*
X41765Y-33803D02*
X41765Y-34393D01*
X38256Y-34228D02*
G75*
G03X38256Y-34228I-27J0D01*
G74*
G01*
X38346Y-34346D02*
X37165Y-34346D01*
X37165Y-34346D02*
X37165Y-33756D01*
X37165Y-33756D02*
X38346Y-33756D01*
X38346Y-34346D02*
X38346Y-33756D01*
G54D12*
X40151Y-45504D02*
X39698Y-45504D01*
X39698Y-45504D02*
X39698Y-45347D01*
X40151Y-45347D02*
X39698Y-45347D01*
X40151Y-45504D02*
X40151Y-45347D01*
X40151Y-45819D02*
X39698Y-45819D01*
X39698Y-45819D02*
X39698Y-45662D01*
X40151Y-45662D02*
X39698Y-45662D01*
X40151Y-45819D02*
X40151Y-45662D01*
X40151Y-46134D02*
X39698Y-46134D01*
X39698Y-46134D02*
X39698Y-45977D01*
X40151Y-45977D02*
X39698Y-45977D01*
X40151Y-46134D02*
X40151Y-45977D01*
X40151Y-46449D02*
X39698Y-46449D01*
X39698Y-46449D02*
X39698Y-46292D01*
X40151Y-46292D02*
X39698Y-46292D01*
X40151Y-46449D02*
X40151Y-46292D01*
X40151Y-46764D02*
X39698Y-46764D01*
X39698Y-46764D02*
X39698Y-46607D01*
X40151Y-46607D02*
X39698Y-46607D01*
X40151Y-46764D02*
X40151Y-46607D01*
X40151Y-47078D02*
X39698Y-47078D01*
X39698Y-47078D02*
X39698Y-46922D01*
X40151Y-46922D02*
X39698Y-46922D01*
X40151Y-47078D02*
X40151Y-46922D01*
X40151Y-47393D02*
X39698Y-47393D01*
X39698Y-47393D02*
X39698Y-47236D01*
X40151Y-47236D02*
X39698Y-47236D01*
X40151Y-47393D02*
X40151Y-47236D01*
X40151Y-47708D02*
X39698Y-47708D01*
X39698Y-47708D02*
X39698Y-47551D01*
X40151Y-47551D02*
X39698Y-47551D01*
X40151Y-47708D02*
X40151Y-47551D01*
X40151Y-48023D02*
X39698Y-48023D01*
X39698Y-48023D02*
X39698Y-47866D01*
X40151Y-47866D02*
X39698Y-47866D01*
X40151Y-48023D02*
X40151Y-47866D01*
X40151Y-48338D02*
X39698Y-48338D01*
X39698Y-48338D02*
X39698Y-48181D01*
X40151Y-48181D02*
X39698Y-48181D01*
X40151Y-48338D02*
X40151Y-48181D01*
X40151Y-48653D02*
X39698Y-48653D01*
X39698Y-48653D02*
X39698Y-48496D01*
X40151Y-48496D02*
X39698Y-48496D01*
X40151Y-48653D02*
X40151Y-48496D01*
X39403Y-49401D02*
X39246Y-49401D01*
X39246Y-49401D02*
X39246Y-48948D01*
X39403Y-48948D02*
X39246Y-48948D01*
X39403Y-49401D02*
X39403Y-48948D01*
X39088Y-49401D02*
X38931Y-49401D01*
X38931Y-49401D02*
X38931Y-48948D01*
X39088Y-48948D02*
X38931Y-48948D01*
X39088Y-49401D02*
X39088Y-48948D01*
X38773Y-49401D02*
X38616Y-49401D01*
X38616Y-49401D02*
X38616Y-48948D01*
X38773Y-48948D02*
X38616Y-48948D01*
X38773Y-49401D02*
X38773Y-48948D01*
X38458Y-49401D02*
X38301Y-49401D01*
X38301Y-49401D02*
X38301Y-48948D01*
X38458Y-48948D02*
X38301Y-48948D01*
X38458Y-49401D02*
X38458Y-48948D01*
X38143Y-49401D02*
X37986Y-49401D01*
X37986Y-49401D02*
X37986Y-48948D01*
X38143Y-48948D02*
X37986Y-48948D01*
X38143Y-49401D02*
X38143Y-48948D01*
X37828Y-49401D02*
X37672Y-49401D01*
X37672Y-49401D02*
X37672Y-48948D01*
X37828Y-48948D02*
X37672Y-48948D01*
X37828Y-49401D02*
X37828Y-48948D01*
X37514Y-49401D02*
X37357Y-49401D01*
X37357Y-49401D02*
X37357Y-48948D01*
X37514Y-48948D02*
X37357Y-48948D01*
X37514Y-49401D02*
X37514Y-48948D01*
X37199Y-49401D02*
X37042Y-49401D01*
X37042Y-49401D02*
X37042Y-48948D01*
X37199Y-48948D02*
X37042Y-48948D01*
X37199Y-49401D02*
X37199Y-48948D01*
X36884Y-49401D02*
X36727Y-49401D01*
X36727Y-49401D02*
X36727Y-48948D01*
X36884Y-48948D02*
X36727Y-48948D01*
X36884Y-49401D02*
X36884Y-48948D01*
X36569Y-49401D02*
X36412Y-49401D01*
X36412Y-49401D02*
X36412Y-48948D01*
X36569Y-48948D02*
X36412Y-48948D01*
X36569Y-49401D02*
X36569Y-48948D01*
X36254Y-49401D02*
X36097Y-49401D01*
X36097Y-49401D02*
X36097Y-48948D01*
X36254Y-48948D02*
X36097Y-48948D01*
X36254Y-49401D02*
X36254Y-48948D01*
X35802Y-48653D02*
X35349Y-48653D01*
X35349Y-48653D02*
X35349Y-48496D01*
X35802Y-48496D02*
X35349Y-48496D01*
X35802Y-48653D02*
X35802Y-48496D01*
X35802Y-48338D02*
X35349Y-48338D01*
X35349Y-48338D02*
X35349Y-48181D01*
X35802Y-48181D02*
X35349Y-48181D01*
X35802Y-48338D02*
X35802Y-48181D01*
X35802Y-48023D02*
X35349Y-48023D01*
X35349Y-48023D02*
X35349Y-47866D01*
X35802Y-47866D02*
X35349Y-47866D01*
X35802Y-48023D02*
X35802Y-47866D01*
X35802Y-47708D02*
X35349Y-47708D01*
X35349Y-47708D02*
X35349Y-47551D01*
X35802Y-47551D02*
X35349Y-47551D01*
X35802Y-47708D02*
X35802Y-47551D01*
X35802Y-47393D02*
X35349Y-47393D01*
X35349Y-47393D02*
X35349Y-47236D01*
X35802Y-47236D02*
X35349Y-47236D01*
X35802Y-47393D02*
X35802Y-47236D01*
X35802Y-47078D02*
X35349Y-47078D01*
X35349Y-47078D02*
X35349Y-46922D01*
X35802Y-46922D02*
X35349Y-46922D01*
X35802Y-47078D02*
X35802Y-46922D01*
X35802Y-46764D02*
X35349Y-46764D01*
X35349Y-46764D02*
X35349Y-46607D01*
X35802Y-46607D02*
X35349Y-46607D01*
X35802Y-46764D02*
X35802Y-46607D01*
X35802Y-46449D02*
X35349Y-46449D01*
X35349Y-46449D02*
X35349Y-46292D01*
X35802Y-46292D02*
X35349Y-46292D01*
X35802Y-46449D02*
X35802Y-46292D01*
X35802Y-46134D02*
X35349Y-46134D01*
X35349Y-46134D02*
X35349Y-45977D01*
X35802Y-45977D02*
X35349Y-45977D01*
X35802Y-46134D02*
X35802Y-45977D01*
X35802Y-45819D02*
X35349Y-45819D01*
X35349Y-45819D02*
X35349Y-45662D01*
X35802Y-45662D02*
X35349Y-45662D01*
X35802Y-45819D02*
X35802Y-45662D01*
X35802Y-45504D02*
X35349Y-45504D01*
X35349Y-45504D02*
X35349Y-45347D01*
X35802Y-45347D02*
X35349Y-45347D01*
X35802Y-45504D02*
X35802Y-45347D01*
X36254Y-45052D02*
X36097Y-45052D01*
X36097Y-45052D02*
X36097Y-44599D01*
X36254Y-44599D02*
X36097Y-44599D01*
X36254Y-45052D02*
X36254Y-44599D01*
X36569Y-45052D02*
X36412Y-45052D01*
X36412Y-45052D02*
X36412Y-44599D01*
X36569Y-44599D02*
X36412Y-44599D01*
X36569Y-45052D02*
X36569Y-44599D01*
X36884Y-45052D02*
X36727Y-45052D01*
X36727Y-45052D02*
X36727Y-44599D01*
X36884Y-44599D02*
X36727Y-44599D01*
X36884Y-45052D02*
X36884Y-44599D01*
X37199Y-45052D02*
X37042Y-45052D01*
X37042Y-45052D02*
X37042Y-44599D01*
X37199Y-44599D02*
X37042Y-44599D01*
X37199Y-45052D02*
X37199Y-44599D01*
X37514Y-45052D02*
X37357Y-45052D01*
X37357Y-45052D02*
X37357Y-44599D01*
X37514Y-44599D02*
X37357Y-44599D01*
X37514Y-45052D02*
X37514Y-44599D01*
X37828Y-45052D02*
X37672Y-45052D01*
X37672Y-45052D02*
X37672Y-44599D01*
X37828Y-44599D02*
X37672Y-44599D01*
X37828Y-45052D02*
X37828Y-44599D01*
X38143Y-45052D02*
X37986Y-45052D01*
X37986Y-45052D02*
X37986Y-44599D01*
X38143Y-44599D02*
X37986Y-44599D01*
X38143Y-45052D02*
X38143Y-44599D01*
X38458Y-45052D02*
X38301Y-45052D01*
X38301Y-45052D02*
X38301Y-44599D01*
X38458Y-44599D02*
X38301Y-44599D01*
X38458Y-45052D02*
X38458Y-44599D01*
X38773Y-45052D02*
X38616Y-45052D01*
X38616Y-45052D02*
X38616Y-44599D01*
X38773Y-44599D02*
X38616Y-44599D01*
X38773Y-45052D02*
X38773Y-44599D01*
X39088Y-45052D02*
X38931Y-45052D01*
X38931Y-45052D02*
X38931Y-44599D01*
X39088Y-44599D02*
X38931Y-44599D01*
X39088Y-45052D02*
X39088Y-44599D01*
X39403Y-45052D02*
X39246Y-45052D01*
X39246Y-45052D02*
X39246Y-44599D01*
X39403Y-44599D02*
X39246Y-44599D01*
X39403Y-45052D02*
X39403Y-44599D01*
G54D14*
X39639Y-45268D02*
X39482Y-45111D01*
X39482Y-45111D02*
X36018Y-45111D01*
X36018Y-45111D02*
X35861Y-45268D01*
X35861Y-45268D02*
X35861Y-48732D01*
X35861Y-48732D02*
X36018Y-48889D01*
X36018Y-48889D02*
X39482Y-48889D01*
X39482Y-48889D02*
X39639Y-48732D01*
X39639Y-48732D02*
X39639Y-45268D01*
G54D15*
X39401Y-45426D02*
G75*
G03X39401Y-45426I-77J0D01*
G74*
G01*
G54D12*
X44700Y-42483D02*
X44700Y-42343D01*
X44700Y-42343D02*
X45210Y-42343D01*
X45210Y-42483D02*
X45210Y-42343D01*
X44700Y-42483D02*
X45210Y-42483D01*
X44700Y-42227D02*
X44700Y-42087D01*
X44700Y-42087D02*
X45210Y-42087D01*
X45210Y-42227D02*
X45210Y-42087D01*
X44700Y-42227D02*
X45210Y-42227D01*
X44700Y-41971D02*
X44700Y-41831D01*
X44700Y-41831D02*
X45210Y-41831D01*
X45210Y-41971D02*
X45210Y-41831D01*
X44700Y-41971D02*
X45210Y-41971D01*
X44700Y-41715D02*
X44700Y-41575D01*
X44700Y-41575D02*
X45210Y-41575D01*
X45210Y-41715D02*
X45210Y-41575D01*
X44700Y-41715D02*
X45210Y-41715D01*
X44700Y-41459D02*
X44700Y-41319D01*
X44700Y-41319D02*
X45210Y-41319D01*
X45210Y-41459D02*
X45210Y-41319D01*
X44700Y-41459D02*
X45210Y-41459D01*
X44700Y-41203D02*
X44700Y-41063D01*
X44700Y-41063D02*
X45210Y-41063D01*
X45210Y-41203D02*
X45210Y-41063D01*
X44700Y-41203D02*
X45210Y-41203D01*
X44700Y-40947D02*
X44700Y-40807D01*
X44700Y-40807D02*
X45210Y-40807D01*
X45210Y-40947D02*
X45210Y-40807D01*
X44700Y-40947D02*
X45210Y-40947D01*
X44700Y-40693D02*
X44700Y-40553D01*
X44700Y-40553D02*
X45210Y-40553D01*
X45210Y-40693D02*
X45210Y-40553D01*
X44700Y-40693D02*
X45210Y-40693D01*
X44700Y-40437D02*
X44700Y-40297D01*
X44700Y-40297D02*
X45210Y-40297D01*
X45210Y-40437D02*
X45210Y-40297D01*
X44700Y-40437D02*
X45210Y-40437D01*
X44700Y-40181D02*
X44700Y-40041D01*
X44700Y-40041D02*
X45210Y-40041D01*
X45210Y-40181D02*
X45210Y-40041D01*
X44700Y-40181D02*
X45210Y-40181D01*
X44700Y-39925D02*
X44700Y-39785D01*
X44700Y-39785D02*
X45210Y-39785D01*
X45210Y-39925D02*
X45210Y-39785D01*
X44700Y-39925D02*
X45210Y-39925D01*
X44700Y-39669D02*
X44700Y-39529D01*
X44700Y-39529D02*
X45210Y-39529D01*
X45210Y-39669D02*
X45210Y-39529D01*
X44700Y-39669D02*
X45210Y-39669D01*
X44700Y-39413D02*
X44700Y-39273D01*
X44700Y-39273D02*
X45210Y-39273D01*
X45210Y-39413D02*
X45210Y-39273D01*
X44700Y-39413D02*
X45210Y-39413D01*
X44700Y-39157D02*
X44700Y-39017D01*
X44700Y-39017D02*
X45210Y-39017D01*
X45210Y-39157D02*
X45210Y-39017D01*
X44700Y-39157D02*
X45210Y-39157D01*
X47290Y-39157D02*
X47290Y-39017D01*
X47290Y-39017D02*
X47800Y-39017D01*
X47800Y-39157D02*
X47800Y-39017D01*
X47290Y-39157D02*
X47800Y-39157D01*
X47290Y-39413D02*
X47290Y-39273D01*
X47290Y-39273D02*
X47800Y-39273D01*
X47800Y-39413D02*
X47800Y-39273D01*
X47290Y-39413D02*
X47800Y-39413D01*
X47290Y-39669D02*
X47290Y-39529D01*
X47290Y-39529D02*
X47800Y-39529D01*
X47800Y-39669D02*
X47800Y-39529D01*
X47290Y-39669D02*
X47800Y-39669D01*
X47290Y-39925D02*
X47290Y-39785D01*
X47290Y-39785D02*
X47800Y-39785D01*
X47800Y-39925D02*
X47800Y-39785D01*
X47290Y-39925D02*
X47800Y-39925D01*
X47290Y-40181D02*
X47290Y-40041D01*
X47290Y-40041D02*
X47800Y-40041D01*
X47800Y-40181D02*
X47800Y-40041D01*
X47290Y-40181D02*
X47800Y-40181D01*
X47290Y-40437D02*
X47290Y-40297D01*
X47290Y-40297D02*
X47800Y-40297D01*
X47800Y-40437D02*
X47800Y-40297D01*
X47290Y-40437D02*
X47800Y-40437D01*
X47290Y-40693D02*
X47290Y-40553D01*
X47290Y-40553D02*
X47800Y-40553D01*
X47800Y-40693D02*
X47800Y-40553D01*
X47290Y-40693D02*
X47800Y-40693D01*
X47290Y-40947D02*
X47290Y-40807D01*
X47290Y-40807D02*
X47800Y-40807D01*
X47800Y-40947D02*
X47800Y-40807D01*
X47290Y-40947D02*
X47800Y-40947D01*
X47290Y-41203D02*
X47290Y-41063D01*
X47290Y-41063D02*
X47800Y-41063D01*
X47800Y-41203D02*
X47800Y-41063D01*
X47290Y-41203D02*
X47800Y-41203D01*
X47290Y-41459D02*
X47290Y-41319D01*
X47290Y-41319D02*
X47800Y-41319D01*
X47800Y-41459D02*
X47800Y-41319D01*
X47290Y-41459D02*
X47800Y-41459D01*
X47290Y-41715D02*
X47290Y-41575D01*
X47290Y-41575D02*
X47800Y-41575D01*
X47800Y-41715D02*
X47800Y-41575D01*
X47290Y-41715D02*
X47800Y-41715D01*
X47290Y-41971D02*
X47290Y-41831D01*
X47290Y-41831D02*
X47800Y-41831D01*
X47800Y-41971D02*
X47800Y-41831D01*
X47290Y-41971D02*
X47800Y-41971D01*
X47290Y-42227D02*
X47290Y-42087D01*
X47290Y-42087D02*
X47800Y-42087D01*
X47800Y-42227D02*
X47800Y-42087D01*
X47290Y-42227D02*
X47800Y-42227D01*
X47290Y-42483D02*
X47290Y-42343D01*
X47290Y-42343D02*
X47800Y-42343D01*
X47800Y-42483D02*
X47800Y-42343D01*
X47290Y-42483D02*
X47800Y-42483D01*
X45227Y-42797D02*
X45227Y-42413D01*
X45227Y-42413D02*
X47273Y-42413D01*
X47273Y-42797D02*
X47273Y-42413D01*
X45227Y-42797D02*
X47273Y-42797D01*
G54D14*
X45227Y-42757D02*
X45227Y-38743D01*
X45227Y-38743D02*
X47273Y-38743D01*
X47273Y-38743D02*
X47273Y-42757D01*
G54D16*
X40638Y-33863D02*
X40874Y-33863D01*
X40638Y-33863D02*
X40559Y-33785D01*
X40559Y-33785D02*
X40283Y-33785D01*
X40283Y-34375D02*
X40283Y-34414D01*
X40283Y-34414D02*
X40559Y-34414D01*
X40559Y-34414D02*
X40638Y-34336D01*
X40638Y-34336D02*
X40874Y-34336D01*
X40874Y-34336D02*
X40953Y-34414D01*
X40953Y-34414D02*
X41228Y-34414D01*
X41228Y-34414D02*
X41228Y-34218D01*
X41228Y-34218D02*
X41228Y-33785D01*
X41228Y-33785D02*
X40953Y-33785D01*
X40953Y-33785D02*
X40874Y-33863D01*
X40283Y-33785D02*
X40283Y-34375D01*
X39474Y-34336D02*
X39238Y-34336D01*
X39474Y-34336D02*
X39553Y-34414D01*
X39553Y-34414D02*
X39828Y-34414D01*
X39828Y-33824D02*
X39828Y-33785D01*
X39828Y-33785D02*
X39553Y-33785D01*
X39553Y-33785D02*
X39474Y-33863D01*
X39474Y-33863D02*
X39238Y-33863D01*
X39238Y-33863D02*
X39159Y-33785D01*
X39159Y-33785D02*
X38883Y-33785D01*
X38883Y-33785D02*
X38883Y-33981D01*
X38883Y-33981D02*
X38883Y-34414D01*
X38883Y-34414D02*
X39159Y-34414D01*
X39159Y-34414D02*
X39238Y-34336D01*
X39828Y-34414D02*
X39828Y-33824D01*
G54D12*
X38626Y-37580D02*
X38786Y-37580D01*
X38786Y-37580D02*
X38786Y-37920D01*
X38626Y-37920D02*
X38786Y-37920D01*
X38626Y-37580D02*
X38626Y-37920D01*
X38126Y-37580D02*
X38286Y-37580D01*
X38286Y-37580D02*
X38286Y-37920D01*
X38126Y-37920D02*
X38286Y-37920D01*
X38126Y-37580D02*
X38126Y-37920D01*
X38378Y-37593D02*
X38534Y-37593D01*
X38534Y-37593D02*
X38534Y-37907D01*
X38378Y-37907D02*
X38534Y-37907D01*
X38378Y-37593D02*
X38378Y-37907D01*
G54D13*
X38286Y-37610D02*
X38626Y-37610D01*
X38626Y-37890D02*
X38286Y-37890D01*
G54D12*
X38626Y-36080D02*
X38786Y-36080D01*
X38786Y-36080D02*
X38786Y-36420D01*
X38626Y-36420D02*
X38786Y-36420D01*
X38626Y-36080D02*
X38626Y-36420D01*
X38126Y-36080D02*
X38286Y-36080D01*
X38286Y-36080D02*
X38286Y-36420D01*
X38126Y-36420D02*
X38286Y-36420D01*
X38126Y-36080D02*
X38126Y-36420D01*
X38378Y-36093D02*
X38534Y-36093D01*
X38534Y-36093D02*
X38534Y-36407D01*
X38378Y-36407D02*
X38534Y-36407D01*
X38378Y-36093D02*
X38378Y-36407D01*
G54D13*
X38286Y-36110D02*
X38626Y-36110D01*
X38626Y-36390D02*
X38286Y-36390D01*
G54D12*
X40682Y-39330D02*
X40842Y-39330D01*
X40842Y-39330D02*
X40842Y-39670D01*
X40682Y-39670D02*
X40842Y-39670D01*
X40682Y-39330D02*
X40682Y-39670D01*
X40182Y-39330D02*
X40342Y-39330D01*
X40342Y-39330D02*
X40342Y-39670D01*
X40182Y-39670D02*
X40342Y-39670D01*
X40182Y-39330D02*
X40182Y-39670D01*
X40434Y-39343D02*
X40590Y-39343D01*
X40590Y-39343D02*
X40590Y-39657D01*
X40434Y-39657D02*
X40590Y-39657D01*
X40434Y-39343D02*
X40434Y-39657D01*
G54D13*
X40342Y-39360D02*
X40682Y-39360D01*
X40682Y-39640D02*
X40342Y-39640D01*
G54D12*
X37920Y-50570D02*
X37920Y-50730D01*
X37920Y-50730D02*
X37580Y-50730D01*
X37580Y-50570D02*
X37580Y-50730D01*
X37920Y-50570D02*
X37580Y-50570D01*
X37920Y-50070D02*
X37920Y-50230D01*
X37920Y-50230D02*
X37580Y-50230D01*
X37580Y-50070D02*
X37580Y-50230D01*
X37920Y-50070D02*
X37580Y-50070D01*
X37907Y-50322D02*
X37907Y-50478D01*
X37907Y-50478D02*
X37593Y-50478D01*
X37593Y-50322D02*
X37593Y-50478D01*
X37907Y-50322D02*
X37593Y-50322D01*
G54D13*
X37890Y-50230D02*
X37890Y-50570D01*
X37610Y-50570D02*
X37610Y-50230D01*
G54D12*
X41920Y-45080D02*
X42080Y-45080D01*
X42080Y-45080D02*
X42080Y-45420D01*
X41920Y-45420D02*
X42080Y-45420D01*
X41920Y-45080D02*
X41920Y-45420D01*
X41420Y-45080D02*
X41580Y-45080D01*
X41580Y-45080D02*
X41580Y-45420D01*
X41420Y-45420D02*
X41580Y-45420D01*
X41420Y-45080D02*
X41420Y-45420D01*
X41672Y-45093D02*
X41828Y-45093D01*
X41828Y-45093D02*
X41828Y-45407D01*
X41672Y-45407D02*
X41828Y-45407D01*
X41672Y-45093D02*
X41672Y-45407D01*
G54D13*
X41580Y-45110D02*
X41920Y-45110D01*
X41920Y-45390D02*
X41580Y-45390D01*
G54D12*
X39830Y-43920D02*
X39670Y-43920D01*
X39670Y-43920D02*
X39670Y-43580D01*
X39830Y-43580D02*
X39670Y-43580D01*
X39830Y-43920D02*
X39830Y-43580D01*
X40330Y-43920D02*
X40170Y-43920D01*
X40170Y-43920D02*
X40170Y-43580D01*
X40330Y-43580D02*
X40170Y-43580D01*
X40330Y-43920D02*
X40330Y-43580D01*
X40078Y-43907D02*
X39922Y-43907D01*
X39922Y-43907D02*
X39922Y-43593D01*
X40078Y-43593D02*
X39922Y-43593D01*
X40078Y-43907D02*
X40078Y-43593D01*
G54D13*
X40170Y-43890D02*
X39830Y-43890D01*
X39830Y-43610D02*
X40170Y-43610D01*
G54D12*
X35080Y-44080D02*
X35080Y-43920D01*
X35080Y-43920D02*
X35420Y-43920D01*
X35420Y-44080D02*
X35420Y-43920D01*
X35080Y-44080D02*
X35420Y-44080D01*
X35080Y-44580D02*
X35080Y-44420D01*
X35080Y-44420D02*
X35420Y-44420D01*
X35420Y-44580D02*
X35420Y-44420D01*
X35080Y-44580D02*
X35420Y-44580D01*
X35093Y-44328D02*
X35093Y-44172D01*
X35093Y-44172D02*
X35407Y-44172D01*
X35407Y-44328D02*
X35407Y-44172D01*
X35093Y-44328D02*
X35407Y-44328D01*
G54D13*
X35110Y-44420D02*
X35110Y-44080D01*
X35390Y-44080D02*
X35390Y-44420D01*
G54D12*
X40220Y-50570D02*
X40220Y-50730D01*
X40220Y-50730D02*
X39880Y-50730D01*
X39880Y-50570D02*
X39880Y-50730D01*
X40220Y-50570D02*
X39880Y-50570D01*
X40220Y-50070D02*
X40220Y-50230D01*
X40220Y-50230D02*
X39880Y-50230D01*
X39880Y-50070D02*
X39880Y-50230D01*
X40220Y-50070D02*
X39880Y-50070D01*
X40207Y-50322D02*
X40207Y-50478D01*
X40207Y-50478D02*
X39893Y-50478D01*
X39893Y-50322D02*
X39893Y-50478D01*
X40207Y-50322D02*
X39893Y-50322D01*
G54D13*
X40190Y-50230D02*
X40190Y-50570D01*
X39910Y-50570D02*
X39910Y-50230D01*
G54D12*
X38626Y-36830D02*
X38786Y-36830D01*
X38786Y-36830D02*
X38786Y-37170D01*
X38626Y-37170D02*
X38786Y-37170D01*
X38626Y-36830D02*
X38626Y-37170D01*
X38126Y-36830D02*
X38286Y-36830D01*
X38286Y-36830D02*
X38286Y-37170D01*
X38126Y-37170D02*
X38286Y-37170D01*
X38126Y-36830D02*
X38126Y-37170D01*
X38378Y-36843D02*
X38534Y-36843D01*
X38534Y-36843D02*
X38534Y-37157D01*
X38378Y-37157D02*
X38534Y-37157D01*
X38378Y-36843D02*
X38378Y-37157D01*
G54D13*
X38286Y-36860D02*
X38626Y-36860D01*
X38626Y-37140D02*
X38286Y-37140D01*
G54D12*
X38626Y-39080D02*
X38786Y-39080D01*
X38786Y-39080D02*
X38786Y-39420D01*
X38626Y-39420D02*
X38786Y-39420D01*
X38626Y-39080D02*
X38626Y-39420D01*
X38126Y-39080D02*
X38286Y-39080D01*
X38286Y-39080D02*
X38286Y-39420D01*
X38126Y-39420D02*
X38286Y-39420D01*
X38126Y-39080D02*
X38126Y-39420D01*
X38378Y-39093D02*
X38534Y-39093D01*
X38534Y-39093D02*
X38534Y-39407D01*
X38378Y-39407D02*
X38534Y-39407D01*
X38378Y-39093D02*
X38378Y-39407D01*
G54D13*
X38286Y-39110D02*
X38626Y-39110D01*
X38626Y-39390D02*
X38286Y-39390D01*
G54D12*
X38626Y-40580D02*
X38786Y-40580D01*
X38786Y-40580D02*
X38786Y-40920D01*
X38626Y-40920D02*
X38786Y-40920D01*
X38626Y-40580D02*
X38626Y-40920D01*
X38126Y-40580D02*
X38286Y-40580D01*
X38286Y-40580D02*
X38286Y-40920D01*
X38126Y-40920D02*
X38286Y-40920D01*
X38126Y-40580D02*
X38126Y-40920D01*
X38378Y-40593D02*
X38534Y-40593D01*
X38534Y-40593D02*
X38534Y-40907D01*
X38378Y-40907D02*
X38534Y-40907D01*
X38378Y-40593D02*
X38378Y-40907D01*
G54D13*
X38286Y-40610D02*
X38626Y-40610D01*
X38626Y-40890D02*
X38286Y-40890D01*
G54D12*
X38626Y-35330D02*
X38786Y-35330D01*
X38786Y-35330D02*
X38786Y-35670D01*
X38626Y-35670D02*
X38786Y-35670D01*
X38626Y-35330D02*
X38626Y-35670D01*
X38126Y-35330D02*
X38286Y-35330D01*
X38286Y-35330D02*
X38286Y-35670D01*
X38126Y-35670D02*
X38286Y-35670D01*
X38126Y-35330D02*
X38126Y-35670D01*
X38378Y-35343D02*
X38534Y-35343D01*
X38534Y-35343D02*
X38534Y-35657D01*
X38378Y-35657D02*
X38534Y-35657D01*
X38378Y-35343D02*
X38378Y-35657D01*
G54D13*
X38286Y-35360D02*
X38626Y-35360D01*
X38626Y-35640D02*
X38286Y-35640D01*
G54D12*
X34420Y-48580D02*
X34580Y-48580D01*
X34580Y-48580D02*
X34580Y-48920D01*
X34420Y-48920D02*
X34580Y-48920D01*
X34420Y-48580D02*
X34420Y-48920D01*
X33920Y-48580D02*
X34080Y-48580D01*
X34080Y-48580D02*
X34080Y-48920D01*
X33920Y-48920D02*
X34080Y-48920D01*
X33920Y-48580D02*
X33920Y-48920D01*
X34172Y-48593D02*
X34328Y-48593D01*
X34328Y-48593D02*
X34328Y-48907D01*
X34172Y-48907D02*
X34328Y-48907D01*
X34172Y-48593D02*
X34172Y-48907D01*
G54D13*
X34080Y-48610D02*
X34420Y-48610D01*
X34420Y-48890D02*
X34080Y-48890D01*
G54D12*
X47170Y-43330D02*
X47330Y-43330D01*
X47330Y-43330D02*
X47330Y-43670D01*
X47170Y-43670D02*
X47330Y-43670D01*
X47170Y-43330D02*
X47170Y-43670D01*
X46670Y-43330D02*
X46830Y-43330D01*
X46830Y-43330D02*
X46830Y-43670D01*
X46670Y-43670D02*
X46830Y-43670D01*
X46670Y-43330D02*
X46670Y-43670D01*
X46922Y-43343D02*
X47078Y-43343D01*
X47078Y-43343D02*
X47078Y-43657D01*
X46922Y-43657D02*
X47078Y-43657D01*
X46922Y-43343D02*
X46922Y-43657D01*
G54D13*
X46830Y-43360D02*
X47170Y-43360D01*
X47170Y-43640D02*
X46830Y-43640D01*
G54D12*
X38626Y-38330D02*
X38786Y-38330D01*
X38786Y-38330D02*
X38786Y-38670D01*
X38626Y-38670D02*
X38786Y-38670D01*
X38626Y-38330D02*
X38626Y-38670D01*
X38126Y-38330D02*
X38286Y-38330D01*
X38286Y-38330D02*
X38286Y-38670D01*
X38126Y-38670D02*
X38286Y-38670D01*
X38126Y-38330D02*
X38126Y-38670D01*
X38378Y-38343D02*
X38534Y-38343D01*
X38534Y-38343D02*
X38534Y-38657D01*
X38378Y-38657D02*
X38534Y-38657D01*
X38378Y-38343D02*
X38378Y-38657D01*
G54D13*
X38286Y-38360D02*
X38626Y-38360D01*
X38626Y-38640D02*
X38286Y-38640D01*
G54D12*
X38626Y-39830D02*
X38786Y-39830D01*
X38786Y-39830D02*
X38786Y-40170D01*
X38626Y-40170D02*
X38786Y-40170D01*
X38626Y-39830D02*
X38626Y-40170D01*
X38126Y-39830D02*
X38286Y-39830D01*
X38286Y-39830D02*
X38286Y-40170D01*
X38126Y-40170D02*
X38286Y-40170D01*
X38126Y-39830D02*
X38126Y-40170D01*
X38378Y-39843D02*
X38534Y-39843D01*
X38534Y-39843D02*
X38534Y-40157D01*
X38378Y-40157D02*
X38534Y-40157D01*
X38378Y-39843D02*
X38378Y-40157D01*
G54D13*
X38286Y-39860D02*
X38626Y-39860D01*
X38626Y-40140D02*
X38286Y-40140D01*
G54D12*
X35380Y-50040D02*
X35159Y-50040D01*
X35159Y-50040D02*
X35159Y-49360D01*
X35380Y-49360D02*
X35159Y-49360D01*
X35380Y-50040D02*
X35380Y-49360D01*
X34141Y-50040D02*
X33920Y-50040D01*
X33920Y-50040D02*
X33920Y-49360D01*
X34141Y-49360D02*
X33920Y-49360D01*
X34141Y-50040D02*
X34141Y-49360D01*
X34990Y-50010D02*
X34750Y-50010D01*
X34750Y-50010D02*
X34750Y-49390D01*
X34990Y-49390D02*
X34750Y-49390D01*
X34990Y-50010D02*
X34990Y-49390D01*
G54D13*
X34130Y-49390D02*
X35170Y-49390D01*
X34130Y-50010D02*
X35170Y-50010D01*
G54D14*
X34454Y-49504D02*
X34846Y-49700D01*
X34846Y-49700D02*
X34454Y-49896D01*
X34454Y-49896D02*
X34454Y-49504D01*
G54D12*
X40760Y-51130D02*
X40760Y-50909D01*
X40760Y-50909D02*
X41440Y-50909D01*
X41440Y-51130D02*
X41440Y-50909D01*
X40760Y-51130D02*
X41440Y-51130D01*
X40760Y-49891D02*
X40760Y-49670D01*
X40760Y-49670D02*
X41440Y-49670D01*
X41440Y-49891D02*
X41440Y-49670D01*
X40760Y-49891D02*
X41440Y-49891D01*
X40790Y-50740D02*
X40790Y-50500D01*
X40790Y-50500D02*
X41410Y-50500D01*
X41410Y-50740D02*
X41410Y-50500D01*
X40790Y-50740D02*
X41410Y-50740D01*
G54D13*
X41410Y-49880D02*
X41410Y-50920D01*
X40790Y-49880D02*
X40790Y-50920D01*
G54D14*
X41296Y-50204D02*
X41100Y-50596D01*
X41100Y-50596D02*
X40904Y-50204D01*
X40904Y-50204D02*
X41296Y-50204D01*
G54D10*
X36106Y-51050D02*
X36500Y-51050D01*
X36500Y-51050D02*
X36500Y-50656D01*
G54D15*
X37129Y-51542D02*
X37129Y-50558D01*
X37129Y-50558D02*
X35871Y-50558D01*
X35871Y-50558D02*
X35871Y-51542D01*
X35871Y-51542D02*
X37129Y-51542D01*
G54D17*
X35656Y-34500D02*
X35656Y-34000D01*
X35556Y-34500D02*
X35556Y-34000D01*
G54D12*
X35177Y-34014D02*
X35255Y-34014D01*
X35255Y-34014D02*
X35255Y-34486D01*
X35177Y-34486D02*
X35255Y-34486D01*
X35177Y-34014D02*
X35177Y-34486D01*
X36357Y-34014D02*
X36435Y-34014D01*
X36435Y-34014D02*
X36435Y-34486D01*
X36357Y-34486D02*
X36435Y-34486D01*
X36357Y-34014D02*
X36357Y-34486D01*
X35236Y-33955D02*
X35492Y-33955D01*
X35492Y-33955D02*
X35492Y-34545D01*
X35236Y-34545D02*
X35492Y-34545D01*
X35236Y-33955D02*
X35236Y-34545D01*
G54D11*
X35236Y-34545D02*
X36376Y-34545D01*
X36376Y-34545D02*
X36376Y-33955D01*
X36376Y-33955D02*
X35236Y-33955D01*
X35236Y-33955D02*
X35236Y-34545D01*
G54D17*
X35100Y-42500D02*
X35100Y-42000D01*
X35000Y-42500D02*
X35000Y-42000D01*
G54D12*
X34621Y-42014D02*
X34699Y-42014D01*
X34699Y-42014D02*
X34699Y-42486D01*
X34621Y-42486D02*
X34699Y-42486D01*
X34621Y-42014D02*
X34621Y-42486D01*
X35801Y-42014D02*
X35879Y-42014D01*
X35879Y-42014D02*
X35879Y-42486D01*
X35801Y-42486D02*
X35879Y-42486D01*
X35801Y-42014D02*
X35801Y-42486D01*
X34680Y-41955D02*
X34936Y-41955D01*
X34936Y-41955D02*
X34936Y-42545D01*
X34680Y-42545D02*
X34936Y-42545D01*
X34680Y-41955D02*
X34680Y-42545D01*
G54D11*
X34680Y-42545D02*
X35820Y-42545D01*
X35820Y-42545D02*
X35820Y-41955D01*
X35820Y-41955D02*
X34680Y-41955D01*
X34680Y-41955D02*
X34680Y-42545D01*
G54D12*
X42080Y-43935D02*
X41883Y-43935D01*
X41883Y-43935D02*
X41883Y-43561D01*
X42080Y-43561D02*
X41883Y-43561D01*
X42080Y-43935D02*
X42080Y-43561D01*
X41620Y-43935D02*
X41424Y-43935D01*
X41424Y-43935D02*
X41424Y-43561D01*
X41620Y-43561D02*
X41424Y-43561D01*
X41620Y-43935D02*
X41620Y-43561D01*
X41828Y-43868D02*
X41672Y-43868D01*
X41672Y-43868D02*
X41672Y-43632D01*
X41828Y-43632D02*
X41672Y-43632D01*
X41828Y-43868D02*
X41828Y-43632D01*
G54D11*
X41890Y-43580D02*
X41610Y-43580D01*
X41890Y-43914D02*
X41610Y-43914D01*
G54D12*
X42080Y-44685D02*
X41883Y-44685D01*
X41883Y-44685D02*
X41883Y-44311D01*
X42080Y-44311D02*
X41883Y-44311D01*
X42080Y-44685D02*
X42080Y-44311D01*
X41620Y-44685D02*
X41424Y-44685D01*
X41424Y-44685D02*
X41424Y-44311D01*
X41620Y-44311D02*
X41424Y-44311D01*
X41620Y-44685D02*
X41620Y-44311D01*
X41828Y-44618D02*
X41672Y-44618D01*
X41672Y-44618D02*
X41672Y-44382D01*
X41828Y-44382D02*
X41672Y-44382D01*
X41828Y-44618D02*
X41828Y-44382D01*
G54D11*
X41890Y-44330D02*
X41610Y-44330D01*
X41890Y-44664D02*
X41610Y-44664D01*
G54D12*
X35115Y-51380D02*
X35115Y-51183D01*
X35115Y-51183D02*
X35489Y-51183D01*
X35489Y-51380D02*
X35489Y-51183D01*
X35115Y-51380D02*
X35489Y-51380D01*
X35115Y-50920D02*
X35115Y-50724D01*
X35115Y-50724D02*
X35489Y-50724D01*
X35489Y-50920D02*
X35489Y-50724D01*
X35115Y-50920D02*
X35489Y-50920D01*
X35182Y-51128D02*
X35182Y-50972D01*
X35182Y-50972D02*
X35418Y-50972D01*
X35418Y-51128D02*
X35418Y-50972D01*
X35182Y-51128D02*
X35418Y-51128D01*
G54D11*
X35470Y-51190D02*
X35470Y-50910D01*
X35136Y-51190D02*
X35136Y-50910D01*
G54D12*
X36170Y-51965D02*
X36367Y-51965D01*
X36367Y-51965D02*
X36367Y-52339D01*
X36170Y-52339D02*
X36367Y-52339D01*
X36170Y-51965D02*
X36170Y-52339D01*
X36630Y-51965D02*
X36826Y-51965D01*
X36826Y-51965D02*
X36826Y-52339D01*
X36630Y-52339D02*
X36826Y-52339D01*
X36630Y-51965D02*
X36630Y-52339D01*
X36422Y-52032D02*
X36578Y-52032D01*
X36578Y-52032D02*
X36578Y-52268D01*
X36422Y-52268D02*
X36578Y-52268D01*
X36422Y-52032D02*
X36422Y-52268D01*
G54D11*
X36360Y-52320D02*
X36640Y-52320D01*
X36360Y-51986D02*
X36640Y-51986D01*
G54D12*
X38830Y-43935D02*
X38633Y-43935D01*
X38633Y-43935D02*
X38633Y-43561D01*
X38830Y-43561D02*
X38633Y-43561D01*
X38830Y-43935D02*
X38830Y-43561D01*
X38370Y-43935D02*
X38174Y-43935D01*
X38174Y-43935D02*
X38174Y-43561D01*
X38370Y-43561D02*
X38174Y-43561D01*
X38370Y-43935D02*
X38370Y-43561D01*
X38578Y-43868D02*
X38422Y-43868D01*
X38422Y-43868D02*
X38422Y-43632D01*
X38578Y-43632D02*
X38422Y-43632D01*
X38578Y-43868D02*
X38578Y-43632D01*
G54D11*
X38640Y-43580D02*
X38360Y-43580D01*
X38640Y-43914D02*
X38360Y-43914D01*
G54D12*
X34580Y-48185D02*
X34383Y-48185D01*
X34383Y-48185D02*
X34383Y-47811D01*
X34580Y-47811D02*
X34383Y-47811D01*
X34580Y-48185D02*
X34580Y-47811D01*
X34120Y-48185D02*
X33924Y-48185D01*
X33924Y-48185D02*
X33924Y-47811D01*
X34120Y-47811D02*
X33924Y-47811D01*
X34120Y-48185D02*
X34120Y-47811D01*
X34328Y-48118D02*
X34172Y-48118D01*
X34172Y-48118D02*
X34172Y-47882D01*
X34328Y-47882D02*
X34172Y-47882D01*
X34328Y-48118D02*
X34328Y-47882D01*
G54D11*
X34390Y-47830D02*
X34110Y-47830D01*
X34390Y-48164D02*
X34110Y-48164D01*
G54D12*
X41420Y-45815D02*
X41617Y-45815D01*
X41617Y-45815D02*
X41617Y-46189D01*
X41420Y-46189D02*
X41617Y-46189D01*
X41420Y-45815D02*
X41420Y-46189D01*
X41880Y-45815D02*
X42076Y-45815D01*
X42076Y-45815D02*
X42076Y-46189D01*
X41880Y-46189D02*
X42076Y-46189D01*
X41880Y-45815D02*
X41880Y-46189D01*
X41672Y-45882D02*
X41828Y-45882D01*
X41828Y-45882D02*
X41828Y-46118D01*
X41672Y-46118D02*
X41828Y-46118D01*
X41672Y-45882D02*
X41672Y-46118D01*
G54D11*
X41610Y-46170D02*
X41890Y-46170D01*
X41610Y-45836D02*
X41890Y-45836D01*
G54D12*
X43420Y-43565D02*
X43617Y-43565D01*
X43617Y-43565D02*
X43617Y-43939D01*
X43420Y-43939D02*
X43617Y-43939D01*
X43420Y-43565D02*
X43420Y-43939D01*
X43880Y-43565D02*
X44076Y-43565D01*
X44076Y-43565D02*
X44076Y-43939D01*
X43880Y-43939D02*
X44076Y-43939D01*
X43880Y-43565D02*
X43880Y-43939D01*
X43672Y-43632D02*
X43828Y-43632D01*
X43828Y-43632D02*
X43828Y-43868D01*
X43672Y-43868D02*
X43828Y-43868D01*
X43672Y-43632D02*
X43672Y-43868D01*
G54D11*
X43610Y-43920D02*
X43890Y-43920D01*
X43610Y-43586D02*
X43890Y-43586D01*
G54D12*
X45170Y-43315D02*
X45367Y-43315D01*
X45367Y-43315D02*
X45367Y-43689D01*
X45170Y-43689D02*
X45367Y-43689D01*
X45170Y-43315D02*
X45170Y-43689D01*
X45630Y-43315D02*
X45826Y-43315D01*
X45826Y-43315D02*
X45826Y-43689D01*
X45630Y-43689D02*
X45826Y-43689D01*
X45630Y-43315D02*
X45630Y-43689D01*
X45422Y-43382D02*
X45578Y-43382D01*
X45578Y-43382D02*
X45578Y-43618D01*
X45422Y-43618D02*
X45578Y-43618D01*
X45422Y-43382D02*
X45422Y-43618D01*
G54D11*
X45360Y-43670D02*
X45640Y-43670D01*
X45360Y-43336D02*
X45640Y-43336D01*
G54D12*
X47330Y-38185D02*
X47133Y-38185D01*
X47133Y-38185D02*
X47133Y-37811D01*
X47330Y-37811D02*
X47133Y-37811D01*
X47330Y-38185D02*
X47330Y-37811D01*
X46870Y-38185D02*
X46674Y-38185D01*
X46674Y-38185D02*
X46674Y-37811D01*
X46870Y-37811D02*
X46674Y-37811D01*
X46870Y-38185D02*
X46870Y-37811D01*
X47078Y-38118D02*
X46922Y-38118D01*
X46922Y-38118D02*
X46922Y-37882D01*
X47078Y-37882D02*
X46922Y-37882D01*
X47078Y-38118D02*
X47078Y-37882D01*
G54D11*
X47140Y-37830D02*
X46860Y-37830D01*
X47140Y-38164D02*
X46860Y-38164D01*
G54D12*
X43420Y-44315D02*
X43617Y-44315D01*
X43617Y-44315D02*
X43617Y-44689D01*
X43420Y-44689D02*
X43617Y-44689D01*
X43420Y-44315D02*
X43420Y-44689D01*
X43880Y-44315D02*
X44076Y-44315D01*
X44076Y-44315D02*
X44076Y-44689D01*
X43880Y-44689D02*
X44076Y-44689D01*
X43880Y-44315D02*
X43880Y-44689D01*
X43672Y-44382D02*
X43828Y-44382D01*
X43828Y-44382D02*
X43828Y-44618D01*
X43672Y-44618D02*
X43828Y-44618D01*
X43672Y-44382D02*
X43672Y-44618D01*
G54D11*
X43610Y-44670D02*
X43890Y-44670D01*
X43610Y-44336D02*
X43890Y-44336D01*
G54D12*
X45170Y-37815D02*
X45367Y-37815D01*
X45367Y-37815D02*
X45367Y-38189D01*
X45170Y-38189D02*
X45367Y-38189D01*
X45170Y-37815D02*
X45170Y-38189D01*
X45630Y-37815D02*
X45826Y-37815D01*
X45826Y-37815D02*
X45826Y-38189D01*
X45630Y-38189D02*
X45826Y-38189D01*
X45630Y-37815D02*
X45630Y-38189D01*
X45422Y-37882D02*
X45578Y-37882D01*
X45578Y-37882D02*
X45578Y-38118D01*
X45422Y-38118D02*
X45578Y-38118D01*
X45422Y-37882D02*
X45422Y-38118D01*
G54D11*
X45360Y-38170D02*
X45640Y-38170D01*
X45360Y-37836D02*
X45640Y-37836D01*
G54D12*
X35826Y-35065D02*
X36023Y-35065D01*
X36023Y-35065D02*
X36023Y-35439D01*
X35826Y-35439D02*
X36023Y-35439D01*
X35826Y-35065D02*
X35826Y-35439D01*
X36286Y-35065D02*
X36482Y-35065D01*
X36482Y-35065D02*
X36482Y-35439D01*
X36286Y-35439D02*
X36482Y-35439D01*
X36286Y-35065D02*
X36286Y-35439D01*
X36078Y-35132D02*
X36234Y-35132D01*
X36234Y-35132D02*
X36234Y-35368D01*
X36078Y-35368D02*
X36234Y-35368D01*
X36078Y-35132D02*
X36078Y-35368D01*
G54D11*
X36016Y-35420D02*
X36296Y-35420D01*
X36016Y-35086D02*
X36296Y-35086D01*
G54D12*
X35526Y-41065D02*
X35723Y-41065D01*
X35723Y-41065D02*
X35723Y-41439D01*
X35526Y-41439D02*
X35723Y-41439D01*
X35526Y-41065D02*
X35526Y-41439D01*
X35986Y-41065D02*
X36182Y-41065D01*
X36182Y-41065D02*
X36182Y-41439D01*
X35986Y-41439D02*
X36182Y-41439D01*
X35986Y-41065D02*
X35986Y-41439D01*
X35778Y-41132D02*
X35934Y-41132D01*
X35934Y-41132D02*
X35934Y-41368D01*
X35778Y-41368D02*
X35934Y-41368D01*
X35778Y-41132D02*
X35778Y-41368D01*
G54D11*
X35716Y-41420D02*
X35996Y-41420D01*
X35716Y-41086D02*
X35996Y-41086D01*
G54D12*
X41932Y-35315D02*
X42129Y-35315D01*
X42129Y-35315D02*
X42129Y-35689D01*
X41932Y-35689D02*
X42129Y-35689D01*
X41932Y-35315D02*
X41932Y-35689D01*
X42392Y-35315D02*
X42588Y-35315D01*
X42588Y-35315D02*
X42588Y-35689D01*
X42392Y-35689D02*
X42588Y-35689D01*
X42392Y-35315D02*
X42392Y-35689D01*
X42184Y-35382D02*
X42340Y-35382D01*
X42340Y-35382D02*
X42340Y-35618D01*
X42184Y-35618D02*
X42340Y-35618D01*
X42184Y-35382D02*
X42184Y-35618D01*
G54D11*
X42122Y-35670D02*
X42402Y-35670D01*
X42122Y-35336D02*
X42402Y-35336D01*
G54D12*
X40842Y-37685D02*
X40645Y-37685D01*
X40645Y-37685D02*
X40645Y-37311D01*
X40842Y-37311D02*
X40645Y-37311D01*
X40842Y-37685D02*
X40842Y-37311D01*
X40382Y-37685D02*
X40186Y-37685D01*
X40186Y-37685D02*
X40186Y-37311D01*
X40382Y-37311D02*
X40186Y-37311D01*
X40382Y-37685D02*
X40382Y-37311D01*
X40590Y-37618D02*
X40434Y-37618D01*
X40434Y-37618D02*
X40434Y-37382D01*
X40590Y-37382D02*
X40434Y-37382D01*
X40590Y-37618D02*
X40590Y-37382D01*
G54D11*
X40652Y-37330D02*
X40372Y-37330D01*
X40652Y-37664D02*
X40372Y-37664D01*
G54D12*
X40182Y-36315D02*
X40379Y-36315D01*
X40379Y-36315D02*
X40379Y-36689D01*
X40182Y-36689D02*
X40379Y-36689D01*
X40182Y-36315D02*
X40182Y-36689D01*
X40642Y-36315D02*
X40838Y-36315D01*
X40838Y-36315D02*
X40838Y-36689D01*
X40642Y-36689D02*
X40838Y-36689D01*
X40642Y-36315D02*
X40642Y-36689D01*
X40434Y-36382D02*
X40590Y-36382D01*
X40590Y-36382D02*
X40590Y-36618D01*
X40434Y-36618D02*
X40590Y-36618D01*
X40434Y-36382D02*
X40434Y-36618D01*
G54D11*
X40372Y-36670D02*
X40652Y-36670D01*
X40372Y-36336D02*
X40652Y-36336D01*
G54D12*
X40182Y-40315D02*
X40379Y-40315D01*
X40379Y-40315D02*
X40379Y-40689D01*
X40182Y-40689D02*
X40379Y-40689D01*
X40182Y-40315D02*
X40182Y-40689D01*
X40642Y-40315D02*
X40838Y-40315D01*
X40838Y-40315D02*
X40838Y-40689D01*
X40642Y-40689D02*
X40838Y-40689D01*
X40642Y-40315D02*
X40642Y-40689D01*
X40434Y-40382D02*
X40590Y-40382D01*
X40590Y-40382D02*
X40590Y-40618D01*
X40434Y-40618D02*
X40590Y-40618D01*
X40434Y-40382D02*
X40434Y-40618D01*
G54D11*
X40372Y-40670D02*
X40652Y-40670D01*
X40372Y-40336D02*
X40652Y-40336D01*
G54D12*
X42592Y-38685D02*
X42395Y-38685D01*
X42395Y-38685D02*
X42395Y-38311D01*
X42592Y-38311D02*
X42395Y-38311D01*
X42592Y-38685D02*
X42592Y-38311D01*
X42132Y-38685D02*
X41936Y-38685D01*
X41936Y-38685D02*
X41936Y-38311D01*
X42132Y-38311D02*
X41936Y-38311D01*
X42132Y-38685D02*
X42132Y-38311D01*
X42340Y-38618D02*
X42184Y-38618D01*
X42184Y-38618D02*
X42184Y-38382D01*
X42340Y-38382D02*
X42184Y-38382D01*
X42340Y-38618D02*
X42340Y-38382D01*
G54D11*
X42402Y-38330D02*
X42122Y-38330D01*
X42402Y-38664D02*
X42122Y-38664D01*
G54D12*
X42592Y-37685D02*
X42395Y-37685D01*
X42395Y-37685D02*
X42395Y-37311D01*
X42592Y-37311D02*
X42395Y-37311D01*
X42592Y-37685D02*
X42592Y-37311D01*
X42132Y-37685D02*
X41936Y-37685D01*
X41936Y-37685D02*
X41936Y-37311D01*
X42132Y-37311D02*
X41936Y-37311D01*
X42132Y-37685D02*
X42132Y-37311D01*
X42340Y-37618D02*
X42184Y-37618D01*
X42184Y-37618D02*
X42184Y-37382D01*
X42340Y-37382D02*
X42184Y-37382D01*
X42340Y-37618D02*
X42340Y-37382D01*
G54D11*
X42402Y-37330D02*
X42122Y-37330D01*
X42402Y-37664D02*
X42122Y-37664D01*
G54D12*
X41932Y-40315D02*
X42129Y-40315D01*
X42129Y-40315D02*
X42129Y-40689D01*
X41932Y-40689D02*
X42129Y-40689D01*
X41932Y-40315D02*
X41932Y-40689D01*
X42392Y-40315D02*
X42588Y-40315D01*
X42588Y-40315D02*
X42588Y-40689D01*
X42392Y-40689D02*
X42588Y-40689D01*
X42392Y-40315D02*
X42392Y-40689D01*
X42184Y-40382D02*
X42340Y-40382D01*
X42340Y-40382D02*
X42340Y-40618D01*
X42184Y-40618D02*
X42340Y-40618D01*
X42184Y-40382D02*
X42184Y-40618D01*
G54D11*
X42122Y-40670D02*
X42402Y-40670D01*
X42122Y-40336D02*
X42402Y-40336D01*
G54D12*
X40842Y-35685D02*
X40645Y-35685D01*
X40645Y-35685D02*
X40645Y-35311D01*
X40842Y-35311D02*
X40645Y-35311D01*
X40842Y-35685D02*
X40842Y-35311D01*
X40382Y-35685D02*
X40186Y-35685D01*
X40186Y-35685D02*
X40186Y-35311D01*
X40382Y-35311D02*
X40186Y-35311D01*
X40382Y-35685D02*
X40382Y-35311D01*
X40590Y-35618D02*
X40434Y-35618D01*
X40434Y-35618D02*
X40434Y-35382D01*
X40590Y-35382D02*
X40434Y-35382D01*
X40590Y-35618D02*
X40590Y-35382D01*
G54D11*
X40652Y-35330D02*
X40372Y-35330D01*
X40652Y-35664D02*
X40372Y-35664D01*
G54D12*
X40182Y-38315D02*
X40379Y-38315D01*
X40379Y-38315D02*
X40379Y-38689D01*
X40182Y-38689D02*
X40379Y-38689D01*
X40182Y-38315D02*
X40182Y-38689D01*
X40642Y-38315D02*
X40838Y-38315D01*
X40838Y-38315D02*
X40838Y-38689D01*
X40642Y-38689D02*
X40838Y-38689D01*
X40642Y-38315D02*
X40642Y-38689D01*
X40434Y-38382D02*
X40590Y-38382D01*
X40590Y-38382D02*
X40590Y-38618D01*
X40434Y-38618D02*
X40590Y-38618D01*
X40434Y-38382D02*
X40434Y-38618D01*
G54D11*
X40372Y-38670D02*
X40652Y-38670D01*
X40372Y-38336D02*
X40652Y-38336D01*
G54D10*
X36789Y-36159D02*
G75*
G03X36789Y-36159I-139J0D01*
G74*
G01*
X36256Y-35765D02*
X35468Y-35765D01*
X35468Y-35765D02*
X35468Y-37734D01*
X35468Y-37734D02*
X37043Y-37734D01*
X37043Y-37734D02*
X37043Y-35765D01*
X37043Y-35765D02*
X36256Y-35765D01*
X36789Y-39159D02*
G75*
G03X36789Y-39159I-139J0D01*
G74*
G01*
X36256Y-38765D02*
X35468Y-38765D01*
X35468Y-38765D02*
X35468Y-40734D01*
X35468Y-40734D02*
X37043Y-40734D01*
X37043Y-40734D02*
X37043Y-38765D01*
X37043Y-38765D02*
X36256Y-38765D01*
G54D18*
G36*
X47897Y-34586D02*
X47886Y-34732D01*
X47856Y-34883D01*
X47812Y-35036D01*
X47751Y-35187D01*
X47702Y-35285D01*
X47622Y-35412D01*
X47524Y-35533D01*
X47410Y-35648D01*
X47287Y-35749D01*
X47157Y-35836D01*
X47024Y-35905D01*
X46980Y-35923D01*
X46857Y-35960D01*
X46722Y-35984D01*
X46584Y-35995D01*
X46452Y-35990D01*
X46398Y-35983D01*
X46263Y-35951D01*
X46144Y-35904D01*
X46044Y-35842D01*
X45960Y-35765D01*
X45896Y-35673D01*
X45885Y-35652D01*
X45864Y-35586D01*
X45857Y-35511D01*
X45866Y-35437D01*
X45888Y-35375D01*
X45929Y-35313D01*
X45990Y-35249D01*
X46066Y-35186D01*
X46152Y-35127D01*
X46242Y-35076D01*
X46335Y-35034D01*
X46336Y-35034D01*
X46418Y-35008D01*
X46512Y-34987D01*
X46622Y-34971D01*
X46752Y-34959D01*
X46798Y-34956D01*
X46868Y-34950D01*
X46936Y-34944D01*
X46993Y-34936D01*
X47036Y-34928D01*
X47047Y-34925D01*
X47097Y-34903D01*
X47138Y-34872D01*
X47164Y-34836D01*
X47171Y-34808D01*
X47160Y-34758D01*
X47129Y-34700D01*
X47080Y-34636D01*
X47014Y-34567D01*
X46933Y-34497D01*
X46903Y-34472D01*
X46836Y-34417D01*
X46768Y-34354D01*
X46703Y-34288D01*
X46643Y-34223D01*
X46593Y-34162D01*
X46558Y-34111D01*
X46551Y-34098D01*
X46516Y-34024D01*
X46498Y-33960D01*
X46493Y-33900D01*
X46500Y-33838D01*
X46525Y-33746D01*
X46566Y-33670D01*
X46618Y-33612D01*
X46680Y-33572D01*
X46709Y-33563D01*
X46763Y-33556D01*
X46829Y-33557D01*
X46899Y-33568D01*
X46957Y-33583D01*
X47026Y-33617D01*
X47086Y-33667D01*
X47132Y-33728D01*
X47162Y-33794D01*
X47171Y-33856D01*
X47169Y-33902D01*
X47164Y-33926D01*
X47150Y-33928D01*
X47126Y-33912D01*
X47102Y-33889D01*
X47038Y-33837D01*
X46967Y-33796D01*
X46895Y-33768D01*
X46828Y-33756D01*
X46823Y-33756D01*
X46756Y-33765D01*
X46695Y-33789D01*
X46648Y-33824D01*
X46637Y-33837D01*
X46617Y-33884D01*
X46608Y-33942D01*
X46612Y-34003D01*
X46629Y-34060D01*
X46631Y-34062D01*
X46676Y-34134D01*
X46744Y-34209D01*
X46834Y-34287D01*
X46942Y-34364D01*
X47057Y-34435D01*
X47165Y-34499D01*
X47252Y-34556D01*
X47322Y-34611D01*
X47376Y-34664D01*
X47416Y-34717D01*
X47435Y-34750D01*
X47456Y-34815D01*
X47454Y-34878D01*
X47431Y-34939D01*
X47388Y-34994D01*
X47325Y-35041D01*
X47248Y-35078D01*
X47224Y-35086D01*
X47198Y-35093D01*
X47169Y-35097D01*
X47132Y-35101D01*
X47084Y-35104D01*
X47021Y-35105D01*
X46940Y-35107D01*
X46896Y-35108D01*
X46762Y-35111D01*
X46651Y-35116D01*
X46556Y-35126D01*
X46479Y-35139D01*
X46412Y-35157D01*
X46355Y-35180D01*
X46304Y-35211D01*
X46256Y-35247D01*
X46240Y-35260D01*
X46176Y-35329D01*
X46133Y-35403D01*
X46112Y-35479D01*
X46112Y-35553D01*
X46128Y-35612D01*
X46173Y-35688D01*
X46238Y-35748D01*
X46320Y-35796D01*
X46421Y-35831D01*
X46536Y-35850D01*
X46638Y-35855D01*
X46779Y-35844D01*
X46917Y-35808D01*
X47052Y-35749D01*
X47184Y-35668D01*
X47312Y-35564D01*
X47360Y-35518D01*
X47480Y-35382D01*
X47579Y-35236D01*
X47656Y-35083D01*
X47712Y-34924D01*
X47748Y-34760D01*
X47764Y-34595D01*
X47758Y-34431D01*
X47731Y-34267D01*
X47684Y-34106D01*
X47615Y-33950D01*
X47525Y-33802D01*
X47416Y-33663D01*
X47339Y-33584D01*
X47204Y-33472D01*
X47060Y-33380D01*
X46907Y-33308D01*
X46748Y-33258D01*
X46584Y-33227D01*
X46420Y-33217D01*
X46256Y-33228D01*
X46092Y-33259D01*
X45932Y-33310D01*
X45780Y-33382D01*
X45636Y-33475D01*
X45504Y-33584D01*
X45415Y-33676D01*
X45341Y-33766D01*
X45278Y-33864D01*
X45222Y-33967D01*
X45151Y-34135D01*
X45104Y-34304D01*
X45079Y-34476D01*
X45078Y-34651D01*
X45083Y-34715D01*
X45106Y-34870D01*
X45143Y-35016D01*
X45194Y-35154D01*
X45262Y-35288D01*
X45348Y-35418D01*
X45452Y-35548D01*
X45576Y-35680D01*
X45723Y-35816D01*
X45739Y-35830D01*
X45766Y-35855D01*
X45776Y-35866D01*
X45769Y-35864D01*
X45748Y-35851D01*
X45715Y-35828D01*
X45669Y-35794D01*
X45614Y-35752D01*
X45599Y-35739D01*
X45461Y-35627D01*
X45345Y-35520D01*
X45248Y-35415D01*
X45168Y-35309D01*
X45103Y-35200D01*
X45051Y-35085D01*
X45011Y-34960D01*
X44980Y-34825D01*
X44976Y-34801D01*
X44956Y-34614D01*
X44959Y-34432D01*
X44984Y-34252D01*
X45033Y-34077D01*
X45104Y-33910D01*
X45195Y-33752D01*
X45308Y-33605D01*
X45404Y-33504D01*
X45540Y-33388D01*
X45681Y-33291D01*
X45833Y-33215D01*
X45998Y-33156D01*
X46178Y-33114D01*
X46205Y-33109D01*
X46300Y-33095D01*
X46382Y-33087D01*
X46457Y-33087D01*
X46536Y-33093D01*
X46628Y-33108D01*
X46633Y-33108D01*
X46824Y-33151D01*
X47000Y-33213D01*
X47164Y-33295D01*
X47314Y-33396D01*
X47453Y-33517D01*
X47484Y-33550D01*
X47597Y-33680D01*
X47691Y-33818D01*
X47766Y-33966D01*
X47824Y-34126D01*
X47868Y-34301D01*
X47891Y-34453D01*
X47897Y-34586D01*
X47897Y-34586D01*
X47897Y-34586D01*
G37*
G36*
X46631Y-34768D02*
X46620Y-34800D01*
X46591Y-34823D01*
X46544Y-34834D01*
X46484Y-34832D01*
X46411Y-34820D01*
X46400Y-34817D01*
X46294Y-34801D01*
X46187Y-34809D01*
X46079Y-34840D01*
X45968Y-34895D01*
X45968Y-34896D01*
X45889Y-34953D01*
X45812Y-35032D01*
X45740Y-35128D01*
X45672Y-35237D01*
X45615Y-35356D01*
X45608Y-35372D01*
X45589Y-35418D01*
X45572Y-35455D01*
X45561Y-35477D01*
X45559Y-35480D01*
X45555Y-35474D01*
X45555Y-35448D01*
X45557Y-35410D01*
X45558Y-35402D01*
X45572Y-35299D01*
X45596Y-35205D01*
X45633Y-35112D01*
X45651Y-35076D01*
X45716Y-34968D01*
X45800Y-34871D01*
X45900Y-34786D01*
X46011Y-34718D01*
X46131Y-34668D01*
X46135Y-34668D01*
X46211Y-34649D01*
X46289Y-34641D01*
X46368Y-34641D01*
X46442Y-34649D01*
X46508Y-34665D01*
X46564Y-34687D01*
X46604Y-34715D01*
X46628Y-34748D01*
X46631Y-34768D01*
X46631Y-34768D01*
X46631Y-34768D01*
G37*
G36*
X46788Y-34553D02*
X46781Y-34588D01*
X46763Y-34610D01*
X46730Y-34618D01*
X46682Y-34614D01*
X46616Y-34596D01*
X46567Y-34580D01*
X46517Y-34564D01*
X46479Y-34553D01*
X46440Y-34546D01*
X46396Y-34543D01*
X46339Y-34542D01*
X46308Y-34541D01*
X46240Y-34542D01*
X46187Y-34544D01*
X46144Y-34550D01*
X46105Y-34560D01*
X46075Y-34569D01*
X45948Y-34625D01*
X45828Y-34703D01*
X45714Y-34804D01*
X45607Y-34928D01*
X45507Y-35076D01*
X45444Y-35187D01*
X45420Y-35231D01*
X45400Y-35264D01*
X45388Y-35283D01*
X45384Y-35284D01*
X45388Y-35268D01*
X45397Y-35235D01*
X45410Y-35189D01*
X45421Y-35152D01*
X45479Y-34998D01*
X45549Y-34857D01*
X45631Y-34734D01*
X45724Y-34629D01*
X45795Y-34568D01*
X45921Y-34485D01*
X46050Y-34422D01*
X46181Y-34381D01*
X46312Y-34362D01*
X46441Y-34365D01*
X46493Y-34373D01*
X46581Y-34396D01*
X46657Y-34425D01*
X46719Y-34459D01*
X46761Y-34496D01*
X46784Y-34533D01*
X46788Y-34553D01*
X46788Y-34553D01*
X46788Y-34553D01*
G37*
G54D12*
X34080Y-50820D02*
X33920Y-50820D01*
X33920Y-50820D02*
X33920Y-50480D01*
X34080Y-50480D02*
X33920Y-50480D01*
X34080Y-50820D02*
X34080Y-50480D01*
X34580Y-50820D02*
X34420Y-50820D01*
X34420Y-50820D02*
X34420Y-50480D01*
X34580Y-50480D02*
X34420Y-50480D01*
X34580Y-50820D02*
X34580Y-50480D01*
X34328Y-50807D02*
X34172Y-50807D01*
X34172Y-50807D02*
X34172Y-50493D01*
X34328Y-50493D02*
X34172Y-50493D01*
X34328Y-50807D02*
X34328Y-50493D01*
G54D13*
X34420Y-50790D02*
X34080Y-50790D01*
X34080Y-50510D02*
X34420Y-50510D01*
G54D12*
X34580Y-51635D02*
X34383Y-51635D01*
X34383Y-51635D02*
X34383Y-51261D01*
X34580Y-51261D02*
X34383Y-51261D01*
X34580Y-51635D02*
X34580Y-51261D01*
X34120Y-51635D02*
X33924Y-51635D01*
X33924Y-51635D02*
X33924Y-51261D01*
X34120Y-51261D02*
X33924Y-51261D01*
X34120Y-51635D02*
X34120Y-51261D01*
X34328Y-51568D02*
X34172Y-51568D01*
X34172Y-51568D02*
X34172Y-51332D01*
X34328Y-51332D02*
X34172Y-51332D01*
X34328Y-51568D02*
X34328Y-51332D01*
G54D11*
X34390Y-51280D02*
X34110Y-51280D01*
X34390Y-51614D02*
X34110Y-51614D01*
X42283Y-37130D02*
X42378Y-37130D01*
X42378Y-36930D01*
X42121Y-36930D02*
X42216Y-36930D01*
X42226Y-37026D01*
X42216Y-37016D01*
X42197Y-37007D01*
X42150Y-37007D01*
X42130Y-37016D01*
X42121Y-37026D01*
X42111Y-37045D01*
X42111Y-37092D01*
X42121Y-37111D01*
X42130Y-37121D01*
X42150Y-37130D01*
X42197Y-37130D01*
X42216Y-37121D01*
X42226Y-37111D01*
X43333Y-47080D02*
X43428Y-47080D01*
X43428Y-46880D01*
X43238Y-46966D02*
X43257Y-46957D01*
X43266Y-46947D01*
X43276Y-46928D01*
X43276Y-46919D01*
X43266Y-46900D01*
X43257Y-46890D01*
X43238Y-46880D01*
X43200Y-46880D01*
X43180Y-46890D01*
X43171Y-46900D01*
X43161Y-46919D01*
X43161Y-46928D01*
X43171Y-46947D01*
X43180Y-46957D01*
X43200Y-46966D01*
X43238Y-46966D01*
X43257Y-46976D01*
X43266Y-46985D01*
X43276Y-47004D01*
X43276Y-47042D01*
X43266Y-47061D01*
X43257Y-47071D01*
X43238Y-47080D01*
X43200Y-47080D01*
X43180Y-47071D01*
X43171Y-47061D01*
X43161Y-47042D01*
X43161Y-47004D01*
X43171Y-46985D01*
X43180Y-46976D01*
X43200Y-46966D01*
X46883Y-47080D02*
X46978Y-47080D01*
X46978Y-46880D01*
X46807Y-47080D02*
X46769Y-47080D01*
X46750Y-47071D01*
X46740Y-47061D01*
X46721Y-47033D01*
X46711Y-46995D01*
X46711Y-46919D01*
X46721Y-46900D01*
X46730Y-46890D01*
X46750Y-46880D01*
X46788Y-46880D01*
X46807Y-46890D01*
X46816Y-46900D01*
X46826Y-46919D01*
X46826Y-46966D01*
X46816Y-46985D01*
X46807Y-46995D01*
X46788Y-47004D01*
X46750Y-47004D01*
X46730Y-46995D01*
X46721Y-46985D01*
X46711Y-46966D01*
X47928Y-47080D02*
X48023Y-47080D01*
X48023Y-46880D01*
X47757Y-47080D02*
X47871Y-47080D01*
X47814Y-47080D02*
X47814Y-46880D01*
X47833Y-46909D01*
X47852Y-46928D01*
X47871Y-46938D01*
X47576Y-46880D02*
X47671Y-46880D01*
X47680Y-46976D01*
X47671Y-46966D01*
X47652Y-46957D01*
X47604Y-46957D01*
X47585Y-46966D01*
X47576Y-46976D01*
X47566Y-46995D01*
X47566Y-47042D01*
X47576Y-47061D01*
X47585Y-47071D01*
X47604Y-47080D01*
X47652Y-47080D01*
X47671Y-47071D01*
X47680Y-47061D01*
X39033Y-51680D02*
X39128Y-51680D01*
X39128Y-51480D01*
X38976Y-51500D02*
X38966Y-51490D01*
X38947Y-51480D01*
X38900Y-51480D01*
X38880Y-51490D01*
X38871Y-51500D01*
X38861Y-51519D01*
X38861Y-51538D01*
X38871Y-51566D01*
X38985Y-51680D01*
X38861Y-51680D01*
X42283Y-40130D02*
X42378Y-40130D01*
X42378Y-39930D01*
X42130Y-39997D02*
X42130Y-40130D01*
X42178Y-39921D02*
X42226Y-40064D01*
X42102Y-40064D01*
X45283Y-47080D02*
X45378Y-47080D01*
X45378Y-46880D01*
X45235Y-46880D02*
X45102Y-46880D01*
X45188Y-47080D01*
X44283Y-47080D02*
X44378Y-47080D01*
X44378Y-46880D01*
X44130Y-46880D02*
X44169Y-46880D01*
X44188Y-46890D01*
X44197Y-46900D01*
X44216Y-46928D01*
X44226Y-46966D01*
X44226Y-47042D01*
X44216Y-47061D01*
X44207Y-47071D01*
X44188Y-47080D01*
X44150Y-47080D01*
X44130Y-47071D01*
X44121Y-47061D01*
X44111Y-47042D01*
X44111Y-46995D01*
X44121Y-46976D01*
X44130Y-46966D01*
X44150Y-46957D01*
X44188Y-46957D01*
X44207Y-46966D01*
X44216Y-46976D01*
X44226Y-46995D01*
X37128Y-44280D02*
X37223Y-44280D01*
X37223Y-44080D01*
X36957Y-44280D02*
X37071Y-44280D01*
X37014Y-44280D02*
X37014Y-44080D01*
X37033Y-44109D01*
X37052Y-44128D01*
X37071Y-44138D01*
X36833Y-44080D02*
X36814Y-44080D01*
X36795Y-44090D01*
X36785Y-44100D01*
X36776Y-44119D01*
X36766Y-44157D01*
X36766Y-44204D01*
X36776Y-44242D01*
X36785Y-44261D01*
X36795Y-44271D01*
X36814Y-44280D01*
X36833Y-44280D01*
X36852Y-44271D01*
X36861Y-44261D01*
X36871Y-44242D01*
X36880Y-44204D01*
X36880Y-44157D01*
X36871Y-44119D01*
X36861Y-44100D01*
X36852Y-44090D01*
X36833Y-44080D01*
X42603Y-34010D02*
X42603Y-34172D01*
X42594Y-34191D01*
X42584Y-34201D01*
X42565Y-34210D01*
X42527Y-34210D01*
X42508Y-34201D01*
X42499Y-34191D01*
X42489Y-34172D01*
X42489Y-34010D01*
X42289Y-34210D02*
X42403Y-34210D01*
X42346Y-34210D02*
X42346Y-34010D01*
X42365Y-34039D01*
X42384Y-34058D01*
X42403Y-34068D01*
X42118Y-34077D02*
X42118Y-34210D01*
X42165Y-34001D02*
X42213Y-34144D01*
X42089Y-34144D01*
X37997Y-33930D02*
X37997Y-34092D01*
X37988Y-34111D01*
X37978Y-34121D01*
X37959Y-34130D01*
X37921Y-34130D01*
X37902Y-34121D01*
X37892Y-34111D01*
X37883Y-34092D01*
X37883Y-33930D01*
X37683Y-34130D02*
X37797Y-34130D01*
X37740Y-34130D02*
X37740Y-33930D01*
X37759Y-33959D01*
X37778Y-33978D01*
X37797Y-33988D01*
X37616Y-33930D02*
X37492Y-33930D01*
X37559Y-34007D01*
X37530Y-34007D01*
X37511Y-34016D01*
X37502Y-34026D01*
X37492Y-34045D01*
X37492Y-34092D01*
X37502Y-34111D01*
X37511Y-34121D01*
X37530Y-34130D01*
X37588Y-34130D01*
X37607Y-34121D01*
X37616Y-34111D01*
X37945Y-47530D02*
X37945Y-47330D01*
X37735Y-47511D02*
X37745Y-47521D01*
X37773Y-47530D01*
X37792Y-47530D01*
X37821Y-47521D01*
X37840Y-47502D01*
X37850Y-47483D01*
X37859Y-47445D01*
X37859Y-47416D01*
X37850Y-47378D01*
X37840Y-47359D01*
X37821Y-47340D01*
X37792Y-47330D01*
X37773Y-47330D01*
X37745Y-47340D01*
X37735Y-47350D01*
X37545Y-47530D02*
X37659Y-47530D01*
X37602Y-47530D02*
X37602Y-47330D01*
X37621Y-47359D01*
X37640Y-47378D01*
X37659Y-47388D01*
X46402Y-40380D02*
X46402Y-40542D01*
X46392Y-40561D01*
X46383Y-40571D01*
X46364Y-40580D01*
X46326Y-40580D01*
X46307Y-40571D01*
X46297Y-40561D01*
X46288Y-40542D01*
X46288Y-40380D01*
X46164Y-40466D02*
X46183Y-40457D01*
X46192Y-40447D01*
X46202Y-40428D01*
X46202Y-40419D01*
X46192Y-40400D01*
X46183Y-40390D01*
X46164Y-40380D01*
X46126Y-40380D01*
X46107Y-40390D01*
X46097Y-40400D01*
X46088Y-40419D01*
X46088Y-40428D01*
X46097Y-40447D01*
X46107Y-40457D01*
X46126Y-40466D01*
X46164Y-40466D01*
X46183Y-40476D01*
X46192Y-40485D01*
X46202Y-40504D01*
X46202Y-40542D01*
X46192Y-40561D01*
X46183Y-40571D01*
X46164Y-40580D01*
X46126Y-40580D01*
X46107Y-40571D01*
X46097Y-40561D01*
X46088Y-40542D01*
X46088Y-40504D01*
X46097Y-40485D01*
X46107Y-40476D01*
X46126Y-40466D01*
X40997Y-34530D02*
X40997Y-34692D01*
X40988Y-34711D01*
X40978Y-34721D01*
X40959Y-34730D01*
X40921Y-34730D01*
X40902Y-34721D01*
X40892Y-34711D01*
X40883Y-34692D01*
X40883Y-34530D01*
X40683Y-34730D02*
X40797Y-34730D01*
X40740Y-34730D02*
X40740Y-34530D01*
X40759Y-34559D01*
X40778Y-34578D01*
X40797Y-34588D01*
X40559Y-34530D02*
X40540Y-34530D01*
X40521Y-34540D01*
X40511Y-34550D01*
X40502Y-34569D01*
X40492Y-34607D01*
X40492Y-34654D01*
X40502Y-34692D01*
X40511Y-34711D01*
X40521Y-34721D01*
X40540Y-34730D01*
X40559Y-34730D01*
X40578Y-34721D01*
X40588Y-34711D01*
X40597Y-34692D01*
X40607Y-34654D01*
X40607Y-34607D01*
X40597Y-34569D01*
X40588Y-34550D01*
X40578Y-34540D01*
X40559Y-34530D01*
X39508Y-34530D02*
X39508Y-34692D01*
X39499Y-34711D01*
X39489Y-34721D01*
X39470Y-34730D01*
X39432Y-34730D01*
X39413Y-34721D01*
X39403Y-34711D01*
X39394Y-34692D01*
X39394Y-34530D01*
X39289Y-34730D02*
X39251Y-34730D01*
X39232Y-34721D01*
X39222Y-34711D01*
X39203Y-34683D01*
X39194Y-34645D01*
X39194Y-34569D01*
X39203Y-34550D01*
X39213Y-34540D01*
X39232Y-34530D01*
X39270Y-34530D01*
X39289Y-34540D01*
X39299Y-34550D01*
X39308Y-34569D01*
X39308Y-34616D01*
X39299Y-34635D01*
X39289Y-34645D01*
X39270Y-34654D01*
X39232Y-34654D01*
X39213Y-34645D01*
X39203Y-34635D01*
X39194Y-34616D01*
X39478Y-37830D02*
X39545Y-37735D01*
X39592Y-37830D02*
X39592Y-37630D01*
X39516Y-37630D01*
X39497Y-37640D01*
X39488Y-37650D01*
X39478Y-37669D01*
X39478Y-37697D01*
X39488Y-37716D01*
X39497Y-37726D01*
X39516Y-37735D01*
X39592Y-37735D01*
X39288Y-37830D02*
X39402Y-37830D01*
X39345Y-37830D02*
X39345Y-37630D01*
X39364Y-37659D01*
X39383Y-37678D01*
X39402Y-37688D01*
X39173Y-37716D02*
X39192Y-37707D01*
X39202Y-37697D01*
X39211Y-37678D01*
X39211Y-37669D01*
X39202Y-37650D01*
X39192Y-37640D01*
X39173Y-37630D01*
X39135Y-37630D01*
X39116Y-37640D01*
X39107Y-37650D01*
X39097Y-37669D01*
X39097Y-37678D01*
X39107Y-37697D01*
X39116Y-37707D01*
X39135Y-37716D01*
X39173Y-37716D01*
X39192Y-37726D01*
X39202Y-37735D01*
X39211Y-37754D01*
X39211Y-37792D01*
X39202Y-37811D01*
X39192Y-37821D01*
X39173Y-37830D01*
X39135Y-37830D01*
X39116Y-37821D01*
X39107Y-37811D01*
X39097Y-37792D01*
X39097Y-37754D01*
X39107Y-37735D01*
X39116Y-37726D01*
X39135Y-37716D01*
X39478Y-36330D02*
X39545Y-36235D01*
X39592Y-36330D02*
X39592Y-36130D01*
X39516Y-36130D01*
X39497Y-36140D01*
X39488Y-36150D01*
X39478Y-36169D01*
X39478Y-36197D01*
X39488Y-36216D01*
X39497Y-36226D01*
X39516Y-36235D01*
X39592Y-36235D01*
X39402Y-36150D02*
X39392Y-36140D01*
X39373Y-36130D01*
X39326Y-36130D01*
X39307Y-36140D01*
X39297Y-36150D01*
X39288Y-36169D01*
X39288Y-36188D01*
X39297Y-36216D01*
X39411Y-36330D01*
X39288Y-36330D01*
X39164Y-36130D02*
X39145Y-36130D01*
X39126Y-36140D01*
X39116Y-36150D01*
X39107Y-36169D01*
X39097Y-36207D01*
X39097Y-36254D01*
X39107Y-36292D01*
X39116Y-36311D01*
X39126Y-36321D01*
X39145Y-36330D01*
X39164Y-36330D01*
X39183Y-36321D01*
X39192Y-36311D01*
X39202Y-36292D01*
X39211Y-36254D01*
X39211Y-36207D01*
X39202Y-36169D01*
X39192Y-36150D01*
X39183Y-36140D01*
X39164Y-36130D01*
X40628Y-40080D02*
X40695Y-39985D01*
X40742Y-40080D02*
X40742Y-39880D01*
X40666Y-39880D01*
X40647Y-39890D01*
X40638Y-39900D01*
X40628Y-39919D01*
X40628Y-39947D01*
X40638Y-39966D01*
X40647Y-39976D01*
X40666Y-39985D01*
X40742Y-39985D01*
X40438Y-40080D02*
X40552Y-40080D01*
X40495Y-40080D02*
X40495Y-39880D01*
X40514Y-39909D01*
X40533Y-39928D01*
X40552Y-39938D01*
X40247Y-40080D02*
X40361Y-40080D01*
X40304Y-40080D02*
X40304Y-39880D01*
X40323Y-39909D01*
X40342Y-39928D01*
X40361Y-39938D01*
X37828Y-51230D02*
X37895Y-51135D01*
X37942Y-51230D02*
X37942Y-51030D01*
X37866Y-51030D01*
X37847Y-51040D01*
X37838Y-51050D01*
X37828Y-51069D01*
X37828Y-51097D01*
X37838Y-51116D01*
X37847Y-51126D01*
X37866Y-51135D01*
X37942Y-51135D01*
X37752Y-51050D02*
X37742Y-51040D01*
X37723Y-51030D01*
X37676Y-51030D01*
X37657Y-51040D01*
X37647Y-51050D01*
X37638Y-51069D01*
X37638Y-51088D01*
X37647Y-51116D01*
X37761Y-51230D01*
X37638Y-51230D01*
X37447Y-51230D02*
X37561Y-51230D01*
X37504Y-51230D02*
X37504Y-51030D01*
X37523Y-51059D01*
X37542Y-51078D01*
X37561Y-51088D01*
X42683Y-45330D02*
X42750Y-45235D01*
X42797Y-45330D02*
X42797Y-45130D01*
X42721Y-45130D01*
X42702Y-45140D01*
X42692Y-45150D01*
X42683Y-45169D01*
X42683Y-45197D01*
X42692Y-45216D01*
X42702Y-45226D01*
X42721Y-45235D01*
X42797Y-45235D01*
X42511Y-45197D02*
X42511Y-45330D01*
X42559Y-45121D02*
X42607Y-45264D01*
X42483Y-45264D01*
X40033Y-44280D02*
X40100Y-44185D01*
X40147Y-44280D02*
X40147Y-44080D01*
X40071Y-44080D01*
X40052Y-44090D01*
X40042Y-44100D01*
X40033Y-44119D01*
X40033Y-44147D01*
X40042Y-44166D01*
X40052Y-44176D01*
X40071Y-44185D01*
X40147Y-44185D01*
X39842Y-44280D02*
X39957Y-44280D01*
X39900Y-44280D02*
X39900Y-44080D01*
X39919Y-44109D01*
X39938Y-44128D01*
X39957Y-44138D01*
X35378Y-45080D02*
X35445Y-44985D01*
X35492Y-45080D02*
X35492Y-44880D01*
X35416Y-44880D01*
X35397Y-44890D01*
X35388Y-44900D01*
X35378Y-44919D01*
X35378Y-44947D01*
X35388Y-44966D01*
X35397Y-44976D01*
X35416Y-44985D01*
X35492Y-44985D01*
X35302Y-44900D02*
X35292Y-44890D01*
X35273Y-44880D01*
X35226Y-44880D01*
X35207Y-44890D01*
X35197Y-44900D01*
X35188Y-44919D01*
X35188Y-44938D01*
X35197Y-44966D01*
X35311Y-45080D01*
X35188Y-45080D01*
X35111Y-44900D02*
X35102Y-44890D01*
X35083Y-44880D01*
X35035Y-44880D01*
X35016Y-44890D01*
X35007Y-44900D01*
X34997Y-44919D01*
X34997Y-44938D01*
X35007Y-44966D01*
X35121Y-45080D01*
X34997Y-45080D01*
X40233Y-51230D02*
X40300Y-51135D01*
X40347Y-51230D02*
X40347Y-51030D01*
X40271Y-51030D01*
X40252Y-51040D01*
X40242Y-51050D01*
X40233Y-51069D01*
X40233Y-51097D01*
X40242Y-51116D01*
X40252Y-51126D01*
X40271Y-51135D01*
X40347Y-51135D01*
X40166Y-51030D02*
X40042Y-51030D01*
X40109Y-51107D01*
X40080Y-51107D01*
X40061Y-51116D01*
X40052Y-51126D01*
X40042Y-51145D01*
X40042Y-51192D01*
X40052Y-51211D01*
X40061Y-51221D01*
X40080Y-51230D01*
X40138Y-51230D01*
X40157Y-51221D01*
X40166Y-51211D01*
X39478Y-37080D02*
X39545Y-36985D01*
X39592Y-37080D02*
X39592Y-36880D01*
X39516Y-36880D01*
X39497Y-36890D01*
X39488Y-36900D01*
X39478Y-36919D01*
X39478Y-36947D01*
X39488Y-36966D01*
X39497Y-36976D01*
X39516Y-36985D01*
X39592Y-36985D01*
X39288Y-37080D02*
X39402Y-37080D01*
X39345Y-37080D02*
X39345Y-36880D01*
X39364Y-36909D01*
X39383Y-36928D01*
X39402Y-36938D01*
X39116Y-36947D02*
X39116Y-37080D01*
X39164Y-36871D02*
X39211Y-37014D01*
X39088Y-37014D01*
X39478Y-39330D02*
X39545Y-39235D01*
X39592Y-39330D02*
X39592Y-39130D01*
X39516Y-39130D01*
X39497Y-39140D01*
X39488Y-39150D01*
X39478Y-39169D01*
X39478Y-39197D01*
X39488Y-39216D01*
X39497Y-39226D01*
X39516Y-39235D01*
X39592Y-39235D01*
X39288Y-39330D02*
X39402Y-39330D01*
X39345Y-39330D02*
X39345Y-39130D01*
X39364Y-39159D01*
X39383Y-39178D01*
X39402Y-39188D01*
X39192Y-39330D02*
X39154Y-39330D01*
X39135Y-39321D01*
X39126Y-39311D01*
X39107Y-39283D01*
X39097Y-39245D01*
X39097Y-39169D01*
X39107Y-39150D01*
X39116Y-39140D01*
X39135Y-39130D01*
X39173Y-39130D01*
X39192Y-39140D01*
X39202Y-39150D01*
X39211Y-39169D01*
X39211Y-39216D01*
X39202Y-39235D01*
X39192Y-39245D01*
X39173Y-39254D01*
X39135Y-39254D01*
X39116Y-39245D01*
X39107Y-39235D01*
X39097Y-39216D01*
X39478Y-40830D02*
X39545Y-40735D01*
X39592Y-40830D02*
X39592Y-40630D01*
X39516Y-40630D01*
X39497Y-40640D01*
X39488Y-40650D01*
X39478Y-40669D01*
X39478Y-40697D01*
X39488Y-40716D01*
X39497Y-40726D01*
X39516Y-40735D01*
X39592Y-40735D01*
X39288Y-40830D02*
X39402Y-40830D01*
X39345Y-40830D02*
X39345Y-40630D01*
X39364Y-40659D01*
X39383Y-40678D01*
X39402Y-40688D01*
X39221Y-40630D02*
X39088Y-40630D01*
X39173Y-40830D01*
X39478Y-35580D02*
X39545Y-35485D01*
X39592Y-35580D02*
X39592Y-35380D01*
X39516Y-35380D01*
X39497Y-35390D01*
X39488Y-35400D01*
X39478Y-35419D01*
X39478Y-35447D01*
X39488Y-35466D01*
X39497Y-35476D01*
X39516Y-35485D01*
X39592Y-35485D01*
X39288Y-35580D02*
X39402Y-35580D01*
X39345Y-35580D02*
X39345Y-35380D01*
X39364Y-35409D01*
X39383Y-35428D01*
X39402Y-35438D01*
X39116Y-35380D02*
X39154Y-35380D01*
X39173Y-35390D01*
X39183Y-35400D01*
X39202Y-35428D01*
X39211Y-35466D01*
X39211Y-35542D01*
X39202Y-35561D01*
X39192Y-35571D01*
X39173Y-35580D01*
X39135Y-35580D01*
X39116Y-35571D01*
X39107Y-35561D01*
X39097Y-35542D01*
X39097Y-35495D01*
X39107Y-35476D01*
X39116Y-35466D01*
X39135Y-35457D01*
X39173Y-35457D01*
X39192Y-35466D01*
X39202Y-35476D01*
X39211Y-35495D01*
X33478Y-48830D02*
X33545Y-48735D01*
X33592Y-48830D02*
X33592Y-48630D01*
X33516Y-48630D01*
X33497Y-48640D01*
X33488Y-48650D01*
X33478Y-48669D01*
X33478Y-48697D01*
X33488Y-48716D01*
X33497Y-48726D01*
X33516Y-48735D01*
X33592Y-48735D01*
X33402Y-48650D02*
X33392Y-48640D01*
X33373Y-48630D01*
X33326Y-48630D01*
X33307Y-48640D01*
X33297Y-48650D01*
X33288Y-48669D01*
X33288Y-48688D01*
X33297Y-48716D01*
X33411Y-48830D01*
X33288Y-48830D01*
X33116Y-48697D02*
X33116Y-48830D01*
X33164Y-48621D02*
X33211Y-48764D01*
X33088Y-48764D01*
X47128Y-44030D02*
X47195Y-43935D01*
X47242Y-44030D02*
X47242Y-43830D01*
X47166Y-43830D01*
X47147Y-43840D01*
X47138Y-43850D01*
X47128Y-43869D01*
X47128Y-43897D01*
X47138Y-43916D01*
X47147Y-43926D01*
X47166Y-43935D01*
X47242Y-43935D01*
X47052Y-43850D02*
X47042Y-43840D01*
X47023Y-43830D01*
X46976Y-43830D01*
X46957Y-43840D01*
X46947Y-43850D01*
X46938Y-43869D01*
X46938Y-43888D01*
X46947Y-43916D01*
X47061Y-44030D01*
X46938Y-44030D01*
X46766Y-43830D02*
X46804Y-43830D01*
X46823Y-43840D01*
X46833Y-43850D01*
X46852Y-43878D01*
X46861Y-43916D01*
X46861Y-43992D01*
X46852Y-44011D01*
X46842Y-44021D01*
X46823Y-44030D01*
X46785Y-44030D01*
X46766Y-44021D01*
X46757Y-44011D01*
X46747Y-43992D01*
X46747Y-43945D01*
X46757Y-43926D01*
X46766Y-43916D01*
X46785Y-43907D01*
X46823Y-43907D01*
X46842Y-43916D01*
X46852Y-43926D01*
X46861Y-43945D01*
X39478Y-38580D02*
X39545Y-38485D01*
X39592Y-38580D02*
X39592Y-38380D01*
X39516Y-38380D01*
X39497Y-38390D01*
X39488Y-38400D01*
X39478Y-38419D01*
X39478Y-38447D01*
X39488Y-38466D01*
X39497Y-38476D01*
X39516Y-38485D01*
X39592Y-38485D01*
X39288Y-38580D02*
X39402Y-38580D01*
X39345Y-38580D02*
X39345Y-38380D01*
X39364Y-38409D01*
X39383Y-38428D01*
X39402Y-38438D01*
X39107Y-38380D02*
X39202Y-38380D01*
X39211Y-38476D01*
X39202Y-38466D01*
X39183Y-38457D01*
X39135Y-38457D01*
X39116Y-38466D01*
X39107Y-38476D01*
X39097Y-38495D01*
X39097Y-38542D01*
X39107Y-38561D01*
X39116Y-38571D01*
X39135Y-38580D01*
X39183Y-38580D01*
X39202Y-38571D01*
X39211Y-38561D01*
X39478Y-40080D02*
X39545Y-39985D01*
X39592Y-40080D02*
X39592Y-39880D01*
X39516Y-39880D01*
X39497Y-39890D01*
X39488Y-39900D01*
X39478Y-39919D01*
X39478Y-39947D01*
X39488Y-39966D01*
X39497Y-39976D01*
X39516Y-39985D01*
X39592Y-39985D01*
X39288Y-40080D02*
X39402Y-40080D01*
X39345Y-40080D02*
X39345Y-39880D01*
X39364Y-39909D01*
X39383Y-39928D01*
X39402Y-39938D01*
X39221Y-39880D02*
X39097Y-39880D01*
X39164Y-39957D01*
X39135Y-39957D01*
X39116Y-39966D01*
X39107Y-39976D01*
X39097Y-39995D01*
X39097Y-40042D01*
X39107Y-40061D01*
X39116Y-40071D01*
X39135Y-40080D01*
X39192Y-40080D01*
X39211Y-40071D01*
X39221Y-40061D01*
X33547Y-49780D02*
X33547Y-49580D01*
X33500Y-49580D01*
X33471Y-49590D01*
X33452Y-49609D01*
X33442Y-49628D01*
X33433Y-49666D01*
X33433Y-49695D01*
X33442Y-49733D01*
X33452Y-49752D01*
X33471Y-49771D01*
X33500Y-49780D01*
X33547Y-49780D01*
X33366Y-49580D02*
X33242Y-49580D01*
X33309Y-49657D01*
X33280Y-49657D01*
X33261Y-49666D01*
X33252Y-49676D01*
X33242Y-49695D01*
X33242Y-49742D01*
X33252Y-49761D01*
X33261Y-49771D01*
X33280Y-49780D01*
X33338Y-49780D01*
X33357Y-49771D01*
X33366Y-49761D01*
X41247Y-51680D02*
X41247Y-51480D01*
X41200Y-51480D01*
X41171Y-51490D01*
X41152Y-51509D01*
X41142Y-51528D01*
X41133Y-51566D01*
X41133Y-51595D01*
X41142Y-51633D01*
X41152Y-51652D01*
X41171Y-51671D01*
X41200Y-51680D01*
X41247Y-51680D01*
X40942Y-51680D02*
X41057Y-51680D01*
X41000Y-51680D02*
X41000Y-51480D01*
X41019Y-51509D01*
X41038Y-51528D01*
X41057Y-51538D01*
X36661Y-50080D02*
X36528Y-50280D01*
X36528Y-50080D02*
X36661Y-50280D01*
X36461Y-50100D02*
X36452Y-50090D01*
X36433Y-50080D01*
X36385Y-50080D01*
X36366Y-50090D01*
X36357Y-50100D01*
X36347Y-50119D01*
X36347Y-50138D01*
X36357Y-50166D01*
X36471Y-50280D01*
X36347Y-50280D01*
X36986Y-34121D02*
X36996Y-34111D01*
X37005Y-34083D01*
X37005Y-34064D01*
X36996Y-34035D01*
X36977Y-34016D01*
X36958Y-34007D01*
X36920Y-33997D01*
X36891Y-33997D01*
X36853Y-34007D01*
X36834Y-34016D01*
X36815Y-34035D01*
X36805Y-34064D01*
X36805Y-34083D01*
X36815Y-34111D01*
X36825Y-34121D01*
X36805Y-34188D02*
X36805Y-34311D01*
X36882Y-34245D01*
X36882Y-34273D01*
X36891Y-34292D01*
X36901Y-34302D01*
X36920Y-34311D01*
X36967Y-34311D01*
X36986Y-34302D01*
X36996Y-34292D01*
X37005Y-34273D01*
X37005Y-34216D01*
X36996Y-34197D01*
X36986Y-34188D01*
X36891Y-34426D02*
X36882Y-34407D01*
X36872Y-34397D01*
X36853Y-34388D01*
X36844Y-34388D01*
X36825Y-34397D01*
X36815Y-34407D01*
X36805Y-34426D01*
X36805Y-34464D01*
X36815Y-34483D01*
X36825Y-34492D01*
X36844Y-34502D01*
X36853Y-34502D01*
X36872Y-34492D01*
X36882Y-34483D01*
X36891Y-34464D01*
X36891Y-34426D01*
X36901Y-34407D01*
X36910Y-34397D01*
X36929Y-34388D01*
X36967Y-34388D01*
X36986Y-34397D01*
X36996Y-34407D01*
X37005Y-34426D01*
X37005Y-34464D01*
X36996Y-34483D01*
X36986Y-34492D01*
X36967Y-34502D01*
X36929Y-34502D01*
X36910Y-34492D01*
X36901Y-34483D01*
X36891Y-34464D01*
X35978Y-42861D02*
X35988Y-42871D01*
X36016Y-42880D01*
X36035Y-42880D01*
X36064Y-42871D01*
X36083Y-42852D01*
X36092Y-42833D01*
X36102Y-42795D01*
X36102Y-42766D01*
X36092Y-42728D01*
X36083Y-42709D01*
X36064Y-42690D01*
X36035Y-42680D01*
X36016Y-42680D01*
X35988Y-42690D01*
X35978Y-42700D01*
X35911Y-42680D02*
X35788Y-42680D01*
X35854Y-42757D01*
X35826Y-42757D01*
X35807Y-42766D01*
X35797Y-42776D01*
X35788Y-42795D01*
X35788Y-42842D01*
X35797Y-42861D01*
X35807Y-42871D01*
X35826Y-42880D01*
X35883Y-42880D01*
X35902Y-42871D01*
X35911Y-42861D01*
X35721Y-42680D02*
X35588Y-42680D01*
X35673Y-42880D01*
X42778Y-43811D02*
X42788Y-43821D01*
X42816Y-43830D01*
X42835Y-43830D01*
X42864Y-43821D01*
X42883Y-43802D01*
X42892Y-43783D01*
X42902Y-43745D01*
X42902Y-43716D01*
X42892Y-43678D01*
X42883Y-43659D01*
X42864Y-43640D01*
X42835Y-43630D01*
X42816Y-43630D01*
X42788Y-43640D01*
X42778Y-43650D01*
X42702Y-43650D02*
X42692Y-43640D01*
X42673Y-43630D01*
X42626Y-43630D01*
X42607Y-43640D01*
X42597Y-43650D01*
X42588Y-43669D01*
X42588Y-43688D01*
X42597Y-43716D01*
X42711Y-43830D01*
X42588Y-43830D01*
X42521Y-43630D02*
X42388Y-43630D01*
X42473Y-43830D01*
X42683Y-44561D02*
X42692Y-44571D01*
X42721Y-44580D01*
X42740Y-44580D01*
X42769Y-44571D01*
X42788Y-44552D01*
X42797Y-44533D01*
X42807Y-44495D01*
X42807Y-44466D01*
X42797Y-44428D01*
X42788Y-44409D01*
X42769Y-44390D01*
X42740Y-44380D01*
X42721Y-44380D01*
X42692Y-44390D01*
X42683Y-44400D01*
X42502Y-44380D02*
X42597Y-44380D01*
X42607Y-44476D01*
X42597Y-44466D01*
X42578Y-44457D01*
X42530Y-44457D01*
X42511Y-44466D01*
X42502Y-44476D01*
X42492Y-44495D01*
X42492Y-44542D01*
X42502Y-44561D01*
X42511Y-44571D01*
X42530Y-44580D01*
X42578Y-44580D01*
X42597Y-44571D01*
X42607Y-44561D01*
X35428Y-51911D02*
X35438Y-51921D01*
X35466Y-51930D01*
X35485Y-51930D01*
X35514Y-51921D01*
X35533Y-51902D01*
X35542Y-51883D01*
X35552Y-51845D01*
X35552Y-51816D01*
X35542Y-51778D01*
X35533Y-51759D01*
X35514Y-51740D01*
X35485Y-51730D01*
X35466Y-51730D01*
X35438Y-51740D01*
X35428Y-51750D01*
X35257Y-51797D02*
X35257Y-51930D01*
X35304Y-51721D02*
X35352Y-51864D01*
X35228Y-51864D01*
X35171Y-51730D02*
X35047Y-51730D01*
X35114Y-51807D01*
X35085Y-51807D01*
X35066Y-51816D01*
X35057Y-51826D01*
X35047Y-51845D01*
X35047Y-51892D01*
X35057Y-51911D01*
X35066Y-51921D01*
X35085Y-51930D01*
X35142Y-51930D01*
X35161Y-51921D01*
X35171Y-51911D01*
X35786Y-52021D02*
X35796Y-52011D01*
X35805Y-51983D01*
X35805Y-51964D01*
X35796Y-51935D01*
X35777Y-51916D01*
X35758Y-51907D01*
X35720Y-51897D01*
X35691Y-51897D01*
X35653Y-51907D01*
X35634Y-51916D01*
X35615Y-51935D01*
X35605Y-51964D01*
X35605Y-51983D01*
X35615Y-52011D01*
X35625Y-52021D01*
X35605Y-52088D02*
X35605Y-52211D01*
X35682Y-52145D01*
X35682Y-52173D01*
X35691Y-52192D01*
X35701Y-52202D01*
X35720Y-52211D01*
X35767Y-52211D01*
X35786Y-52202D01*
X35796Y-52192D01*
X35805Y-52173D01*
X35805Y-52116D01*
X35796Y-52097D01*
X35786Y-52088D01*
X35605Y-52392D02*
X35605Y-52297D01*
X35701Y-52288D01*
X35691Y-52297D01*
X35682Y-52316D01*
X35682Y-52364D01*
X35691Y-52383D01*
X35701Y-52392D01*
X35720Y-52402D01*
X35767Y-52402D01*
X35786Y-52392D01*
X35796Y-52383D01*
X35805Y-52364D01*
X35805Y-52316D01*
X35796Y-52297D01*
X35786Y-52288D01*
X38628Y-44261D02*
X38638Y-44271D01*
X38666Y-44280D01*
X38685Y-44280D01*
X38714Y-44271D01*
X38733Y-44252D01*
X38742Y-44233D01*
X38752Y-44195D01*
X38752Y-44166D01*
X38742Y-44128D01*
X38733Y-44109D01*
X38714Y-44090D01*
X38685Y-44080D01*
X38666Y-44080D01*
X38638Y-44090D01*
X38628Y-44100D01*
X38552Y-44100D02*
X38542Y-44090D01*
X38523Y-44080D01*
X38476Y-44080D01*
X38457Y-44090D01*
X38447Y-44100D01*
X38438Y-44119D01*
X38438Y-44138D01*
X38447Y-44166D01*
X38561Y-44280D01*
X38438Y-44280D01*
X38342Y-44280D02*
X38304Y-44280D01*
X38285Y-44271D01*
X38276Y-44261D01*
X38257Y-44233D01*
X38247Y-44195D01*
X38247Y-44119D01*
X38257Y-44100D01*
X38266Y-44090D01*
X38285Y-44080D01*
X38323Y-44080D01*
X38342Y-44090D01*
X38352Y-44100D01*
X38361Y-44119D01*
X38361Y-44166D01*
X38352Y-44185D01*
X38342Y-44195D01*
X38323Y-44204D01*
X38285Y-44204D01*
X38266Y-44195D01*
X38257Y-44185D01*
X38247Y-44166D01*
X34378Y-48411D02*
X34388Y-48421D01*
X34416Y-48430D01*
X34435Y-48430D01*
X34464Y-48421D01*
X34483Y-48402D01*
X34492Y-48383D01*
X34502Y-48345D01*
X34502Y-48316D01*
X34492Y-48278D01*
X34483Y-48259D01*
X34464Y-48240D01*
X34435Y-48230D01*
X34416Y-48230D01*
X34388Y-48240D01*
X34378Y-48250D01*
X34188Y-48430D02*
X34302Y-48430D01*
X34245Y-48430D02*
X34245Y-48230D01*
X34264Y-48259D01*
X34283Y-48278D01*
X34302Y-48288D01*
X33997Y-48430D02*
X34111Y-48430D01*
X34054Y-48430D02*
X34054Y-48230D01*
X34073Y-48259D01*
X34092Y-48278D01*
X34111Y-48288D01*
X42778Y-46061D02*
X42788Y-46071D01*
X42816Y-46080D01*
X42835Y-46080D01*
X42864Y-46071D01*
X42883Y-46052D01*
X42892Y-46033D01*
X42902Y-45995D01*
X42902Y-45966D01*
X42892Y-45928D01*
X42883Y-45909D01*
X42864Y-45890D01*
X42835Y-45880D01*
X42816Y-45880D01*
X42788Y-45890D01*
X42778Y-45900D01*
X42607Y-45947D02*
X42607Y-46080D01*
X42654Y-45871D02*
X42702Y-46014D01*
X42578Y-46014D01*
X42416Y-45947D02*
X42416Y-46080D01*
X42464Y-45871D02*
X42511Y-46014D01*
X42388Y-46014D01*
X44778Y-43811D02*
X44788Y-43821D01*
X44816Y-43830D01*
X44835Y-43830D01*
X44864Y-43821D01*
X44883Y-43802D01*
X44892Y-43783D01*
X44902Y-43745D01*
X44902Y-43716D01*
X44892Y-43678D01*
X44883Y-43659D01*
X44864Y-43640D01*
X44835Y-43630D01*
X44816Y-43630D01*
X44788Y-43640D01*
X44778Y-43650D01*
X44702Y-43650D02*
X44692Y-43640D01*
X44673Y-43630D01*
X44626Y-43630D01*
X44607Y-43640D01*
X44597Y-43650D01*
X44588Y-43669D01*
X44588Y-43688D01*
X44597Y-43716D01*
X44711Y-43830D01*
X44588Y-43830D01*
X44416Y-43630D02*
X44454Y-43630D01*
X44473Y-43640D01*
X44483Y-43650D01*
X44502Y-43678D01*
X44511Y-43716D01*
X44511Y-43792D01*
X44502Y-43811D01*
X44492Y-43821D01*
X44473Y-43830D01*
X44435Y-43830D01*
X44416Y-43821D01*
X44407Y-43811D01*
X44397Y-43792D01*
X44397Y-43745D01*
X44407Y-43726D01*
X44416Y-43716D01*
X44435Y-43707D01*
X44473Y-43707D01*
X44492Y-43716D01*
X44502Y-43726D01*
X44511Y-43745D01*
X45628Y-44011D02*
X45638Y-44021D01*
X45666Y-44030D01*
X45685Y-44030D01*
X45714Y-44021D01*
X45733Y-44002D01*
X45742Y-43983D01*
X45752Y-43945D01*
X45752Y-43916D01*
X45742Y-43878D01*
X45733Y-43859D01*
X45714Y-43840D01*
X45685Y-43830D01*
X45666Y-43830D01*
X45638Y-43840D01*
X45628Y-43850D01*
X45457Y-43897D02*
X45457Y-44030D01*
X45504Y-43821D02*
X45552Y-43964D01*
X45428Y-43964D01*
X45257Y-43830D02*
X45352Y-43830D01*
X45361Y-43926D01*
X45352Y-43916D01*
X45333Y-43907D01*
X45285Y-43907D01*
X45266Y-43916D01*
X45257Y-43926D01*
X45247Y-43945D01*
X45247Y-43992D01*
X45257Y-44011D01*
X45266Y-44021D01*
X45285Y-44030D01*
X45333Y-44030D01*
X45352Y-44021D01*
X45361Y-44011D01*
X47128Y-38511D02*
X47138Y-38521D01*
X47166Y-38530D01*
X47185Y-38530D01*
X47214Y-38521D01*
X47233Y-38502D01*
X47242Y-38483D01*
X47252Y-38445D01*
X47252Y-38416D01*
X47242Y-38378D01*
X47233Y-38359D01*
X47214Y-38340D01*
X47185Y-38330D01*
X47166Y-38330D01*
X47138Y-38340D01*
X47128Y-38350D01*
X46957Y-38397D02*
X46957Y-38530D01*
X47004Y-38321D02*
X47052Y-38464D01*
X46928Y-38464D01*
X46871Y-38330D02*
X46738Y-38330D01*
X46823Y-38530D01*
X44778Y-44561D02*
X44788Y-44571D01*
X44816Y-44580D01*
X44835Y-44580D01*
X44864Y-44571D01*
X44883Y-44552D01*
X44892Y-44533D01*
X44902Y-44495D01*
X44902Y-44466D01*
X44892Y-44428D01*
X44883Y-44409D01*
X44864Y-44390D01*
X44835Y-44380D01*
X44816Y-44380D01*
X44788Y-44390D01*
X44778Y-44400D01*
X44702Y-44400D02*
X44692Y-44390D01*
X44673Y-44380D01*
X44626Y-44380D01*
X44607Y-44390D01*
X44597Y-44400D01*
X44588Y-44419D01*
X44588Y-44438D01*
X44597Y-44466D01*
X44711Y-44580D01*
X44588Y-44580D01*
X44407Y-44380D02*
X44502Y-44380D01*
X44511Y-44476D01*
X44502Y-44466D01*
X44483Y-44457D01*
X44435Y-44457D01*
X44416Y-44466D01*
X44407Y-44476D01*
X44397Y-44495D01*
X44397Y-44542D01*
X44407Y-44561D01*
X44416Y-44571D01*
X44435Y-44580D01*
X44483Y-44580D01*
X44502Y-44571D01*
X44511Y-44561D01*
X45628Y-38511D02*
X45638Y-38521D01*
X45666Y-38530D01*
X45685Y-38530D01*
X45714Y-38521D01*
X45733Y-38502D01*
X45742Y-38483D01*
X45752Y-38445D01*
X45752Y-38416D01*
X45742Y-38378D01*
X45733Y-38359D01*
X45714Y-38340D01*
X45685Y-38330D01*
X45666Y-38330D01*
X45638Y-38340D01*
X45628Y-38350D01*
X45457Y-38397D02*
X45457Y-38530D01*
X45504Y-38321D02*
X45552Y-38464D01*
X45428Y-38464D01*
X45266Y-38330D02*
X45304Y-38330D01*
X45323Y-38340D01*
X45333Y-38350D01*
X45352Y-38378D01*
X45361Y-38416D01*
X45361Y-38492D01*
X45352Y-38511D01*
X45342Y-38521D01*
X45323Y-38530D01*
X45285Y-38530D01*
X45266Y-38521D01*
X45257Y-38511D01*
X45247Y-38492D01*
X45247Y-38445D01*
X45257Y-38426D01*
X45266Y-38416D01*
X45285Y-38407D01*
X45323Y-38407D01*
X45342Y-38416D01*
X45352Y-38426D01*
X45361Y-38445D01*
X36986Y-35121D02*
X36996Y-35111D01*
X37005Y-35083D01*
X37005Y-35064D01*
X36996Y-35035D01*
X36977Y-35016D01*
X36958Y-35007D01*
X36920Y-34997D01*
X36891Y-34997D01*
X36853Y-35007D01*
X36834Y-35016D01*
X36815Y-35035D01*
X36805Y-35064D01*
X36805Y-35083D01*
X36815Y-35111D01*
X36825Y-35121D01*
X36805Y-35188D02*
X36805Y-35311D01*
X36882Y-35245D01*
X36882Y-35273D01*
X36891Y-35292D01*
X36901Y-35302D01*
X36920Y-35311D01*
X36967Y-35311D01*
X36986Y-35302D01*
X36996Y-35292D01*
X37005Y-35273D01*
X37005Y-35216D01*
X36996Y-35197D01*
X36986Y-35188D01*
X36805Y-35435D02*
X36805Y-35454D01*
X36815Y-35473D01*
X36825Y-35483D01*
X36844Y-35492D01*
X36882Y-35502D01*
X36929Y-35502D01*
X36967Y-35492D01*
X36986Y-35483D01*
X36996Y-35473D01*
X37005Y-35454D01*
X37005Y-35435D01*
X36996Y-35416D01*
X36986Y-35407D01*
X36967Y-35397D01*
X36929Y-35388D01*
X36882Y-35388D01*
X36844Y-35397D01*
X36825Y-35407D01*
X36815Y-35416D01*
X36805Y-35435D01*
X35978Y-41761D02*
X35988Y-41771D01*
X36016Y-41780D01*
X36035Y-41780D01*
X36064Y-41771D01*
X36083Y-41752D01*
X36092Y-41733D01*
X36102Y-41695D01*
X36102Y-41666D01*
X36092Y-41628D01*
X36083Y-41609D01*
X36064Y-41590D01*
X36035Y-41580D01*
X36016Y-41580D01*
X35988Y-41590D01*
X35978Y-41600D01*
X35902Y-41600D02*
X35892Y-41590D01*
X35873Y-41580D01*
X35826Y-41580D01*
X35807Y-41590D01*
X35797Y-41600D01*
X35788Y-41619D01*
X35788Y-41638D01*
X35797Y-41666D01*
X35911Y-41780D01*
X35788Y-41780D01*
X35673Y-41666D02*
X35692Y-41657D01*
X35702Y-41647D01*
X35711Y-41628D01*
X35711Y-41619D01*
X35702Y-41600D01*
X35692Y-41590D01*
X35673Y-41580D01*
X35635Y-41580D01*
X35616Y-41590D01*
X35607Y-41600D01*
X35597Y-41619D01*
X35597Y-41628D01*
X35607Y-41647D01*
X35616Y-41657D01*
X35635Y-41666D01*
X35673Y-41666D01*
X35692Y-41676D01*
X35702Y-41685D01*
X35711Y-41704D01*
X35711Y-41742D01*
X35702Y-41761D01*
X35692Y-41771D01*
X35673Y-41780D01*
X35635Y-41780D01*
X35616Y-41771D01*
X35607Y-41761D01*
X35597Y-41742D01*
X35597Y-41704D01*
X35607Y-41685D01*
X35616Y-41676D01*
X35635Y-41666D01*
X42378Y-36011D02*
X42388Y-36021D01*
X42416Y-36030D01*
X42435Y-36030D01*
X42464Y-36021D01*
X42483Y-36002D01*
X42492Y-35983D01*
X42502Y-35945D01*
X42502Y-35916D01*
X42492Y-35878D01*
X42483Y-35859D01*
X42464Y-35840D01*
X42435Y-35830D01*
X42416Y-35830D01*
X42388Y-35840D01*
X42378Y-35850D01*
X42302Y-35850D02*
X42292Y-35840D01*
X42273Y-35830D01*
X42226Y-35830D01*
X42207Y-35840D01*
X42197Y-35850D01*
X42188Y-35869D01*
X42188Y-35888D01*
X42197Y-35916D01*
X42311Y-36030D01*
X42188Y-36030D01*
X42064Y-35830D02*
X42045Y-35830D01*
X42026Y-35840D01*
X42016Y-35850D01*
X42007Y-35869D01*
X41997Y-35907D01*
X41997Y-35954D01*
X42007Y-35992D01*
X42016Y-36011D01*
X42026Y-36021D01*
X42045Y-36030D01*
X42064Y-36030D01*
X42083Y-36021D01*
X42092Y-36011D01*
X42102Y-35992D01*
X42111Y-35954D01*
X42111Y-35907D01*
X42102Y-35869D01*
X42092Y-35850D01*
X42083Y-35840D01*
X42064Y-35830D01*
X40628Y-38061D02*
X40638Y-38071D01*
X40666Y-38080D01*
X40685Y-38080D01*
X40714Y-38071D01*
X40733Y-38052D01*
X40742Y-38033D01*
X40752Y-37995D01*
X40752Y-37966D01*
X40742Y-37928D01*
X40733Y-37909D01*
X40714Y-37890D01*
X40685Y-37880D01*
X40666Y-37880D01*
X40638Y-37890D01*
X40628Y-37900D01*
X40438Y-38080D02*
X40552Y-38080D01*
X40495Y-38080D02*
X40495Y-37880D01*
X40514Y-37909D01*
X40533Y-37928D01*
X40552Y-37938D01*
X40257Y-37880D02*
X40352Y-37880D01*
X40361Y-37976D01*
X40352Y-37966D01*
X40333Y-37957D01*
X40285Y-37957D01*
X40266Y-37966D01*
X40257Y-37976D01*
X40247Y-37995D01*
X40247Y-38042D01*
X40257Y-38061D01*
X40266Y-38071D01*
X40285Y-38080D01*
X40333Y-38080D01*
X40352Y-38071D01*
X40361Y-38061D01*
X40628Y-37061D02*
X40638Y-37071D01*
X40666Y-37080D01*
X40685Y-37080D01*
X40714Y-37071D01*
X40733Y-37052D01*
X40742Y-37033D01*
X40752Y-36995D01*
X40752Y-36966D01*
X40742Y-36928D01*
X40733Y-36909D01*
X40714Y-36890D01*
X40685Y-36880D01*
X40666Y-36880D01*
X40638Y-36890D01*
X40628Y-36900D01*
X40438Y-37080D02*
X40552Y-37080D01*
X40495Y-37080D02*
X40495Y-36880D01*
X40514Y-36909D01*
X40533Y-36928D01*
X40552Y-36938D01*
X40323Y-36966D02*
X40342Y-36957D01*
X40352Y-36947D01*
X40361Y-36928D01*
X40361Y-36919D01*
X40352Y-36900D01*
X40342Y-36890D01*
X40323Y-36880D01*
X40285Y-36880D01*
X40266Y-36890D01*
X40257Y-36900D01*
X40247Y-36919D01*
X40247Y-36928D01*
X40257Y-36947D01*
X40266Y-36957D01*
X40285Y-36966D01*
X40323Y-36966D01*
X40342Y-36976D01*
X40352Y-36985D01*
X40361Y-37004D01*
X40361Y-37042D01*
X40352Y-37061D01*
X40342Y-37071D01*
X40323Y-37080D01*
X40285Y-37080D01*
X40266Y-37071D01*
X40257Y-37061D01*
X40247Y-37042D01*
X40247Y-37004D01*
X40257Y-36985D01*
X40266Y-36976D01*
X40285Y-36966D01*
X40628Y-41011D02*
X40638Y-41021D01*
X40666Y-41030D01*
X40685Y-41030D01*
X40714Y-41021D01*
X40733Y-41002D01*
X40742Y-40983D01*
X40752Y-40945D01*
X40752Y-40916D01*
X40742Y-40878D01*
X40733Y-40859D01*
X40714Y-40840D01*
X40685Y-40830D01*
X40666Y-40830D01*
X40638Y-40840D01*
X40628Y-40850D01*
X40438Y-41030D02*
X40552Y-41030D01*
X40495Y-41030D02*
X40495Y-40830D01*
X40514Y-40859D01*
X40533Y-40878D01*
X40552Y-40888D01*
X40342Y-41030D02*
X40304Y-41030D01*
X40285Y-41021D01*
X40276Y-41011D01*
X40257Y-40983D01*
X40247Y-40945D01*
X40247Y-40869D01*
X40257Y-40850D01*
X40266Y-40840D01*
X40285Y-40830D01*
X40323Y-40830D01*
X40342Y-40840D01*
X40352Y-40850D01*
X40361Y-40869D01*
X40361Y-40916D01*
X40352Y-40935D01*
X40342Y-40945D01*
X40323Y-40954D01*
X40285Y-40954D01*
X40266Y-40945D01*
X40257Y-40935D01*
X40247Y-40916D01*
X42378Y-39011D02*
X42388Y-39021D01*
X42416Y-39030D01*
X42435Y-39030D01*
X42464Y-39021D01*
X42483Y-39002D01*
X42492Y-38983D01*
X42502Y-38945D01*
X42502Y-38916D01*
X42492Y-38878D01*
X42483Y-38859D01*
X42464Y-38840D01*
X42435Y-38830D01*
X42416Y-38830D01*
X42388Y-38840D01*
X42378Y-38850D01*
X42302Y-38850D02*
X42292Y-38840D01*
X42273Y-38830D01*
X42226Y-38830D01*
X42207Y-38840D01*
X42197Y-38850D01*
X42188Y-38869D01*
X42188Y-38888D01*
X42197Y-38916D01*
X42311Y-39030D01*
X42188Y-39030D01*
X42111Y-38850D02*
X42102Y-38840D01*
X42083Y-38830D01*
X42035Y-38830D01*
X42016Y-38840D01*
X42007Y-38850D01*
X41997Y-38869D01*
X41997Y-38888D01*
X42007Y-38916D01*
X42121Y-39030D01*
X41997Y-39030D01*
X42378Y-38061D02*
X42388Y-38071D01*
X42416Y-38080D01*
X42435Y-38080D01*
X42464Y-38071D01*
X42483Y-38052D01*
X42492Y-38033D01*
X42502Y-37995D01*
X42502Y-37966D01*
X42492Y-37928D01*
X42483Y-37909D01*
X42464Y-37890D01*
X42435Y-37880D01*
X42416Y-37880D01*
X42388Y-37890D01*
X42378Y-37900D01*
X42188Y-38080D02*
X42302Y-38080D01*
X42245Y-38080D02*
X42245Y-37880D01*
X42264Y-37909D01*
X42283Y-37928D01*
X42302Y-37938D01*
X42016Y-37880D02*
X42054Y-37880D01*
X42073Y-37890D01*
X42083Y-37900D01*
X42102Y-37928D01*
X42111Y-37966D01*
X42111Y-38042D01*
X42102Y-38061D01*
X42092Y-38071D01*
X42073Y-38080D01*
X42035Y-38080D01*
X42016Y-38071D01*
X42007Y-38061D01*
X41997Y-38042D01*
X41997Y-37995D01*
X42007Y-37976D01*
X42016Y-37966D01*
X42035Y-37957D01*
X42073Y-37957D01*
X42092Y-37966D01*
X42102Y-37976D01*
X42111Y-37995D01*
X42283Y-41061D02*
X42292Y-41071D01*
X42321Y-41080D01*
X42340Y-41080D01*
X42369Y-41071D01*
X42388Y-41052D01*
X42397Y-41033D01*
X42407Y-40995D01*
X42407Y-40966D01*
X42397Y-40928D01*
X42388Y-40909D01*
X42369Y-40890D01*
X42340Y-40880D01*
X42321Y-40880D01*
X42292Y-40890D01*
X42283Y-40900D01*
X42169Y-40966D02*
X42188Y-40957D01*
X42197Y-40947D01*
X42207Y-40928D01*
X42207Y-40919D01*
X42197Y-40900D01*
X42188Y-40890D01*
X42169Y-40880D01*
X42130Y-40880D01*
X42111Y-40890D01*
X42102Y-40900D01*
X42092Y-40919D01*
X42092Y-40928D01*
X42102Y-40947D01*
X42111Y-40957D01*
X42130Y-40966D01*
X42169Y-40966D01*
X42188Y-40976D01*
X42197Y-40985D01*
X42207Y-41004D01*
X42207Y-41042D01*
X42197Y-41061D01*
X42188Y-41071D01*
X42169Y-41080D01*
X42130Y-41080D01*
X42111Y-41071D01*
X42102Y-41061D01*
X42092Y-41042D01*
X42092Y-41004D01*
X42102Y-40985D01*
X42111Y-40976D01*
X42130Y-40966D01*
X40628Y-36061D02*
X40638Y-36071D01*
X40666Y-36080D01*
X40685Y-36080D01*
X40714Y-36071D01*
X40733Y-36052D01*
X40742Y-36033D01*
X40752Y-35995D01*
X40752Y-35966D01*
X40742Y-35928D01*
X40733Y-35909D01*
X40714Y-35890D01*
X40685Y-35880D01*
X40666Y-35880D01*
X40638Y-35890D01*
X40628Y-35900D01*
X40552Y-35900D02*
X40542Y-35890D01*
X40523Y-35880D01*
X40476Y-35880D01*
X40457Y-35890D01*
X40447Y-35900D01*
X40438Y-35919D01*
X40438Y-35938D01*
X40447Y-35966D01*
X40561Y-36080D01*
X40438Y-36080D01*
X40247Y-36080D02*
X40361Y-36080D01*
X40304Y-36080D02*
X40304Y-35880D01*
X40323Y-35909D01*
X40342Y-35928D01*
X40361Y-35938D01*
X40628Y-39061D02*
X40638Y-39071D01*
X40666Y-39080D01*
X40685Y-39080D01*
X40714Y-39071D01*
X40733Y-39052D01*
X40742Y-39033D01*
X40752Y-38995D01*
X40752Y-38966D01*
X40742Y-38928D01*
X40733Y-38909D01*
X40714Y-38890D01*
X40685Y-38880D01*
X40666Y-38880D01*
X40638Y-38890D01*
X40628Y-38900D01*
X40438Y-39080D02*
X40552Y-39080D01*
X40495Y-39080D02*
X40495Y-38880D01*
X40514Y-38909D01*
X40533Y-38928D01*
X40552Y-38938D01*
X40266Y-38947D02*
X40266Y-39080D01*
X40314Y-38871D02*
X40361Y-39014D01*
X40238Y-39014D01*
X36503Y-36630D02*
X36503Y-36792D01*
X36494Y-36811D01*
X36484Y-36821D01*
X36465Y-36830D01*
X36427Y-36830D01*
X36408Y-36821D01*
X36399Y-36811D01*
X36389Y-36792D01*
X36389Y-36630D01*
X36189Y-36830D02*
X36303Y-36830D01*
X36246Y-36830D02*
X36246Y-36630D01*
X36265Y-36659D01*
X36284Y-36678D01*
X36303Y-36688D01*
X36018Y-36630D02*
X36056Y-36630D01*
X36075Y-36640D01*
X36084Y-36650D01*
X36103Y-36678D01*
X36113Y-36716D01*
X36113Y-36792D01*
X36103Y-36811D01*
X36094Y-36821D01*
X36075Y-36830D01*
X36037Y-36830D01*
X36018Y-36821D01*
X36008Y-36811D01*
X35999Y-36792D01*
X35999Y-36745D01*
X36008Y-36726D01*
X36018Y-36716D01*
X36037Y-36707D01*
X36075Y-36707D01*
X36094Y-36716D01*
X36103Y-36726D01*
X36113Y-36745D01*
X36503Y-39630D02*
X36503Y-39792D01*
X36494Y-39811D01*
X36484Y-39821D01*
X36465Y-39830D01*
X36427Y-39830D01*
X36408Y-39821D01*
X36399Y-39811D01*
X36389Y-39792D01*
X36389Y-39630D01*
X36189Y-39830D02*
X36303Y-39830D01*
X36246Y-39830D02*
X36246Y-39630D01*
X36265Y-39659D01*
X36284Y-39678D01*
X36303Y-39688D01*
X36008Y-39630D02*
X36103Y-39630D01*
X36113Y-39726D01*
X36103Y-39716D01*
X36084Y-39707D01*
X36037Y-39707D01*
X36018Y-39716D01*
X36008Y-39726D01*
X35999Y-39745D01*
X35999Y-39792D01*
X36008Y-39811D01*
X36018Y-39821D01*
X36037Y-39830D01*
X36084Y-39830D01*
X36103Y-39821D01*
X36113Y-39811D01*
X33478Y-50780D02*
X33545Y-50685D01*
X33592Y-50780D02*
X33592Y-50580D01*
X33516Y-50580D01*
X33497Y-50590D01*
X33488Y-50600D01*
X33478Y-50619D01*
X33478Y-50647D01*
X33488Y-50666D01*
X33497Y-50676D01*
X33516Y-50685D01*
X33592Y-50685D01*
X33402Y-50600D02*
X33392Y-50590D01*
X33373Y-50580D01*
X33326Y-50580D01*
X33307Y-50590D01*
X33297Y-50600D01*
X33288Y-50619D01*
X33288Y-50638D01*
X33297Y-50666D01*
X33411Y-50780D01*
X33288Y-50780D01*
X33173Y-50666D02*
X33192Y-50657D01*
X33202Y-50647D01*
X33211Y-50628D01*
X33211Y-50619D01*
X33202Y-50600D01*
X33192Y-50590D01*
X33173Y-50580D01*
X33135Y-50580D01*
X33116Y-50590D01*
X33107Y-50600D01*
X33097Y-50619D01*
X33097Y-50628D01*
X33107Y-50647D01*
X33116Y-50657D01*
X33135Y-50666D01*
X33173Y-50666D01*
X33192Y-50676D01*
X33202Y-50685D01*
X33211Y-50704D01*
X33211Y-50742D01*
X33202Y-50761D01*
X33192Y-50771D01*
X33173Y-50780D01*
X33135Y-50780D01*
X33116Y-50771D01*
X33107Y-50761D01*
X33097Y-50742D01*
X33097Y-50704D01*
X33107Y-50685D01*
X33116Y-50676D01*
X33135Y-50666D01*
X33478Y-51511D02*
X33488Y-51521D01*
X33516Y-51530D01*
X33535Y-51530D01*
X33564Y-51521D01*
X33583Y-51502D01*
X33592Y-51483D01*
X33602Y-51445D01*
X33602Y-51416D01*
X33592Y-51378D01*
X33583Y-51359D01*
X33564Y-51340D01*
X33535Y-51330D01*
X33516Y-51330D01*
X33488Y-51340D01*
X33478Y-51350D01*
X33307Y-51397D02*
X33307Y-51530D01*
X33354Y-51321D02*
X33402Y-51464D01*
X33278Y-51464D01*
X33173Y-51416D02*
X33192Y-51407D01*
X33202Y-51397D01*
X33211Y-51378D01*
X33211Y-51369D01*
X33202Y-51350D01*
X33192Y-51340D01*
X33173Y-51330D01*
X33135Y-51330D01*
X33116Y-51340D01*
X33107Y-51350D01*
X33097Y-51369D01*
X33097Y-51378D01*
X33107Y-51397D01*
X33116Y-51407D01*
X33135Y-51416D01*
X33173Y-51416D01*
X33192Y-51426D01*
X33202Y-51435D01*
X33211Y-51454D01*
X33211Y-51492D01*
X33202Y-51511D01*
X33192Y-51521D01*
X33173Y-51530D01*
X33135Y-51530D01*
X33116Y-51521D01*
X33107Y-51511D01*
X33097Y-51492D01*
X33097Y-51454D01*
X33107Y-51435D01*
X33116Y-51426D01*
X33135Y-51416D01*
M02*
