M48
;DRILL file {Pcbnew (2013-03-19 BZR 4004)-stable} date 2014/12/29 14:44:28
;FORMAT={-:-/ absolute / inch / decimal}
FMAT,2
INCH,TZ
T1C0.012
T2C0.013
T3C0.020
T4C0.024
T5C0.026
T6C0.039
T7C0.040
T8C0.126
%
G90
G05
M72
T1
X3.21Y-4.12
X3.21Y-4.415
X3.355Y-5.17
X3.507Y-4.786
X3.51Y-4.93
X3.5264Y-4.867
X3.5352Y-4.8064
X3.55Y-5.265
X3.65Y-4.41
X3.66Y-4.955
X3.68Y-4.92
X3.69Y-4.635
X3.72Y-4.905
X3.735Y-3.975
X3.764Y-4.934
X3.785Y-4.885
X3.7872Y-4.638
X3.7894Y-4.599
X3.815Y-3.825
X3.822Y-3.615
X3.8232Y-4.6396
X3.865Y-3.725
X3.865Y-3.8
X3.89Y-3.53
X3.8958Y-4.3868
X3.9032Y-4.653
X3.9258Y-4.4052
X3.965Y-3.911
X3.967Y-3.833
X3.968Y-3.692
X4.001Y-5.0014
X4.015Y-3.92
X4.0456Y-4.987
X4.058Y-3.914
X4.075Y-3.535
X4.083Y-3.813
X4.0918Y-4.8702
X4.095Y-3.505
X4.1Y-3.708
X4.13Y-3.51
X4.135Y-3.395
X4.1814Y-4.3542
X4.25Y-3.76
X4.25Y-3.865
X4.286Y-3.4438
X4.31Y-3.815
X4.35Y-3.92
X4.432Y-3.51
X5.105Y-4.36
X5.115Y-4.4
T2
X3.305Y-4.125
X3.3465Y-3.3465
X3.385Y-4.125
X3.48Y-4.238
X3.535Y-4.275
X3.55Y-4.555
X3.557Y-4.947
X3.573Y-3.817
X3.5834Y-5.165
X3.605Y-4.524
X3.605Y-4.524
X3.655Y-3.205
X3.684Y-4.063
X3.685Y-3.503
X3.69Y-4.675
X3.709Y-4.225
X3.714Y-3.2826
X3.745Y-3.32
X3.795Y-3.23
X3.819Y-3.946
X3.8216Y-4.025
X3.8318Y-3.2306
X3.837Y-3.528
X3.8394Y-3.3984
X3.8478Y-3.4374
X3.86Y-4.935
X3.885Y-4.24
X3.945Y-4.75
X3.965Y-3.385
X4.025Y-4.035
X4.027Y-4.545
X4.054Y-3.581
X4.094Y-3.775
X4.095Y-3.655
X4.095Y-4.56
X4.1416Y-4.75
X4.145Y-4.025
X4.172Y-3.839
X4.177Y-4.123
X4.216Y-3.533
X4.244Y-4.534
X4.249Y-3.532
X4.2505Y-3.701
X4.2605Y-3.6605
X4.275Y-3.815
X4.309Y-3.729
X4.3204Y-3.3282
X4.335Y-4.035
X4.335Y-4.85
X4.344Y-3.6205
X4.35Y-4.141
X4.355Y-3.488
X4.356Y-3.559
X4.416Y-3.92
X4.445Y-4.82
X4.45Y-3.741
X4.451Y-3.778
X4.453Y-3.825
X4.5584Y-4.475
X4.5982Y-4.2256
X4.601Y-4.5115
X4.6248Y-4.2056
X4.626Y-4.4795
X4.651Y-4.512
X4.6895Y-4.507
X4.711Y-3.377
X4.724Y-4.358
X4.725Y-4.001
X4.725Y-4.32
X4.726Y-3.875
X4.735Y-4.504
X4.7485Y-3.341
X4.753Y-4.214
X4.77Y-4.36
X4.7765Y-3.373
X4.811Y-3.3865
X4.835Y-4.505
X4.855Y-4.376
X4.857Y-3.314
X4.8755Y-3.7105
X4.925Y-4.505
X4.927Y-4.218
X5.05Y-4.5916
X5.056Y-4.362
X5.095Y-4.82
X5.1Y-3.995
T3
X3.337Y-5.082
X3.391Y-4.514
X3.3916Y-4.9
X3.395Y-4.825
X3.407Y-4.365
X3.407Y-4.404
X3.407Y-4.442
X3.428Y-4.59
X3.455Y-3.23
X3.51Y-4.075
X3.59Y-3.51
X3.64Y-3.945
X3.654Y-5.156
X3.725Y-4.797
X3.728Y-4.604
X3.895Y-5.055
X3.952Y-5.144
X3.9806Y-4.0752
X4.005Y-3.995
X4.055Y-5.025
X4.0878Y-3.3206
X4.397Y-5.053
X4.425Y-4.5664
X4.4916Y-4.595
X5.29Y-3.365
T5
X3.4817Y-3.352
X3.4817Y-3.402
X3.4817Y-3.452
X3.4817Y-3.502
X3.4817Y-3.552
X3.4817Y-3.602
X3.4817Y-3.652
X3.4817Y-3.702
X3.4817Y-3.752
X3.4817Y-3.802
X3.4817Y-3.852
X3.4817Y-3.902
X3.4817Y-3.952
X3.4817Y-4.002
X3.8067Y-4.289
X3.8567Y-4.289
X3.9067Y-4.289
X3.9567Y-4.289
X4.0067Y-4.289
X4.0567Y-4.289
X4.1067Y-4.289
X4.1567Y-4.289
X4.2067Y-4.289
X4.2567Y-4.289
X4.3067Y-4.289
X4.3567Y-4.289
X4.4067Y-4.289
X4.4567Y-4.289
X4.4917Y-3.354
X4.4917Y-3.404
X4.4917Y-3.454
X4.4917Y-3.504
X4.4917Y-3.554
X4.4917Y-3.604
X4.4917Y-3.654
X4.4917Y-3.704
X4.4917Y-3.754
X4.4917Y-3.804
X4.4917Y-3.854
X4.4917Y-3.904
X4.4917Y-3.954
X4.4917Y-4.004
X4.4917Y-4.054
X4.4917Y-4.104
X4.4917Y-4.154
X4.4917Y-4.204
X4.4917Y-4.254
T6
X4.626Y-4.8425
X4.626Y-4.9449
X4.7244Y-4.8425
X4.7244Y-4.9449
X4.8031Y-4.8425
X4.8031Y-4.9449
X4.9016Y-4.8425
X4.9016Y-4.9449
T7
X3.16Y-3.475
X3.16Y-3.575
X3.16Y-3.675
X3.16Y-3.775
X3.16Y-3.875
X3.16Y-3.975
X3.16Y-4.075
X3.16Y-4.175
X3.16Y-4.275
X3.16Y-4.375
X3.16Y-4.475
X3.16Y-4.575
X3.16Y-4.675
X3.16Y-4.775
X3.16Y-4.875
X3.16Y-4.975
X3.26Y-3.475
X3.26Y-3.575
X3.26Y-3.675
X3.26Y-3.775
X3.26Y-3.875
X3.26Y-3.975
X3.26Y-4.075
X3.26Y-4.175
X3.26Y-4.275
X3.26Y-4.375
X3.26Y-4.475
X3.26Y-4.575
X3.26Y-4.675
X3.26Y-4.775
X3.26Y-4.875
X3.26Y-4.975
X3.5Y-3.13
X3.6Y-3.13
X3.7Y-3.13
X3.8Y-3.13
X3.9Y-3.13
X4.Y-3.13
X4.1Y-3.13
X4.2Y-3.13
X4.3Y-3.13
X4.4Y-3.13
X4.5Y-3.13
X4.6Y-3.13
X4.7Y-3.13
X4.8Y-3.13
X4.9Y-3.13
X5.Y-3.13
X5.24Y-3.475
X5.24Y-3.575
X5.24Y-3.675
X5.24Y-3.775
X5.24Y-3.875
X5.24Y-3.975
X5.24Y-4.075
X5.24Y-4.175
X5.24Y-4.275
X5.24Y-4.375
X5.24Y-4.475
X5.24Y-4.575
X5.24Y-4.675
X5.24Y-4.775
X5.24Y-4.875
X5.24Y-4.975
X5.34Y-3.475
X5.34Y-3.575
X5.34Y-3.675
X5.34Y-3.775
X5.34Y-3.875
X5.34Y-3.975
X5.34Y-4.075
X5.34Y-4.175
X5.34Y-4.275
X5.34Y-4.375
X5.34Y-4.475
X5.34Y-4.575
X5.34Y-4.675
X5.34Y-4.775
X5.34Y-4.875
X5.34Y-4.975
T8
X3.2283Y-3.189
X3.2283Y-5.2362
X5.2756Y-3.189
X5.2756Y-5.2362
T4
X4.1319Y-5.2614G85X4.1319Y-5.2886
G05
X4.3681Y-5.2614G85X4.3681Y-5.2886
G05
T6
X4.5118Y-4.8484G85X4.5118Y-4.9075
G05
X5.0157Y-4.8484G85X5.0157Y-4.9075
G05
T0
M30
