G04 (created by PCBNEW (2013-07-07 BZR 4022)-stable) date 2015/3/10 10:19:11*
%MOIN*%
G04 Gerber Fmt 3.4, Leading zero omitted, Abs format*
%FSLAX34Y34*%
G01*
G70*
G90*
G04 APERTURE LIST*
%ADD10C,0.00590551*%
%ADD11R,0.00984252X0.0649606*%
%ADD12R,0.0649606X0.00984252*%
%ADD13R,0.275591X0.11811*%
%ADD14R,0.059X0.0511*%
%ADD15R,0.0629X0.0708*%
%ADD16R,0.015748X0.0393701*%
%ADD17R,0.016X0.0787402*%
%ADD18R,0.081X0.081*%
%ADD19C,0.126*%
%ADD20R,0.0629921X0.023622*%
%ADD21R,0.0905512X0.129921*%
%ADD22R,0.0255906X0.019685*%
%ADD23R,0.0452X0.0393*%
%ADD24C,0.04*%
%ADD25R,0.0433X0.0393*%
%ADD26R,0.0393X0.0433*%
%ADD27R,0.0472X0.0472*%
%ADD28R,0.0787402X0.0944882*%
%ADD29R,0.0944X0.1102*%
%ADD30R,0.0629X0.0944*%
%ADD31R,0.0669291X0.0669291*%
%ADD32C,0.0393701*%
%ADD33C,0.074*%
%ADD34C,0.0590551*%
%ADD35O,0.0669291X0.125984*%
%ADD36R,0.0393701X0.0787402*%
G04 APERTURE END LIST*
G54D10*
G54D11*
X39723Y-39271D03*
X39920Y-39271D03*
X40117Y-39271D03*
X40314Y-39271D03*
X40511Y-39271D03*
X40707Y-39271D03*
X40904Y-39271D03*
X41101Y-39271D03*
X41298Y-39271D03*
X41495Y-39271D03*
X41692Y-39271D03*
X41888Y-39271D03*
G54D12*
X42577Y-38582D03*
X42577Y-38385D03*
X42577Y-38188D03*
X42577Y-37992D03*
X42577Y-37795D03*
X42577Y-37598D03*
X42577Y-37401D03*
X42577Y-37204D03*
X42577Y-37007D03*
X42577Y-36811D03*
X42577Y-36614D03*
X42577Y-36417D03*
G54D11*
X41888Y-35728D03*
X41692Y-35728D03*
X41495Y-35728D03*
X41298Y-35728D03*
X41101Y-35728D03*
X40904Y-35728D03*
X40707Y-35728D03*
X40511Y-35728D03*
X40314Y-35728D03*
X40117Y-35728D03*
X39920Y-35728D03*
X39723Y-35728D03*
G54D12*
X39034Y-36417D03*
X39034Y-36614D03*
X39034Y-36811D03*
X39034Y-37007D03*
X39034Y-37204D03*
X39034Y-37401D03*
X39034Y-37598D03*
X39034Y-37795D03*
X39034Y-37992D03*
X39034Y-38188D03*
X39034Y-38385D03*
X39034Y-38582D03*
G54D13*
X40793Y-45984D03*
X40793Y-44015D03*
G54D14*
X38385Y-49980D03*
X38385Y-49232D03*
G54D15*
X34685Y-44094D03*
X35787Y-44094D03*
X38151Y-44100D03*
X37049Y-44100D03*
X39749Y-48100D03*
X40851Y-48100D03*
G54D16*
X41100Y-34283D03*
X41493Y-34283D03*
X41493Y-33220D03*
X41100Y-33220D03*
X40706Y-33220D03*
X40706Y-34283D03*
G54D17*
X38480Y-51090D03*
X38740Y-51090D03*
X39000Y-51090D03*
X39260Y-51090D03*
X39520Y-51090D03*
G54D18*
X37818Y-52150D03*
X40181Y-52150D03*
G54D19*
X49606Y-51574D03*
X49606Y-31889D03*
G54D20*
X38250Y-47900D03*
X38250Y-47400D03*
X38250Y-46900D03*
X38250Y-46400D03*
X35950Y-46400D03*
X35950Y-46900D03*
X35950Y-47400D03*
X35950Y-47900D03*
G54D21*
X37100Y-47150D03*
G54D22*
X42974Y-33572D03*
X42974Y-33927D03*
X42225Y-33927D03*
X42225Y-33572D03*
G54D23*
X44950Y-45865D03*
X44950Y-44881D03*
X44950Y-43897D03*
X47174Y-45865D03*
X47174Y-44881D03*
X47174Y-43897D03*
G54D24*
X46062Y-45472D03*
X46062Y-44290D03*
G54D25*
X35100Y-45016D03*
X35100Y-45684D03*
X37606Y-39184D03*
X37606Y-38516D03*
X34300Y-45016D03*
X34300Y-45684D03*
X37606Y-37116D03*
X37606Y-37784D03*
X35900Y-45684D03*
X35900Y-45016D03*
G54D26*
X45166Y-36500D03*
X45834Y-36500D03*
X37940Y-36250D03*
X37272Y-36250D03*
X34984Y-47200D03*
X34316Y-47200D03*
X45166Y-37750D03*
X45834Y-37750D03*
X41346Y-40500D03*
X40678Y-40500D03*
X45166Y-39000D03*
X45834Y-39000D03*
G54D27*
X47012Y-36525D03*
X47838Y-36525D03*
X47012Y-37775D03*
X47838Y-37775D03*
X47012Y-38975D03*
X47838Y-38975D03*
G54D28*
X39975Y-41500D03*
X41550Y-41500D03*
G54D29*
X37090Y-49450D03*
X34610Y-49450D03*
G54D30*
X35316Y-38750D03*
X36496Y-38750D03*
X34716Y-42000D03*
X35896Y-42000D03*
X35316Y-37250D03*
X36496Y-37250D03*
X35316Y-34000D03*
X36496Y-34000D03*
G54D26*
X38762Y-41834D03*
X38762Y-41166D03*
X42762Y-41834D03*
X42762Y-41166D03*
G54D25*
X35372Y-36000D03*
X36040Y-36000D03*
X39666Y-49000D03*
X40334Y-49000D03*
X39172Y-40500D03*
X39840Y-40500D03*
X34316Y-46450D03*
X34984Y-46450D03*
X42178Y-40500D03*
X42846Y-40500D03*
X37272Y-40000D03*
X37940Y-40000D03*
X37272Y-35500D03*
X37940Y-35500D03*
X40284Y-47200D03*
X39616Y-47200D03*
X35372Y-40750D03*
X36040Y-40750D03*
X35372Y-40000D03*
X36040Y-40000D03*
X35372Y-35250D03*
X36040Y-35250D03*
X34316Y-47950D03*
X34984Y-47950D03*
G54D31*
X36891Y-45300D03*
X38544Y-45300D03*
G54D32*
X34346Y-33260D03*
X34346Y-33760D03*
X34346Y-34260D03*
X34346Y-34760D03*
X34346Y-35260D03*
X34346Y-35760D03*
X34346Y-36260D03*
X34346Y-36760D03*
X34346Y-37260D03*
X34346Y-37760D03*
X34346Y-38260D03*
X34346Y-38760D03*
X34346Y-39260D03*
X34346Y-39760D03*
X43372Y-42640D03*
X42872Y-42640D03*
X42372Y-42640D03*
X41872Y-42640D03*
X41372Y-42640D03*
X40872Y-42640D03*
X40372Y-42640D03*
X39872Y-42640D03*
X39372Y-42640D03*
X38872Y-42640D03*
X38372Y-42640D03*
X37872Y-42640D03*
X37372Y-42640D03*
X36872Y-42640D03*
G54D23*
X44950Y-42716D03*
X44950Y-41732D03*
X44950Y-40748D03*
X47174Y-42716D03*
X47174Y-41732D03*
X47174Y-40748D03*
G54D24*
X46062Y-42323D03*
X46062Y-41141D03*
G54D19*
X32283Y-31889D03*
X32283Y-51574D03*
G54D33*
X37000Y-31250D03*
X38000Y-31250D03*
X39000Y-31250D03*
X40000Y-31250D03*
X41000Y-31250D03*
X42000Y-31250D03*
X43000Y-31250D03*
X44000Y-31250D03*
X45000Y-31250D03*
X46000Y-31250D03*
X47000Y-31250D03*
X48000Y-31250D03*
G54D34*
X44291Y-48661D03*
X45078Y-48661D03*
X44291Y-47637D03*
X45078Y-47637D03*
X43307Y-47637D03*
X43307Y-48661D03*
X46062Y-47637D03*
X46062Y-48661D03*
G54D35*
X42165Y-47992D03*
X47204Y-47992D03*
G54D33*
X49300Y-41200D03*
X50300Y-41200D03*
X49300Y-42200D03*
X50300Y-42200D03*
X49300Y-43200D03*
X50300Y-43200D03*
X49300Y-44200D03*
X50300Y-44200D03*
X49300Y-45200D03*
X50300Y-45200D03*
X49300Y-46200D03*
X50300Y-46200D03*
X49300Y-47200D03*
X50300Y-47200D03*
X49300Y-48200D03*
X50300Y-48200D03*
G54D36*
X36155Y-51250D03*
X34344Y-51250D03*
G54D33*
X31600Y-35200D03*
X32600Y-35200D03*
X31600Y-36200D03*
X32600Y-36200D03*
X31600Y-37200D03*
X32600Y-37200D03*
X31600Y-38200D03*
X32600Y-38200D03*
X31600Y-39200D03*
X32600Y-39200D03*
X31600Y-40200D03*
X32600Y-40200D03*
X31600Y-41200D03*
X32600Y-41200D03*
X32600Y-48200D03*
X31600Y-48200D03*
X32600Y-47200D03*
X31600Y-47200D03*
X32600Y-46200D03*
X31600Y-46200D03*
X32600Y-45200D03*
X31600Y-45200D03*
X32600Y-44200D03*
X31600Y-44200D03*
X32600Y-43200D03*
X31600Y-43200D03*
X32600Y-42200D03*
X31600Y-42200D03*
X49300Y-35200D03*
X50300Y-35200D03*
X49300Y-36200D03*
X50300Y-36200D03*
X49300Y-37200D03*
X50300Y-37200D03*
X49300Y-38200D03*
X50300Y-38200D03*
X49300Y-39200D03*
X50300Y-39200D03*
X49300Y-40200D03*
X50300Y-40200D03*
X34000Y-31250D03*
X35000Y-31250D03*
X36000Y-31250D03*
G54D32*
X43725Y-33290D03*
X43725Y-33790D03*
X43725Y-34290D03*
X43725Y-34790D03*
X43725Y-35290D03*
X43725Y-35790D03*
X43725Y-36290D03*
X43725Y-36790D03*
X43725Y-37290D03*
X43725Y-37790D03*
X43725Y-38290D03*
X43725Y-38790D03*
X43725Y-39290D03*
X43725Y-39790D03*
X43725Y-40290D03*
X43725Y-40790D03*
X43725Y-41290D03*
X43725Y-41790D03*
M02*
