M48
;DRILL file {Pcbnew (2013-03-19 BZR 4004)-stable} date 2014/11/27 13:38:43
;FORMAT={-:-/ absolute / inch / decimal}
FMAT,2
INCH,TZ
T1C0.012
T2C0.024
T3C0.032
T4C0.039
T5C0.039
T6C0.040
T7C0.083
%
G90
G05
M72
T1
X6.3501Y-3.0662
X6.3598Y-3.4456
X6.3642Y-3.1508
X6.4365Y-3.5544
X6.465Y-3.1169
X6.4847Y-3.4163
X6.4858Y-3.723
X6.489Y-2.3421
X6.4902Y-2.2296
X6.4938Y-3.556
X6.5235Y-2.3874
X6.5308Y-3.6064
X6.5404Y-3.572
X6.5415Y-3.7106
X6.5586Y-2.2593
X6.5692Y-3.0004
X6.5768Y-3.6254
X6.5962Y-3.0234
X6.6036Y-2.6398
X6.6064Y-2.782
X6.6098Y-2.1524
X6.611Y-3.1474
X6.611Y-3.2124
X6.6155Y-3.5966
X6.62Y-3.4248
X6.6234Y-2.7432
X6.6249Y-2.0021
X6.6306Y-2.6652
X6.6398Y-2.0796
X6.6414Y-2.3544
X6.6417Y-2.2422
X6.6455Y-3.141
X6.649Y-3.6696
X6.6586Y-2.5108
X6.6621Y-2.8328
X6.6628Y-2.7804
X6.6628Y-3.2132
X6.6644Y-2.705
X6.6666Y-2.3322
X6.679Y-3.2848
X6.6888Y-2.6688
X6.69Y-2.1396
X6.6999Y-3.6
X6.7005Y-2.0799
X6.7194Y-2.542
X6.7208Y-3.2718
X6.7209Y-3.1899
X6.7251Y-3.4539
X6.727Y-3.133
X6.7572Y-2.6106
X6.7588Y-3.3052
X6.7766Y-2.9568
X6.7836Y-2.2257
X6.79Y-2.6866
X6.8244Y-2.8214
X6.8322Y-2.9608
X6.8607Y-3.1211
X6.8628Y-2.4802
X6.8878Y-3.2148
X6.919Y-2.8248
X6.925Y-3.1166
X6.9276Y-3.3111
X6.9296Y-2.2767
X6.9408Y-3.0108
X6.9569Y-2.4105
X6.9608Y-2.3625
X6.9695Y-2.305
X6.971Y-3.0674
X6.9753Y-2.9787
X6.9759Y-3.4907
X6.98Y-3.2014
X6.986Y-3.1168
X6.9903Y-2.4965
X7.025Y-3.16
X7.0255Y-2.838
X7.037Y-2.5165
X7.0418Y-3.1056
X7.0425Y-2.8655
X7.052Y-2.5755
X7.055Y-2.638
X7.0732Y-3.1778
X7.075Y-2.605
X7.093Y-3.0004
X7.0955Y-2.6405
X7.097Y-2.5745
X7.1051Y-2.4372
X7.1116Y-2.493
X7.119Y-3.1133
X7.125Y-3.01
X7.1284Y-2.2378
X7.1442Y-2.1538
X7.15Y-2.826
X7.1508Y-3.1281
X7.1538Y-2.4682
X7.1688Y-3.2172
X7.1847Y-3.1872
X7.2038Y-2.4706
X7.2267Y-3.3183
X7.2355Y-2.741
X7.2504Y-2.3503
X7.2612Y-2.7218
X7.2639Y-2.6894
X7.2918Y-3.3495
X7.292Y-2.184
X7.2927Y-3.0273
X7.2982Y-3.1864
X7.3053Y-3.5235
X7.3329Y-2.6829
X7.3335Y-2.7665
X7.3335Y-2.917
X7.352Y-2.176
X7.402Y-3.2692
X7.4122Y-2.3752
X7.422Y-2.727
X7.4508Y-3.5622
X7.4526Y-3.5271
X7.4585Y-2.764
X7.4741Y-2.178
X7.4812Y-3.4882
X7.514Y-3.164
X7.5153Y-3.3939
X7.5425Y-2.597
X7.5538Y-3.6666
X7.5588Y-3.3999
X7.585Y-2.918
X7.588Y-3.226
X7.596Y-3.372
X7.597Y-2.3522
X7.5972Y-2.1988
X7.598Y-2.781
X7.6055Y-2.4912
X7.6122Y-2.2714
X7.6194Y-2.5542
X7.634Y-2.749
X7.6522Y-3.7172
X7.675Y-3.39
X7.7238Y-2.5438
X7.7614Y-3.6396
X7.8362Y-2.4878
X7.8646Y-2.2503
X7.8752Y-2.372
X7.9135Y-2.752
T3
X7.0024Y-2.0157
X7.0024Y-2.1157
X7.0024Y-3.5906
X7.0024Y-3.6906
X7.1024Y-2.0157
X7.1024Y-2.1157
X7.1024Y-3.5906
X7.1024Y-3.6906
X7.2024Y-2.0157
X7.2024Y-2.1157
X7.2024Y-3.5906
X7.2024Y-3.6906
X7.3024Y-2.0157
X7.3024Y-2.1157
X7.3024Y-3.5906
X7.3024Y-3.6906
X7.4024Y-2.0157
X7.4024Y-2.1157
X7.4024Y-3.5906
X7.4024Y-3.6906
X7.5024Y-2.0157
X7.5024Y-2.1157
X7.5024Y-3.5906
X7.5024Y-3.6906
X7.6024Y-2.0157
X7.6024Y-2.1157
X7.6024Y-3.5906
X7.6024Y-3.6906
X7.7024Y-2.0157
X7.7024Y-2.1157
X7.7024Y-3.5906
X7.7024Y-3.6906
X7.8024Y-2.0157
X7.8024Y-2.1157
X7.8024Y-3.5906
X7.8024Y-3.6906
X7.9024Y-2.0157
X7.9024Y-2.1157
X7.9024Y-3.5906
X7.9024Y-3.6906
X8.0024Y-2.0157
X8.0024Y-2.1157
X8.0024Y-3.5906
X8.0024Y-3.6906
X8.1024Y-2.0157
X8.1024Y-2.1157
X8.1024Y-3.5906
X8.1024Y-3.6906
T4
X6.9024Y-2.0157
X6.9024Y-2.1157
X6.9024Y-3.5906
X6.9024Y-3.6906
T5
X6.8Y-3.59
X6.8Y-3.69
X7.6378Y-2.9331
X7.6378Y-3.0315
X7.6378Y-3.1102
X7.6378Y-3.2087
X7.7402Y-2.9331
X7.7402Y-3.0315
X7.7402Y-3.1102
X7.7402Y-3.2087
X7.85Y-3.475
X7.95Y-3.475
T6
X6.3098Y-2.003
X6.31Y-2.105
X6.31Y-2.205
X6.31Y-2.305
X6.31Y-2.405
X6.31Y-2.505
X6.31Y-2.605
X6.31Y-2.705
X6.31Y-2.805
X6.31Y-2.905
X6.31Y-3.005
X6.31Y-3.105
X6.31Y-3.205
X6.31Y-3.305
X6.31Y-3.405
X6.31Y-3.505
X6.31Y-3.605
X6.3106Y-3.7058
X6.4098Y-2.003
X6.41Y-2.105
X6.41Y-2.205
X6.41Y-2.305
X6.41Y-2.405
X6.41Y-2.505
X6.41Y-2.605
X6.41Y-2.705
X6.41Y-2.805
X6.41Y-2.905
X6.41Y-3.005
X6.41Y-3.105
X6.41Y-3.205
X6.41Y-3.305
X6.41Y-3.405
X6.41Y-3.505
X6.41Y-3.605
X6.4106Y-3.7058
X7.655Y-2.225
X7.655Y-2.325
T7
X8.Y-2.3
X8.0709Y-3.4252
T2
X8.0864Y-2.4019G85X8.1136Y-2.4019
G05
X8.0864Y-2.6381G85X8.1136Y-2.6381
G05
T5
X7.6437Y-2.8189G85X7.7028Y-2.8189
G05
X7.6437Y-3.3228G85X7.7028Y-3.3228
G05
T0
M30
