G04 (created by PCBNEW (2013-03-19 BZR 4004)-stable) date 2014/11/26 17:53:31*
%MOIN*%
G04 Gerber Fmt 3.4, Leading zero omitted, Abs format*
%FSLAX34Y34*%
G01*
G70*
G90*
G04 APERTURE LIST*
%ADD10C,0*%
%ADD11R,0.0649606X0.00984252*%
%ADD12R,0.00984252X0.0649606*%
%ADD13R,0.0511X0.059*%
%ADD14C,0.06*%
%ADD15C,0.0593*%
%ADD16R,0.0393X0.0433*%
%ADD17R,0.0433X0.0393*%
%ADD18R,0.0944882X0.0787402*%
%ADD19C,0.0826772*%
%ADD20R,0.015748X0.0393701*%
%ADD21R,0.0255906X0.019685*%
%ADD22R,0.0944X0.0629*%
%ADD23R,0.0551X0.0629*%
%ADD24C,0.0590551*%
%ADD25C,0.074*%
%ADD26O,0.125984X0.0669291*%
%ADD27R,0.081X0.081*%
%ADD28C,0.0708661*%
%ADD29C,0.024*%
%ADD30C,0.006*%
%ADD31C,0.02*%
%ADD32C,0.016*%
%ADD33C,0.008*%
%ADD34C,0.015*%
%ADD35C,0.032*%
%ADD36C,0.024*%
%ADD37C,0.01*%
%ADD38C,0.001*%
G04 APERTURE END LIST*
G54D10*
G54D11*
X69228Y-26332D03*
X69228Y-26135D03*
X69228Y-25938D03*
X69228Y-25742D03*
X69228Y-25545D03*
X69228Y-25348D03*
X69228Y-25151D03*
X69228Y-24954D03*
X69228Y-24757D03*
X69228Y-24561D03*
X69228Y-24364D03*
X69228Y-24167D03*
G54D12*
X69917Y-23478D03*
X70114Y-23478D03*
X70311Y-23478D03*
X70507Y-23478D03*
X70704Y-23478D03*
X70901Y-23478D03*
X71098Y-23478D03*
X71295Y-23478D03*
X71492Y-23478D03*
X71688Y-23478D03*
X71885Y-23478D03*
X72082Y-23478D03*
G54D11*
X72771Y-24167D03*
X72771Y-24364D03*
X72771Y-24561D03*
X72771Y-24757D03*
X72771Y-24954D03*
X72771Y-25151D03*
X72771Y-25348D03*
X72771Y-25545D03*
X72771Y-25742D03*
X72771Y-25938D03*
X72771Y-26135D03*
X72771Y-26332D03*
G54D12*
X72082Y-27021D03*
X71885Y-27021D03*
X71688Y-27021D03*
X71492Y-27021D03*
X71295Y-27021D03*
X71098Y-27021D03*
X70901Y-27021D03*
X70704Y-27021D03*
X70507Y-27021D03*
X70311Y-27021D03*
X70114Y-27021D03*
X69917Y-27021D03*
G54D13*
X68376Y-22250D03*
X69124Y-22250D03*
X74876Y-33200D03*
X75624Y-33200D03*
X74626Y-28750D03*
X75374Y-28750D03*
X76626Y-34750D03*
X77374Y-34750D03*
X74374Y-22250D03*
X73626Y-22250D03*
X74626Y-27750D03*
X75374Y-27750D03*
X77876Y-27250D03*
X78624Y-27250D03*
G54D14*
X81023Y-35905D03*
X81023Y-36905D03*
X80023Y-35905D03*
X80023Y-36905D03*
X79023Y-35905D03*
X79023Y-36905D03*
X78023Y-35905D03*
X78023Y-36905D03*
X77023Y-35905D03*
X77023Y-36905D03*
X76023Y-35905D03*
X76023Y-36905D03*
X75023Y-35905D03*
X75023Y-36905D03*
X74023Y-35905D03*
X74023Y-36905D03*
X73023Y-35905D03*
X73023Y-36905D03*
X72023Y-35905D03*
X72023Y-36905D03*
X71023Y-35905D03*
X71023Y-36905D03*
X70023Y-35905D03*
X70023Y-36905D03*
G54D15*
X69023Y-35905D03*
X69023Y-36905D03*
G54D14*
X81023Y-20157D03*
X81023Y-21157D03*
X80023Y-20157D03*
X80023Y-21157D03*
X79023Y-20157D03*
X79023Y-21157D03*
X78023Y-20157D03*
X78023Y-21157D03*
X77023Y-20157D03*
X77023Y-21157D03*
X76023Y-20157D03*
X76023Y-21157D03*
X75023Y-20157D03*
X75023Y-21157D03*
X74023Y-20157D03*
X74023Y-21157D03*
X73023Y-20157D03*
X73023Y-21157D03*
X72023Y-20157D03*
X72023Y-21157D03*
X71023Y-20157D03*
X71023Y-21157D03*
X70023Y-20157D03*
X70023Y-21157D03*
G54D15*
X69023Y-20157D03*
X69023Y-21157D03*
G54D16*
X64936Y-26500D03*
X65604Y-26500D03*
X69084Y-23250D03*
X68416Y-23250D03*
X74766Y-26700D03*
X75434Y-26700D03*
X64936Y-27250D03*
X65604Y-27250D03*
G54D17*
X71500Y-28666D03*
X71500Y-29334D03*
X72250Y-28666D03*
X72250Y-29334D03*
X70750Y-28666D03*
X70750Y-29334D03*
X68500Y-28666D03*
X68500Y-29334D03*
X67000Y-28666D03*
X67000Y-29334D03*
X69250Y-28666D03*
X69250Y-29334D03*
X70000Y-28666D03*
X70000Y-29334D03*
X67750Y-24834D03*
X67750Y-24166D03*
X67750Y-28666D03*
X67750Y-29334D03*
G54D18*
X66750Y-24462D03*
X66750Y-26037D03*
G54D16*
X66750Y-33416D03*
X66750Y-34084D03*
X72650Y-33916D03*
X72650Y-34584D03*
G54D17*
X75434Y-25950D03*
X74766Y-25950D03*
X74766Y-25250D03*
X75434Y-25250D03*
X74766Y-24550D03*
X75434Y-24550D03*
X67084Y-22750D03*
X66416Y-22750D03*
X65604Y-25050D03*
X64936Y-25050D03*
X65604Y-25750D03*
X64936Y-25750D03*
X67084Y-22000D03*
X66416Y-22000D03*
X70834Y-22250D03*
X70166Y-22250D03*
X71916Y-22250D03*
X72584Y-22250D03*
X64936Y-24350D03*
X65604Y-24350D03*
G54D16*
X66250Y-28666D03*
X66250Y-29334D03*
G54D17*
X74766Y-23850D03*
X75434Y-23850D03*
X74766Y-23150D03*
X75434Y-23150D03*
G54D16*
X67808Y-25668D03*
X67808Y-26336D03*
G54D17*
X64936Y-28000D03*
X65604Y-28000D03*
X75584Y-34900D03*
X74916Y-34900D03*
X74916Y-34100D03*
X75584Y-34100D03*
G54D19*
X80750Y-34500D03*
X80000Y-23000D03*
G54D20*
X66250Y-30400D03*
X66750Y-30400D03*
X67250Y-30400D03*
X67750Y-30400D03*
X66250Y-32600D03*
X66750Y-32600D03*
X67250Y-32600D03*
X67750Y-32600D03*
X70000Y-30418D03*
X70500Y-30418D03*
X71000Y-30418D03*
X71500Y-30418D03*
X70000Y-32618D03*
X70500Y-32618D03*
X71000Y-32618D03*
X71500Y-32618D03*
X75000Y-32383D03*
X74606Y-32383D03*
X74606Y-31320D03*
X75000Y-31320D03*
X75393Y-31320D03*
X75393Y-32383D03*
X78750Y-22066D03*
X79143Y-22066D03*
X79143Y-23129D03*
X78750Y-23129D03*
X78356Y-23129D03*
X78356Y-22066D03*
X75000Y-30583D03*
X74606Y-30583D03*
X74606Y-29520D03*
X75000Y-29520D03*
X75393Y-29520D03*
X75393Y-30583D03*
G54D21*
X80874Y-22177D03*
X80874Y-21822D03*
X80125Y-21822D03*
X80125Y-22177D03*
X73325Y-31622D03*
X73325Y-31977D03*
X74074Y-31977D03*
X74074Y-31622D03*
X73325Y-29872D03*
X73325Y-30227D03*
X74074Y-30227D03*
X74074Y-29872D03*
G54D22*
X69000Y-33660D03*
X69000Y-34840D03*
X65500Y-33660D03*
X65500Y-34840D03*
X73750Y-33660D03*
X73750Y-34840D03*
X70500Y-33660D03*
X70500Y-34840D03*
G54D23*
X67750Y-33660D03*
X67750Y-34840D03*
X71750Y-33660D03*
X71750Y-34840D03*
G54D16*
X68500Y-31834D03*
X68500Y-31166D03*
X65500Y-31834D03*
X65500Y-31166D03*
X72250Y-31834D03*
X72250Y-31166D03*
X69250Y-31834D03*
X69250Y-31166D03*
G54D24*
X68000Y-36900D03*
X68000Y-35900D03*
G54D25*
X76550Y-22250D03*
X76550Y-23250D03*
G54D24*
X79500Y-34750D03*
X78500Y-34750D03*
X77401Y-31102D03*
X77401Y-30314D03*
X76377Y-31102D03*
X76377Y-30314D03*
X76377Y-32086D03*
X77401Y-32086D03*
X76377Y-29330D03*
X77401Y-29330D03*
G54D26*
X76732Y-33228D03*
X76732Y-28188D03*
G54D27*
X81000Y-26381D03*
X81000Y-24018D03*
G54D28*
X64100Y-33050D03*
X63100Y-33050D03*
G54D25*
X63100Y-22050D03*
X64100Y-22050D03*
X63100Y-23050D03*
X64100Y-23050D03*
X63100Y-24050D03*
X64100Y-24050D03*
X63100Y-25050D03*
X64100Y-25050D03*
X63100Y-26050D03*
X64100Y-26050D03*
X63100Y-27050D03*
X64100Y-27050D03*
X63100Y-28050D03*
X64100Y-28050D03*
X63100Y-29050D03*
X64100Y-29050D03*
X63100Y-30050D03*
X64100Y-30050D03*
G54D28*
X63100Y-31050D03*
X64100Y-31050D03*
X63100Y-32050D03*
X64100Y-32050D03*
G54D25*
X63100Y-34050D03*
G54D28*
X64100Y-34050D03*
X64100Y-35050D03*
G54D25*
X63100Y-35050D03*
X63100Y-36050D03*
G54D28*
X64100Y-36050D03*
G54D25*
X64100Y-21050D03*
X63100Y-21050D03*
X64098Y-20030D03*
X63098Y-20030D03*
X64106Y-37058D03*
X63106Y-37058D03*
G54D29*
X70370Y-25165D03*
X66234Y-27432D03*
X66249Y-20021D03*
X66398Y-20796D03*
X66790Y-32848D03*
X66036Y-26398D03*
X78752Y-23720D03*
X78362Y-24878D03*
X67588Y-33052D03*
X66414Y-23544D03*
X66294Y-21524D03*
X64902Y-22296D03*
X64890Y-23421D03*
X67254Y-34304D03*
X74526Y-35271D03*
X73053Y-35235D03*
X69276Y-33111D03*
X68878Y-32148D03*
X66900Y-21396D03*
X66666Y-23322D03*
X67194Y-25420D03*
X66644Y-27050D03*
X63598Y-34456D03*
X69759Y-34907D03*
X63598Y-31316D03*
X70418Y-31056D03*
X65692Y-30004D03*
X71508Y-31281D03*
X69710Y-30674D03*
X65404Y-35720D03*
X66628Y-32132D03*
X66148Y-34090D03*
X67270Y-31330D03*
X72982Y-31864D03*
X69860Y-31168D03*
X71847Y-31872D03*
X70732Y-31778D03*
X66455Y-31410D03*
X71190Y-31133D03*
X67209Y-31899D03*
X71688Y-32172D03*
X69800Y-32014D03*
X72267Y-33183D03*
X64858Y-37230D03*
X76522Y-37172D03*
X66154Y-35965D03*
X66999Y-36000D03*
X65435Y-36945D03*
X64365Y-35544D03*
X77614Y-36396D03*
X75538Y-36666D03*
X64710Y-30862D03*
X66888Y-26688D03*
X65308Y-36064D03*
X75980Y-27810D03*
X76340Y-27490D03*
X69190Y-28248D03*
X68244Y-28214D03*
X68628Y-24802D03*
X69608Y-23625D03*
X69408Y-30108D03*
X69753Y-29787D03*
X67766Y-29568D03*
X68322Y-29608D03*
X75850Y-29180D03*
X75960Y-33720D03*
X64938Y-35560D03*
X74508Y-35622D03*
X75153Y-33939D03*
X65070Y-33888D03*
X75140Y-31640D03*
X75880Y-32260D03*
X72918Y-33495D03*
X78646Y-22503D03*
X67572Y-26106D03*
X66586Y-25108D03*
X65962Y-30234D03*
X72927Y-30273D03*
X74020Y-32692D03*
X65586Y-22593D03*
X65235Y-23874D03*
X67005Y-20799D03*
X72639Y-26894D03*
X73329Y-26829D03*
X66110Y-32124D03*
X69296Y-22767D03*
X76194Y-25542D03*
X76055Y-24912D03*
X72038Y-24706D03*
X77238Y-25438D03*
X67900Y-26866D03*
X67836Y-22257D03*
X66417Y-22422D03*
X66110Y-31474D03*
X67208Y-32718D03*
X75588Y-33999D03*
X74812Y-34882D03*
X69250Y-31166D03*
X68607Y-31211D03*
X70250Y-31600D03*
X75425Y-25970D03*
X73335Y-27665D03*
X73335Y-29170D03*
X79135Y-27520D03*
X74585Y-27640D03*
X69695Y-23050D03*
X70955Y-26405D03*
X70550Y-26380D03*
X70520Y-25755D03*
X70970Y-25745D03*
X70750Y-26050D03*
X76750Y-33900D03*
X72920Y-21840D03*
X73520Y-21760D03*
X69903Y-24965D03*
X69569Y-24105D03*
X76122Y-22714D03*
X75970Y-23522D03*
X75972Y-21988D03*
X74741Y-21780D03*
X72504Y-23503D03*
X71116Y-24930D03*
X66306Y-26652D03*
X66628Y-27804D03*
X72612Y-27218D03*
X74220Y-27270D03*
X70930Y-30004D03*
X70255Y-28380D03*
X66064Y-27820D03*
X66621Y-28328D03*
X72355Y-27410D03*
X71500Y-28260D03*
X71250Y-30100D03*
X70425Y-28655D03*
X71538Y-24682D03*
X71051Y-24372D03*
X74122Y-23752D03*
X71442Y-21538D03*
X71284Y-22378D03*
G54D30*
X69931Y-26471D02*
X70100Y-26302D01*
X70110Y-25425D02*
X70370Y-25165D01*
X70100Y-25425D02*
X70110Y-25425D01*
X70100Y-26302D02*
X70100Y-25425D01*
X67028Y-27208D02*
X67125Y-27111D01*
X69810Y-26592D02*
X69627Y-26775D01*
X69627Y-26775D02*
X69627Y-26951D01*
X69810Y-26592D02*
X69931Y-26471D01*
X66234Y-27432D02*
X66276Y-27390D01*
X66276Y-27390D02*
X66846Y-27390D01*
X66846Y-27390D02*
X67028Y-27208D01*
X69467Y-27111D02*
X69627Y-26951D01*
X67125Y-27111D02*
X69467Y-27111D01*
G54D31*
X75434Y-26700D02*
X76354Y-26700D01*
X76572Y-23988D02*
X76760Y-23799D01*
X76572Y-26482D02*
X76572Y-23988D01*
X76354Y-26700D02*
X76572Y-26482D01*
X77150Y-23050D02*
X77150Y-22450D01*
X76950Y-23799D02*
X77150Y-23600D01*
X77150Y-23600D02*
X77150Y-23050D01*
X76760Y-23799D02*
X76900Y-23799D01*
G54D32*
X76900Y-23799D02*
X76950Y-23799D01*
G54D31*
X76950Y-22250D02*
X76550Y-22250D01*
X77150Y-22450D02*
X76950Y-22250D01*
G54D30*
X70500Y-32618D02*
X70500Y-33090D01*
X71214Y-33660D02*
X71750Y-33660D01*
X71090Y-33536D02*
X71214Y-33660D01*
X71090Y-33293D02*
X71090Y-33536D01*
X71021Y-33224D02*
X71090Y-33293D01*
X70634Y-33224D02*
X71021Y-33224D01*
X70500Y-33090D02*
X70634Y-33224D01*
G54D33*
X66398Y-20170D02*
X66249Y-20021D01*
X66398Y-20796D02*
X66398Y-20170D01*
G54D32*
X66750Y-32600D02*
X66750Y-32808D01*
X66750Y-32808D02*
X66790Y-32848D01*
G54D30*
X65264Y-26922D02*
X64936Y-27250D01*
X66036Y-26398D02*
X66036Y-26256D01*
X66036Y-26256D02*
X65904Y-26124D01*
X65904Y-26124D02*
X65326Y-26124D01*
X65326Y-26124D02*
X65264Y-26186D01*
X65264Y-26186D02*
X65264Y-26922D01*
G54D32*
X78752Y-23720D02*
X78750Y-23720D01*
X78750Y-23129D02*
X78750Y-23720D01*
X78750Y-23720D02*
X78750Y-24490D01*
X78750Y-24490D02*
X78362Y-24878D01*
G54D34*
X67750Y-33660D02*
X67750Y-33214D01*
X67750Y-33214D02*
X67588Y-33052D01*
G54D30*
X67588Y-33052D02*
X67750Y-33214D01*
G54D33*
X65041Y-23613D02*
X64890Y-23764D01*
X66414Y-23544D02*
X66345Y-23613D01*
X66345Y-23613D02*
X65041Y-23613D01*
X64890Y-23764D02*
X64890Y-23421D01*
X64786Y-27250D02*
X64594Y-27058D01*
X64936Y-27250D02*
X64786Y-27250D01*
X64594Y-24060D02*
X64890Y-23764D01*
X64594Y-27058D02*
X64594Y-24060D01*
X65187Y-21524D02*
X66294Y-21524D01*
X64902Y-21809D02*
X65187Y-21524D01*
X64902Y-22296D02*
X64902Y-21809D01*
G54D35*
X64100Y-31050D02*
X64100Y-30918D01*
X64936Y-30082D02*
X64936Y-28000D01*
X64100Y-30918D02*
X64936Y-30082D01*
X64936Y-28000D02*
X64936Y-27250D01*
X66750Y-33416D02*
X66866Y-33416D01*
X66866Y-33416D02*
X67110Y-33660D01*
X67110Y-33660D02*
X67750Y-33660D01*
G54D32*
X67254Y-34304D02*
X67298Y-34348D01*
X71062Y-34348D02*
X71750Y-33660D01*
X67298Y-34348D02*
X71062Y-34348D01*
G54D35*
X67750Y-33808D02*
X67750Y-33660D01*
X67254Y-34304D02*
X67750Y-33808D01*
G54D32*
X71750Y-33660D02*
X72394Y-33660D01*
X72394Y-33660D02*
X72650Y-33916D01*
G54D30*
X74130Y-35286D02*
X74511Y-35286D01*
X74511Y-35286D02*
X74526Y-35271D01*
X73104Y-35286D02*
X74130Y-35286D01*
X73053Y-35235D02*
X73104Y-35286D01*
X74130Y-35286D02*
X74134Y-35286D01*
X68878Y-32713D02*
X68878Y-32148D01*
X69276Y-33111D02*
X68878Y-32713D01*
X64263Y-21552D02*
X64401Y-21552D01*
X64709Y-21244D02*
X65134Y-21244D01*
X64401Y-21552D02*
X64709Y-21244D01*
X65134Y-21244D02*
X66748Y-21244D01*
X66748Y-21244D02*
X66900Y-21396D01*
X63100Y-23050D02*
X63198Y-23050D01*
X63786Y-21552D02*
X64263Y-21552D01*
X64263Y-21552D02*
X64418Y-21552D01*
X64418Y-21552D02*
X64444Y-21552D01*
X63612Y-21726D02*
X63786Y-21552D01*
X63612Y-22636D02*
X63612Y-21726D01*
X63198Y-23050D02*
X63612Y-22636D01*
X67088Y-26826D02*
X67338Y-26576D01*
X67338Y-25564D02*
X67194Y-25420D01*
X67338Y-26576D02*
X67338Y-25564D01*
X66644Y-27050D02*
X66864Y-27050D01*
X66864Y-27050D02*
X67088Y-26826D01*
X65946Y-23050D02*
X65978Y-23082D01*
X66426Y-23082D02*
X66666Y-23322D01*
X65978Y-23082D02*
X66426Y-23082D01*
X64100Y-23050D02*
X65946Y-23050D01*
X65651Y-35328D02*
X64944Y-35328D01*
X63698Y-34556D02*
X63598Y-34456D01*
X64584Y-34556D02*
X63698Y-34556D01*
X64770Y-34742D02*
X64584Y-34556D01*
X64770Y-35154D02*
X64770Y-34742D01*
X64944Y-35328D02*
X64770Y-35154D01*
X69760Y-35037D02*
X69760Y-34908D01*
X69760Y-34908D02*
X69759Y-34907D01*
X69760Y-35037D02*
X69760Y-35258D01*
X69760Y-35258D02*
X69690Y-35328D01*
X69690Y-35328D02*
X65651Y-35328D01*
X69760Y-34998D02*
X69760Y-35037D01*
X63598Y-27552D02*
X64100Y-27050D01*
X63598Y-31316D02*
X63598Y-27552D01*
X70418Y-31056D02*
X70672Y-31310D01*
X65940Y-30576D02*
X65692Y-30328D01*
X65692Y-30328D02*
X65692Y-30004D01*
X70672Y-31310D02*
X71009Y-31310D01*
X71009Y-31310D02*
X71069Y-31370D01*
X71069Y-31370D02*
X71419Y-31370D01*
X71419Y-31370D02*
X71508Y-31281D01*
X69710Y-30674D02*
X68318Y-30674D01*
X68318Y-30674D02*
X67990Y-31002D01*
X67556Y-31002D02*
X67990Y-31002D01*
X66728Y-30924D02*
X66806Y-31002D01*
X66806Y-31002D02*
X67556Y-31002D01*
X66152Y-30788D02*
X66228Y-30864D01*
X65940Y-30576D02*
X66152Y-30788D01*
X66668Y-30864D02*
X66728Y-30924D01*
X66228Y-30864D02*
X66668Y-30864D01*
X65558Y-35720D02*
X65404Y-35720D01*
X66148Y-33398D02*
X66148Y-33138D01*
X66148Y-33138D02*
X66510Y-32776D01*
X66510Y-32776D02*
X66510Y-32250D01*
X66510Y-32250D02*
X66628Y-32132D01*
X66148Y-34090D02*
X66148Y-33398D01*
X68000Y-35900D02*
X67820Y-35720D01*
X65358Y-35720D02*
X65558Y-35720D01*
X65558Y-35720D02*
X67820Y-35720D01*
X66928Y-31294D02*
X67234Y-31294D01*
X67234Y-31294D02*
X67270Y-31330D01*
X70422Y-31392D02*
X70575Y-31545D01*
X72618Y-31500D02*
X72982Y-31864D01*
X71844Y-31500D02*
X72618Y-31500D01*
X69860Y-31168D02*
X70198Y-31168D01*
X70198Y-31168D02*
X70422Y-31392D01*
X70575Y-31545D02*
X71799Y-31545D01*
X71799Y-31545D02*
X71844Y-31500D01*
X64695Y-31453D02*
X64986Y-31162D01*
X64986Y-30832D02*
X65154Y-30664D01*
X64986Y-31162D02*
X64986Y-30832D01*
X64362Y-31550D02*
X64598Y-31550D01*
X64598Y-31550D02*
X64695Y-31453D01*
X66882Y-31294D02*
X66928Y-31294D01*
X66594Y-31006D02*
X66882Y-31294D01*
X66158Y-31006D02*
X66594Y-31006D01*
X65816Y-30664D02*
X66158Y-31006D01*
X65154Y-30664D02*
X65816Y-30664D01*
X63600Y-31550D02*
X63100Y-32050D01*
X64362Y-31550D02*
X63600Y-31550D01*
X65594Y-31495D02*
X65745Y-31495D01*
X66455Y-31747D02*
X66455Y-31410D01*
X66378Y-31824D02*
X66455Y-31747D01*
X66074Y-31824D02*
X66378Y-31824D01*
X65745Y-31495D02*
X66074Y-31824D01*
X70732Y-31778D02*
X71753Y-31778D01*
X71753Y-31778D02*
X71847Y-31872D01*
X65110Y-31495D02*
X65594Y-31495D01*
X65000Y-31605D02*
X65110Y-31495D01*
X65000Y-32210D02*
X65000Y-31605D01*
X64998Y-32212D02*
X65000Y-32210D01*
X64848Y-33050D02*
X64998Y-32900D01*
X64998Y-32900D02*
X64998Y-32212D01*
X64100Y-33050D02*
X64848Y-33050D01*
X70352Y-30752D02*
X70454Y-30752D01*
X70742Y-31040D02*
X71010Y-31040D01*
X70454Y-30752D02*
X70742Y-31040D01*
X69606Y-30918D02*
X69810Y-30918D01*
X69976Y-30752D02*
X70352Y-30752D01*
X69810Y-30918D02*
X69976Y-30752D01*
X68370Y-31500D02*
X68256Y-31500D01*
X68256Y-31500D02*
X68189Y-31567D01*
X68189Y-32103D02*
X68052Y-32240D01*
X68189Y-31567D02*
X68189Y-32103D01*
X71070Y-31040D02*
X71097Y-31040D01*
X71097Y-31040D02*
X71190Y-31133D01*
X71010Y-31040D02*
X71070Y-31040D01*
X66288Y-34340D02*
X66388Y-34240D01*
X65642Y-34340D02*
X65986Y-34340D01*
X63614Y-33536D02*
X64520Y-33536D01*
X64520Y-33536D02*
X64698Y-33714D01*
X64698Y-33714D02*
X64698Y-34082D01*
X64698Y-34082D02*
X64956Y-34340D01*
X64956Y-34340D02*
X65642Y-34340D01*
X63100Y-34050D02*
X63614Y-33536D01*
X66344Y-33712D02*
X66344Y-33378D01*
X66388Y-33756D02*
X66344Y-33712D01*
X66388Y-34240D02*
X66388Y-33756D01*
X65986Y-34340D02*
X66288Y-34340D01*
X68908Y-31356D02*
X68908Y-31008D01*
X68764Y-31500D02*
X68908Y-31356D01*
X68370Y-31500D02*
X68764Y-31500D01*
X68052Y-32240D02*
X67636Y-32240D01*
X67466Y-32410D02*
X67466Y-32766D01*
X67636Y-32240D02*
X67466Y-32410D01*
X67294Y-32998D02*
X67466Y-32826D01*
X67466Y-32826D02*
X67466Y-32766D01*
X66344Y-33230D02*
X66494Y-33080D01*
X66494Y-33080D02*
X67212Y-33080D01*
X67212Y-33080D02*
X67294Y-32998D01*
X66344Y-33378D02*
X66344Y-33230D01*
X68908Y-30926D02*
X69000Y-30834D01*
X69000Y-30834D02*
X69522Y-30834D01*
X69522Y-30834D02*
X69606Y-30918D01*
X68908Y-31008D02*
X68908Y-30926D01*
X66736Y-31352D02*
X66736Y-31426D01*
X66736Y-31426D02*
X67209Y-31899D01*
X69800Y-32014D02*
X69802Y-32012D01*
X71528Y-32012D02*
X71688Y-32172D01*
X69802Y-32012D02*
X71528Y-32012D01*
X64845Y-31626D02*
X64845Y-31539D01*
X65166Y-30918D02*
X65264Y-30820D01*
X65166Y-31218D02*
X65166Y-30918D01*
X64845Y-31539D02*
X65166Y-31218D01*
X64186Y-32565D02*
X64729Y-32565D01*
X64845Y-32449D02*
X64845Y-32085D01*
X64729Y-32565D02*
X64845Y-32449D01*
X66540Y-31156D02*
X66736Y-31352D01*
X66092Y-31156D02*
X66540Y-31156D01*
X65756Y-30820D02*
X66092Y-31156D01*
X65264Y-30820D02*
X65756Y-30820D01*
X64120Y-32565D02*
X64186Y-32565D01*
X63235Y-33050D02*
X63720Y-32565D01*
X63720Y-32565D02*
X64120Y-32565D01*
X63100Y-33050D02*
X63235Y-33050D01*
X64845Y-32085D02*
X64845Y-31626D01*
X70749Y-32711D02*
X70749Y-32993D01*
X72220Y-33230D02*
X72267Y-33183D01*
X71234Y-33230D02*
X72220Y-33230D01*
X71084Y-33080D02*
X71234Y-33230D01*
X70835Y-33080D02*
X71084Y-33080D01*
X70749Y-32993D02*
X70835Y-33080D01*
X70000Y-32618D02*
X70000Y-32536D01*
X70749Y-32424D02*
X70749Y-32711D01*
X70627Y-32302D02*
X70749Y-32424D01*
X70234Y-32302D02*
X70627Y-32302D01*
X70000Y-32536D02*
X70234Y-32302D01*
G54D35*
X69250Y-31834D02*
X69250Y-32500D01*
X70410Y-33660D02*
X70500Y-33660D01*
X69250Y-32500D02*
X70410Y-33660D01*
X70000Y-32600D02*
X70000Y-33160D01*
X70000Y-33160D02*
X70500Y-33660D01*
X69250Y-31834D02*
X69250Y-32290D01*
G54D30*
X63100Y-36050D02*
X63610Y-36560D01*
X63610Y-36560D02*
X64308Y-36560D01*
X64858Y-37110D02*
X64858Y-37230D01*
X64308Y-36560D02*
X64858Y-37110D01*
X74649Y-36193D02*
X74776Y-36320D01*
X76154Y-36336D02*
X76522Y-36704D01*
X76522Y-36704D02*
X76522Y-37172D01*
X74361Y-35905D02*
X74023Y-35905D01*
X74649Y-36193D02*
X74361Y-35905D01*
X74776Y-36320D02*
X76138Y-36320D01*
X76138Y-36320D02*
X76154Y-36336D01*
X65308Y-37340D02*
X65562Y-37340D01*
X65562Y-37340D02*
X73630Y-37340D01*
X74023Y-36946D02*
X74023Y-36905D01*
X74023Y-36946D02*
X73630Y-37340D01*
X64100Y-36050D02*
X64100Y-36132D01*
X64100Y-36132D02*
X65308Y-37340D01*
X66189Y-36000D02*
X66154Y-35965D01*
X66154Y-35965D02*
X66147Y-35958D01*
X66999Y-36000D02*
X66189Y-36000D01*
X68592Y-36474D02*
X69023Y-36905D01*
X67671Y-36474D02*
X68592Y-36474D01*
X67200Y-36945D02*
X67671Y-36474D01*
X65435Y-36945D02*
X67200Y-36945D01*
X65491Y-36247D02*
X65568Y-36324D01*
X70326Y-36324D02*
X70485Y-36483D01*
X65568Y-36324D02*
X70326Y-36324D01*
X64885Y-36064D02*
X65308Y-36064D01*
X64365Y-35544D02*
X64885Y-36064D01*
X75538Y-36666D02*
X75355Y-36483D01*
X75355Y-36483D02*
X70485Y-36483D01*
X78500Y-36232D02*
X78500Y-34750D01*
X78308Y-36424D02*
X78500Y-36232D01*
X77642Y-36424D02*
X78308Y-36424D01*
X77614Y-36396D02*
X77642Y-36424D01*
X65491Y-36247D02*
X65308Y-36064D01*
X65430Y-28680D02*
X65430Y-28490D01*
X65416Y-28694D02*
X65430Y-28680D01*
X65968Y-27558D02*
X65968Y-27394D01*
X65890Y-27636D02*
X65968Y-27558D01*
X65380Y-27636D02*
X65890Y-27636D01*
X65272Y-27744D02*
X65380Y-27636D01*
X65272Y-28332D02*
X65272Y-27744D01*
X65430Y-28490D02*
X65272Y-28332D01*
X64710Y-30828D02*
X65416Y-30122D01*
X65416Y-30122D02*
X65416Y-28694D01*
X64710Y-30862D02*
X64710Y-30828D01*
X65968Y-27318D02*
X66474Y-26812D01*
X65968Y-27394D02*
X65968Y-27318D01*
X66888Y-26688D02*
X66764Y-26812D01*
X66764Y-26812D02*
X66474Y-26812D01*
X80500Y-22050D02*
X80550Y-22100D01*
X80450Y-21500D02*
X80450Y-21650D01*
X80450Y-21650D02*
X80450Y-22000D01*
X80450Y-22000D02*
X80500Y-22050D01*
X80023Y-21157D02*
X80107Y-21157D01*
X80107Y-21157D02*
X80400Y-21450D01*
X80400Y-21450D02*
X80450Y-21500D01*
X80796Y-22100D02*
X80874Y-22177D01*
X80550Y-22100D02*
X80796Y-22100D01*
X80650Y-21950D02*
X80750Y-21950D01*
X80600Y-21900D02*
X80650Y-21950D01*
X80650Y-21450D02*
X80600Y-21500D01*
X80942Y-21157D02*
X80650Y-21450D01*
X81023Y-21157D02*
X80942Y-21157D01*
X80600Y-21500D02*
X80600Y-21750D01*
X80600Y-21750D02*
X80600Y-21900D01*
X80874Y-21825D02*
X80874Y-21822D01*
X80750Y-21950D02*
X80874Y-21825D01*
X76204Y-27205D02*
X76648Y-27205D01*
X76791Y-24299D02*
X77100Y-23990D01*
X76791Y-27063D02*
X76791Y-24299D01*
X76648Y-27205D02*
X76791Y-27063D01*
X74930Y-22390D02*
X74930Y-22190D01*
X73145Y-24364D02*
X74170Y-23340D01*
X74170Y-23340D02*
X74170Y-23150D01*
X74170Y-23150D02*
X74500Y-22820D01*
X74500Y-22820D02*
X74760Y-22820D01*
X74760Y-22820D02*
X74930Y-22650D01*
X74930Y-22650D02*
X74930Y-22390D01*
X72771Y-24364D02*
X73145Y-24364D01*
X77410Y-23680D02*
X77100Y-23990D01*
X77410Y-22190D02*
X77410Y-23680D01*
X76970Y-21750D02*
X77410Y-22190D01*
X75369Y-21750D02*
X76970Y-21750D01*
X74930Y-22190D02*
X75369Y-21750D01*
X76090Y-27320D02*
X76204Y-27205D01*
X76090Y-27700D02*
X76090Y-27320D01*
X75980Y-27810D02*
X76090Y-27700D01*
X76340Y-27490D02*
X76579Y-27490D01*
X76937Y-24453D02*
X77230Y-24160D01*
X76937Y-27132D02*
X76937Y-24453D01*
X76579Y-27490D02*
X76937Y-27132D01*
X72942Y-24167D02*
X74440Y-22670D01*
X77230Y-24160D02*
X77560Y-23830D01*
X77560Y-23830D02*
X77560Y-22070D01*
X77560Y-22070D02*
X77100Y-21610D01*
X77100Y-21610D02*
X75290Y-21610D01*
X75290Y-21610D02*
X74930Y-21970D01*
X72771Y-24167D02*
X72942Y-24167D01*
X74760Y-22140D02*
X74930Y-21970D01*
X74760Y-22590D02*
X74760Y-22140D01*
X74680Y-22670D02*
X74760Y-22590D01*
X74440Y-22670D02*
X74680Y-22670D01*
X67808Y-25668D02*
X67982Y-25668D01*
X68400Y-25030D02*
X68628Y-24802D01*
X68400Y-25250D02*
X68400Y-25030D01*
X67982Y-25668D02*
X68400Y-25250D01*
X68872Y-28802D02*
X68872Y-28900D01*
X69250Y-29278D02*
X69250Y-29334D01*
X68872Y-28900D02*
X69250Y-29278D01*
X68500Y-29334D02*
X68500Y-29264D01*
X68872Y-28802D02*
X68868Y-28806D01*
X68872Y-28346D02*
X68872Y-28802D01*
X68970Y-28248D02*
X68872Y-28346D01*
X69190Y-28248D02*
X68970Y-28248D01*
X68110Y-28348D02*
X68244Y-28214D01*
X68110Y-28874D02*
X68110Y-28348D01*
X68500Y-29264D02*
X68110Y-28874D01*
X69754Y-23478D02*
X69917Y-23478D01*
X69608Y-23625D02*
X69754Y-23478D01*
X70200Y-24984D02*
X70280Y-24905D01*
X70280Y-24905D02*
X70510Y-24905D01*
X69955Y-25421D02*
X69955Y-25361D01*
X70117Y-25199D02*
X70117Y-25068D01*
X69955Y-25361D02*
X70117Y-25199D01*
X69737Y-26422D02*
X69955Y-26204D01*
X70117Y-25068D02*
X70200Y-24984D01*
X69955Y-26204D02*
X69955Y-25421D01*
X69917Y-27021D02*
X69917Y-26687D01*
X70046Y-26558D02*
X70151Y-26558D01*
X69917Y-26687D02*
X70046Y-26558D01*
X70370Y-25418D02*
X70337Y-25418D01*
X70245Y-26465D02*
X70151Y-26558D01*
X70245Y-25510D02*
X70245Y-26465D01*
X70337Y-25418D02*
X70245Y-25510D01*
X70370Y-25418D02*
X70532Y-25418D01*
X70609Y-25005D02*
X70510Y-24905D01*
X70609Y-25340D02*
X70609Y-25005D01*
X70532Y-25418D02*
X70609Y-25340D01*
G54D32*
X76550Y-23250D02*
X76197Y-23250D01*
X76197Y-23250D02*
X75717Y-22770D01*
G54D30*
X70944Y-24129D02*
X70952Y-24137D01*
X71283Y-24761D02*
X71295Y-24773D01*
X71283Y-24272D02*
X71283Y-24761D01*
X71148Y-24137D02*
X71283Y-24272D01*
X70952Y-24137D02*
X71148Y-24137D01*
X70806Y-24078D02*
X70898Y-24078D01*
X71295Y-23830D02*
X71295Y-23478D01*
X71189Y-23937D02*
X71295Y-23830D01*
X71039Y-23937D02*
X71189Y-23937D01*
X70898Y-24078D02*
X71039Y-23937D01*
X70944Y-24129D02*
X70893Y-24078D01*
X69340Y-30108D02*
X69408Y-30108D01*
X69250Y-29334D02*
X69250Y-30018D01*
X69250Y-30018D02*
X69340Y-30108D01*
X69753Y-29787D02*
X70000Y-29540D01*
X70000Y-29540D02*
X70000Y-29334D01*
G54D33*
X66310Y-27939D02*
X66310Y-27772D01*
X67214Y-27303D02*
X67277Y-27303D01*
X66962Y-27555D02*
X67214Y-27303D01*
X66527Y-27555D02*
X66962Y-27555D01*
X66310Y-27772D02*
X66527Y-27555D01*
X66250Y-28666D02*
X66310Y-28606D01*
X66310Y-28606D02*
X66310Y-27939D01*
X69635Y-27303D02*
X69917Y-27021D01*
X67277Y-27303D02*
X69635Y-27303D01*
G54D30*
X68628Y-26413D02*
X68807Y-26592D01*
X68628Y-24802D02*
X68628Y-26367D01*
X68628Y-26367D02*
X68628Y-26413D01*
X69567Y-26592D02*
X69737Y-26422D01*
X68807Y-26592D02*
X69567Y-26592D01*
X69769Y-23478D02*
X69917Y-23478D01*
X71673Y-25151D02*
X72771Y-25151D01*
X71295Y-24773D02*
X71673Y-25151D01*
X70684Y-24078D02*
X70806Y-24078D01*
X69917Y-23873D02*
X70122Y-24078D01*
X70122Y-24078D02*
X70684Y-24078D01*
X69917Y-23478D02*
X69917Y-23873D01*
X70806Y-24078D02*
X70893Y-24078D01*
X68672Y-24757D02*
X69228Y-24757D01*
X68628Y-24802D02*
X68672Y-24757D01*
X67766Y-29350D02*
X67766Y-29568D01*
X67750Y-29334D02*
X67766Y-29350D01*
X68322Y-29512D02*
X68500Y-29334D01*
X68322Y-29608D02*
X68322Y-29512D01*
X67000Y-29334D02*
X67000Y-29258D01*
X66408Y-28666D02*
X66250Y-28666D01*
X67000Y-29258D02*
X66408Y-28666D01*
G54D32*
X74766Y-23150D02*
X75146Y-22770D01*
X75146Y-22770D02*
X75717Y-22770D01*
G54D36*
X66250Y-28666D02*
X66286Y-28666D01*
X66954Y-29334D02*
X67000Y-29334D01*
X71500Y-29334D02*
X72250Y-29334D01*
X70750Y-29334D02*
X71500Y-29334D01*
X70000Y-29334D02*
X70750Y-29334D01*
X67000Y-29334D02*
X67750Y-29334D01*
G54D33*
X74766Y-23850D02*
X74400Y-23850D01*
X74400Y-23850D02*
X74350Y-23900D01*
X74350Y-23900D02*
X74350Y-25000D01*
X74350Y-25000D02*
X74198Y-25151D01*
X74198Y-25151D02*
X72771Y-25151D01*
G54D36*
X74766Y-23150D02*
X74766Y-23850D01*
G54D33*
X69228Y-24757D02*
X68792Y-24757D01*
X67884Y-25666D02*
X67750Y-25666D01*
G54D30*
X76100Y-34900D02*
X76476Y-34900D01*
X76476Y-34900D02*
X76626Y-34750D01*
X72648Y-32798D02*
X73067Y-32798D01*
X73152Y-34104D02*
X73298Y-34250D01*
X73152Y-32883D02*
X73152Y-34104D01*
X73067Y-32798D02*
X73152Y-32883D01*
X71202Y-32307D02*
X71298Y-32403D01*
X71760Y-32798D02*
X72648Y-32798D01*
X71630Y-32928D02*
X71760Y-32798D01*
X71362Y-32928D02*
X71630Y-32928D01*
X71298Y-32864D02*
X71362Y-32928D01*
X71298Y-32403D02*
X71298Y-32864D01*
X74037Y-34250D02*
X74495Y-34250D01*
X73860Y-34250D02*
X74037Y-34250D01*
X73860Y-34250D02*
X73298Y-34250D01*
X74495Y-34250D02*
X74655Y-34410D01*
X74655Y-34410D02*
X75330Y-34410D01*
X75330Y-34410D02*
X75584Y-34664D01*
X75584Y-34664D02*
X75584Y-34900D01*
X69746Y-32256D02*
X69918Y-32256D01*
X69918Y-32256D02*
X70020Y-32154D01*
X71049Y-32154D02*
X71202Y-32307D01*
X70020Y-32154D02*
X71049Y-32154D01*
G54D32*
X69000Y-33660D02*
X68535Y-33660D01*
X68337Y-32837D02*
X68120Y-32620D01*
X68337Y-33462D02*
X68337Y-32837D01*
X68535Y-33660D02*
X68337Y-33462D01*
G54D30*
X68500Y-31834D02*
X68664Y-31834D01*
X68996Y-31502D02*
X69112Y-31502D01*
X68664Y-31834D02*
X68996Y-31502D01*
X69354Y-31502D02*
X69504Y-31502D01*
X69354Y-31502D02*
X69112Y-31502D01*
X69504Y-31502D02*
X69566Y-31564D01*
X69566Y-31564D02*
X69566Y-32114D01*
X69566Y-32114D02*
X69708Y-32256D01*
X69708Y-32256D02*
X69746Y-32256D01*
G54D33*
X75000Y-29520D02*
X75000Y-29340D01*
X75000Y-29340D02*
X75160Y-29180D01*
X75160Y-29180D02*
X75850Y-29180D01*
G54D30*
X75960Y-34760D02*
X76100Y-34900D01*
X75960Y-33720D02*
X75960Y-34760D01*
G54D37*
X75000Y-29340D02*
X75160Y-29180D01*
G54D30*
X75584Y-34900D02*
X76100Y-34900D01*
G54D32*
X68120Y-32620D02*
X68120Y-32600D01*
X67750Y-32600D02*
X68120Y-32600D01*
X68120Y-32600D02*
X68280Y-32600D01*
X68280Y-32600D02*
X68500Y-32380D01*
X68500Y-32380D02*
X68500Y-31834D01*
G54D30*
X65026Y-35472D02*
X65586Y-35472D01*
X64938Y-35560D02*
X65026Y-35472D01*
X68261Y-35472D02*
X70198Y-35472D01*
X70475Y-36207D02*
X70601Y-36333D01*
X70475Y-35749D02*
X70475Y-36207D01*
X70198Y-35472D02*
X70475Y-35749D01*
X73980Y-35472D02*
X73701Y-35472D01*
X74358Y-35472D02*
X74508Y-35622D01*
X75153Y-33939D02*
X74991Y-33777D01*
X74991Y-33777D02*
X74916Y-33777D01*
X73980Y-35472D02*
X74358Y-35472D01*
X73701Y-35472D02*
X73524Y-35649D01*
X73524Y-35649D02*
X73524Y-36153D01*
X73524Y-36153D02*
X73344Y-36333D01*
X73344Y-36333D02*
X70601Y-36333D01*
X68341Y-35472D02*
X68341Y-35468D01*
X68341Y-35468D02*
X68341Y-35472D01*
X68341Y-35472D02*
X68261Y-35472D01*
X68261Y-35472D02*
X65586Y-35472D01*
X65298Y-33660D02*
X65500Y-33660D01*
X65070Y-33888D02*
X65298Y-33660D01*
G54D32*
X66250Y-32600D02*
X65580Y-32600D01*
X65580Y-32600D02*
X65500Y-32680D01*
G54D35*
X65500Y-33660D02*
X65500Y-32680D01*
X65500Y-32680D02*
X65500Y-31834D01*
G54D33*
X75000Y-31320D02*
X75000Y-31500D01*
X75000Y-31500D02*
X75140Y-31640D01*
G54D37*
X74876Y-33200D02*
X75336Y-32740D01*
X75660Y-32740D02*
X75880Y-32520D01*
X75336Y-32740D02*
X75660Y-32740D01*
X75880Y-32520D02*
X75880Y-32260D01*
G54D35*
X74916Y-34100D02*
X74916Y-33777D01*
X74916Y-33777D02*
X74916Y-33240D01*
X74916Y-33240D02*
X74876Y-33200D01*
G54D32*
X72250Y-31834D02*
X72250Y-32236D01*
X72250Y-32236D02*
X72614Y-32600D01*
X73750Y-33660D02*
X73750Y-32993D01*
X73357Y-32600D02*
X72614Y-32600D01*
X72614Y-32600D02*
X71500Y-32600D01*
X73750Y-32993D02*
X73357Y-32600D01*
G54D30*
X72855Y-33057D02*
X72855Y-33432D01*
X72855Y-33432D02*
X72918Y-33495D01*
X71000Y-32618D02*
X71000Y-32786D01*
X72855Y-33057D02*
X72855Y-33519D01*
X72742Y-32944D02*
X72855Y-33057D01*
X71958Y-32944D02*
X72742Y-32944D01*
X71824Y-33078D02*
X71958Y-32944D01*
X71292Y-33078D02*
X71824Y-33078D01*
X71000Y-32786D02*
X71292Y-33078D01*
G54D32*
X78750Y-22066D02*
X78646Y-22170D01*
X78646Y-22170D02*
X78646Y-22503D01*
G54D30*
X67578Y-26106D02*
X67808Y-26336D01*
X67572Y-26106D02*
X67578Y-26106D01*
X64936Y-25750D02*
X64936Y-25566D01*
X66286Y-25408D02*
X66586Y-25108D01*
X65094Y-25408D02*
X66286Y-25408D01*
X64936Y-25566D02*
X65094Y-25408D01*
X69760Y-24775D02*
X69805Y-24731D01*
X70611Y-24731D02*
X70750Y-24870D01*
X69805Y-24731D02*
X70611Y-24731D01*
X69670Y-25060D02*
X69670Y-24866D01*
X69670Y-24866D02*
X69760Y-24775D01*
X69228Y-25348D02*
X69612Y-25348D01*
X69670Y-25060D02*
X69670Y-25060D01*
X69670Y-25290D02*
X69670Y-25060D01*
X69612Y-25348D02*
X69670Y-25290D01*
X70750Y-24870D02*
X70750Y-26050D01*
X65962Y-29622D02*
X66250Y-29334D01*
X65962Y-30234D02*
X65962Y-29622D01*
G54D33*
X72250Y-31166D02*
X72927Y-30489D01*
X72927Y-30489D02*
X72927Y-30273D01*
G54D30*
X75000Y-30583D02*
X75000Y-30872D01*
X73764Y-32436D02*
X74020Y-32692D01*
X73764Y-31019D02*
X73764Y-32436D01*
X73832Y-30951D02*
X73764Y-31019D01*
X74921Y-30951D02*
X73832Y-30951D01*
X75000Y-30872D02*
X74921Y-30951D01*
G54D33*
X75000Y-32383D02*
X75000Y-32650D01*
X74064Y-32736D02*
X74020Y-32692D01*
X74914Y-32736D02*
X74064Y-32736D01*
X75000Y-32650D02*
X74914Y-32736D01*
G54D32*
X64936Y-24350D02*
X65235Y-24051D01*
X65235Y-24051D02*
X65235Y-23874D01*
X64936Y-25050D02*
X64936Y-24350D01*
X64936Y-25750D02*
X64936Y-25050D01*
X64936Y-26500D02*
X64936Y-25750D01*
G54D30*
X73329Y-26829D02*
X73335Y-26835D01*
X73335Y-26835D02*
X73335Y-27665D01*
X72473Y-26894D02*
X72365Y-26785D01*
X72639Y-26894D02*
X72473Y-26894D01*
X72771Y-26332D02*
X73192Y-26332D01*
X73329Y-26469D02*
X73329Y-26829D01*
X73192Y-26332D02*
X73329Y-26469D01*
X64100Y-34050D02*
X64356Y-34050D01*
X65146Y-34840D02*
X65500Y-34840D01*
X64356Y-34050D02*
X65146Y-34840D01*
X67061Y-32121D02*
X67250Y-32310D01*
X67250Y-32310D02*
X67250Y-32600D01*
X66296Y-32124D02*
X66110Y-32124D01*
X66582Y-31838D02*
X66296Y-32124D01*
X66778Y-31838D02*
X66582Y-31838D01*
X67162Y-32222D02*
X67061Y-32121D01*
X67061Y-32121D02*
X66778Y-31838D01*
X68500Y-31166D02*
X68269Y-31166D01*
X68269Y-31166D02*
X67250Y-32185D01*
X67250Y-32600D02*
X67250Y-32222D01*
X67250Y-32222D02*
X67250Y-32185D01*
X68376Y-22250D02*
X68376Y-22401D01*
X68939Y-22767D02*
X69296Y-22767D01*
X68837Y-22665D02*
X68939Y-22767D01*
X68639Y-22665D02*
X68837Y-22665D01*
X68376Y-22401D02*
X68639Y-22665D01*
X75434Y-25250D02*
X75717Y-25250D01*
X75786Y-25950D02*
X75434Y-25950D01*
X76194Y-25542D02*
X75786Y-25950D01*
X75717Y-25250D02*
X76055Y-24912D01*
X71885Y-23478D02*
X71885Y-24553D01*
X71885Y-24553D02*
X72038Y-24706D01*
X72771Y-24561D02*
X72182Y-24561D01*
X72182Y-24561D02*
X72038Y-24706D01*
X67750Y-26334D02*
X67750Y-26716D01*
X67750Y-26716D02*
X67900Y-26866D01*
G54D33*
X63098Y-20030D02*
X63597Y-20529D01*
X63597Y-20529D02*
X64710Y-20529D01*
G54D32*
X68376Y-22250D02*
X67843Y-22250D01*
X67843Y-22250D02*
X67836Y-22257D01*
X66417Y-22422D02*
X66417Y-22749D01*
X66417Y-22749D02*
X66416Y-22750D01*
X66416Y-22421D02*
X66416Y-22000D01*
X66417Y-22422D02*
X66416Y-22421D01*
G54D30*
X65500Y-31166D02*
X65802Y-31166D01*
X65802Y-31166D02*
X66110Y-31474D01*
X67208Y-32718D02*
X67208Y-32642D01*
X67208Y-32642D02*
X67250Y-32600D01*
G54D32*
X70500Y-34840D02*
X70500Y-35381D01*
X70500Y-35381D02*
X71023Y-35905D01*
G54D37*
X75584Y-34003D02*
X75584Y-34100D01*
X75588Y-33999D02*
X75584Y-34003D01*
G54D30*
X74830Y-34900D02*
X74916Y-34900D01*
X74812Y-34882D02*
X74830Y-34900D01*
X68607Y-31211D02*
X68562Y-31166D01*
X68562Y-31166D02*
X68500Y-31166D01*
G54D32*
X70250Y-31600D02*
X69886Y-31600D01*
X69452Y-31166D02*
X69250Y-31166D01*
X69886Y-31600D02*
X69452Y-31166D01*
G54D30*
X69228Y-25938D02*
X69228Y-26135D01*
X69228Y-25742D02*
X69228Y-25938D01*
X69228Y-25545D02*
X69228Y-25742D01*
X69228Y-25348D02*
X69228Y-25545D01*
G54D32*
X69000Y-34840D02*
X69228Y-34612D01*
X70272Y-34612D02*
X70500Y-34840D01*
X69228Y-34612D02*
X70272Y-34612D01*
G54D33*
X74626Y-27750D02*
X74626Y-27519D01*
X74626Y-27519D02*
X75110Y-27035D01*
X75110Y-27035D02*
X75110Y-26274D01*
X75110Y-26274D02*
X75434Y-25950D01*
G54D32*
X75425Y-25970D02*
X75434Y-25961D01*
X75434Y-25961D02*
X75434Y-25950D01*
X73335Y-27665D02*
X73335Y-29170D01*
X78624Y-27250D02*
X78894Y-27520D01*
X78894Y-27520D02*
X79135Y-27520D01*
G54D30*
X74585Y-27640D02*
X74626Y-27681D01*
X74626Y-27681D02*
X74626Y-27750D01*
X70114Y-23478D02*
X70114Y-23054D01*
X70114Y-23054D02*
X70020Y-22960D01*
X70020Y-22960D02*
X69755Y-22960D01*
X69755Y-22960D02*
X69695Y-23020D01*
X69695Y-23020D02*
X69695Y-23050D01*
X71098Y-27021D02*
X71098Y-26238D01*
X71098Y-26238D02*
X70950Y-26090D01*
G54D35*
X70750Y-26050D02*
X70750Y-26200D01*
X70750Y-26200D02*
X70955Y-26405D01*
X70750Y-26050D02*
X70750Y-26180D01*
X70750Y-26180D02*
X70550Y-26380D01*
X70750Y-26050D02*
X70750Y-25985D01*
X70750Y-25985D02*
X70520Y-25755D01*
X70750Y-26050D02*
X70750Y-25965D01*
X70750Y-25965D02*
X70970Y-25745D01*
G54D30*
X77250Y-32700D02*
X77050Y-32700D01*
X77300Y-33900D02*
X77500Y-33700D01*
X77500Y-33700D02*
X77500Y-32950D01*
X77500Y-32950D02*
X77250Y-32700D01*
X76750Y-33900D02*
X77300Y-33900D01*
X77950Y-33750D02*
X78200Y-34000D01*
X77950Y-31850D02*
X77950Y-33750D01*
X77700Y-31600D02*
X77950Y-31850D01*
X77050Y-31600D02*
X77700Y-31600D01*
X76900Y-31750D02*
X77050Y-31600D01*
X76900Y-32550D02*
X76900Y-31750D01*
X77050Y-32700D02*
X76900Y-32550D01*
G54D32*
X74916Y-34900D02*
X73810Y-34900D01*
X73810Y-34900D02*
X73750Y-34840D01*
X73750Y-34840D02*
X72906Y-34840D01*
X72906Y-34840D02*
X72650Y-34584D01*
X71750Y-34840D02*
X72394Y-34840D01*
X72394Y-34840D02*
X72650Y-34584D01*
X70500Y-34840D02*
X71750Y-34840D01*
X67750Y-34840D02*
X69000Y-34840D01*
X66750Y-34084D02*
X66750Y-34710D01*
X66750Y-34710D02*
X66880Y-34840D01*
X65500Y-34840D02*
X66880Y-34840D01*
X66880Y-34840D02*
X67750Y-34840D01*
G54D30*
X77374Y-34750D02*
X77374Y-34726D01*
X77700Y-32385D02*
X77401Y-32086D01*
X77700Y-34400D02*
X77700Y-32385D01*
X77374Y-34726D02*
X77700Y-34400D01*
G54D33*
X75624Y-33200D02*
X76377Y-32446D01*
X76377Y-32446D02*
X76377Y-32086D01*
G54D30*
X76377Y-29330D02*
X75797Y-28750D01*
X75797Y-28750D02*
X75374Y-28750D01*
G54D33*
X69228Y-24954D02*
X69228Y-25151D01*
G54D30*
X74074Y-29872D02*
X74672Y-29872D01*
X74672Y-29872D02*
X74750Y-29950D01*
X77050Y-30650D02*
X77300Y-30650D01*
X76950Y-30550D02*
X77050Y-30650D01*
X76600Y-29750D02*
X76800Y-29750D01*
X75600Y-29950D02*
X75800Y-29750D01*
X75800Y-29750D02*
X76600Y-29750D01*
X75550Y-29950D02*
X75000Y-29950D01*
X74606Y-29806D02*
X74750Y-29950D01*
X74750Y-29950D02*
X75000Y-29950D01*
X74606Y-29520D02*
X74606Y-29806D01*
X75550Y-29950D02*
X75600Y-29950D01*
X76950Y-29900D02*
X76950Y-30150D01*
X76800Y-29750D02*
X76950Y-29900D01*
X76950Y-30150D02*
X76950Y-30550D01*
X77401Y-30548D02*
X77401Y-30314D01*
X77300Y-30650D02*
X77401Y-30548D01*
X67868Y-25178D02*
X68006Y-25178D01*
X68268Y-24561D02*
X69228Y-24561D01*
X68102Y-24728D02*
X68268Y-24561D01*
X68102Y-25082D02*
X68102Y-24728D01*
X68006Y-25178D02*
X68102Y-25082D01*
X66750Y-26037D02*
X66750Y-25294D01*
X66866Y-25178D02*
X67868Y-25178D01*
X66750Y-25294D02*
X66866Y-25178D01*
G54D33*
X65584Y-25750D02*
X66462Y-25750D01*
X66462Y-25750D02*
X66750Y-26037D01*
X65584Y-25050D02*
X66162Y-25050D01*
X66162Y-25050D02*
X66750Y-24462D01*
X67750Y-24166D02*
X67046Y-24166D01*
X67046Y-24166D02*
X66750Y-24462D01*
G54D30*
X73325Y-31977D02*
X73468Y-31977D01*
X73574Y-30600D02*
X73710Y-30463D01*
X73574Y-31872D02*
X73574Y-30600D01*
X73468Y-31977D02*
X73574Y-31872D01*
X73710Y-30360D02*
X73710Y-30463D01*
X73710Y-26110D02*
X73538Y-25938D01*
X73710Y-30360D02*
X73710Y-26110D01*
X73538Y-25938D02*
X72771Y-25938D01*
X74074Y-31622D02*
X74492Y-31622D01*
X74492Y-31622D02*
X74606Y-31736D01*
X74606Y-31320D02*
X74606Y-31736D01*
X74606Y-31736D02*
X74606Y-31826D01*
X75750Y-31769D02*
X75750Y-31540D01*
X75619Y-31900D02*
X75750Y-31769D01*
X74680Y-31900D02*
X75619Y-31900D01*
X74606Y-31826D02*
X74680Y-31900D01*
X76050Y-30600D02*
X76200Y-30600D01*
X76200Y-30600D02*
X76377Y-30422D01*
X76377Y-30422D02*
X76377Y-30314D01*
X76050Y-30600D02*
X76000Y-30600D01*
X75750Y-31540D02*
X75750Y-30700D01*
X75750Y-30700D02*
X75850Y-30600D01*
X75850Y-30600D02*
X76000Y-30600D01*
X69084Y-23250D02*
X68681Y-22847D01*
X68654Y-21780D02*
X69124Y-22250D01*
X67770Y-21780D02*
X68654Y-21780D01*
X67577Y-21973D02*
X67770Y-21780D01*
X67577Y-22505D02*
X67577Y-21973D01*
X67919Y-22847D02*
X67577Y-22505D01*
X68681Y-22847D02*
X67919Y-22847D01*
X71866Y-20574D02*
X72472Y-20574D01*
X72608Y-22226D02*
X72584Y-22250D01*
X72608Y-20710D02*
X72608Y-22226D01*
X72472Y-20574D02*
X72608Y-20710D01*
X70166Y-21980D02*
X70166Y-22250D01*
X70444Y-21702D02*
X70166Y-21980D01*
X70444Y-20790D02*
X70444Y-21702D01*
X70660Y-20574D02*
X70444Y-20790D01*
X71866Y-20574D02*
X70660Y-20574D01*
X70507Y-23478D02*
X70507Y-23873D01*
X70901Y-23862D02*
X70901Y-23478D01*
X70832Y-23932D02*
X70901Y-23862D01*
X70566Y-23932D02*
X70832Y-23932D01*
X70507Y-23873D02*
X70566Y-23932D01*
G54D33*
X70507Y-23478D02*
X70507Y-22591D01*
X70507Y-22591D02*
X70166Y-22250D01*
X69124Y-22250D02*
X70166Y-22250D01*
G54D30*
X71098Y-23478D02*
X71098Y-23070D01*
X70834Y-22806D02*
X70834Y-22250D01*
X71098Y-23070D02*
X70834Y-22806D01*
X72114Y-20714D02*
X72306Y-20714D01*
X72464Y-21702D02*
X71916Y-22250D01*
X72464Y-20872D02*
X72464Y-21702D01*
X72306Y-20714D02*
X72464Y-20872D01*
X70834Y-22250D02*
X70834Y-21890D01*
X70767Y-20714D02*
X72114Y-20714D01*
X72114Y-20714D02*
X72120Y-20714D01*
X70584Y-20897D02*
X70767Y-20714D01*
X70584Y-21640D02*
X70584Y-20897D01*
X70834Y-21890D02*
X70584Y-21640D01*
X71916Y-22250D02*
X72246Y-22580D01*
X72246Y-22580D02*
X72840Y-22580D01*
X72840Y-22580D02*
X72920Y-22500D01*
X72920Y-22500D02*
X72920Y-21840D01*
X73520Y-21760D02*
X73626Y-21866D01*
X73626Y-21866D02*
X73626Y-22250D01*
G54D33*
X70704Y-23478D02*
X70704Y-22379D01*
X70704Y-22379D02*
X70834Y-22250D01*
G54D30*
X69228Y-26332D02*
X69601Y-26332D01*
X69806Y-26128D02*
X69806Y-25486D01*
X69601Y-26332D02*
X69806Y-26128D01*
X70133Y-24475D02*
X69850Y-24475D01*
X69850Y-24475D02*
X69694Y-24319D01*
X69916Y-24978D02*
X69903Y-24965D01*
X69806Y-25486D02*
X69812Y-25480D01*
X69812Y-25110D02*
X69943Y-24978D01*
X69812Y-25480D02*
X69812Y-25110D01*
X69943Y-24978D02*
X69916Y-24978D01*
X69506Y-24167D02*
X69228Y-24167D01*
X69569Y-24105D02*
X69506Y-24167D01*
X71116Y-24930D02*
X71116Y-24796D01*
X70795Y-24475D02*
X70133Y-24475D01*
X71116Y-24796D02*
X70795Y-24475D01*
X75336Y-25613D02*
X75769Y-25613D01*
X76344Y-23896D02*
X75970Y-23522D01*
X76344Y-25038D02*
X76344Y-23896D01*
X75769Y-25613D02*
X76344Y-25038D01*
X74766Y-25250D02*
X74766Y-25275D01*
X75104Y-25613D02*
X75336Y-25613D01*
X74766Y-25275D02*
X75104Y-25613D01*
X75972Y-21988D02*
X75972Y-22564D01*
X75972Y-22564D02*
X76122Y-22714D01*
X74374Y-22250D02*
X74374Y-22147D01*
X74374Y-22147D02*
X74741Y-21780D01*
X76122Y-22714D02*
X76126Y-22718D01*
X72479Y-23478D02*
X72082Y-23478D01*
X72504Y-23503D02*
X72479Y-23478D01*
X69228Y-24167D02*
X69635Y-24167D01*
X69694Y-24226D02*
X69694Y-24319D01*
X69635Y-24167D02*
X69694Y-24226D01*
X72630Y-23478D02*
X73421Y-23478D01*
X72082Y-23478D02*
X72630Y-23478D01*
X73421Y-23478D02*
X74374Y-22526D01*
X74374Y-22526D02*
X74374Y-22250D01*
G54D33*
X67084Y-22750D02*
X67084Y-22000D01*
X67084Y-22750D02*
X67084Y-23624D01*
X67084Y-23624D02*
X67260Y-23800D01*
X74766Y-25250D02*
X74650Y-25250D01*
X74157Y-25742D02*
X72771Y-25742D01*
X74650Y-25250D02*
X74157Y-25742D01*
X74766Y-25250D02*
X74766Y-24550D01*
X65584Y-24350D02*
X65584Y-24116D01*
X68367Y-24167D02*
X69228Y-24167D01*
X68000Y-23800D02*
X68367Y-24167D01*
X65900Y-23800D02*
X67260Y-23800D01*
X67260Y-23800D02*
X68000Y-23800D01*
X65584Y-24116D02*
X65900Y-23800D01*
G54D32*
X81000Y-24018D02*
X81000Y-26381D01*
G54D30*
X67051Y-27694D02*
X66941Y-27804D01*
X65830Y-27250D02*
X66306Y-26774D01*
X66306Y-26774D02*
X66306Y-26652D01*
X65830Y-27250D02*
X65604Y-27250D01*
X66941Y-27804D02*
X66628Y-27804D01*
X66955Y-27790D02*
X66958Y-27786D01*
X66958Y-27786D02*
X67051Y-27694D01*
X67051Y-27694D02*
X67205Y-27540D01*
X70060Y-27540D02*
X67205Y-27540D01*
X70114Y-27485D02*
X70060Y-27540D01*
X70114Y-27021D02*
X70114Y-27485D01*
X65689Y-27335D02*
X65604Y-27250D01*
G54D33*
X65584Y-27250D02*
X65584Y-26946D01*
X65584Y-26946D02*
X65584Y-26500D01*
G54D30*
X71688Y-23478D02*
X71688Y-22989D01*
X73762Y-22865D02*
X74000Y-22628D01*
X71812Y-22865D02*
X73762Y-22865D01*
X71688Y-22989D02*
X71812Y-22865D01*
X74410Y-21650D02*
X74610Y-21450D01*
X74610Y-20830D02*
X74610Y-21450D01*
X74720Y-20720D02*
X74610Y-20830D01*
X77290Y-20720D02*
X74720Y-20720D01*
X77440Y-20870D02*
X77290Y-20720D01*
X77440Y-21580D02*
X77440Y-20870D01*
X77600Y-21740D02*
X77440Y-21580D01*
X79143Y-23129D02*
X79143Y-22723D01*
X78899Y-21740D02*
X77930Y-21740D01*
X78950Y-21790D02*
X78899Y-21740D01*
X78950Y-22530D02*
X78950Y-21790D01*
X79143Y-22723D02*
X78950Y-22530D01*
X77930Y-21740D02*
X77600Y-21740D01*
X74000Y-22628D02*
X74000Y-21760D01*
X74000Y-21760D02*
X74110Y-21650D01*
X74110Y-21650D02*
X74410Y-21650D01*
X80125Y-22177D02*
X79672Y-22177D01*
X79143Y-22706D02*
X79143Y-23129D01*
X79672Y-22177D02*
X79143Y-22706D01*
G54D33*
X69228Y-24364D02*
X68219Y-24364D01*
X68219Y-24364D02*
X67750Y-24834D01*
G54D30*
X71492Y-23106D02*
X71492Y-22832D01*
X73004Y-22725D02*
X73220Y-22509D01*
X71600Y-22725D02*
X73004Y-22725D01*
X71492Y-22832D02*
X71600Y-22725D01*
X73640Y-20570D02*
X74550Y-20570D01*
X73520Y-20690D02*
X73640Y-20570D01*
X73520Y-21320D02*
X73520Y-20690D01*
X73220Y-21620D02*
X73520Y-21320D01*
X73220Y-22509D02*
X73220Y-21620D01*
X78710Y-21590D02*
X77720Y-21590D01*
X77460Y-20570D02*
X74550Y-20570D01*
X77600Y-20710D02*
X77460Y-20570D01*
X77600Y-21470D02*
X77600Y-20710D01*
X77720Y-21590D02*
X77600Y-21470D01*
X71492Y-23478D02*
X71492Y-23106D01*
X79143Y-21703D02*
X79143Y-22066D01*
X79030Y-21590D02*
X79143Y-21703D01*
X78710Y-21590D02*
X79030Y-21590D01*
X79250Y-22400D02*
X79150Y-22400D01*
X79827Y-21822D02*
X79250Y-22400D01*
X80125Y-21822D02*
X79827Y-21822D01*
X79100Y-22110D02*
X79143Y-22066D01*
X79100Y-22350D02*
X79100Y-22110D01*
X79150Y-22400D02*
X79100Y-22350D01*
X68416Y-23250D02*
X68756Y-23590D01*
X69604Y-22800D02*
X70100Y-22800D01*
X69398Y-23006D02*
X69604Y-22800D01*
X69398Y-23516D02*
X69398Y-23006D01*
X69324Y-23590D02*
X69398Y-23516D01*
X68756Y-23590D02*
X69324Y-23590D01*
X70100Y-22800D02*
X70311Y-23011D01*
X70311Y-23011D02*
X70311Y-23478D01*
X72082Y-27021D02*
X72415Y-27021D01*
X72415Y-27021D02*
X72612Y-27218D01*
X74766Y-26724D02*
X74766Y-26700D01*
X74220Y-27270D02*
X74766Y-26724D01*
G54D33*
X74766Y-26700D02*
X74766Y-25950D01*
G54D30*
X71000Y-30418D02*
X71000Y-30074D01*
X71000Y-30074D02*
X70930Y-30004D01*
X70305Y-28330D02*
X70380Y-28330D01*
X70255Y-28380D02*
X70305Y-28330D01*
X70000Y-28666D02*
X70000Y-28445D01*
X70620Y-28330D02*
X70850Y-28100D01*
X70115Y-28330D02*
X70380Y-28330D01*
X70380Y-28330D02*
X70620Y-28330D01*
X70000Y-28445D02*
X70115Y-28330D01*
X71295Y-27654D02*
X71295Y-27021D01*
X70850Y-28100D02*
X71295Y-27654D01*
X70000Y-30400D02*
X70174Y-30400D01*
X70392Y-30062D02*
X70662Y-30062D01*
X70286Y-30168D02*
X70392Y-30062D01*
X70286Y-30288D02*
X70286Y-30168D01*
X70174Y-30400D02*
X70286Y-30288D01*
X72579Y-28995D02*
X72250Y-28666D01*
X72579Y-29960D02*
X72579Y-28995D01*
X71780Y-30759D02*
X72579Y-29960D01*
X70899Y-30759D02*
X71780Y-30759D01*
X70760Y-30620D02*
X70899Y-30759D01*
X70760Y-30160D02*
X70760Y-30620D01*
X70662Y-30062D02*
X70760Y-30160D01*
X72250Y-28666D02*
X72250Y-28250D01*
X71885Y-27885D02*
X71885Y-27021D01*
X72250Y-28250D02*
X71885Y-27885D01*
X68086Y-29302D02*
X68086Y-29084D01*
X67750Y-28748D02*
X67750Y-28666D01*
X68086Y-29084D02*
X67750Y-28748D01*
X67847Y-29923D02*
X68086Y-29684D01*
X68086Y-29684D02*
X68086Y-29302D01*
X67750Y-30400D02*
X67750Y-30020D01*
X67750Y-30020D02*
X67847Y-29923D01*
X70507Y-27021D02*
X70507Y-27727D01*
X67935Y-27845D02*
X67750Y-28030D01*
X70390Y-27845D02*
X67935Y-27845D01*
X70507Y-27727D02*
X70390Y-27845D01*
X67750Y-28030D02*
X67750Y-28666D01*
X68838Y-29192D02*
X68838Y-29084D01*
X68500Y-28746D02*
X68500Y-28666D01*
X68838Y-29084D02*
X68500Y-28746D01*
X68500Y-28666D02*
X68500Y-28124D01*
X68624Y-28000D02*
X69848Y-28000D01*
X68500Y-28124D02*
X68624Y-28000D01*
X69848Y-28000D02*
X70475Y-28000D01*
X70475Y-28000D02*
X70704Y-27770D01*
X70704Y-27770D02*
X70704Y-27021D01*
X67746Y-30710D02*
X67884Y-30710D01*
X67943Y-30285D02*
X67950Y-30278D01*
X67943Y-30651D02*
X67943Y-30285D01*
X67884Y-30710D02*
X67943Y-30651D01*
X67598Y-30710D02*
X67746Y-30710D01*
X68728Y-29870D02*
X68782Y-29816D01*
X68782Y-29816D02*
X68838Y-29760D01*
X68838Y-29760D02*
X68838Y-29192D01*
X67950Y-30278D02*
X68358Y-29870D01*
X68358Y-29870D02*
X68728Y-29870D01*
X66995Y-30645D02*
X67060Y-30710D01*
X67060Y-30710D02*
X67598Y-30710D01*
X66750Y-30400D02*
X66995Y-30645D01*
X66064Y-28270D02*
X65938Y-28396D01*
X66064Y-27820D02*
X66064Y-28270D01*
X66959Y-28666D02*
X67000Y-28666D01*
X66621Y-28328D02*
X66959Y-28666D01*
X65938Y-28564D02*
X65938Y-28396D01*
X67250Y-29970D02*
X66990Y-29710D01*
X67250Y-30400D02*
X67250Y-29970D01*
X66802Y-29710D02*
X66634Y-29542D01*
X66634Y-29542D02*
X66634Y-29132D01*
X66634Y-29132D02*
X66498Y-28996D01*
X66498Y-28996D02*
X66000Y-28996D01*
X66990Y-29710D02*
X66802Y-29710D01*
X65938Y-28564D02*
X65938Y-28934D01*
X65938Y-28934D02*
X66000Y-28996D01*
X67260Y-27690D02*
X70205Y-27690D01*
X70311Y-27583D02*
X70311Y-27021D01*
X70205Y-27690D02*
X70311Y-27583D01*
X67000Y-28666D02*
X67000Y-28220D01*
X67000Y-28220D02*
X67000Y-27950D01*
X67000Y-27950D02*
X67260Y-27690D01*
X68085Y-30705D02*
X68265Y-30525D01*
X69339Y-30525D02*
X69641Y-30223D01*
X68265Y-30525D02*
X69339Y-30525D01*
X69641Y-30158D02*
X69641Y-30011D01*
X69491Y-29671D02*
X69641Y-29521D01*
X69491Y-29861D02*
X69491Y-29671D01*
X69641Y-30011D02*
X69491Y-29861D01*
X69641Y-29057D02*
X69250Y-28666D01*
X69641Y-30223D02*
X69641Y-30158D01*
X69641Y-29521D02*
X69641Y-29057D01*
X67686Y-30854D02*
X67941Y-30854D01*
X68085Y-30710D02*
X68085Y-30705D01*
X67941Y-30854D02*
X68085Y-30710D01*
X67118Y-30854D02*
X67686Y-30854D01*
X66540Y-30492D02*
X66540Y-30642D01*
X66448Y-30400D02*
X66540Y-30492D01*
X66250Y-30400D02*
X66448Y-30400D01*
X66992Y-30854D02*
X66858Y-30720D01*
X66858Y-30720D02*
X66618Y-30720D01*
X66618Y-30720D02*
X66540Y-30642D01*
X67118Y-30854D02*
X66992Y-30854D01*
X69250Y-28666D02*
X69410Y-28666D01*
X69982Y-28146D02*
X69983Y-28145D01*
X69930Y-28146D02*
X69982Y-28146D01*
X69410Y-28666D02*
X69930Y-28146D01*
X70901Y-27813D02*
X70901Y-27021D01*
X69983Y-28145D02*
X70570Y-28145D01*
X70570Y-28145D02*
X70901Y-27813D01*
X71176Y-30900D02*
X70822Y-30900D01*
X70500Y-30578D02*
X70500Y-30418D01*
X70822Y-30900D02*
X70500Y-30578D01*
X72719Y-27774D02*
X72719Y-28265D01*
X72355Y-27410D02*
X72719Y-27774D01*
X71176Y-30900D02*
X71880Y-30900D01*
X71880Y-30900D02*
X72719Y-30060D01*
X72719Y-30060D02*
X72719Y-28265D01*
X71500Y-28666D02*
X71500Y-28260D01*
X71500Y-28260D02*
X71500Y-28000D01*
X71688Y-27811D02*
X71688Y-27021D01*
X71500Y-28000D02*
X71688Y-27811D01*
X71500Y-30418D02*
X71500Y-30175D01*
X71425Y-30100D02*
X71250Y-30100D01*
X71500Y-30175D02*
X71425Y-30100D01*
X70436Y-28666D02*
X70750Y-28666D01*
X70425Y-28655D02*
X70436Y-28666D01*
X70750Y-28666D02*
X70750Y-28450D01*
X70750Y-28450D02*
X70880Y-28320D01*
X71492Y-27707D02*
X71492Y-27021D01*
X70880Y-28320D02*
X71492Y-27707D01*
X74074Y-30227D02*
X74622Y-30227D01*
X74622Y-30227D02*
X74700Y-30150D01*
X77401Y-31102D02*
X77401Y-30901D01*
X76900Y-30800D02*
X76800Y-30700D01*
X77300Y-30800D02*
X76900Y-30800D01*
X77401Y-30901D02*
X77300Y-30800D01*
X76800Y-30050D02*
X76800Y-30700D01*
X75850Y-29950D02*
X75900Y-29900D01*
X75650Y-30150D02*
X75850Y-29950D01*
X74950Y-30150D02*
X75650Y-30150D01*
X76650Y-29900D02*
X76750Y-30000D01*
X75900Y-29900D02*
X76650Y-29900D01*
X76750Y-30000D02*
X76800Y-30050D01*
X74606Y-30583D02*
X74606Y-30243D01*
X74700Y-30150D02*
X74950Y-30150D01*
X74950Y-30150D02*
X75000Y-30150D01*
X74606Y-30243D02*
X74700Y-30150D01*
G54D33*
X77876Y-27250D02*
X77050Y-27250D01*
X76732Y-27567D02*
X76732Y-28188D01*
X77050Y-27250D02*
X76732Y-27567D01*
G54D30*
X69874Y-24100D02*
X69874Y-24054D01*
X68367Y-23865D02*
X68222Y-23720D01*
X69685Y-23865D02*
X68367Y-23865D01*
X69874Y-24054D02*
X69685Y-23865D01*
X67401Y-21293D02*
X67425Y-21317D01*
X67425Y-22923D02*
X68222Y-23720D01*
X67425Y-21317D02*
X67425Y-22923D01*
X67401Y-21293D02*
X67158Y-21050D01*
X67158Y-21050D02*
X64100Y-21050D01*
X70698Y-24306D02*
X70985Y-24306D01*
X71538Y-24788D02*
X71538Y-24682D01*
X71704Y-24954D02*
X71538Y-24788D01*
X72771Y-24954D02*
X71704Y-24954D01*
X69874Y-24234D02*
X69874Y-24100D01*
X70698Y-24306D02*
X70192Y-24306D01*
X69946Y-24306D02*
X69874Y-24234D01*
X70192Y-24306D02*
X69946Y-24306D01*
X70985Y-24306D02*
X71051Y-24372D01*
X72771Y-24757D02*
X73316Y-24757D01*
X74122Y-23952D02*
X74122Y-23752D01*
X73316Y-24757D02*
X74122Y-23952D01*
X71284Y-21696D02*
X71442Y-21538D01*
X71284Y-22378D02*
X71284Y-21696D01*
X74074Y-31977D02*
X74547Y-31977D01*
X74606Y-32036D02*
X74606Y-32383D01*
X74547Y-31977D02*
X74606Y-32036D01*
X74606Y-32383D02*
X74606Y-32143D01*
X75900Y-31920D02*
X75900Y-31800D01*
X75770Y-32050D02*
X75900Y-31920D01*
X74700Y-32050D02*
X75770Y-32050D01*
X74606Y-32143D02*
X74700Y-32050D01*
X76050Y-30800D02*
X76200Y-30800D01*
X75900Y-30850D02*
X75950Y-30800D01*
X75950Y-30800D02*
X76050Y-30800D01*
X75900Y-31800D02*
X75900Y-30900D01*
X75900Y-30900D02*
X75900Y-30850D01*
X76377Y-30977D02*
X76377Y-31102D01*
X76200Y-30800D02*
X76377Y-30977D01*
X73325Y-31622D02*
X73424Y-31524D01*
X73424Y-30518D02*
X73570Y-30372D01*
X73424Y-31524D02*
X73424Y-30518D01*
X73570Y-30372D02*
X73570Y-30330D01*
X73570Y-26350D02*
X73355Y-26135D01*
X73570Y-30330D02*
X73570Y-26350D01*
X73355Y-26135D02*
X72771Y-26135D01*
X72771Y-26135D02*
X73355Y-26135D01*
X73325Y-30227D02*
X73281Y-30227D01*
X72946Y-29892D02*
X72946Y-26731D01*
X73281Y-30227D02*
X72946Y-29892D01*
X72404Y-25348D02*
X72343Y-25348D01*
X72859Y-26645D02*
X72946Y-26731D01*
X72350Y-26645D02*
X72859Y-26645D01*
X72140Y-26435D02*
X72350Y-26645D01*
X72140Y-25551D02*
X72140Y-26435D01*
X72343Y-25348D02*
X72140Y-25551D01*
X72771Y-25348D02*
X72404Y-25348D01*
X72679Y-26504D02*
X72410Y-26504D01*
X72281Y-26375D02*
X72281Y-25639D01*
X72410Y-26504D02*
X72281Y-26375D01*
X73089Y-29635D02*
X73325Y-29872D01*
X73089Y-26642D02*
X73089Y-29635D01*
X72951Y-26504D02*
X73089Y-26642D01*
X72679Y-26504D02*
X72951Y-26504D01*
X72374Y-25545D02*
X72771Y-25545D01*
X72281Y-25639D02*
X72374Y-25545D01*
G54D33*
X77401Y-29330D02*
X76870Y-28800D01*
X75550Y-27750D02*
X75374Y-27750D01*
X75850Y-28050D02*
X75550Y-27750D01*
X75850Y-28500D02*
X75850Y-28050D01*
X76150Y-28800D02*
X75850Y-28500D01*
X76870Y-28800D02*
X76150Y-28800D01*
G54D10*
G36*
X63958Y-20540D02*
X63803Y-20604D01*
X63655Y-20752D01*
X63599Y-20885D01*
X63545Y-20753D01*
X63397Y-20605D01*
X63241Y-20540D01*
X63274Y-20535D01*
X63330Y-20512D01*
X63375Y-20441D01*
X63098Y-20164D01*
X62820Y-20441D01*
X62865Y-20512D01*
X62964Y-20537D01*
X62803Y-20604D01*
X62684Y-20722D01*
X62684Y-20306D01*
X62686Y-20307D01*
X62963Y-20030D01*
X62958Y-20024D01*
X63092Y-19890D01*
X63098Y-19895D01*
X63103Y-19890D01*
X63237Y-20024D01*
X63232Y-20030D01*
X63509Y-20307D01*
X63580Y-20262D01*
X63597Y-20194D01*
X63652Y-20327D01*
X63800Y-20474D01*
X63958Y-20540D01*
X63958Y-20540D01*
G37*
G54D38*
X63958Y-20540D02*
X63803Y-20604D01*
X63655Y-20752D01*
X63599Y-20885D01*
X63545Y-20753D01*
X63397Y-20605D01*
X63241Y-20540D01*
X63274Y-20535D01*
X63330Y-20512D01*
X63375Y-20441D01*
X63098Y-20164D01*
X62820Y-20441D01*
X62865Y-20512D01*
X62964Y-20537D01*
X62803Y-20604D01*
X62684Y-20722D01*
X62684Y-20306D01*
X62686Y-20307D01*
X62963Y-20030D01*
X62958Y-20024D01*
X63092Y-19890D01*
X63098Y-19895D01*
X63103Y-19890D01*
X63237Y-20024D01*
X63232Y-20030D01*
X63509Y-20307D01*
X63580Y-20262D01*
X63597Y-20194D01*
X63652Y-20327D01*
X63800Y-20474D01*
X63958Y-20540D01*
G54D10*
G36*
X64239Y-34055D02*
X64105Y-34189D01*
X64100Y-34184D01*
X64094Y-34189D01*
X63960Y-34055D01*
X63965Y-34050D01*
X63960Y-34044D01*
X64094Y-33910D01*
X64100Y-33915D01*
X64105Y-33910D01*
X64239Y-34044D01*
X64234Y-34050D01*
X64239Y-34055D01*
X64239Y-34055D01*
G37*
G54D38*
X64239Y-34055D02*
X64105Y-34189D01*
X64100Y-34184D01*
X64094Y-34189D01*
X63960Y-34055D01*
X63965Y-34050D01*
X63960Y-34044D01*
X64094Y-33910D01*
X64100Y-33915D01*
X64105Y-33910D01*
X64239Y-34044D01*
X64234Y-34050D01*
X64239Y-34055D01*
G54D10*
G36*
X64239Y-35055D02*
X64105Y-35189D01*
X64100Y-35184D01*
X63834Y-35450D01*
X63876Y-35518D01*
X63985Y-35546D01*
X63811Y-35617D01*
X63668Y-35761D01*
X63608Y-35905D01*
X63545Y-35753D01*
X63397Y-35605D01*
X63264Y-35549D01*
X63397Y-35495D01*
X63544Y-35347D01*
X63606Y-35198D01*
X63610Y-35223D01*
X63631Y-35273D01*
X63699Y-35315D01*
X63965Y-35050D01*
X63960Y-35044D01*
X64094Y-34910D01*
X64100Y-34915D01*
X64105Y-34910D01*
X64239Y-35044D01*
X64234Y-35050D01*
X64239Y-35055D01*
X64239Y-35055D01*
G37*
G54D38*
X64239Y-35055D02*
X64105Y-35189D01*
X64100Y-35184D01*
X63834Y-35450D01*
X63876Y-35518D01*
X63985Y-35546D01*
X63811Y-35617D01*
X63668Y-35761D01*
X63608Y-35905D01*
X63545Y-35753D01*
X63397Y-35605D01*
X63264Y-35549D01*
X63397Y-35495D01*
X63544Y-35347D01*
X63606Y-35198D01*
X63610Y-35223D01*
X63631Y-35273D01*
X63699Y-35315D01*
X63965Y-35050D01*
X63960Y-35044D01*
X64094Y-34910D01*
X64100Y-34915D01*
X64105Y-34910D01*
X64239Y-35044D01*
X64234Y-35050D01*
X64239Y-35055D01*
G54D10*
G36*
X65602Y-31261D02*
X65595Y-31261D01*
X65595Y-31268D01*
X65405Y-31268D01*
X65405Y-31261D01*
X65397Y-31261D01*
X65397Y-31071D01*
X65405Y-31071D01*
X65405Y-31063D01*
X65595Y-31063D01*
X65595Y-31071D01*
X65602Y-31071D01*
X65602Y-31261D01*
X65602Y-31261D01*
G37*
G54D38*
X65602Y-31261D02*
X65595Y-31261D01*
X65595Y-31268D01*
X65405Y-31268D01*
X65405Y-31261D01*
X65397Y-31261D01*
X65397Y-31071D01*
X65405Y-31071D01*
X65405Y-31063D01*
X65595Y-31063D01*
X65595Y-31071D01*
X65602Y-31071D01*
X65602Y-31261D01*
G54D10*
G36*
X65616Y-23808D02*
X65446Y-23978D01*
X65432Y-23998D01*
X65356Y-23998D01*
X65299Y-24022D01*
X65270Y-24051D01*
X65240Y-24022D01*
X65183Y-23998D01*
X65069Y-23998D01*
X65031Y-24037D01*
X65031Y-24255D01*
X65038Y-24255D01*
X65038Y-24445D01*
X65031Y-24445D01*
X65031Y-24662D01*
X65068Y-24700D01*
X65031Y-24737D01*
X65031Y-24955D01*
X65038Y-24955D01*
X65038Y-25145D01*
X65031Y-25145D01*
X65031Y-25362D01*
X65068Y-25400D01*
X65031Y-25437D01*
X65031Y-25655D01*
X65038Y-25655D01*
X65038Y-25845D01*
X65031Y-25845D01*
X65031Y-26062D01*
X65069Y-26101D01*
X65102Y-26101D01*
X65093Y-26115D01*
X65090Y-26128D01*
X65069Y-26128D01*
X65031Y-26167D01*
X65031Y-26405D01*
X65038Y-26405D01*
X65038Y-26595D01*
X65031Y-26595D01*
X65031Y-26832D01*
X65061Y-26863D01*
X65045Y-26878D01*
X64789Y-26878D01*
X64789Y-26871D01*
X64802Y-26871D01*
X64841Y-26832D01*
X64841Y-26595D01*
X64833Y-26595D01*
X64833Y-26405D01*
X64841Y-26405D01*
X64841Y-26167D01*
X64802Y-26128D01*
X64789Y-26128D01*
X64789Y-26101D01*
X64802Y-26101D01*
X64841Y-26062D01*
X64841Y-25845D01*
X64833Y-25845D01*
X64833Y-25655D01*
X64841Y-25655D01*
X64841Y-25437D01*
X64803Y-25400D01*
X64841Y-25362D01*
X64841Y-25145D01*
X64833Y-25145D01*
X64833Y-24955D01*
X64841Y-24955D01*
X64841Y-24737D01*
X64803Y-24700D01*
X64841Y-24662D01*
X64841Y-24445D01*
X64833Y-24445D01*
X64833Y-24255D01*
X64841Y-24255D01*
X64841Y-24088D01*
X65027Y-23901D01*
X65121Y-23808D01*
X65616Y-23808D01*
X65616Y-23808D01*
G37*
G54D38*
X65616Y-23808D02*
X65446Y-23978D01*
X65432Y-23998D01*
X65356Y-23998D01*
X65299Y-24022D01*
X65270Y-24051D01*
X65240Y-24022D01*
X65183Y-23998D01*
X65069Y-23998D01*
X65031Y-24037D01*
X65031Y-24255D01*
X65038Y-24255D01*
X65038Y-24445D01*
X65031Y-24445D01*
X65031Y-24662D01*
X65068Y-24700D01*
X65031Y-24737D01*
X65031Y-24955D01*
X65038Y-24955D01*
X65038Y-25145D01*
X65031Y-25145D01*
X65031Y-25362D01*
X65068Y-25400D01*
X65031Y-25437D01*
X65031Y-25655D01*
X65038Y-25655D01*
X65038Y-25845D01*
X65031Y-25845D01*
X65031Y-26062D01*
X65069Y-26101D01*
X65102Y-26101D01*
X65093Y-26115D01*
X65090Y-26128D01*
X65069Y-26128D01*
X65031Y-26167D01*
X65031Y-26405D01*
X65038Y-26405D01*
X65038Y-26595D01*
X65031Y-26595D01*
X65031Y-26832D01*
X65061Y-26863D01*
X65045Y-26878D01*
X64789Y-26878D01*
X64789Y-26871D01*
X64802Y-26871D01*
X64841Y-26832D01*
X64841Y-26595D01*
X64833Y-26595D01*
X64833Y-26405D01*
X64841Y-26405D01*
X64841Y-26167D01*
X64802Y-26128D01*
X64789Y-26128D01*
X64789Y-26101D01*
X64802Y-26101D01*
X64841Y-26062D01*
X64841Y-25845D01*
X64833Y-25845D01*
X64833Y-25655D01*
X64841Y-25655D01*
X64841Y-25437D01*
X64803Y-25400D01*
X64841Y-25362D01*
X64841Y-25145D01*
X64833Y-25145D01*
X64833Y-24955D01*
X64841Y-24955D01*
X64841Y-24737D01*
X64803Y-24700D01*
X64841Y-24662D01*
X64841Y-24445D01*
X64833Y-24445D01*
X64833Y-24255D01*
X64841Y-24255D01*
X64841Y-24088D01*
X65027Y-23901D01*
X65121Y-23808D01*
X65616Y-23808D01*
G54D10*
G36*
X66270Y-31639D02*
X66150Y-31639D01*
X65875Y-31364D01*
X65851Y-31347D01*
X65851Y-31299D01*
X65812Y-31261D01*
X65851Y-31261D01*
X65851Y-31177D01*
X65961Y-31286D01*
X65961Y-31286D01*
X66021Y-31326D01*
X66092Y-31341D01*
X66185Y-31341D01*
X66180Y-31355D01*
X66179Y-31464D01*
X66221Y-31565D01*
X66270Y-31613D01*
X66270Y-31639D01*
X66270Y-31639D01*
G37*
G54D38*
X66270Y-31639D02*
X66150Y-31639D01*
X65875Y-31364D01*
X65851Y-31347D01*
X65851Y-31299D01*
X65812Y-31261D01*
X65851Y-31261D01*
X65851Y-31177D01*
X65961Y-31286D01*
X65961Y-31286D01*
X66021Y-31326D01*
X66092Y-31341D01*
X66185Y-31341D01*
X66180Y-31355D01*
X66179Y-31464D01*
X66221Y-31565D01*
X66270Y-31613D01*
X66270Y-31639D01*
G54D10*
G36*
X66381Y-32008D02*
X66353Y-32077D01*
X66352Y-32158D01*
X66339Y-32179D01*
X66325Y-32248D01*
X66298Y-32248D01*
X66140Y-32248D01*
X66083Y-32271D01*
X66039Y-32315D01*
X66019Y-32365D01*
X65815Y-32365D01*
X65815Y-32151D01*
X65827Y-32138D01*
X65851Y-32081D01*
X65851Y-32019D01*
X65851Y-31863D01*
X65943Y-31954D01*
X65943Y-31954D01*
X66003Y-31994D01*
X66074Y-32009D01*
X66378Y-32009D01*
X66378Y-32008D01*
X66381Y-32008D01*
X66381Y-32008D01*
G37*
G54D38*
X66381Y-32008D02*
X66353Y-32077D01*
X66352Y-32158D01*
X66339Y-32179D01*
X66325Y-32248D01*
X66298Y-32248D01*
X66140Y-32248D01*
X66083Y-32271D01*
X66039Y-32315D01*
X66019Y-32365D01*
X65815Y-32365D01*
X65815Y-32151D01*
X65827Y-32138D01*
X65851Y-32081D01*
X65851Y-32019D01*
X65851Y-31863D01*
X65943Y-31954D01*
X65943Y-31954D01*
X66003Y-31994D01*
X66074Y-32009D01*
X66378Y-32009D01*
X66378Y-32008D01*
X66381Y-32008D01*
G54D10*
G36*
X66788Y-25011D02*
X66775Y-25020D01*
X66735Y-25047D01*
X66619Y-25163D01*
X66579Y-25223D01*
X66565Y-25294D01*
X66565Y-25488D01*
X66246Y-25488D01*
X66189Y-25512D01*
X66147Y-25555D01*
X65975Y-25555D01*
X65975Y-25522D01*
X65951Y-25465D01*
X65908Y-25422D01*
X65854Y-25399D01*
X65908Y-25377D01*
X65951Y-25334D01*
X65975Y-25277D01*
X65975Y-25245D01*
X66162Y-25245D01*
X66237Y-25230D01*
X66237Y-25230D01*
X66300Y-25187D01*
X66477Y-25011D01*
X66788Y-25011D01*
X66788Y-25011D01*
G37*
G54D38*
X66788Y-25011D02*
X66775Y-25020D01*
X66735Y-25047D01*
X66619Y-25163D01*
X66579Y-25223D01*
X66565Y-25294D01*
X66565Y-25488D01*
X66246Y-25488D01*
X66189Y-25512D01*
X66147Y-25555D01*
X65975Y-25555D01*
X65975Y-25522D01*
X65951Y-25465D01*
X65908Y-25422D01*
X65854Y-25399D01*
X65908Y-25377D01*
X65951Y-25334D01*
X65975Y-25277D01*
X65975Y-25245D01*
X66162Y-25245D01*
X66237Y-25230D01*
X66237Y-25230D01*
X66300Y-25187D01*
X66477Y-25011D01*
X66788Y-25011D01*
G54D10*
G36*
X66889Y-22398D02*
X66836Y-22398D01*
X66779Y-22422D01*
X66750Y-22451D01*
X66720Y-22422D01*
X66663Y-22398D01*
X66549Y-22398D01*
X66511Y-22437D01*
X66511Y-22655D01*
X66518Y-22655D01*
X66518Y-22845D01*
X66511Y-22845D01*
X66511Y-22852D01*
X66321Y-22852D01*
X66321Y-22845D01*
X66321Y-22655D01*
X66321Y-22437D01*
X66321Y-22312D01*
X66321Y-22095D01*
X66083Y-22095D01*
X66044Y-22133D01*
X66044Y-22165D01*
X66044Y-22227D01*
X66068Y-22284D01*
X66111Y-22327D01*
X66168Y-22351D01*
X66282Y-22351D01*
X66321Y-22312D01*
X66321Y-22437D01*
X66282Y-22398D01*
X66168Y-22398D01*
X66111Y-22422D01*
X66068Y-22465D01*
X66044Y-22522D01*
X66044Y-22584D01*
X66044Y-22616D01*
X66083Y-22655D01*
X66321Y-22655D01*
X66321Y-22845D01*
X66083Y-22845D01*
X66044Y-22883D01*
X66044Y-22897D01*
X66043Y-22897D01*
X66016Y-22879D01*
X65946Y-22865D01*
X64591Y-22865D01*
X64545Y-22753D01*
X64397Y-22605D01*
X64264Y-22549D01*
X64397Y-22495D01*
X64544Y-22347D01*
X64624Y-22154D01*
X64625Y-21946D01*
X64545Y-21753D01*
X64515Y-21722D01*
X64574Y-21682D01*
X64614Y-21622D01*
X64620Y-21593D01*
X64785Y-21429D01*
X65006Y-21429D01*
X64764Y-21671D01*
X64721Y-21734D01*
X64707Y-21809D01*
X64707Y-22102D01*
X64669Y-22140D01*
X64627Y-22241D01*
X64626Y-22350D01*
X64668Y-22451D01*
X64746Y-22528D01*
X64847Y-22570D01*
X64956Y-22571D01*
X65057Y-22529D01*
X65134Y-22451D01*
X65176Y-22350D01*
X65177Y-22241D01*
X65135Y-22140D01*
X65097Y-22102D01*
X65097Y-21889D01*
X65267Y-21719D01*
X66066Y-21719D01*
X66044Y-21772D01*
X66044Y-21834D01*
X66044Y-21866D01*
X66083Y-21905D01*
X66321Y-21905D01*
X66321Y-21897D01*
X66511Y-21897D01*
X66511Y-21905D01*
X66518Y-21905D01*
X66518Y-22095D01*
X66511Y-22095D01*
X66511Y-22312D01*
X66549Y-22351D01*
X66663Y-22351D01*
X66720Y-22327D01*
X66750Y-22298D01*
X66779Y-22327D01*
X66836Y-22351D01*
X66889Y-22351D01*
X66889Y-22398D01*
X66889Y-22398D01*
G37*
G54D38*
X66889Y-22398D02*
X66836Y-22398D01*
X66779Y-22422D01*
X66750Y-22451D01*
X66720Y-22422D01*
X66663Y-22398D01*
X66549Y-22398D01*
X66511Y-22437D01*
X66511Y-22655D01*
X66518Y-22655D01*
X66518Y-22845D01*
X66511Y-22845D01*
X66511Y-22852D01*
X66321Y-22852D01*
X66321Y-22845D01*
X66321Y-22655D01*
X66321Y-22437D01*
X66321Y-22312D01*
X66321Y-22095D01*
X66083Y-22095D01*
X66044Y-22133D01*
X66044Y-22165D01*
X66044Y-22227D01*
X66068Y-22284D01*
X66111Y-22327D01*
X66168Y-22351D01*
X66282Y-22351D01*
X66321Y-22312D01*
X66321Y-22437D01*
X66282Y-22398D01*
X66168Y-22398D01*
X66111Y-22422D01*
X66068Y-22465D01*
X66044Y-22522D01*
X66044Y-22584D01*
X66044Y-22616D01*
X66083Y-22655D01*
X66321Y-22655D01*
X66321Y-22845D01*
X66083Y-22845D01*
X66044Y-22883D01*
X66044Y-22897D01*
X66043Y-22897D01*
X66016Y-22879D01*
X65946Y-22865D01*
X64591Y-22865D01*
X64545Y-22753D01*
X64397Y-22605D01*
X64264Y-22549D01*
X64397Y-22495D01*
X64544Y-22347D01*
X64624Y-22154D01*
X64625Y-21946D01*
X64545Y-21753D01*
X64515Y-21722D01*
X64574Y-21682D01*
X64614Y-21622D01*
X64620Y-21593D01*
X64785Y-21429D01*
X65006Y-21429D01*
X64764Y-21671D01*
X64721Y-21734D01*
X64707Y-21809D01*
X64707Y-22102D01*
X64669Y-22140D01*
X64627Y-22241D01*
X64626Y-22350D01*
X64668Y-22451D01*
X64746Y-22528D01*
X64847Y-22570D01*
X64956Y-22571D01*
X65057Y-22529D01*
X65134Y-22451D01*
X65176Y-22350D01*
X65177Y-22241D01*
X65135Y-22140D01*
X65097Y-22102D01*
X65097Y-21889D01*
X65267Y-21719D01*
X66066Y-21719D01*
X66044Y-21772D01*
X66044Y-21834D01*
X66044Y-21866D01*
X66083Y-21905D01*
X66321Y-21905D01*
X66321Y-21897D01*
X66511Y-21897D01*
X66511Y-21905D01*
X66518Y-21905D01*
X66518Y-22095D01*
X66511Y-22095D01*
X66511Y-22312D01*
X66549Y-22351D01*
X66663Y-22351D01*
X66720Y-22327D01*
X66750Y-22298D01*
X66779Y-22327D01*
X66836Y-22351D01*
X66889Y-22351D01*
X66889Y-22398D01*
G54D10*
G36*
X67065Y-30090D02*
X67039Y-30115D01*
X67016Y-30172D01*
X67016Y-30233D01*
X67016Y-30404D01*
X66983Y-30372D01*
X66983Y-30172D01*
X66960Y-30115D01*
X66916Y-30071D01*
X66859Y-30048D01*
X66798Y-30048D01*
X66640Y-30048D01*
X66583Y-30071D01*
X66539Y-30115D01*
X66516Y-30172D01*
X66516Y-30228D01*
X66483Y-30222D01*
X66483Y-30172D01*
X66460Y-30115D01*
X66416Y-30071D01*
X66359Y-30048D01*
X66298Y-30048D01*
X66155Y-30048D01*
X66155Y-29666D01*
X66155Y-29429D01*
X65937Y-29429D01*
X65898Y-29467D01*
X65898Y-29581D01*
X65922Y-29638D01*
X65965Y-29681D01*
X66022Y-29705D01*
X66084Y-29705D01*
X66116Y-29705D01*
X66155Y-29666D01*
X66155Y-30048D01*
X66140Y-30048D01*
X66083Y-30071D01*
X66039Y-30115D01*
X66016Y-30172D01*
X66016Y-30233D01*
X66016Y-30390D01*
X65877Y-30251D01*
X65877Y-30207D01*
X65924Y-30159D01*
X65966Y-30058D01*
X65967Y-29949D01*
X65925Y-29848D01*
X65847Y-29771D01*
X65746Y-29729D01*
X65637Y-29728D01*
X65601Y-29744D01*
X65601Y-28750D01*
X65614Y-28680D01*
X65615Y-28680D01*
X65615Y-28490D01*
X65600Y-28419D01*
X65560Y-28359D01*
X65560Y-28359D01*
X65509Y-28307D01*
X65509Y-28095D01*
X65501Y-28095D01*
X65501Y-27905D01*
X65509Y-27905D01*
X65509Y-27897D01*
X65699Y-27897D01*
X65699Y-27905D01*
X65706Y-27905D01*
X65706Y-28095D01*
X65699Y-28095D01*
X65699Y-28312D01*
X65737Y-28351D01*
X65761Y-28351D01*
X65753Y-28396D01*
X65753Y-28564D01*
X65753Y-28934D01*
X65767Y-29004D01*
X65807Y-29064D01*
X65869Y-29126D01*
X65869Y-29126D01*
X65898Y-29146D01*
X65898Y-29146D01*
X65898Y-29200D01*
X65937Y-29239D01*
X66155Y-29239D01*
X66155Y-29231D01*
X66345Y-29231D01*
X66345Y-29239D01*
X66352Y-29239D01*
X66352Y-29429D01*
X66345Y-29429D01*
X66345Y-29666D01*
X66383Y-29705D01*
X66415Y-29705D01*
X66477Y-29705D01*
X66518Y-29688D01*
X66671Y-29840D01*
X66671Y-29840D01*
X66731Y-29880D01*
X66802Y-29895D01*
X66913Y-29895D01*
X67065Y-30046D01*
X67065Y-30090D01*
X67065Y-30090D01*
G37*
G54D38*
X67065Y-30090D02*
X67039Y-30115D01*
X67016Y-30172D01*
X67016Y-30233D01*
X67016Y-30404D01*
X66983Y-30372D01*
X66983Y-30172D01*
X66960Y-30115D01*
X66916Y-30071D01*
X66859Y-30048D01*
X66798Y-30048D01*
X66640Y-30048D01*
X66583Y-30071D01*
X66539Y-30115D01*
X66516Y-30172D01*
X66516Y-30228D01*
X66483Y-30222D01*
X66483Y-30172D01*
X66460Y-30115D01*
X66416Y-30071D01*
X66359Y-30048D01*
X66298Y-30048D01*
X66155Y-30048D01*
X66155Y-29666D01*
X66155Y-29429D01*
X65937Y-29429D01*
X65898Y-29467D01*
X65898Y-29581D01*
X65922Y-29638D01*
X65965Y-29681D01*
X66022Y-29705D01*
X66084Y-29705D01*
X66116Y-29705D01*
X66155Y-29666D01*
X66155Y-30048D01*
X66140Y-30048D01*
X66083Y-30071D01*
X66039Y-30115D01*
X66016Y-30172D01*
X66016Y-30233D01*
X66016Y-30390D01*
X65877Y-30251D01*
X65877Y-30207D01*
X65924Y-30159D01*
X65966Y-30058D01*
X65967Y-29949D01*
X65925Y-29848D01*
X65847Y-29771D01*
X65746Y-29729D01*
X65637Y-29728D01*
X65601Y-29744D01*
X65601Y-28750D01*
X65614Y-28680D01*
X65615Y-28680D01*
X65615Y-28490D01*
X65600Y-28419D01*
X65560Y-28359D01*
X65560Y-28359D01*
X65509Y-28307D01*
X65509Y-28095D01*
X65501Y-28095D01*
X65501Y-27905D01*
X65509Y-27905D01*
X65509Y-27897D01*
X65699Y-27897D01*
X65699Y-27905D01*
X65706Y-27905D01*
X65706Y-28095D01*
X65699Y-28095D01*
X65699Y-28312D01*
X65737Y-28351D01*
X65761Y-28351D01*
X65753Y-28396D01*
X65753Y-28564D01*
X65753Y-28934D01*
X65767Y-29004D01*
X65807Y-29064D01*
X65869Y-29126D01*
X65869Y-29126D01*
X65898Y-29146D01*
X65898Y-29146D01*
X65898Y-29200D01*
X65937Y-29239D01*
X66155Y-29239D01*
X66155Y-29231D01*
X66345Y-29231D01*
X66345Y-29239D01*
X66352Y-29239D01*
X66352Y-29429D01*
X66345Y-29429D01*
X66345Y-29666D01*
X66383Y-29705D01*
X66415Y-29705D01*
X66477Y-29705D01*
X66518Y-29688D01*
X66671Y-29840D01*
X66671Y-29840D01*
X66731Y-29880D01*
X66802Y-29895D01*
X66913Y-29895D01*
X67065Y-30046D01*
X67065Y-30090D01*
G54D10*
G36*
X68478Y-22345D02*
X68471Y-22345D01*
X68471Y-22352D01*
X68281Y-22352D01*
X68281Y-22345D01*
X68004Y-22345D01*
X67965Y-22383D01*
X67965Y-22514D01*
X67965Y-22575D01*
X67989Y-22632D01*
X68018Y-22662D01*
X67995Y-22662D01*
X67762Y-22428D01*
X67762Y-22049D01*
X67846Y-21965D01*
X67965Y-21965D01*
X67965Y-21985D01*
X67965Y-22116D01*
X68004Y-22155D01*
X68281Y-22155D01*
X68281Y-22147D01*
X68471Y-22147D01*
X68471Y-22155D01*
X68478Y-22155D01*
X68478Y-22345D01*
X68478Y-22345D01*
G37*
G54D38*
X68478Y-22345D02*
X68471Y-22345D01*
X68471Y-22352D01*
X68281Y-22352D01*
X68281Y-22345D01*
X68004Y-22345D01*
X67965Y-22383D01*
X67965Y-22514D01*
X67965Y-22575D01*
X67989Y-22632D01*
X68018Y-22662D01*
X67995Y-22662D01*
X67762Y-22428D01*
X67762Y-22049D01*
X67846Y-21965D01*
X67965Y-21965D01*
X67965Y-21985D01*
X67965Y-22116D01*
X68004Y-22155D01*
X68281Y-22155D01*
X68281Y-22147D01*
X68471Y-22147D01*
X68471Y-22155D01*
X68478Y-22155D01*
X68478Y-22345D01*
G54D10*
G36*
X68602Y-31261D02*
X68595Y-31261D01*
X68595Y-31268D01*
X68405Y-31268D01*
X68405Y-31261D01*
X68187Y-31261D01*
X68148Y-31299D01*
X68148Y-31353D01*
X68125Y-31369D01*
X68058Y-31436D01*
X68018Y-31496D01*
X68004Y-31567D01*
X68004Y-32026D01*
X67975Y-32055D01*
X67636Y-32055D01*
X67565Y-32069D01*
X67505Y-32109D01*
X67364Y-32250D01*
X67359Y-32248D01*
X67298Y-32248D01*
X67328Y-32248D01*
X67289Y-32286D01*
X67289Y-32367D01*
X67281Y-32410D01*
X67281Y-32702D01*
X67210Y-32702D01*
X67210Y-32695D01*
X67210Y-32505D01*
X67210Y-32286D01*
X67171Y-32248D01*
X67201Y-32248D01*
X67140Y-32248D01*
X67083Y-32271D01*
X67039Y-32315D01*
X67016Y-32372D01*
X67016Y-32466D01*
X67055Y-32505D01*
X67210Y-32505D01*
X67210Y-32695D01*
X67055Y-32695D01*
X67033Y-32716D01*
X67023Y-32692D01*
X66985Y-32654D01*
X66985Y-32600D01*
X66983Y-32593D01*
X66983Y-32372D01*
X66960Y-32315D01*
X66916Y-32271D01*
X66874Y-32254D01*
X66902Y-32186D01*
X66903Y-32077D01*
X66861Y-31976D01*
X66783Y-31899D01*
X66682Y-31857D01*
X66599Y-31856D01*
X66612Y-31837D01*
X66625Y-31817D01*
X66625Y-31817D01*
X66639Y-31747D01*
X66640Y-31747D01*
X66640Y-31613D01*
X66651Y-31602D01*
X66934Y-31885D01*
X66933Y-31953D01*
X66975Y-32054D01*
X67053Y-32131D01*
X67154Y-32173D01*
X67263Y-32174D01*
X67364Y-32132D01*
X67441Y-32054D01*
X67483Y-31953D01*
X67484Y-31844D01*
X67442Y-31743D01*
X67364Y-31666D01*
X67263Y-31624D01*
X67195Y-31623D01*
X67149Y-31577D01*
X67215Y-31604D01*
X67324Y-31605D01*
X67425Y-31563D01*
X67502Y-31485D01*
X67544Y-31384D01*
X67545Y-31275D01*
X67508Y-31187D01*
X67556Y-31187D01*
X67990Y-31187D01*
X67990Y-31186D01*
X68061Y-31172D01*
X68121Y-31132D01*
X68185Y-31069D01*
X68187Y-31071D01*
X68405Y-31071D01*
X68405Y-31063D01*
X68595Y-31063D01*
X68595Y-31071D01*
X68602Y-31071D01*
X68602Y-31261D01*
X68602Y-31261D01*
G37*
G54D38*
X68602Y-31261D02*
X68595Y-31261D01*
X68595Y-31268D01*
X68405Y-31268D01*
X68405Y-31261D01*
X68187Y-31261D01*
X68148Y-31299D01*
X68148Y-31353D01*
X68125Y-31369D01*
X68058Y-31436D01*
X68018Y-31496D01*
X68004Y-31567D01*
X68004Y-32026D01*
X67975Y-32055D01*
X67636Y-32055D01*
X67565Y-32069D01*
X67505Y-32109D01*
X67364Y-32250D01*
X67359Y-32248D01*
X67298Y-32248D01*
X67328Y-32248D01*
X67289Y-32286D01*
X67289Y-32367D01*
X67281Y-32410D01*
X67281Y-32702D01*
X67210Y-32702D01*
X67210Y-32695D01*
X67210Y-32505D01*
X67210Y-32286D01*
X67171Y-32248D01*
X67201Y-32248D01*
X67140Y-32248D01*
X67083Y-32271D01*
X67039Y-32315D01*
X67016Y-32372D01*
X67016Y-32466D01*
X67055Y-32505D01*
X67210Y-32505D01*
X67210Y-32695D01*
X67055Y-32695D01*
X67033Y-32716D01*
X67023Y-32692D01*
X66985Y-32654D01*
X66985Y-32600D01*
X66983Y-32593D01*
X66983Y-32372D01*
X66960Y-32315D01*
X66916Y-32271D01*
X66874Y-32254D01*
X66902Y-32186D01*
X66903Y-32077D01*
X66861Y-31976D01*
X66783Y-31899D01*
X66682Y-31857D01*
X66599Y-31856D01*
X66612Y-31837D01*
X66625Y-31817D01*
X66625Y-31817D01*
X66639Y-31747D01*
X66640Y-31747D01*
X66640Y-31613D01*
X66651Y-31602D01*
X66934Y-31885D01*
X66933Y-31953D01*
X66975Y-32054D01*
X67053Y-32131D01*
X67154Y-32173D01*
X67263Y-32174D01*
X67364Y-32132D01*
X67441Y-32054D01*
X67483Y-31953D01*
X67484Y-31844D01*
X67442Y-31743D01*
X67364Y-31666D01*
X67263Y-31624D01*
X67195Y-31623D01*
X67149Y-31577D01*
X67215Y-31604D01*
X67324Y-31605D01*
X67425Y-31563D01*
X67502Y-31485D01*
X67544Y-31384D01*
X67545Y-31275D01*
X67508Y-31187D01*
X67556Y-31187D01*
X67990Y-31187D01*
X67990Y-31186D01*
X68061Y-31172D01*
X68121Y-31132D01*
X68185Y-31069D01*
X68187Y-31071D01*
X68405Y-31071D01*
X68405Y-31063D01*
X68595Y-31063D01*
X68595Y-31071D01*
X68602Y-31071D01*
X68602Y-31261D01*
G54D10*
G36*
X69102Y-34935D02*
X69095Y-34935D01*
X69095Y-34942D01*
X68905Y-34942D01*
X68905Y-34935D01*
X68411Y-34935D01*
X68373Y-34973D01*
X68372Y-35143D01*
X68180Y-35143D01*
X68180Y-34973D01*
X68141Y-34935D01*
X67845Y-34935D01*
X67845Y-34942D01*
X67655Y-34942D01*
X67655Y-34935D01*
X67358Y-34935D01*
X67319Y-34973D01*
X67319Y-35143D01*
X66127Y-35143D01*
X66127Y-34973D01*
X66088Y-34935D01*
X65595Y-34935D01*
X65595Y-34942D01*
X65405Y-34942D01*
X65405Y-34935D01*
X65397Y-34935D01*
X65397Y-34745D01*
X65405Y-34745D01*
X65405Y-34737D01*
X65595Y-34737D01*
X65595Y-34745D01*
X66088Y-34745D01*
X66127Y-34706D01*
X66127Y-34525D01*
X66288Y-34525D01*
X66288Y-34524D01*
X66358Y-34510D01*
X66418Y-34470D01*
X66461Y-34427D01*
X66465Y-34431D01*
X66522Y-34455D01*
X66584Y-34455D01*
X66616Y-34455D01*
X66655Y-34416D01*
X66655Y-34179D01*
X66647Y-34179D01*
X66647Y-33989D01*
X66655Y-33989D01*
X66655Y-33981D01*
X66845Y-33981D01*
X66845Y-33989D01*
X66852Y-33989D01*
X66852Y-34179D01*
X66845Y-34179D01*
X66845Y-34416D01*
X66883Y-34455D01*
X66915Y-34455D01*
X66977Y-34455D01*
X66982Y-34453D01*
X67031Y-34526D01*
X67133Y-34595D01*
X67254Y-34619D01*
X67319Y-34605D01*
X67319Y-34706D01*
X67358Y-34745D01*
X67655Y-34745D01*
X67655Y-34737D01*
X67845Y-34737D01*
X67845Y-34745D01*
X68141Y-34745D01*
X68180Y-34706D01*
X68180Y-34583D01*
X68372Y-34583D01*
X68373Y-34706D01*
X68411Y-34745D01*
X68905Y-34745D01*
X68905Y-34737D01*
X69095Y-34737D01*
X69095Y-34745D01*
X69102Y-34745D01*
X69102Y-34935D01*
X69102Y-34935D01*
G37*
G54D38*
X69102Y-34935D02*
X69095Y-34935D01*
X69095Y-34942D01*
X68905Y-34942D01*
X68905Y-34935D01*
X68411Y-34935D01*
X68373Y-34973D01*
X68372Y-35143D01*
X68180Y-35143D01*
X68180Y-34973D01*
X68141Y-34935D01*
X67845Y-34935D01*
X67845Y-34942D01*
X67655Y-34942D01*
X67655Y-34935D01*
X67358Y-34935D01*
X67319Y-34973D01*
X67319Y-35143D01*
X66127Y-35143D01*
X66127Y-34973D01*
X66088Y-34935D01*
X65595Y-34935D01*
X65595Y-34942D01*
X65405Y-34942D01*
X65405Y-34935D01*
X65397Y-34935D01*
X65397Y-34745D01*
X65405Y-34745D01*
X65405Y-34737D01*
X65595Y-34737D01*
X65595Y-34745D01*
X66088Y-34745D01*
X66127Y-34706D01*
X66127Y-34525D01*
X66288Y-34525D01*
X66288Y-34524D01*
X66358Y-34510D01*
X66418Y-34470D01*
X66461Y-34427D01*
X66465Y-34431D01*
X66522Y-34455D01*
X66584Y-34455D01*
X66616Y-34455D01*
X66655Y-34416D01*
X66655Y-34179D01*
X66647Y-34179D01*
X66647Y-33989D01*
X66655Y-33989D01*
X66655Y-33981D01*
X66845Y-33981D01*
X66845Y-33989D01*
X66852Y-33989D01*
X66852Y-34179D01*
X66845Y-34179D01*
X66845Y-34416D01*
X66883Y-34455D01*
X66915Y-34455D01*
X66977Y-34455D01*
X66982Y-34453D01*
X67031Y-34526D01*
X67133Y-34595D01*
X67254Y-34619D01*
X67319Y-34605D01*
X67319Y-34706D01*
X67358Y-34745D01*
X67655Y-34745D01*
X67655Y-34737D01*
X67845Y-34737D01*
X67845Y-34745D01*
X68141Y-34745D01*
X68180Y-34706D01*
X68180Y-34583D01*
X68372Y-34583D01*
X68373Y-34706D01*
X68411Y-34745D01*
X68905Y-34745D01*
X68905Y-34737D01*
X69095Y-34737D01*
X69095Y-34745D01*
X69102Y-34745D01*
X69102Y-34935D01*
G54D10*
G36*
X69331Y-25962D02*
X69330Y-25963D01*
X69323Y-25963D01*
X69323Y-25970D01*
X69323Y-25988D01*
X69133Y-25988D01*
X69133Y-25970D01*
X69133Y-25963D01*
X69126Y-25963D01*
X69125Y-25962D01*
X69125Y-25915D01*
X69126Y-25914D01*
X69133Y-25914D01*
X69133Y-25907D01*
X69133Y-25773D01*
X69133Y-25766D01*
X69126Y-25766D01*
X69125Y-25765D01*
X69125Y-25718D01*
X69126Y-25717D01*
X69133Y-25717D01*
X69133Y-25710D01*
X69133Y-25576D01*
X69133Y-25569D01*
X69126Y-25569D01*
X69125Y-25568D01*
X69125Y-25521D01*
X69126Y-25520D01*
X69133Y-25520D01*
X69133Y-25513D01*
X69133Y-25496D01*
X69323Y-25496D01*
X69323Y-25513D01*
X69323Y-25520D01*
X69330Y-25520D01*
X69331Y-25521D01*
X69331Y-25568D01*
X69330Y-25569D01*
X69323Y-25569D01*
X69323Y-25576D01*
X69323Y-25710D01*
X69323Y-25717D01*
X69330Y-25717D01*
X69331Y-25718D01*
X69331Y-25765D01*
X69330Y-25766D01*
X69323Y-25766D01*
X69323Y-25773D01*
X69323Y-25907D01*
X69323Y-25914D01*
X69330Y-25914D01*
X69331Y-25915D01*
X69331Y-25962D01*
X69331Y-25962D01*
G37*
G54D38*
X69331Y-25962D02*
X69330Y-25963D01*
X69323Y-25963D01*
X69323Y-25970D01*
X69323Y-25988D01*
X69133Y-25988D01*
X69133Y-25970D01*
X69133Y-25963D01*
X69126Y-25963D01*
X69125Y-25962D01*
X69125Y-25915D01*
X69126Y-25914D01*
X69133Y-25914D01*
X69133Y-25907D01*
X69133Y-25773D01*
X69133Y-25766D01*
X69126Y-25766D01*
X69125Y-25765D01*
X69125Y-25718D01*
X69126Y-25717D01*
X69133Y-25717D01*
X69133Y-25710D01*
X69133Y-25576D01*
X69133Y-25569D01*
X69126Y-25569D01*
X69125Y-25568D01*
X69125Y-25521D01*
X69126Y-25520D01*
X69133Y-25520D01*
X69133Y-25513D01*
X69133Y-25496D01*
X69323Y-25496D01*
X69323Y-25513D01*
X69323Y-25520D01*
X69330Y-25520D01*
X69331Y-25521D01*
X69331Y-25568D01*
X69330Y-25569D01*
X69323Y-25569D01*
X69323Y-25576D01*
X69323Y-25710D01*
X69323Y-25717D01*
X69330Y-25717D01*
X69331Y-25718D01*
X69331Y-25765D01*
X69330Y-25766D01*
X69323Y-25766D01*
X69323Y-25773D01*
X69323Y-25907D01*
X69323Y-25914D01*
X69330Y-25914D01*
X69331Y-25915D01*
X69331Y-25962D01*
G54D10*
G36*
X69352Y-31261D02*
X69345Y-31261D01*
X69345Y-31268D01*
X69155Y-31268D01*
X69155Y-31261D01*
X69147Y-31261D01*
X69147Y-31071D01*
X69155Y-31071D01*
X69155Y-31063D01*
X69345Y-31063D01*
X69345Y-31071D01*
X69352Y-31071D01*
X69352Y-31261D01*
X69352Y-31261D01*
G37*
G54D38*
X69352Y-31261D02*
X69345Y-31261D01*
X69345Y-31268D01*
X69155Y-31268D01*
X69155Y-31261D01*
X69147Y-31261D01*
X69147Y-31071D01*
X69155Y-31071D01*
X69155Y-31063D01*
X69345Y-31063D01*
X69345Y-31071D01*
X69352Y-31071D01*
X69352Y-31261D01*
G54D10*
G36*
X69442Y-26874D02*
X69390Y-26926D01*
X68159Y-26926D01*
X68159Y-26583D01*
X68159Y-26469D01*
X68120Y-26431D01*
X67903Y-26431D01*
X67903Y-26668D01*
X67941Y-26707D01*
X67973Y-26707D01*
X68035Y-26707D01*
X68092Y-26683D01*
X68135Y-26640D01*
X68159Y-26583D01*
X68159Y-26926D01*
X67249Y-26926D01*
X67468Y-26706D01*
X67468Y-26706D01*
X67499Y-26660D01*
X67523Y-26683D01*
X67580Y-26707D01*
X67642Y-26707D01*
X67674Y-26707D01*
X67713Y-26668D01*
X67713Y-26431D01*
X67705Y-26431D01*
X67705Y-26241D01*
X67713Y-26241D01*
X67713Y-26233D01*
X67903Y-26233D01*
X67903Y-26241D01*
X68120Y-26241D01*
X68159Y-26202D01*
X68159Y-26088D01*
X68135Y-26031D01*
X68106Y-26001D01*
X68135Y-25972D01*
X68159Y-25915D01*
X68159Y-25853D01*
X68159Y-25752D01*
X68443Y-25468D01*
X68443Y-26367D01*
X68443Y-26413D01*
X68457Y-26483D01*
X68497Y-26543D01*
X68676Y-26722D01*
X68676Y-26722D01*
X68736Y-26762D01*
X68807Y-26777D01*
X69442Y-26777D01*
X69442Y-26874D01*
X69442Y-26874D01*
G37*
G54D38*
X69442Y-26874D02*
X69390Y-26926D01*
X68159Y-26926D01*
X68159Y-26583D01*
X68159Y-26469D01*
X68120Y-26431D01*
X67903Y-26431D01*
X67903Y-26668D01*
X67941Y-26707D01*
X67973Y-26707D01*
X68035Y-26707D01*
X68092Y-26683D01*
X68135Y-26640D01*
X68159Y-26583D01*
X68159Y-26926D01*
X67249Y-26926D01*
X67468Y-26706D01*
X67468Y-26706D01*
X67499Y-26660D01*
X67523Y-26683D01*
X67580Y-26707D01*
X67642Y-26707D01*
X67674Y-26707D01*
X67713Y-26668D01*
X67713Y-26431D01*
X67705Y-26431D01*
X67705Y-26241D01*
X67713Y-26241D01*
X67713Y-26233D01*
X67903Y-26233D01*
X67903Y-26241D01*
X68120Y-26241D01*
X68159Y-26202D01*
X68159Y-26088D01*
X68135Y-26031D01*
X68106Y-26001D01*
X68135Y-25972D01*
X68159Y-25915D01*
X68159Y-25853D01*
X68159Y-25752D01*
X68443Y-25468D01*
X68443Y-26367D01*
X68443Y-26413D01*
X68457Y-26483D01*
X68497Y-26543D01*
X68676Y-26722D01*
X68676Y-26722D01*
X68736Y-26762D01*
X68807Y-26777D01*
X69442Y-26777D01*
X69442Y-26874D01*
G54D10*
G36*
X69464Y-22677D02*
X69267Y-22875D01*
X69264Y-22878D01*
X69249Y-22878D01*
X68974Y-22878D01*
X68811Y-22716D01*
X68751Y-22676D01*
X68724Y-22670D01*
X68724Y-22670D01*
X68750Y-22645D01*
X68780Y-22676D01*
X68837Y-22699D01*
X68899Y-22700D01*
X69410Y-22700D01*
X69464Y-22677D01*
X69464Y-22677D01*
G37*
G54D38*
X69464Y-22677D02*
X69267Y-22875D01*
X69264Y-22878D01*
X69249Y-22878D01*
X68974Y-22878D01*
X68811Y-22716D01*
X68751Y-22676D01*
X68724Y-22670D01*
X68724Y-22670D01*
X68750Y-22645D01*
X68780Y-22676D01*
X68837Y-22699D01*
X68899Y-22700D01*
X69410Y-22700D01*
X69464Y-22677D01*
G54D10*
G36*
X70036Y-22998D02*
X70019Y-22998D01*
X70019Y-23004D01*
X70015Y-23006D01*
X69997Y-22998D01*
X69935Y-22998D01*
X69837Y-22998D01*
X69780Y-23022D01*
X69736Y-23065D01*
X69713Y-23122D01*
X69713Y-23184D01*
X69713Y-23301D01*
X69683Y-23307D01*
X69623Y-23347D01*
X69621Y-23350D01*
X69583Y-23349D01*
X69583Y-23082D01*
X69680Y-22985D01*
X70023Y-22985D01*
X70036Y-22998D01*
X70036Y-22998D01*
G37*
G54D38*
X70036Y-22998D02*
X70019Y-22998D01*
X70019Y-23004D01*
X70015Y-23006D01*
X69997Y-22998D01*
X69935Y-22998D01*
X69837Y-22998D01*
X69780Y-23022D01*
X69736Y-23065D01*
X69713Y-23122D01*
X69713Y-23184D01*
X69713Y-23301D01*
X69683Y-23307D01*
X69623Y-23347D01*
X69621Y-23350D01*
X69583Y-23349D01*
X69583Y-23082D01*
X69680Y-22985D01*
X70023Y-22985D01*
X70036Y-22998D01*
G54D10*
G36*
X70469Y-31692D02*
X70457Y-31723D01*
X70456Y-31827D01*
X70001Y-31827D01*
X69955Y-31781D01*
X69854Y-31739D01*
X69751Y-31738D01*
X69751Y-31564D01*
X69736Y-31493D01*
X69696Y-31433D01*
X69696Y-31433D01*
X69634Y-31371D01*
X69601Y-31348D01*
X69601Y-31299D01*
X69562Y-31261D01*
X69600Y-31261D01*
X69626Y-31323D01*
X69704Y-31400D01*
X69805Y-31442D01*
X69914Y-31443D01*
X70015Y-31401D01*
X70063Y-31353D01*
X70121Y-31353D01*
X70291Y-31522D01*
X70291Y-31522D01*
X70291Y-31522D01*
X70444Y-31675D01*
X70444Y-31675D01*
X70469Y-31692D01*
X70469Y-31692D01*
G37*
G54D38*
X70469Y-31692D02*
X70457Y-31723D01*
X70456Y-31827D01*
X70001Y-31827D01*
X69955Y-31781D01*
X69854Y-31739D01*
X69751Y-31738D01*
X69751Y-31564D01*
X69736Y-31493D01*
X69696Y-31433D01*
X69696Y-31433D01*
X69634Y-31371D01*
X69601Y-31348D01*
X69601Y-31299D01*
X69562Y-31261D01*
X69600Y-31261D01*
X69626Y-31323D01*
X69704Y-31400D01*
X69805Y-31442D01*
X69914Y-31443D01*
X70015Y-31401D01*
X70063Y-31353D01*
X70121Y-31353D01*
X70291Y-31522D01*
X70291Y-31522D01*
X70291Y-31522D01*
X70444Y-31675D01*
X70444Y-31675D01*
X70469Y-31692D01*
G54D10*
G36*
X70910Y-19712D02*
X70766Y-19771D01*
X70638Y-19899D01*
X70568Y-20066D01*
X70568Y-20247D01*
X70629Y-20395D01*
X70629Y-20395D01*
X70589Y-20403D01*
X70529Y-20443D01*
X70313Y-20659D01*
X70273Y-20719D01*
X70264Y-20764D01*
X70114Y-20702D01*
X69933Y-20702D01*
X69766Y-20771D01*
X69638Y-20899D01*
X69568Y-21066D01*
X69568Y-21247D01*
X69637Y-21414D01*
X69765Y-21542D01*
X69932Y-21612D01*
X70113Y-21612D01*
X70259Y-21552D01*
X70259Y-21625D01*
X70035Y-21849D01*
X70002Y-21898D01*
X69918Y-21898D01*
X69861Y-21922D01*
X69818Y-21965D01*
X69794Y-22022D01*
X69794Y-22055D01*
X69534Y-22055D01*
X69534Y-21924D01*
X69510Y-21867D01*
X69475Y-21831D01*
X69475Y-21068D01*
X69406Y-20902D01*
X69279Y-20774D01*
X69113Y-20706D01*
X68934Y-20705D01*
X68768Y-20774D01*
X68641Y-20901D01*
X68572Y-21067D01*
X68572Y-21246D01*
X68640Y-21412D01*
X68767Y-21540D01*
X68933Y-21608D01*
X69113Y-21609D01*
X69279Y-21540D01*
X69406Y-21413D01*
X69475Y-21247D01*
X69475Y-21068D01*
X69475Y-21831D01*
X69467Y-21823D01*
X69410Y-21800D01*
X69348Y-21799D01*
X68935Y-21799D01*
X68784Y-21649D01*
X68724Y-21609D01*
X68654Y-21595D01*
X67770Y-21595D01*
X67699Y-21609D01*
X67663Y-21633D01*
X67639Y-21649D01*
X67610Y-21678D01*
X67610Y-21317D01*
X67595Y-21246D01*
X67555Y-21186D01*
X67555Y-21186D01*
X67532Y-21162D01*
X67532Y-21162D01*
X67532Y-21162D01*
X67288Y-20919D01*
X67228Y-20879D01*
X67158Y-20865D01*
X66667Y-20865D01*
X66672Y-20850D01*
X66673Y-20741D01*
X66631Y-20640D01*
X66593Y-20602D01*
X66593Y-20170D01*
X66578Y-20095D01*
X66578Y-20095D01*
X66535Y-20032D01*
X66524Y-20020D01*
X66524Y-19966D01*
X66482Y-19865D01*
X66404Y-19788D01*
X66303Y-19746D01*
X66194Y-19745D01*
X66093Y-19787D01*
X66016Y-19865D01*
X65974Y-19966D01*
X65973Y-20075D01*
X66015Y-20176D01*
X66093Y-20253D01*
X66194Y-20295D01*
X66203Y-20295D01*
X66203Y-20602D01*
X66165Y-20640D01*
X66123Y-20741D01*
X66122Y-20850D01*
X66128Y-20865D01*
X64591Y-20865D01*
X64545Y-20753D01*
X64397Y-20605D01*
X64239Y-20539D01*
X64395Y-20475D01*
X64542Y-20327D01*
X64622Y-20134D01*
X64623Y-19926D01*
X64543Y-19733D01*
X64522Y-19712D01*
X68919Y-19712D01*
X68768Y-19774D01*
X68641Y-19901D01*
X68572Y-20067D01*
X68572Y-20246D01*
X68640Y-20412D01*
X68767Y-20540D01*
X68933Y-20608D01*
X69113Y-20609D01*
X69279Y-20540D01*
X69406Y-20413D01*
X69475Y-20247D01*
X69475Y-20068D01*
X69406Y-19902D01*
X69279Y-19774D01*
X69128Y-19712D01*
X69910Y-19712D01*
X69766Y-19771D01*
X69638Y-19899D01*
X69568Y-20066D01*
X69568Y-20247D01*
X69637Y-20414D01*
X69765Y-20542D01*
X69932Y-20612D01*
X70113Y-20612D01*
X70281Y-20543D01*
X70409Y-20415D01*
X70478Y-20248D01*
X70478Y-20067D01*
X70409Y-19900D01*
X70281Y-19771D01*
X70137Y-19712D01*
X70910Y-19712D01*
X70910Y-19712D01*
G37*
G54D38*
X70910Y-19712D02*
X70766Y-19771D01*
X70638Y-19899D01*
X70568Y-20066D01*
X70568Y-20247D01*
X70629Y-20395D01*
X70629Y-20395D01*
X70589Y-20403D01*
X70529Y-20443D01*
X70313Y-20659D01*
X70273Y-20719D01*
X70264Y-20764D01*
X70114Y-20702D01*
X69933Y-20702D01*
X69766Y-20771D01*
X69638Y-20899D01*
X69568Y-21066D01*
X69568Y-21247D01*
X69637Y-21414D01*
X69765Y-21542D01*
X69932Y-21612D01*
X70113Y-21612D01*
X70259Y-21552D01*
X70259Y-21625D01*
X70035Y-21849D01*
X70002Y-21898D01*
X69918Y-21898D01*
X69861Y-21922D01*
X69818Y-21965D01*
X69794Y-22022D01*
X69794Y-22055D01*
X69534Y-22055D01*
X69534Y-21924D01*
X69510Y-21867D01*
X69475Y-21831D01*
X69475Y-21068D01*
X69406Y-20902D01*
X69279Y-20774D01*
X69113Y-20706D01*
X68934Y-20705D01*
X68768Y-20774D01*
X68641Y-20901D01*
X68572Y-21067D01*
X68572Y-21246D01*
X68640Y-21412D01*
X68767Y-21540D01*
X68933Y-21608D01*
X69113Y-21609D01*
X69279Y-21540D01*
X69406Y-21413D01*
X69475Y-21247D01*
X69475Y-21068D01*
X69475Y-21831D01*
X69467Y-21823D01*
X69410Y-21800D01*
X69348Y-21799D01*
X68935Y-21799D01*
X68784Y-21649D01*
X68724Y-21609D01*
X68654Y-21595D01*
X67770Y-21595D01*
X67699Y-21609D01*
X67663Y-21633D01*
X67639Y-21649D01*
X67610Y-21678D01*
X67610Y-21317D01*
X67595Y-21246D01*
X67555Y-21186D01*
X67555Y-21186D01*
X67532Y-21162D01*
X67532Y-21162D01*
X67532Y-21162D01*
X67288Y-20919D01*
X67228Y-20879D01*
X67158Y-20865D01*
X66667Y-20865D01*
X66672Y-20850D01*
X66673Y-20741D01*
X66631Y-20640D01*
X66593Y-20602D01*
X66593Y-20170D01*
X66578Y-20095D01*
X66578Y-20095D01*
X66535Y-20032D01*
X66524Y-20020D01*
X66524Y-19966D01*
X66482Y-19865D01*
X66404Y-19788D01*
X66303Y-19746D01*
X66194Y-19745D01*
X66093Y-19787D01*
X66016Y-19865D01*
X65974Y-19966D01*
X65973Y-20075D01*
X66015Y-20176D01*
X66093Y-20253D01*
X66194Y-20295D01*
X66203Y-20295D01*
X66203Y-20602D01*
X66165Y-20640D01*
X66123Y-20741D01*
X66122Y-20850D01*
X66128Y-20865D01*
X64591Y-20865D01*
X64545Y-20753D01*
X64397Y-20605D01*
X64239Y-20539D01*
X64395Y-20475D01*
X64542Y-20327D01*
X64622Y-20134D01*
X64623Y-19926D01*
X64543Y-19733D01*
X64522Y-19712D01*
X68919Y-19712D01*
X68768Y-19774D01*
X68641Y-19901D01*
X68572Y-20067D01*
X68572Y-20246D01*
X68640Y-20412D01*
X68767Y-20540D01*
X68933Y-20608D01*
X69113Y-20609D01*
X69279Y-20540D01*
X69406Y-20413D01*
X69475Y-20247D01*
X69475Y-20068D01*
X69406Y-19902D01*
X69279Y-19774D01*
X69128Y-19712D01*
X69910Y-19712D01*
X69766Y-19771D01*
X69638Y-19899D01*
X69568Y-20066D01*
X69568Y-20247D01*
X69637Y-20414D01*
X69765Y-20542D01*
X69932Y-20612D01*
X70113Y-20612D01*
X70281Y-20543D01*
X70409Y-20415D01*
X70478Y-20248D01*
X70478Y-20067D01*
X70409Y-19900D01*
X70281Y-19771D01*
X70137Y-19712D01*
X70910Y-19712D01*
G54D10*
G36*
X71078Y-32713D02*
X71039Y-32713D01*
X71039Y-32720D01*
X70960Y-32720D01*
X70960Y-32713D01*
X70934Y-32713D01*
X70934Y-32711D01*
X70934Y-32523D01*
X70960Y-32523D01*
X70960Y-32515D01*
X71039Y-32515D01*
X71039Y-32523D01*
X71078Y-32523D01*
X71078Y-32713D01*
X71078Y-32713D01*
G37*
G54D38*
X71078Y-32713D02*
X71039Y-32713D01*
X71039Y-32720D01*
X70960Y-32720D01*
X70960Y-32713D01*
X70934Y-32713D01*
X70934Y-32711D01*
X70934Y-32523D01*
X70960Y-32523D01*
X70960Y-32515D01*
X71039Y-32515D01*
X71039Y-32523D01*
X71078Y-32523D01*
X71078Y-32713D01*
G54D10*
G36*
X72093Y-25336D02*
X72010Y-25420D01*
X71970Y-25480D01*
X71955Y-25551D01*
X71955Y-26435D01*
X71970Y-26506D01*
X71995Y-26544D01*
X71984Y-26549D01*
X71966Y-26541D01*
X71904Y-26541D01*
X71805Y-26541D01*
X71787Y-26549D01*
X71769Y-26541D01*
X71707Y-26541D01*
X71609Y-26541D01*
X71590Y-26549D01*
X71572Y-26541D01*
X71510Y-26541D01*
X71412Y-26541D01*
X71393Y-26549D01*
X71375Y-26541D01*
X71313Y-26541D01*
X71215Y-26541D01*
X71196Y-26549D01*
X71178Y-26541D01*
X71161Y-26541D01*
X71123Y-26580D01*
X71123Y-26600D01*
X71114Y-26608D01*
X71098Y-26648D01*
X71082Y-26609D01*
X71073Y-26600D01*
X71073Y-26580D01*
X71035Y-26541D01*
X71018Y-26541D01*
X71000Y-26549D01*
X70981Y-26541D01*
X70920Y-26541D01*
X70821Y-26541D01*
X70803Y-26549D01*
X70784Y-26541D01*
X70723Y-26541D01*
X70624Y-26541D01*
X70606Y-26549D01*
X70588Y-26541D01*
X70526Y-26541D01*
X70427Y-26541D01*
X70409Y-26549D01*
X70407Y-26548D01*
X70415Y-26535D01*
X70429Y-26465D01*
X70430Y-26465D01*
X70430Y-25603D01*
X70532Y-25603D01*
X70532Y-25602D01*
X70602Y-25588D01*
X70662Y-25548D01*
X70740Y-25470D01*
X70740Y-25470D01*
X70780Y-25410D01*
X70794Y-25340D01*
X70794Y-25340D01*
X70794Y-25005D01*
X70780Y-24934D01*
X70740Y-24874D01*
X70740Y-24874D01*
X70640Y-24774D01*
X70580Y-24734D01*
X70510Y-24720D01*
X70280Y-24720D01*
X70209Y-24734D01*
X70149Y-24774D01*
X70125Y-24798D01*
X70058Y-24732D01*
X69957Y-24690D01*
X69848Y-24689D01*
X69747Y-24731D01*
X69708Y-24770D01*
X69708Y-24677D01*
X69700Y-24659D01*
X69708Y-24641D01*
X69708Y-24594D01*
X69719Y-24605D01*
X69719Y-24605D01*
X69759Y-24632D01*
X69779Y-24645D01*
X69779Y-24645D01*
X69849Y-24659D01*
X69850Y-24660D01*
X70133Y-24660D01*
X70718Y-24660D01*
X70868Y-24809D01*
X70841Y-24875D01*
X70840Y-24984D01*
X70882Y-25085D01*
X70960Y-25162D01*
X71061Y-25204D01*
X71170Y-25205D01*
X71271Y-25163D01*
X71347Y-25087D01*
X71542Y-25282D01*
X71542Y-25282D01*
X71602Y-25322D01*
X71673Y-25336D01*
X72093Y-25336D01*
X72093Y-25336D01*
G37*
G54D38*
X72093Y-25336D02*
X72010Y-25420D01*
X71970Y-25480D01*
X71955Y-25551D01*
X71955Y-26435D01*
X71970Y-26506D01*
X71995Y-26544D01*
X71984Y-26549D01*
X71966Y-26541D01*
X71904Y-26541D01*
X71805Y-26541D01*
X71787Y-26549D01*
X71769Y-26541D01*
X71707Y-26541D01*
X71609Y-26541D01*
X71590Y-26549D01*
X71572Y-26541D01*
X71510Y-26541D01*
X71412Y-26541D01*
X71393Y-26549D01*
X71375Y-26541D01*
X71313Y-26541D01*
X71215Y-26541D01*
X71196Y-26549D01*
X71178Y-26541D01*
X71161Y-26541D01*
X71123Y-26580D01*
X71123Y-26600D01*
X71114Y-26608D01*
X71098Y-26648D01*
X71082Y-26609D01*
X71073Y-26600D01*
X71073Y-26580D01*
X71035Y-26541D01*
X71018Y-26541D01*
X71000Y-26549D01*
X70981Y-26541D01*
X70920Y-26541D01*
X70821Y-26541D01*
X70803Y-26549D01*
X70784Y-26541D01*
X70723Y-26541D01*
X70624Y-26541D01*
X70606Y-26549D01*
X70588Y-26541D01*
X70526Y-26541D01*
X70427Y-26541D01*
X70409Y-26549D01*
X70407Y-26548D01*
X70415Y-26535D01*
X70429Y-26465D01*
X70430Y-26465D01*
X70430Y-25603D01*
X70532Y-25603D01*
X70532Y-25602D01*
X70602Y-25588D01*
X70662Y-25548D01*
X70740Y-25470D01*
X70740Y-25470D01*
X70780Y-25410D01*
X70794Y-25340D01*
X70794Y-25340D01*
X70794Y-25005D01*
X70780Y-24934D01*
X70740Y-24874D01*
X70740Y-24874D01*
X70640Y-24774D01*
X70580Y-24734D01*
X70510Y-24720D01*
X70280Y-24720D01*
X70209Y-24734D01*
X70149Y-24774D01*
X70125Y-24798D01*
X70058Y-24732D01*
X69957Y-24690D01*
X69848Y-24689D01*
X69747Y-24731D01*
X69708Y-24770D01*
X69708Y-24677D01*
X69700Y-24659D01*
X69708Y-24641D01*
X69708Y-24594D01*
X69719Y-24605D01*
X69719Y-24605D01*
X69759Y-24632D01*
X69779Y-24645D01*
X69779Y-24645D01*
X69849Y-24659D01*
X69850Y-24660D01*
X70133Y-24660D01*
X70718Y-24660D01*
X70868Y-24809D01*
X70841Y-24875D01*
X70840Y-24984D01*
X70882Y-25085D01*
X70960Y-25162D01*
X71061Y-25204D01*
X71170Y-25205D01*
X71271Y-25163D01*
X71347Y-25087D01*
X71542Y-25282D01*
X71542Y-25282D01*
X71602Y-25322D01*
X71673Y-25336D01*
X72093Y-25336D01*
G54D10*
G36*
X72761Y-26982D02*
X72666Y-26943D01*
X72598Y-26942D01*
X72546Y-26890D01*
X72486Y-26850D01*
X72415Y-26836D01*
X72286Y-26836D01*
X72286Y-26817D01*
X72350Y-26830D01*
X72761Y-26830D01*
X72761Y-26982D01*
X72761Y-26982D01*
G37*
G54D38*
X72761Y-26982D02*
X72666Y-26943D01*
X72598Y-26942D01*
X72546Y-26890D01*
X72486Y-26850D01*
X72415Y-26836D01*
X72286Y-26836D01*
X72286Y-26817D01*
X72350Y-26830D01*
X72761Y-26830D01*
X72761Y-26982D01*
G54D10*
G36*
X72967Y-33600D02*
X72934Y-33568D01*
X72877Y-33544D01*
X72815Y-33544D01*
X72610Y-33544D01*
X72560Y-33493D01*
X72483Y-33442D01*
X72399Y-33425D01*
X72422Y-33416D01*
X72499Y-33338D01*
X72541Y-33237D01*
X72542Y-33128D01*
X72500Y-33027D01*
X72455Y-32983D01*
X72648Y-32983D01*
X72967Y-32983D01*
X72967Y-33600D01*
X72967Y-33600D01*
G37*
G54D38*
X72967Y-33600D02*
X72934Y-33568D01*
X72877Y-33544D01*
X72815Y-33544D01*
X72610Y-33544D01*
X72560Y-33493D01*
X72483Y-33442D01*
X72399Y-33425D01*
X72422Y-33416D01*
X72499Y-33338D01*
X72541Y-33237D01*
X72542Y-33128D01*
X72500Y-33027D01*
X72455Y-32983D01*
X72648Y-32983D01*
X72967Y-32983D01*
X72967Y-33600D01*
G54D10*
G36*
X73185Y-23663D02*
X72885Y-23963D01*
X72416Y-23963D01*
X72359Y-23986D01*
X72315Y-24030D01*
X72291Y-24087D01*
X72291Y-24148D01*
X72291Y-24247D01*
X72299Y-24265D01*
X72291Y-24283D01*
X72291Y-24345D01*
X72291Y-24444D01*
X72299Y-24462D01*
X72291Y-24481D01*
X72291Y-24497D01*
X72330Y-24536D01*
X72350Y-24536D01*
X72358Y-24544D01*
X72398Y-24561D01*
X72359Y-24577D01*
X72350Y-24585D01*
X72330Y-24585D01*
X72291Y-24624D01*
X72291Y-24640D01*
X72299Y-24659D01*
X72291Y-24677D01*
X72291Y-24739D01*
X72291Y-24769D01*
X71799Y-24769D01*
X71812Y-24736D01*
X71813Y-24627D01*
X71771Y-24526D01*
X71693Y-24449D01*
X71592Y-24407D01*
X71483Y-24406D01*
X71468Y-24413D01*
X71468Y-24272D01*
X71467Y-24271D01*
X71453Y-24201D01*
X71429Y-24165D01*
X71413Y-24141D01*
X71413Y-24141D01*
X71330Y-24057D01*
X71426Y-23961D01*
X71426Y-23961D01*
X71428Y-23958D01*
X71473Y-23958D01*
X71572Y-23958D01*
X71590Y-23950D01*
X71608Y-23958D01*
X71670Y-23958D01*
X71768Y-23958D01*
X71787Y-23950D01*
X71805Y-23958D01*
X71822Y-23958D01*
X71861Y-23919D01*
X71861Y-23899D01*
X71869Y-23891D01*
X71885Y-23851D01*
X71901Y-23890D01*
X71910Y-23899D01*
X71910Y-23919D01*
X71949Y-23958D01*
X71966Y-23958D01*
X71984Y-23950D01*
X72002Y-23958D01*
X72064Y-23958D01*
X72162Y-23958D01*
X72219Y-23934D01*
X72263Y-23891D01*
X72286Y-23834D01*
X72286Y-23772D01*
X72286Y-23674D01*
X72348Y-23735D01*
X72449Y-23777D01*
X72558Y-23778D01*
X72659Y-23736D01*
X72732Y-23663D01*
X73185Y-23663D01*
X73185Y-23663D01*
G37*
G54D38*
X73185Y-23663D02*
X72885Y-23963D01*
X72416Y-23963D01*
X72359Y-23986D01*
X72315Y-24030D01*
X72291Y-24087D01*
X72291Y-24148D01*
X72291Y-24247D01*
X72299Y-24265D01*
X72291Y-24283D01*
X72291Y-24345D01*
X72291Y-24444D01*
X72299Y-24462D01*
X72291Y-24481D01*
X72291Y-24497D01*
X72330Y-24536D01*
X72350Y-24536D01*
X72358Y-24544D01*
X72398Y-24561D01*
X72359Y-24577D01*
X72350Y-24585D01*
X72330Y-24585D01*
X72291Y-24624D01*
X72291Y-24640D01*
X72299Y-24659D01*
X72291Y-24677D01*
X72291Y-24739D01*
X72291Y-24769D01*
X71799Y-24769D01*
X71812Y-24736D01*
X71813Y-24627D01*
X71771Y-24526D01*
X71693Y-24449D01*
X71592Y-24407D01*
X71483Y-24406D01*
X71468Y-24413D01*
X71468Y-24272D01*
X71467Y-24271D01*
X71453Y-24201D01*
X71429Y-24165D01*
X71413Y-24141D01*
X71413Y-24141D01*
X71330Y-24057D01*
X71426Y-23961D01*
X71426Y-23961D01*
X71428Y-23958D01*
X71473Y-23958D01*
X71572Y-23958D01*
X71590Y-23950D01*
X71608Y-23958D01*
X71670Y-23958D01*
X71768Y-23958D01*
X71787Y-23950D01*
X71805Y-23958D01*
X71822Y-23958D01*
X71861Y-23919D01*
X71861Y-23899D01*
X71869Y-23891D01*
X71885Y-23851D01*
X71901Y-23890D01*
X71910Y-23899D01*
X71910Y-23919D01*
X71949Y-23958D01*
X71966Y-23958D01*
X71984Y-23950D01*
X72002Y-23958D01*
X72064Y-23958D01*
X72162Y-23958D01*
X72219Y-23934D01*
X72263Y-23891D01*
X72286Y-23834D01*
X72286Y-23772D01*
X72286Y-23674D01*
X72348Y-23735D01*
X72449Y-23777D01*
X72558Y-23778D01*
X72659Y-23736D01*
X72732Y-23663D01*
X73185Y-23663D01*
G54D10*
G36*
X73246Y-30480D02*
X73239Y-30518D01*
X73239Y-31369D01*
X73167Y-31369D01*
X73110Y-31392D01*
X73066Y-31436D01*
X73043Y-31493D01*
X73043Y-31555D01*
X73043Y-31591D01*
X73036Y-31589D01*
X72968Y-31588D01*
X72748Y-31369D01*
X72688Y-31329D01*
X72618Y-31315D01*
X72601Y-31315D01*
X72601Y-30918D01*
X72577Y-30861D01*
X72534Y-30818D01*
X72477Y-30794D01*
X72415Y-30794D01*
X72383Y-30794D01*
X72345Y-30833D01*
X72345Y-31071D01*
X72562Y-31071D01*
X72601Y-31032D01*
X72601Y-30918D01*
X72601Y-31315D01*
X72601Y-31315D01*
X72601Y-31299D01*
X72562Y-31261D01*
X72345Y-31261D01*
X72345Y-31268D01*
X72155Y-31268D01*
X72155Y-31261D01*
X71937Y-31261D01*
X71898Y-31299D01*
X71898Y-31315D01*
X71844Y-31315D01*
X71782Y-31327D01*
X71783Y-31226D01*
X71741Y-31125D01*
X71700Y-31085D01*
X71880Y-31085D01*
X71880Y-31084D01*
X71950Y-31071D01*
X72155Y-31071D01*
X72155Y-30886D01*
X72850Y-30190D01*
X72850Y-30190D01*
X72890Y-30130D01*
X72896Y-30103D01*
X73043Y-30250D01*
X73043Y-30356D01*
X73066Y-30413D01*
X73110Y-30456D01*
X73167Y-30480D01*
X73228Y-30480D01*
X73246Y-30480D01*
X73246Y-30480D01*
G37*
G54D38*
X73246Y-30480D02*
X73239Y-30518D01*
X73239Y-31369D01*
X73167Y-31369D01*
X73110Y-31392D01*
X73066Y-31436D01*
X73043Y-31493D01*
X73043Y-31555D01*
X73043Y-31591D01*
X73036Y-31589D01*
X72968Y-31588D01*
X72748Y-31369D01*
X72688Y-31329D01*
X72618Y-31315D01*
X72601Y-31315D01*
X72601Y-30918D01*
X72577Y-30861D01*
X72534Y-30818D01*
X72477Y-30794D01*
X72415Y-30794D01*
X72383Y-30794D01*
X72345Y-30833D01*
X72345Y-31071D01*
X72562Y-31071D01*
X72601Y-31032D01*
X72601Y-30918D01*
X72601Y-31315D01*
X72601Y-31315D01*
X72601Y-31299D01*
X72562Y-31261D01*
X72345Y-31261D01*
X72345Y-31268D01*
X72155Y-31268D01*
X72155Y-31261D01*
X71937Y-31261D01*
X71898Y-31299D01*
X71898Y-31315D01*
X71844Y-31315D01*
X71782Y-31327D01*
X71783Y-31226D01*
X71741Y-31125D01*
X71700Y-31085D01*
X71880Y-31085D01*
X71880Y-31084D01*
X71950Y-31071D01*
X72155Y-31071D01*
X72155Y-30886D01*
X72850Y-30190D01*
X72850Y-30190D01*
X72890Y-30130D01*
X72896Y-30103D01*
X73043Y-30250D01*
X73043Y-30356D01*
X73066Y-30413D01*
X73110Y-30456D01*
X73167Y-30480D01*
X73228Y-30480D01*
X73246Y-30480D01*
G54D10*
G36*
X73385Y-29619D02*
X73334Y-29619D01*
X73274Y-29559D01*
X73274Y-26642D01*
X73259Y-26571D01*
X73219Y-26511D01*
X73219Y-26511D01*
X73203Y-26494D01*
X73227Y-26469D01*
X73251Y-26412D01*
X73251Y-26396D01*
X73212Y-26357D01*
X73058Y-26357D01*
X73032Y-26340D01*
X73127Y-26340D01*
X73173Y-26320D01*
X73279Y-26320D01*
X73385Y-26426D01*
X73385Y-29619D01*
X73385Y-29619D01*
G37*
G54D38*
X73385Y-29619D02*
X73334Y-29619D01*
X73274Y-29559D01*
X73274Y-26642D01*
X73259Y-26571D01*
X73219Y-26511D01*
X73219Y-26511D01*
X73203Y-26494D01*
X73227Y-26469D01*
X73251Y-26412D01*
X73251Y-26396D01*
X73212Y-26357D01*
X73058Y-26357D01*
X73032Y-26340D01*
X73127Y-26340D01*
X73173Y-26320D01*
X73279Y-26320D01*
X73385Y-26426D01*
X73385Y-29619D01*
G54D10*
G36*
X75565Y-30996D02*
X75560Y-30991D01*
X75503Y-30968D01*
X75441Y-30968D01*
X75284Y-30968D01*
X75227Y-30991D01*
X75196Y-31022D01*
X75166Y-30991D01*
X75109Y-30968D01*
X75048Y-30968D01*
X74890Y-30968D01*
X74833Y-30991D01*
X74803Y-31022D01*
X74772Y-30991D01*
X74716Y-30968D01*
X74654Y-30968D01*
X74496Y-30968D01*
X74439Y-30991D01*
X74396Y-31035D01*
X74372Y-31092D01*
X74372Y-31153D01*
X74372Y-31437D01*
X74333Y-31437D01*
X74333Y-31436D01*
X74289Y-31393D01*
X74232Y-31369D01*
X74171Y-31369D01*
X73915Y-31369D01*
X73858Y-31392D01*
X73814Y-31436D01*
X73791Y-31493D01*
X73791Y-31555D01*
X73791Y-31751D01*
X73810Y-31800D01*
X73791Y-31847D01*
X73791Y-31909D01*
X73791Y-32106D01*
X73814Y-32163D01*
X73858Y-32206D01*
X73915Y-32230D01*
X73976Y-32230D01*
X74232Y-32230D01*
X74289Y-32207D01*
X74333Y-32163D01*
X74333Y-32162D01*
X74372Y-32162D01*
X74372Y-32216D01*
X74372Y-32610D01*
X74396Y-32667D01*
X74439Y-32711D01*
X74496Y-32734D01*
X74558Y-32734D01*
X74715Y-32734D01*
X74772Y-32711D01*
X74803Y-32681D01*
X74833Y-32711D01*
X74890Y-32734D01*
X74951Y-32734D01*
X74921Y-32734D01*
X74960Y-32696D01*
X74960Y-32478D01*
X74921Y-32478D01*
X74921Y-32288D01*
X74960Y-32288D01*
X74960Y-32280D01*
X75039Y-32280D01*
X75039Y-32288D01*
X75078Y-32288D01*
X75078Y-32478D01*
X75039Y-32478D01*
X75039Y-32696D01*
X75064Y-32721D01*
X75051Y-32734D01*
X75048Y-32734D01*
X75051Y-32734D01*
X75036Y-32749D01*
X74589Y-32749D01*
X74532Y-32773D01*
X74489Y-32817D01*
X74465Y-32874D01*
X74465Y-32935D01*
X74465Y-33525D01*
X74489Y-33582D01*
X74532Y-33626D01*
X74589Y-33649D01*
X74601Y-33649D01*
X74601Y-33777D01*
X74601Y-33782D01*
X74568Y-33815D01*
X74544Y-33872D01*
X74544Y-33934D01*
X74544Y-34074D01*
X74495Y-34065D01*
X74350Y-34065D01*
X74353Y-34062D01*
X74376Y-34005D01*
X74377Y-33943D01*
X74377Y-33314D01*
X74353Y-33257D01*
X74309Y-33214D01*
X74252Y-33190D01*
X74191Y-33190D01*
X73985Y-33190D01*
X73985Y-32993D01*
X73967Y-32903D01*
X73916Y-32826D01*
X73523Y-32433D01*
X73446Y-32382D01*
X73357Y-32365D01*
X72711Y-32365D01*
X72530Y-32183D01*
X72534Y-32181D01*
X72577Y-32138D01*
X72601Y-32081D01*
X72601Y-32019D01*
X72601Y-31745D01*
X72707Y-31850D01*
X72706Y-31918D01*
X72748Y-32019D01*
X72826Y-32096D01*
X72927Y-32138D01*
X73036Y-32139D01*
X73053Y-32131D01*
X73066Y-32163D01*
X73110Y-32206D01*
X73167Y-32230D01*
X73228Y-32230D01*
X73484Y-32230D01*
X73541Y-32207D01*
X73585Y-32163D01*
X73608Y-32106D01*
X73608Y-32098D01*
X73704Y-32002D01*
X73704Y-32002D01*
X73744Y-31942D01*
X73758Y-31872D01*
X73759Y-31872D01*
X73759Y-30676D01*
X73840Y-30594D01*
X73840Y-30594D01*
X73856Y-30570D01*
X73880Y-30534D01*
X73880Y-30534D01*
X73893Y-30471D01*
X73915Y-30480D01*
X73976Y-30480D01*
X74232Y-30480D01*
X74289Y-30457D01*
X74333Y-30413D01*
X74333Y-30412D01*
X74372Y-30412D01*
X74372Y-30416D01*
X74372Y-30810D01*
X74396Y-30867D01*
X74439Y-30911D01*
X74496Y-30934D01*
X74558Y-30934D01*
X74715Y-30934D01*
X74772Y-30911D01*
X74803Y-30881D01*
X74833Y-30911D01*
X74890Y-30934D01*
X74951Y-30934D01*
X74921Y-30934D01*
X74960Y-30896D01*
X74960Y-30678D01*
X74921Y-30678D01*
X74921Y-30488D01*
X74960Y-30488D01*
X74960Y-30480D01*
X75039Y-30480D01*
X75039Y-30488D01*
X75078Y-30488D01*
X75078Y-30678D01*
X75039Y-30678D01*
X75039Y-30896D01*
X75078Y-30934D01*
X75048Y-30934D01*
X75109Y-30934D01*
X75166Y-30911D01*
X75196Y-30880D01*
X75227Y-30911D01*
X75283Y-30934D01*
X75345Y-30934D01*
X75503Y-30934D01*
X75560Y-30911D01*
X75565Y-30906D01*
X75565Y-30996D01*
X75565Y-30996D01*
G37*
G54D38*
X75565Y-30996D02*
X75560Y-30991D01*
X75503Y-30968D01*
X75441Y-30968D01*
X75284Y-30968D01*
X75227Y-30991D01*
X75196Y-31022D01*
X75166Y-30991D01*
X75109Y-30968D01*
X75048Y-30968D01*
X74890Y-30968D01*
X74833Y-30991D01*
X74803Y-31022D01*
X74772Y-30991D01*
X74716Y-30968D01*
X74654Y-30968D01*
X74496Y-30968D01*
X74439Y-30991D01*
X74396Y-31035D01*
X74372Y-31092D01*
X74372Y-31153D01*
X74372Y-31437D01*
X74333Y-31437D01*
X74333Y-31436D01*
X74289Y-31393D01*
X74232Y-31369D01*
X74171Y-31369D01*
X73915Y-31369D01*
X73858Y-31392D01*
X73814Y-31436D01*
X73791Y-31493D01*
X73791Y-31555D01*
X73791Y-31751D01*
X73810Y-31800D01*
X73791Y-31847D01*
X73791Y-31909D01*
X73791Y-32106D01*
X73814Y-32163D01*
X73858Y-32206D01*
X73915Y-32230D01*
X73976Y-32230D01*
X74232Y-32230D01*
X74289Y-32207D01*
X74333Y-32163D01*
X74333Y-32162D01*
X74372Y-32162D01*
X74372Y-32216D01*
X74372Y-32610D01*
X74396Y-32667D01*
X74439Y-32711D01*
X74496Y-32734D01*
X74558Y-32734D01*
X74715Y-32734D01*
X74772Y-32711D01*
X74803Y-32681D01*
X74833Y-32711D01*
X74890Y-32734D01*
X74951Y-32734D01*
X74921Y-32734D01*
X74960Y-32696D01*
X74960Y-32478D01*
X74921Y-32478D01*
X74921Y-32288D01*
X74960Y-32288D01*
X74960Y-32280D01*
X75039Y-32280D01*
X75039Y-32288D01*
X75078Y-32288D01*
X75078Y-32478D01*
X75039Y-32478D01*
X75039Y-32696D01*
X75064Y-32721D01*
X75051Y-32734D01*
X75048Y-32734D01*
X75051Y-32734D01*
X75036Y-32749D01*
X74589Y-32749D01*
X74532Y-32773D01*
X74489Y-32817D01*
X74465Y-32874D01*
X74465Y-32935D01*
X74465Y-33525D01*
X74489Y-33582D01*
X74532Y-33626D01*
X74589Y-33649D01*
X74601Y-33649D01*
X74601Y-33777D01*
X74601Y-33782D01*
X74568Y-33815D01*
X74544Y-33872D01*
X74544Y-33934D01*
X74544Y-34074D01*
X74495Y-34065D01*
X74350Y-34065D01*
X74353Y-34062D01*
X74376Y-34005D01*
X74377Y-33943D01*
X74377Y-33314D01*
X74353Y-33257D01*
X74309Y-33214D01*
X74252Y-33190D01*
X74191Y-33190D01*
X73985Y-33190D01*
X73985Y-32993D01*
X73967Y-32903D01*
X73916Y-32826D01*
X73523Y-32433D01*
X73446Y-32382D01*
X73357Y-32365D01*
X72711Y-32365D01*
X72530Y-32183D01*
X72534Y-32181D01*
X72577Y-32138D01*
X72601Y-32081D01*
X72601Y-32019D01*
X72601Y-31745D01*
X72707Y-31850D01*
X72706Y-31918D01*
X72748Y-32019D01*
X72826Y-32096D01*
X72927Y-32138D01*
X73036Y-32139D01*
X73053Y-32131D01*
X73066Y-32163D01*
X73110Y-32206D01*
X73167Y-32230D01*
X73228Y-32230D01*
X73484Y-32230D01*
X73541Y-32207D01*
X73585Y-32163D01*
X73608Y-32106D01*
X73608Y-32098D01*
X73704Y-32002D01*
X73704Y-32002D01*
X73744Y-31942D01*
X73758Y-31872D01*
X73759Y-31872D01*
X73759Y-30676D01*
X73840Y-30594D01*
X73840Y-30594D01*
X73856Y-30570D01*
X73880Y-30534D01*
X73880Y-30534D01*
X73893Y-30471D01*
X73915Y-30480D01*
X73976Y-30480D01*
X74232Y-30480D01*
X74289Y-30457D01*
X74333Y-30413D01*
X74333Y-30412D01*
X74372Y-30412D01*
X74372Y-30416D01*
X74372Y-30810D01*
X74396Y-30867D01*
X74439Y-30911D01*
X74496Y-30934D01*
X74558Y-30934D01*
X74715Y-30934D01*
X74772Y-30911D01*
X74803Y-30881D01*
X74833Y-30911D01*
X74890Y-30934D01*
X74951Y-30934D01*
X74921Y-30934D01*
X74960Y-30896D01*
X74960Y-30678D01*
X74921Y-30678D01*
X74921Y-30488D01*
X74960Y-30488D01*
X74960Y-30480D01*
X75039Y-30480D01*
X75039Y-30488D01*
X75078Y-30488D01*
X75078Y-30678D01*
X75039Y-30678D01*
X75039Y-30896D01*
X75078Y-30934D01*
X75048Y-30934D01*
X75109Y-30934D01*
X75166Y-30911D01*
X75196Y-30880D01*
X75227Y-30911D01*
X75283Y-30934D01*
X75345Y-30934D01*
X75503Y-30934D01*
X75560Y-30911D01*
X75565Y-30906D01*
X75565Y-30996D01*
G54D10*
G36*
X75691Y-33650D02*
X75685Y-33665D01*
X75684Y-33774D01*
X75686Y-33779D01*
X75679Y-33787D01*
X75679Y-34005D01*
X75686Y-34005D01*
X75686Y-34195D01*
X75679Y-34195D01*
X75679Y-34202D01*
X75489Y-34202D01*
X75489Y-34195D01*
X75481Y-34195D01*
X75481Y-34005D01*
X75489Y-34005D01*
X75489Y-33787D01*
X75450Y-33748D01*
X75351Y-33748D01*
X75308Y-33706D01*
X75231Y-33673D01*
X75231Y-33614D01*
X75250Y-33595D01*
X75280Y-33626D01*
X75337Y-33649D01*
X75399Y-33650D01*
X75691Y-33650D01*
X75691Y-33650D01*
G37*
G54D38*
X75691Y-33650D02*
X75685Y-33665D01*
X75684Y-33774D01*
X75686Y-33779D01*
X75679Y-33787D01*
X75679Y-34005D01*
X75686Y-34005D01*
X75686Y-34195D01*
X75679Y-34195D01*
X75679Y-34202D01*
X75489Y-34202D01*
X75489Y-34195D01*
X75481Y-34195D01*
X75481Y-34005D01*
X75489Y-34005D01*
X75489Y-33787D01*
X75450Y-33748D01*
X75351Y-33748D01*
X75308Y-33706D01*
X75231Y-33673D01*
X75231Y-33614D01*
X75250Y-33595D01*
X75280Y-33626D01*
X75337Y-33649D01*
X75399Y-33650D01*
X75691Y-33650D01*
G54D10*
G36*
X76159Y-24961D02*
X75805Y-25314D01*
X75805Y-25084D01*
X75805Y-25022D01*
X75781Y-24965D01*
X75738Y-24922D01*
X75684Y-24900D01*
X75738Y-24877D01*
X75781Y-24834D01*
X75805Y-24777D01*
X75805Y-24715D01*
X75805Y-24384D01*
X75805Y-24322D01*
X75781Y-24265D01*
X75738Y-24222D01*
X75684Y-24200D01*
X75738Y-24177D01*
X75781Y-24134D01*
X75805Y-24077D01*
X75805Y-24015D01*
X75805Y-23983D01*
X75766Y-23945D01*
X75529Y-23945D01*
X75529Y-24162D01*
X75566Y-24200D01*
X75529Y-24237D01*
X75529Y-24455D01*
X75766Y-24455D01*
X75805Y-24416D01*
X75805Y-24384D01*
X75805Y-24715D01*
X75805Y-24683D01*
X75766Y-24645D01*
X75529Y-24645D01*
X75529Y-24862D01*
X75566Y-24900D01*
X75529Y-24937D01*
X75529Y-25155D01*
X75766Y-25155D01*
X75805Y-25116D01*
X75805Y-25084D01*
X75805Y-25314D01*
X75771Y-25349D01*
X75766Y-25345D01*
X75529Y-25345D01*
X75529Y-25352D01*
X75339Y-25352D01*
X75339Y-25345D01*
X75331Y-25345D01*
X75331Y-25155D01*
X75339Y-25155D01*
X75339Y-24937D01*
X75301Y-24900D01*
X75339Y-24862D01*
X75339Y-24645D01*
X75331Y-24645D01*
X75331Y-24455D01*
X75339Y-24455D01*
X75339Y-24237D01*
X75301Y-24200D01*
X75339Y-24162D01*
X75339Y-23945D01*
X75331Y-23945D01*
X75331Y-23755D01*
X75339Y-23755D01*
X75339Y-23537D01*
X75301Y-23500D01*
X75339Y-23462D01*
X75339Y-23245D01*
X75331Y-23245D01*
X75331Y-23055D01*
X75339Y-23055D01*
X75339Y-23047D01*
X75529Y-23047D01*
X75529Y-23055D01*
X75536Y-23055D01*
X75536Y-23245D01*
X75529Y-23245D01*
X75529Y-23462D01*
X75566Y-23500D01*
X75529Y-23537D01*
X75529Y-23755D01*
X75766Y-23755D01*
X75790Y-23731D01*
X75814Y-23754D01*
X75915Y-23796D01*
X75983Y-23797D01*
X76159Y-23972D01*
X76159Y-24961D01*
X76159Y-24961D01*
G37*
G54D38*
X76159Y-24961D02*
X75805Y-25314D01*
X75805Y-25084D01*
X75805Y-25022D01*
X75781Y-24965D01*
X75738Y-24922D01*
X75684Y-24900D01*
X75738Y-24877D01*
X75781Y-24834D01*
X75805Y-24777D01*
X75805Y-24715D01*
X75805Y-24384D01*
X75805Y-24322D01*
X75781Y-24265D01*
X75738Y-24222D01*
X75684Y-24200D01*
X75738Y-24177D01*
X75781Y-24134D01*
X75805Y-24077D01*
X75805Y-24015D01*
X75805Y-23983D01*
X75766Y-23945D01*
X75529Y-23945D01*
X75529Y-24162D01*
X75566Y-24200D01*
X75529Y-24237D01*
X75529Y-24455D01*
X75766Y-24455D01*
X75805Y-24416D01*
X75805Y-24384D01*
X75805Y-24715D01*
X75805Y-24683D01*
X75766Y-24645D01*
X75529Y-24645D01*
X75529Y-24862D01*
X75566Y-24900D01*
X75529Y-24937D01*
X75529Y-25155D01*
X75766Y-25155D01*
X75805Y-25116D01*
X75805Y-25084D01*
X75805Y-25314D01*
X75771Y-25349D01*
X75766Y-25345D01*
X75529Y-25345D01*
X75529Y-25352D01*
X75339Y-25352D01*
X75339Y-25345D01*
X75331Y-25345D01*
X75331Y-25155D01*
X75339Y-25155D01*
X75339Y-24937D01*
X75301Y-24900D01*
X75339Y-24862D01*
X75339Y-24645D01*
X75331Y-24645D01*
X75331Y-24455D01*
X75339Y-24455D01*
X75339Y-24237D01*
X75301Y-24200D01*
X75339Y-24162D01*
X75339Y-23945D01*
X75331Y-23945D01*
X75331Y-23755D01*
X75339Y-23755D01*
X75339Y-23537D01*
X75301Y-23500D01*
X75339Y-23462D01*
X75339Y-23245D01*
X75331Y-23245D01*
X75331Y-23055D01*
X75339Y-23055D01*
X75339Y-23047D01*
X75529Y-23047D01*
X75529Y-23055D01*
X75536Y-23055D01*
X75536Y-23245D01*
X75529Y-23245D01*
X75529Y-23462D01*
X75566Y-23500D01*
X75529Y-23537D01*
X75529Y-23755D01*
X75766Y-23755D01*
X75790Y-23731D01*
X75814Y-23754D01*
X75915Y-23796D01*
X75983Y-23797D01*
X76159Y-23972D01*
X76159Y-24961D01*
G54D10*
G36*
X76317Y-26376D02*
X76248Y-26445D01*
X75805Y-26445D01*
X75805Y-26115D01*
X75805Y-26083D01*
X75766Y-26045D01*
X75529Y-26045D01*
X75529Y-26262D01*
X75567Y-26301D01*
X75681Y-26301D01*
X75738Y-26277D01*
X75781Y-26234D01*
X75805Y-26177D01*
X75805Y-26115D01*
X75805Y-26445D01*
X75782Y-26445D01*
X75761Y-26395D01*
X75718Y-26352D01*
X75661Y-26328D01*
X75599Y-26328D01*
X75206Y-26328D01*
X75149Y-26352D01*
X75106Y-26395D01*
X75100Y-26410D01*
X75093Y-26395D01*
X75050Y-26352D01*
X74993Y-26328D01*
X74961Y-26328D01*
X74961Y-26301D01*
X75013Y-26301D01*
X75070Y-26277D01*
X75100Y-26248D01*
X75129Y-26277D01*
X75186Y-26301D01*
X75300Y-26301D01*
X75339Y-26262D01*
X75339Y-26045D01*
X75331Y-26045D01*
X75331Y-25855D01*
X75339Y-25855D01*
X75339Y-25847D01*
X75529Y-25847D01*
X75529Y-25855D01*
X75766Y-25855D01*
X75805Y-25816D01*
X75805Y-25790D01*
X75805Y-25790D01*
X75839Y-25783D01*
X75899Y-25743D01*
X76317Y-25326D01*
X76317Y-26376D01*
X76317Y-26376D01*
G37*
G54D38*
X76317Y-26376D02*
X76248Y-26445D01*
X75805Y-26445D01*
X75805Y-26115D01*
X75805Y-26083D01*
X75766Y-26045D01*
X75529Y-26045D01*
X75529Y-26262D01*
X75567Y-26301D01*
X75681Y-26301D01*
X75738Y-26277D01*
X75781Y-26234D01*
X75805Y-26177D01*
X75805Y-26115D01*
X75805Y-26445D01*
X75782Y-26445D01*
X75761Y-26395D01*
X75718Y-26352D01*
X75661Y-26328D01*
X75599Y-26328D01*
X75206Y-26328D01*
X75149Y-26352D01*
X75106Y-26395D01*
X75100Y-26410D01*
X75093Y-26395D01*
X75050Y-26352D01*
X74993Y-26328D01*
X74961Y-26328D01*
X74961Y-26301D01*
X75013Y-26301D01*
X75070Y-26277D01*
X75100Y-26248D01*
X75129Y-26277D01*
X75186Y-26301D01*
X75300Y-26301D01*
X75339Y-26262D01*
X75339Y-26045D01*
X75331Y-26045D01*
X75331Y-25855D01*
X75339Y-25855D01*
X75339Y-25847D01*
X75529Y-25847D01*
X75529Y-25855D01*
X75766Y-25855D01*
X75805Y-25816D01*
X75805Y-25790D01*
X75805Y-25790D01*
X75839Y-25783D01*
X75899Y-25743D01*
X76317Y-25326D01*
X76317Y-26376D01*
G54D10*
G36*
X76606Y-26986D02*
X76571Y-27020D01*
X76204Y-27020D01*
X76133Y-27034D01*
X76073Y-27074D01*
X75959Y-27189D01*
X75919Y-27249D01*
X75905Y-27320D01*
X75905Y-27543D01*
X75824Y-27576D01*
X75784Y-27616D01*
X75784Y-27424D01*
X75760Y-27367D01*
X75717Y-27323D01*
X75660Y-27300D01*
X75598Y-27299D01*
X75087Y-27299D01*
X75030Y-27323D01*
X75000Y-27354D01*
X74969Y-27323D01*
X74912Y-27299D01*
X74759Y-27300D01*
X74721Y-27338D01*
X74721Y-27655D01*
X74728Y-27655D01*
X74728Y-27845D01*
X74721Y-27845D01*
X74721Y-28161D01*
X74759Y-28200D01*
X74912Y-28200D01*
X74969Y-28176D01*
X75000Y-28145D01*
X75030Y-28176D01*
X75087Y-28199D01*
X75149Y-28200D01*
X75655Y-28200D01*
X75655Y-28300D01*
X75598Y-28299D01*
X75087Y-28299D01*
X75030Y-28323D01*
X75000Y-28354D01*
X74969Y-28323D01*
X74912Y-28299D01*
X74759Y-28300D01*
X74721Y-28338D01*
X74721Y-28655D01*
X74728Y-28655D01*
X74728Y-28845D01*
X74721Y-28845D01*
X74721Y-28852D01*
X74531Y-28852D01*
X74531Y-28845D01*
X74531Y-28655D01*
X74531Y-28338D01*
X74531Y-28161D01*
X74531Y-27845D01*
X74254Y-27845D01*
X74215Y-27883D01*
X74215Y-28014D01*
X74215Y-28075D01*
X74239Y-28132D01*
X74282Y-28176D01*
X74339Y-28200D01*
X74492Y-28200D01*
X74531Y-28161D01*
X74531Y-28338D01*
X74492Y-28300D01*
X74339Y-28299D01*
X74282Y-28323D01*
X74239Y-28367D01*
X74215Y-28424D01*
X74215Y-28485D01*
X74215Y-28616D01*
X74254Y-28655D01*
X74531Y-28655D01*
X74531Y-28845D01*
X74254Y-28845D01*
X74215Y-28883D01*
X74215Y-29014D01*
X74215Y-29075D01*
X74239Y-29132D01*
X74282Y-29176D01*
X74339Y-29200D01*
X74431Y-29200D01*
X74396Y-29235D01*
X74372Y-29292D01*
X74372Y-29353D01*
X74372Y-29687D01*
X74333Y-29687D01*
X74333Y-29686D01*
X74289Y-29643D01*
X74232Y-29619D01*
X74171Y-29619D01*
X73915Y-29619D01*
X73895Y-29627D01*
X73895Y-26110D01*
X73880Y-26039D01*
X73840Y-25979D01*
X73840Y-25979D01*
X73798Y-25937D01*
X74157Y-25937D01*
X74232Y-25922D01*
X74232Y-25922D01*
X74295Y-25880D01*
X74394Y-25781D01*
X74394Y-25784D01*
X74394Y-26177D01*
X74418Y-26234D01*
X74461Y-26277D01*
X74518Y-26301D01*
X74571Y-26301D01*
X74571Y-26328D01*
X74538Y-26328D01*
X74481Y-26352D01*
X74438Y-26395D01*
X74414Y-26452D01*
X74414Y-26514D01*
X74414Y-26813D01*
X74233Y-26995D01*
X74165Y-26994D01*
X74064Y-27036D01*
X73987Y-27114D01*
X73945Y-27215D01*
X73944Y-27324D01*
X73986Y-27425D01*
X74064Y-27502D01*
X74165Y-27544D01*
X74215Y-27544D01*
X74215Y-27616D01*
X74254Y-27655D01*
X74531Y-27655D01*
X74531Y-27338D01*
X74494Y-27302D01*
X74495Y-27256D01*
X74680Y-27071D01*
X74993Y-27071D01*
X75050Y-27047D01*
X75093Y-27004D01*
X75099Y-26989D01*
X75106Y-27004D01*
X75149Y-27047D01*
X75206Y-27071D01*
X75268Y-27071D01*
X75661Y-27071D01*
X75718Y-27047D01*
X75761Y-27004D01*
X75782Y-26955D01*
X76354Y-26955D01*
X76451Y-26935D01*
X76534Y-26880D01*
X76606Y-26808D01*
X76606Y-26986D01*
X76606Y-26986D01*
G37*
G54D38*
X76606Y-26986D02*
X76571Y-27020D01*
X76204Y-27020D01*
X76133Y-27034D01*
X76073Y-27074D01*
X75959Y-27189D01*
X75919Y-27249D01*
X75905Y-27320D01*
X75905Y-27543D01*
X75824Y-27576D01*
X75784Y-27616D01*
X75784Y-27424D01*
X75760Y-27367D01*
X75717Y-27323D01*
X75660Y-27300D01*
X75598Y-27299D01*
X75087Y-27299D01*
X75030Y-27323D01*
X75000Y-27354D01*
X74969Y-27323D01*
X74912Y-27299D01*
X74759Y-27300D01*
X74721Y-27338D01*
X74721Y-27655D01*
X74728Y-27655D01*
X74728Y-27845D01*
X74721Y-27845D01*
X74721Y-28161D01*
X74759Y-28200D01*
X74912Y-28200D01*
X74969Y-28176D01*
X75000Y-28145D01*
X75030Y-28176D01*
X75087Y-28199D01*
X75149Y-28200D01*
X75655Y-28200D01*
X75655Y-28300D01*
X75598Y-28299D01*
X75087Y-28299D01*
X75030Y-28323D01*
X75000Y-28354D01*
X74969Y-28323D01*
X74912Y-28299D01*
X74759Y-28300D01*
X74721Y-28338D01*
X74721Y-28655D01*
X74728Y-28655D01*
X74728Y-28845D01*
X74721Y-28845D01*
X74721Y-28852D01*
X74531Y-28852D01*
X74531Y-28845D01*
X74531Y-28655D01*
X74531Y-28338D01*
X74531Y-28161D01*
X74531Y-27845D01*
X74254Y-27845D01*
X74215Y-27883D01*
X74215Y-28014D01*
X74215Y-28075D01*
X74239Y-28132D01*
X74282Y-28176D01*
X74339Y-28200D01*
X74492Y-28200D01*
X74531Y-28161D01*
X74531Y-28338D01*
X74492Y-28300D01*
X74339Y-28299D01*
X74282Y-28323D01*
X74239Y-28367D01*
X74215Y-28424D01*
X74215Y-28485D01*
X74215Y-28616D01*
X74254Y-28655D01*
X74531Y-28655D01*
X74531Y-28845D01*
X74254Y-28845D01*
X74215Y-28883D01*
X74215Y-29014D01*
X74215Y-29075D01*
X74239Y-29132D01*
X74282Y-29176D01*
X74339Y-29200D01*
X74431Y-29200D01*
X74396Y-29235D01*
X74372Y-29292D01*
X74372Y-29353D01*
X74372Y-29687D01*
X74333Y-29687D01*
X74333Y-29686D01*
X74289Y-29643D01*
X74232Y-29619D01*
X74171Y-29619D01*
X73915Y-29619D01*
X73895Y-29627D01*
X73895Y-26110D01*
X73880Y-26039D01*
X73840Y-25979D01*
X73840Y-25979D01*
X73798Y-25937D01*
X74157Y-25937D01*
X74232Y-25922D01*
X74232Y-25922D01*
X74295Y-25880D01*
X74394Y-25781D01*
X74394Y-25784D01*
X74394Y-26177D01*
X74418Y-26234D01*
X74461Y-26277D01*
X74518Y-26301D01*
X74571Y-26301D01*
X74571Y-26328D01*
X74538Y-26328D01*
X74481Y-26352D01*
X74438Y-26395D01*
X74414Y-26452D01*
X74414Y-26514D01*
X74414Y-26813D01*
X74233Y-26995D01*
X74165Y-26994D01*
X74064Y-27036D01*
X73987Y-27114D01*
X73945Y-27215D01*
X73944Y-27324D01*
X73986Y-27425D01*
X74064Y-27502D01*
X74165Y-27544D01*
X74215Y-27544D01*
X74215Y-27616D01*
X74254Y-27655D01*
X74531Y-27655D01*
X74531Y-27338D01*
X74494Y-27302D01*
X74495Y-27256D01*
X74680Y-27071D01*
X74993Y-27071D01*
X75050Y-27047D01*
X75093Y-27004D01*
X75099Y-26989D01*
X75106Y-27004D01*
X75149Y-27047D01*
X75206Y-27071D01*
X75268Y-27071D01*
X75661Y-27071D01*
X75718Y-27047D01*
X75761Y-27004D01*
X75782Y-26955D01*
X76354Y-26955D01*
X76451Y-26935D01*
X76534Y-26880D01*
X76606Y-26808D01*
X76606Y-26986D01*
G54D10*
G36*
X77515Y-34299D02*
X77087Y-34299D01*
X77030Y-34323D01*
X76999Y-34354D01*
X76969Y-34323D01*
X76912Y-34300D01*
X76850Y-34299D01*
X76339Y-34299D01*
X76282Y-34323D01*
X76239Y-34367D01*
X76215Y-34424D01*
X76215Y-34485D01*
X76215Y-34715D01*
X76176Y-34715D01*
X76145Y-34683D01*
X76145Y-33923D01*
X76192Y-33875D01*
X76234Y-33774D01*
X76235Y-33680D01*
X76421Y-33717D01*
X77042Y-33717D01*
X77230Y-33680D01*
X77389Y-33574D01*
X77495Y-33415D01*
X77515Y-33316D01*
X77515Y-34299D01*
X77515Y-34299D01*
G37*
G54D38*
X77515Y-34299D02*
X77087Y-34299D01*
X77030Y-34323D01*
X76999Y-34354D01*
X76969Y-34323D01*
X76912Y-34300D01*
X76850Y-34299D01*
X76339Y-34299D01*
X76282Y-34323D01*
X76239Y-34367D01*
X76215Y-34424D01*
X76215Y-34485D01*
X76215Y-34715D01*
X76176Y-34715D01*
X76145Y-34683D01*
X76145Y-33923D01*
X76192Y-33875D01*
X76234Y-33774D01*
X76235Y-33680D01*
X76421Y-33717D01*
X77042Y-33717D01*
X77230Y-33680D01*
X77389Y-33574D01*
X77495Y-33415D01*
X77515Y-33316D01*
X77515Y-34299D01*
G54D10*
G36*
X81311Y-20801D02*
X81281Y-20771D01*
X81249Y-20758D01*
X81114Y-20702D01*
X80933Y-20702D01*
X80766Y-20771D01*
X80638Y-20899D01*
X80568Y-21066D01*
X80568Y-21247D01*
X80575Y-21263D01*
X80525Y-21313D01*
X80473Y-21261D01*
X80478Y-21248D01*
X80478Y-21067D01*
X80409Y-20900D01*
X80281Y-20771D01*
X80114Y-20702D01*
X79933Y-20702D01*
X79766Y-20771D01*
X79638Y-20899D01*
X79568Y-21066D01*
X79568Y-21247D01*
X79637Y-21414D01*
X79765Y-21542D01*
X79903Y-21600D01*
X79866Y-21636D01*
X79866Y-21637D01*
X79827Y-21637D01*
X79756Y-21651D01*
X79696Y-21692D01*
X79487Y-21901D01*
X79487Y-21171D01*
X79457Y-20992D01*
X79446Y-20967D01*
X79383Y-20931D01*
X79249Y-21065D01*
X79249Y-20797D01*
X79213Y-20734D01*
X79037Y-20693D01*
X78858Y-20723D01*
X78833Y-20734D01*
X78797Y-20797D01*
X79023Y-21023D01*
X79249Y-20797D01*
X79249Y-21065D01*
X79157Y-21157D01*
X79383Y-21383D01*
X79446Y-21347D01*
X79487Y-21171D01*
X79487Y-21901D01*
X79377Y-22010D01*
X79377Y-21839D01*
X79353Y-21782D01*
X79328Y-21757D01*
X79328Y-21703D01*
X79328Y-21703D01*
X79314Y-21632D01*
X79314Y-21632D01*
X79301Y-21612D01*
X79274Y-21572D01*
X79274Y-21572D01*
X79238Y-21536D01*
X79249Y-21517D01*
X79023Y-21291D01*
X79018Y-21297D01*
X78889Y-21168D01*
X78883Y-21163D01*
X78889Y-21157D01*
X78663Y-20931D01*
X78600Y-20967D01*
X78559Y-21143D01*
X78589Y-21322D01*
X78600Y-21347D01*
X78663Y-21383D01*
X78641Y-21405D01*
X78413Y-21405D01*
X78478Y-21248D01*
X78478Y-21067D01*
X78409Y-20900D01*
X78281Y-20771D01*
X78114Y-20702D01*
X77933Y-20702D01*
X77785Y-20763D01*
X77785Y-20710D01*
X77770Y-20639D01*
X77730Y-20579D01*
X77730Y-20579D01*
X77590Y-20439D01*
X77530Y-20399D01*
X77460Y-20385D01*
X77421Y-20385D01*
X77478Y-20248D01*
X77478Y-20067D01*
X77409Y-19900D01*
X77281Y-19771D01*
X77137Y-19712D01*
X77910Y-19712D01*
X77766Y-19771D01*
X77638Y-19899D01*
X77568Y-20066D01*
X77568Y-20247D01*
X77637Y-20414D01*
X77765Y-20542D01*
X77932Y-20612D01*
X78113Y-20612D01*
X78281Y-20543D01*
X78409Y-20415D01*
X78478Y-20248D01*
X78478Y-20067D01*
X78409Y-19900D01*
X78281Y-19771D01*
X78137Y-19712D01*
X78910Y-19712D01*
X78766Y-19771D01*
X78638Y-19899D01*
X78568Y-20066D01*
X78568Y-20247D01*
X78637Y-20414D01*
X78765Y-20542D01*
X78932Y-20612D01*
X79113Y-20612D01*
X79281Y-20543D01*
X79409Y-20415D01*
X79478Y-20248D01*
X79478Y-20067D01*
X79409Y-19900D01*
X79281Y-19771D01*
X79137Y-19712D01*
X79910Y-19712D01*
X79766Y-19771D01*
X79638Y-19899D01*
X79568Y-20066D01*
X79568Y-20247D01*
X79637Y-20414D01*
X79765Y-20542D01*
X79932Y-20612D01*
X80113Y-20612D01*
X80281Y-20543D01*
X80409Y-20415D01*
X80478Y-20248D01*
X80478Y-20067D01*
X80409Y-19900D01*
X80281Y-19771D01*
X80137Y-19712D01*
X80928Y-19712D01*
X80858Y-19723D01*
X80833Y-19734D01*
X80797Y-19797D01*
X81023Y-20023D01*
X81029Y-20017D01*
X81163Y-20151D01*
X81157Y-20157D01*
X81163Y-20163D01*
X81029Y-20297D01*
X81023Y-20291D01*
X80889Y-20426D01*
X80889Y-20157D01*
X80663Y-19931D01*
X80600Y-19967D01*
X80559Y-20143D01*
X80589Y-20322D01*
X80600Y-20347D01*
X80663Y-20383D01*
X80889Y-20157D01*
X80889Y-20426D01*
X80797Y-20517D01*
X80833Y-20580D01*
X81009Y-20621D01*
X81188Y-20591D01*
X81213Y-20580D01*
X81249Y-20517D01*
X81249Y-20517D01*
X81284Y-20552D01*
X81311Y-20525D01*
X81311Y-20801D01*
X81311Y-20801D01*
G37*
G54D38*
X81311Y-20801D02*
X81281Y-20771D01*
X81249Y-20758D01*
X81114Y-20702D01*
X80933Y-20702D01*
X80766Y-20771D01*
X80638Y-20899D01*
X80568Y-21066D01*
X80568Y-21247D01*
X80575Y-21263D01*
X80525Y-21313D01*
X80473Y-21261D01*
X80478Y-21248D01*
X80478Y-21067D01*
X80409Y-20900D01*
X80281Y-20771D01*
X80114Y-20702D01*
X79933Y-20702D01*
X79766Y-20771D01*
X79638Y-20899D01*
X79568Y-21066D01*
X79568Y-21247D01*
X79637Y-21414D01*
X79765Y-21542D01*
X79903Y-21600D01*
X79866Y-21636D01*
X79866Y-21637D01*
X79827Y-21637D01*
X79756Y-21651D01*
X79696Y-21692D01*
X79487Y-21901D01*
X79487Y-21171D01*
X79457Y-20992D01*
X79446Y-20967D01*
X79383Y-20931D01*
X79249Y-21065D01*
X79249Y-20797D01*
X79213Y-20734D01*
X79037Y-20693D01*
X78858Y-20723D01*
X78833Y-20734D01*
X78797Y-20797D01*
X79023Y-21023D01*
X79249Y-20797D01*
X79249Y-21065D01*
X79157Y-21157D01*
X79383Y-21383D01*
X79446Y-21347D01*
X79487Y-21171D01*
X79487Y-21901D01*
X79377Y-22010D01*
X79377Y-21839D01*
X79353Y-21782D01*
X79328Y-21757D01*
X79328Y-21703D01*
X79328Y-21703D01*
X79314Y-21632D01*
X79314Y-21632D01*
X79301Y-21612D01*
X79274Y-21572D01*
X79274Y-21572D01*
X79238Y-21536D01*
X79249Y-21517D01*
X79023Y-21291D01*
X79018Y-21297D01*
X78889Y-21168D01*
X78883Y-21163D01*
X78889Y-21157D01*
X78663Y-20931D01*
X78600Y-20967D01*
X78559Y-21143D01*
X78589Y-21322D01*
X78600Y-21347D01*
X78663Y-21383D01*
X78641Y-21405D01*
X78413Y-21405D01*
X78478Y-21248D01*
X78478Y-21067D01*
X78409Y-20900D01*
X78281Y-20771D01*
X78114Y-20702D01*
X77933Y-20702D01*
X77785Y-20763D01*
X77785Y-20710D01*
X77770Y-20639D01*
X77730Y-20579D01*
X77730Y-20579D01*
X77590Y-20439D01*
X77530Y-20399D01*
X77460Y-20385D01*
X77421Y-20385D01*
X77478Y-20248D01*
X77478Y-20067D01*
X77409Y-19900D01*
X77281Y-19771D01*
X77137Y-19712D01*
X77910Y-19712D01*
X77766Y-19771D01*
X77638Y-19899D01*
X77568Y-20066D01*
X77568Y-20247D01*
X77637Y-20414D01*
X77765Y-20542D01*
X77932Y-20612D01*
X78113Y-20612D01*
X78281Y-20543D01*
X78409Y-20415D01*
X78478Y-20248D01*
X78478Y-20067D01*
X78409Y-19900D01*
X78281Y-19771D01*
X78137Y-19712D01*
X78910Y-19712D01*
X78766Y-19771D01*
X78638Y-19899D01*
X78568Y-20066D01*
X78568Y-20247D01*
X78637Y-20414D01*
X78765Y-20542D01*
X78932Y-20612D01*
X79113Y-20612D01*
X79281Y-20543D01*
X79409Y-20415D01*
X79478Y-20248D01*
X79478Y-20067D01*
X79409Y-19900D01*
X79281Y-19771D01*
X79137Y-19712D01*
X79910Y-19712D01*
X79766Y-19771D01*
X79638Y-19899D01*
X79568Y-20066D01*
X79568Y-20247D01*
X79637Y-20414D01*
X79765Y-20542D01*
X79932Y-20612D01*
X80113Y-20612D01*
X80281Y-20543D01*
X80409Y-20415D01*
X80478Y-20248D01*
X80478Y-20067D01*
X80409Y-19900D01*
X80281Y-19771D01*
X80137Y-19712D01*
X80928Y-19712D01*
X80858Y-19723D01*
X80833Y-19734D01*
X80797Y-19797D01*
X81023Y-20023D01*
X81029Y-20017D01*
X81163Y-20151D01*
X81157Y-20157D01*
X81163Y-20163D01*
X81029Y-20297D01*
X81023Y-20291D01*
X80889Y-20426D01*
X80889Y-20157D01*
X80663Y-19931D01*
X80600Y-19967D01*
X80559Y-20143D01*
X80589Y-20322D01*
X80600Y-20347D01*
X80663Y-20383D01*
X80889Y-20157D01*
X80889Y-20426D01*
X80797Y-20517D01*
X80833Y-20580D01*
X81009Y-20621D01*
X81188Y-20591D01*
X81213Y-20580D01*
X81249Y-20517D01*
X81249Y-20517D01*
X81284Y-20552D01*
X81311Y-20525D01*
X81311Y-20801D01*
G54D10*
G36*
X81311Y-37374D02*
X80487Y-37374D01*
X80487Y-36919D01*
X80487Y-35919D01*
X80457Y-35740D01*
X80446Y-35715D01*
X80383Y-35679D01*
X80249Y-35814D01*
X80249Y-35545D01*
X80213Y-35482D01*
X80037Y-35441D01*
X79950Y-35456D01*
X79950Y-34660D01*
X79881Y-34495D01*
X79755Y-34368D01*
X79589Y-34299D01*
X79410Y-34299D01*
X79245Y-34368D01*
X79118Y-34494D01*
X79049Y-34660D01*
X79049Y-34839D01*
X79118Y-35004D01*
X79244Y-35131D01*
X79410Y-35200D01*
X79589Y-35200D01*
X79754Y-35131D01*
X79881Y-35005D01*
X79950Y-34839D01*
X79950Y-34660D01*
X79950Y-35456D01*
X79858Y-35471D01*
X79833Y-35482D01*
X79797Y-35545D01*
X80023Y-35771D01*
X80249Y-35545D01*
X80249Y-35814D01*
X80157Y-35905D01*
X80383Y-36131D01*
X80446Y-36095D01*
X80487Y-35919D01*
X80487Y-36919D01*
X80457Y-36740D01*
X80446Y-36715D01*
X80383Y-36679D01*
X80249Y-36814D01*
X80249Y-36545D01*
X80249Y-36265D01*
X80023Y-36039D01*
X79889Y-36174D01*
X79889Y-35905D01*
X79663Y-35679D01*
X79600Y-35715D01*
X79559Y-35891D01*
X79589Y-36070D01*
X79600Y-36095D01*
X79663Y-36131D01*
X79889Y-35905D01*
X79889Y-36174D01*
X79797Y-36265D01*
X79833Y-36328D01*
X80009Y-36369D01*
X80188Y-36339D01*
X80213Y-36328D01*
X80249Y-36265D01*
X80249Y-36545D01*
X80213Y-36482D01*
X80037Y-36441D01*
X79858Y-36471D01*
X79833Y-36482D01*
X79797Y-36545D01*
X80023Y-36771D01*
X80249Y-36545D01*
X80249Y-36814D01*
X80157Y-36905D01*
X80383Y-37131D01*
X80446Y-37095D01*
X80487Y-36919D01*
X80487Y-37374D01*
X80249Y-37374D01*
X80249Y-37265D01*
X80023Y-37039D01*
X79889Y-37174D01*
X79889Y-36905D01*
X79663Y-36679D01*
X79600Y-36715D01*
X79559Y-36891D01*
X79589Y-37070D01*
X79600Y-37095D01*
X79663Y-37131D01*
X79889Y-36905D01*
X79889Y-37174D01*
X79797Y-37265D01*
X79833Y-37328D01*
X80009Y-37369D01*
X80188Y-37339D01*
X80213Y-37328D01*
X80249Y-37265D01*
X80249Y-37374D01*
X79487Y-37374D01*
X79487Y-35919D01*
X79457Y-35740D01*
X79446Y-35715D01*
X79383Y-35679D01*
X79249Y-35814D01*
X79249Y-35545D01*
X79213Y-35482D01*
X79037Y-35441D01*
X78950Y-35456D01*
X78950Y-34660D01*
X78881Y-34495D01*
X78755Y-34368D01*
X78589Y-34299D01*
X78410Y-34299D01*
X78245Y-34368D01*
X78118Y-34494D01*
X78049Y-34660D01*
X78049Y-34839D01*
X78118Y-35004D01*
X78244Y-35131D01*
X78315Y-35160D01*
X78315Y-35553D01*
X78281Y-35520D01*
X78114Y-35450D01*
X77933Y-35450D01*
X77766Y-35519D01*
X77638Y-35647D01*
X77568Y-35814D01*
X77568Y-35995D01*
X77620Y-36121D01*
X77559Y-36120D01*
X77478Y-36154D01*
X77478Y-35815D01*
X77409Y-35648D01*
X77281Y-35520D01*
X77114Y-35450D01*
X76933Y-35450D01*
X76766Y-35519D01*
X76638Y-35647D01*
X76568Y-35814D01*
X76568Y-35995D01*
X76637Y-36162D01*
X76765Y-36291D01*
X76932Y-36360D01*
X77113Y-36360D01*
X77281Y-36291D01*
X77409Y-36163D01*
X77478Y-35996D01*
X77478Y-35815D01*
X77478Y-36154D01*
X77458Y-36162D01*
X77381Y-36240D01*
X77339Y-36341D01*
X77338Y-36450D01*
X77380Y-36551D01*
X77458Y-36628D01*
X77559Y-36670D01*
X77628Y-36671D01*
X77568Y-36814D01*
X77568Y-36995D01*
X77637Y-37162D01*
X77765Y-37291D01*
X77932Y-37360D01*
X78113Y-37360D01*
X78281Y-37291D01*
X78409Y-37163D01*
X78478Y-36996D01*
X78478Y-36815D01*
X78409Y-36648D01*
X78360Y-36598D01*
X78378Y-36594D01*
X78438Y-36554D01*
X78630Y-36362D01*
X78630Y-36362D01*
X78670Y-36302D01*
X78684Y-36232D01*
X78685Y-36232D01*
X78685Y-36109D01*
X78889Y-35905D01*
X78685Y-35701D01*
X78685Y-35160D01*
X78754Y-35131D01*
X78881Y-35005D01*
X78950Y-34839D01*
X78950Y-34660D01*
X78950Y-35456D01*
X78858Y-35471D01*
X78833Y-35482D01*
X78797Y-35545D01*
X79023Y-35771D01*
X79249Y-35545D01*
X79249Y-35814D01*
X79157Y-35905D01*
X79383Y-36131D01*
X79446Y-36095D01*
X79487Y-35919D01*
X79487Y-37374D01*
X79478Y-37374D01*
X79478Y-36815D01*
X79409Y-36648D01*
X79281Y-36520D01*
X79249Y-36506D01*
X79249Y-36265D01*
X79023Y-36039D01*
X78797Y-36265D01*
X78833Y-36328D01*
X79009Y-36369D01*
X79188Y-36339D01*
X79213Y-36328D01*
X79249Y-36265D01*
X79249Y-36506D01*
X79114Y-36450D01*
X78933Y-36450D01*
X78766Y-36519D01*
X78638Y-36647D01*
X78568Y-36814D01*
X78568Y-36995D01*
X78637Y-37162D01*
X78765Y-37291D01*
X78932Y-37360D01*
X79113Y-37360D01*
X79281Y-37291D01*
X79409Y-37163D01*
X79478Y-36996D01*
X79478Y-36815D01*
X79478Y-37374D01*
X76708Y-37374D01*
X76754Y-37327D01*
X76769Y-37292D01*
X76932Y-37360D01*
X77113Y-37360D01*
X77281Y-37291D01*
X77409Y-37163D01*
X77478Y-36996D01*
X77478Y-36815D01*
X77409Y-36648D01*
X77281Y-36520D01*
X77114Y-36450D01*
X76933Y-36450D01*
X76766Y-36519D01*
X76676Y-36608D01*
X76652Y-36573D01*
X76652Y-36573D01*
X76326Y-36246D01*
X76409Y-36163D01*
X76478Y-35996D01*
X76478Y-35815D01*
X76409Y-35648D01*
X76281Y-35520D01*
X76114Y-35450D01*
X75933Y-35450D01*
X75766Y-35519D01*
X75638Y-35647D01*
X75568Y-35814D01*
X75568Y-35995D01*
X75626Y-36135D01*
X75420Y-36135D01*
X75478Y-35996D01*
X75478Y-35815D01*
X75409Y-35648D01*
X75281Y-35520D01*
X75114Y-35450D01*
X74933Y-35450D01*
X74766Y-35519D01*
X74764Y-35521D01*
X74741Y-35466D01*
X74730Y-35455D01*
X74758Y-35426D01*
X74800Y-35325D01*
X74801Y-35232D01*
X74821Y-35212D01*
X74821Y-34995D01*
X74583Y-34995D01*
X74581Y-34996D01*
X74580Y-34996D01*
X74471Y-34995D01*
X74377Y-35035D01*
X74377Y-34973D01*
X74338Y-34935D01*
X73845Y-34935D01*
X73845Y-34942D01*
X73655Y-34942D01*
X73655Y-34935D01*
X73161Y-34935D01*
X73128Y-34968D01*
X73107Y-34960D01*
X73001Y-34959D01*
X73001Y-34831D01*
X73001Y-34717D01*
X72962Y-34679D01*
X72745Y-34679D01*
X72745Y-34916D01*
X72783Y-34955D01*
X72815Y-34955D01*
X72877Y-34955D01*
X72934Y-34931D01*
X72977Y-34888D01*
X73001Y-34831D01*
X73001Y-34959D01*
X72998Y-34959D01*
X72897Y-35001D01*
X72820Y-35079D01*
X72778Y-35180D01*
X72777Y-35289D01*
X72819Y-35390D01*
X72895Y-35466D01*
X72766Y-35519D01*
X72638Y-35647D01*
X72568Y-35814D01*
X72568Y-35995D01*
X72631Y-36148D01*
X72555Y-36148D01*
X72555Y-34916D01*
X72555Y-34679D01*
X72337Y-34679D01*
X72298Y-34717D01*
X72298Y-34831D01*
X72322Y-34888D01*
X72365Y-34931D01*
X72422Y-34955D01*
X72484Y-34955D01*
X72516Y-34955D01*
X72555Y-34916D01*
X72555Y-36148D01*
X72415Y-36148D01*
X72478Y-35996D01*
X72478Y-35815D01*
X72409Y-35648D01*
X72281Y-35520D01*
X72180Y-35477D01*
X72180Y-35185D01*
X72180Y-34494D01*
X72156Y-34437D01*
X72113Y-34394D01*
X72056Y-34370D01*
X71994Y-34370D01*
X71883Y-34370D01*
X71845Y-34409D01*
X71845Y-34745D01*
X72141Y-34745D01*
X72180Y-34706D01*
X72180Y-34494D01*
X72180Y-35185D01*
X72180Y-34973D01*
X72141Y-34935D01*
X71845Y-34935D01*
X71845Y-35270D01*
X71883Y-35309D01*
X71994Y-35309D01*
X72056Y-35309D01*
X72113Y-35285D01*
X72156Y-35242D01*
X72180Y-35185D01*
X72180Y-35477D01*
X72114Y-35450D01*
X71933Y-35450D01*
X71766Y-35519D01*
X71655Y-35630D01*
X71655Y-35270D01*
X71655Y-34935D01*
X71655Y-34745D01*
X71655Y-34409D01*
X71616Y-34370D01*
X71505Y-34370D01*
X71443Y-34370D01*
X71386Y-34394D01*
X71343Y-34437D01*
X71319Y-34494D01*
X71319Y-34706D01*
X71358Y-34745D01*
X71655Y-34745D01*
X71655Y-34935D01*
X71358Y-34935D01*
X71319Y-34973D01*
X71319Y-35185D01*
X71343Y-35242D01*
X71386Y-35285D01*
X71443Y-35309D01*
X71505Y-35309D01*
X71616Y-35309D01*
X71655Y-35270D01*
X71655Y-35630D01*
X71638Y-35647D01*
X71568Y-35814D01*
X71568Y-35995D01*
X71631Y-36148D01*
X71487Y-36148D01*
X71400Y-36148D01*
X71383Y-36131D01*
X71446Y-36095D01*
X71487Y-35919D01*
X71457Y-35740D01*
X71446Y-35715D01*
X71383Y-35679D01*
X71249Y-35814D01*
X71249Y-35545D01*
X71213Y-35482D01*
X71127Y-35462D01*
X71127Y-35185D01*
X71127Y-34973D01*
X71088Y-34935D01*
X70595Y-34935D01*
X70595Y-35270D01*
X70633Y-35309D01*
X70941Y-35309D01*
X71002Y-35309D01*
X71059Y-35285D01*
X71103Y-35242D01*
X71127Y-35185D01*
X71127Y-35462D01*
X71037Y-35441D01*
X70858Y-35471D01*
X70833Y-35482D01*
X70797Y-35545D01*
X71023Y-35771D01*
X71249Y-35545D01*
X71249Y-35814D01*
X71157Y-35905D01*
X71163Y-35911D01*
X71029Y-36045D01*
X71023Y-36039D01*
X71018Y-36045D01*
X70883Y-35911D01*
X70889Y-35905D01*
X70663Y-35679D01*
X70647Y-35688D01*
X70645Y-35678D01*
X70605Y-35618D01*
X70605Y-35618D01*
X70328Y-35341D01*
X70281Y-35309D01*
X70366Y-35309D01*
X70405Y-35270D01*
X70405Y-34935D01*
X70397Y-34935D01*
X70397Y-34745D01*
X70405Y-34745D01*
X70405Y-34737D01*
X70595Y-34737D01*
X70595Y-34745D01*
X71088Y-34745D01*
X71127Y-34706D01*
X71127Y-34570D01*
X71151Y-34565D01*
X71228Y-34514D01*
X71612Y-34129D01*
X72056Y-34129D01*
X72113Y-34105D01*
X72156Y-34062D01*
X72180Y-34005D01*
X72180Y-33943D01*
X72180Y-33895D01*
X72296Y-33895D01*
X72298Y-33896D01*
X72298Y-34163D01*
X72322Y-34220D01*
X72351Y-34250D01*
X72322Y-34279D01*
X72298Y-34336D01*
X72298Y-34450D01*
X72337Y-34489D01*
X72555Y-34489D01*
X72555Y-34481D01*
X72745Y-34481D01*
X72745Y-34489D01*
X72962Y-34489D01*
X73001Y-34450D01*
X73001Y-34336D01*
X72977Y-34279D01*
X72948Y-34249D01*
X72977Y-34220D01*
X72990Y-34189D01*
X73021Y-34234D01*
X73167Y-34380D01*
X73167Y-34380D01*
X73188Y-34395D01*
X73146Y-34437D01*
X73122Y-34494D01*
X73123Y-34706D01*
X73161Y-34745D01*
X73655Y-34745D01*
X73655Y-34737D01*
X73845Y-34737D01*
X73845Y-34745D01*
X74338Y-34745D01*
X74377Y-34706D01*
X74377Y-34494D01*
X74353Y-34437D01*
X74350Y-34435D01*
X74418Y-34435D01*
X74524Y-34540D01*
X74524Y-34540D01*
X74584Y-34580D01*
X74599Y-34584D01*
X74568Y-34615D01*
X74544Y-34672D01*
X74544Y-34734D01*
X74544Y-34766D01*
X74583Y-34805D01*
X74821Y-34805D01*
X74821Y-34797D01*
X75011Y-34797D01*
X75011Y-34805D01*
X75018Y-34805D01*
X75018Y-34995D01*
X75011Y-34995D01*
X75011Y-35212D01*
X75049Y-35251D01*
X75163Y-35251D01*
X75220Y-35227D01*
X75250Y-35198D01*
X75279Y-35227D01*
X75336Y-35251D01*
X75398Y-35251D01*
X75831Y-35251D01*
X75888Y-35227D01*
X75931Y-35184D01*
X75955Y-35127D01*
X75955Y-35085D01*
X76100Y-35085D01*
X76219Y-35085D01*
X76239Y-35132D01*
X76282Y-35176D01*
X76339Y-35199D01*
X76401Y-35200D01*
X76912Y-35200D01*
X76969Y-35176D01*
X77000Y-35145D01*
X77030Y-35176D01*
X77087Y-35199D01*
X77149Y-35200D01*
X77660Y-35200D01*
X77717Y-35176D01*
X77760Y-35132D01*
X77784Y-35075D01*
X77784Y-35014D01*
X77784Y-34577D01*
X77830Y-34530D01*
X77830Y-34530D01*
X77870Y-34470D01*
X77884Y-34400D01*
X77885Y-34400D01*
X77885Y-32385D01*
X77884Y-32385D01*
X77870Y-32314D01*
X77870Y-32314D01*
X77857Y-32294D01*
X77830Y-32254D01*
X77830Y-32254D01*
X77822Y-32246D01*
X77851Y-32176D01*
X77851Y-31997D01*
X77783Y-31831D01*
X77656Y-31705D01*
X77491Y-31636D01*
X77312Y-31636D01*
X77146Y-31704D01*
X77020Y-31831D01*
X76951Y-31996D01*
X76951Y-32175D01*
X77019Y-32341D01*
X77146Y-32468D01*
X77311Y-32536D01*
X77490Y-32536D01*
X77515Y-32526D01*
X77515Y-33139D01*
X77495Y-33040D01*
X77389Y-32882D01*
X77230Y-32775D01*
X77042Y-32738D01*
X76421Y-32738D01*
X76346Y-32753D01*
X76515Y-32583D01*
X76558Y-32520D01*
X76558Y-32520D01*
X76562Y-32497D01*
X76632Y-32468D01*
X76759Y-32342D01*
X76828Y-32176D01*
X76828Y-31997D01*
X76759Y-31831D01*
X76633Y-31705D01*
X76467Y-31636D01*
X76288Y-31636D01*
X76123Y-31704D01*
X76085Y-31742D01*
X76085Y-31446D01*
X76122Y-31483D01*
X76287Y-31552D01*
X76467Y-31552D01*
X76632Y-31484D01*
X76759Y-31357D01*
X76828Y-31192D01*
X76828Y-31013D01*
X76803Y-30953D01*
X76829Y-30970D01*
X76900Y-30985D01*
X76962Y-30985D01*
X76951Y-31012D01*
X76951Y-31191D01*
X77019Y-31357D01*
X77146Y-31483D01*
X77311Y-31552D01*
X77490Y-31552D01*
X77656Y-31484D01*
X77783Y-31357D01*
X77851Y-31192D01*
X77851Y-31013D01*
X77783Y-30847D01*
X77656Y-30720D01*
X77627Y-30708D01*
X77656Y-30696D01*
X77783Y-30570D01*
X77851Y-30404D01*
X77851Y-30225D01*
X77783Y-30060D01*
X77656Y-29933D01*
X77491Y-29864D01*
X77312Y-29864D01*
X77146Y-29933D01*
X77135Y-29944D01*
X77135Y-29900D01*
X77120Y-29829D01*
X77080Y-29769D01*
X77080Y-29769D01*
X76930Y-29619D01*
X76870Y-29579D01*
X76800Y-29565D01*
X76768Y-29565D01*
X76828Y-29420D01*
X76828Y-29241D01*
X76759Y-29075D01*
X76679Y-28995D01*
X76790Y-28995D01*
X76976Y-29181D01*
X76951Y-29240D01*
X76951Y-29419D01*
X77019Y-29585D01*
X77146Y-29712D01*
X77311Y-29780D01*
X77490Y-29781D01*
X77656Y-29712D01*
X77783Y-29586D01*
X77851Y-29420D01*
X77851Y-29241D01*
X77783Y-29075D01*
X77656Y-28949D01*
X77491Y-28880D01*
X77312Y-28880D01*
X77251Y-28905D01*
X77025Y-28678D01*
X77042Y-28678D01*
X77230Y-28641D01*
X77389Y-28535D01*
X77495Y-28376D01*
X77532Y-28188D01*
X77495Y-28001D01*
X77389Y-27842D01*
X77230Y-27736D01*
X77042Y-27699D01*
X76927Y-27699D01*
X76927Y-27648D01*
X77130Y-27445D01*
X77465Y-27445D01*
X77465Y-27575D01*
X77489Y-27632D01*
X77532Y-27676D01*
X77589Y-27699D01*
X77651Y-27700D01*
X78162Y-27700D01*
X78219Y-27676D01*
X78250Y-27645D01*
X78280Y-27676D01*
X78337Y-27700D01*
X78490Y-27700D01*
X78529Y-27661D01*
X78529Y-27345D01*
X78521Y-27345D01*
X78521Y-27155D01*
X78529Y-27155D01*
X78529Y-26838D01*
X78490Y-26800D01*
X78337Y-26799D01*
X78280Y-26823D01*
X78249Y-26854D01*
X78219Y-26823D01*
X78162Y-26800D01*
X78100Y-26799D01*
X77589Y-26799D01*
X77532Y-26823D01*
X77489Y-26867D01*
X77465Y-26924D01*
X77465Y-26985D01*
X77465Y-27055D01*
X77122Y-27055D01*
X77122Y-24529D01*
X77360Y-24290D01*
X77690Y-23960D01*
X77690Y-23960D01*
X77706Y-23936D01*
X77730Y-23900D01*
X77730Y-23900D01*
X77744Y-23830D01*
X77745Y-23830D01*
X77745Y-22070D01*
X77730Y-21999D01*
X77690Y-21939D01*
X77690Y-21939D01*
X77676Y-21925D01*
X77930Y-21925D01*
X78122Y-21925D01*
X78122Y-22294D01*
X78146Y-22351D01*
X78189Y-22395D01*
X78246Y-22418D01*
X78308Y-22418D01*
X78465Y-22418D01*
X78522Y-22395D01*
X78553Y-22364D01*
X78583Y-22395D01*
X78640Y-22418D01*
X78701Y-22418D01*
X78671Y-22418D01*
X78710Y-22380D01*
X78710Y-22161D01*
X78671Y-22161D01*
X78671Y-21971D01*
X78710Y-21971D01*
X78710Y-21964D01*
X78765Y-21964D01*
X78765Y-22530D01*
X78779Y-22600D01*
X78819Y-22660D01*
X78958Y-22800D01*
X78958Y-22820D01*
X78946Y-22831D01*
X78916Y-22801D01*
X78859Y-22778D01*
X78798Y-22778D01*
X78640Y-22778D01*
X78583Y-22801D01*
X78553Y-22831D01*
X78522Y-22801D01*
X78466Y-22778D01*
X78404Y-22778D01*
X78246Y-22778D01*
X78189Y-22801D01*
X78146Y-22845D01*
X78122Y-22902D01*
X78122Y-22963D01*
X78122Y-23357D01*
X78146Y-23414D01*
X78189Y-23458D01*
X78246Y-23481D01*
X78308Y-23481D01*
X78465Y-23481D01*
X78515Y-23461D01*
X78515Y-23573D01*
X78477Y-23665D01*
X78476Y-23774D01*
X78515Y-23866D01*
X78515Y-24392D01*
X78302Y-24604D01*
X78206Y-24644D01*
X78129Y-24722D01*
X78087Y-24823D01*
X78086Y-24932D01*
X78128Y-25033D01*
X78206Y-25110D01*
X78307Y-25152D01*
X78416Y-25153D01*
X78517Y-25111D01*
X78594Y-25033D01*
X78635Y-24937D01*
X78916Y-24656D01*
X78916Y-24656D01*
X78967Y-24579D01*
X78984Y-24490D01*
X78985Y-24490D01*
X78985Y-23875D01*
X79026Y-23774D01*
X79027Y-23665D01*
X78985Y-23564D01*
X78985Y-23564D01*
X78985Y-23461D01*
X79033Y-23481D01*
X79095Y-23481D01*
X79253Y-23481D01*
X79310Y-23458D01*
X79353Y-23414D01*
X79377Y-23357D01*
X79377Y-23296D01*
X79377Y-22902D01*
X79353Y-22845D01*
X79328Y-22820D01*
X79328Y-22782D01*
X79749Y-22362D01*
X79866Y-22362D01*
X79866Y-22363D01*
X79910Y-22406D01*
X79967Y-22430D01*
X80028Y-22430D01*
X80284Y-22430D01*
X80341Y-22407D01*
X80385Y-22363D01*
X80408Y-22306D01*
X80408Y-22244D01*
X80408Y-22220D01*
X80419Y-22230D01*
X80419Y-22230D01*
X80479Y-22270D01*
X80550Y-22285D01*
X80591Y-22285D01*
X80591Y-22306D01*
X80614Y-22363D01*
X80658Y-22406D01*
X80715Y-22430D01*
X80776Y-22430D01*
X81032Y-22430D01*
X81089Y-22407D01*
X81133Y-22363D01*
X81156Y-22306D01*
X81156Y-22244D01*
X81156Y-22048D01*
X81137Y-21999D01*
X81156Y-21952D01*
X81156Y-21890D01*
X81156Y-21693D01*
X81133Y-21636D01*
X81109Y-21612D01*
X81113Y-21612D01*
X81281Y-21543D01*
X81311Y-21512D01*
X81311Y-23458D01*
X80568Y-23458D01*
X80568Y-22887D01*
X80482Y-22678D01*
X80322Y-22518D01*
X80113Y-22431D01*
X79887Y-22431D01*
X79678Y-22517D01*
X79518Y-22677D01*
X79431Y-22886D01*
X79431Y-23112D01*
X79517Y-23321D01*
X79677Y-23481D01*
X79886Y-23568D01*
X80112Y-23568D01*
X80321Y-23482D01*
X80481Y-23322D01*
X80568Y-23113D01*
X80568Y-22887D01*
X80568Y-23458D01*
X80564Y-23458D01*
X80507Y-23482D01*
X80463Y-23525D01*
X80440Y-23582D01*
X80439Y-23644D01*
X80439Y-24170D01*
X80401Y-24131D01*
X80278Y-24080D01*
X80146Y-24080D01*
X80024Y-24130D01*
X79931Y-24224D01*
X79880Y-24346D01*
X79880Y-24478D01*
X79930Y-24600D01*
X80024Y-24694D01*
X80146Y-24744D01*
X80278Y-24744D01*
X80400Y-24694D01*
X80494Y-24601D01*
X80512Y-24557D01*
X80564Y-24578D01*
X80625Y-24578D01*
X80765Y-24578D01*
X80765Y-25821D01*
X80564Y-25821D01*
X80512Y-25842D01*
X80494Y-25799D01*
X80401Y-25705D01*
X80278Y-25655D01*
X80146Y-25655D01*
X80024Y-25705D01*
X79931Y-25798D01*
X79880Y-25921D01*
X79880Y-26053D01*
X79930Y-26175D01*
X80024Y-26268D01*
X80146Y-26319D01*
X80278Y-26319D01*
X80400Y-26269D01*
X80439Y-26229D01*
X80439Y-26816D01*
X80463Y-26873D01*
X80507Y-26917D01*
X80564Y-26941D01*
X80625Y-26941D01*
X81311Y-26941D01*
X81311Y-27540D01*
X81292Y-27637D01*
X81247Y-27704D01*
X81180Y-27749D01*
X81084Y-27768D01*
X79034Y-27768D01*
X79034Y-27514D01*
X79034Y-26985D01*
X79034Y-26924D01*
X79010Y-26867D01*
X78967Y-26823D01*
X78910Y-26799D01*
X78757Y-26800D01*
X78719Y-26838D01*
X78719Y-27155D01*
X78995Y-27155D01*
X79034Y-27116D01*
X79034Y-26985D01*
X79034Y-27514D01*
X79034Y-27383D01*
X78995Y-27345D01*
X78719Y-27345D01*
X78719Y-27661D01*
X78757Y-27700D01*
X78910Y-27700D01*
X78967Y-27676D01*
X79010Y-27632D01*
X79034Y-27575D01*
X79034Y-27514D01*
X79034Y-27768D01*
X78149Y-27768D01*
X78078Y-27782D01*
X78019Y-27822D01*
X77979Y-27882D01*
X77965Y-27952D01*
X77965Y-28149D01*
X77965Y-33070D01*
X77965Y-33464D01*
X77979Y-33535D01*
X78019Y-33595D01*
X78078Y-33635D01*
X78149Y-33649D01*
X78346Y-33649D01*
X81084Y-33649D01*
X81180Y-33668D01*
X81247Y-33712D01*
X81292Y-33779D01*
X81311Y-33877D01*
X81311Y-34370D01*
X81232Y-34178D01*
X81072Y-34018D01*
X80863Y-33931D01*
X80637Y-33931D01*
X80428Y-34017D01*
X80268Y-34177D01*
X80181Y-34386D01*
X80181Y-34612D01*
X80267Y-34821D01*
X80427Y-34981D01*
X80636Y-35068D01*
X80862Y-35068D01*
X81071Y-34982D01*
X81231Y-34822D01*
X81311Y-34629D01*
X81311Y-35549D01*
X81281Y-35520D01*
X81114Y-35450D01*
X80933Y-35450D01*
X80766Y-35519D01*
X80638Y-35647D01*
X80568Y-35814D01*
X80568Y-35995D01*
X80637Y-36162D01*
X80765Y-36291D01*
X80932Y-36360D01*
X81113Y-36360D01*
X81281Y-36291D01*
X81311Y-36261D01*
X81311Y-36549D01*
X81281Y-36520D01*
X81114Y-36450D01*
X80933Y-36450D01*
X80766Y-36519D01*
X80638Y-36647D01*
X80568Y-36814D01*
X80568Y-36995D01*
X80637Y-37162D01*
X80765Y-37291D01*
X80932Y-37360D01*
X81113Y-37360D01*
X81281Y-37291D01*
X81311Y-37261D01*
X81311Y-37322D01*
X81311Y-37374D01*
X81311Y-37374D01*
G37*
G54D38*
X81311Y-37374D02*
X80487Y-37374D01*
X80487Y-36919D01*
X80487Y-35919D01*
X80457Y-35740D01*
X80446Y-35715D01*
X80383Y-35679D01*
X80249Y-35814D01*
X80249Y-35545D01*
X80213Y-35482D01*
X80037Y-35441D01*
X79950Y-35456D01*
X79950Y-34660D01*
X79881Y-34495D01*
X79755Y-34368D01*
X79589Y-34299D01*
X79410Y-34299D01*
X79245Y-34368D01*
X79118Y-34494D01*
X79049Y-34660D01*
X79049Y-34839D01*
X79118Y-35004D01*
X79244Y-35131D01*
X79410Y-35200D01*
X79589Y-35200D01*
X79754Y-35131D01*
X79881Y-35005D01*
X79950Y-34839D01*
X79950Y-34660D01*
X79950Y-35456D01*
X79858Y-35471D01*
X79833Y-35482D01*
X79797Y-35545D01*
X80023Y-35771D01*
X80249Y-35545D01*
X80249Y-35814D01*
X80157Y-35905D01*
X80383Y-36131D01*
X80446Y-36095D01*
X80487Y-35919D01*
X80487Y-36919D01*
X80457Y-36740D01*
X80446Y-36715D01*
X80383Y-36679D01*
X80249Y-36814D01*
X80249Y-36545D01*
X80249Y-36265D01*
X80023Y-36039D01*
X79889Y-36174D01*
X79889Y-35905D01*
X79663Y-35679D01*
X79600Y-35715D01*
X79559Y-35891D01*
X79589Y-36070D01*
X79600Y-36095D01*
X79663Y-36131D01*
X79889Y-35905D01*
X79889Y-36174D01*
X79797Y-36265D01*
X79833Y-36328D01*
X80009Y-36369D01*
X80188Y-36339D01*
X80213Y-36328D01*
X80249Y-36265D01*
X80249Y-36545D01*
X80213Y-36482D01*
X80037Y-36441D01*
X79858Y-36471D01*
X79833Y-36482D01*
X79797Y-36545D01*
X80023Y-36771D01*
X80249Y-36545D01*
X80249Y-36814D01*
X80157Y-36905D01*
X80383Y-37131D01*
X80446Y-37095D01*
X80487Y-36919D01*
X80487Y-37374D01*
X80249Y-37374D01*
X80249Y-37265D01*
X80023Y-37039D01*
X79889Y-37174D01*
X79889Y-36905D01*
X79663Y-36679D01*
X79600Y-36715D01*
X79559Y-36891D01*
X79589Y-37070D01*
X79600Y-37095D01*
X79663Y-37131D01*
X79889Y-36905D01*
X79889Y-37174D01*
X79797Y-37265D01*
X79833Y-37328D01*
X80009Y-37369D01*
X80188Y-37339D01*
X80213Y-37328D01*
X80249Y-37265D01*
X80249Y-37374D01*
X79487Y-37374D01*
X79487Y-35919D01*
X79457Y-35740D01*
X79446Y-35715D01*
X79383Y-35679D01*
X79249Y-35814D01*
X79249Y-35545D01*
X79213Y-35482D01*
X79037Y-35441D01*
X78950Y-35456D01*
X78950Y-34660D01*
X78881Y-34495D01*
X78755Y-34368D01*
X78589Y-34299D01*
X78410Y-34299D01*
X78245Y-34368D01*
X78118Y-34494D01*
X78049Y-34660D01*
X78049Y-34839D01*
X78118Y-35004D01*
X78244Y-35131D01*
X78315Y-35160D01*
X78315Y-35553D01*
X78281Y-35520D01*
X78114Y-35450D01*
X77933Y-35450D01*
X77766Y-35519D01*
X77638Y-35647D01*
X77568Y-35814D01*
X77568Y-35995D01*
X77620Y-36121D01*
X77559Y-36120D01*
X77478Y-36154D01*
X77478Y-35815D01*
X77409Y-35648D01*
X77281Y-35520D01*
X77114Y-35450D01*
X76933Y-35450D01*
X76766Y-35519D01*
X76638Y-35647D01*
X76568Y-35814D01*
X76568Y-35995D01*
X76637Y-36162D01*
X76765Y-36291D01*
X76932Y-36360D01*
X77113Y-36360D01*
X77281Y-36291D01*
X77409Y-36163D01*
X77478Y-35996D01*
X77478Y-35815D01*
X77478Y-36154D01*
X77458Y-36162D01*
X77381Y-36240D01*
X77339Y-36341D01*
X77338Y-36450D01*
X77380Y-36551D01*
X77458Y-36628D01*
X77559Y-36670D01*
X77628Y-36671D01*
X77568Y-36814D01*
X77568Y-36995D01*
X77637Y-37162D01*
X77765Y-37291D01*
X77932Y-37360D01*
X78113Y-37360D01*
X78281Y-37291D01*
X78409Y-37163D01*
X78478Y-36996D01*
X78478Y-36815D01*
X78409Y-36648D01*
X78360Y-36598D01*
X78378Y-36594D01*
X78438Y-36554D01*
X78630Y-36362D01*
X78630Y-36362D01*
X78670Y-36302D01*
X78684Y-36232D01*
X78685Y-36232D01*
X78685Y-36109D01*
X78889Y-35905D01*
X78685Y-35701D01*
X78685Y-35160D01*
X78754Y-35131D01*
X78881Y-35005D01*
X78950Y-34839D01*
X78950Y-34660D01*
X78950Y-35456D01*
X78858Y-35471D01*
X78833Y-35482D01*
X78797Y-35545D01*
X79023Y-35771D01*
X79249Y-35545D01*
X79249Y-35814D01*
X79157Y-35905D01*
X79383Y-36131D01*
X79446Y-36095D01*
X79487Y-35919D01*
X79487Y-37374D01*
X79478Y-37374D01*
X79478Y-36815D01*
X79409Y-36648D01*
X79281Y-36520D01*
X79249Y-36506D01*
X79249Y-36265D01*
X79023Y-36039D01*
X78797Y-36265D01*
X78833Y-36328D01*
X79009Y-36369D01*
X79188Y-36339D01*
X79213Y-36328D01*
X79249Y-36265D01*
X79249Y-36506D01*
X79114Y-36450D01*
X78933Y-36450D01*
X78766Y-36519D01*
X78638Y-36647D01*
X78568Y-36814D01*
X78568Y-36995D01*
X78637Y-37162D01*
X78765Y-37291D01*
X78932Y-37360D01*
X79113Y-37360D01*
X79281Y-37291D01*
X79409Y-37163D01*
X79478Y-36996D01*
X79478Y-36815D01*
X79478Y-37374D01*
X76708Y-37374D01*
X76754Y-37327D01*
X76769Y-37292D01*
X76932Y-37360D01*
X77113Y-37360D01*
X77281Y-37291D01*
X77409Y-37163D01*
X77478Y-36996D01*
X77478Y-36815D01*
X77409Y-36648D01*
X77281Y-36520D01*
X77114Y-36450D01*
X76933Y-36450D01*
X76766Y-36519D01*
X76676Y-36608D01*
X76652Y-36573D01*
X76652Y-36573D01*
X76326Y-36246D01*
X76409Y-36163D01*
X76478Y-35996D01*
X76478Y-35815D01*
X76409Y-35648D01*
X76281Y-35520D01*
X76114Y-35450D01*
X75933Y-35450D01*
X75766Y-35519D01*
X75638Y-35647D01*
X75568Y-35814D01*
X75568Y-35995D01*
X75626Y-36135D01*
X75420Y-36135D01*
X75478Y-35996D01*
X75478Y-35815D01*
X75409Y-35648D01*
X75281Y-35520D01*
X75114Y-35450D01*
X74933Y-35450D01*
X74766Y-35519D01*
X74764Y-35521D01*
X74741Y-35466D01*
X74730Y-35455D01*
X74758Y-35426D01*
X74800Y-35325D01*
X74801Y-35232D01*
X74821Y-35212D01*
X74821Y-34995D01*
X74583Y-34995D01*
X74581Y-34996D01*
X74580Y-34996D01*
X74471Y-34995D01*
X74377Y-35035D01*
X74377Y-34973D01*
X74338Y-34935D01*
X73845Y-34935D01*
X73845Y-34942D01*
X73655Y-34942D01*
X73655Y-34935D01*
X73161Y-34935D01*
X73128Y-34968D01*
X73107Y-34960D01*
X73001Y-34959D01*
X73001Y-34831D01*
X73001Y-34717D01*
X72962Y-34679D01*
X72745Y-34679D01*
X72745Y-34916D01*
X72783Y-34955D01*
X72815Y-34955D01*
X72877Y-34955D01*
X72934Y-34931D01*
X72977Y-34888D01*
X73001Y-34831D01*
X73001Y-34959D01*
X72998Y-34959D01*
X72897Y-35001D01*
X72820Y-35079D01*
X72778Y-35180D01*
X72777Y-35289D01*
X72819Y-35390D01*
X72895Y-35466D01*
X72766Y-35519D01*
X72638Y-35647D01*
X72568Y-35814D01*
X72568Y-35995D01*
X72631Y-36148D01*
X72555Y-36148D01*
X72555Y-34916D01*
X72555Y-34679D01*
X72337Y-34679D01*
X72298Y-34717D01*
X72298Y-34831D01*
X72322Y-34888D01*
X72365Y-34931D01*
X72422Y-34955D01*
X72484Y-34955D01*
X72516Y-34955D01*
X72555Y-34916D01*
X72555Y-36148D01*
X72415Y-36148D01*
X72478Y-35996D01*
X72478Y-35815D01*
X72409Y-35648D01*
X72281Y-35520D01*
X72180Y-35477D01*
X72180Y-35185D01*
X72180Y-34494D01*
X72156Y-34437D01*
X72113Y-34394D01*
X72056Y-34370D01*
X71994Y-34370D01*
X71883Y-34370D01*
X71845Y-34409D01*
X71845Y-34745D01*
X72141Y-34745D01*
X72180Y-34706D01*
X72180Y-34494D01*
X72180Y-35185D01*
X72180Y-34973D01*
X72141Y-34935D01*
X71845Y-34935D01*
X71845Y-35270D01*
X71883Y-35309D01*
X71994Y-35309D01*
X72056Y-35309D01*
X72113Y-35285D01*
X72156Y-35242D01*
X72180Y-35185D01*
X72180Y-35477D01*
X72114Y-35450D01*
X71933Y-35450D01*
X71766Y-35519D01*
X71655Y-35630D01*
X71655Y-35270D01*
X71655Y-34935D01*
X71655Y-34745D01*
X71655Y-34409D01*
X71616Y-34370D01*
X71505Y-34370D01*
X71443Y-34370D01*
X71386Y-34394D01*
X71343Y-34437D01*
X71319Y-34494D01*
X71319Y-34706D01*
X71358Y-34745D01*
X71655Y-34745D01*
X71655Y-34935D01*
X71358Y-34935D01*
X71319Y-34973D01*
X71319Y-35185D01*
X71343Y-35242D01*
X71386Y-35285D01*
X71443Y-35309D01*
X71505Y-35309D01*
X71616Y-35309D01*
X71655Y-35270D01*
X71655Y-35630D01*
X71638Y-35647D01*
X71568Y-35814D01*
X71568Y-35995D01*
X71631Y-36148D01*
X71487Y-36148D01*
X71400Y-36148D01*
X71383Y-36131D01*
X71446Y-36095D01*
X71487Y-35919D01*
X71457Y-35740D01*
X71446Y-35715D01*
X71383Y-35679D01*
X71249Y-35814D01*
X71249Y-35545D01*
X71213Y-35482D01*
X71127Y-35462D01*
X71127Y-35185D01*
X71127Y-34973D01*
X71088Y-34935D01*
X70595Y-34935D01*
X70595Y-35270D01*
X70633Y-35309D01*
X70941Y-35309D01*
X71002Y-35309D01*
X71059Y-35285D01*
X71103Y-35242D01*
X71127Y-35185D01*
X71127Y-35462D01*
X71037Y-35441D01*
X70858Y-35471D01*
X70833Y-35482D01*
X70797Y-35545D01*
X71023Y-35771D01*
X71249Y-35545D01*
X71249Y-35814D01*
X71157Y-35905D01*
X71163Y-35911D01*
X71029Y-36045D01*
X71023Y-36039D01*
X71018Y-36045D01*
X70883Y-35911D01*
X70889Y-35905D01*
X70663Y-35679D01*
X70647Y-35688D01*
X70645Y-35678D01*
X70605Y-35618D01*
X70605Y-35618D01*
X70328Y-35341D01*
X70281Y-35309D01*
X70366Y-35309D01*
X70405Y-35270D01*
X70405Y-34935D01*
X70397Y-34935D01*
X70397Y-34745D01*
X70405Y-34745D01*
X70405Y-34737D01*
X70595Y-34737D01*
X70595Y-34745D01*
X71088Y-34745D01*
X71127Y-34706D01*
X71127Y-34570D01*
X71151Y-34565D01*
X71228Y-34514D01*
X71612Y-34129D01*
X72056Y-34129D01*
X72113Y-34105D01*
X72156Y-34062D01*
X72180Y-34005D01*
X72180Y-33943D01*
X72180Y-33895D01*
X72296Y-33895D01*
X72298Y-33896D01*
X72298Y-34163D01*
X72322Y-34220D01*
X72351Y-34250D01*
X72322Y-34279D01*
X72298Y-34336D01*
X72298Y-34450D01*
X72337Y-34489D01*
X72555Y-34489D01*
X72555Y-34481D01*
X72745Y-34481D01*
X72745Y-34489D01*
X72962Y-34489D01*
X73001Y-34450D01*
X73001Y-34336D01*
X72977Y-34279D01*
X72948Y-34249D01*
X72977Y-34220D01*
X72990Y-34189D01*
X73021Y-34234D01*
X73167Y-34380D01*
X73167Y-34380D01*
X73188Y-34395D01*
X73146Y-34437D01*
X73122Y-34494D01*
X73123Y-34706D01*
X73161Y-34745D01*
X73655Y-34745D01*
X73655Y-34737D01*
X73845Y-34737D01*
X73845Y-34745D01*
X74338Y-34745D01*
X74377Y-34706D01*
X74377Y-34494D01*
X74353Y-34437D01*
X74350Y-34435D01*
X74418Y-34435D01*
X74524Y-34540D01*
X74524Y-34540D01*
X74584Y-34580D01*
X74599Y-34584D01*
X74568Y-34615D01*
X74544Y-34672D01*
X74544Y-34734D01*
X74544Y-34766D01*
X74583Y-34805D01*
X74821Y-34805D01*
X74821Y-34797D01*
X75011Y-34797D01*
X75011Y-34805D01*
X75018Y-34805D01*
X75018Y-34995D01*
X75011Y-34995D01*
X75011Y-35212D01*
X75049Y-35251D01*
X75163Y-35251D01*
X75220Y-35227D01*
X75250Y-35198D01*
X75279Y-35227D01*
X75336Y-35251D01*
X75398Y-35251D01*
X75831Y-35251D01*
X75888Y-35227D01*
X75931Y-35184D01*
X75955Y-35127D01*
X75955Y-35085D01*
X76100Y-35085D01*
X76219Y-35085D01*
X76239Y-35132D01*
X76282Y-35176D01*
X76339Y-35199D01*
X76401Y-35200D01*
X76912Y-35200D01*
X76969Y-35176D01*
X77000Y-35145D01*
X77030Y-35176D01*
X77087Y-35199D01*
X77149Y-35200D01*
X77660Y-35200D01*
X77717Y-35176D01*
X77760Y-35132D01*
X77784Y-35075D01*
X77784Y-35014D01*
X77784Y-34577D01*
X77830Y-34530D01*
X77830Y-34530D01*
X77870Y-34470D01*
X77884Y-34400D01*
X77885Y-34400D01*
X77885Y-32385D01*
X77884Y-32385D01*
X77870Y-32314D01*
X77870Y-32314D01*
X77857Y-32294D01*
X77830Y-32254D01*
X77830Y-32254D01*
X77822Y-32246D01*
X77851Y-32176D01*
X77851Y-31997D01*
X77783Y-31831D01*
X77656Y-31705D01*
X77491Y-31636D01*
X77312Y-31636D01*
X77146Y-31704D01*
X77020Y-31831D01*
X76951Y-31996D01*
X76951Y-32175D01*
X77019Y-32341D01*
X77146Y-32468D01*
X77311Y-32536D01*
X77490Y-32536D01*
X77515Y-32526D01*
X77515Y-33139D01*
X77495Y-33040D01*
X77389Y-32882D01*
X77230Y-32775D01*
X77042Y-32738D01*
X76421Y-32738D01*
X76346Y-32753D01*
X76515Y-32583D01*
X76558Y-32520D01*
X76558Y-32520D01*
X76562Y-32497D01*
X76632Y-32468D01*
X76759Y-32342D01*
X76828Y-32176D01*
X76828Y-31997D01*
X76759Y-31831D01*
X76633Y-31705D01*
X76467Y-31636D01*
X76288Y-31636D01*
X76123Y-31704D01*
X76085Y-31742D01*
X76085Y-31446D01*
X76122Y-31483D01*
X76287Y-31552D01*
X76467Y-31552D01*
X76632Y-31484D01*
X76759Y-31357D01*
X76828Y-31192D01*
X76828Y-31013D01*
X76803Y-30953D01*
X76829Y-30970D01*
X76900Y-30985D01*
X76962Y-30985D01*
X76951Y-31012D01*
X76951Y-31191D01*
X77019Y-31357D01*
X77146Y-31483D01*
X77311Y-31552D01*
X77490Y-31552D01*
X77656Y-31484D01*
X77783Y-31357D01*
X77851Y-31192D01*
X77851Y-31013D01*
X77783Y-30847D01*
X77656Y-30720D01*
X77627Y-30708D01*
X77656Y-30696D01*
X77783Y-30570D01*
X77851Y-30404D01*
X77851Y-30225D01*
X77783Y-30060D01*
X77656Y-29933D01*
X77491Y-29864D01*
X77312Y-29864D01*
X77146Y-29933D01*
X77135Y-29944D01*
X77135Y-29900D01*
X77120Y-29829D01*
X77080Y-29769D01*
X77080Y-29769D01*
X76930Y-29619D01*
X76870Y-29579D01*
X76800Y-29565D01*
X76768Y-29565D01*
X76828Y-29420D01*
X76828Y-29241D01*
X76759Y-29075D01*
X76679Y-28995D01*
X76790Y-28995D01*
X76976Y-29181D01*
X76951Y-29240D01*
X76951Y-29419D01*
X77019Y-29585D01*
X77146Y-29712D01*
X77311Y-29780D01*
X77490Y-29781D01*
X77656Y-29712D01*
X77783Y-29586D01*
X77851Y-29420D01*
X77851Y-29241D01*
X77783Y-29075D01*
X77656Y-28949D01*
X77491Y-28880D01*
X77312Y-28880D01*
X77251Y-28905D01*
X77025Y-28678D01*
X77042Y-28678D01*
X77230Y-28641D01*
X77389Y-28535D01*
X77495Y-28376D01*
X77532Y-28188D01*
X77495Y-28001D01*
X77389Y-27842D01*
X77230Y-27736D01*
X77042Y-27699D01*
X76927Y-27699D01*
X76927Y-27648D01*
X77130Y-27445D01*
X77465Y-27445D01*
X77465Y-27575D01*
X77489Y-27632D01*
X77532Y-27676D01*
X77589Y-27699D01*
X77651Y-27700D01*
X78162Y-27700D01*
X78219Y-27676D01*
X78250Y-27645D01*
X78280Y-27676D01*
X78337Y-27700D01*
X78490Y-27700D01*
X78529Y-27661D01*
X78529Y-27345D01*
X78521Y-27345D01*
X78521Y-27155D01*
X78529Y-27155D01*
X78529Y-26838D01*
X78490Y-26800D01*
X78337Y-26799D01*
X78280Y-26823D01*
X78249Y-26854D01*
X78219Y-26823D01*
X78162Y-26800D01*
X78100Y-26799D01*
X77589Y-26799D01*
X77532Y-26823D01*
X77489Y-26867D01*
X77465Y-26924D01*
X77465Y-26985D01*
X77465Y-27055D01*
X77122Y-27055D01*
X77122Y-24529D01*
X77360Y-24290D01*
X77690Y-23960D01*
X77690Y-23960D01*
X77706Y-23936D01*
X77730Y-23900D01*
X77730Y-23900D01*
X77744Y-23830D01*
X77745Y-23830D01*
X77745Y-22070D01*
X77730Y-21999D01*
X77690Y-21939D01*
X77690Y-21939D01*
X77676Y-21925D01*
X77930Y-21925D01*
X78122Y-21925D01*
X78122Y-22294D01*
X78146Y-22351D01*
X78189Y-22395D01*
X78246Y-22418D01*
X78308Y-22418D01*
X78465Y-22418D01*
X78522Y-22395D01*
X78553Y-22364D01*
X78583Y-22395D01*
X78640Y-22418D01*
X78701Y-22418D01*
X78671Y-22418D01*
X78710Y-22380D01*
X78710Y-22161D01*
X78671Y-22161D01*
X78671Y-21971D01*
X78710Y-21971D01*
X78710Y-21964D01*
X78765Y-21964D01*
X78765Y-22530D01*
X78779Y-22600D01*
X78819Y-22660D01*
X78958Y-22800D01*
X78958Y-22820D01*
X78946Y-22831D01*
X78916Y-22801D01*
X78859Y-22778D01*
X78798Y-22778D01*
X78640Y-22778D01*
X78583Y-22801D01*
X78553Y-22831D01*
X78522Y-22801D01*
X78466Y-22778D01*
X78404Y-22778D01*
X78246Y-22778D01*
X78189Y-22801D01*
X78146Y-22845D01*
X78122Y-22902D01*
X78122Y-22963D01*
X78122Y-23357D01*
X78146Y-23414D01*
X78189Y-23458D01*
X78246Y-23481D01*
X78308Y-23481D01*
X78465Y-23481D01*
X78515Y-23461D01*
X78515Y-23573D01*
X78477Y-23665D01*
X78476Y-23774D01*
X78515Y-23866D01*
X78515Y-24392D01*
X78302Y-24604D01*
X78206Y-24644D01*
X78129Y-24722D01*
X78087Y-24823D01*
X78086Y-24932D01*
X78128Y-25033D01*
X78206Y-25110D01*
X78307Y-25152D01*
X78416Y-25153D01*
X78517Y-25111D01*
X78594Y-25033D01*
X78635Y-24937D01*
X78916Y-24656D01*
X78916Y-24656D01*
X78967Y-24579D01*
X78984Y-24490D01*
X78985Y-24490D01*
X78985Y-23875D01*
X79026Y-23774D01*
X79027Y-23665D01*
X78985Y-23564D01*
X78985Y-23564D01*
X78985Y-23461D01*
X79033Y-23481D01*
X79095Y-23481D01*
X79253Y-23481D01*
X79310Y-23458D01*
X79353Y-23414D01*
X79377Y-23357D01*
X79377Y-23296D01*
X79377Y-22902D01*
X79353Y-22845D01*
X79328Y-22820D01*
X79328Y-22782D01*
X79749Y-22362D01*
X79866Y-22362D01*
X79866Y-22363D01*
X79910Y-22406D01*
X79967Y-22430D01*
X80028Y-22430D01*
X80284Y-22430D01*
X80341Y-22407D01*
X80385Y-22363D01*
X80408Y-22306D01*
X80408Y-22244D01*
X80408Y-22220D01*
X80419Y-22230D01*
X80419Y-22230D01*
X80479Y-22270D01*
X80550Y-22285D01*
X80591Y-22285D01*
X80591Y-22306D01*
X80614Y-22363D01*
X80658Y-22406D01*
X80715Y-22430D01*
X80776Y-22430D01*
X81032Y-22430D01*
X81089Y-22407D01*
X81133Y-22363D01*
X81156Y-22306D01*
X81156Y-22244D01*
X81156Y-22048D01*
X81137Y-21999D01*
X81156Y-21952D01*
X81156Y-21890D01*
X81156Y-21693D01*
X81133Y-21636D01*
X81109Y-21612D01*
X81113Y-21612D01*
X81281Y-21543D01*
X81311Y-21512D01*
X81311Y-23458D01*
X80568Y-23458D01*
X80568Y-22887D01*
X80482Y-22678D01*
X80322Y-22518D01*
X80113Y-22431D01*
X79887Y-22431D01*
X79678Y-22517D01*
X79518Y-22677D01*
X79431Y-22886D01*
X79431Y-23112D01*
X79517Y-23321D01*
X79677Y-23481D01*
X79886Y-23568D01*
X80112Y-23568D01*
X80321Y-23482D01*
X80481Y-23322D01*
X80568Y-23113D01*
X80568Y-22887D01*
X80568Y-23458D01*
X80564Y-23458D01*
X80507Y-23482D01*
X80463Y-23525D01*
X80440Y-23582D01*
X80439Y-23644D01*
X80439Y-24170D01*
X80401Y-24131D01*
X80278Y-24080D01*
X80146Y-24080D01*
X80024Y-24130D01*
X79931Y-24224D01*
X79880Y-24346D01*
X79880Y-24478D01*
X79930Y-24600D01*
X80024Y-24694D01*
X80146Y-24744D01*
X80278Y-24744D01*
X80400Y-24694D01*
X80494Y-24601D01*
X80512Y-24557D01*
X80564Y-24578D01*
X80625Y-24578D01*
X80765Y-24578D01*
X80765Y-25821D01*
X80564Y-25821D01*
X80512Y-25842D01*
X80494Y-25799D01*
X80401Y-25705D01*
X80278Y-25655D01*
X80146Y-25655D01*
X80024Y-25705D01*
X79931Y-25798D01*
X79880Y-25921D01*
X79880Y-26053D01*
X79930Y-26175D01*
X80024Y-26268D01*
X80146Y-26319D01*
X80278Y-26319D01*
X80400Y-26269D01*
X80439Y-26229D01*
X80439Y-26816D01*
X80463Y-26873D01*
X80507Y-26917D01*
X80564Y-26941D01*
X80625Y-26941D01*
X81311Y-26941D01*
X81311Y-27540D01*
X81292Y-27637D01*
X81247Y-27704D01*
X81180Y-27749D01*
X81084Y-27768D01*
X79034Y-27768D01*
X79034Y-27514D01*
X79034Y-26985D01*
X79034Y-26924D01*
X79010Y-26867D01*
X78967Y-26823D01*
X78910Y-26799D01*
X78757Y-26800D01*
X78719Y-26838D01*
X78719Y-27155D01*
X78995Y-27155D01*
X79034Y-27116D01*
X79034Y-26985D01*
X79034Y-27514D01*
X79034Y-27383D01*
X78995Y-27345D01*
X78719Y-27345D01*
X78719Y-27661D01*
X78757Y-27700D01*
X78910Y-27700D01*
X78967Y-27676D01*
X79010Y-27632D01*
X79034Y-27575D01*
X79034Y-27514D01*
X79034Y-27768D01*
X78149Y-27768D01*
X78078Y-27782D01*
X78019Y-27822D01*
X77979Y-27882D01*
X77965Y-27952D01*
X77965Y-28149D01*
X77965Y-33070D01*
X77965Y-33464D01*
X77979Y-33535D01*
X78019Y-33595D01*
X78078Y-33635D01*
X78149Y-33649D01*
X78346Y-33649D01*
X81084Y-33649D01*
X81180Y-33668D01*
X81247Y-33712D01*
X81292Y-33779D01*
X81311Y-33877D01*
X81311Y-34370D01*
X81232Y-34178D01*
X81072Y-34018D01*
X80863Y-33931D01*
X80637Y-33931D01*
X80428Y-34017D01*
X80268Y-34177D01*
X80181Y-34386D01*
X80181Y-34612D01*
X80267Y-34821D01*
X80427Y-34981D01*
X80636Y-35068D01*
X80862Y-35068D01*
X81071Y-34982D01*
X81231Y-34822D01*
X81311Y-34629D01*
X81311Y-35549D01*
X81281Y-35520D01*
X81114Y-35450D01*
X80933Y-35450D01*
X80766Y-35519D01*
X80638Y-35647D01*
X80568Y-35814D01*
X80568Y-35995D01*
X80637Y-36162D01*
X80765Y-36291D01*
X80932Y-36360D01*
X81113Y-36360D01*
X81281Y-36291D01*
X81311Y-36261D01*
X81311Y-36549D01*
X81281Y-36520D01*
X81114Y-36450D01*
X80933Y-36450D01*
X80766Y-36519D01*
X80638Y-36647D01*
X80568Y-36814D01*
X80568Y-36995D01*
X80637Y-37162D01*
X80765Y-37291D01*
X80932Y-37360D01*
X81113Y-37360D01*
X81281Y-37291D01*
X81311Y-37261D01*
X81311Y-37322D01*
X81311Y-37374D01*
M02*
