G04 (created by PCBNEW (2013-03-19 BZR 4004)-stable) date 2014/11/27 13:38:41*
%MOIN*%
G04 Gerber Fmt 3.4, Leading zero omitted, Abs format*
%FSLAX34Y34*%
G01*
G70*
G90*
G04 APERTURE LIST*
%ADD10C,0*%
%ADD11C,0.00590551*%
G04 APERTURE END LIST*
G54D10*
G54D11*
X62539Y-37559D02*
X62618Y-37559D01*
X62500Y-37559D02*
X62500Y-37500D01*
X62578Y-37559D02*
X62500Y-37559D01*
X62500Y-19586D02*
X62500Y-19527D01*
X62598Y-19527D02*
X62519Y-19527D01*
X62500Y-37500D02*
X62500Y-19586D01*
X81496Y-37559D02*
X81496Y-37322D01*
X62598Y-37559D02*
X81496Y-37559D01*
X81496Y-19527D02*
X81496Y-19685D01*
X62598Y-19527D02*
X81496Y-19527D01*
X81496Y-33858D02*
X81496Y-37401D01*
X81496Y-27559D02*
X81496Y-19685D01*
X81102Y-27952D02*
G75*
G03X81496Y-27559I0J393D01*
G74*
G01*
X78149Y-27952D02*
X81102Y-27952D01*
X78149Y-28149D02*
X78149Y-27952D01*
X78149Y-33070D02*
X78149Y-28149D01*
X78149Y-33464D02*
X78149Y-33070D01*
X78346Y-33464D02*
X78149Y-33464D01*
X81102Y-33464D02*
X78346Y-33464D01*
X81496Y-33858D02*
G75*
G03X81102Y-33464I-393J0D01*
G74*
G01*
M02*
