G04 (created by PCBNEW (2013-03-19 BZR 4004)-stable) date 2014/11/27 13:38:41*
%MOIN*%
G04 Gerber Fmt 3.4, Leading zero omitted, Abs format*
%FSLAX34Y34*%
G01*
G70*
G90*
G04 APERTURE LIST*
%ADD10C,0*%
%ADD11R,0.275591X0.11811*%
%ADD12R,0.0629X0.0708*%
%ADD13R,0.0629921X0.023622*%
%ADD14R,0.0905512X0.129921*%
%ADD15R,0.0433X0.0393*%
%ADD16R,0.0393X0.0433*%
%ADD17R,0.1102X0.0944*%
%ADD18R,0.0511X0.059*%
%ADD19R,0.059X0.0511*%
%ADD20C,0.06*%
%ADD21C,0.0593*%
%ADD22C,0.0826772*%
%ADD23R,0.0472X0.0472*%
%ADD24R,0.0669291X0.0669291*%
%ADD25C,0.0590551*%
%ADD26C,0.074*%
%ADD27C,0.0177*%
%ADD28C,0.0393*%
%ADD29O,0.125984X0.0669291*%
%ADD30R,0.0787402X0.016*%
%ADD31R,0.081X0.081*%
%ADD32C,0.0354331*%
%ADD33R,0.035X0.031*%
%ADD34R,0.031X0.035*%
%ADD35C,0.0708661*%
G04 APERTURE END LIST*
G54D10*
G54D11*
X74393Y-24734D03*
X74393Y-22765D03*
G54D12*
X71801Y-22750D03*
X70699Y-22750D03*
X73699Y-26250D03*
X74801Y-26250D03*
G54D13*
X71900Y-26800D03*
X71900Y-26300D03*
X71900Y-25800D03*
X71900Y-25300D03*
X69600Y-25300D03*
X69600Y-25800D03*
X69600Y-26300D03*
X69600Y-26800D03*
G54D14*
X70750Y-26050D03*
G54D15*
X68000Y-24334D03*
X68000Y-23666D03*
G54D16*
X68676Y-26250D03*
X68008Y-26250D03*
G54D15*
X67250Y-23666D03*
X67250Y-24334D03*
X68750Y-23666D03*
X68750Y-24334D03*
X71584Y-27550D03*
X70916Y-27550D03*
X67946Y-25500D03*
X68614Y-25500D03*
X67916Y-27000D03*
X68584Y-27000D03*
G54D17*
X77250Y-26990D03*
X77250Y-24510D03*
G54D18*
X80374Y-27500D03*
X79626Y-27500D03*
G54D19*
X78750Y-26874D03*
X78750Y-26126D03*
G54D20*
X81023Y-35905D03*
X81023Y-36905D03*
X80023Y-35905D03*
X80023Y-36905D03*
X79023Y-35905D03*
X79023Y-36905D03*
X78023Y-35905D03*
X78023Y-36905D03*
X77023Y-35905D03*
X77023Y-36905D03*
X76023Y-35905D03*
X76023Y-36905D03*
X75023Y-35905D03*
X75023Y-36905D03*
X74023Y-35905D03*
X74023Y-36905D03*
X73023Y-35905D03*
X73023Y-36905D03*
X72023Y-35905D03*
X72023Y-36905D03*
X71023Y-35905D03*
X71023Y-36905D03*
X70023Y-35905D03*
X70023Y-36905D03*
G54D21*
X69023Y-35905D03*
X69023Y-36905D03*
G54D20*
X81023Y-20157D03*
X81023Y-21157D03*
X80023Y-20157D03*
X80023Y-21157D03*
X79023Y-20157D03*
X79023Y-21157D03*
X78023Y-20157D03*
X78023Y-21157D03*
X77023Y-20157D03*
X77023Y-21157D03*
X76023Y-20157D03*
X76023Y-21157D03*
X75023Y-20157D03*
X75023Y-21157D03*
X74023Y-20157D03*
X74023Y-21157D03*
X73023Y-20157D03*
X73023Y-21157D03*
X72023Y-20157D03*
X72023Y-21157D03*
X71023Y-20157D03*
X71023Y-21157D03*
X70023Y-20157D03*
X70023Y-21157D03*
G54D21*
X69023Y-20157D03*
X69023Y-21157D03*
G54D16*
X74684Y-34550D03*
X74016Y-34550D03*
X78750Y-24834D03*
X78750Y-24166D03*
G54D15*
X66116Y-32450D03*
X66784Y-32450D03*
X66116Y-31780D03*
X66784Y-31780D03*
X68384Y-34550D03*
X67716Y-34550D03*
G54D16*
X66784Y-31040D03*
X66116Y-31040D03*
X74684Y-32300D03*
X74016Y-32300D03*
G54D10*
G36*
X72121Y-29277D02*
X72427Y-28971D01*
X72705Y-29249D01*
X72399Y-29555D01*
X72121Y-29277D01*
X72121Y-29277D01*
G37*
G36*
X72594Y-29750D02*
X72900Y-29444D01*
X73178Y-29722D01*
X72872Y-30028D01*
X72594Y-29750D01*
X72594Y-29750D01*
G37*
G36*
X75272Y-29671D02*
X75578Y-29977D01*
X75300Y-30255D01*
X74994Y-29949D01*
X75272Y-29671D01*
X75272Y-29671D01*
G37*
G36*
X74799Y-30144D02*
X75105Y-30450D01*
X74827Y-30728D01*
X74521Y-30422D01*
X74799Y-30144D01*
X74799Y-30144D01*
G37*
G36*
X73671Y-27649D02*
X73949Y-27371D01*
X74255Y-27677D01*
X73977Y-27955D01*
X73671Y-27649D01*
X73671Y-27649D01*
G37*
G36*
X74144Y-28122D02*
X74422Y-27844D01*
X74728Y-28150D01*
X74450Y-28428D01*
X74144Y-28122D01*
X74144Y-28122D01*
G37*
G54D15*
X74684Y-33050D03*
X74016Y-33050D03*
G54D22*
X80708Y-34251D03*
X80000Y-23000D03*
G54D12*
X68554Y-22750D03*
X69656Y-22750D03*
G54D16*
X78166Y-23250D03*
X78834Y-23250D03*
G54D23*
X78012Y-22275D03*
X78838Y-22275D03*
G54D24*
X70291Y-24100D03*
X71944Y-24100D03*
G54D25*
X68000Y-36900D03*
X68000Y-35900D03*
G54D26*
X76550Y-22250D03*
X76550Y-23250D03*
G54D25*
X79500Y-34750D03*
X78500Y-34750D03*
G54D27*
X70883Y-34459D02*
X70619Y-34195D01*
X71106Y-34236D02*
X70841Y-33972D01*
X71329Y-34014D02*
X71064Y-33749D01*
X71551Y-33791D02*
X71287Y-33526D01*
X71774Y-33568D02*
X71510Y-33304D01*
X71996Y-33346D02*
X71732Y-33082D01*
X72218Y-33124D02*
X71954Y-32860D01*
X72441Y-32901D02*
X72176Y-32637D01*
X72664Y-32679D02*
X72399Y-32414D01*
X72886Y-32456D02*
X72622Y-32191D01*
X73109Y-32233D02*
X72845Y-31969D01*
X72845Y-31230D02*
X73109Y-30966D01*
X72622Y-31008D02*
X72886Y-30743D01*
X72399Y-30785D02*
X72664Y-30520D01*
X72176Y-30562D02*
X72441Y-30298D01*
X71954Y-30339D02*
X72218Y-30075D01*
X71732Y-30117D02*
X71996Y-29853D01*
X71510Y-29895D02*
X71774Y-29631D01*
X71287Y-29673D02*
X71551Y-29408D01*
X71064Y-29450D02*
X71329Y-29185D01*
X70841Y-29227D02*
X71106Y-28963D01*
X70619Y-29004D02*
X70883Y-28740D01*
X69880Y-29004D02*
X69616Y-28740D01*
X69658Y-29227D02*
X69393Y-28963D01*
X69435Y-29450D02*
X69170Y-29185D01*
X69212Y-29673D02*
X68948Y-29408D01*
X68989Y-29895D02*
X68725Y-29631D01*
X68767Y-30117D02*
X68503Y-29853D01*
X68545Y-30339D02*
X68281Y-30075D01*
X68323Y-30562D02*
X68058Y-30298D01*
X68100Y-30785D02*
X67835Y-30520D01*
X67877Y-31008D02*
X67613Y-30743D01*
X67654Y-31230D02*
X67390Y-30966D01*
X67390Y-32233D02*
X67654Y-31969D01*
X67613Y-32456D02*
X67877Y-32191D01*
X67835Y-32679D02*
X68100Y-32414D01*
X68058Y-32901D02*
X68323Y-32637D01*
X68281Y-33124D02*
X68545Y-32860D01*
X68503Y-33346D02*
X68767Y-33082D01*
X68725Y-33568D02*
X68989Y-33304D01*
X68948Y-33791D02*
X69212Y-33526D01*
X69170Y-34014D02*
X69435Y-33749D01*
X69393Y-34236D02*
X69658Y-33972D01*
X69616Y-34459D02*
X69880Y-34195D01*
G54D28*
X70250Y-31600D03*
G54D10*
G36*
X74928Y-29572D02*
X74427Y-29071D01*
X74817Y-28681D01*
X75318Y-29182D01*
X74928Y-29572D01*
X74928Y-29572D01*
G37*
G36*
X73982Y-30518D02*
X73481Y-30017D01*
X73871Y-29627D01*
X74372Y-30128D01*
X73982Y-30518D01*
X73982Y-30518D01*
G37*
G36*
X72914Y-28935D02*
X72552Y-28573D01*
X72872Y-28253D01*
X73234Y-28615D01*
X72914Y-28935D01*
X72914Y-28935D01*
G37*
G36*
X73526Y-29547D02*
X73164Y-29185D01*
X73484Y-28865D01*
X73846Y-29227D01*
X73526Y-29547D01*
X73526Y-29547D01*
G37*
G36*
X74027Y-29046D02*
X73665Y-28684D01*
X73985Y-28364D01*
X74347Y-28726D01*
X74027Y-29046D01*
X74027Y-29046D01*
G37*
G36*
X73415Y-28434D02*
X73053Y-28072D01*
X73373Y-27752D01*
X73735Y-28114D01*
X73415Y-28434D01*
X73415Y-28434D01*
G37*
G36*
X72850Y-27271D02*
X73128Y-27549D01*
X72822Y-27855D01*
X72544Y-27577D01*
X72850Y-27271D01*
X72850Y-27271D01*
G37*
G36*
X72377Y-27744D02*
X72655Y-28022D01*
X72349Y-28328D01*
X72071Y-28050D01*
X72377Y-27744D01*
X72377Y-27744D01*
G37*
G54D15*
X74016Y-31550D03*
X74684Y-31550D03*
G54D16*
X74016Y-33800D03*
X74684Y-33800D03*
G54D25*
X77401Y-31102D03*
X77401Y-30314D03*
X76377Y-31102D03*
X76377Y-30314D03*
X76377Y-32086D03*
X77401Y-32086D03*
X76377Y-29330D03*
X77401Y-29330D03*
G54D29*
X76732Y-33228D03*
X76732Y-28188D03*
G54D30*
X79940Y-25720D03*
X79940Y-25460D03*
X79940Y-25200D03*
X79940Y-24940D03*
X79940Y-24680D03*
G54D31*
X81000Y-26381D03*
X81000Y-24018D03*
G54D32*
X80212Y-25987D03*
X80212Y-24412D03*
G54D15*
X77250Y-34834D03*
X77250Y-34166D03*
G54D16*
X67484Y-28750D03*
X66816Y-28750D03*
G54D15*
X67050Y-27316D03*
X67050Y-27984D03*
G54D16*
X66484Y-35550D03*
X65816Y-35550D03*
G54D33*
X67850Y-28060D03*
X68650Y-27680D03*
X68650Y-28440D03*
G54D34*
X66160Y-37050D03*
X65780Y-36250D03*
X66540Y-36250D03*
G54D33*
X75650Y-34510D03*
X76450Y-34130D03*
X76450Y-34890D03*
G54D35*
X64100Y-33050D03*
X63100Y-33050D03*
G54D26*
X63100Y-22050D03*
X64100Y-22050D03*
X63100Y-23050D03*
X64100Y-23050D03*
X63100Y-24050D03*
X64100Y-24050D03*
X63100Y-25050D03*
X64100Y-25050D03*
X63100Y-26050D03*
X64100Y-26050D03*
X63100Y-27050D03*
X64100Y-27050D03*
X63100Y-28050D03*
X64100Y-28050D03*
X63100Y-29050D03*
X64100Y-29050D03*
X63100Y-30050D03*
X64100Y-30050D03*
G54D35*
X63100Y-31050D03*
X64100Y-31050D03*
X63100Y-32050D03*
X64100Y-32050D03*
G54D26*
X63100Y-34050D03*
G54D35*
X64100Y-34050D03*
X64100Y-35050D03*
G54D26*
X63100Y-35050D03*
X63100Y-36050D03*
G54D35*
X64100Y-36050D03*
G54D26*
X64100Y-21050D03*
X63100Y-21050D03*
X64098Y-20030D03*
X63098Y-20030D03*
X64106Y-37058D03*
X63106Y-37058D03*
M02*
