M48
METRIC,TZ
T1C0.305
T2C0.320
T3C0.508
T4C0.800
T5C0.813
T6C0.900
T7C0.998
T8C0.998
T9C1.400
T10C1.598
T11C3.200
%
G90
G05
T1
X170.688Y-61.722
X171.196Y-71.374
X171.704Y-58.166
X171.831Y-72.644
X174.879Y-71.374
X174.879Y-72.644
X175.641Y-68.834
X177.419Y-61.976
X177.419Y-62.865
X178.054Y-61.087
X179.705Y-82.423
X180.086Y-67.818
X180.848Y-82.423
X180.975Y-66.294
X182.245Y-61.468
X182.245Y-64.262
X182.372Y-65.913
X182.372Y-66.802
X183.134Y-70.231
X183.388Y-57.277
X184.658Y-66.04
X185.293Y-57.658
X186.309Y-61.468
X186.309Y-63.5
X186.436Y-65.151
X186.944Y-70.231
X189.357Y-67.183
X189.611Y-61.595
X190.373Y-62.23
X191.135Y-62.738
X191.262Y-65.024
X191.389Y-63.754
X196.85Y-89.408
X199.771Y-58.801
X200.914Y-78.74
X201.93Y-77.47
X203.581Y-58.801
X203.581Y-59.817
X205.105Y-79.121
X207.518Y-79.756
X215.773Y-65.151
X216.535Y-51.689
X225.044Y-64.262
X227.711Y-83.883
X230.591Y-84.899
X231.14Y-86.995
X236.093Y-77.597
T2
X228.6Y-60.579
X229.616Y-60.579
X231.14Y-81.724
X237.744Y-57.277
T3
X171.323Y-51.562
X171.323Y-52.578
X171.323Y-53.594
X171.323Y-54.61
X171.323Y-55.626
X171.323Y-56.642
X171.323Y-89.789
X171.323Y-90.805
X171.323Y-91.821
X171.323Y-92.837
X171.323Y-93.853
X172.339Y-51.562
X172.466Y-90.805
X172.466Y-91.821
X172.466Y-92.837
X172.466Y-93.853
X173.609Y-90.805
X173.609Y-91.821
X173.609Y-92.837
X173.609Y-93.853
X181.356Y-58.039
X186.944Y-58.674
X189.484Y-71.12
X189.484Y-72.009
X190.373Y-72.009
X196.342Y-66.675
X197.104Y-81.407
X198.501Y-70.993
X200.914Y-63.373
X201.Y-65.405
X202.184Y-65.278
X202.692Y-86.487
X202.882Y-68.453
X203.124Y-63.348
X204.089Y-85.725
X204.279Y-68.453
X204.343Y-66.294
X204.978Y-86.614
X205.156Y-75.159
X205.435Y-63.449
X205.486Y-68.453
X207.137Y-89.662
X207.264Y-73.279
X207.366Y-74.955
X207.391Y-68.453
X207.772Y-75.819
X208.47Y-68.453
X209.067Y-72.248
X209.169Y-62.611
X209.169Y-77.216
X209.423Y-65.024
X209.677Y-68.453
X210.058Y-73.914
X210.058Y-77.216
X210.947Y-68.453
X210.947Y-77.216
X214.325Y-74.879
X214.427Y-72.72
X214.452Y-71.78
X215.519Y-67.31
X215.519Y-68.453
X215.773Y-71.755
X216.154Y-77.851
X216.154Y-78.867
X216.154Y-79.883
X216.154Y-80.899
X216.154Y-81.788
X216.599Y-66.294
X216.599Y-67.31
X216.599Y-68.453
X216.84Y-71.399
X217.043Y-75.692
X217.068Y-74.752
X217.17Y-77.851
X217.17Y-78.867
X217.17Y-79.883
X217.17Y-80.899
X217.17Y-81.915
X217.678Y-56.388
X217.742Y-66.294
X217.742Y-67.31
X217.742Y-68.453
X218.821Y-66.294
X218.821Y-67.31
X218.821Y-68.453
X219.456Y-77.851
X219.9Y-66.294
X219.9Y-67.31
X219.9Y-68.453
X220.472Y-77.851
X221.107Y-63.119
X221.259Y-71.577
X221.285Y-72.72
X221.488Y-77.851
X222.504Y-77.851
X222.631Y-73.914
X223.52Y-77.851
X224.028Y-63.119
X224.028Y-67.437
X224.028Y-68.453
X224.231Y-73.508
X224.917Y-66.484
X224.917Y-67.437
X224.917Y-68.453
X226.949Y-64.262
X226.949Y-65.278
X229.108Y-73.533
X230.314Y-66.548
X230.378Y-59.69
X231.14Y-66.548
X231.14Y-72.517
X231.14Y-73.787
X232.537Y-71.247
X232.537Y-72.517
X232.537Y-73.787
X233.934Y-71.247
X233.934Y-72.517
X233.934Y-73.787
X233.934Y-85.598
X233.934Y-86.614
X234.315Y-75.501
X234.442Y-64.008
X234.442Y-64.897
X234.442Y-65.786
X234.442Y-66.675
X235.204Y-58.547
X235.204Y-71.247
X235.204Y-72.517
X235.204Y-73.787
X235.331Y-64.008
X235.331Y-64.897
X235.331Y-65.786
X235.331Y-66.675
T4
X211.895Y-61.615
X211.895Y-83.165
X213.295Y-61.615
X213.295Y-83.165
X214.695Y-61.615
X214.695Y-83.165
X216.095Y-61.615
X216.095Y-83.165
X220.15Y-61.615
X221.55Y-61.615
X222.95Y-61.615
X224.35Y-61.615
X227.945Y-52.51
X227.945Y-53.91
X227.945Y-55.31
X227.945Y-56.71
T5
X177.86Y-51.2
X177.86Y-53.74
X177.86Y-91.2
X177.86Y-93.74
X180.4Y-51.2
X180.4Y-53.74
X180.4Y-91.2
X180.4Y-93.74
X182.94Y-51.2
X182.94Y-53.74
X182.94Y-91.2
X182.94Y-93.74
X185.48Y-51.2
X185.48Y-53.74
X185.48Y-91.2
X185.48Y-93.74
X188.02Y-51.2
X188.02Y-53.74
X188.02Y-91.2
X188.02Y-93.74
X190.56Y-51.2
X190.56Y-53.74
X190.56Y-91.2
X190.56Y-93.74
X193.1Y-51.2
X193.1Y-53.74
X193.1Y-91.2
X193.1Y-93.74
X195.64Y-51.2
X195.64Y-53.74
X195.64Y-91.2
X195.64Y-93.74
X198.18Y-51.2
X198.18Y-53.74
X198.18Y-91.2
X198.18Y-93.74
X200.72Y-51.2
X200.72Y-53.74
X200.72Y-91.2
X200.72Y-93.74
X203.26Y-51.2
X203.26Y-53.74
X203.26Y-91.2
X203.26Y-93.74
X205.8Y-51.2
X205.8Y-53.74
X205.8Y-91.2
X205.8Y-93.74
T7
X175.32Y-51.2
X175.32Y-53.74
X175.32Y-91.2
X175.32Y-93.74
T8
X220.424Y-80.518
X220.424Y-83.058
X220.424Y-85.598
X220.424Y-88.138
X222.964Y-81.788
X222.964Y-84.328
X222.964Y-86.868
X222.964Y-89.408
X234.376Y-78.524
X234.376Y-81.064
X234.376Y-88.862
X234.376Y-91.402
T10
X226.299Y-77.213
X226.299Y-92.713
T11
X164.5Y-53.
X164.5Y-92.
X235.Y-61.
T6
X214.845Y-54.015G85X213.145Y-54.015
G05
X213.145Y-90.765G85X214.845Y-90.765
G05
X223.1Y-54.015G85X221.4Y-54.015
G05
X235.545Y-55.46G85X235.545Y-53.76
G05
T9
X210.915Y-59.835G85X210.915Y-59.395
G05
X210.915Y-84.945G85X210.915Y-85.385
G05
X217.075Y-59.835G85X217.075Y-59.395
G05
X217.075Y-84.945G85X217.075Y-85.385
G05
X219.17Y-59.835G85X219.17Y-59.395
G05
X225.33Y-59.835G85X225.33Y-59.395
G05
X229.725Y-51.53G85X230.165Y-51.53
G05
X229.725Y-57.69G85X230.165Y-57.69
G05
T0
M30
